<svg width="329" height="127" viewBox="0 0 329 127" fill="none" xmlns="http://www.w3.org/2000/svg">
<g filter="url(#filter0_d_476_3149)">
<g clip-path="url(#clip0_476_3149)">
<rect x="0" y="0" width="329" height="127" rx="20" fill="#F2F2F2"/>
<path d="M201.16 45.78V46.1L202.8 45.96H205.74V47.7H205.42L202.54 47.64C199.78 47.58 197.76 46.9 196.46 45.6C194.94 44.14 194.18 42.08 194.18 39.38C194.18 34.68 196.34 32.02 200.18 32.02C204.02 32.02 206.14 34.62 206.14 39.02C206.14 43.08 204.44 45.52 201.16 45.78ZM203.84 39.24C203.84 35.72 202.6 33.8 200.18 33.8C197.76 33.8 196.48 35.78 196.48 39.24C196.48 42.7 197.76 44.64 200.18 44.64C202.6 44.64 203.84 42.68 203.84 39.24ZM215.056 41.8V35.9H217.116V46H215.456V45.12L215.596 44.22H215.416C214.856 45.36 213.636 46.18 211.856 46.18C209.616 46.18 208.356 44.94 208.356 42.64V35.9H210.416V42.26C210.416 43.8 211.116 44.56 212.496 44.56C214.036 44.56 215.056 43.54 215.056 41.8ZM228.387 40.8V41.24H221.167C221.247 43.5 222.167 44.64 223.907 44.64C225.247 44.64 226.067 44.02 226.347 42.8H228.327C228.007 44.9 226.387 46.18 223.807 46.18C220.747 46.18 219.067 44.26 219.067 40.98C219.067 37.68 220.847 35.7 223.867 35.7C226.807 35.7 228.387 37.54 228.387 40.8ZM223.807 37.16C222.287 37.16 221.427 38.1 221.227 39.98H226.347C226.187 38.1 225.347 37.16 223.807 37.16ZM235.159 35.7C235.699 35.7 236.159 35.78 236.539 35.94V37.86C236.039 37.72 235.579 37.64 235.139 37.64C233.399 37.64 232.399 38.8 232.399 40.8V46H230.339V35.9H232.019V36.72L231.859 37.82H232.039C232.499 36.54 233.559 35.7 235.159 35.7ZM242.316 35.7C245.416 35.7 247.136 37.66 247.136 40.94C247.136 44.22 245.416 46.18 242.316 46.18C239.216 46.18 237.496 44.22 237.496 40.94C237.496 37.66 239.256 35.7 242.316 35.7ZM242.336 44.62C244.116 44.62 245.076 43.26 245.076 40.94C245.076 38.6 244.116 37.26 242.336 37.26C240.516 37.26 239.536 38.62 239.536 40.94C239.536 43.26 240.516 44.62 242.336 44.62ZM257.724 46.18C255.004 46.18 253.524 45.14 253.284 43.06H255.264C255.484 44.24 256.324 44.82 257.784 44.82C259.164 44.82 260.084 44.24 260.084 43.26C260.084 42.48 259.484 41.98 258.264 41.74L256.204 41.38C254.424 41.04 253.464 40.08 253.464 38.74C253.464 36.9 255.064 35.7 257.704 35.7C260.204 35.7 261.744 36.76 261.924 38.74H259.944C259.804 37.62 259.004 37.06 257.584 37.06C256.224 37.06 255.404 37.64 255.404 38.46C255.404 39.14 256.004 39.6 257.184 39.84L259.184 40.2C261.164 40.58 262.144 41.52 262.144 42.98C262.144 44.92 260.424 46.18 257.724 46.18ZM273.071 40.8V41.24H265.851C265.931 43.5 266.851 44.64 268.591 44.64C269.931 44.64 270.751 44.02 271.031 42.8H273.011C272.691 44.9 271.071 46.18 268.491 46.18C265.431 46.18 263.751 44.26 263.751 40.98C263.751 37.68 265.531 35.7 268.551 35.7C271.491 35.7 273.071 37.54 273.071 40.8ZM268.491 37.16C266.971 37.16 266.111 38.1 265.911 39.98H271.031C270.871 38.1 270.031 37.16 268.491 37.16ZM279.843 35.7C280.383 35.7 280.843 35.78 281.223 35.94V37.86C280.723 37.72 280.263 37.64 279.823 37.64C278.083 37.64 277.083 38.8 277.083 40.8V46H275.023V35.9H276.703V36.72L276.543 37.82H276.723C277.183 36.54 278.243 35.7 279.843 35.7ZM203.54 60.76V61.38H196.66C196.74 63.22 197.46 64.14 198.82 64.14C199.9 64.14 200.56 63.66 200.8 62.68H203.5C203.18 64.84 201.48 66.2 198.68 66.2C195.5 66.2 193.76 64.32 193.76 60.98C193.76 57.62 195.66 55.62 198.84 55.62C201.9 55.62 203.54 57.42 203.54 60.76ZM198.76 57.56C197.6 57.56 196.92 58.28 196.72 59.74H200.74C200.56 58.28 199.9 57.56 198.76 57.56ZM211.068 55.62C213.368 55.62 214.648 56.88 214.648 59.1V66H211.828V59.7C211.828 58.46 211.268 57.84 210.128 57.84C208.828 57.84 207.988 58.66 207.988 60.08V66H205.168V55.84H207.388V56.62L207.188 57.56H207.428C207.988 56.44 209.228 55.62 211.068 55.62ZM221.911 63.9C222.271 63.9 222.671 63.84 223.131 63.74V65.94C222.431 66.12 221.711 66.2 220.971 66.2C218.631 66.2 217.471 65.1 217.471 62.88V61.68V57.76H215.831V55.84H217.471V53.12H220.311V55.84H223.091V57.76H220.311V61.5V62.4C220.311 63.4 220.851 63.9 221.911 63.9ZM230.07 55.62C230.61 55.62 231.07 55.7 231.43 55.86V58.5C230.97 58.36 230.51 58.28 230.09 58.28C228.49 58.28 227.53 59.36 227.53 61.14V66H224.71V55.84H226.93V56.6L226.71 57.84H226.97C227.37 56.54 228.47 55.62 230.07 55.62ZM241.978 60.76V61.38H235.098C235.178 63.22 235.898 64.14 237.258 64.14C238.338 64.14 238.998 63.66 239.238 62.68H241.938C241.618 64.84 239.918 66.2 237.118 66.2C233.938 66.2 232.198 64.32 232.198 60.98C232.198 57.62 234.098 55.62 237.278 55.62C240.338 55.62 241.978 57.42 241.978 60.76ZM237.198 57.56C236.038 57.56 235.358 58.28 235.158 59.74H239.178C238.998 58.28 238.338 57.56 237.198 57.56ZM251.046 56.62V55.84H253.406V65.34C253.406 68.24 251.706 69.88 248.266 69.88C245.286 69.88 243.606 68.56 243.426 66.24H246.246C246.386 67.28 247.086 67.92 248.286 67.92C249.666 67.92 250.386 67.12 250.446 65.54L251.046 64.56L251.266 63.7H251.026C250.446 64.84 249.246 65.68 247.486 65.68C244.826 65.68 243.326 63.8 243.326 60.62C243.326 57.5 244.826 55.62 247.486 55.62C249.186 55.62 250.346 56.26 251.006 57.54H251.266L251.046 56.62ZM250.486 60.64C250.486 58.72 249.726 57.62 248.366 57.62C246.986 57.62 246.226 58.74 246.226 60.64C246.226 62.56 247.006 63.68 248.366 63.68C249.726 63.68 250.486 62.62 250.486 60.64ZM259.742 55.62C262.842 55.62 264.382 56.92 264.382 59.52V66H262.182V65.2L262.402 64.24H262.122C261.422 65.54 260.182 66.2 258.362 66.2C256.122 66.2 254.862 65.12 254.862 63.38C254.862 61.6 255.982 60.58 258.642 60.26L261.562 59.92V59.4C261.562 58.18 260.942 57.56 259.682 57.56C258.462 57.56 257.842 58.14 257.822 59.3H255.062C255.082 56.92 256.782 55.62 259.742 55.62ZM259.122 64.28C260.542 64.28 261.562 63.4 261.562 62.1V61.56L259.202 61.82C258.182 61.96 257.662 62.38 257.662 63.08C257.662 63.88 258.142 64.28 259.122 64.28ZM273.074 55.98V51.6H275.914V66H273.694V65.18L273.894 64.24H273.634C273.054 65.38 271.874 66.2 270.134 66.2C267.514 66.2 265.934 64.26 265.934 60.92C265.934 57.58 267.534 55.62 270.154 55.62C271.814 55.62 272.974 56.28 273.634 57.6H273.894L273.694 56.78L273.074 55.98ZM270.994 64.06C272.354 64.06 273.114 62.96 273.114 60.9C273.114 58.8 272.414 57.76 270.994 57.76C269.574 57.76 268.834 58.88 268.834 60.9C268.834 62.92 269.574 64.06 270.994 64.06ZM282.494 66.2C279.274 66.2 277.414 64.26 277.414 60.92C277.414 57.56 279.274 55.62 282.494 55.62C285.714 55.62 287.554 57.56 287.554 60.92C287.554 64.26 285.754 66.2 282.494 66.2ZM282.494 64.08C283.974 64.08 284.714 63.02 284.714 60.92C284.714 58.8 283.974 57.74 282.494 57.74C281.034 57.74 280.234 58.86 280.234 60.92C280.234 62.94 281.034 64.08 282.494 64.08ZM294.514 55.62C295.054 55.62 295.514 55.7 295.874 55.86V58.5C295.414 58.36 294.954 58.28 294.534 58.28C292.934 58.28 291.974 59.36 291.974 61.14V66H289.154V55.84H291.374V56.6L291.154 57.84H291.414C291.814 56.54 292.914 55.62 294.514 55.62Z" fill="black"/>
<circle cx="54.9624" cy="108.629" r="78.1964" transform="rotate(-13.3958 54.9624 108.629)" fill="#DB3319"/>
<path d="M195.208 85.28V87.956H199.432V89H193.984V80.72H199.372V81.776H195.208V84.26H198.772V85.28H195.208ZM203.836 82.82C205.192 82.82 205.972 83.576 205.972 84.956V89H204.748V85.196C204.748 84.272 204.316 83.804 203.452 83.804C202.48 83.804 201.856 84.416 201.856 85.472V89H200.62V82.94H201.616V83.456L201.544 84.008H201.64C201.976 83.324 202.72 82.82 203.836 82.82ZM210.248 88.1C210.488 88.1 210.764 88.064 211.064 87.98V88.952C210.728 89.06 210.332 89.108 209.864 89.108C208.604 89.108 207.968 88.496 207.968 87.26V86.66V83.804H206.9V82.94H207.968V81.296H209.204V82.94H211.028V83.804H209.204V86.588V87.068C209.204 87.752 209.552 88.1 210.248 88.1ZM215.131 82.82C215.455 82.82 215.731 82.868 215.959 82.964V84.116C215.659 84.032 215.383 83.984 215.119 83.984C214.075 83.984 213.475 84.68 213.475 85.88V89H212.239V82.94H213.247V83.432L213.151 84.092H213.259C213.535 83.324 214.171 82.82 215.131 82.82ZM222.114 85.88V86.144H217.782C217.83 87.5 218.382 88.184 219.426 88.184C220.23 88.184 220.722 87.812 220.89 87.08H222.078C221.886 88.34 220.914 89.108 219.366 89.108C217.53 89.108 216.522 87.956 216.522 85.988C216.522 84.008 217.59 82.82 219.402 82.82C221.166 82.82 222.114 83.924 222.114 85.88ZM219.366 83.696C218.454 83.696 217.938 84.26 217.818 85.388H220.89C220.794 84.26 220.29 83.696 219.366 83.696ZM227.761 83.468V82.94H228.817V88.664C228.817 90.332 227.845 91.28 225.913 91.28C224.233 91.28 223.273 90.524 223.165 89.18H224.401C224.485 89.96 225.025 90.404 225.925 90.404C226.969 90.404 227.497 89.852 227.533 88.748L227.761 88.172L227.845 87.692H227.737C227.389 88.412 226.645 88.904 225.601 88.904C224.017 88.904 223.117 87.728 223.117 85.856C223.117 83.996 224.017 82.82 225.601 82.82C226.645 82.82 227.389 83.3 227.725 84.008H227.845L227.761 83.468ZM225.973 88.016C226.969 88.016 227.545 87.236 227.545 85.856C227.545 84.5 226.969 83.708 225.973 83.708C224.929 83.708 224.377 84.524 224.377 85.856C224.377 87.212 224.953 88.016 225.973 88.016ZM234.204 86.48V82.94H235.44V89H234.444V88.472L234.528 87.932H234.42C234.084 88.616 233.352 89.108 232.284 89.108C230.94 89.108 230.184 88.364 230.184 86.984V82.94H231.42V86.756C231.42 87.68 231.84 88.136 232.668 88.136C233.592 88.136 234.204 87.524 234.204 86.48ZM242.203 85.88V86.144H237.871C237.919 87.5 238.471 88.184 239.515 88.184C240.319 88.184 240.811 87.812 240.979 87.08H242.167C241.975 88.34 241.003 89.108 239.455 89.108C237.619 89.108 236.611 87.956 236.611 85.988C236.611 84.008 237.679 82.82 239.491 82.82C241.255 82.82 242.203 83.924 242.203 85.88ZM239.455 83.696C238.543 83.696 238.027 84.26 237.907 85.388H240.979C240.883 84.26 240.379 83.696 239.455 83.696ZM251.549 85.88V86.144H247.217C247.265 87.5 247.817 88.184 248.861 88.184C249.665 88.184 250.157 87.812 250.325 87.08H251.513C251.321 88.34 250.349 89.108 248.801 89.108C246.965 89.108 245.957 87.956 245.957 85.988C245.957 84.008 247.025 82.82 248.837 82.82C250.601 82.82 251.549 83.924 251.549 85.88ZM248.801 83.696C247.889 83.696 247.373 84.26 247.253 85.388H250.325C250.229 84.26 249.725 83.696 248.801 83.696ZM255.936 82.82C257.292 82.82 258.072 83.576 258.072 84.956V89H256.848V85.196C256.848 84.272 256.416 83.804 255.552 83.804C254.58 83.804 253.956 84.416 253.956 85.472V89H252.72V82.94H253.716V83.456L253.644 84.008H253.74C254.076 83.324 254.82 82.82 255.936 82.82ZM262.204 89.12C260.32 89.12 259.276 87.944 259.276 85.964C259.276 83.996 260.332 82.832 262.216 82.832C263.8 82.832 264.832 83.648 264.964 85.04H263.704C263.536 84.176 263.032 83.744 262.204 83.744C261.1 83.744 260.524 84.536 260.524 85.964C260.524 87.392 261.112 88.184 262.204 88.184C263.008 88.184 263.548 87.704 263.704 86.876H264.964C264.832 88.28 263.824 89.12 262.204 89.12ZM268.774 82.82C270.634 82.82 271.666 83.996 271.666 85.964C271.666 87.932 270.634 89.108 268.774 89.108C266.914 89.108 265.882 87.932 265.882 85.964C265.882 83.996 266.938 82.82 268.774 82.82ZM268.786 88.172C269.854 88.172 270.43 87.356 270.43 85.964C270.43 84.56 269.854 83.756 268.786 83.756C267.694 83.756 267.106 84.572 267.106 85.964C267.106 87.356 267.694 88.172 268.786 88.172ZM279.516 82.832C280.728 82.832 281.46 83.528 281.46 84.776V88.988H280.248V84.992C280.248 84.188 279.888 83.78 279.156 83.78C278.292 83.78 277.764 84.344 277.764 85.292V89H276.552V84.992C276.552 84.188 276.18 83.78 275.448 83.78C274.596 83.78 274.068 84.344 274.068 85.316V89H272.856V82.94H273.804V83.468L273.732 83.996H273.84C274.128 83.312 274.812 82.832 275.772 82.832C276.6 82.832 277.152 83.144 277.428 83.78L277.368 84.104H277.464C277.764 83.348 278.472 82.832 279.516 82.832ZM288.226 85.88V86.144H283.894C283.942 87.5 284.494 88.184 285.538 88.184C286.342 88.184 286.834 87.812 287.002 87.08H288.19C287.998 88.34 287.026 89.108 285.478 89.108C283.642 89.108 282.634 87.956 282.634 85.988C282.634 84.008 283.702 82.82 285.514 82.82C287.278 82.82 288.226 83.924 288.226 85.88ZM285.478 83.696C284.566 83.696 284.05 84.26 283.93 85.388H287.002C286.906 84.26 286.402 83.696 285.478 83.696ZM292.613 82.82C293.969 82.82 294.749 83.576 294.749 84.956V89H293.525V85.196C293.525 84.272 293.093 83.804 292.229 83.804C291.257 83.804 290.633 84.416 290.633 85.472V89H289.397V82.94H290.393V83.456L290.321 84.008H290.417C290.753 83.324 291.497 82.82 292.613 82.82ZM300.369 83.216V80.36H301.605V89H300.609V88.448L300.693 87.896H300.573C300.225 88.616 299.493 89.108 298.449 89.108C296.877 89.108 295.953 87.896 295.953 85.976C295.953 84.044 296.889 82.82 298.461 82.82C299.505 82.82 300.237 83.324 300.573 84.044H300.693L300.609 83.624L300.369 83.216ZM298.809 88.16C299.817 88.16 300.393 87.356 300.393 85.964C300.393 84.536 299.817 83.768 298.809 83.768C297.765 83.768 297.213 84.584 297.213 85.964C297.213 87.344 297.789 88.16 298.809 88.16ZM305.482 82.82C307.21 82.82 308.074 83.576 308.074 85.076V89H307.078V88.448L307.174 87.896H307.042C306.634 88.7 305.878 89.108 304.762 89.108C303.466 89.108 302.722 88.484 302.722 87.464C302.722 86.468 303.358 85.868 304.906 85.676L306.838 85.448V85.028C306.838 84.14 306.37 83.696 305.434 83.696C304.534 83.696 304.078 84.104 304.054 84.932H302.842C302.854 83.552 303.838 82.82 305.482 82.82ZM305.074 88.244C306.13 88.244 306.838 87.596 306.838 86.6V86.192L305.122 86.396C304.342 86.504 303.946 86.816 303.946 87.332C303.946 87.92 304.366 88.244 305.074 88.244ZM311.828 89.108C310.196 89.108 309.308 88.484 309.164 87.236H310.352C310.484 87.944 310.988 88.292 311.864 88.292C312.692 88.292 313.244 87.944 313.244 87.356C313.244 86.888 312.884 86.588 312.152 86.444L310.916 86.228C309.848 86.024 309.272 85.448 309.272 84.644C309.272 83.54 310.232 82.82 311.816 82.82C313.316 82.82 314.24 83.456 314.348 84.644H313.16C313.076 83.972 312.596 83.636 311.744 83.636C310.928 83.636 310.436 83.984 310.436 84.476C310.436 84.884 310.796 85.16 311.504 85.304L312.704 85.52C313.892 85.748 314.48 86.312 314.48 87.188C314.48 88.352 313.448 89.108 311.828 89.108ZM321.543 82.832C323.163 82.832 324.051 84.032 324.051 85.964C324.051 87.92 323.139 89.12 321.543 89.12C320.499 89.12 319.767 88.616 319.419 87.896H319.311L319.383 88.316L319.635 88.724V91.172H318.387V82.94H319.383V83.492L319.311 84.044H319.431C319.767 83.336 320.499 82.832 321.543 82.832ZM321.195 88.172C322.239 88.172 322.791 87.356 322.791 85.976C322.791 84.596 322.215 83.78 321.195 83.78C320.187 83.78 319.611 84.584 319.611 85.976C319.611 87.404 320.187 88.172 321.195 88.172ZM327.759 82.82C329.487 82.82 330.351 83.576 330.351 85.076V89H329.355V88.448L329.451 87.896H329.319C328.911 88.7 328.155 89.108 327.039 89.108C325.743 89.108 324.999 88.484 324.999 87.464C324.999 86.468 325.635 85.868 327.183 85.676L329.115 85.448V85.028C329.115 84.14 328.647 83.696 327.711 83.696C326.811 83.696 326.355 84.104 326.331 84.932H325.119C325.131 83.552 326.115 82.82 327.759 82.82ZM327.351 88.244C328.407 88.244 329.115 87.596 329.115 86.6V86.192L327.399 86.396C326.619 86.504 326.223 86.816 326.223 87.332C326.223 87.92 326.643 88.244 327.351 88.244ZM334.598 82.82C334.922 82.82 335.198 82.868 335.426 82.964V84.116C335.126 84.032 334.85 83.984 334.586 83.984C333.542 83.984 332.942 84.68 332.942 85.88V89H331.706V82.94H332.714V83.432L332.618 84.092H332.726C333.002 83.324 333.638 82.82 334.598 82.82ZM338.722 82.82C340.45 82.82 341.314 83.576 341.314 85.076V89H340.318V88.448L340.414 87.896H340.282C339.874 88.7 339.118 89.108 338.002 89.108C336.706 89.108 335.962 88.484 335.962 87.464C335.962 86.468 336.598 85.868 338.146 85.676L340.078 85.448V85.028C340.078 84.14 339.61 83.696 338.674 83.696C337.774 83.696 337.318 84.104 337.294 84.932H336.082C336.094 83.552 337.078 82.82 338.722 82.82ZM338.314 88.244C339.37 88.244 340.078 87.596 340.078 86.6V86.192L338.362 86.396C337.582 86.504 337.186 86.816 337.186 87.332C337.186 87.92 337.606 88.244 338.314 88.244ZM196.144 101.108C194.512 101.108 193.624 100.484 193.48 99.236H194.668C194.8 99.944 195.304 100.292 196.18 100.292C197.008 100.292 197.56 99.944 197.56 99.356C197.56 98.888 197.2 98.588 196.468 98.444L195.232 98.228C194.164 98.024 193.588 97.448 193.588 96.644C193.588 95.54 194.548 94.82 196.132 94.82C197.632 94.82 198.556 95.456 198.664 96.644H197.476C197.392 95.972 196.912 95.636 196.06 95.636C195.244 95.636 194.752 95.984 194.752 96.476C194.752 96.884 195.112 97.16 195.82 97.304L197.02 97.52C198.208 97.748 198.796 98.312 198.796 99.188C198.796 100.352 197.764 101.108 196.144 101.108ZM203.96 98.48V94.94H205.196V101H204.2V100.472L204.284 99.932H204.176C203.84 100.616 203.108 101.108 202.04 101.108C200.696 101.108 199.94 100.364 199.94 98.984V94.94H201.176V98.756C201.176 99.68 201.596 100.136 202.424 100.136C203.348 100.136 203.96 99.524 203.96 98.48ZM209.055 94.82C210.783 94.82 211.647 95.576 211.647 97.076V101H210.651V100.448L210.747 99.896H210.615C210.207 100.7 209.451 101.108 208.335 101.108C207.039 101.108 206.295 100.484 206.295 99.464C206.295 98.468 206.931 97.868 208.479 97.676L210.411 97.448V97.028C210.411 96.14 209.943 95.696 209.007 95.696C208.107 95.696 207.651 96.104 207.627 96.932H206.415C206.427 95.552 207.411 94.82 209.055 94.82ZM208.647 100.244C209.703 100.244 210.411 99.596 210.411 98.6V98.192L208.695 98.396C207.915 98.504 207.519 98.816 207.519 99.332C207.519 99.92 207.939 100.244 208.647 100.244ZM218.524 101.12C216.64 101.12 215.596 99.944 215.596 97.964C215.596 95.996 216.652 94.832 218.536 94.832C220.12 94.832 221.152 95.648 221.284 97.04H220.024C219.856 96.176 219.352 95.744 218.524 95.744C217.42 95.744 216.844 96.536 216.844 97.964C216.844 99.392 217.432 100.184 218.524 100.184C219.328 100.184 219.868 99.704 220.024 98.876H221.284C221.152 100.28 220.144 101.12 218.524 101.12ZM225.095 94.82C226.955 94.82 227.987 95.996 227.987 97.964C227.987 99.932 226.955 101.108 225.095 101.108C223.235 101.108 222.203 99.932 222.203 97.964C222.203 95.996 223.259 94.82 225.095 94.82ZM225.107 100.172C226.175 100.172 226.751 99.356 226.751 97.964C226.751 96.56 226.175 95.756 225.107 95.756C224.015 95.756 223.427 96.572 223.427 97.964C223.427 99.356 224.015 100.172 225.107 100.172ZM235.836 94.832C237.048 94.832 237.78 95.528 237.78 96.776V100.988H236.568V96.992C236.568 96.188 236.208 95.78 235.476 95.78C234.612 95.78 234.084 96.344 234.084 97.292V101H232.872V96.992C232.872 96.188 232.5 95.78 231.768 95.78C230.916 95.78 230.388 96.344 230.388 97.316V101H229.176V94.94H230.124V95.468L230.052 95.996H230.16C230.448 95.312 231.132 94.832 232.092 94.832C232.92 94.832 233.472 95.144 233.748 95.78L233.688 96.104H233.784C234.084 95.348 234.792 94.832 235.836 94.832ZM243.154 98.48V94.94H244.39V101H243.394V100.472L243.478 99.932H243.37C243.034 100.616 242.302 101.108 241.234 101.108C239.89 101.108 239.134 100.364 239.134 98.984V94.94H240.37V98.756C240.37 99.68 240.79 100.136 241.618 100.136C242.542 100.136 243.154 99.524 243.154 98.48ZM248.957 94.82C250.313 94.82 251.093 95.576 251.093 96.956V101H249.869V97.196C249.869 96.272 249.437 95.804 248.573 95.804C247.601 95.804 246.977 96.416 246.977 97.472V101H245.741V94.94H246.737V95.456L246.665 96.008H246.761C247.097 95.324 247.841 94.82 248.957 94.82ZM253.857 93.884H252.501V92.36H253.869L253.857 93.884ZM253.809 101H252.573V94.94H253.809V101ZM259.522 95.216V92.36H260.758V101H259.762V100.448L259.846 99.896H259.726C259.378 100.616 258.646 101.108 257.602 101.108C256.03 101.108 255.106 99.896 255.106 97.976C255.106 96.044 256.042 94.82 257.614 94.82C258.658 94.82 259.39 95.324 259.726 96.044H259.846L259.762 95.624L259.522 95.216ZM257.962 100.16C258.97 100.16 259.546 99.356 259.546 97.964C259.546 96.536 258.97 95.768 257.962 95.768C256.918 95.768 256.366 96.584 256.366 97.964C256.366 99.344 256.942 100.16 257.962 100.16ZM264.635 94.82C266.363 94.82 267.227 95.576 267.227 97.076V101H266.231V100.448L266.327 99.896H266.195C265.787 100.7 265.031 101.108 263.915 101.108C262.619 101.108 261.875 100.484 261.875 99.464C261.875 98.468 262.511 97.868 264.059 97.676L265.991 97.448V97.028C265.991 96.14 265.523 95.696 264.587 95.696C263.687 95.696 263.231 96.104 263.207 96.932H261.995C262.007 95.552 262.991 94.82 264.635 94.82ZM264.227 100.244C265.283 100.244 265.991 99.596 265.991 98.6V98.192L264.275 98.396C263.495 98.504 263.099 98.816 263.099 99.332C263.099 99.92 263.519 100.244 264.227 100.244ZM272.829 95.216V92.36H274.065V101H273.069V100.448L273.153 99.896H273.033C272.685 100.616 271.953 101.108 270.909 101.108C269.337 101.108 268.413 99.896 268.413 97.976C268.413 96.044 269.349 94.82 270.921 94.82C271.965 94.82 272.697 95.324 273.033 96.044H273.153L273.069 95.624L272.829 95.216ZM271.269 100.16C272.277 100.16 272.853 99.356 272.853 97.964C272.853 96.536 272.277 95.768 271.269 95.768C270.225 95.768 269.673 96.584 269.673 97.964C269.673 99.344 270.249 100.16 271.269 100.16ZM280.776 97.88V98.144H276.444C276.492 99.5 277.044 100.184 278.088 100.184C278.892 100.184 279.384 99.812 279.552 99.08H280.74C280.548 100.34 279.576 101.108 278.028 101.108C276.192 101.108 275.184 99.956 275.184 97.988C275.184 96.008 276.252 94.82 278.064 94.82C279.828 94.82 280.776 95.924 280.776 97.88ZM278.028 95.696C277.116 95.696 276.6 96.26 276.48 97.388H279.552C279.456 96.26 278.952 95.696 278.028 95.696Z" fill="#3A3A3A"/>
<path d="M141.693 41.6762V45.3543H133.415L136.836 39.3525L141.693 41.6762Z" fill="white" stroke="#59221D" stroke-width="0.243165" stroke-linecap="round" stroke-linejoin="round"/>
<path d="M141.694 45.3534V41.6753L136.934 39.3535V40.1847C136.934 40.7161 137.06 41.2399 137.303 41.7127C137.546 42.1855 137.897 42.5937 138.329 42.9037L141.694 45.3534Z" fill="#59221D"/>
<path d="M136.579 38.2427V36.7837C136.579 36.4419 136.676 36.107 136.858 35.8178C137.04 35.5287 137.301 35.297 137.609 35.1496L139.678 34.1599C139.891 34.0586 140.122 34.0042 140.357 34.0002C140.592 33.9963 140.825 34.043 141.04 34.1371C141.256 34.2312 141.448 34.3705 141.605 34.5457C141.762 34.7208 141.879 34.9276 141.949 35.1521L142.143 35.7843L136.579 38.2427Z" fill="white" stroke="#59221D" stroke-width="0.243165" stroke-linecap="round" stroke-linejoin="round"/>
<path d="M136.579 38.2429L144.139 34.9014" stroke="#59221D" stroke-width="0.243165" stroke-linecap="round" stroke-linejoin="round"/>
<path d="M136.549 40.4607H137.541L137.719 41.057C137.785 41.2785 137.921 41.4727 138.107 41.6107C138.292 41.7486 138.518 41.8229 138.749 41.8225H141.392C141.578 41.8224 141.762 41.7829 141.932 41.7065C142.102 41.63 142.254 41.5184 142.377 41.379C142.501 41.2396 142.593 41.0756 142.649 40.8977C142.704 40.7199 142.722 40.5324 142.699 40.3474L142.148 35.7861L136.841 38.1161H136.55C136.241 38.116 135.945 38.2376 135.725 38.4546C135.506 38.6716 135.38 38.9664 135.377 39.2751C135.375 39.4301 135.404 39.584 135.462 39.7277C135.521 39.8714 135.607 40.0022 135.716 40.1125C135.825 40.2228 135.954 40.3103 136.097 40.3701C136.241 40.4299 136.394 40.4607 136.549 40.4607Z" fill="white" stroke="#59221D" stroke-width="0.243165" stroke-linecap="round" stroke-linejoin="round"/>
<path d="M136.821 38.2364C136.876 38.2364 136.93 38.2472 136.981 38.2682C137.031 38.2892 137.077 38.3199 137.116 38.3587C137.155 38.3974 137.186 38.4434 137.206 38.4941C137.227 38.5447 137.238 38.5989 137.238 38.6537V39.3064H137.365C137.533 39.3064 137.693 39.2398 137.812 39.1212C137.931 39.0026 137.997 38.8418 137.997 38.6741V38.4208C137.997 38.2669 138.037 38.1158 138.114 37.9821C138.19 37.8485 138.3 37.737 138.432 37.6587L139.464 37.0469L136.821 38.2364Z" fill="#59221D"/>
<path d="M142.25 37.0924C142.25 37.0924 141.066 36.9275 140.92 37.499C140.829 37.8535 141.936 39.632 141.089 39.632" stroke="#59221D" stroke-width="0.243165" stroke-miterlimit="10" stroke-linecap="round"/>
<path d="M139.78 38.7475C139.908 38.7475 140.012 38.6062 140.012 38.4318C140.012 38.2575 139.908 38.1162 139.78 38.1162C139.652 38.1162 139.549 38.2575 139.549 38.4318C139.549 38.6062 139.652 38.7475 139.78 38.7475Z" fill="#59221D"/>
<path d="M141.938 38.7475C142.065 38.7475 142.169 38.6062 142.169 38.4318C142.169 38.2575 142.065 38.1162 141.938 38.1162C141.81 38.1162 141.706 38.2575 141.706 38.4318C141.706 38.6062 141.81 38.7475 141.938 38.7475Z" fill="#59221D"/>
<path d="M136.835 39.3066C136.835 39.1448 136.771 38.9895 136.656 38.8751C136.542 38.7606 136.386 38.6963 136.225 38.6963" stroke="#59221D" stroke-width="0.243165" stroke-miterlimit="10" stroke-linecap="round"/>
<path d="M140.917 40.334C140.917 40.334 139.944 40.334 139.949 39.8564" stroke="#59221D" stroke-width="0.243165" stroke-miterlimit="10" stroke-linecap="round"/>
<path d="M159.628 61.4715C159.101 61.0754 158.741 60.4965 158.619 59.8486L157.155 52.1495C156.786 50.2371 155.764 48.5127 154.262 47.2727C152.76 46.0327 150.873 45.3544 148.926 45.3545H127.479C125.459 45.3545 123.47 45.8484 121.685 46.793C119.9 47.7376 118.374 49.1044 117.238 50.7742L108.294 63.9211C107.039 65.7663 106.574 67.8118 106.742 69.76C107.037 73.177 109.939 75.7808 113.368 75.7808H114.505L121.384 67.4286C120.733 67.2861 120.405 66.6966 120.745 66.1865L124.796 60.1073C125.465 59.104 126.989 59.2806 127.413 60.4079L132.179 72.6109C132.179 72.6109 151.892 72.6109 151.893 72.6148L159.628 61.4715Z" fill="white" stroke="#F2AF2A" stroke-width="0.243165" stroke-miterlimit="10"/>
<path d="M116.629 53.4714L115.13 54.9707L116.629 56.4701L118.129 54.9707L116.629 53.4714Z" fill="#F2AF2A"/>
<path d="M115.454 54.9711L113.955 56.4704L113.603 56.1178L114.816 54.333L115.293 54.8091L115.454 54.9711Z" fill="#F2AF2A"/>
<path d="M119.304 53.4714L117.805 54.9707L119.304 56.4701L120.803 54.9707L119.304 53.4714Z" fill="#F2AF2A"/>
<path d="M122.028 53.4714L120.528 54.9707L122.028 56.4701L123.527 54.9707L122.028 53.4714Z" fill="#F2AF2A"/>
<path d="M124.701 53.4714L123.202 54.9707L124.702 56.4701L126.201 54.9707L124.701 53.4714Z" fill="#F2AF2A"/>
<path d="M127.376 53.4714L125.877 54.9707L127.376 56.4701L128.876 54.9707L127.376 53.4714Z" fill="#F2AF2A"/>
<path d="M130.052 53.4714L128.553 54.9707L130.052 56.4701L131.551 54.9707L130.052 53.4714Z" fill="#F2AF2A"/>
<path d="M132.776 53.4714L131.276 54.9707L132.776 56.4701L134.275 54.9707L132.776 53.4714Z" fill="#F2AF2A"/>
<path d="M135.45 53.4714L133.95 54.9707L135.45 56.4701L136.949 54.9707L135.45 53.4714Z" fill="#F2AF2A"/>
<path d="M138.076 53.4714L136.577 54.9707L138.077 56.4701L139.576 54.9707L138.076 53.4714Z" fill="#F2AF2A"/>
<path d="M140.751 53.4714L139.252 54.9707L140.751 56.4701L142.251 54.9707L140.751 53.4714Z" fill="#F2AF2A"/>
<path d="M143.475 53.4714L141.976 54.9707L143.475 56.4701L144.974 54.9707L143.475 53.4714Z" fill="#F2AF2A"/>
<path d="M146.15 53.4714L144.65 54.9707L146.15 56.4701L147.649 54.9707L146.15 53.4714Z" fill="#F2AF2A"/>
<path d="M148.824 53.4714L147.324 54.9707L148.824 56.4701L150.323 54.9707L148.824 53.4714Z" fill="#F2AF2A"/>
<path d="M151.499 53.4714L150 54.9707L151.499 56.4701L152.999 54.9707L151.499 53.4714Z" fill="#F2AF2A"/>
<path d="M154.223 53.4714L152.724 54.9707L154.223 56.4701L155.722 54.9707L154.223 53.4714Z" fill="#F2AF2A"/>
<path d="M157.804 55.5639L156.898 56.4704L155.398 54.971L156.898 53.4717L156.987 53.5607L157.526 54.1L157.804 55.5639Z" fill="#F2AF2A"/>
<path d="M118.129 52.1504L116.63 53.6498L115.827 52.8473L117.041 51.0625L117.967 51.9885L118.129 52.1504Z" fill="#F2AF2A"/>
<path d="M119.304 50.651L117.805 52.1504L119.304 53.6497L120.803 52.1504L119.304 50.651Z" fill="#F2AF2A"/>
<path d="M122.028 50.6501L120.528 52.1494L122.028 53.6488L123.527 52.1494L122.028 50.6501Z" fill="#F2AF2A"/>
<path d="M124.702 50.6501L123.203 52.1494L124.702 53.6488L126.202 52.1494L124.702 50.6501Z" fill="#F2AF2A"/>
<path d="M127.377 50.651L125.878 52.1504L127.377 53.6497L128.877 52.1504L127.377 50.651Z" fill="#F2AF2A"/>
<path d="M130.052 50.651L128.553 52.1504L130.052 53.6497L131.551 52.1504L130.052 50.651Z" fill="#F2AF2A"/>
<path d="M132.776 50.6501L131.276 52.1494L132.776 53.6488L134.275 52.1494L132.776 50.6501Z" fill="#F2AF2A"/>
<path d="M135.451 50.651L133.951 52.1504L135.451 53.6497L136.95 52.1504L135.451 50.651Z" fill="#F2AF2A"/>
<path d="M138.076 50.651L136.577 52.1504L138.077 53.6497L139.576 52.1504L138.076 50.651Z" fill="#F2AF2A"/>
<path d="M140.751 50.651L139.252 52.1504L140.751 53.6497L142.251 52.1504L140.751 50.651Z" fill="#F2AF2A"/>
<path d="M143.475 50.651L141.976 52.1504L143.475 53.6497L144.974 52.1504L143.475 50.651Z" fill="#F2AF2A"/>
<path d="M146.149 50.651L144.649 52.1504L146.149 53.6497L147.648 52.1504L146.149 50.651Z" fill="#F2AF2A"/>
<path d="M148.824 50.651L147.324 52.1504L148.824 53.6497L150.323 52.1504L148.824 50.651Z" fill="#F2AF2A"/>
<path d="M151.499 50.651L150 52.1504L151.499 53.6497L152.999 52.1504L151.499 50.651Z" fill="#F2AF2A"/>
<path d="M154.223 50.651L152.724 52.1504L154.223 53.6497L155.722 52.1504L154.223 50.651Z" fill="#F2AF2A"/>
<path d="M157.353 53.1944L156.898 53.6501L155.398 52.1508L156.769 50.7803C156.936 51.225 157.065 51.6832 157.155 52.1498L157.353 53.1944Z" fill="#F2AF2A"/>
<path d="M120.805 49.3785L119.306 50.8778L118.09 49.662C118.551 49.125 119.058 48.6287 119.605 48.1787L120.667 49.2404L120.805 49.3785Z" fill="#F2AF2A"/>
<path d="M122.028 47.8796L120.528 49.3789L122.028 50.8783L123.527 49.3789L122.028 47.8796Z" fill="#F2AF2A"/>
<path d="M124.701 47.8796L123.202 49.3789L124.701 50.8783L126.201 49.3789L124.701 47.8796Z" fill="#F2AF2A"/>
<path d="M127.376 47.8796L125.877 49.3789L127.376 50.8783L128.876 49.3789L127.376 47.8796Z" fill="#F2AF2A"/>
<path d="M130.052 47.8786L128.553 49.3779L130.052 50.8773L131.551 49.3779L130.052 47.8786Z" fill="#F2AF2A"/>
<path d="M132.776 47.8796L131.276 49.3789L132.776 50.8783L134.275 49.3789L132.776 47.8796Z" fill="#F2AF2A"/>
<path d="M135.451 47.8796L133.951 49.3789L135.451 50.8783L136.95 49.3789L135.451 47.8796Z" fill="#F2AF2A"/>
<path d="M138.076 47.8786L136.577 49.3779L138.076 50.8773L139.576 49.3779L138.076 47.8786Z" fill="#F2AF2A"/>
<path d="M140.751 47.8796L139.252 49.3789L140.751 50.8783L142.251 49.3789L140.751 47.8796Z" fill="#F2AF2A"/>
<path d="M143.475 47.8786L141.976 49.3779L143.475 50.8773L144.974 49.3779L143.475 47.8786Z" fill="#F2AF2A"/>
<path d="M146.15 47.8786L144.65 49.3779L146.15 50.8773L147.649 49.3779L146.15 47.8786Z" fill="#F2AF2A"/>
<path d="M148.825 47.8786L147.325 49.3779L148.825 50.8773L150.324 49.3779L148.825 47.8786Z" fill="#F2AF2A"/>
<path d="M151.499 47.8796L150 49.3789L151.499 50.8783L152.999 49.3789L151.499 47.8796Z" fill="#F2AF2A"/>
<path d="M154.223 47.8786L152.724 49.3779L154.223 50.8773L155.722 49.3779L154.223 47.8786Z" fill="#F2AF2A"/>
<path d="M156.75 50.7302L155.398 49.3787L155.815 48.9619C156.197 49.5116 156.511 50.1053 156.75 50.7302Z" fill="#F2AF2A"/>
<path d="M123.528 46.5579L122.029 48.0573L121.097 47.126C121.739 46.739 122.416 46.4118 123.118 46.1484L123.365 46.396L123.528 46.5579Z" fill="#F2AF2A"/>
<path d="M126.203 46.558L124.703 48.0574L123.204 46.558L123.868 45.8927C124.308 45.7583 124.756 45.6487 125.208 45.5645L126.039 46.3961L126.203 46.558Z" fill="#F2AF2A"/>
<path d="M128.878 46.5577L127.378 48.057L125.879 46.5577L127.075 45.3613C127.21 45.3571 127.344 45.3548 127.479 45.3545H127.673L128.715 46.3957L128.878 46.5577Z" fill="#F2AF2A"/>
<path d="M131.551 46.5577L130.052 48.057L128.553 46.5577L129.756 45.3545H130.348L131.414 46.42L131.551 46.5577Z" fill="#F2AF2A"/>
<path d="M134.275 46.5577L132.776 48.057L131.276 46.5577L132.48 45.3545H133.072L134.113 46.3957L134.275 46.5577Z" fill="#F2AF2A"/>
<path d="M136.95 46.5577L135.451 48.057L133.951 46.5577L135.154 45.3545H135.747L136.764 46.3714L136.95 46.5577Z" fill="#F2AF2A"/>
<path d="M139.576 46.5577L138.077 48.057L136.577 46.5577L137.78 45.3545H138.373L139.414 46.3957L139.576 46.5577Z" fill="#F2AF2A"/>
<path d="M142.251 46.5577L140.751 48.057L139.252 46.5577L140.455 45.3545H141.047L142.113 46.42L142.251 46.5577Z" fill="#F2AF2A"/>
<path d="M144.974 46.5577L143.475 48.057L141.976 46.5577L143.179 45.3545H143.771L144.812 46.3957L144.974 46.5577Z" fill="#F2AF2A"/>
<path d="M147.649 46.5577L146.15 48.057L144.65 46.5577L145.854 45.3545H146.446L147.487 46.3957L147.649 46.5577Z" fill="#F2AF2A"/>
<path d="M150.325 46.5577L148.826 48.057L147.326 46.5577L148.529 45.3545H148.927C148.993 45.3545 149.059 45.3545 149.122 45.3569L150.325 46.5577Z" fill="#F2AF2A"/>
<path d="M153 46.5582L151.5 48.0575L150.001 46.5582L150.957 45.6035C151.556 45.7523 152.136 45.9672 152.687 46.244L153 46.5582Z" fill="#F2AF2A"/>
<path d="M154.659 47.6229L154.312 47.9696L154.223 48.0586L152.724 46.5593L152.861 46.4217L152.917 46.3662C153.549 46.7091 154.134 47.1314 154.659 47.6229Z" fill="#F2AF2A"/>
<path d="M131.552 66.1566L130.189 67.5188L129.348 65.3619L130.052 64.6572L131.552 66.1566Z" fill="#F2AF2A"/>
<path d="M132.776 64.6569L131.276 66.1562L132.776 67.6556L134.275 66.1563L132.776 64.6569Z" fill="#F2AF2A"/>
<path d="M135.451 64.6569L133.951 66.1562L135.451 67.6556L136.95 66.1563L135.451 64.6569Z" fill="#F2AF2A"/>
<path d="M138.124 64.6569L136.625 66.1562L138.124 67.6556L139.624 66.1563L138.124 64.6569Z" fill="#F2AF2A"/>
<path d="M140.799 64.6569L139.3 66.1562L140.799 67.6556L142.299 66.1563L140.799 64.6569Z" fill="#F2AF2A"/>
<path d="M143.524 64.6569L142.024 66.1562L143.524 67.6556L145.023 66.1563L143.524 64.6569Z" fill="#F2AF2A"/>
<path d="M146.199 64.6569L144.699 66.1562L146.199 67.6556L147.698 66.1563L146.199 64.6569Z" fill="#F2AF2A"/>
<path d="M148.824 64.6569L147.324 66.1562L148.824 67.6556L150.323 66.1563L148.824 64.6569Z" fill="#F2AF2A"/>
<path d="M151.498 64.6569L149.999 66.1562L151.498 67.6556L152.998 66.1563L151.498 64.6569Z" fill="#F2AF2A"/>
<path d="M154.223 64.6569L152.724 66.1562L154.223 67.6556L155.722 66.1563L154.223 64.6569Z" fill="#F2AF2A"/>
<path d="M157.204 64.9636L155.975 66.7334L155.398 66.1571L156.898 64.6572L157.204 64.9636Z" fill="#F2AF2A"/>
<path d="M128.876 63.3353L128.714 63.4972L128.646 63.5658L128.558 63.3411L128.552 63.3353L128.555 63.3329L128.351 62.8096L128.714 63.1733L128.876 63.3353Z" fill="#F2AF2A"/>
<path d="M130.052 61.8356L128.553 63.335L130.052 64.8343L131.551 63.335L130.052 61.8356Z" fill="#F2AF2A"/>
<path d="M132.776 61.8356L131.276 63.335L132.776 64.8343L134.275 63.335L132.776 61.8356Z" fill="#F2AF2A"/>
<path d="M135.451 61.8356L133.951 63.335L135.451 64.8343L136.95 63.335L135.451 61.8356Z" fill="#F2AF2A"/>
<path d="M138.124 61.8356L136.625 63.335L138.124 64.8343L139.624 63.335L138.124 61.8356Z" fill="#F2AF2A"/>
<path d="M140.799 61.8356L139.3 63.335L140.799 64.8343L142.299 63.335L140.799 61.8356Z" fill="#F2AF2A"/>
<path d="M143.524 61.8356L142.024 63.335L143.524 64.8343L145.023 63.335L143.524 61.8356Z" fill="#F2AF2A"/>
<path d="M146.198 61.8356L144.698 63.335L146.198 64.8343L147.697 63.335L146.198 61.8356Z" fill="#F2AF2A"/>
<path d="M148.825 61.8356L147.325 63.335L148.825 64.8343L150.324 63.335L148.825 61.8356Z" fill="#F2AF2A"/>
<path d="M151.499 61.8356L150 63.335L151.499 64.8343L152.999 63.335L151.499 61.8356Z" fill="#F2AF2A"/>
<path d="M154.223 61.8356L152.724 63.335L154.223 64.8343L155.722 63.335L154.223 61.8356Z" fill="#F2AF2A"/>
<path d="M158.349 63.2881L157.131 65.0691L155.398 63.3368L156.898 61.8369L158.349 63.2881Z" fill="#F2AF2A"/>
<path d="M128.877 60.5638L127.868 61.5729L127.414 60.4058C127.297 60.0907 127.076 59.8256 126.786 59.6553L127.377 59.0645L128.877 60.5638Z" fill="#F2AF2A"/>
<path d="M130.052 59.0641L128.553 60.5635L130.052 62.0628L131.551 60.5635L130.052 59.0641Z" fill="#F2AF2A"/>
<path d="M132.776 59.0641L131.276 60.5635L132.776 62.0628L134.275 60.5635L132.776 59.0641Z" fill="#F2AF2A"/>
<path d="M135.451 59.0641L133.951 60.5635L135.451 62.0628L136.95 60.5635L135.451 59.0641Z" fill="#F2AF2A"/>
<path d="M138.124 59.0641L136.625 60.5635L138.124 62.0628L139.624 60.5635L138.124 59.0641Z" fill="#F2AF2A"/>
<path d="M140.799 59.0641L139.3 60.5635L140.799 62.0628L142.299 60.5635L140.799 59.0641Z" fill="#F2AF2A"/>
<path d="M143.524 59.0641L142.024 60.5635L143.524 62.0628L145.023 60.5635L143.524 59.0641Z" fill="#F2AF2A"/>
<path d="M146.199 59.0641L144.699 60.5635L146.199 62.0628L147.698 60.5635L146.199 59.0641Z" fill="#F2AF2A"/>
<path d="M148.824 59.0641L147.324 60.5635L148.824 62.0628L150.323 60.5635L148.824 59.0641Z" fill="#F2AF2A"/>
<path d="M151.499 59.0641L150 60.5635L151.499 62.0628L152.999 60.5635L151.499 59.0641Z" fill="#F2AF2A"/>
<path d="M154.223 59.0641L152.724 60.5635L154.223 62.0628L155.722 60.5635L154.223 59.0641Z" fill="#F2AF2A"/>
<path d="M156.898 59.0641L155.398 60.5635L156.898 62.0628L158.397 60.5635L156.898 59.0641Z" fill="#F2AF2A"/>
<path d="M159.345 61.8363L158.073 60.5641L158.649 59.9883C158.794 60.5809 159.14 61.105 159.628 61.4716L159.345 61.8363Z" fill="#F2AF2A"/>
<path d="M127.377 56.2428L125.878 57.7422L127.377 59.2415L128.877 57.7422L127.377 56.2428Z" fill="#F2AF2A"/>
<path d="M130.052 56.2428L128.553 57.7422L130.052 59.2415L131.551 57.7422L130.052 56.2428Z" fill="#F2AF2A"/>
<path d="M132.776 56.2428L131.276 57.7422L132.776 59.2415L134.275 57.7422L132.776 56.2428Z" fill="#F2AF2A"/>
<path d="M135.451 56.2428L133.951 57.7422L135.451 59.2415L136.95 57.7422L135.451 56.2428Z" fill="#F2AF2A"/>
<path d="M138.124 56.2428L136.625 57.7422L138.124 59.2415L139.624 57.7422L138.124 56.2428Z" fill="#F2AF2A"/>
<path d="M140.799 56.2428L139.3 57.7422L140.799 59.2415L142.299 57.7422L140.799 56.2428Z" fill="#F2AF2A"/>
<path d="M143.524 56.2428L142.024 57.7422L143.524 59.2415L145.023 57.7422L143.524 56.2428Z" fill="#F2AF2A"/>
<path d="M146.199 56.2428L144.699 57.7422L146.199 59.2415L147.698 57.7422L146.199 56.2428Z" fill="#F2AF2A"/>
<path d="M148.824 56.2428L147.324 57.7422L148.824 59.2415L150.323 57.7422L148.824 56.2428Z" fill="#F2AF2A"/>
<path d="M151.498 56.2428L149.999 57.7422L151.498 59.2415L152.998 57.7422L151.498 56.2428Z" fill="#F2AF2A"/>
<path d="M154.223 56.2428L152.724 57.7422L154.223 59.2415L155.722 57.7422L154.223 56.2428Z" fill="#F2AF2A"/>
<path d="M158.247 57.8933L156.898 59.2429L155.398 57.7435L156.898 56.2441L157.011 56.3575L158.177 57.5232L158.235 57.5816L158.195 57.6214L158.247 57.8933Z" fill="#F2AF2A"/>
<path d="M158.253 57.9226L158.073 57.7432L158.195 57.6211L158.247 57.893L158.253 57.9226Z" fill="#F2AF2A"/>
<path d="M134.275 71.7982L133.462 72.6108H132.178L131.696 71.378L132.775 70.2988L134.275 71.7982Z" fill="#F2AF2A"/>
<path d="M136.95 71.7982L136.137 72.6108H134.764L133.951 71.7982L135.451 70.2988L136.95 71.7982Z" fill="#F2AF2A"/>
<path d="M139.624 71.7982L138.811 72.6108H137.438L136.625 71.7982L138.124 70.2988L139.624 71.7982Z" fill="#F2AF2A"/>
<path d="M142.299 71.7982L141.486 72.6108H140.112L139.3 71.7982L140.799 70.2988L142.299 71.7982Z" fill="#F2AF2A"/>
<path d="M145.023 71.7982L144.21 72.6108H142.837L142.024 71.7982L143.524 70.2988L145.023 71.7982Z" fill="#F2AF2A"/>
<path d="M147.698 71.7982L146.885 72.6108H145.512L144.699 71.7982L146.199 70.2988L147.698 71.7982Z" fill="#F2AF2A"/>
<path d="M150.324 71.7982L149.511 72.6108H148.138L147.325 71.7982L148.825 70.2988L150.324 71.7982Z" fill="#F2AF2A"/>
<path d="M152.68 71.4796L151.899 72.6128L150.813 72.6108L150 71.7982L151.499 70.2988L152.68 71.4796Z" fill="#F2AF2A"/>
<path d="M131.552 68.9787L130.982 69.5487L130.252 67.6787L131.414 68.841L131.552 68.9787Z" fill="#F2AF2A"/>
<path d="M132.776 67.4772L131.276 68.9766L132.776 70.4759L134.275 68.9766L132.776 67.4772Z" fill="#F2AF2A"/>
<path d="M135.451 67.4772L133.951 68.9766L135.451 70.4759L136.95 68.9766L135.451 67.4772Z" fill="#F2AF2A"/>
<path d="M138.124 67.4772L136.625 68.9766L138.124 70.4759L139.624 68.9766L138.124 67.4772Z" fill="#F2AF2A"/>
<path d="M140.799 67.4772L139.3 68.9766L140.799 70.4759L142.299 68.9766L140.799 67.4772Z" fill="#F2AF2A"/>
<path d="M143.524 67.4772L142.024 68.9766L143.524 70.4759L145.023 68.9766L143.524 67.4772Z" fill="#F2AF2A"/>
<path d="M146.199 67.4772L144.699 68.9766L146.199 70.4759L147.698 68.9766L146.199 67.4772Z" fill="#F2AF2A"/>
<path d="M148.824 67.4772L147.324 68.9766L148.824 70.4759L150.323 68.9766L148.824 67.4772Z" fill="#F2AF2A"/>
<path d="M151.499 67.4772L150 68.9766L151.499 70.4759L152.999 68.9766L151.499 67.4772Z" fill="#F2AF2A"/>
<path d="M153.723 69.9768L152.724 68.9774L154.223 67.4775L154.952 68.2065L153.723 69.9768Z" fill="#F2AF2A"/>
<path d="M107.382 66.1566L107.22 66.3186L107.081 66.4572C107.102 66.3866 107.124 66.3161 107.147 66.2461C107.173 66.1654 107.201 66.0851 107.23 66.0029L107.382 66.1566Z" fill="#F2AF2A"/>
<path d="M110.056 66.1571L108.557 67.6564L107.146 66.2461C107.173 66.1653 107.2 66.0851 107.229 66.0029L107.219 65.9927L107.241 65.9708L108.467 64.7443L108.556 64.6553L110.056 66.1571Z" fill="#F2AF2A"/>
<path d="M111.28 64.6569L109.78 66.1562L111.28 67.6556L112.779 66.1563L111.28 64.6569Z" fill="#F2AF2A"/>
<path d="M113.954 64.6569L112.455 66.1562L113.954 67.6556L115.454 66.1563L113.954 64.6569Z" fill="#F2AF2A"/>
<path d="M116.629 64.6569L115.13 66.1562L116.629 67.6556L118.129 66.1563L116.629 64.6569Z" fill="#F2AF2A"/>
<path d="M120.78 66.1328L120.745 66.1848C120.728 66.2101 120.713 66.2334 120.699 66.2607L119.304 67.6559L117.805 66.1566L119.304 64.6572L120.666 66.019L120.78 66.1328Z" fill="#F2AF2A"/>
<path d="M121.234 65.4512L120.78 66.132L120.745 66.1841C120.728 66.2094 120.713 66.2327 120.7 66.2599C120.692 66.2745 120.684 66.2896 120.677 66.3047L120.528 66.1559L121.234 65.4512Z" fill="#F2AF2A"/>
<path d="M110.057 63.3361L108.557 64.8355L108.04 64.318C108.121 64.1847 108.206 64.0525 108.295 63.9212L109.245 62.5244L110.057 63.3361Z" fill="#F2AF2A"/>
<path d="M111.28 61.8356L109.78 63.335L111.28 64.8343L112.779 63.335L111.28 61.8356Z" fill="#F2AF2A"/>
<path d="M113.954 61.8356L112.455 63.335L113.954 64.8343L115.454 63.335L113.954 61.8356Z" fill="#F2AF2A"/>
<path d="M116.629 61.8356L115.13 63.335L116.629 64.8343L118.129 63.335L116.629 61.8356Z" fill="#F2AF2A"/>
<path d="M119.304 61.8356L117.805 63.335L119.304 64.8343L120.803 63.335L119.304 61.8356Z" fill="#F2AF2A"/>
<path d="M122.997 62.8062L121.798 64.6056L120.528 63.3363L122.028 61.8369L122.997 62.8062Z" fill="#F2AF2A"/>
<path d="M112.779 60.5641L111.28 62.0634L110.255 61.0387L111.469 59.2539L112.779 60.5641Z" fill="#F2AF2A"/>
<path d="M113.954 59.0641L112.455 60.5635L113.954 62.0628L115.454 60.5635L113.954 59.0641Z" fill="#F2AF2A"/>
<path d="M116.629 59.0641L115.13 60.5635L116.629 62.0628L118.129 60.5635L116.629 59.0641Z" fill="#F2AF2A"/>
<path d="M119.304 59.0641L117.805 60.5635L119.304 62.0628L120.803 60.5635L119.304 59.0641Z" fill="#F2AF2A"/>
<path d="M122.028 59.0641L120.528 60.5635L122.028 62.0628L123.527 60.5635L122.028 59.0641Z" fill="#F2AF2A"/>
<path d="M125.284 59.6451C125.088 59.7595 124.922 59.9175 124.797 60.1067L123.976 61.3361L123.203 60.5628L124.702 59.0635L125.284 59.6451Z" fill="#F2AF2A"/>
<path d="M113.693 55.9824L115.454 57.7429L113.955 59.2423L112.479 57.7673L113.693 55.9824Z" fill="#F2AF2A"/>
<path d="M116.629 56.2428L115.13 57.7422L116.629 59.2415L118.129 57.7422L116.629 56.2428Z" fill="#F2AF2A"/>
<path d="M119.304 56.2428L117.805 57.7422L119.304 59.2415L120.803 57.7422L119.304 56.2428Z" fill="#F2AF2A"/>
<path d="M122.028 56.2428L120.528 57.7422L122.028 59.2415L123.527 57.7422L122.028 56.2428Z" fill="#F2AF2A"/>
<path d="M124.702 56.2428L123.203 57.7422L124.702 59.2415L126.202 57.7422L124.702 56.2428Z" fill="#F2AF2A"/>
<path d="M107.381 71.798L107.296 71.8831C107.262 71.8082 107.23 71.7323 107.199 71.656C107.189 71.6336 107.18 71.6107 107.171 71.5879L107.381 71.798Z" fill="#F2AF2A"/>
<path d="M107.199 71.6562L108.557 70.2988L110.056 71.7982L108.346 73.5086L107.199 71.6562Z" fill="#F2AF2A"/>
<path d="M111.28 70.2985L109.78 71.7979L111.28 73.2972L112.779 71.7979L111.28 70.2985Z" fill="#F2AF2A"/>
<path d="M113.954 70.2985L112.455 71.7979L113.954 73.2972L115.454 71.7979L113.954 70.2985Z" fill="#F2AF2A"/>
<path d="M112.78 74.6673L111.844 75.6035C111.181 75.4486 110.545 75.1929 109.959 74.8453L109.781 74.6673L111.281 73.168L112.78 74.6673Z" fill="#F2AF2A"/>
<path d="M115.454 74.6673L115.266 74.8555L114.342 75.7791H113.567L112.455 74.6673L113.954 73.168L114.019 73.2326L115.436 74.6493L115.454 74.6673Z" fill="#F2AF2A"/>
<path d="M117.939 71.609L116.585 73.2533L115.13 71.7982L116.629 70.2988L117.939 71.609Z" fill="#F2AF2A"/>
<path d="M107.382 68.9779L107.22 69.1398L106.733 69.6262C106.702 69.1947 106.702 68.7615 106.733 68.3301L107.22 68.8164L107.382 68.9779Z" fill="#F2AF2A"/>
<path d="M108.556 67.4772L107.057 68.9766L108.556 70.4759L110.055 68.9766L108.556 67.4772Z" fill="#F2AF2A"/>
<path d="M111.28 67.4772L109.78 68.9766L111.28 70.4759L112.779 68.9766L111.28 67.4772Z" fill="#F2AF2A"/>
<path d="M113.954 67.4772L112.455 68.9766L113.954 70.4759L115.454 68.9766L113.954 67.4772Z" fill="#F2AF2A"/>
<path d="M116.629 67.4772L115.13 68.9766L116.629 70.4759L118.129 68.9766L116.629 67.4772Z" fill="#F2AF2A"/>
<path d="M120.421 68.5956L119.067 70.2404L117.805 68.9779L119.304 67.4785L119.393 67.5675L120.421 68.5956Z" fill="#F2AF2A"/>
<path d="M151.89 72.6111V56.9727" stroke="#59221D" stroke-width="0.243165" stroke-linecap="round" stroke-linejoin="round"/>
<path d="M141.792 45.209V55.7599L137.08 45.209H141.792Z" fill="#E47964"/>
<path d="M145.055 45.501H141.791V43.3076C142.394 43.3178 142.971 43.5515 143.411 43.9632L145.055 45.501Z" fill="#EEBDAF"/>
<path d="M137.225 45.5005L136.701 44.0191C136.628 43.8109 136.491 43.6307 136.311 43.5031C136.131 43.3755 135.915 43.3069 135.694 43.3066H131.687C131.07 43.3067 130.476 43.5412 130.026 43.9627L128.382 45.5005H137.225Z" fill="#EEBDAF"/>
<path d="M134.61 45.5003L136.027 43.8049C136.069 43.7554 136.123 43.7177 136.185 43.6957C136.246 43.6738 136.312 43.6682 136.376 43.6796C136.44 43.691 136.499 43.719 136.549 43.7608C136.599 43.8026 136.637 43.8567 136.659 43.9178L137.226 45.5003H134.61Z" fill="#59221D"/>
<path d="M144.363 54.9141H149.119V57.8058C149.118 57.9941 149.044 58.1747 148.91 58.3079C148.777 58.441 148.596 58.5158 148.408 58.5158H145.072C144.883 58.5158 144.703 58.441 144.569 58.3077C144.436 58.1745 144.361 57.9937 144.361 57.8053V54.9141H144.363Z" fill="white" stroke="#59221D" stroke-width="0.243165" stroke-linecap="round" stroke-linejoin="round"/>
<path d="M149.119 53.9453H144.363V54.9141H149.119V53.9453Z" fill="white" stroke="#59221D" stroke-width="0.243165" stroke-linecap="round" stroke-linejoin="round"/>
<path d="M155.57 140.931H142.918C141.859 140.931 140.986 140.084 140.869 139.057H142.749C143.423 139.057 144.091 138.93 144.717 138.684L146.686 137.908C147.869 137.443 149.129 137.204 150.4 137.204H151.892L155.57 140.931Z" fill="#59221D"/>
<path d="M122.7 140.93H107.347C106.845 140.93 106.362 140.743 105.991 140.406C105.62 140.068 105.388 139.604 105.341 139.105H109.929C110.603 139.105 111.271 138.978 111.898 138.731L113.866 137.956C115.049 137.491 116.309 137.252 117.58 137.252H119.17L122.7 140.93Z" fill="#59221D"/>
<path d="M151.892 137.204H150.4C149.128 137.204 147.869 137.443 146.686 137.908L144.717 138.683C144.09 138.93 143.423 139.057 142.749 139.057H140.869C140.86 138.978 140.855 138.899 140.855 138.82V87.2275C140.855 86.7446 140.191 86.6123 140.006 87.0583L119.17 137.252H117.58C116.309 137.252 115.05 137.491 113.867 137.957L111.898 138.732C111.271 138.979 110.604 139.105 109.93 139.105H105.341C105.312 138.783 105.36 138.458 105.483 138.159L132.177 72.6104H151.89V137.204H151.892Z" fill="#E47964"/>
<path d="M151.89 72.6104V75.0906H131.167L132.177 72.6104H151.89Z" stroke="#59221D" stroke-width="0.243165" stroke-linecap="round" stroke-linejoin="round"/>
<path d="M143.81 72.6104H141.882C141.725 72.6104 141.599 72.7371 141.599 72.8934V74.8222C141.599 74.9785 141.725 75.1052 141.882 75.1052H143.81C143.967 75.1052 144.094 74.9785 144.094 74.8222V72.8934C144.094 72.7371 143.967 72.6104 143.81 72.6104Z" stroke="#59221D" stroke-width="0.243165" stroke-linecap="round" stroke-linejoin="round"/>
<path d="M141.599 73.8506H142.846" stroke="#59221D" stroke-width="0.243165" stroke-linecap="round" stroke-linejoin="round"/>
<path d="M148.597 72.6104H148.06V75.0906H148.597V72.6104Z" stroke="#59221D" stroke-width="0.243165" stroke-linecap="round" stroke-linejoin="round"/>
<path d="M137.509 72.6104H136.971V75.0906H137.509V72.6104Z" stroke="#59221D" stroke-width="0.243165" stroke-linecap="round" stroke-linejoin="round"/>
<path d="M145.104 45.3545L126.712 79.9812H128.974L147.175 45.3545H145.104Z" fill="white" stroke="#59221D" stroke-width="0.243165" stroke-linecap="round" stroke-linejoin="round"/>
<path d="M129.072 79.9673L123.362 93.9211C123.197 94.3267 122.915 94.674 122.552 94.9185C122.188 95.163 121.76 95.2935 121.323 95.2935H115.463C115.215 95.294 114.971 95.2336 114.752 95.1177C114.532 95.0018 114.345 94.8338 114.206 94.6286C114.067 94.4234 113.98 94.1871 113.953 93.9406C113.926 93.694 113.961 93.4447 114.053 93.2144L118.836 81.348C118.999 80.9396 119.281 80.5894 119.645 80.3427C120.009 80.096 120.439 79.9641 120.878 79.9639L129.072 79.9673Z" fill="white" stroke="#59221D" stroke-width="0.243165" stroke-linecap="round" stroke-linejoin="round"/>
<path d="M129.071 79.9814L123.444 93.8312C123.282 94.2311 123.004 94.5736 122.647 94.8148C122.289 95.0561 121.867 95.1852 121.436 95.1856H119.113C118.869 95.1856 118.629 95.1257 118.413 95.0112C118.197 94.8968 118.013 94.7312 117.876 94.529C117.739 94.3267 117.654 94.0941 117.628 93.8513C117.602 93.6085 117.635 93.363 117.726 93.1362L122.44 81.3471C122.601 80.9444 122.879 80.5992 123.238 80.3561C123.597 80.1129 124.021 79.9829 124.454 79.9829L129.071 79.9814Z" fill="white" stroke="#59221D" stroke-width="0.243165" stroke-linecap="round" stroke-linejoin="round"/>
<path d="M126.64 79.9814L126.502 80.3194" stroke="#59221D" stroke-width="0.243165" stroke-miterlimit="10" stroke-linecap="round"/>
<path d="M126.227 80.9961L121.012 93.8318C120.896 94.1171 120.721 94.3744 120.498 94.5867C120.275 94.799 120.009 94.9614 119.719 95.0632" stroke="#59221D" stroke-width="0.243165" stroke-miterlimit="10" stroke-linecap="round" stroke-dasharray="0.73 0.73"/>
<path d="M119.366 95.1533C119.246 95.1736 119.125 95.1838 119.003 95.184" stroke="#59221D" stroke-width="0.243165" stroke-miterlimit="10" stroke-linecap="round"/>
<path d="M121.038 84.7754H117.498" stroke="#59221D" stroke-width="0.243165" stroke-miterlimit="10" stroke-linecap="round"/>
<path d="M162.202 62.9428C160.978 63.4155 159.461 65.497 158.537 68.1719C157.382 71.5149 157.516 74.5943 158.829 75.0495C159.05 75.1217 159.287 75.1254 159.51 75.0602L159.93 74.8754C159.714 75.1372 159.443 75.3481 159.136 75.4931C158.83 75.638 158.495 75.7134 158.156 75.7139H155.25C153.538 75.7139 151.901 74.3959 151.898 72.6845C151.895 70.3015 154.427 62.6238 159.485 61.2295C161.199 60.7573 163.6 61.2173 163.789 62.5333L162.202 62.9428Z" fill="#E47964"/>
<path d="M159.51 75.0603C159.288 75.1255 159.05 75.1217 158.83 75.0496C157.512 74.5944 157.381 71.5149 158.538 68.1719C159.462 65.4971 160.978 63.4156 162.203 62.9429L177.115 59.0775C177.398 58.9467 178.241 58.9277 178.553 58.9277H182.417V59.1568C182.417 59.4646 182.308 59.7627 182.111 59.9985C181.913 60.2344 181.638 60.393 181.335 60.4465L180.355 60.6999C180.151 60.7359 179.957 60.8175 179.789 60.9386C179.621 61.0596 179.482 61.2171 179.382 61.3993L178.151 63.9535C177.953 64.3173 178.216 64.6144 178.63 64.6144H183.011C183.011 64.6144 181.705 67.1764 177.217 68.1286L174.369 68.5201L159.51 75.0603Z" fill="white" stroke="#59221D" stroke-width="0.243165" stroke-linecap="round" stroke-linejoin="round"/>
<path d="M178.911 62.375C178.321 63.4337 177.319 64.7896 176.001 64.9443" stroke="#59221D" stroke-width="0.243165" stroke-miterlimit="10" stroke-linecap="round"/>
<path d="M173.021 67.5625C173.183 67.8763 173.439 68.1317 173.753 68.293C174.067 68.4542 174.423 68.5132 174.772 68.4617" stroke="#59221D" stroke-width="0.243165" stroke-miterlimit="10" stroke-linecap="round"/>
<path d="M175.768 66.9593L181.139 68.4944C181.557 68.614 181.993 68.3718 182.113 67.9534L185.034 57.7315C185.154 57.3132 184.912 56.8771 184.493 56.7575L179.122 55.2224C178.704 55.1028 178.268 55.345 178.148 55.7634L175.227 65.9853C175.107 66.4037 175.349 66.8397 175.768 66.9593Z" fill="#59221D"/>
<path d="M179.296 57.1503C179.517 57.2136 179.747 57.0859 179.811 56.8652C179.874 56.6445 179.746 56.4142 179.526 56.3509C179.305 56.2876 179.075 56.4153 179.011 56.636C178.948 56.8567 179.076 57.087 179.296 57.1503Z" fill="#86C4CF"/>
<path d="M114.898 76.024H112.466C110.106 76.024 108.594 73.2714 109.694 71.1831C110.286 70.0592 111.112 68.9134 112.038 67.8955C115.093 64.5398 119.162 63.2676 121.128 65.0563C121.517 65.4123 121.849 66.0898 121.849 67.183L114.898 76.024Z" fill="#E47964"/>
<path d="M114.778 75.9186C113.958 75.2241 114.83 72.4102 116.723 70.1731C118.09 68.5599 119.665 67.4345 120.745 67.1923C120.828 67.185 120.907 67.1816 120.983 67.1816H125.457C127.29 67.1815 129.089 67.6671 130.673 68.5891L133.868 70.4483C134.257 70.6887 134.578 71.0243 134.8 71.4234C135.023 71.8225 135.139 72.2718 135.139 72.7287V77.0454C135.139 77.6046 134.933 78.1442 134.56 78.561C134.188 78.9778 133.674 79.2424 133.118 79.3044L129.933 79.6594V78.9703C129.933 78.7736 129.982 78.58 130.075 78.4069C130.169 78.2338 130.304 78.0866 130.468 77.9787L131.235 77.5609C131.268 77.5428 131.295 77.5141 131.31 77.4794C131.325 77.4448 131.328 77.4061 131.318 77.3694C131.309 77.3328 131.288 77.3004 131.258 77.2772C131.228 77.254 131.191 77.2414 131.154 77.2414H130.191C128.865 77.2414 127.836 76.8684 126.888 75.9414L115.937 75.9249L114.778 75.9186Z" fill="white" stroke="#59221D" stroke-width="0.243165" stroke-linecap="round" stroke-linejoin="round"/>
<path d="M132.046 72.9668L133.768 74.0323C134.156 74.2728 134.477 74.6084 134.699 75.0075C134.921 75.4066 135.038 75.8559 135.038 76.3128V77.6482" stroke="#59221D" stroke-width="0.243165" stroke-miterlimit="10" stroke-linecap="round"/>
<path d="M132.046 71.1689L133.768 72.2345C134.156 72.4751 134.477 72.8112 134.7 73.2107C134.922 73.6103 135.039 74.06 135.038 74.5173V76.2419" stroke="#59221D" stroke-width="0.243165" stroke-miterlimit="10" stroke-linecap="round"/>
<path d="M134.984 77.8233C134.838 77.0116 134.449 76.3799 133.816 75.9889L132.095 74.9229" stroke="#59221D" stroke-width="0.243165" stroke-miterlimit="10" stroke-linecap="round"/>
<path d="M126.56 74.7021C126.56 75.0734 126.658 75.4379 126.845 75.7588C127.031 76.0797 127.3 76.3454 127.622 76.5288" stroke="#59221D" stroke-width="0.243165" stroke-miterlimit="10" stroke-linecap="round"/>
<path d="M87.2613 77.4502H71.3267C69.9878 77.4502 68.9023 78.5356 68.9023 79.8746V93.7982C68.9023 95.1371 69.9878 96.2226 71.3267 96.2226H87.2613C88.6003 96.2226 89.6857 95.1371 89.6857 93.7982V79.8746C89.6857 78.5356 88.6003 77.4502 87.2613 77.4502Z" fill="#E47964"/>
<path d="M84.2467 77.5869H70.7437C69.4048 77.5869 68.3193 78.6723 68.3193 80.0113V93.6626C68.3193 95.0015 69.4048 96.0869 70.7437 96.0869H84.2467C85.5856 96.0869 86.671 95.0015 86.671 93.6626V80.0113C86.671 78.6723 85.5856 77.5869 84.2467 77.5869Z" fill="#EEBDAF" stroke="#E47964" stroke-width="0.243165" stroke-linecap="round" stroke-linejoin="round"/>
<path d="M68.3193 80.0107H89.6868" stroke="#E47964" stroke-width="0.243165" stroke-miterlimit="10" stroke-linecap="round"/>
<path d="M80.2184 83.8084V83.8084C80.4268 83.5154 80.3115 83.1049 79.9811 82.9632L79.6195 82.8081C79.4223 82.7236 79.2767 82.5507 79.227 82.342V82.342C79.1402 81.9776 78.7745 81.7526 78.4101 81.8393L78.2502 81.8774C77.9489 81.9492 77.714 82.185 77.6434 82.4866V82.4866C77.5472 82.8975 77.1543 83.1677 76.7362 83.1105L76.3657 83.0597C76.0219 83.0126 75.6974 83.2324 75.6125 83.5689V83.5689C75.5742 83.7208 75.5896 83.8815 75.6561 84.0233L75.6747 84.0628C75.8029 84.3357 75.7182 84.6611 75.4732 84.8368V84.8368C75.3373 84.9342 75.2461 85.082 75.22 85.2472L75.1664 85.5861" stroke="#F2AF2A" stroke-width="0.39455" stroke-linecap="round"/>
<circle cx="80.2469" cy="84.0721" r="1.47956" transform="rotate(-13.3958 80.2469 84.0721)" fill="#DB3319"/>
<path d="M73.7515 83.7596L72.798 84.7852C72.7381 84.8496 72.7144 84.9397 72.7348 85.0252L72.9459 85.9118M73.7515 83.7596L75.133 84.3094M73.7515 83.7596L73.5687 82.992" stroke="#86C4CF" stroke-width="0.39455" stroke-linecap="round"/>
<path d="M79.0177 86.0563L80.169 90.8905L75.3074 92.0484C75.2159 92.0702 75.121 92.0737 75.0282 92.0588C74.9354 92.0439 74.8464 92.0109 74.7663 91.9616C74.6863 91.9123 74.6167 91.8477 74.5617 91.7715C74.5066 91.6953 74.4671 91.609 74.4454 91.5175L73.46 87.3799L79.0177 86.0563Z" fill="#F2F2F2"/>
<path d="M78.9714 85.8745L73.3752 87.2073C73.3712 87.2082 73.3673 87.2096 73.3637 87.2116L71.9033 86.374L77.5131 85.038L78.9714 85.8745Z" fill="#F2F2F2"/>
<path d="M82.2496 83.9102L81.3243 85.316C81.3202 85.3159 81.3161 85.3163 81.3121 85.3173L79.1789 85.8254L80.1036 84.4213L82.2496 83.9102Z" fill="#F2F2F2"/>
<path d="M81.3143 85.509L82.2991 89.6442C82.3432 89.8296 82.3119 90.025 82.212 90.1873C82.112 90.3496 81.9518 90.4656 81.7663 90.5098L80.371 90.8421L79.2197 86.0078L81.3143 85.509Z" fill="#F2F2F2"/>
<path d="M157.631 140.881C169.168 140.881 178.52 131.529 178.52 119.992C178.52 108.456 169.168 99.1035 157.631 99.1035C146.094 99.1035 136.742 108.456 136.742 119.992C136.742 131.529 146.094 140.881 157.631 140.881Z" stroke="#F2AF2A" stroke-width="0.243165" stroke-miterlimit="10"/>
<path d="M157.631 139.446C168.375 139.446 177.084 130.736 177.084 119.992C177.084 109.249 168.375 100.539 157.631 100.539C146.887 100.539 138.178 109.249 138.178 119.992C138.178 130.736 146.887 139.446 157.631 139.446Z" stroke="#F2AF2A" stroke-width="0.243165" stroke-miterlimit="10"/>
<path d="M76.8889 140.881C88.4255 140.881 97.7778 131.529 97.7778 119.992C97.7778 108.456 88.4255 99.1035 76.8889 99.1035C65.3523 99.1035 56 108.456 56 119.992C56 131.529 65.3523 140.881 76.8889 140.881Z" stroke="#F2AF2A" stroke-width="0.243165" stroke-miterlimit="10"/>
<path d="M76.8888 139.446C87.6325 139.446 96.342 130.736 96.342 119.992C96.342 109.249 87.6325 100.539 76.8888 100.539C66.1451 100.539 57.4355 109.249 57.4355 119.992C57.4355 130.736 66.1451 139.446 76.8888 139.446Z" stroke="#F2AF2A" stroke-width="0.243165" stroke-miterlimit="10"/>
<path d="M133.691 120.025C133.691 106.804 144.409 96.0869 157.629 96.0869" stroke="#E47964" stroke-width="0.243165" stroke-miterlimit="10" stroke-linecap="round"/>
<path d="M144.506 92.7261C139.359 94.5065 134.629 98.6457 131.84 103.717L128.528 109.737C126.823 112.837 124.317 115.423 121.271 117.223C118.226 119.024 114.753 119.974 111.215 119.974H103.65L95.001 91.9893" stroke="#E47964" stroke-width="0.243165" stroke-miterlimit="10" stroke-linecap="round"/>
<path d="M157.63 119.993L138.34 79.8677C137.939 79.0323 137.31 78.3272 136.526 77.8337C135.741 77.3401 134.833 77.0782 133.906 77.0781H132.877C132.244 77.0783 131.621 77.2425 131.07 77.5549C130.518 77.8673 130.057 78.3171 129.732 78.8605L129.067 79.9694" stroke="#E47964" stroke-width="0.243165" stroke-miterlimit="10" stroke-linecap="round"/>
<path d="M90.8062 96.0681C90.8061 95.4057 90.5429 94.7704 90.0745 94.302C89.6061 93.8336 88.9709 93.5704 88.3085 93.5703H74.2126C73.5502 93.5704 72.915 93.8336 72.4466 94.302C71.9782 94.7704 71.715 95.4057 71.7148 96.0681V96.0876H93.0784C93.9954 96.0875 94.8886 96.3798 95.6282 96.922C96.3677 97.4642 96.9151 98.2282 97.1908 99.1028L77.0479 119.994" stroke="#E47964" stroke-width="0.243165" stroke-miterlimit="10" stroke-linecap="round"/>
<path d="M157.615 120.986C158.159 120.986 158.6 120.546 158.6 120.002C158.6 119.458 158.159 119.018 157.615 119.018C157.072 119.018 156.631 119.458 156.631 120.002C156.631 120.546 157.072 120.986 157.615 120.986Z" stroke="#E47964" stroke-width="0.243165" stroke-miterlimit="10" stroke-linecap="round"/>
<path d="M112.232 124.945C112.195 127.586 110.04 129.742 107.399 129.779C106.749 129.788 106.103 129.668 105.5 129.426C104.897 129.184 104.348 128.824 103.885 128.368C103.422 127.912 103.055 127.368 102.804 126.768C102.553 126.169 102.424 125.525 102.424 124.875V124.854C102.427 124.604 102.38 124.356 102.286 124.123C102.192 123.891 102.053 123.68 101.877 123.502C101.701 123.324 101.492 123.182 101.261 123.085C101.03 122.989 100.782 122.938 100.532 122.938H77.0774C76.2725 122.938 75.5941 122.306 75.5756 121.5C75.5711 121.304 75.6058 121.109 75.6777 120.926C75.7497 120.743 75.8574 120.577 75.9946 120.437C76.1318 120.296 76.2957 120.184 76.4766 120.108C76.6575 120.032 76.8519 119.993 77.0482 119.993H106.865C107.017 119.978 107.172 119.971 107.328 119.971C107.978 119.971 108.622 120.1 109.221 120.351C109.821 120.602 110.364 120.969 110.821 121.432C111.277 121.895 111.637 122.444 111.879 123.047C112.121 123.65 112.242 124.295 112.232 124.945Z" fill="white" stroke="#E47964" stroke-width="0.243165" stroke-miterlimit="10" stroke-linecap="round"/>
<path d="M107.328 127.64C108.828 127.64 110.045 126.424 110.045 124.924C110.045 123.423 108.828 122.207 107.328 122.207C105.828 122.207 104.611 123.423 104.611 124.924C104.611 126.424 105.828 127.64 107.328 127.64Z" stroke="#E47964" stroke-width="0.243165" stroke-miterlimit="10" stroke-linecap="round"/>
<path d="M107.328 124.924L110.003 131.74C110.045 131.847 110.119 131.939 110.214 132.004C110.31 132.069 110.422 132.104 110.538 132.104H117.205" stroke="#E47964" stroke-width="0.243165" stroke-miterlimit="10" stroke-linecap="round"/>
<path d="M77.0947 122.445C77.6383 122.445 78.079 122.005 78.079 121.461C78.079 120.917 77.6383 120.477 77.0947 120.477C76.5511 120.477 76.1104 120.917 76.1104 121.461C76.1104 122.005 76.5511 122.445 77.0947 122.445Z" stroke="#E47964" stroke-width="0.243165" stroke-miterlimit="10" stroke-linecap="round"/>
<path d="M117.344 130.941H110.513C110.308 130.941 110.142 131.108 110.142 131.312V131.732C110.142 131.937 110.308 132.103 110.513 132.103H117.344C117.549 132.103 117.715 131.937 117.715 131.732V131.312C117.715 131.108 117.549 130.941 117.344 130.941Z" stroke="#F2AF2A" stroke-width="0.243165" stroke-miterlimit="10"/>
<path d="M100.02 91.9887H91.822C91.4496 91.9887 91.0925 91.8408 90.8292 91.5775C90.5659 91.3142 90.418 90.9571 90.418 90.5847C90.418 90.2123 90.5659 89.8552 90.8292 89.5919C91.0925 89.3286 91.4496 89.1807 91.822 89.1807H103.728C103.777 89.1805 103.825 89.1949 103.865 89.222C103.905 89.2492 103.937 89.2879 103.955 89.333C103.973 89.3782 103.977 89.4278 103.967 89.4753C103.957 89.5229 103.932 89.5663 103.897 89.5999L102.42 91.0209C101.775 91.6419 100.915 91.9888 100.02 91.9887Z" fill="#86C4CF"/>
</g>
</g>
<defs>
<filter id="filter0_d_476_3149" x="0.5" y="0.5" width="329" height="127" filterUnits="userSpaceOnUse" color-interpolation-filters="sRGB">
<feFlood flood-opacity="0" result="BackgroundImageFix"/>
<feColorMatrix in="SourceAlpha" type="matrix" values="0 0 0 0 0 0 0 0 0 0 0 0 0 0 0 0 0 0 127 0" result="hardAlpha"/>
<feOffset dy="4"/>
<feGaussianBlur stdDeviation="8.75"/>
<feComposite in2="hardAlpha" operator="out"/>
<feColorMatrix type="matrix" values="0 0 0 0 0 0 0 0 0 0 0 0 0 0 0 0 0 0 0.1 0"/>
<feBlend mode="normal" in2="BackgroundImageFix" result="effect1_dropShadow_476_3149"/>
<feBlend mode="normal" in="SourceGraphic" in2="effect1_dropShadow_476_3149" result="shape"/>
</filter>
<clipPath id="clip0_476_3149">
<rect x="0" y="0" width="329" height="127" rx="20" fill="white"/>
</clipPath>
</defs>
</svg>
