<svg width="290" height="293" viewBox="0 0 290 293" fill="none" xmlns="http://www.w3.org/2000/svg">
<circle cx="152.471" cy="137.528" r="137.528" fill="#3A3A3A"/>
<path d="M83.5413 275.7C84.0922 275.7 84.5387 275.253 84.5387 274.702C84.5387 274.152 84.0922 273.705 83.5413 273.705C82.9905 273.705 82.5439 274.152 82.5439 274.702C82.5439 275.253 82.9905 275.7 83.5413 275.7Z" fill="#3A3A3A"/>
<path d="M89.8255 275.7C90.3763 275.7 90.8229 275.253 90.8229 274.702C90.8229 274.152 90.3763 273.705 89.8255 273.705C89.2747 273.705 88.8281 274.152 88.8281 274.702C88.8281 275.253 89.2747 275.7 89.8255 275.7Z" fill="#3A3A3A"/>
<path d="M96.1097 275.7C96.6605 275.7 97.1071 275.253 97.1071 274.702C97.1071 274.152 96.6605 273.705 96.1097 273.705C95.5588 273.705 95.1123 274.152 95.1123 274.702C95.1123 275.253 95.5588 275.7 96.1097 275.7Z" fill="#3A3A3A"/>
<path d="M102.394 275.7C102.945 275.7 103.391 275.253 103.391 274.702C103.391 274.152 102.945 273.705 102.394 273.705C101.843 273.705 101.396 274.152 101.396 274.702C101.396 275.253 101.843 275.7 102.394 275.7Z" fill="#3A3A3A"/>
<path d="M108.677 275.7C109.228 275.7 109.674 275.253 109.674 274.702C109.674 274.152 109.228 273.705 108.677 273.705C108.126 273.705 107.68 274.152 107.68 274.702C107.68 275.253 108.126 275.7 108.677 275.7Z" fill="#3A3A3A"/>
<path d="M114.962 275.7C115.513 275.7 115.96 275.253 115.96 274.702C115.96 274.152 115.513 273.705 114.962 273.705C114.411 273.705 113.965 274.152 113.965 274.702C113.965 275.253 114.411 275.7 114.962 275.7Z" fill="#3A3A3A"/>
<path d="M121.244 275.7C121.795 275.7 122.242 275.253 122.242 274.702C122.242 274.152 121.795 273.705 121.244 273.705C120.694 273.705 120.247 274.152 120.247 274.702C120.247 275.253 120.694 275.7 121.244 275.7Z" fill="#3A3A3A"/>
<path d="M45.8392 275.7C46.39 275.7 46.8366 275.253 46.8366 274.702C46.8366 274.152 46.39 273.705 45.8392 273.705C45.2883 273.705 44.8418 274.152 44.8418 274.702C44.8418 275.253 45.2883 275.7 45.8392 275.7Z" fill="#3A3A3A"/>
<path d="M52.1234 275.7C52.6742 275.7 53.1208 275.253 53.1208 274.702C53.1208 274.152 52.6742 273.705 52.1234 273.705C51.5726 273.705 51.126 274.152 51.126 274.702C51.126 275.253 51.5726 275.7 52.1234 275.7Z" fill="#3A3A3A"/>
<path d="M58.4066 275.7C58.9574 275.7 59.4039 275.253 59.4039 274.702C59.4039 274.152 58.9574 273.705 58.4066 273.705C57.8557 273.705 57.4092 274.152 57.4092 274.702C57.4092 275.253 57.8557 275.7 58.4066 275.7Z" fill="#3A3A3A"/>
<path d="M64.6898 275.7C65.2406 275.7 65.6871 275.253 65.6871 274.702C65.6871 274.152 65.2406 273.705 64.6898 273.705C64.1389 273.705 63.6924 274.152 63.6924 274.702C63.6924 275.253 64.1389 275.7 64.6898 275.7Z" fill="#3A3A3A"/>
<path d="M70.974 275.7C71.5248 275.7 71.9714 275.253 71.9714 274.702C71.9714 274.152 71.5248 273.705 70.974 273.705C70.4231 273.705 69.9766 274.152 69.9766 274.702C69.9766 275.253 70.4231 275.7 70.974 275.7Z" fill="#3A3A3A"/>
<path d="M77.2581 275.7C77.809 275.7 78.2555 275.253 78.2555 274.702C78.2555 274.152 77.809 273.705 77.2581 273.705C76.7073 273.705 76.2607 274.152 76.2607 274.702C76.2607 275.253 76.7073 275.7 77.2581 275.7Z" fill="#3A3A3A"/>
<path d="M80.3998 278.973C80.9506 278.973 81.3971 278.527 81.3971 277.976C81.3971 277.425 80.9506 276.979 80.3998 276.979C79.8489 276.979 79.4023 277.425 79.4023 277.976C79.4023 278.527 79.8489 278.973 80.3998 278.973Z" fill="#3A3A3A"/>
<path d="M86.6839 278.973C87.2347 278.973 87.6813 278.527 87.6813 277.976C87.6813 277.425 87.2347 276.979 86.6839 276.979C86.1331 276.979 85.6865 277.425 85.6865 277.976C85.6865 278.527 86.1331 278.973 86.6839 278.973Z" fill="#3A3A3A"/>
<path d="M92.9681 278.973C93.5189 278.973 93.9655 278.527 93.9655 277.976C93.9655 277.425 93.5189 276.979 92.9681 276.979C92.4172 276.979 91.9707 277.425 91.9707 277.976C91.9707 278.527 92.4172 278.973 92.9681 278.973Z" fill="#3A3A3A"/>
<path d="M99.2513 278.973C99.8021 278.973 100.249 278.527 100.249 277.976C100.249 277.425 99.8021 276.979 99.2513 276.979C98.7004 276.979 98.2539 277.425 98.2539 277.976C98.2539 278.527 98.7004 278.973 99.2513 278.973Z" fill="#3A3A3A"/>
<path d="M105.535 278.973C106.086 278.973 106.533 278.527 106.533 277.976C106.533 277.425 106.086 276.979 105.535 276.979C104.985 276.979 104.538 277.425 104.538 277.976C104.538 278.527 104.985 278.973 105.535 278.973Z" fill="#3A3A3A"/>
<path d="M111.819 278.973C112.37 278.973 112.816 278.527 112.816 277.976C112.816 277.425 112.37 276.979 111.819 276.979C111.268 276.979 110.821 277.425 110.821 277.976C110.821 278.527 111.268 278.973 111.819 278.973Z" fill="#3A3A3A"/>
<path d="M118.103 278.973C118.654 278.973 119.1 278.527 119.1 277.976C119.1 277.425 118.654 276.979 118.103 276.979C117.552 276.979 117.105 277.425 117.105 277.976C117.105 278.527 117.552 278.973 118.103 278.973Z" fill="#3A3A3A"/>
<path d="M42.6966 278.973C43.2475 278.973 43.694 278.527 43.694 277.976C43.694 277.425 43.2475 276.979 42.6966 276.979C42.1458 276.979 41.6992 277.425 41.6992 277.976C41.6992 278.527 42.1458 278.973 42.6966 278.973Z" fill="#3A3A3A"/>
<path d="M48.9818 278.973C49.5326 278.973 49.9791 278.527 49.9791 277.976C49.9791 277.425 49.5326 276.979 48.9818 276.979C48.4309 276.979 47.9844 277.425 47.9844 277.976C47.9844 278.527 48.4309 278.973 48.9818 278.973Z" fill="#3A3A3A"/>
<path d="M55.263 278.973C55.8138 278.973 56.2604 278.527 56.2604 277.976C56.2604 277.425 55.8138 276.979 55.263 276.979C54.7122 276.979 54.2656 277.425 54.2656 277.976C54.2656 278.527 54.7122 278.973 55.263 278.973Z" fill="#3A3A3A"/>
<path d="M61.5492 278.973C62.1 278.973 62.5466 278.527 62.5466 277.976C62.5466 277.425 62.1 276.979 61.5492 276.979C60.9983 276.979 60.5518 277.425 60.5518 277.976C60.5518 278.527 60.9983 278.973 61.5492 278.973Z" fill="#3A3A3A"/>
<path d="M67.8314 278.973C68.3822 278.973 68.8287 278.527 68.8287 277.976C68.8287 277.425 68.3822 276.979 67.8314 276.979C67.2805 276.979 66.834 277.425 66.834 277.976C66.834 278.527 67.2805 278.973 67.8314 278.973Z" fill="#3A3A3A"/>
<path d="M74.1165 278.973C74.6674 278.973 75.1139 278.527 75.1139 277.976C75.1139 277.425 74.6674 276.979 74.1165 276.979C73.5657 276.979 73.1191 277.425 73.1191 277.976C73.1191 278.527 73.5657 278.973 74.1165 278.973Z" fill="#3A3A3A"/>
<path d="M83.5413 282.249C84.0922 282.249 84.5387 281.802 84.5387 281.251C84.5387 280.7 84.0922 280.254 83.5413 280.254C82.9905 280.254 82.5439 280.7 82.5439 281.251C82.5439 281.802 82.9905 282.249 83.5413 282.249Z" fill="#3A3A3A"/>
<path d="M89.8255 282.249C90.3763 282.249 90.8229 281.802 90.8229 281.251C90.8229 280.7 90.3763 280.254 89.8255 280.254C89.2747 280.254 88.8281 280.7 88.8281 281.251C88.8281 281.802 89.2747 282.249 89.8255 282.249Z" fill="#3A3A3A"/>
<path d="M96.1097 282.249C96.6605 282.249 97.1071 281.802 97.1071 281.251C97.1071 280.7 96.6605 280.254 96.1097 280.254C95.5588 280.254 95.1123 280.7 95.1123 281.251C95.1123 281.802 95.5588 282.249 96.1097 282.249Z" fill="#3A3A3A"/>
<path d="M102.394 282.249C102.945 282.249 103.391 281.802 103.391 281.251C103.391 280.7 102.945 280.254 102.394 280.254C101.843 280.254 101.396 280.7 101.396 281.251C101.396 281.802 101.843 282.249 102.394 282.249Z" fill="#3A3A3A"/>
<path d="M108.677 282.249C109.228 282.249 109.674 281.802 109.674 281.251C109.674 280.7 109.228 280.254 108.677 280.254C108.126 280.254 107.68 280.7 107.68 281.251C107.68 281.802 108.126 282.249 108.677 282.249Z" fill="#3A3A3A"/>
<path d="M114.962 282.249C115.513 282.249 115.96 281.802 115.96 281.251C115.96 280.7 115.513 280.254 114.962 280.254C114.411 280.254 113.965 280.7 113.965 281.251C113.965 281.802 114.411 282.249 114.962 282.249Z" fill="#3A3A3A"/>
<path d="M121.244 282.249C121.795 282.249 122.242 281.802 122.242 281.251C122.242 280.7 121.795 280.254 121.244 280.254C120.694 280.254 120.247 280.7 120.247 281.251C120.247 281.802 120.694 282.249 121.244 282.249Z" fill="#3A3A3A"/>
<path d="M39.555 282.249C40.1058 282.249 40.5524 281.802 40.5524 281.251C40.5524 280.7 40.1058 280.254 39.555 280.254C39.0042 280.254 38.5576 280.7 38.5576 281.251C38.5576 281.802 39.0042 282.249 39.555 282.249Z" fill="#3A3A3A"/>
<path d="M45.8392 282.249C46.39 282.249 46.8366 281.802 46.8366 281.251C46.8366 280.7 46.39 280.254 45.8392 280.254C45.2883 280.254 44.8418 280.7 44.8418 281.251C44.8418 281.802 45.2883 282.249 45.8392 282.249Z" fill="#3A3A3A"/>
<path d="M52.1234 282.249C52.6742 282.249 53.1208 281.802 53.1208 281.251C53.1208 280.7 52.6742 280.254 52.1234 280.254C51.5726 280.254 51.126 280.7 51.126 281.251C51.126 281.802 51.5726 282.249 52.1234 282.249Z" fill="#3A3A3A"/>
<path d="M58.4066 282.249C58.9574 282.249 59.4039 281.802 59.4039 281.251C59.4039 280.7 58.9574 280.254 58.4066 280.254C57.8557 280.254 57.4092 280.7 57.4092 281.251C57.4092 281.802 57.8557 282.249 58.4066 282.249Z" fill="#3A3A3A"/>
<path d="M64.6898 282.249C65.2406 282.249 65.6871 281.802 65.6871 281.251C65.6871 280.7 65.2406 280.254 64.6898 280.254C64.1389 280.254 63.6924 280.7 63.6924 281.251C63.6924 281.802 64.1389 282.249 64.6898 282.249Z" fill="#3A3A3A"/>
<path d="M70.974 282.249C71.5248 282.249 71.9714 281.802 71.9714 281.251C71.9714 280.7 71.5248 280.254 70.974 280.254C70.4231 280.254 69.9766 280.7 69.9766 281.251C69.9766 281.802 70.4231 282.249 70.974 282.249Z" fill="#3A3A3A"/>
<path d="M77.2581 282.249C77.809 282.249 78.2555 281.802 78.2555 281.251C78.2555 280.7 77.809 280.254 77.2581 280.254C76.7073 280.254 76.2607 280.7 76.2607 281.251C76.2607 281.802 76.7073 282.249 77.2581 282.249Z" fill="#3A3A3A"/>
<path d="M80.3998 285.522C80.9506 285.522 81.3971 285.076 81.3971 284.525C81.3971 283.974 80.9506 283.527 80.3998 283.527C79.8489 283.527 79.4023 283.974 79.4023 284.525C79.4023 285.076 79.8489 285.522 80.3998 285.522Z" fill="#3A3A3A"/>
<path d="M86.6839 285.522C87.2347 285.522 87.6813 285.076 87.6813 284.525C87.6813 283.974 87.2347 283.527 86.6839 283.527C86.1331 283.527 85.6865 283.974 85.6865 284.525C85.6865 285.076 86.1331 285.522 86.6839 285.522Z" fill="#3A3A3A"/>
<path d="M92.9681 285.522C93.5189 285.522 93.9655 285.076 93.9655 284.525C93.9655 283.974 93.5189 283.527 92.9681 283.527C92.4172 283.527 91.9707 283.974 91.9707 284.525C91.9707 285.076 92.4172 285.522 92.9681 285.522Z" fill="#3A3A3A"/>
<path d="M99.2513 285.522C99.8021 285.522 100.249 285.076 100.249 284.525C100.249 283.974 99.8021 283.527 99.2513 283.527C98.7004 283.527 98.2539 283.974 98.2539 284.525C98.2539 285.076 98.7004 285.522 99.2513 285.522Z" fill="#3A3A3A"/>
<path d="M105.535 285.522C106.086 285.522 106.533 285.076 106.533 284.525C106.533 283.974 106.086 283.527 105.535 283.527C104.985 283.527 104.538 283.974 104.538 284.525C104.538 285.076 104.985 285.522 105.535 285.522Z" fill="#3A3A3A"/>
<path d="M111.819 285.522C112.37 285.522 112.816 285.076 112.816 284.525C112.816 283.974 112.37 283.527 111.819 283.527C111.268 283.527 110.821 283.974 110.821 284.525C110.821 285.076 111.268 285.522 111.819 285.522Z" fill="#3A3A3A"/>
<path d="M118.103 285.522C118.654 285.522 119.1 285.076 119.1 284.525C119.1 283.974 118.654 283.527 118.103 283.527C117.552 283.527 117.105 283.974 117.105 284.525C117.105 285.076 117.552 285.522 118.103 285.522Z" fill="#3A3A3A"/>
<path d="M42.6966 285.522C43.2475 285.522 43.694 285.076 43.694 284.525C43.694 283.974 43.2475 283.527 42.6966 283.527C42.1458 283.527 41.6992 283.974 41.6992 284.525C41.6992 285.076 42.1458 285.522 42.6966 285.522Z" fill="#3A3A3A"/>
<path d="M36.4124 285.522C36.9633 285.522 37.4098 285.076 37.4098 284.525C37.4098 283.974 36.9633 283.527 36.4124 283.527C35.8616 283.527 35.415 283.974 35.415 284.525C35.415 285.076 35.8616 285.522 36.4124 285.522Z" fill="#3A3A3A"/>
<path d="M48.9818 285.522C49.5326 285.522 49.9791 285.076 49.9791 284.525C49.9791 283.974 49.5326 283.527 48.9818 283.527C48.4309 283.527 47.9844 283.974 47.9844 284.525C47.9844 285.076 48.4309 285.522 48.9818 285.522Z" fill="#3A3A3A"/>
<path d="M55.263 285.522C55.8138 285.522 56.2604 285.076 56.2604 284.525C56.2604 283.974 55.8138 283.527 55.263 283.527C54.7122 283.527 54.2656 283.974 54.2656 284.525C54.2656 285.076 54.7122 285.522 55.263 285.522Z" fill="#3A3A3A"/>
<path d="M61.5492 285.522C62.1 285.522 62.5466 285.076 62.5466 284.525C62.5466 283.974 62.1 283.527 61.5492 283.527C60.9983 283.527 60.5518 283.974 60.5518 284.525C60.5518 285.076 60.9983 285.522 61.5492 285.522Z" fill="#3A3A3A"/>
<path d="M67.8314 285.522C68.3822 285.522 68.8287 285.076 68.8287 284.525C68.8287 283.974 68.3822 283.527 67.8314 283.527C67.2805 283.527 66.834 283.974 66.834 284.525C66.834 285.076 67.2805 285.522 67.8314 285.522Z" fill="#3A3A3A"/>
<path d="M74.1165 285.522C74.6674 285.522 75.1139 285.076 75.1139 284.525C75.1139 283.974 74.6674 283.527 74.1165 283.527C73.5657 283.527 73.1191 283.974 73.1191 284.525C73.1191 285.076 73.5657 285.522 74.1165 285.522Z" fill="#3A3A3A"/>
<path d="M83.5413 288.795C84.0922 288.795 84.5387 288.348 84.5387 287.797C84.5387 287.246 84.0922 286.8 83.5413 286.8C82.9905 286.8 82.5439 287.246 82.5439 287.797C82.5439 288.348 82.9905 288.795 83.5413 288.795Z" fill="#3A3A3A"/>
<path d="M89.8255 288.795C90.3763 288.795 90.8229 288.348 90.8229 287.797C90.8229 287.246 90.3763 286.8 89.8255 286.8C89.2747 286.8 88.8281 287.246 88.8281 287.797C88.8281 288.348 89.2747 288.795 89.8255 288.795Z" fill="#3A3A3A"/>
<path d="M96.1097 288.795C96.6605 288.795 97.1071 288.348 97.1071 287.797C97.1071 287.246 96.6605 286.8 96.1097 286.8C95.5588 286.8 95.1123 287.246 95.1123 287.797C95.1123 288.348 95.5588 288.795 96.1097 288.795Z" fill="#3A3A3A"/>
<path d="M102.394 288.795C102.945 288.795 103.391 288.348 103.391 287.797C103.391 287.246 102.945 286.8 102.394 286.8C101.843 286.8 101.396 287.246 101.396 287.797C101.396 288.348 101.843 288.795 102.394 288.795Z" fill="#3A3A3A"/>
<path d="M108.677 288.795C109.228 288.795 109.674 288.348 109.674 287.797C109.674 287.246 109.228 286.8 108.677 286.8C108.126 286.8 107.68 287.246 107.68 287.797C107.68 288.348 108.126 288.795 108.677 288.795Z" fill="#3A3A3A"/>
<path d="M114.962 288.795C115.513 288.795 115.96 288.348 115.96 287.797C115.96 287.246 115.513 286.8 114.962 286.8C114.411 286.8 113.965 287.246 113.965 287.797C113.965 288.348 114.411 288.795 114.962 288.795Z" fill="#3A3A3A"/>
<path d="M121.244 288.795C121.795 288.795 122.242 288.348 122.242 287.797C122.242 287.246 121.795 286.8 121.244 286.8C120.694 286.8 120.247 287.246 120.247 287.797C120.247 288.348 120.694 288.795 121.244 288.795Z" fill="#3A3A3A"/>
<path d="M45.8392 288.795C46.39 288.795 46.8366 288.348 46.8366 287.797C46.8366 287.246 46.39 286.8 45.8392 286.8C45.2883 286.8 44.8418 287.246 44.8418 287.797C44.8418 288.348 45.2883 288.795 45.8392 288.795Z" fill="#3A3A3A"/>
<path d="M39.555 288.795C40.1058 288.795 40.5524 288.348 40.5524 287.797C40.5524 287.246 40.1058 286.8 39.555 286.8C39.0042 286.8 38.5576 287.246 38.5576 287.797C38.5576 288.348 39.0042 288.795 39.555 288.795Z" fill="#3A3A3A"/>
<path d="M33.2699 288.795C33.8207 288.795 34.2673 288.348 34.2673 287.797C34.2673 287.246 33.8207 286.8 33.2699 286.8C32.719 286.8 32.2725 287.246 32.2725 287.797C32.2725 288.348 32.719 288.795 33.2699 288.795Z" fill="#3A3A3A"/>
<path d="M52.1234 288.795C52.6742 288.795 53.1208 288.348 53.1208 287.797C53.1208 287.246 52.6742 286.8 52.1234 286.8C51.5726 286.8 51.126 287.246 51.126 287.797C51.126 288.348 51.5726 288.795 52.1234 288.795Z" fill="#3A3A3A"/>
<path d="M58.4066 288.795C58.9574 288.795 59.4039 288.348 59.4039 287.797C59.4039 287.246 58.9574 286.8 58.4066 286.8C57.8557 286.8 57.4092 287.246 57.4092 287.797C57.4092 288.348 57.8557 288.795 58.4066 288.795Z" fill="#3A3A3A"/>
<path d="M64.6898 288.795C65.2406 288.795 65.6871 288.348 65.6871 287.797C65.6871 287.246 65.2406 286.8 64.6898 286.8C64.1389 286.8 63.6924 287.246 63.6924 287.797C63.6924 288.348 64.1389 288.795 64.6898 288.795Z" fill="#3A3A3A"/>
<path d="M70.974 288.795C71.5248 288.795 71.9714 288.348 71.9714 287.797C71.9714 287.246 71.5248 286.8 70.974 286.8C70.4231 286.8 69.9766 287.246 69.9766 287.797C69.9766 288.348 70.4231 288.795 70.974 288.795Z" fill="#3A3A3A"/>
<path d="M77.2581 288.795C77.809 288.795 78.2555 288.348 78.2555 287.797C78.2555 287.246 77.809 286.8 77.2581 286.8C76.7073 286.8 76.2607 287.246 76.2607 287.797C76.2607 288.348 76.7073 288.795 77.2581 288.795Z" fill="#3A3A3A"/>
<path d="M80.3998 292.068C80.9506 292.068 81.3971 291.621 81.3971 291.071C81.3971 290.52 80.9506 290.073 80.3998 290.073C79.8489 290.073 79.4023 290.52 79.4023 291.071C79.4023 291.621 79.8489 292.068 80.3998 292.068Z" fill="#3A3A3A"/>
<path d="M86.6839 292.068C87.2347 292.068 87.6813 291.621 87.6813 291.071C87.6813 290.52 87.2347 290.073 86.6839 290.073C86.1331 290.073 85.6865 290.52 85.6865 291.071C85.6865 291.621 86.1331 292.068 86.6839 292.068Z" fill="#3A3A3A"/>
<path d="M92.9681 292.068C93.5189 292.068 93.9655 291.621 93.9655 291.071C93.9655 290.52 93.5189 290.073 92.9681 290.073C92.4172 290.073 91.9707 290.52 91.9707 291.071C91.9707 291.621 92.4172 292.068 92.9681 292.068Z" fill="#3A3A3A"/>
<path d="M99.2513 292.068C99.8021 292.068 100.249 291.621 100.249 291.071C100.249 290.52 99.8021 290.073 99.2513 290.073C98.7004 290.073 98.2539 290.52 98.2539 291.071C98.2539 291.621 98.7004 292.068 99.2513 292.068Z" fill="#3A3A3A"/>
<path d="M105.535 292.068C106.086 292.068 106.533 291.621 106.533 291.071C106.533 290.52 106.086 290.073 105.535 290.073C104.985 290.073 104.538 290.52 104.538 291.071C104.538 291.621 104.985 292.068 105.535 292.068Z" fill="#3A3A3A"/>
<path d="M111.819 292.068C112.37 292.068 112.816 291.621 112.816 291.071C112.816 290.52 112.37 290.073 111.819 290.073C111.268 290.073 110.821 290.52 110.821 291.071C110.821 291.621 111.268 292.068 111.819 292.068Z" fill="#3A3A3A"/>
<path d="M118.103 292.068C118.654 292.068 119.1 291.621 119.1 291.071C119.1 290.52 118.654 290.073 118.103 290.073C117.552 290.073 117.105 290.52 117.105 291.071C117.105 291.621 117.552 292.068 118.103 292.068Z" fill="#3A3A3A"/>
<path d="M48.9818 292.068C49.5326 292.068 49.9791 291.621 49.9791 291.071C49.9791 290.52 49.5326 290.073 48.9818 290.073C48.4309 290.073 47.9844 290.52 47.9844 291.071C47.9844 291.621 48.4309 292.068 48.9818 292.068Z" fill="#3A3A3A"/>
<path d="M42.6966 292.068C43.2475 292.068 43.694 291.621 43.694 291.071C43.694 290.52 43.2475 290.073 42.6966 290.073C42.1458 290.073 41.6992 290.52 41.6992 291.071C41.6992 291.621 42.1458 292.068 42.6966 292.068Z" fill="#3A3A3A"/>
<path d="M36.4124 292.068C36.9633 292.068 37.4098 291.621 37.4098 291.071C37.4098 290.52 36.9633 290.073 36.4124 290.073C35.8616 290.073 35.415 290.52 35.415 291.071C35.415 291.621 35.8616 292.068 36.4124 292.068Z" fill="#3A3A3A"/>
<path d="M30.0472 292.068C30.598 292.068 31.0446 291.621 31.0446 291.071C31.0446 290.52 30.598 290.073 30.0472 290.073C29.4963 290.073 29.0498 290.52 29.0498 291.071C29.0498 291.621 29.4963 292.068 30.0472 292.068Z" fill="#3A3A3A"/>
<path d="M55.263 292.068C55.8138 292.068 56.2604 291.621 56.2604 291.071C56.2604 290.52 55.8138 290.073 55.263 290.073C54.7122 290.073 54.2656 290.52 54.2656 291.071C54.2656 291.621 54.7122 292.068 55.263 292.068Z" fill="#3A3A3A"/>
<path d="M61.5492 292.068C62.1 292.068 62.5466 291.621 62.5466 291.071C62.5466 290.52 62.1 290.073 61.5492 290.073C60.9983 290.073 60.5518 290.52 60.5518 291.071C60.5518 291.621 60.9983 292.068 61.5492 292.068Z" fill="#3A3A3A"/>
<path d="M67.8314 292.068C68.3822 292.068 68.8287 291.621 68.8287 291.071C68.8287 290.52 68.3822 290.073 67.8314 290.073C67.2805 290.073 66.834 290.52 66.834 291.071C66.834 291.621 67.2805 292.068 67.8314 292.068Z" fill="#3A3A3A"/>
<path d="M74.1165 292.068C74.6674 292.068 75.1139 291.621 75.1139 291.071C75.1139 290.52 74.6674 290.073 74.1165 290.073C73.5657 290.073 73.1191 290.52 73.1191 291.071C73.1191 291.621 73.5657 292.068 74.1165 292.068Z" fill="#3A3A3A"/>
<path d="M177.792 275.7C178.343 275.7 178.79 275.253 178.79 274.702C178.79 274.152 178.343 273.705 177.792 273.705C177.241 273.705 176.795 274.152 176.795 274.702C176.795 275.253 177.241 275.7 177.792 275.7Z" fill="#3A3A3A"/>
<path d="M184.078 275.7C184.629 275.7 185.076 275.253 185.076 274.702C185.076 274.152 184.629 273.705 184.078 273.705C183.528 273.705 183.081 274.152 183.081 274.702C183.081 275.253 183.528 275.7 184.078 275.7Z" fill="#3A3A3A"/>
<path d="M190.361 275.7C190.911 275.7 191.358 275.253 191.358 274.702C191.358 274.152 190.911 273.705 190.361 273.705C189.81 273.705 189.363 274.152 189.363 274.702C189.363 275.253 189.81 275.7 190.361 275.7Z" fill="#3A3A3A"/>
<path d="M196.644 275.7C197.195 275.7 197.641 275.253 197.641 274.702C197.641 274.152 197.195 273.705 196.644 273.705C196.093 273.705 195.646 274.152 195.646 274.702C195.646 275.253 196.093 275.7 196.644 275.7Z" fill="#3A3A3A"/>
<path d="M202.928 275.7C203.479 275.7 203.925 275.253 203.925 274.702C203.925 274.152 203.479 273.705 202.928 273.705C202.377 273.705 201.931 274.152 201.931 274.702C201.931 275.253 202.377 275.7 202.928 275.7Z" fill="#3A3A3A"/>
<path d="M209.214 275.7C209.765 275.7 210.212 275.253 210.212 274.702C210.212 274.152 209.765 273.705 209.214 273.705C208.663 273.705 208.217 274.152 208.217 274.702C208.217 275.253 208.663 275.7 209.214 275.7Z" fill="#3A3A3A"/>
<path d="M215.498 275.7C216.049 275.7 216.496 275.253 216.496 274.702C216.496 274.152 216.049 273.705 215.498 273.705C214.948 273.705 214.501 274.152 214.501 274.702C214.501 275.253 214.948 275.7 215.498 275.7Z" fill="#3A3A3A"/>
<path d="M133.807 275.7C134.358 275.7 134.804 275.253 134.804 274.702C134.804 274.152 134.358 273.705 133.807 273.705C133.256 273.705 132.81 274.152 132.81 274.702C132.81 275.253 133.256 275.7 133.807 275.7Z" fill="#3A3A3A"/>
<path d="M127.523 275.7C128.074 275.7 128.52 275.253 128.52 274.702C128.52 274.152 128.074 273.705 127.523 273.705C126.972 273.705 126.525 274.152 126.525 274.702C126.525 275.253 126.972 275.7 127.523 275.7Z" fill="#3A3A3A"/>
<path d="M140.092 275.7C140.643 275.7 141.089 275.253 141.089 274.702C141.089 274.152 140.643 273.705 140.092 273.705C139.541 273.705 139.095 274.152 139.095 274.702C139.095 275.253 139.541 275.7 140.092 275.7Z" fill="#3A3A3A"/>
<path d="M146.374 275.7C146.925 275.7 147.372 275.253 147.372 274.702C147.372 274.152 146.925 273.705 146.374 273.705C145.823 273.705 145.377 274.152 145.377 274.702C145.377 275.253 145.823 275.7 146.374 275.7Z" fill="#3A3A3A"/>
<path d="M152.659 275.7C153.209 275.7 153.656 275.253 153.656 274.702C153.656 274.152 153.209 273.705 152.659 273.705C152.108 273.705 151.661 274.152 151.661 274.702C151.661 275.253 152.108 275.7 152.659 275.7Z" fill="#3A3A3A"/>
<path d="M158.941 275.7C159.492 275.7 159.938 275.253 159.938 274.702C159.938 274.152 159.492 273.705 158.941 273.705C158.39 273.705 157.943 274.152 157.943 274.702C157.943 275.253 158.39 275.7 158.941 275.7Z" fill="#3A3A3A"/>
<path d="M165.226 275.7C165.777 275.7 166.223 275.253 166.223 274.702C166.223 274.152 165.777 273.705 165.226 273.705C164.675 273.705 164.229 274.152 164.229 274.702C164.229 275.253 164.675 275.7 165.226 275.7Z" fill="#3A3A3A"/>
<path d="M171.51 275.7C172.061 275.7 172.507 275.253 172.507 274.702C172.507 274.152 172.061 273.705 171.51 273.705C170.959 273.705 170.513 274.152 170.513 274.702C170.513 275.253 170.959 275.7 171.51 275.7Z" fill="#3A3A3A"/>
<path d="M174.652 278.973C175.203 278.973 175.649 278.527 175.649 277.976C175.649 277.425 175.203 276.979 174.652 276.979C174.101 276.979 173.654 277.425 173.654 277.976C173.654 278.527 174.101 278.973 174.652 278.973Z" fill="#3A3A3A"/>
<path d="M180.936 278.973C181.487 278.973 181.933 278.527 181.933 277.976C181.933 277.425 181.487 276.979 180.936 276.979C180.385 276.979 179.938 277.425 179.938 277.976C179.938 278.527 180.385 278.973 180.936 278.973Z" fill="#3A3A3A"/>
<path d="M187.219 278.973C187.77 278.973 188.216 278.527 188.216 277.976C188.216 277.425 187.77 276.979 187.219 276.979C186.668 276.979 186.222 277.425 186.222 277.976C186.222 278.527 186.668 278.973 187.219 278.973Z" fill="#3A3A3A"/>
<path d="M193.503 278.973C194.054 278.973 194.501 278.527 194.501 277.976C194.501 277.425 194.054 276.979 193.503 276.979C192.952 276.979 192.506 277.425 192.506 277.976C192.506 278.527 192.952 278.973 193.503 278.973Z" fill="#3A3A3A"/>
<path d="M199.785 278.973C200.336 278.973 200.783 278.527 200.783 277.976C200.783 277.425 200.336 276.979 199.785 276.979C199.235 276.979 198.788 277.425 198.788 277.976C198.788 278.527 199.235 278.973 199.785 278.973Z" fill="#3A3A3A"/>
<path d="M206.072 278.973C206.622 278.973 207.069 278.527 207.069 277.976C207.069 277.425 206.622 276.979 206.072 276.979C205.521 276.979 205.074 277.425 205.074 277.976C205.074 278.527 205.521 278.973 206.072 278.973Z" fill="#3A3A3A"/>
<path d="M212.354 278.973C212.905 278.973 213.351 278.527 213.351 277.976C213.351 277.425 212.905 276.979 212.354 276.979C211.803 276.979 211.356 277.425 211.356 277.976C211.356 278.527 211.803 278.973 212.354 278.973Z" fill="#3A3A3A"/>
<path d="M130.664 278.973C131.215 278.973 131.662 278.527 131.662 277.976C131.662 277.425 131.215 276.979 130.664 276.979C130.114 276.979 129.667 277.425 129.667 277.976C129.667 278.527 130.114 278.973 130.664 278.973Z" fill="#3A3A3A"/>
<path d="M124.381 278.973C124.932 278.973 125.379 278.527 125.379 277.976C125.379 277.425 124.932 276.979 124.381 276.979C123.83 276.979 123.384 277.425 123.384 277.976C123.384 278.527 123.83 278.973 124.381 278.973Z" fill="#3A3A3A"/>
<path d="M136.949 278.973C137.499 278.973 137.946 278.527 137.946 277.976C137.946 277.425 137.499 276.979 136.949 276.979C136.398 276.979 135.951 277.425 135.951 277.976C135.951 278.527 136.398 278.973 136.949 278.973Z" fill="#3A3A3A"/>
<path d="M143.233 278.973C143.784 278.973 144.23 278.527 144.23 277.976C144.23 277.425 143.784 276.979 143.233 276.979C142.682 276.979 142.235 277.425 142.235 277.976C142.235 278.527 142.682 278.973 143.233 278.973Z" fill="#3A3A3A"/>
<path d="M149.515 278.973C150.066 278.973 150.512 278.527 150.512 277.976C150.512 277.425 150.066 276.979 149.515 276.979C148.964 276.979 148.518 277.425 148.518 277.976C148.518 278.527 148.964 278.973 149.515 278.973Z" fill="#3A3A3A"/>
<path d="M155.8 278.973C156.351 278.973 156.798 278.527 156.798 277.976C156.798 277.425 156.351 276.979 155.8 276.979C155.249 276.979 154.803 277.425 154.803 277.976C154.803 278.527 155.249 278.973 155.8 278.973Z" fill="#3A3A3A"/>
<path d="M162.084 278.973C162.635 278.973 163.082 278.527 163.082 277.976C163.082 277.425 162.635 276.979 162.084 276.979C161.533 276.979 161.087 277.425 161.087 277.976C161.087 278.527 161.533 278.973 162.084 278.973Z" fill="#3A3A3A"/>
<path d="M168.367 278.973C168.917 278.973 169.364 278.527 169.364 277.976C169.364 277.425 168.917 276.979 168.367 276.979C167.816 276.979 167.369 277.425 167.369 277.976C167.369 278.527 167.816 278.973 168.367 278.973Z" fill="#3A3A3A"/>
<path d="M177.792 282.249C178.343 282.249 178.79 281.802 178.79 281.251C178.79 280.7 178.343 280.254 177.792 280.254C177.241 280.254 176.795 280.7 176.795 281.251C176.795 281.802 177.241 282.249 177.792 282.249Z" fill="#3A3A3A"/>
<path d="M184.078 282.249C184.629 282.249 185.076 281.802 185.076 281.251C185.076 280.7 184.629 280.254 184.078 280.254C183.528 280.254 183.081 280.7 183.081 281.251C183.081 281.802 183.528 282.249 184.078 282.249Z" fill="#3A3A3A"/>
<path d="M190.361 282.249C190.911 282.249 191.358 281.802 191.358 281.251C191.358 280.7 190.911 280.254 190.361 280.254C189.81 280.254 189.363 280.7 189.363 281.251C189.363 281.802 189.81 282.249 190.361 282.249Z" fill="#3A3A3A"/>
<path d="M196.644 282.249C197.195 282.249 197.641 281.802 197.641 281.251C197.641 280.7 197.195 280.254 196.644 280.254C196.093 280.254 195.646 280.7 195.646 281.251C195.646 281.802 196.093 282.249 196.644 282.249Z" fill="#3A3A3A"/>
<path d="M202.928 282.249C203.479 282.249 203.925 281.802 203.925 281.251C203.925 280.7 203.479 280.254 202.928 280.254C202.377 280.254 201.931 280.7 201.931 281.251C201.931 281.802 202.377 282.249 202.928 282.249Z" fill="#3A3A3A"/>
<path d="M209.214 282.249C209.765 282.249 210.212 281.802 210.212 281.251C210.212 280.7 209.765 280.254 209.214 280.254C208.663 280.254 208.217 280.7 208.217 281.251C208.217 281.802 208.663 282.249 209.214 282.249Z" fill="#3A3A3A"/>
<path d="M215.498 282.249C216.049 282.249 216.496 281.802 216.496 281.251C216.496 280.7 216.049 280.254 215.498 280.254C214.948 280.254 214.501 280.7 214.501 281.251C214.501 281.802 214.948 282.249 215.498 282.249Z" fill="#3A3A3A"/>
<path d="M133.807 282.249C134.358 282.249 134.804 281.802 134.804 281.251C134.804 280.7 134.358 280.254 133.807 280.254C133.256 280.254 132.81 280.7 132.81 281.251C132.81 281.802 133.256 282.249 133.807 282.249Z" fill="#3A3A3A"/>
<path d="M127.523 282.249C128.074 282.249 128.52 281.802 128.52 281.251C128.52 280.7 128.074 280.254 127.523 280.254C126.972 280.254 126.525 280.7 126.525 281.251C126.525 281.802 126.972 282.249 127.523 282.249Z" fill="#3A3A3A"/>
<path d="M140.092 282.249C140.643 282.249 141.089 281.802 141.089 281.251C141.089 280.7 140.643 280.254 140.092 280.254C139.541 280.254 139.095 280.7 139.095 281.251C139.095 281.802 139.541 282.249 140.092 282.249Z" fill="#3A3A3A"/>
<path d="M146.374 282.249C146.925 282.249 147.372 281.802 147.372 281.251C147.372 280.7 146.925 280.254 146.374 280.254C145.823 280.254 145.377 280.7 145.377 281.251C145.377 281.802 145.823 282.249 146.374 282.249Z" fill="#3A3A3A"/>
<path d="M152.659 282.249C153.209 282.249 153.656 281.802 153.656 281.251C153.656 280.7 153.209 280.254 152.659 280.254C152.108 280.254 151.661 280.7 151.661 281.251C151.661 281.802 152.108 282.249 152.659 282.249Z" fill="#3A3A3A"/>
<path d="M158.941 282.249C159.492 282.249 159.938 281.802 159.938 281.251C159.938 280.7 159.492 280.254 158.941 280.254C158.39 280.254 157.943 280.7 157.943 281.251C157.943 281.802 158.39 282.249 158.941 282.249Z" fill="#3A3A3A"/>
<path d="M165.226 282.249C165.777 282.249 166.223 281.802 166.223 281.251C166.223 280.7 165.777 280.254 165.226 280.254C164.675 280.254 164.229 280.7 164.229 281.251C164.229 281.802 164.675 282.249 165.226 282.249Z" fill="#3A3A3A"/>
<path d="M171.51 282.249C172.061 282.249 172.507 281.802 172.507 281.251C172.507 280.7 172.061 280.254 171.51 280.254C170.959 280.254 170.513 280.7 170.513 281.251C170.513 281.802 170.959 282.249 171.51 282.249Z" fill="#3A3A3A"/>
<path d="M174.652 285.522C175.203 285.522 175.649 285.076 175.649 284.525C175.649 283.974 175.203 283.527 174.652 283.527C174.101 283.527 173.654 283.974 173.654 284.525C173.654 285.076 174.101 285.522 174.652 285.522Z" fill="#3A3A3A"/>
<path d="M180.936 285.522C181.487 285.522 181.933 285.076 181.933 284.525C181.933 283.974 181.487 283.527 180.936 283.527C180.385 283.527 179.938 283.974 179.938 284.525C179.938 285.076 180.385 285.522 180.936 285.522Z" fill="#3A3A3A"/>
<path d="M187.219 285.522C187.77 285.522 188.216 285.076 188.216 284.525C188.216 283.974 187.77 283.527 187.219 283.527C186.668 283.527 186.222 283.974 186.222 284.525C186.222 285.076 186.668 285.522 187.219 285.522Z" fill="#3A3A3A"/>
<path d="M193.503 285.522C194.054 285.522 194.501 285.076 194.501 284.525C194.501 283.974 194.054 283.527 193.503 283.527C192.952 283.527 192.506 283.974 192.506 284.525C192.506 285.076 192.952 285.522 193.503 285.522Z" fill="#3A3A3A"/>
<path d="M199.785 285.522C200.336 285.522 200.783 285.076 200.783 284.525C200.783 283.974 200.336 283.527 199.785 283.527C199.235 283.527 198.788 283.974 198.788 284.525C198.788 285.076 199.235 285.522 199.785 285.522Z" fill="#3A3A3A"/>
<path d="M206.072 285.522C206.622 285.522 207.069 285.076 207.069 284.525C207.069 283.974 206.622 283.527 206.072 283.527C205.521 283.527 205.074 283.974 205.074 284.525C205.074 285.076 205.521 285.522 206.072 285.522Z" fill="#3A3A3A"/>
<path d="M212.354 285.522C212.905 285.522 213.351 285.076 213.351 284.525C213.351 283.974 212.905 283.527 212.354 283.527C211.803 283.527 211.356 283.974 211.356 284.525C211.356 285.076 211.803 285.522 212.354 285.522Z" fill="#3A3A3A"/>
<path d="M130.664 285.522C131.215 285.522 131.662 285.076 131.662 284.525C131.662 283.974 131.215 283.527 130.664 283.527C130.114 283.527 129.667 283.974 129.667 284.525C129.667 285.076 130.114 285.522 130.664 285.522Z" fill="#3A3A3A"/>
<path d="M124.381 285.522C124.932 285.522 125.379 285.076 125.379 284.525C125.379 283.974 124.932 283.527 124.381 283.527C123.83 283.527 123.384 283.974 123.384 284.525C123.384 285.076 123.83 285.522 124.381 285.522Z" fill="#3A3A3A"/>
<path d="M136.949 285.522C137.499 285.522 137.946 285.076 137.946 284.525C137.946 283.974 137.499 283.527 136.949 283.527C136.398 283.527 135.951 283.974 135.951 284.525C135.951 285.076 136.398 285.522 136.949 285.522Z" fill="#3A3A3A"/>
<path d="M143.233 285.522C143.784 285.522 144.23 285.076 144.23 284.525C144.23 283.974 143.784 283.527 143.233 283.527C142.682 283.527 142.235 283.974 142.235 284.525C142.235 285.076 142.682 285.522 143.233 285.522Z" fill="#3A3A3A"/>
<path d="M149.515 285.522C150.066 285.522 150.512 285.076 150.512 284.525C150.512 283.974 150.066 283.527 149.515 283.527C148.964 283.527 148.518 283.974 148.518 284.525C148.518 285.076 148.964 285.522 149.515 285.522Z" fill="#3A3A3A"/>
<path d="M155.8 285.522C156.351 285.522 156.798 285.076 156.798 284.525C156.798 283.974 156.351 283.527 155.8 283.527C155.249 283.527 154.803 283.974 154.803 284.525C154.803 285.076 155.249 285.522 155.8 285.522Z" fill="#3A3A3A"/>
<path d="M162.084 285.522C162.635 285.522 163.082 285.076 163.082 284.525C163.082 283.974 162.635 283.527 162.084 283.527C161.533 283.527 161.087 283.974 161.087 284.525C161.087 285.076 161.533 285.522 162.084 285.522Z" fill="#3A3A3A"/>
<path d="M168.367 285.522C168.917 285.522 169.364 285.076 169.364 284.525C169.364 283.974 168.917 283.527 168.367 283.527C167.816 283.527 167.369 283.974 167.369 284.525C167.369 285.076 167.816 285.522 168.367 285.522Z" fill="#3A3A3A"/>
<path d="M177.792 288.795C178.343 288.795 178.79 288.348 178.79 287.797C178.79 287.246 178.343 286.8 177.792 286.8C177.241 286.8 176.795 287.246 176.795 287.797C176.795 288.348 177.241 288.795 177.792 288.795Z" fill="#3A3A3A"/>
<path d="M184.078 288.795C184.629 288.795 185.076 288.348 185.076 287.797C185.076 287.246 184.629 286.8 184.078 286.8C183.528 286.8 183.081 287.246 183.081 287.797C183.081 288.348 183.528 288.795 184.078 288.795Z" fill="#3A3A3A"/>
<path d="M190.361 288.795C190.911 288.795 191.358 288.348 191.358 287.797C191.358 287.246 190.911 286.8 190.361 286.8C189.81 286.8 189.363 287.246 189.363 287.797C189.363 288.348 189.81 288.795 190.361 288.795Z" fill="#3A3A3A"/>
<path d="M196.644 288.795C197.195 288.795 197.641 288.348 197.641 287.797C197.641 287.246 197.195 286.8 196.644 286.8C196.093 286.8 195.646 287.246 195.646 287.797C195.646 288.348 196.093 288.795 196.644 288.795Z" fill="#3A3A3A"/>
<path d="M202.928 288.795C203.479 288.795 203.925 288.348 203.925 287.797C203.925 287.246 203.479 286.8 202.928 286.8C202.377 286.8 201.931 287.246 201.931 287.797C201.931 288.348 202.377 288.795 202.928 288.795Z" fill="#3A3A3A"/>
<path d="M209.214 288.795C209.765 288.795 210.212 288.348 210.212 287.797C210.212 287.246 209.765 286.8 209.214 286.8C208.663 286.8 208.217 287.246 208.217 287.797C208.217 288.348 208.663 288.795 209.214 288.795Z" fill="#3A3A3A"/>
<path d="M215.498 288.795C216.049 288.795 216.496 288.348 216.496 287.797C216.496 287.246 216.049 286.8 215.498 286.8C214.948 286.8 214.501 287.246 214.501 287.797C214.501 288.348 214.948 288.795 215.498 288.795Z" fill="#3A3A3A"/>
<path d="M133.807 288.795C134.358 288.795 134.804 288.348 134.804 287.797C134.804 287.246 134.358 286.8 133.807 286.8C133.256 286.8 132.81 287.246 132.81 287.797C132.81 288.348 133.256 288.795 133.807 288.795Z" fill="#3A3A3A"/>
<path d="M127.523 288.795C128.074 288.795 128.52 288.348 128.52 287.797C128.52 287.246 128.074 286.8 127.523 286.8C126.972 286.8 126.525 287.246 126.525 287.797C126.525 288.348 126.972 288.795 127.523 288.795Z" fill="#3A3A3A"/>
<path d="M140.092 288.795C140.643 288.795 141.089 288.348 141.089 287.797C141.089 287.246 140.643 286.8 140.092 286.8C139.541 286.8 139.095 287.246 139.095 287.797C139.095 288.348 139.541 288.795 140.092 288.795Z" fill="#3A3A3A"/>
<path d="M146.374 288.795C146.925 288.795 147.372 288.348 147.372 287.797C147.372 287.246 146.925 286.8 146.374 286.8C145.823 286.8 145.377 287.246 145.377 287.797C145.377 288.348 145.823 288.795 146.374 288.795Z" fill="#3A3A3A"/>
<path d="M152.659 288.795C153.209 288.795 153.656 288.348 153.656 287.797C153.656 287.246 153.209 286.8 152.659 286.8C152.108 286.8 151.661 287.246 151.661 287.797C151.661 288.348 152.108 288.795 152.659 288.795Z" fill="#3A3A3A"/>
<path d="M158.941 288.795C159.492 288.795 159.938 288.348 159.938 287.797C159.938 287.246 159.492 286.8 158.941 286.8C158.39 286.8 157.943 287.246 157.943 287.797C157.943 288.348 158.39 288.795 158.941 288.795Z" fill="#3A3A3A"/>
<path d="M165.226 288.795C165.777 288.795 166.223 288.348 166.223 287.797C166.223 287.246 165.777 286.8 165.226 286.8C164.675 286.8 164.229 287.246 164.229 287.797C164.229 288.348 164.675 288.795 165.226 288.795Z" fill="#3A3A3A"/>
<path d="M171.51 288.795C172.061 288.795 172.507 288.348 172.507 287.797C172.507 287.246 172.061 286.8 171.51 286.8C170.959 286.8 170.513 287.246 170.513 287.797C170.513 288.348 170.959 288.795 171.51 288.795Z" fill="#3A3A3A"/>
<path d="M174.652 292.068C175.203 292.068 175.649 291.621 175.649 291.071C175.649 290.52 175.203 290.073 174.652 290.073C174.101 290.073 173.654 290.52 173.654 291.071C173.654 291.621 174.101 292.068 174.652 292.068Z" fill="#3A3A3A"/>
<path d="M180.936 292.068C181.487 292.068 181.933 291.621 181.933 291.071C181.933 290.52 181.487 290.073 180.936 290.073C180.385 290.073 179.938 290.52 179.938 291.071C179.938 291.621 180.385 292.068 180.936 292.068Z" fill="#3A3A3A"/>
<path d="M187.219 292.068C187.77 292.068 188.216 291.621 188.216 291.071C188.216 290.52 187.77 290.073 187.219 290.073C186.668 290.073 186.222 290.52 186.222 291.071C186.222 291.621 186.668 292.068 187.219 292.068Z" fill="#3A3A3A"/>
<path d="M193.503 292.068C194.054 292.068 194.501 291.621 194.501 291.071C194.501 290.52 194.054 290.073 193.503 290.073C192.952 290.073 192.506 290.52 192.506 291.071C192.506 291.621 192.952 292.068 193.503 292.068Z" fill="#3A3A3A"/>
<path d="M199.785 292.068C200.336 292.068 200.783 291.621 200.783 291.071C200.783 290.52 200.336 290.073 199.785 290.073C199.235 290.073 198.788 290.52 198.788 291.071C198.788 291.621 199.235 292.068 199.785 292.068Z" fill="#3A3A3A"/>
<path d="M206.072 292.068C206.622 292.068 207.069 291.621 207.069 291.071C207.069 290.52 206.622 290.073 206.072 290.073C205.521 290.073 205.074 290.52 205.074 291.071C205.074 291.621 205.521 292.068 206.072 292.068Z" fill="#3A3A3A"/>
<path d="M212.354 292.068C212.905 292.068 213.351 291.621 213.351 291.071C213.351 290.52 212.905 290.073 212.354 290.073C211.803 290.073 211.356 290.52 211.356 291.071C211.356 291.621 211.803 292.068 212.354 292.068Z" fill="#3A3A3A"/>
<path d="M130.664 292.068C131.215 292.068 131.662 291.621 131.662 291.071C131.662 290.52 131.215 290.073 130.664 290.073C130.114 290.073 129.667 290.52 129.667 291.071C129.667 291.621 130.114 292.068 130.664 292.068Z" fill="#3A3A3A"/>
<path d="M124.381 292.068C124.932 292.068 125.379 291.621 125.379 291.071C125.379 290.52 124.932 290.073 124.381 290.073C123.83 290.073 123.384 290.52 123.384 291.071C123.384 291.621 123.83 292.068 124.381 292.068Z" fill="#3A3A3A"/>
<path d="M136.949 292.068C137.499 292.068 137.946 291.621 137.946 291.071C137.946 290.52 137.499 290.073 136.949 290.073C136.398 290.073 135.951 290.52 135.951 291.071C135.951 291.621 136.398 292.068 136.949 292.068Z" fill="#3A3A3A"/>
<path d="M143.233 292.068C143.784 292.068 144.23 291.621 144.23 291.071C144.23 290.52 143.784 290.073 143.233 290.073C142.682 290.073 142.235 290.52 142.235 291.071C142.235 291.621 142.682 292.068 143.233 292.068Z" fill="#3A3A3A"/>
<path d="M149.515 292.068C150.066 292.068 150.512 291.621 150.512 291.071C150.512 290.52 150.066 290.073 149.515 290.073C148.964 290.073 148.518 290.52 148.518 291.071C148.518 291.621 148.964 292.068 149.515 292.068Z" fill="#3A3A3A"/>
<path d="M155.8 292.068C156.351 292.068 156.798 291.621 156.798 291.071C156.798 290.52 156.351 290.073 155.8 290.073C155.249 290.073 154.803 290.52 154.803 291.071C154.803 291.621 155.249 292.068 155.8 292.068Z" fill="#3A3A3A"/>
<path d="M162.084 292.068C162.635 292.068 163.082 291.621 163.082 291.071C163.082 290.52 162.635 290.073 162.084 290.073C161.533 290.073 161.087 290.52 161.087 291.071C161.087 291.621 161.533 292.068 162.084 292.068Z" fill="#3A3A3A"/>
<path d="M168.367 292.068C168.917 292.068 169.364 291.621 169.364 291.071C169.364 290.52 168.917 290.073 168.367 290.073C167.816 290.073 167.369 290.52 167.369 291.071C167.369 291.621 167.816 292.068 168.367 292.068Z" fill="#3A3A3A"/>
<path d="M221.693 275.7C222.244 275.7 222.69 275.253 222.69 274.702C222.69 274.152 222.244 273.705 221.693 273.705C221.142 273.705 220.695 274.152 220.695 274.702C220.695 275.253 221.142 275.7 221.693 275.7Z" fill="#3A3A3A"/>
<path d="M227.976 275.7C228.527 275.7 228.973 275.253 228.973 274.702C228.973 274.152 228.527 273.705 227.976 273.705C227.425 273.705 226.979 274.152 226.979 274.702C226.979 275.253 227.425 275.7 227.976 275.7Z" fill="#3A3A3A"/>
<path d="M234.26 275.7C234.811 275.7 235.257 275.253 235.257 274.702C235.257 274.152 234.811 273.705 234.26 273.705C233.709 273.705 233.263 274.152 233.263 274.702C233.263 275.253 233.709 275.7 234.26 275.7Z" fill="#3A3A3A"/>
<path d="M240.544 275.7C241.095 275.7 241.542 275.253 241.542 274.702C241.542 274.152 241.095 273.705 240.544 273.705C239.993 273.705 239.547 274.152 239.547 274.702C239.547 275.253 239.993 275.7 240.544 275.7Z" fill="#3A3A3A"/>
<path d="M246.826 275.7C247.377 275.7 247.824 275.253 247.824 274.702C247.824 274.152 247.377 273.705 246.826 273.705C246.276 273.705 245.829 274.152 245.829 274.702C245.829 275.253 246.276 275.7 246.826 275.7Z" fill="#3A3A3A"/>
<path d="M253.111 275.7C253.662 275.7 254.108 275.253 254.108 274.702C254.108 274.152 253.662 273.705 253.111 273.705C252.56 273.705 252.113 274.152 252.113 274.702C252.113 275.253 252.56 275.7 253.111 275.7Z" fill="#3A3A3A"/>
<path d="M259.397 275.7C259.948 275.7 260.394 275.253 260.394 274.702C260.394 274.152 259.948 273.705 259.397 273.705C258.846 273.705 258.399 274.152 258.399 274.702C258.399 275.253 258.846 275.7 259.397 275.7Z" fill="#3A3A3A"/>
<path d="M262.538 278.973C263.089 278.973 263.536 278.527 263.536 277.976C263.536 277.425 263.089 276.979 262.538 276.979C261.988 276.979 261.541 277.425 261.541 277.976C261.541 278.527 261.988 278.973 262.538 278.973Z" fill="#3A3A3A"/>
<path d="M218.551 278.973C219.102 278.973 219.548 278.527 219.548 277.976C219.548 277.425 219.102 276.979 218.551 276.979C218 276.979 217.554 277.425 217.554 277.976C217.554 278.527 218 278.973 218.551 278.973Z" fill="#3A3A3A"/>
<path d="M224.836 278.973C225.387 278.973 225.834 278.527 225.834 277.976C225.834 277.425 225.387 276.979 224.836 276.979C224.285 276.979 223.839 277.425 223.839 277.976C223.839 278.527 224.285 278.973 224.836 278.973Z" fill="#3A3A3A"/>
<path d="M231.118 278.973C231.669 278.973 232.116 278.527 232.116 277.976C232.116 277.425 231.669 276.979 231.118 276.979C230.568 276.979 230.121 277.425 230.121 277.976C230.121 278.527 230.568 278.973 231.118 278.973Z" fill="#3A3A3A"/>
<path d="M237.403 278.973C237.953 278.973 238.4 278.527 238.4 277.976C238.4 277.425 237.953 276.979 237.403 276.979C236.852 276.979 236.405 277.425 236.405 277.976C236.405 278.527 236.852 278.973 237.403 278.973Z" fill="#3A3A3A"/>
<path d="M243.686 278.973C244.237 278.973 244.683 278.527 244.683 277.976C244.683 277.425 244.237 276.979 243.686 276.979C243.135 276.979 242.688 277.425 242.688 277.976C242.688 278.527 243.135 278.973 243.686 278.973Z" fill="#3A3A3A"/>
<path d="M249.97 278.973C250.521 278.973 250.967 278.527 250.967 277.976C250.967 277.425 250.521 276.979 249.97 276.979C249.419 276.979 248.973 277.425 248.973 277.976C248.973 278.527 249.419 278.973 249.97 278.973Z" fill="#3A3A3A"/>
<path d="M256.254 278.973C256.805 278.973 257.252 278.527 257.252 277.976C257.252 277.425 256.805 276.979 256.254 276.979C255.703 276.979 255.257 277.425 255.257 277.976C255.257 278.527 255.703 278.973 256.254 278.973Z" fill="#3A3A3A"/>
<path d="M265.68 282.249C266.231 282.249 266.677 281.802 266.677 281.251C266.677 280.7 266.231 280.254 265.68 280.254C265.129 280.254 264.683 280.7 264.683 281.251C264.683 281.802 265.129 282.249 265.68 282.249Z" fill="#3A3A3A"/>
<path d="M221.693 282.249C222.244 282.249 222.69 281.802 222.69 281.251C222.69 280.7 222.244 280.254 221.693 280.254C221.142 280.254 220.695 280.7 220.695 281.251C220.695 281.802 221.142 282.249 221.693 282.249Z" fill="#3A3A3A"/>
<path d="M227.976 282.249C228.527 282.249 228.973 281.802 228.973 281.251C228.973 280.7 228.527 280.254 227.976 280.254C227.425 280.254 226.979 280.7 226.979 281.251C226.979 281.802 227.425 282.249 227.976 282.249Z" fill="#3A3A3A"/>
<path d="M234.26 282.249C234.811 282.249 235.257 281.802 235.257 281.251C235.257 280.7 234.811 280.254 234.26 280.254C233.709 280.254 233.263 280.7 233.263 281.251C233.263 281.802 233.709 282.249 234.26 282.249Z" fill="#3A3A3A"/>
<path d="M240.544 282.249C241.095 282.249 241.542 281.802 241.542 281.251C241.542 280.7 241.095 280.254 240.544 280.254C239.993 280.254 239.547 280.7 239.547 281.251C239.547 281.802 239.993 282.249 240.544 282.249Z" fill="#3A3A3A"/>
<path d="M246.826 282.249C247.377 282.249 247.824 281.802 247.824 281.251C247.824 280.7 247.377 280.254 246.826 280.254C246.276 280.254 245.829 280.7 245.829 281.251C245.829 281.802 246.276 282.249 246.826 282.249Z" fill="#3A3A3A"/>
<path d="M253.111 282.249C253.662 282.249 254.108 281.802 254.108 281.251C254.108 280.7 253.662 280.254 253.111 280.254C252.56 280.254 252.113 280.7 252.113 281.251C252.113 281.802 252.56 282.249 253.111 282.249Z" fill="#3A3A3A"/>
<path d="M259.397 282.249C259.948 282.249 260.394 281.802 260.394 281.251C260.394 280.7 259.948 280.254 259.397 280.254C258.846 280.254 258.399 280.7 258.399 281.251C258.399 281.802 258.846 282.249 259.397 282.249Z" fill="#3A3A3A"/>
<path d="M262.538 285.522C263.089 285.522 263.536 285.076 263.536 284.525C263.536 283.974 263.089 283.527 262.538 283.527C261.988 283.527 261.541 283.974 261.541 284.525C261.541 285.076 261.988 285.522 262.538 285.522Z" fill="#3A3A3A"/>
<path d="M268.822 285.522C269.372 285.522 269.819 285.076 269.819 284.525C269.819 283.974 269.372 283.527 268.822 283.527C268.271 283.527 267.824 283.974 267.824 284.525C267.824 285.076 268.271 285.522 268.822 285.522Z" fill="#3A3A3A"/>
<path d="M218.551 285.522C219.102 285.522 219.548 285.076 219.548 284.525C219.548 283.974 219.102 283.527 218.551 283.527C218 283.527 217.554 283.974 217.554 284.525C217.554 285.076 218 285.522 218.551 285.522Z" fill="#3A3A3A"/>
<path d="M224.836 285.522C225.387 285.522 225.834 285.076 225.834 284.525C225.834 283.974 225.387 283.527 224.836 283.527C224.285 283.527 223.839 283.974 223.839 284.525C223.839 285.076 224.285 285.522 224.836 285.522Z" fill="#3A3A3A"/>
<path d="M231.118 285.522C231.669 285.522 232.116 285.076 232.116 284.525C232.116 283.974 231.669 283.527 231.118 283.527C230.568 283.527 230.121 283.974 230.121 284.525C230.121 285.076 230.568 285.522 231.118 285.522Z" fill="#3A3A3A"/>
<path d="M237.403 285.522C237.953 285.522 238.4 285.076 238.4 284.525C238.4 283.974 237.953 283.527 237.403 283.527C236.852 283.527 236.405 283.974 236.405 284.525C236.405 285.076 236.852 285.522 237.403 285.522Z" fill="#3A3A3A"/>
<path d="M243.686 285.522C244.237 285.522 244.683 285.076 244.683 284.525C244.683 283.974 244.237 283.527 243.686 283.527C243.135 283.527 242.688 283.974 242.688 284.525C242.688 285.076 243.135 285.522 243.686 285.522Z" fill="#3A3A3A"/>
<path d="M249.97 285.522C250.521 285.522 250.967 285.076 250.967 284.525C250.967 283.974 250.521 283.527 249.97 283.527C249.419 283.527 248.973 283.974 248.973 284.525C248.973 285.076 249.419 285.522 249.97 285.522Z" fill="#3A3A3A"/>
<path d="M256.254 285.522C256.805 285.522 257.252 285.076 257.252 284.525C257.252 283.974 256.805 283.527 256.254 283.527C255.703 283.527 255.257 283.974 255.257 284.525C255.257 285.076 255.703 285.522 256.254 285.522Z" fill="#3A3A3A"/>
<path d="M265.68 288.795C266.231 288.795 266.677 288.348 266.677 287.797C266.677 287.246 266.231 286.8 265.68 286.8C265.129 286.8 264.683 287.246 264.683 287.797C264.683 288.348 265.129 288.795 265.68 288.795Z" fill="#3A3A3A"/>
<path d="M271.964 288.795C272.515 288.795 272.962 288.348 272.962 287.797C272.962 287.246 272.515 286.8 271.964 286.8C271.413 286.8 270.967 287.246 270.967 287.797C270.967 288.348 271.413 288.795 271.964 288.795Z" fill="#3A3A3A"/>
<path d="M221.693 288.795C222.244 288.795 222.69 288.348 222.69 287.797C222.69 287.246 222.244 286.8 221.693 286.8C221.142 286.8 220.695 287.246 220.695 287.797C220.695 288.348 221.142 288.795 221.693 288.795Z" fill="#3A3A3A"/>
<path d="M227.976 288.795C228.527 288.795 228.973 288.348 228.973 287.797C228.973 287.246 228.527 286.8 227.976 286.8C227.425 286.8 226.979 287.246 226.979 287.797C226.979 288.348 227.425 288.795 227.976 288.795Z" fill="#3A3A3A"/>
<path d="M234.26 288.795C234.811 288.795 235.257 288.348 235.257 287.797C235.257 287.246 234.811 286.8 234.26 286.8C233.709 286.8 233.263 287.246 233.263 287.797C233.263 288.348 233.709 288.795 234.26 288.795Z" fill="#3A3A3A"/>
<path d="M240.544 288.795C241.095 288.795 241.542 288.348 241.542 287.797C241.542 287.246 241.095 286.8 240.544 286.8C239.993 286.8 239.547 287.246 239.547 287.797C239.547 288.348 239.993 288.795 240.544 288.795Z" fill="#3A3A3A"/>
<path d="M246.826 288.795C247.377 288.795 247.824 288.348 247.824 287.797C247.824 287.246 247.377 286.8 246.826 286.8C246.276 286.8 245.829 287.246 245.829 287.797C245.829 288.348 246.276 288.795 246.826 288.795Z" fill="#3A3A3A"/>
<path d="M253.111 288.795C253.662 288.795 254.108 288.348 254.108 287.797C254.108 287.246 253.662 286.8 253.111 286.8C252.56 286.8 252.113 287.246 252.113 287.797C252.113 288.348 252.56 288.795 253.111 288.795Z" fill="#3A3A3A"/>
<path d="M259.397 288.795C259.948 288.795 260.394 288.348 260.394 287.797C260.394 287.246 259.948 286.8 259.397 286.8C258.846 286.8 258.399 287.246 258.399 287.797C258.399 288.348 258.846 288.795 259.397 288.795Z" fill="#3A3A3A"/>
<path d="M262.538 292.068C263.089 292.068 263.536 291.621 263.536 291.071C263.536 290.52 263.089 290.073 262.538 290.073C261.988 290.073 261.541 290.52 261.541 291.071C261.541 291.621 261.988 292.068 262.538 292.068Z" fill="#3A3A3A"/>
<path d="M268.822 292.068C269.372 292.068 269.819 291.621 269.819 291.071C269.819 290.52 269.372 290.073 268.822 290.073C268.271 290.073 267.824 290.52 267.824 291.071C267.824 291.621 268.271 292.068 268.822 292.068Z" fill="#3A3A3A"/>
<path d="M275.106 292.068C275.657 292.068 276.103 291.621 276.103 291.071C276.103 290.52 275.657 290.073 275.106 290.073C274.555 290.073 274.108 290.52 274.108 291.071C274.108 291.621 274.555 292.068 275.106 292.068Z" fill="#3A3A3A"/>
<path d="M218.551 292.068C219.102 292.068 219.548 291.621 219.548 291.071C219.548 290.52 219.102 290.073 218.551 290.073C218 290.073 217.554 290.52 217.554 291.071C217.554 291.621 218 292.068 218.551 292.068Z" fill="#3A3A3A"/>
<path d="M224.836 292.068C225.387 292.068 225.834 291.621 225.834 291.071C225.834 290.52 225.387 290.073 224.836 290.073C224.285 290.073 223.839 290.52 223.839 291.071C223.839 291.621 224.285 292.068 224.836 292.068Z" fill="#3A3A3A"/>
<path d="M231.118 292.068C231.669 292.068 232.116 291.621 232.116 291.071C232.116 290.52 231.669 290.073 231.118 290.073C230.568 290.073 230.121 290.52 230.121 291.071C230.121 291.621 230.568 292.068 231.118 292.068Z" fill="#3A3A3A"/>
<path d="M237.403 292.068C237.953 292.068 238.4 291.621 238.4 291.071C238.4 290.52 237.953 290.073 237.403 290.073C236.852 290.073 236.405 290.52 236.405 291.071C236.405 291.621 236.852 292.068 237.403 292.068Z" fill="#3A3A3A"/>
<path d="M243.686 292.068C244.237 292.068 244.683 291.621 244.683 291.071C244.683 290.52 244.237 290.073 243.686 290.073C243.135 290.073 242.688 290.52 242.688 291.071C242.688 291.621 243.135 292.068 243.686 292.068Z" fill="#3A3A3A"/>
<path d="M249.97 292.068C250.521 292.068 250.967 291.621 250.967 291.071C250.967 290.52 250.521 290.073 249.97 290.073C249.419 290.073 248.973 290.52 248.973 291.071C248.973 291.621 249.419 292.068 249.97 292.068Z" fill="#3A3A3A"/>
<path d="M256.254 292.068C256.805 292.068 257.252 291.621 257.252 291.071C257.252 290.52 256.805 290.073 256.254 290.073C255.703 290.073 255.257 290.52 255.257 291.071C255.257 291.621 255.703 292.068 256.254 292.068Z" fill="#3A3A3A"/>
<path d="M265.744 275.7C266.295 275.7 266.742 275.253 266.742 274.702C266.742 274.152 266.295 273.705 265.744 273.705C265.194 273.705 264.747 274.152 264.747 274.702C264.747 275.253 265.194 275.7 265.744 275.7Z" fill="#3A3A3A"/>
<path d="M272.028 275.7C272.579 275.7 273.025 275.253 273.025 274.702C273.025 274.152 272.579 273.705 272.028 273.705C271.477 273.705 271.03 274.152 271.03 274.702C271.03 275.253 271.477 275.7 272.028 275.7Z" fill="#3A3A3A"/>
<path d="M275.169 278.973C275.72 278.973 276.167 278.527 276.167 277.976C276.167 277.425 275.72 276.979 275.169 276.979C274.618 276.979 274.172 277.425 274.172 277.976C274.172 278.527 274.618 278.973 275.169 278.973Z" fill="#3A3A3A"/>
<path d="M268.885 278.973C269.436 278.973 269.882 278.527 269.882 277.976C269.882 277.425 269.436 276.979 268.885 276.979C268.334 276.979 267.888 277.425 267.888 277.976C267.888 278.527 268.334 278.973 268.885 278.973Z" fill="#3A3A3A"/>
<path d="M278.31 282.249C278.861 282.249 279.307 281.802 279.307 281.251C279.307 280.7 278.861 280.254 278.31 280.254C277.759 280.254 277.312 280.7 277.312 281.251C277.312 281.802 277.759 282.249 278.31 282.249Z" fill="#3A3A3A"/>
<path d="M272.028 282.249C272.579 282.249 273.025 281.802 273.025 281.251C273.025 280.7 272.579 280.254 272.028 280.254C271.477 280.254 271.03 280.7 271.03 281.251C271.03 281.802 271.477 282.249 272.028 282.249Z" fill="#3A3A3A"/>
<path d="M275.169 285.522C275.72 285.522 276.167 285.076 276.167 284.525C276.167 283.974 275.72 283.527 275.169 283.527C274.618 283.527 274.172 283.974 274.172 284.525C274.172 285.076 274.618 285.522 275.169 285.522Z" fill="#3A3A3A"/>
<path d="M281.452 285.522C282.002 285.522 282.449 285.076 282.449 284.525C282.449 283.974 282.002 283.527 281.452 283.527C280.901 283.527 280.454 283.974 280.454 284.525C280.454 285.076 280.901 285.522 281.452 285.522Z" fill="#3A3A3A"/>
<path d="M278.31 288.795C278.861 288.795 279.307 288.348 279.307 287.797C279.307 287.246 278.861 286.8 278.31 286.8C277.759 286.8 277.312 287.246 277.312 287.797C277.312 288.348 277.759 288.795 278.31 288.795Z" fill="#3A3A3A"/>
<path d="M284.596 288.795C285.147 288.795 285.593 288.348 285.593 287.797C285.593 287.246 285.147 286.8 284.596 286.8C284.045 286.8 283.599 287.246 283.599 287.797C283.599 288.348 284.045 288.795 284.596 288.795Z" fill="#3A3A3A"/>
<path d="M281.452 292.068C282.002 292.068 282.449 291.621 282.449 291.071C282.449 290.52 282.002 290.073 281.452 290.073C280.901 290.073 280.454 290.52 280.454 291.071C280.454 291.621 280.901 292.068 281.452 292.068Z" fill="#3A3A3A"/>
<path d="M287.738 292.068C288.288 292.068 288.735 291.621 288.735 291.071C288.735 290.52 288.288 290.073 287.738 290.073C287.187 290.073 286.74 290.52 286.74 291.071C286.74 291.621 287.187 292.068 287.738 292.068Z" fill="#3A3A3A"/>
<path d="M53.8086 271.727L53.8104 82.1352L161.638 25.8671L269.591 82.1353V271.727H53.8086Z" stroke="#3A3A3A" stroke-width="0.915943"/>
<path d="M201.75 83.9883L262.27 272.509H89.415L161.401 83.9883H201.75Z" fill="white"/>
<path d="M181.43 83.9883V272.509" stroke="#DB3319" stroke-width="0.915033" stroke-miterlimit="10"/>
<path d="M201.749 83.9882H161.399L167.559 65.4551H195.589L201.749 83.9882Z" fill="#F2AF2A"/>
<path d="M168.2 63.1973H194.947" stroke="white" stroke-width="0.915033" stroke-miterlimit="10" stroke-linecap="round"/>
<path d="M193.447 83.9902V106.963" stroke="#DB3319" stroke-width="0.915033" stroke-miterlimit="10"/>
<path d="M193.423 109.919C194.274 109.919 194.964 109.229 194.964 108.378C194.964 107.527 194.274 106.837 193.423 106.837C192.572 106.837 191.882 107.527 191.882 108.378C191.882 109.229 192.572 109.919 193.423 109.919Z" stroke="#F2AF2A" stroke-width="0.915033" stroke-miterlimit="10" stroke-linecap="round"/>
<path d="M154.857 223.545C154.009 225.113 152.753 226.423 151.222 227.336C149.691 228.249 147.941 228.73 146.158 228.729H85.583V220.99H96.4994L111.689 186.438C112.485 184.626 113.792 183.085 115.449 182.002C117.106 180.919 119.043 180.341 121.022 180.339H159.602C167.127 180.339 172.063 188.208 168.792 194.979L154.857 223.545Z" fill="#DB3319"/>
<path d="M141.529 228.729L158.069 272.186" stroke="#DB3319" stroke-width="0.915033" stroke-linecap="round" stroke-linejoin="round"/>
<path d="M104.763 228.729L88.2227 272.186" stroke="#DB3319" stroke-width="0.915033" stroke-linecap="round" stroke-linejoin="round"/>
<path d="M98.2588 171.142V163.742C98.2588 160.853 98.8277 157.993 99.9331 155.324C101.038 152.656 102.659 150.231 104.701 148.188C106.744 146.146 109.168 144.526 111.837 143.42C114.506 142.315 117.366 141.746 120.254 141.746H154.583C160.181 141.745 165.643 143.467 170.229 146.679C174.814 149.89 178.3 154.434 180.213 159.695L188.3 181.925C190.975 189.282 188.818 196.855 183.891 201.798C179.208 206.498 172.232 208.081 165.907 206.073L155.357 201.267L151.656 206.701L98.2588 171.142Z" fill="#E47964"/>
<path d="M167.59 145.052H108.662C109.131 144.759 109.609 144.485 110.099 144.23H165.949C166.456 144.463 166.957 144.712 167.447 144.977C167.497 145.001 167.544 145.027 167.59 145.052Z" fill="#EEBDAF"/>
<path d="M173.486 149.366H103.618C103.86 149.088 104.109 148.817 104.365 148.546H172.599C172.899 148.817 173.194 149.084 173.486 149.366Z" fill="#EEBDAF"/>
<path d="M177.127 153.676H100.688L100.809 153.444C100.915 153.246 101.022 153.05 101.133 152.854H176.532C176.651 153.012 176.766 153.175 176.88 153.338C176.973 153.449 177.05 153.559 177.127 153.676Z" fill="#EEBDAF"/>
<path d="M179.521 157.989H99.0205C99.0937 157.712 99.1742 157.44 99.2603 157.167H179.143C179.274 157.438 179.401 157.712 179.521 157.989Z" fill="#EEBDAF"/>
<path d="M181.159 162.298H98.3096C98.3242 162.024 98.3499 161.749 98.3755 161.479H180.862L181.159 162.298Z" fill="#EEBDAF"/>
<path d="M182.727 166.613H98.2588V165.791H182.429L182.727 166.613Z" fill="#EEBDAF"/>
<path d="M184.296 170.926H98.2588V170.104H183.997L184.296 170.926Z" fill="#EEBDAF"/>
<path d="M185.865 175.237H104.401L103.382 174.558L103.168 174.415H185.569L185.865 175.237Z" fill="#EEBDAF"/>
<path d="M187.434 179.547H110.875L109.642 178.728H187.136L187.434 179.547Z" fill="#EEBDAF"/>
<path d="M188.899 183.862H117.353L116.319 183.174L116.119 183.04H188.667C188.749 183.313 188.824 183.587 188.899 183.862Z" fill="#EEBDAF"/>
<path d="M189.458 188.172H123.828L122.597 187.351H189.427C189.449 187.627 189.449 187.9 189.458 188.172Z" fill="#EEBDAF"/>
<path d="M189.175 191.665C189.128 191.94 189.073 192.214 189.011 192.485H130.304L129.255 191.788L129.072 191.665H189.175Z" fill="#EEBDAF"/>
<path d="M187.865 195.978C187.743 196.254 187.615 196.528 187.481 196.799H136.788L135.555 195.978H187.865Z" fill="#EEBDAF"/>
<path d="M185.247 200.288C185.068 200.51 184.885 200.728 184.698 200.941L184.55 201.11H143.255L142.396 200.537L142.03 200.288H185.247Z" fill="#EEBDAF"/>
<path d="M133.773 141.749V194.795L132.951 194.246V141.749H133.773Z" fill="#EEBDAF"/>
<path d="M138.084 141.749V197.665L137.263 197.12V141.749H138.084Z" fill="#EEBDAF"/>
<path d="M142.396 141.749V200.536L142.023 200.287L141.574 199.989V141.749H142.396Z" fill="#EEBDAF"/>
<path d="M146.709 141.749V203.409L145.888 202.86V141.749H146.709Z" fill="#EEBDAF"/>
<path d="M151.019 141.749V206.279L150.199 205.734V141.749H151.019Z" fill="#EEBDAF"/>
<path d="M155.334 141.761V201.306L154.513 202.512V141.754H154.584H154.979H155.287L155.334 141.761Z" fill="#EEBDAF"/>
<path d="M159.644 142.228V204.085L158.822 203.823V142.082C159.099 142.124 159.371 142.172 159.644 142.228Z" fill="#EEBDAF"/>
<path d="M163.956 143.412V205.452L163.136 205.192V143.127C163.41 143.215 163.685 143.312 163.956 143.412Z" fill="#EEBDAF"/>
<path d="M168.271 145.433V206.654C167.995 206.606 167.722 206.55 167.449 206.489V144.972C167.499 144.995 167.546 145.021 167.592 145.047C167.821 145.175 168.046 145.301 168.271 145.433Z" fill="#EEBDAF"/>
<path d="M172.581 148.532V206.891C172.309 206.91 172.032 206.921 171.76 206.926V147.839C172.038 148.065 172.312 148.296 172.581 148.532Z" fill="#EEBDAF"/>
<path d="M176.893 153.338V206.069C176.763 206.113 176.633 206.153 176.501 206.192L176.185 206.281L176.071 206.313V152.23C176.234 152.435 176.392 152.644 176.545 152.855C176.664 153.012 176.78 153.175 176.893 153.338Z" fill="#EEBDAF"/>
<path d="M181.212 162.43V203.998C181.082 204.086 180.95 204.181 180.818 204.255C180.687 204.328 180.571 204.407 180.452 204.48L180.397 204.514V160.174L180.871 161.479L181.172 162.3L181.212 162.43Z" fill="#EEBDAF"/>
<path d="M185.517 174.283V199.944C185.429 200.059 185.334 200.176 185.246 200.288C185.067 200.51 184.884 200.728 184.697 200.941V172.026L185.517 174.283Z" fill="#EEBDAF"/>
<path d="M103.38 149.638V174.558L103.166 174.415L102.559 174.011V150.679C102.822 150.324 103.095 149.976 103.38 149.638Z" fill="#EEBDAF"/>
<path d="M107.693 145.689V177.43L106.871 176.881V146.29C107.14 146.081 107.415 145.887 107.693 145.689Z" fill="#EEBDAF"/>
<path d="M112.006 143.35V180.293L111.185 179.744V143.692C111.455 143.58 111.728 143.461 112.006 143.35Z" fill="#EEBDAF"/>
<path d="M116.318 142.102V183.174L116.118 183.04L115.496 182.625V142.268C115.767 142.206 116.043 142.151 116.318 142.102Z" fill="#EEBDAF"/>
<path d="M120.638 141.749V186.037L119.816 185.488V141.749H120.263H120.638Z" fill="#EEBDAF"/>
<path d="M124.943 141.749V188.913L124.121 188.368V141.749H124.943Z" fill="#EEBDAF"/>
<path d="M129.253 141.749V191.787L129.069 191.664L128.432 191.238V141.749H129.253Z" fill="#EEBDAF"/>
<path d="M163.452 179.767L156.827 166.201" stroke="#59221D" stroke-width="0.732027" stroke-linecap="round" stroke-linejoin="round"/>
<path d="M183.462 202.945C177.932 209.546 165.623 206.911 162.166 205.507C152.509 201.572 139.903 190.887 137.152 189.219C136.722 188.883 136.197 188.692 135.652 188.673C135.107 188.653 134.569 188.807 134.116 189.111L127.385 194.492C125.643 195.72 123.895 195.784 122.285 194.387L113.594 187.042L111.753 188.019C110.809 188.537 109.699 188.662 108.664 188.367C108.359 188.266 108.089 188.08 107.885 187.832C107.682 187.583 107.553 187.282 107.515 186.963C107.477 186.644 107.53 186.321 107.668 186.031C107.807 185.741 108.025 185.497 108.298 185.327L122.462 176.405C126.138 173.999 130.435 172.717 134.828 172.716H135.743C138.221 172.716 140.694 172.956 143.126 173.431L172.206 180.349C181.449 181.87 192.913 191.666 183.462 202.945Z" fill="#A74602"/>
<path d="M113.706 187.074L120.646 182.857" stroke="#59221D" stroke-width="0.732027" stroke-linecap="round" stroke-linejoin="round"/>
<path d="M117.21 189.727L123.809 185.772" stroke="#59221D" stroke-width="0.732027" stroke-linecap="round" stroke-linejoin="round"/>
<path d="M120.586 192.677L127.187 188.721" stroke="#59221D" stroke-width="0.732027" stroke-linecap="round" stroke-linejoin="round"/>
<path d="M151.654 206.702L148.186 210.646C143.464 216.018 137.021 219.579 129.96 220.718C122.9 221.858 115.663 220.505 109.491 216.892L76.6009 197.64C76.0009 197.289 75.297 197.159 74.6115 197.273C73.9259 197.387 73.3018 197.738 72.8475 198.264L38.0049 238.628L26.8945 229.819C25.8532 228.988 25.0829 227.866 24.682 226.595L23.4247 222.602C22.7609 220.495 21.4871 218.633 19.7646 217.251L16.4375 214.591L59.0268 168.373C62.7193 164.329 67.7375 161.74 73.1732 161.076C78.609 160.411 84.103 161.714 88.6611 164.75L151.654 206.702Z" fill="white" stroke="#59221D" stroke-width="0.915033" stroke-linejoin="round"/>
<path d="M117.945 221.075L88.7917 221.009C88.369 221.008 87.9501 221.09 87.5591 221.251C87.1682 221.412 86.8128 221.649 86.5135 221.947C86.2141 222.246 85.9766 222.6 85.8145 222.991C85.6524 223.381 85.569 223.8 85.569 224.223V264.367H71.4427C70.1097 264.367 68.807 263.97 67.7002 263.227L64.2231 260.895C62.3878 259.664 60.2277 259.006 58.0174 259.005H53.7588C53.8009 258.546 53.8246 258.09 53.8246 257.612V210.781C53.8246 199.041 66.5674 191.732 76.7005 197.659L117.945 221.075Z" fill="white" stroke="#59221D" stroke-width="0.915033" stroke-linejoin="round"/>
<path d="M85.5795 264.37V266.83C85.579 268.303 84.9935 269.716 83.9516 270.758C82.9098 271.8 81.4968 272.385 80.0234 272.386H44.7031L48.6725 268.934C51.5842 266.404 53.4083 262.849 53.7656 259.008H58.0242C60.2345 259.008 62.3947 259.666 64.2299 260.898L67.7071 263.23C68.8138 263.973 70.1166 264.37 71.4495 264.37H85.5795Z" fill="#3A3A3A"/>
<path d="M85.5795 264.37V266.83C85.579 268.303 84.9935 269.716 83.9516 270.758C82.9098 271.8 81.4968 272.385 80.0234 272.386H44.7031L48.6725 268.934C51.5842 266.404 53.4083 262.849 53.7656 259.008H58.0242C60.2345 259.008 62.3947 259.666 64.2299 260.898L67.7071 263.23C68.8138 263.973 70.1166 264.37 71.4495 264.37H85.5795Z" stroke="#59221D" stroke-width="0.915033" stroke-linecap="round" stroke-linejoin="round"/>
<path d="M85.5787 264.37V265.699C85.5787 265.699 83.6389 270.034 81.2415 270.034H47.4072L48.67 268.936C51.5816 266.406 53.4058 262.851 53.763 259.01H58.0216C60.2319 259.01 62.3921 259.668 64.2274 260.9L67.7045 263.232C68.8112 263.975 70.114 264.372 71.447 264.372L85.5787 264.37Z" stroke="#59221D" stroke-width="0.915033" stroke-linecap="round" stroke-linejoin="round"/>
<path d="M85.5795 265.699V266.83C85.579 268.304 84.9935 269.717 83.9516 270.758C82.9098 271.8 81.4968 272.386 80.0234 272.386H44.7031L47.4098 270.035H81.2441C83.6396 270.035 85.5795 265.699 85.5795 265.699Z" fill="white" stroke="#59221D" stroke-width="0.915033" stroke-linejoin="round"/>
<path d="M37.9344 238.645L36.399 240.567C35.478 241.717 34.1383 242.455 32.6738 242.618C31.2094 242.781 29.74 242.357 28.5883 241.438L1 219.384L6.25595 219.164C10.1101 219.006 13.7547 217.367 16.4311 214.589L19.7582 217.248C21.4807 218.63 22.7545 220.493 23.4183 222.599L24.6774 226.592C25.077 227.863 25.8468 228.986 26.8881 229.817L37.9344 238.645Z" fill="#3A3A3A"/>
<path d="M37.9344 238.645L36.399 240.567C35.478 241.717 34.1383 242.455 32.6738 242.618C31.2094 242.781 29.74 242.357 28.5883 241.438L1 219.384L6.25595 219.164C10.1101 219.006 13.7547 217.367 16.4311 214.589L19.7582 217.248C21.4807 218.63 22.7545 220.493 23.4183 222.599L24.6774 226.592C25.077 227.863 25.8468 228.986 26.8881 229.817L37.9344 238.645Z" stroke="#59221D" stroke-width="0.915033" stroke-linecap="round" stroke-linejoin="round"/>
<path d="M37.9351 238.645L37.1061 239.683C37.1061 239.683 32.8841 241.857 31.012 240.36L4.58398 219.235L6.25665 219.164C10.1108 219.006 13.7554 217.367 16.4318 214.589L19.7589 217.248C21.4814 218.63 22.7552 220.493 23.419 222.599L24.6781 226.592C25.0777 227.863 25.8475 228.986 26.8888 229.817L37.9351 238.645Z" stroke="#59221D" stroke-width="0.915033" stroke-linecap="round" stroke-linejoin="round"/>
<path d="M37.1054 239.683L36.399 240.567C35.478 241.717 34.1383 242.455 32.6738 242.618C31.2094 242.781 29.74 242.357 28.5883 241.438L1 219.384L4.58329 219.235L31.0113 240.36C32.8834 241.857 37.1054 239.683 37.1054 239.683Z" fill="white" stroke="#59221D" stroke-width="0.915033" stroke-linejoin="round"/>
<path d="M133.136 150.358L147.884 141.754L142.859 132.031L133.136 135.075V150.358Z" fill="#A74602"/>
<path d="M133.136 135.167V150.357L147.884 141.753" stroke="#59221D" stroke-width="0.732027" stroke-linecap="round" stroke-linejoin="round"/>
<path d="M133.136 141.881L140.114 137.567C140.953 137.048 141.645 136.323 142.126 135.461C142.606 134.599 142.858 133.629 142.859 132.642V132.031L133.136 135.075V141.881Z" fill="#59221D"/>
<path d="M145.771 129.628V130.221C145.771 130.866 145.515 131.484 145.059 131.94C144.603 132.396 143.985 132.653 143.34 132.653H141.669L141.338 133.297C140.917 134.121 140.289 134.821 139.516 135.328C138.743 135.835 137.851 136.133 136.928 136.191L133.707 136.374C133.388 136.393 133.068 136.348 132.767 136.239C132.466 136.13 132.19 135.961 131.957 135.742C131.724 135.523 131.539 135.258 131.412 134.965C131.285 134.671 131.22 134.355 131.22 134.035V126.834C131.22 125.773 131.641 124.755 132.391 124.005C133.142 123.254 134.159 122.833 135.22 122.833H136.441C137.345 122.833 138.222 123.139 138.93 123.702C139.638 124.265 140.134 125.05 140.337 125.931L140.837 128.089C141.016 127.815 141.26 127.59 141.547 127.433C141.835 127.277 142.157 127.195 142.484 127.194H143.333C143.653 127.193 143.97 127.256 144.266 127.378C144.562 127.5 144.83 127.679 145.057 127.905C145.283 128.131 145.463 128.4 145.585 128.695C145.708 128.991 145.771 129.308 145.771 129.628Z" fill="#A74602"/>
<path d="M131.423 126.995H133.544L133.103 131.356H134.432" stroke="#59221D" stroke-width="0.732027" stroke-linecap="round" stroke-linejoin="round"/>
<path d="M136 126.992L138.621 127.201" stroke="#59221D" stroke-width="0.732027" stroke-linecap="round" stroke-linejoin="round"/>
<path d="M143.44 128.805C143.039 128.805 142.654 128.964 142.37 129.248C142.086 129.532 141.927 129.917 141.927 130.318" stroke="#59221D" stroke-width="0.732027" stroke-linecap="round" stroke-linejoin="round"/>
<path d="M136.915 129.925C137.15 129.925 137.341 129.586 137.341 129.168C137.341 128.749 137.15 128.41 136.915 128.41C136.679 128.41 136.488 128.749 136.488 129.168C136.488 129.586 136.679 129.925 136.915 129.925Z" fill="#59221D"/>
<path d="M131.783 129.925C132.018 129.925 132.209 129.586 132.209 129.168C132.209 128.749 132.018 128.41 131.783 128.41C131.547 128.41 131.356 128.749 131.356 129.168C131.356 129.586 131.547 129.925 131.783 129.925Z" fill="#59221D"/>
<path d="M133.56 133.299H134.562C135.015 133.299 135.452 133.134 135.79 132.834" stroke="#59221D" stroke-width="0.732027" stroke-linecap="round" stroke-linejoin="round"/>
<path d="M144.716 125.21C144.717 125.964 144.453 126.695 143.969 127.274C143.764 127.218 143.551 127.19 143.338 127.19H142.487C142.16 127.191 141.838 127.273 141.55 127.429C141.263 127.585 141.019 127.811 140.84 128.085L140.34 125.927C140.209 125.356 139.953 124.821 139.59 124.361C139.242 124.784 138.782 125.101 138.263 125.276C137.931 125.39 137.582 125.448 137.231 125.448C136.575 125.452 135.934 125.248 135.401 124.864C135.087 124.643 134.824 124.358 134.629 124.028C134.434 123.697 134.311 123.329 134.268 122.948C133.523 123.13 132.845 123.523 132.317 124.079C131.788 124.636 131.431 125.332 131.287 126.086C130.858 125.886 130.479 125.594 130.175 125.231C129.872 124.868 129.652 124.443 129.531 123.986C129.41 123.528 129.391 123.05 129.476 122.584C129.56 122.119 129.745 121.677 130.019 121.291C130.293 120.905 130.648 120.584 131.059 120.351C131.471 120.117 131.929 119.977 132.4 119.94C132.872 119.903 133.346 119.969 133.789 120.136C134.232 120.302 134.633 120.563 134.964 120.902C135.253 120.592 135.603 120.345 135.992 120.178C136.382 120.011 136.802 119.926 137.226 119.93C138.713 119.93 139.945 120.944 140.163 122.267C140.579 122.079 141.03 121.982 141.486 121.983C142.342 121.983 143.163 122.323 143.769 122.928C144.374 123.533 144.715 124.354 144.716 125.21Z" fill="#F2AF2A"/>
<path d="M116.999 188.212L127.617 188.202C128.444 188.202 129.114 187.531 129.113 186.704L129.095 166.497C129.095 165.67 128.424 165.001 127.597 165.001L116.979 165.01C116.152 165.011 115.482 165.682 115.483 166.509L115.5 186.716C115.501 187.543 116.172 188.212 116.999 188.212Z" fill="#59221D"/>
<path d="M118.308 168.442C118.744 168.442 119.098 168.088 119.098 167.652C119.098 167.215 118.744 166.861 118.308 166.861C117.871 166.861 117.518 167.215 117.518 167.652C117.518 168.088 117.871 168.442 118.308 168.442Z" fill="#98C8DB"/>
<path d="M136.619 184.527C133.025 192.244 126.541 193.702 121.422 192.657L117.181 191.79C115.937 191.428 114.849 190.66 114.092 189.608C113.335 188.556 112.952 187.281 113.005 185.986L113.53 173.131C113.55 172.615 113.763 172.125 114.125 171.758C114.488 171.39 114.975 171.171 115.491 171.144V172.42C115.492 173.244 115.815 174.035 116.392 174.623C116.969 175.211 117.753 175.55 118.577 175.567L125.888 175.717H125.953C127.691 175.717 129.104 173.841 129.104 172.094L133.396 172.254C134.664 172.301 136.247 173.312 136.399 174.769L136.619 184.527Z" fill="#A74602"/>
<path d="M114.235 175.677C114.126 178.341 117.202 179.383 120.207 179.729" stroke="#59221D" stroke-width="1.01316" stroke-miterlimit="10" stroke-linecap="round"/>
<path d="M114.117 179.793C114.008 182.458 117.084 183.501 120.089 183.846" stroke="#59221D" stroke-width="1.01316" stroke-miterlimit="10" stroke-linecap="round"/>
<path d="M113.793 184.065C113.685 186.73 116.759 187.63 119.766 187.974" stroke="#59221D" stroke-width="1.01316" stroke-miterlimit="10" stroke-linecap="round"/>
<path d="M118.072 168.442C118.509 168.442 118.863 168.088 118.863 167.652C118.863 167.215 118.509 166.861 118.072 166.861C117.636 166.861 117.282 167.215 117.282 167.652C117.282 168.088 117.636 168.442 118.072 168.442Z" fill="#98C8DB"/>
<path d="M222.907 261.484H236.863C237.56 261.484 238.229 261.761 238.721 262.254C239.214 262.747 239.491 263.415 239.491 264.112V272.591H220.275V264.111C220.276 263.765 220.344 263.423 220.476 263.105C220.609 262.786 220.803 262.496 221.047 262.252C221.291 262.008 221.582 261.815 221.901 261.683C222.22 261.551 222.562 261.484 222.907 261.484Z" fill="#E47964"/>
<path d="M257.13 150.781V166.862C257.13 168.398 256.795 169.917 256.149 171.311C255.503 172.705 254.561 173.941 253.389 174.934C252.042 176.076 250.959 177.498 250.217 179.1C249.475 180.702 249.09 182.447 249.09 184.213V191.753C249.09 193.594 248.61 195.404 247.697 197.003C246.783 198.602 245.468 199.935 243.882 200.87C242.484 201.695 241.325 202.87 240.52 204.279C239.715 205.688 239.291 207.283 239.29 208.906V215.048C239.29 216.9 238.79 218.718 237.842 220.31C236.895 221.901 235.535 223.207 233.906 224.09L231.377 225.461V204.325C231.377 192.474 235.14 180.928 242.123 171.353L257.13 150.781Z" fill="#F2AF2A"/>
<path d="M257.128 150.781V166.862C257.128 168.399 256.794 169.917 256.148 171.311C255.502 172.705 254.56 173.941 253.387 174.934C252.041 176.077 250.958 177.498 250.216 179.1C249.474 180.703 249.089 182.447 249.088 184.213V191.753C249.089 193.594 248.608 195.404 247.695 197.003C246.781 198.602 245.466 199.935 243.88 200.87C242.481 201.694 241.322 202.868 240.516 204.278C240.133 204.948 239.835 205.664 239.631 206.408L233.774 188.146C235.594 182.117 238.419 176.44 242.131 171.353L257.128 150.781Z" fill="#DB3319"/>
<path d="M228.175 245.476V237.38C228.175 230.498 226.68 223.698 223.792 217.452C220.905 211.205 216.694 205.661 211.451 201.203L200.927 192.252V202.996C200.928 204.751 201.405 206.473 202.307 207.979C203.209 209.484 204.503 210.717 206.051 211.545C207.235 212.178 208.225 213.12 208.915 214.272C209.605 215.424 209.969 216.741 209.969 218.083V220.239C209.969 222.093 210.473 223.911 211.427 225.5C212.381 227.089 213.75 228.389 215.386 229.26C216.134 229.658 216.76 230.252 217.197 230.979C217.633 231.705 217.864 232.537 217.864 233.385C217.863 235.754 218.575 238.068 219.908 240.027C221.241 241.986 223.133 243.497 225.338 244.365L228.175 245.476Z" fill="#F2AF2A"/>
<path d="M231.377 261.484V223.407C231.373 223.338 231.383 223.269 231.406 223.204C231.43 223.139 231.466 223.08 231.514 223.03C231.561 222.979 231.618 222.939 231.682 222.912C231.745 222.884 231.814 222.87 231.883 222.87C231.952 222.87 232.02 222.884 232.084 222.912C232.147 222.939 232.205 222.979 232.252 223.03C232.299 223.08 232.336 223.139 232.359 223.204C232.383 223.269 232.393 223.338 232.389 223.407V261.484H231.377Z" fill="#F2AF2A"/>
<path d="M227.16 261.485V241.368C227.156 241.299 227.166 241.23 227.189 241.165C227.213 241.1 227.25 241.041 227.297 240.99C227.344 240.94 227.402 240.9 227.465 240.873C227.529 240.845 227.597 240.831 227.666 240.831C227.735 240.831 227.804 240.845 227.867 240.873C227.931 240.9 227.988 240.94 228.035 240.99C228.083 241.041 228.119 241.1 228.143 241.165C228.166 241.23 228.176 241.299 228.172 241.368V261.485H227.16Z" fill="#F2AF2A"/>
<path d="M234.468 261.483V242.011C234.468 241.876 234.521 241.747 234.616 241.652C234.711 241.557 234.84 241.504 234.975 241.504C235.109 241.504 235.238 241.557 235.333 241.652C235.428 241.747 235.482 241.876 235.482 242.011V261.483H234.468Z" fill="#F2AF2A"/>
<path d="M235.562 242.445C236.696 242.445 237.615 241.525 237.615 240.391C237.615 239.257 236.696 238.338 235.562 238.338C234.428 238.338 233.509 239.257 233.509 240.391C233.509 241.525 234.428 242.445 235.562 242.445Z" fill="#DB3319"/>
<path d="M224.138 209.394C225.272 209.394 226.192 208.474 226.192 207.34C226.192 206.206 225.272 205.287 224.138 205.287C223.004 205.287 222.085 206.206 222.085 207.34C222.085 208.474 223.004 209.394 224.138 209.394Z" fill="#DB3319"/>
<path d="M116.046 94.8177C116.046 103.515 108.995 110.565 100.298 110.565C91.601 110.565 84.5505 103.515 84.5505 94.8177C84.5505 86.1205 91.601 79.07 100.298 79.07C108.995 79.07 116.046 86.1205 116.046 94.8177Z" fill="white" stroke="#DB3319" stroke-width="0.183007"/>
<path d="M98.6498 109.422C107.398 109.422 114.489 102.33 114.489 93.5824C114.489 84.8346 107.398 77.7432 98.6498 77.7432C89.902 77.7432 82.8105 84.8346 82.8105 93.5824C82.8105 102.33 89.902 109.422 98.6498 109.422Z" stroke="#DB3319" stroke-width="0.732027" stroke-linecap="round" stroke-linejoin="round"/>
<path d="M99.5135 81.0305C99.5135 81.5075 99.1267 81.8943 98.6497 81.8943C98.1726 81.8943 97.7858 81.5075 97.7858 81.0305C97.7858 80.5534 98.1726 80.1667 98.6497 80.1667C99.1267 80.1667 99.5135 80.5534 99.5135 81.0305Z" fill="#F2AF2A" stroke="#DB3319" stroke-width="0.183007"/>
<path d="M99.5135 106.135C99.5135 106.612 99.1267 106.999 98.6497 106.999C98.1726 106.999 97.7858 106.612 97.7858 106.135C97.7858 105.658 98.1726 105.271 98.6497 105.271C99.1267 105.271 99.5135 105.658 99.5135 106.135Z" fill="#F2AF2A" stroke="#DB3319" stroke-width="0.183007"/>
<path d="M86.9617 93.5832C86.9617 94.0603 86.5749 94.447 86.0979 94.447C85.6208 94.447 85.2341 94.0603 85.2341 93.5832C85.2341 93.1062 85.6208 92.7194 86.0979 92.7194C86.5749 92.7194 86.9617 93.1062 86.9617 93.5832Z" fill="#F2AF2A" stroke="#DB3319" stroke-width="0.183007"/>
<path d="M112.068 93.5832C112.068 94.0603 111.681 94.447 111.204 94.447C110.727 94.447 110.341 94.0603 110.341 93.5832C110.341 93.1062 110.727 92.7194 111.204 92.7194C111.681 92.7194 112.068 93.1062 112.068 93.5832Z" fill="#F2AF2A" stroke="#DB3319" stroke-width="0.183007"/>
<path d="M93.7871 89.4469L98.613 94.0166L104.1 84.9688" stroke="#DB3319" stroke-width="0.732027" stroke-linecap="round" stroke-linejoin="round"/>
</svg>
