<svg width="161" height="192" viewBox="0 0 161 192" fill="none" xmlns="http://www.w3.org/2000/svg">
<circle cx="105" cy="134" r="56" fill="#3A3A3A"/>
<circle cx="52" cy="36" r="36" fill="#3A3A3A"/>
<circle cx="9" cy="147" r="9" fill="#3A3A3A"/>
<circle cx="27.5" cy="186.5" r="3.5" fill="#3A3A3A"/>
<path d="M39.3817 49.1185C40.0946 45.5237 41.4414 44.1248 45.1746 42.4855C46.9013 41.5252 47.7218 41.3402 48.6606 42.2014C50.4211 44.3338 49.9378 45.0954 48.2601 46.213C44.4532 46.4526 42.8404 47.4364 40.2874 49.7293C39.7923 49.7536 39.6121 49.6194 39.3817 49.1185Z" fill="#141D38"/>
<path d="M69.9344 44.3612C69.9344 44.3612 71.5247 44.4455 71.9775 44.7509C72.4304 45.0563 73.5991 46.4218 74.3891 47.0359C75.2611 47.456 75.5118 47.3164 75.9794 47.1202C76.5178 46.2087 76.6656 45.6965 75.9164 44.7722C74.7366 43.5019 73.9344 42.8758 72.2199 41.9501C70.8903 41.538 69.6865 41.6317 68.6602 41.8551C67.6339 42.0786 68.8621 43.8993 69.9344 44.3612Z" fill="#141D38"/>
<path fill-rule="evenodd" clip-rule="evenodd" d="M39.887 53.7409C41.0618 53.1432 47.0277 49.5501 50.1345 49.7825C53.6781 47.3598 54.0646 43.1181 53.9909 42.739C53.9172 42.36 52.8672 39.353 49.4402 38.1161C48.6373 37.9121 48.0601 37.7208 46.7125 38.2528C41.0955 40.4612 38.6552 42.3419 35.8327 47.0546C35.3546 48.489 35.292 49.2825 35.3585 50.6871C36.0149 52.2869 36.4121 53.1283 37.5384 53.8039C37.5384 53.8039 38.7121 54.3386 39.887 53.7409ZM45.1746 42.4855C41.4414 44.1248 40.0946 45.5237 39.3817 49.1185C39.6121 49.6194 39.7923 49.7536 40.2874 49.7293C42.8404 47.4364 44.4532 46.4526 48.2601 46.213C49.9378 45.0954 50.4211 44.3338 48.6606 42.2014C47.7218 41.3402 46.9013 41.5252 45.1746 42.4855Z" fill="white"/>
<path fill-rule="evenodd" clip-rule="evenodd" d="M78.2649 44.7091C77.7009 44.4012 69.6258 37.6449 66.4804 38.7384C65.4221 40.1282 65.2494 41.125 65.8973 43.4027C68.1151 45.6815 69.3079 46.6329 71.2823 47.2463C75.3914 49.6355 76.6881 50.524 77.3273 50.0053C78.7322 48.2371 78.8289 45.017 78.2649 44.7091ZM71.9775 44.7509C71.5247 44.4455 69.9344 44.3612 69.9344 44.3612C68.8621 43.8993 67.6339 42.0786 68.6602 41.8551C69.6865 41.6317 70.8903 41.538 72.2199 41.9501C73.9344 42.8758 74.7366 43.5019 75.9164 44.7722C76.6656 45.6965 76.5178 46.2087 75.9794 47.1202C75.5118 47.3164 75.2611 47.456 74.3891 47.0359C73.5991 46.4218 72.4304 45.0563 71.9775 44.7509Z" fill="white"/>
<path fill-rule="evenodd" clip-rule="evenodd" d="M72.9765 70.1265C70.9984 70.0342 69.7512 70.0889 67.1419 70.4736C60.8722 71.3462 60.372 71.5111 57.8396 70.5818L59.401 73.1581C59.1347 75.2999 58.4247 76.1169 57.1048 77.5381C55.9962 75.7823 55.5013 74.739 55.0093 72.8314L57.8396 70.5818C56.9183 70.2437 55.728 69.7608 53.8931 69.1144C53.3355 68.7769 52.8245 68.4882 52.3091 68.2422C53.4355 69.9382 53.8552 70.9672 53.8718 73.0524C52.875 74.4911 52.3032 75.0508 51.2809 75.9162C50.6728 74.6609 50.3669 73.7973 50.0173 71.4412C50.5214 70.1021 51.0739 69.4136 52.3091 68.2422C50.802 67.5228 49.2582 67.1688 46.4053 67.0292C45.3903 67.1402 45.105 67.5768 44.7306 68.5348L44.6356 72.0937C51.4181 78.8853 56.1172 80.3354 65.4984 80.2341C69.2781 79.6037 71.2704 78.9727 74.2293 76.5705C73.4133 75.4308 72.988 73.5759 73.7241 71.9481C74.001 71.3302 73.947 70.9498 72.9765 70.1265ZM62.8026 74.4639C63.7063 73.1301 64.2862 72.5219 65.3936 71.6001C66.5346 72.4032 66.9947 72.9185 67.426 73.9588C67.3982 75.894 66.9629 76.8755 65.9618 78.5704C64.391 77.1329 63.7179 76.2198 62.8026 74.4639ZM70.7753 70.9476C70.2497 71.9686 69.9561 72.5414 70.1538 73.8221C70.5203 75.5268 70.904 75.8336 71.7334 75.8754L72.3549 73.0009C72.0634 72.0638 71.6449 71.6453 70.7753 70.9476ZM48.3534 70.9778L47.8162 72.2624L46.3733 72.9362L46.1629 69.83L48.1429 67.8717L48.3534 70.9778Z" fill="white"/>
<path fill-rule="evenodd" clip-rule="evenodd" d="M73.365 82.2457C75.61 80.1409 76.0347 78.9085 75.8192 76.6548C74.6218 73.1606 75.7695 72.7474 76.6094 70.6005C76.297 69.8153 76.0392 69.4157 75.1035 68.9263C78.2884 67.0968 79.4598 66.0301 80.0537 64.0305C80.2581 61.2714 80.0226 59.3092 79.0991 57.9219C78.2715 56.7615 76.7896 56.1299 75.1874 55.8688C74.4435 55.7476 73.6737 55.7062 72.9315 55.7288C71.1538 55.783 69.5341 56.2043 68.8068 56.7751C66.0876 59.902 64.9801 61.9674 62.3924 66.2827C59.2882 66.4503 57.7949 66.3206 55.5784 65.64C50.5485 61.7103 47.2482 61.0058 40.6763 61.8485C36.7569 62.972 35.7912 64.9247 36.084 70.6086C43.6873 79.3588 61.6745 86.8779 73.365 82.2457ZM67.1419 70.4736C69.7512 70.0889 70.9984 70.0342 72.9765 70.1265C73.947 70.9498 74.001 71.3302 73.7241 71.9481C72.988 73.5759 73.4133 75.4308 74.2293 76.5705C71.2704 78.9727 69.2781 79.6037 65.4984 80.2341C56.1172 80.3354 51.4181 78.8853 44.6356 72.0937L44.7306 68.5348C45.105 67.5768 45.3903 67.1402 46.4053 67.0292C49.2582 67.1688 50.802 67.5228 52.3091 68.2422C52.8245 68.4882 53.3355 68.7769 53.8931 69.1144C55.728 69.7608 56.9183 70.2437 57.8396 70.5818C60.372 71.5111 60.8722 71.3462 67.1419 70.4736Z" fill="#DB3319"/>
<path d="M57.8396 70.5818L55.0093 72.8314C55.5013 74.739 55.9962 75.7823 57.1048 77.5381C58.4247 76.1169 59.1347 75.2999 59.401 73.1581L57.8396 70.5818Z" fill="#141D38"/>
<path d="M50.0173 71.4412C50.3669 73.7973 50.6728 74.6609 51.2809 75.9162C52.3032 75.0508 52.875 74.4911 53.8718 73.0524C53.8552 70.9672 53.4355 69.9382 52.3091 68.2422C51.0739 69.4136 50.5214 70.1021 50.0173 71.4412Z" fill="#141D38"/>
<path d="M47.8162 72.2624L48.3534 70.9778L48.1429 67.8717L46.1629 69.83L46.3733 72.9362L47.8162 72.2624Z" fill="#141D38"/>
<path d="M65.3936 71.6001C64.2862 72.5219 63.7063 73.1301 62.8026 74.4639C63.7179 76.2198 64.391 77.1329 65.9618 78.5704C66.9629 76.8755 67.3982 75.894 67.426 73.9588C66.9947 72.9185 66.5346 72.4032 65.3936 71.6001Z" fill="#141D38"/>
<path d="M70.1538 73.8221C69.9561 72.5414 70.2497 71.9686 70.7753 70.9476C71.6449 71.6453 72.0634 72.0638 72.3549 73.0009L71.7334 75.8754C70.904 75.8336 70.5203 75.5268 70.1538 73.8221Z" fill="#141D38"/>
<path d="M57.7166 62.4708C58.3288 58.445 59.0231 56.3306 60.7186 53.6264C61.6403 53.3914 61.8213 53.6133 62.0035 54.1634C60.3079 56.8677 59.6136 58.9821 59.0014 63.0078C58.2389 63.2354 57.9609 63.1027 57.7166 62.4708Z" fill="white"/>
<path d="M53.4199 58.5852C54.0321 54.5595 56.243 52.1504 57.9385 49.4461C58.8602 49.2111 59.0412 49.433 59.2234 49.9832C57.5278 52.6874 55.3169 55.0966 54.7047 59.1223C53.9422 59.3498 53.6643 59.2171 53.4199 58.5852Z" fill="white"/>
<path d="M62.91 40.6123C66.8661 48.0822 68.8481 50.4743 72.9315 55.7288C73.6737 55.7062 74.4435 55.7476 75.1874 55.8688C71.3861 51.0692 68.9218 48.1426 65.8973 43.4027C65.3068 42.4772 64.6949 41.4825 64.0475 40.3913C63.424 39.9952 63.1853 40.059 62.91 40.6123Z" fill="white"/>
<path d="M76.5477 54.0906C75.5427 52.3524 74.632 51.4801 71.9562 48.6888C71.0096 48.1731 71.386 49.0232 71.3453 49.5943C72.9897 51.6014 73.5432 52.3892 75.4103 54.3117C76.484 54.4193 76.6455 54.3439 76.5477 54.0906Z" fill="white"/>
<path d="M67.5654 34.2003C70.6586 35.1963 71.8696 36.1817 73.8315 38.0965C73.7574 38.7719 73.5529 38.9978 72.8415 39.0757C70.7936 37.9864 69.4869 37.0908 66.9545 35.1058C66.8955 34.6548 67.0183 34.4527 67.5654 34.2003Z" fill="white"/>
<path d="M35.1801 41.6741C38.0601 38.4535 39.7948 36.7956 43.1741 34.2199C44.1445 34.3025 44.3327 34.5375 44.1534 35.2097C40.7742 37.7854 39.0395 39.4433 36.1594 42.6639C35.5641 42.5622 35.3349 42.3603 35.1801 41.6741Z" fill="white"/>
<path d="M33.2946 40.0736C36.1746 36.853 37.9093 35.1951 41.2886 32.6194C42.259 32.702 42.4473 32.937 42.268 33.6092C38.8887 36.1849 37.154 37.8429 34.274 41.0634C33.6786 40.9617 33.4494 40.7598 33.2946 40.0736Z" fill="white"/>
<path d="M30.641 40.5893L28.6716 40.5786L28.8403 37.3988C27.7652 37.291 26.5282 37.6788 25.9652 36.7774L26.0495 35.1875C27.4405 33.6551 28.2731 32.6847 28.7985 31.1128C31.137 32.8417 32.3225 33.3391 33.0952 34.9984C32.9514 35.8981 32.7381 36.3838 31.9811 37.154L30.736 37.0304L30.641 40.5893Z" fill="white"/>
<path fill-rule="evenodd" clip-rule="evenodd" d="M32.6065 97.2474C49.4803 100.563 58.33 99.963 72.7745 93.3751L73.365 82.2457C61.6745 86.8779 43.6873 79.3588 36.084 70.6086C35.7912 64.9247 36.7569 62.972 40.6763 61.8485C47.2482 61.0058 50.5485 61.7103 55.5784 65.64C57.7949 66.3206 59.2882 66.4503 62.3924 66.2827C64.9801 61.9674 66.0876 59.902 68.8068 56.7751C69.5341 56.2043 71.1538 55.783 72.9315 55.7288C68.8481 50.4743 66.8661 48.0822 62.91 40.6123C63.1853 40.059 63.424 39.9952 64.0475 40.3913C64.6949 41.4825 65.3068 42.4772 65.8973 43.4027C65.2494 41.125 65.4221 40.1282 66.4804 38.7384C69.6258 37.6449 77.7009 44.4012 78.2649 44.7091C78.8289 45.017 78.7322 48.2371 77.3273 50.0053C76.6881 50.524 75.3914 49.6355 71.2823 47.2463C69.3079 46.6329 68.1151 45.6815 65.8973 43.4027C68.9218 48.1426 71.3861 51.0692 75.1874 55.8688C76.7896 56.1299 78.2715 56.7615 79.0991 57.9219C80.8277 52.8604 80.7303 49.9084 79.0228 44.5618C74.8759 39.1023 73.1023 35.9153 70.6932 30.052C67.6706 26.8155 64.5744 26.9138 60.7723 29.6197C53.5975 27.3811 48.9841 27.7711 41.0675 31.4821C35.5377 23.9581 28.6827 24.4479 24.0166 32.8288C22.5523 39.3557 22.5502 43.1573 23.847 50.1705C25.7874 69.1004 27.5452 79.4681 32.6065 97.2474ZM60.7186 53.6264C59.0231 56.3306 58.3288 58.445 57.7166 62.4708C57.9609 63.1027 58.2389 63.2354 59.0014 63.0078C59.6136 58.9821 60.3079 56.8677 62.0035 54.1634C61.8213 53.6133 61.6403 53.3914 60.7186 53.6264ZM57.9385 49.4461C56.243 52.1504 54.0321 54.5595 53.4199 58.5852C53.6643 59.2171 53.9422 59.3498 54.7047 59.1223C55.3169 55.0966 57.5278 52.6874 59.2234 49.9832C59.0412 49.433 58.8602 49.2111 57.9385 49.4461ZM50.1345 49.7825C47.0277 49.5501 41.0618 53.1432 39.887 53.7409C38.7121 54.3386 37.5384 53.8039 37.5384 53.8039C36.4121 53.1283 36.0149 52.2869 35.3585 50.6871C35.292 49.2825 35.3546 48.489 35.8327 47.0546C38.6552 42.3419 41.0955 40.4612 46.7125 38.2528C48.0601 37.7208 48.6373 37.9121 49.4402 38.1161C52.8672 39.353 53.9172 42.36 53.9909 42.739C54.0646 43.1181 53.6781 47.3598 50.1345 49.7825ZM43.1741 34.2199C39.7948 36.7956 38.0601 38.4535 35.1801 41.6741C35.3349 42.3603 35.5641 42.5622 36.1594 42.6639C39.0395 39.4433 40.7742 37.7854 44.1534 35.2097C44.3327 34.5375 44.1445 34.3025 43.1741 34.2199ZM41.2886 32.6194C37.9093 35.1951 36.1746 36.853 33.2946 40.0736C33.4494 40.7598 33.6786 40.9617 34.274 41.0634C37.154 37.8429 38.8887 36.1849 42.268 33.6092C42.4473 32.937 42.259 32.702 41.2886 32.6194ZM71.9562 48.6888C74.632 51.4801 75.5427 52.3524 76.5477 54.0906C76.6455 54.3439 76.484 54.4193 75.4103 54.3117C73.5432 52.3892 72.9897 51.6014 71.3453 49.5943C71.386 49.0232 71.0096 48.1731 71.9562 48.6888ZM73.8315 38.0965C71.8696 36.1817 70.6586 35.1963 67.5654 34.2003C67.0183 34.4527 66.8955 34.6548 66.9545 35.1058C69.4869 37.0908 70.7936 37.9864 72.8415 39.0757C73.5529 38.9978 73.7574 38.7719 73.8315 38.0965ZM28.6716 40.5786L30.641 40.5893L30.736 37.0304L31.9811 37.154C32.7381 36.3838 32.9514 35.8981 33.0952 34.9984C32.3225 33.3391 31.137 32.8417 28.7985 31.1128C28.2731 32.6847 27.4405 33.6551 26.0495 35.1875L25.9652 36.7774C26.5282 37.6788 27.7652 37.291 28.8403 37.3988L28.6716 40.5786Z" fill="#F2AF2A"/>
<path d="M83.7677 115.897L98.5754 171.16L42.9993 186.052C41.9538 186.332 40.8634 186.403 39.7903 186.262C38.7172 186.12 37.6825 185.769 36.7453 185.227C35.8082 184.686 34.9869 183.965 34.3286 183.106C33.6702 182.246 33.1875 181.266 32.9082 180.22L20.2344 132.921L83.7677 115.897Z" fill="black"/>
<path d="M83.1805 113.822L19.207 130.964C19.1611 130.975 19.117 130.993 19.0762 131.017L2 121.849L66.1279 104.666L83.1805 113.822Z" fill="black"/>
<path d="M120.281 90.1558L110.085 106.632C110.038 106.632 109.991 106.638 109.945 106.651L85.5594 113.185L95.749 96.7291L120.281 90.1558Z" fill="black"/>
<path d="M110.023 108.862L122.689 156.133C123.257 158.253 122.959 160.511 121.861 162.412C120.764 164.312 118.957 165.698 116.837 166.266L100.887 170.54L86.0791 115.277L110.023 108.862Z" fill="black"/>
<path d="M85.6437 114.397L100.451 169.66L44.8753 184.552C43.8298 184.832 42.7393 184.903 41.6663 184.762C40.5932 184.62 39.5585 184.269 38.6213 183.727C37.6842 183.186 36.8629 182.465 36.2045 181.606C35.5461 180.746 35.0635 179.766 34.7842 178.72L22.1104 131.421L85.6437 114.397Z" fill="#F2F2F2"/>
<path d="M85.0565 112.322L21.083 129.464C21.0371 129.475 20.993 129.493 20.9522 129.517L3.87598 120.349L68.0039 103.166L85.0565 112.322Z" fill="#F2F2F2"/>
<path d="M122.155 88.6568L111.959 105.133C111.912 105.133 111.865 105.139 111.819 105.152L87.4335 111.686L97.623 95.2301L122.155 88.6568Z" fill="#F2F2F2"/>
<path d="M111.901 107.362L124.567 154.633C125.135 156.753 124.837 159.011 123.739 160.912C122.642 162.812 120.835 164.198 118.715 164.766L102.765 169.04L87.957 113.777L111.901 107.362Z" fill="#F2F2F2"/>
<path d="M20.375 95.25L26.2207 101.438H14.5293L20.375 95.25Z" fill="#F2AF2A"/>
<path d="M20.297 103.575L25.8563 103.172L20.149 109.147L20.297 103.575Z" fill="#F2AF2A"/>
<path d="M82.207 83.957L82.4695 93.8861L92.1361 84.2194L82.207 83.957Z" fill="#F2AF2A"/>
<path d="M89.2108 90.7221L84.2538 95.0089L93.9663 95.2315L89.2108 90.7221Z" fill="#F2AF2A"/>
</svg>
