<svg width="279" height="299" viewBox="0 0 279 299" fill="none" xmlns="http://www.w3.org/2000/svg">
<circle cx="141.136" cy="137.528" r="137.528" fill="#3A3A3A"/>
<path d="M58.4756 280.565C59.0667 280.565 59.5458 280.086 59.5458 279.495C59.5458 278.904 59.0667 278.425 58.4756 278.425C57.8844 278.425 57.4053 278.904 57.4053 279.495C57.4053 280.086 57.8844 280.565 58.4756 280.565Z" fill="#3A3A3A"/>
<path d="M65.2187 280.565C65.8098 280.565 66.289 280.086 66.289 279.495C66.289 278.904 65.8098 278.425 65.2187 278.425C64.6276 278.425 64.1484 278.904 64.1484 279.495C64.1484 280.086 64.6276 280.565 65.2187 280.565Z" fill="#3A3A3A"/>
<path d="M71.9609 280.565C72.552 280.565 73.0312 280.086 73.0312 279.495C73.0312 278.904 72.552 278.425 71.9609 278.425C71.3698 278.425 70.8906 278.904 70.8906 279.495C70.8906 280.086 71.3698 280.565 71.9609 280.565Z" fill="#3A3A3A"/>
<path d="M78.7041 280.565C79.2952 280.565 79.7743 280.086 79.7743 279.495C79.7743 278.904 79.2952 278.425 78.7041 278.425C78.113 278.425 77.6338 278.904 77.6338 279.495C77.6338 280.086 78.113 280.565 78.7041 280.565Z" fill="#3A3A3A"/>
<path d="M85.4482 280.565C86.0393 280.565 86.5185 280.086 86.5185 279.495C86.5185 278.904 86.0393 278.425 85.4482 278.425C84.8571 278.425 84.3779 278.904 84.3779 279.495C84.3779 280.086 84.8571 280.565 85.4482 280.565Z" fill="#3A3A3A"/>
<path d="M92.1923 280.565C92.7835 280.565 93.2626 280.086 93.2626 279.495C93.2626 278.904 92.7835 278.425 92.1923 278.425C91.6012 278.425 91.1221 278.904 91.1221 279.495C91.1221 280.086 91.6012 280.565 92.1923 280.565Z" fill="#3A3A3A"/>
<path d="M98.9345 280.565C99.5256 280.565 100.005 280.086 100.005 279.495C100.005 278.904 99.5256 278.425 98.9345 278.425C98.3434 278.425 97.8643 278.904 97.8643 279.495C97.8643 280.086 98.3434 280.565 98.9345 280.565Z" fill="#3A3A3A"/>
<path d="M18.0166 280.565C18.6077 280.565 19.0868 280.086 19.0868 279.495C19.0868 278.904 18.6077 278.425 18.0166 278.425C17.4255 278.425 16.9463 278.904 16.9463 279.495C16.9463 280.086 17.4255 280.565 18.0166 280.565Z" fill="#3A3A3A"/>
<path d="M24.7608 280.565C25.3519 280.565 25.831 280.086 25.831 279.495C25.831 278.904 25.3519 278.425 24.7608 278.425C24.1697 278.425 23.6904 278.904 23.6904 279.495C23.6904 280.086 24.1697 280.565 24.7608 280.565Z" fill="#3A3A3A"/>
<path d="M31.5019 280.565C32.093 280.565 32.5722 280.086 32.5722 279.495C32.5722 278.904 32.093 278.425 31.5019 278.425C30.9108 278.425 30.4316 278.904 30.4316 279.495C30.4316 280.086 30.9108 280.565 31.5019 280.565Z" fill="#3A3A3A"/>
<path d="M38.2461 280.565C38.8372 280.565 39.3163 280.086 39.3163 279.495C39.3163 278.904 38.8372 278.425 38.2461 278.425C37.655 278.425 37.1758 278.904 37.1758 279.495C37.1758 280.086 37.655 280.565 38.2461 280.565Z" fill="#3A3A3A"/>
<path d="M44.9893 280.565C45.5804 280.565 46.0596 280.086 46.0596 279.495C46.0596 278.904 45.5804 278.425 44.9893 278.425C44.3982 278.425 43.9189 278.904 43.9189 279.495C43.9189 280.086 44.3982 280.565 44.9893 280.565Z" fill="#3A3A3A"/>
<path d="M51.7314 280.565C52.3225 280.565 52.8017 280.086 52.8017 279.495C52.8017 278.904 52.3225 278.425 51.7314 278.425C51.1403 278.425 50.6611 278.904 50.6611 279.495C50.6611 280.086 51.1403 280.565 51.7314 280.565Z" fill="#3A3A3A"/>
<path d="M55.1026 284.078C55.6937 284.078 56.1728 283.599 56.1728 283.008C56.1728 282.417 55.6937 281.938 55.1026 281.938C54.5114 281.938 54.0322 282.417 54.0322 283.008C54.0322 283.599 54.5114 284.078 55.1026 284.078Z" fill="#3A3A3A"/>
<path d="M61.8476 284.078C62.4387 284.078 62.9179 283.599 62.9179 283.008C62.9179 282.417 62.4387 281.938 61.8476 281.938C61.2565 281.938 60.7773 282.417 60.7773 283.008C60.7773 283.599 61.2565 284.078 61.8476 284.078Z" fill="#3A3A3A"/>
<path d="M68.5918 284.078C69.1829 284.078 69.662 283.599 69.662 283.008C69.662 282.417 69.1829 281.938 68.5918 281.938C68.0007 281.938 67.5215 282.417 67.5215 283.008C67.5215 283.599 68.0007 284.078 68.5918 284.078Z" fill="#3A3A3A"/>
<path d="M75.333 284.078C75.9241 284.078 76.4033 283.599 76.4033 283.008C76.4033 282.417 75.9241 281.938 75.333 281.938C74.7419 281.938 74.2627 282.417 74.2627 283.008C74.2627 283.599 74.7419 284.078 75.333 284.078Z" fill="#3A3A3A"/>
<path d="M82.0771 284.078C82.6682 284.078 83.1474 283.599 83.1474 283.008C83.1474 282.417 82.6682 281.938 82.0771 281.938C81.486 281.938 81.0068 282.417 81.0068 283.008C81.0068 283.599 81.486 284.078 82.0771 284.078Z" fill="#3A3A3A"/>
<path d="M88.8203 284.078C89.4114 284.078 89.8906 283.599 89.8906 283.008C89.8906 282.417 89.4114 281.938 88.8203 281.938C88.2292 281.938 87.75 282.417 87.75 283.008C87.75 283.599 88.2292 284.078 88.8203 284.078Z" fill="#3A3A3A"/>
<path d="M95.5625 284.078C96.1536 284.078 96.6328 283.599 96.6328 283.008C96.6328 282.417 96.1536 281.938 95.5625 281.938C94.9714 281.938 94.4922 282.417 94.4922 283.008C94.4922 283.599 94.9714 284.078 95.5625 284.078Z" fill="#3A3A3A"/>
<path d="M14.6445 284.078C15.2356 284.078 15.7148 283.599 15.7148 283.008C15.7148 282.417 15.2356 281.938 14.6445 281.938C14.0534 281.938 13.5742 282.417 13.5742 283.008C13.5742 283.599 14.0534 284.078 14.6445 284.078Z" fill="#3A3A3A"/>
<path d="M21.3886 284.078C21.9797 284.078 22.4589 283.599 22.4589 283.008C22.4589 282.417 21.9797 281.938 21.3886 281.938C20.7975 281.938 20.3184 282.417 20.3184 283.008C20.3184 283.599 20.7975 284.078 21.3886 284.078Z" fill="#3A3A3A"/>
<path d="M28.1298 284.078C28.721 284.078 29.2001 283.599 29.2001 283.008C29.2001 282.417 28.721 281.938 28.1298 281.938C27.5387 281.938 27.0596 282.417 27.0596 283.008C27.0596 283.599 27.5387 284.078 28.1298 284.078Z" fill="#3A3A3A"/>
<path d="M34.874 284.078C35.4651 284.078 35.9443 283.599 35.9443 283.008C35.9443 282.417 35.4651 281.938 34.874 281.938C34.2829 281.938 33.8037 282.417 33.8037 283.008C33.8037 283.599 34.2829 284.078 34.874 284.078Z" fill="#3A3A3A"/>
<path d="M41.6172 284.078C42.2083 284.078 42.6874 283.599 42.6874 283.008C42.6874 282.417 42.2083 281.938 41.6172 281.938C41.0261 281.938 40.5469 282.417 40.5469 283.008C40.5469 283.599 41.0261 284.078 41.6172 284.078Z" fill="#3A3A3A"/>
<path d="M48.3613 284.078C48.9524 284.078 49.4316 283.599 49.4316 283.008C49.4316 282.417 48.9524 281.938 48.3613 281.938C47.7702 281.938 47.291 282.417 47.291 283.008C47.291 283.599 47.7702 284.078 48.3613 284.078Z" fill="#3A3A3A"/>
<path d="M58.4756 287.592C59.0667 287.592 59.5458 287.113 59.5458 286.521C59.5458 285.93 59.0667 285.451 58.4756 285.451C57.8844 285.451 57.4053 285.93 57.4053 286.521C57.4053 287.113 57.8844 287.592 58.4756 287.592Z" fill="#3A3A3A"/>
<path d="M65.2187 287.592C65.8098 287.592 66.289 287.113 66.289 286.521C66.289 285.93 65.8098 285.451 65.2187 285.451C64.6276 285.451 64.1484 285.93 64.1484 286.521C64.1484 287.113 64.6276 287.592 65.2187 287.592Z" fill="#3A3A3A"/>
<path d="M71.9609 287.592C72.552 287.592 73.0312 287.113 73.0312 286.521C73.0312 285.93 72.552 285.451 71.9609 285.451C71.3698 285.451 70.8906 285.93 70.8906 286.521C70.8906 287.113 71.3698 287.592 71.9609 287.592Z" fill="#3A3A3A"/>
<path d="M78.7041 287.592C79.2952 287.592 79.7743 287.113 79.7743 286.521C79.7743 285.93 79.2952 285.451 78.7041 285.451C78.113 285.451 77.6338 285.93 77.6338 286.521C77.6338 287.113 78.113 287.592 78.7041 287.592Z" fill="#3A3A3A"/>
<path d="M85.4482 287.592C86.0393 287.592 86.5185 287.113 86.5185 286.521C86.5185 285.93 86.0393 285.451 85.4482 285.451C84.8571 285.451 84.3779 285.93 84.3779 286.521C84.3779 287.113 84.8571 287.592 85.4482 287.592Z" fill="#3A3A3A"/>
<path d="M92.1923 287.592C92.7835 287.592 93.2626 287.113 93.2626 286.521C93.2626 285.93 92.7835 285.451 92.1923 285.451C91.6012 285.451 91.1221 285.93 91.1221 286.521C91.1221 287.113 91.6012 287.592 92.1923 287.592Z" fill="#3A3A3A"/>
<path d="M98.9345 287.592C99.5256 287.592 100.005 287.113 100.005 286.521C100.005 285.93 99.5256 285.451 98.9345 285.451C98.3434 285.451 97.8643 285.93 97.8643 286.521C97.8643 287.113 98.3434 287.592 98.9345 287.592Z" fill="#3A3A3A"/>
<path d="M11.2724 287.592C11.8635 287.592 12.3427 287.113 12.3427 286.521C12.3427 285.93 11.8635 285.451 11.2724 285.451C10.6813 285.451 10.2021 285.93 10.2021 286.521C10.2021 287.113 10.6813 287.592 11.2724 287.592Z" fill="#3A3A3A"/>
<path d="M18.0166 287.592C18.6077 287.592 19.0868 287.113 19.0868 286.521C19.0868 285.93 18.6077 285.451 18.0166 285.451C17.4255 285.451 16.9463 285.93 16.9463 286.521C16.9463 287.113 17.4255 287.592 18.0166 287.592Z" fill="#3A3A3A"/>
<path d="M24.7608 287.592C25.3519 287.592 25.831 287.113 25.831 286.521C25.831 285.93 25.3519 285.451 24.7608 285.451C24.1697 285.451 23.6904 285.93 23.6904 286.521C23.6904 287.113 24.1697 287.592 24.7608 287.592Z" fill="#3A3A3A"/>
<path d="M31.5019 287.592C32.093 287.592 32.5722 287.113 32.5722 286.521C32.5722 285.93 32.093 285.451 31.5019 285.451C30.9108 285.451 30.4316 285.93 30.4316 286.521C30.4316 287.113 30.9108 287.592 31.5019 287.592Z" fill="#3A3A3A"/>
<path d="M38.2461 287.592C38.8372 287.592 39.3163 287.113 39.3163 286.521C39.3163 285.93 38.8372 285.451 38.2461 285.451C37.655 285.451 37.1758 285.93 37.1758 286.521C37.1758 287.113 37.655 287.592 38.2461 287.592Z" fill="#3A3A3A"/>
<path d="M44.9893 287.592C45.5804 287.592 46.0596 287.113 46.0596 286.521C46.0596 285.93 45.5804 285.451 44.9893 285.451C44.3982 285.451 43.9189 285.93 43.9189 286.521C43.9189 287.113 44.3982 287.592 44.9893 287.592Z" fill="#3A3A3A"/>
<path d="M51.7314 287.592C52.3225 287.592 52.8017 287.113 52.8017 286.521C52.8017 285.93 52.3225 285.451 51.7314 285.451C51.1403 285.451 50.6611 285.93 50.6611 286.521C50.6611 287.113 51.1403 287.592 51.7314 287.592Z" fill="#3A3A3A"/>
<path d="M55.1026 291.105C55.6937 291.105 56.1728 290.626 56.1728 290.035C56.1728 289.444 55.6937 288.965 55.1026 288.965C54.5114 288.965 54.0322 289.444 54.0322 290.035C54.0322 290.626 54.5114 291.105 55.1026 291.105Z" fill="#3A3A3A"/>
<path d="M61.8476 291.105C62.4387 291.105 62.9179 290.626 62.9179 290.035C62.9179 289.444 62.4387 288.965 61.8476 288.965C61.2565 288.965 60.7773 289.444 60.7773 290.035C60.7773 290.626 61.2565 291.105 61.8476 291.105Z" fill="#3A3A3A"/>
<path d="M68.5918 291.105C69.1829 291.105 69.662 290.626 69.662 290.035C69.662 289.444 69.1829 288.965 68.5918 288.965C68.0007 288.965 67.5215 289.444 67.5215 290.035C67.5215 290.626 68.0007 291.105 68.5918 291.105Z" fill="#3A3A3A"/>
<path d="M75.333 291.105C75.9241 291.105 76.4033 290.626 76.4033 290.035C76.4033 289.444 75.9241 288.965 75.333 288.965C74.7419 288.965 74.2627 289.444 74.2627 290.035C74.2627 290.626 74.7419 291.105 75.333 291.105Z" fill="#3A3A3A"/>
<path d="M82.0771 291.105C82.6682 291.105 83.1474 290.626 83.1474 290.035C83.1474 289.444 82.6682 288.965 82.0771 288.965C81.486 288.965 81.0068 289.444 81.0068 290.035C81.0068 290.626 81.486 291.105 82.0771 291.105Z" fill="#3A3A3A"/>
<path d="M88.8203 291.105C89.4114 291.105 89.8906 290.626 89.8906 290.035C89.8906 289.444 89.4114 288.965 88.8203 288.965C88.2292 288.965 87.75 289.444 87.75 290.035C87.75 290.626 88.2292 291.105 88.8203 291.105Z" fill="#3A3A3A"/>
<path d="M95.5625 291.105C96.1536 291.105 96.6328 290.626 96.6328 290.035C96.6328 289.444 96.1536 288.965 95.5625 288.965C94.9714 288.965 94.4922 289.444 94.4922 290.035C94.4922 290.626 94.9714 291.105 95.5625 291.105Z" fill="#3A3A3A"/>
<path d="M14.6445 291.105C15.2356 291.105 15.7148 290.626 15.7148 290.035C15.7148 289.444 15.2356 288.965 14.6445 288.965C14.0534 288.965 13.5742 289.444 13.5742 290.035C13.5742 290.626 14.0534 291.105 14.6445 291.105Z" fill="#3A3A3A"/>
<path d="M7.90036 291.105C8.49146 291.105 8.97064 290.626 8.97064 290.035C8.97064 289.444 8.49146 288.965 7.90036 288.965C7.30925 288.965 6.83008 289.444 6.83008 290.035C6.83008 290.626 7.30925 291.105 7.90036 291.105Z" fill="#3A3A3A"/>
<path d="M21.3886 291.105C21.9797 291.105 22.4589 290.626 22.4589 290.035C22.4589 289.444 21.9797 288.965 21.3886 288.965C20.7975 288.965 20.3184 289.444 20.3184 290.035C20.3184 290.626 20.7975 291.105 21.3886 291.105Z" fill="#3A3A3A"/>
<path d="M28.1298 291.105C28.721 291.105 29.2001 290.626 29.2001 290.035C29.2001 289.444 28.721 288.965 28.1298 288.965C27.5387 288.965 27.0596 289.444 27.0596 290.035C27.0596 290.626 27.5387 291.105 28.1298 291.105Z" fill="#3A3A3A"/>
<path d="M34.874 291.105C35.4651 291.105 35.9443 290.626 35.9443 290.035C35.9443 289.444 35.4651 288.965 34.874 288.965C34.2829 288.965 33.8037 289.444 33.8037 290.035C33.8037 290.626 34.2829 291.105 34.874 291.105Z" fill="#3A3A3A"/>
<path d="M41.6172 291.105C42.2083 291.105 42.6874 290.626 42.6874 290.035C42.6874 289.444 42.2083 288.965 41.6172 288.965C41.0261 288.965 40.5469 289.444 40.5469 290.035C40.5469 290.626 41.0261 291.105 41.6172 291.105Z" fill="#3A3A3A"/>
<path d="M48.3613 291.105C48.9524 291.105 49.4316 290.626 49.4316 290.035C49.4316 289.444 48.9524 288.965 48.3613 288.965C47.7702 288.965 47.291 289.444 47.291 290.035C47.291 290.626 47.7702 291.105 48.3613 291.105Z" fill="#3A3A3A"/>
<path d="M58.4756 294.618C59.0667 294.618 59.5458 294.139 59.5458 293.548C59.5458 292.957 59.0667 292.478 58.4756 292.478C57.8844 292.478 57.4053 292.957 57.4053 293.548C57.4053 294.139 57.8844 294.618 58.4756 294.618Z" fill="#3A3A3A"/>
<path d="M65.2187 294.618C65.8098 294.618 66.289 294.139 66.289 293.548C66.289 292.957 65.8098 292.478 65.2187 292.478C64.6276 292.478 64.1484 292.957 64.1484 293.548C64.1484 294.139 64.6276 294.618 65.2187 294.618Z" fill="#3A3A3A"/>
<path d="M71.9609 294.618C72.552 294.618 73.0312 294.139 73.0312 293.548C73.0312 292.957 72.552 292.478 71.9609 292.478C71.3698 292.478 70.8906 292.957 70.8906 293.548C70.8906 294.139 71.3698 294.618 71.9609 294.618Z" fill="#3A3A3A"/>
<path d="M78.7041 294.618C79.2952 294.618 79.7743 294.139 79.7743 293.548C79.7743 292.957 79.2952 292.478 78.7041 292.478C78.113 292.478 77.6338 292.957 77.6338 293.548C77.6338 294.139 78.113 294.618 78.7041 294.618Z" fill="#3A3A3A"/>
<path d="M85.4482 294.618C86.0393 294.618 86.5185 294.139 86.5185 293.548C86.5185 292.957 86.0393 292.478 85.4482 292.478C84.8571 292.478 84.3779 292.957 84.3779 293.548C84.3779 294.139 84.8571 294.618 85.4482 294.618Z" fill="#3A3A3A"/>
<path d="M92.1923 294.618C92.7835 294.618 93.2626 294.139 93.2626 293.548C93.2626 292.957 92.7835 292.478 92.1923 292.478C91.6012 292.478 91.1221 292.957 91.1221 293.548C91.1221 294.139 91.6012 294.618 92.1923 294.618Z" fill="#3A3A3A"/>
<path d="M98.9345 294.618C99.5256 294.618 100.005 294.139 100.005 293.548C100.005 292.957 99.5256 292.478 98.9345 292.478C98.3434 292.478 97.8643 292.957 97.8643 293.548C97.8643 294.139 98.3434 294.618 98.9345 294.618Z" fill="#3A3A3A"/>
<path d="M18.0166 294.618C18.6077 294.618 19.0868 294.139 19.0868 293.548C19.0868 292.957 18.6077 292.478 18.0166 292.478C17.4255 292.478 16.9463 292.957 16.9463 293.548C16.9463 294.139 17.4255 294.618 18.0166 294.618Z" fill="#3A3A3A"/>
<path d="M11.2724 294.618C11.8635 294.618 12.3427 294.139 12.3427 293.548C12.3427 292.957 11.8635 292.478 11.2724 292.478C10.6813 292.478 10.2021 292.957 10.2021 293.548C10.2021 294.139 10.6813 294.618 11.2724 294.618Z" fill="#3A3A3A"/>
<path d="M4.53029 294.618C5.12139 294.618 5.60057 294.139 5.60057 293.548C5.60057 292.957 5.12139 292.478 4.53029 292.478C3.93918 292.478 3.45996 292.957 3.45996 293.548C3.45996 294.139 3.93918 294.618 4.53029 294.618Z" fill="#3A3A3A"/>
<path d="M24.7608 294.618C25.3519 294.618 25.831 294.139 25.831 293.548C25.831 292.957 25.3519 292.478 24.7608 292.478C24.1697 292.478 23.6904 292.957 23.6904 293.548C23.6904 294.139 24.1697 294.618 24.7608 294.618Z" fill="#3A3A3A"/>
<path d="M31.5019 294.618C32.093 294.618 32.5722 294.139 32.5722 293.548C32.5722 292.957 32.093 292.478 31.5019 292.478C30.9108 292.478 30.4316 292.957 30.4316 293.548C30.4316 294.139 30.9108 294.618 31.5019 294.618Z" fill="#3A3A3A"/>
<path d="M38.2461 294.618C38.8372 294.618 39.3163 294.139 39.3163 293.548C39.3163 292.957 38.8372 292.478 38.2461 292.478C37.655 292.478 37.1758 292.957 37.1758 293.548C37.1758 294.139 37.655 294.618 38.2461 294.618Z" fill="#3A3A3A"/>
<path d="M44.9893 294.618C45.5804 294.618 46.0596 294.139 46.0596 293.548C46.0596 292.957 45.5804 292.478 44.9893 292.478C44.3982 292.478 43.9189 292.957 43.9189 293.548C43.9189 294.139 44.3982 294.618 44.9893 294.618Z" fill="#3A3A3A"/>
<path d="M51.7314 294.618C52.3225 294.618 52.8017 294.139 52.8017 293.548C52.8017 292.957 52.3225 292.478 51.7314 292.478C51.1403 292.478 50.6611 292.957 50.6611 293.548C50.6611 294.139 51.1403 294.618 51.7314 294.618Z" fill="#3A3A3A"/>
<path d="M55.1026 298.132C55.6937 298.132 56.1728 297.653 56.1728 297.061C56.1728 296.47 55.6937 295.991 55.1026 295.991C54.5114 295.991 54.0322 296.47 54.0322 297.061C54.0322 297.653 54.5114 298.132 55.1026 298.132Z" fill="#3A3A3A"/>
<path d="M61.8476 298.132C62.4387 298.132 62.9179 297.653 62.9179 297.061C62.9179 296.47 62.4387 295.991 61.8476 295.991C61.2565 295.991 60.7773 296.47 60.7773 297.061C60.7773 297.653 61.2565 298.132 61.8476 298.132Z" fill="#3A3A3A"/>
<path d="M68.5918 298.132C69.1829 298.132 69.662 297.653 69.662 297.061C69.662 296.47 69.1829 295.991 68.5918 295.991C68.0007 295.991 67.5215 296.47 67.5215 297.061C67.5215 297.653 68.0007 298.132 68.5918 298.132Z" fill="#3A3A3A"/>
<path d="M75.333 298.132C75.9241 298.132 76.4033 297.653 76.4033 297.061C76.4033 296.47 75.9241 295.991 75.333 295.991C74.7419 295.991 74.2627 296.47 74.2627 297.061C74.2627 297.653 74.7419 298.132 75.333 298.132Z" fill="#3A3A3A"/>
<path d="M82.0771 298.132C82.6682 298.132 83.1474 297.653 83.1474 297.061C83.1474 296.47 82.6682 295.991 82.0771 295.991C81.486 295.991 81.0068 296.47 81.0068 297.061C81.0068 297.653 81.486 298.132 82.0771 298.132Z" fill="#3A3A3A"/>
<path d="M88.8203 298.132C89.4114 298.132 89.8906 297.653 89.8906 297.061C89.8906 296.47 89.4114 295.991 88.8203 295.991C88.2292 295.991 87.75 296.47 87.75 297.061C87.75 297.653 88.2292 298.132 88.8203 298.132Z" fill="#3A3A3A"/>
<path d="M95.5625 298.132C96.1536 298.132 96.6328 297.653 96.6328 297.061C96.6328 296.47 96.1536 295.991 95.5625 295.991C94.9714 295.991 94.4922 296.47 94.4922 297.061C94.4922 297.653 94.9714 298.132 95.5625 298.132Z" fill="#3A3A3A"/>
<path d="M21.3886 298.132C21.9797 298.132 22.4589 297.653 22.4589 297.061C22.4589 296.47 21.9797 295.991 21.3886 295.991C20.7975 295.991 20.3184 296.47 20.3184 297.061C20.3184 297.653 20.7975 298.132 21.3886 298.132Z" fill="#3A3A3A"/>
<path d="M14.6445 298.132C15.2356 298.132 15.7148 297.653 15.7148 297.061C15.7148 296.47 15.2356 295.991 14.6445 295.991C14.0534 295.991 13.5742 296.47 13.5742 297.061C13.5742 297.653 14.0534 298.132 14.6445 298.132Z" fill="#3A3A3A"/>
<path d="M7.90036 298.132C8.49146 298.132 8.97064 297.653 8.97064 297.061C8.97064 296.47 8.49146 295.991 7.90036 295.991C7.30925 295.991 6.83008 296.47 6.83008 297.061C6.83008 297.653 7.30925 298.132 7.90036 298.132Z" fill="#3A3A3A"/>
<path d="M1.07028 298.132C1.66138 298.132 2.14056 297.653 2.14056 297.061C2.14056 296.47 1.66138 295.991 1.07028 295.991C0.479175 295.991 0 296.47 0 297.061C0 297.653 0.479175 298.132 1.07028 298.132Z" fill="#3A3A3A"/>
<path d="M28.1298 298.132C28.721 298.132 29.2001 297.653 29.2001 297.061C29.2001 296.47 28.721 295.991 28.1298 295.991C27.5387 295.991 27.0596 296.47 27.0596 297.061C27.0596 297.653 27.5387 298.132 28.1298 298.132Z" fill="#3A3A3A"/>
<path d="M34.874 298.132C35.4651 298.132 35.9443 297.653 35.9443 297.061C35.9443 296.47 35.4651 295.991 34.874 295.991C34.2829 295.991 33.8037 296.47 33.8037 297.061C33.8037 297.653 34.2829 298.132 34.874 298.132Z" fill="#3A3A3A"/>
<path d="M41.6172 298.132C42.2083 298.132 42.6874 297.653 42.6874 297.061C42.6874 296.47 42.2083 295.991 41.6172 295.991C41.0261 295.991 40.5469 296.47 40.5469 297.061C40.5469 297.653 41.0261 298.132 41.6172 298.132Z" fill="#3A3A3A"/>
<path d="M48.3613 298.132C48.9524 298.132 49.4316 297.653 49.4316 297.061C49.4316 296.47 48.9524 295.991 48.3613 295.991C47.7702 295.991 47.291 296.47 47.291 297.061C47.291 297.653 47.7702 298.132 48.3613 298.132Z" fill="#3A3A3A"/>
<path d="M159.616 280.565C160.207 280.565 160.686 280.086 160.686 279.495C160.686 278.904 160.207 278.425 159.616 278.425C159.025 278.425 158.546 278.904 158.546 279.495C158.546 280.086 159.025 280.565 159.616 280.565Z" fill="#3A3A3A"/>
<path d="M166.36 280.565C166.951 280.565 167.431 280.086 167.431 279.495C167.431 278.904 166.951 278.425 166.36 278.425C165.769 278.425 165.29 278.904 165.29 279.495C165.29 280.086 165.769 280.565 166.36 280.565Z" fill="#3A3A3A"/>
<path d="M173.102 280.565C173.693 280.565 174.172 280.086 174.172 279.495C174.172 278.904 173.693 278.425 173.102 278.425C172.51 278.425 172.031 278.904 172.031 279.495C172.031 280.086 172.51 280.565 173.102 280.565Z" fill="#3A3A3A"/>
<path d="M179.846 280.565C180.437 280.565 180.916 280.086 180.916 279.495C180.916 278.904 180.437 278.425 179.846 278.425C179.255 278.425 178.775 278.904 178.775 279.495C178.775 280.086 179.255 280.565 179.846 280.565Z" fill="#3A3A3A"/>
<path d="M186.59 280.565C187.181 280.565 187.66 280.086 187.66 279.495C187.66 278.904 187.181 278.425 186.59 278.425C185.999 278.425 185.52 278.904 185.52 279.495C185.52 280.086 185.999 280.565 186.59 280.565Z" fill="#3A3A3A"/>
<path d="M193.332 280.565C193.923 280.565 194.402 280.086 194.402 279.495C194.402 278.904 193.923 278.425 193.332 278.425C192.741 278.425 192.262 278.904 192.262 279.495C192.262 280.086 192.741 280.565 193.332 280.565Z" fill="#3A3A3A"/>
<path d="M200.075 280.565C200.666 280.565 201.145 280.086 201.145 279.495C201.145 278.904 200.666 278.425 200.075 278.425C199.484 278.425 199.005 278.904 199.005 279.495C199.005 280.086 199.484 280.565 200.075 280.565Z" fill="#3A3A3A"/>
<path d="M112.414 280.565C113.005 280.565 113.484 280.086 113.484 279.495C113.484 278.904 113.005 278.425 112.414 278.425C111.823 278.425 111.344 278.904 111.344 279.495C111.344 280.086 111.823 280.565 112.414 280.565Z" fill="#3A3A3A"/>
<path d="M105.67 280.565C106.261 280.565 106.74 280.086 106.74 279.495C106.74 278.904 106.261 278.425 105.67 278.425C105.079 278.425 104.6 278.904 104.6 279.495C104.6 280.086 105.079 280.565 105.67 280.565Z" fill="#3A3A3A"/>
<path d="M119.158 280.565C119.749 280.565 120.228 280.086 120.228 279.495C120.228 278.904 119.749 278.425 119.158 278.425C118.567 278.425 118.088 278.904 118.088 279.495C118.088 280.086 118.567 280.565 119.158 280.565Z" fill="#3A3A3A"/>
<path d="M125.901 280.565C126.492 280.565 126.972 280.086 126.972 279.495C126.972 278.904 126.492 278.425 125.901 278.425C125.31 278.425 124.831 278.904 124.831 279.495C124.831 280.086 125.31 280.565 125.901 280.565Z" fill="#3A3A3A"/>
<path d="M132.644 280.565C133.235 280.565 133.714 280.086 133.714 279.495C133.714 278.904 133.235 278.425 132.644 278.425C132.052 278.425 131.573 278.904 131.573 279.495C131.573 280.086 132.052 280.565 132.644 280.565Z" fill="#3A3A3A"/>
<path d="M139.387 280.565C139.978 280.565 140.457 280.086 140.457 279.495C140.457 278.904 139.978 278.425 139.387 278.425C138.796 278.425 138.316 278.904 138.316 279.495C138.316 280.086 138.796 280.565 139.387 280.565Z" fill="#3A3A3A"/>
<path d="M146.13 280.565C146.721 280.565 147.2 280.086 147.2 279.495C147.2 278.904 146.721 278.425 146.13 278.425C145.539 278.425 145.06 278.904 145.06 279.495C145.06 280.086 145.539 280.565 146.13 280.565Z" fill="#3A3A3A"/>
<path d="M152.872 280.565C153.463 280.565 153.942 280.086 153.942 279.495C153.942 278.904 153.463 278.425 152.872 278.425C152.281 278.425 151.802 278.904 151.802 279.495C151.802 280.086 152.281 280.565 152.872 280.565Z" fill="#3A3A3A"/>
<path d="M156.245 284.078C156.836 284.078 157.315 283.599 157.315 283.008C157.315 282.417 156.836 281.938 156.245 281.938C155.654 281.938 155.175 282.417 155.175 283.008C155.175 283.599 155.654 284.078 156.245 284.078Z" fill="#3A3A3A"/>
<path d="M162.988 284.078C163.579 284.078 164.059 283.599 164.059 283.008C164.059 282.417 163.579 281.938 162.988 281.938C162.397 281.938 161.918 282.417 161.918 283.008C161.918 283.599 162.397 284.078 162.988 284.078Z" fill="#3A3A3A"/>
<path d="M169.73 284.078C170.322 284.078 170.801 283.599 170.801 283.008C170.801 282.417 170.322 281.938 169.73 281.938C169.139 281.938 168.66 282.417 168.66 283.008C168.66 283.599 169.139 284.078 169.73 284.078Z" fill="#3A3A3A"/>
<path d="M176.474 284.078C177.065 284.078 177.544 283.599 177.544 283.008C177.544 282.417 177.065 281.938 176.474 281.938C175.882 281.938 175.403 282.417 175.403 283.008C175.403 283.599 175.882 284.078 176.474 284.078Z" fill="#3A3A3A"/>
<path d="M183.218 284.078C183.809 284.078 184.288 283.599 184.288 283.008C184.288 282.417 183.809 281.938 183.218 281.938C182.627 281.938 182.147 282.417 182.147 283.008C182.147 283.599 182.627 284.078 183.218 284.078Z" fill="#3A3A3A"/>
<path d="M189.961 284.078C190.552 284.078 191.031 283.599 191.031 283.008C191.031 282.417 190.552 281.938 189.961 281.938C189.37 281.938 188.891 282.417 188.891 283.008C188.891 283.599 189.37 284.078 189.961 284.078Z" fill="#3A3A3A"/>
<path d="M196.703 284.078C197.294 284.078 197.773 283.599 197.773 283.008C197.773 282.417 197.294 281.938 196.703 281.938C196.112 281.938 195.633 282.417 195.633 283.008C195.633 283.599 196.112 284.078 196.703 284.078Z" fill="#3A3A3A"/>
<path d="M109.042 284.078C109.633 284.078 110.112 283.599 110.112 283.008C110.112 282.417 109.633 281.938 109.042 281.938C108.451 281.938 107.972 282.417 107.972 283.008C107.972 283.599 108.451 284.078 109.042 284.078Z" fill="#3A3A3A"/>
<path d="M102.299 284.078C102.89 284.078 103.369 283.599 103.369 283.008C103.369 282.417 102.89 281.938 102.299 281.938C101.708 281.938 101.229 282.417 101.229 283.008C101.229 283.599 101.708 284.078 102.299 284.078Z" fill="#3A3A3A"/>
<path d="M115.785 284.078C116.376 284.078 116.855 283.599 116.855 283.008C116.855 282.417 116.376 281.938 115.785 281.938C115.194 281.938 114.715 282.417 114.715 283.008C114.715 283.599 115.194 284.078 115.785 284.078Z" fill="#3A3A3A"/>
<path d="M122.529 284.078C123.12 284.078 123.6 283.599 123.6 283.008C123.6 282.417 123.12 281.938 122.529 281.938C121.938 281.938 121.459 282.417 121.459 283.008C121.459 283.599 121.938 284.078 122.529 284.078Z" fill="#3A3A3A"/>
<path d="M129.271 284.078C129.863 284.078 130.342 283.599 130.342 283.008C130.342 282.417 129.863 281.938 129.271 281.938C128.68 281.938 128.201 282.417 128.201 283.008C128.201 283.599 128.68 284.078 129.271 284.078Z" fill="#3A3A3A"/>
<path d="M136.015 284.078C136.606 284.078 137.085 283.599 137.085 283.008C137.085 282.417 136.606 281.938 136.015 281.938C135.424 281.938 134.944 282.417 134.944 283.008C134.944 283.599 135.424 284.078 136.015 284.078Z" fill="#3A3A3A"/>
<path d="M142.759 284.078C143.35 284.078 143.829 283.599 143.829 283.008C143.829 282.417 143.35 281.938 142.759 281.938C142.168 281.938 141.688 282.417 141.688 283.008C141.688 283.599 142.168 284.078 142.759 284.078Z" fill="#3A3A3A"/>
<path d="M149.501 284.078C150.092 284.078 150.571 283.599 150.571 283.008C150.571 282.417 150.092 281.938 149.501 281.938C148.91 281.938 148.431 282.417 148.431 283.008C148.431 283.599 148.91 284.078 149.501 284.078Z" fill="#3A3A3A"/>
<path d="M159.616 287.592C160.207 287.592 160.686 287.113 160.686 286.521C160.686 285.93 160.207 285.451 159.616 285.451C159.025 285.451 158.546 285.93 158.546 286.521C158.546 287.113 159.025 287.592 159.616 287.592Z" fill="#3A3A3A"/>
<path d="M166.36 287.592C166.951 287.592 167.431 287.113 167.431 286.521C167.431 285.93 166.951 285.451 166.36 285.451C165.769 285.451 165.29 285.93 165.29 286.521C165.29 287.113 165.769 287.592 166.36 287.592Z" fill="#3A3A3A"/>
<path d="M173.102 287.592C173.693 287.592 174.172 287.113 174.172 286.521C174.172 285.93 173.693 285.451 173.102 285.451C172.51 285.451 172.031 285.93 172.031 286.521C172.031 287.113 172.51 287.592 173.102 287.592Z" fill="#3A3A3A"/>
<path d="M179.846 287.592C180.437 287.592 180.916 287.113 180.916 286.521C180.916 285.93 180.437 285.451 179.846 285.451C179.255 285.451 178.775 285.93 178.775 286.521C178.775 287.113 179.255 287.592 179.846 287.592Z" fill="#3A3A3A"/>
<path d="M186.59 287.592C187.181 287.592 187.66 287.113 187.66 286.521C187.66 285.93 187.181 285.451 186.59 285.451C185.999 285.451 185.52 285.93 185.52 286.521C185.52 287.113 185.999 287.592 186.59 287.592Z" fill="#3A3A3A"/>
<path d="M193.332 287.592C193.923 287.592 194.402 287.113 194.402 286.521C194.402 285.93 193.923 285.451 193.332 285.451C192.741 285.451 192.262 285.93 192.262 286.521C192.262 287.113 192.741 287.592 193.332 287.592Z" fill="#3A3A3A"/>
<path d="M200.075 287.592C200.666 287.592 201.145 287.113 201.145 286.521C201.145 285.93 200.666 285.451 200.075 285.451C199.484 285.451 199.005 285.93 199.005 286.521C199.005 287.113 199.484 287.592 200.075 287.592Z" fill="#3A3A3A"/>
<path d="M112.414 287.592C113.005 287.592 113.484 287.113 113.484 286.521C113.484 285.93 113.005 285.451 112.414 285.451C111.823 285.451 111.344 285.93 111.344 286.521C111.344 287.113 111.823 287.592 112.414 287.592Z" fill="#3A3A3A"/>
<path d="M105.67 287.592C106.261 287.592 106.74 287.113 106.74 286.521C106.74 285.93 106.261 285.451 105.67 285.451C105.079 285.451 104.6 285.93 104.6 286.521C104.6 287.113 105.079 287.592 105.67 287.592Z" fill="#3A3A3A"/>
<path d="M119.158 287.592C119.749 287.592 120.228 287.113 120.228 286.521C120.228 285.93 119.749 285.451 119.158 285.451C118.567 285.451 118.088 285.93 118.088 286.521C118.088 287.113 118.567 287.592 119.158 287.592Z" fill="#3A3A3A"/>
<path d="M125.901 287.592C126.492 287.592 126.972 287.113 126.972 286.521C126.972 285.93 126.492 285.451 125.901 285.451C125.31 285.451 124.831 285.93 124.831 286.521C124.831 287.113 125.31 287.592 125.901 287.592Z" fill="#3A3A3A"/>
<path d="M132.644 287.592C133.235 287.592 133.714 287.113 133.714 286.521C133.714 285.93 133.235 285.451 132.644 285.451C132.052 285.451 131.573 285.93 131.573 286.521C131.573 287.113 132.052 287.592 132.644 287.592Z" fill="#3A3A3A"/>
<path d="M139.387 287.592C139.978 287.592 140.457 287.113 140.457 286.521C140.457 285.93 139.978 285.451 139.387 285.451C138.796 285.451 138.316 285.93 138.316 286.521C138.316 287.113 138.796 287.592 139.387 287.592Z" fill="#3A3A3A"/>
<path d="M146.13 287.592C146.721 287.592 147.2 287.113 147.2 286.521C147.2 285.93 146.721 285.451 146.13 285.451C145.539 285.451 145.06 285.93 145.06 286.521C145.06 287.113 145.539 287.592 146.13 287.592Z" fill="#3A3A3A"/>
<path d="M152.872 287.592C153.463 287.592 153.942 287.113 153.942 286.521C153.942 285.93 153.463 285.451 152.872 285.451C152.281 285.451 151.802 285.93 151.802 286.521C151.802 287.113 152.281 287.592 152.872 287.592Z" fill="#3A3A3A"/>
<path d="M156.245 291.105C156.836 291.105 157.315 290.626 157.315 290.035C157.315 289.444 156.836 288.965 156.245 288.965C155.654 288.965 155.175 289.444 155.175 290.035C155.175 290.626 155.654 291.105 156.245 291.105Z" fill="#3A3A3A"/>
<path d="M162.988 291.105C163.579 291.105 164.059 290.626 164.059 290.035C164.059 289.444 163.579 288.965 162.988 288.965C162.397 288.965 161.918 289.444 161.918 290.035C161.918 290.626 162.397 291.105 162.988 291.105Z" fill="#3A3A3A"/>
<path d="M169.73 291.105C170.322 291.105 170.801 290.626 170.801 290.035C170.801 289.444 170.322 288.965 169.73 288.965C169.139 288.965 168.66 289.444 168.66 290.035C168.66 290.626 169.139 291.105 169.73 291.105Z" fill="#3A3A3A"/>
<path d="M176.474 291.105C177.065 291.105 177.544 290.626 177.544 290.035C177.544 289.444 177.065 288.965 176.474 288.965C175.882 288.965 175.403 289.444 175.403 290.035C175.403 290.626 175.882 291.105 176.474 291.105Z" fill="#3A3A3A"/>
<path d="M183.218 291.105C183.809 291.105 184.288 290.626 184.288 290.035C184.288 289.444 183.809 288.965 183.218 288.965C182.627 288.965 182.147 289.444 182.147 290.035C182.147 290.626 182.627 291.105 183.218 291.105Z" fill="#3A3A3A"/>
<path d="M189.961 291.105C190.552 291.105 191.031 290.626 191.031 290.035C191.031 289.444 190.552 288.965 189.961 288.965C189.37 288.965 188.891 289.444 188.891 290.035C188.891 290.626 189.37 291.105 189.961 291.105Z" fill="#3A3A3A"/>
<path d="M196.703 291.105C197.294 291.105 197.773 290.626 197.773 290.035C197.773 289.444 197.294 288.965 196.703 288.965C196.112 288.965 195.633 289.444 195.633 290.035C195.633 290.626 196.112 291.105 196.703 291.105Z" fill="#3A3A3A"/>
<path d="M109.042 291.105C109.633 291.105 110.112 290.626 110.112 290.035C110.112 289.444 109.633 288.965 109.042 288.965C108.451 288.965 107.972 289.444 107.972 290.035C107.972 290.626 108.451 291.105 109.042 291.105Z" fill="#3A3A3A"/>
<path d="M102.299 291.105C102.89 291.105 103.369 290.626 103.369 290.035C103.369 289.444 102.89 288.965 102.299 288.965C101.708 288.965 101.229 289.444 101.229 290.035C101.229 290.626 101.708 291.105 102.299 291.105Z" fill="#3A3A3A"/>
<path d="M115.785 291.105C116.376 291.105 116.855 290.626 116.855 290.035C116.855 289.444 116.376 288.965 115.785 288.965C115.194 288.965 114.715 289.444 114.715 290.035C114.715 290.626 115.194 291.105 115.785 291.105Z" fill="#3A3A3A"/>
<path d="M122.529 291.105C123.12 291.105 123.6 290.626 123.6 290.035C123.6 289.444 123.12 288.965 122.529 288.965C121.938 288.965 121.459 289.444 121.459 290.035C121.459 290.626 121.938 291.105 122.529 291.105Z" fill="#3A3A3A"/>
<path d="M129.271 291.105C129.863 291.105 130.342 290.626 130.342 290.035C130.342 289.444 129.863 288.965 129.271 288.965C128.68 288.965 128.201 289.444 128.201 290.035C128.201 290.626 128.68 291.105 129.271 291.105Z" fill="#3A3A3A"/>
<path d="M136.015 291.105C136.606 291.105 137.085 290.626 137.085 290.035C137.085 289.444 136.606 288.965 136.015 288.965C135.424 288.965 134.944 289.444 134.944 290.035C134.944 290.626 135.424 291.105 136.015 291.105Z" fill="#3A3A3A"/>
<path d="M142.759 291.105C143.35 291.105 143.829 290.626 143.829 290.035C143.829 289.444 143.35 288.965 142.759 288.965C142.168 288.965 141.688 289.444 141.688 290.035C141.688 290.626 142.168 291.105 142.759 291.105Z" fill="#3A3A3A"/>
<path d="M149.501 291.105C150.092 291.105 150.571 290.626 150.571 290.035C150.571 289.444 150.092 288.965 149.501 288.965C148.91 288.965 148.431 289.444 148.431 290.035C148.431 290.626 148.91 291.105 149.501 291.105Z" fill="#3A3A3A"/>
<path d="M159.616 294.618C160.207 294.618 160.686 294.139 160.686 293.548C160.686 292.957 160.207 292.478 159.616 292.478C159.025 292.478 158.546 292.957 158.546 293.548C158.546 294.139 159.025 294.618 159.616 294.618Z" fill="#3A3A3A"/>
<path d="M166.36 294.618C166.951 294.618 167.431 294.139 167.431 293.548C167.431 292.957 166.951 292.478 166.36 292.478C165.769 292.478 165.29 292.957 165.29 293.548C165.29 294.139 165.769 294.618 166.36 294.618Z" fill="#3A3A3A"/>
<path d="M173.102 294.618C173.693 294.618 174.172 294.139 174.172 293.548C174.172 292.957 173.693 292.478 173.102 292.478C172.51 292.478 172.031 292.957 172.031 293.548C172.031 294.139 172.51 294.618 173.102 294.618Z" fill="#3A3A3A"/>
<path d="M179.846 294.618C180.437 294.618 180.916 294.139 180.916 293.548C180.916 292.957 180.437 292.478 179.846 292.478C179.255 292.478 178.775 292.957 178.775 293.548C178.775 294.139 179.255 294.618 179.846 294.618Z" fill="#3A3A3A"/>
<path d="M186.59 294.618C187.181 294.618 187.66 294.139 187.66 293.548C187.66 292.957 187.181 292.478 186.59 292.478C185.999 292.478 185.52 292.957 185.52 293.548C185.52 294.139 185.999 294.618 186.59 294.618Z" fill="#3A3A3A"/>
<path d="M193.332 294.618C193.923 294.618 194.402 294.139 194.402 293.548C194.402 292.957 193.923 292.478 193.332 292.478C192.741 292.478 192.262 292.957 192.262 293.548C192.262 294.139 192.741 294.618 193.332 294.618Z" fill="#3A3A3A"/>
<path d="M200.075 294.618C200.666 294.618 201.145 294.139 201.145 293.548C201.145 292.957 200.666 292.478 200.075 292.478C199.484 292.478 199.005 292.957 199.005 293.548C199.005 294.139 199.484 294.618 200.075 294.618Z" fill="#3A3A3A"/>
<path d="M112.414 294.618C113.005 294.618 113.484 294.139 113.484 293.548C113.484 292.957 113.005 292.478 112.414 292.478C111.823 292.478 111.344 292.957 111.344 293.548C111.344 294.139 111.823 294.618 112.414 294.618Z" fill="#3A3A3A"/>
<path d="M105.67 294.618C106.261 294.618 106.74 294.139 106.74 293.548C106.74 292.957 106.261 292.478 105.67 292.478C105.079 292.478 104.6 292.957 104.6 293.548C104.6 294.139 105.079 294.618 105.67 294.618Z" fill="#3A3A3A"/>
<path d="M119.158 294.618C119.749 294.618 120.228 294.139 120.228 293.548C120.228 292.957 119.749 292.478 119.158 292.478C118.567 292.478 118.088 292.957 118.088 293.548C118.088 294.139 118.567 294.618 119.158 294.618Z" fill="#3A3A3A"/>
<path d="M125.901 294.618C126.492 294.618 126.972 294.139 126.972 293.548C126.972 292.957 126.492 292.478 125.901 292.478C125.31 292.478 124.831 292.957 124.831 293.548C124.831 294.139 125.31 294.618 125.901 294.618Z" fill="#3A3A3A"/>
<path d="M132.644 294.618C133.235 294.618 133.714 294.139 133.714 293.548C133.714 292.957 133.235 292.478 132.644 292.478C132.052 292.478 131.573 292.957 131.573 293.548C131.573 294.139 132.052 294.618 132.644 294.618Z" fill="#3A3A3A"/>
<path d="M139.387 294.618C139.978 294.618 140.457 294.139 140.457 293.548C140.457 292.957 139.978 292.478 139.387 292.478C138.796 292.478 138.316 292.957 138.316 293.548C138.316 294.139 138.796 294.618 139.387 294.618Z" fill="#3A3A3A"/>
<path d="M146.13 294.618C146.721 294.618 147.2 294.139 147.2 293.548C147.2 292.957 146.721 292.478 146.13 292.478C145.539 292.478 145.06 292.957 145.06 293.548C145.06 294.139 145.539 294.618 146.13 294.618Z" fill="#3A3A3A"/>
<path d="M152.872 294.618C153.463 294.618 153.942 294.139 153.942 293.548C153.942 292.957 153.463 292.478 152.872 292.478C152.281 292.478 151.802 292.957 151.802 293.548C151.802 294.139 152.281 294.618 152.872 294.618Z" fill="#3A3A3A"/>
<path d="M156.245 298.132C156.836 298.132 157.315 297.653 157.315 297.061C157.315 296.47 156.836 295.991 156.245 295.991C155.654 295.991 155.175 296.47 155.175 297.061C155.175 297.653 155.654 298.132 156.245 298.132Z" fill="#3A3A3A"/>
<path d="M162.988 298.132C163.579 298.132 164.059 297.653 164.059 297.061C164.059 296.47 163.579 295.991 162.988 295.991C162.397 295.991 161.918 296.47 161.918 297.061C161.918 297.653 162.397 298.132 162.988 298.132Z" fill="#3A3A3A"/>
<path d="M169.73 298.132C170.322 298.132 170.801 297.653 170.801 297.061C170.801 296.47 170.322 295.991 169.73 295.991C169.139 295.991 168.66 296.47 168.66 297.061C168.66 297.653 169.139 298.132 169.73 298.132Z" fill="#3A3A3A"/>
<path d="M176.474 298.132C177.065 298.132 177.544 297.653 177.544 297.061C177.544 296.47 177.065 295.991 176.474 295.991C175.882 295.991 175.403 296.47 175.403 297.061C175.403 297.653 175.882 298.132 176.474 298.132Z" fill="#3A3A3A"/>
<path d="M183.218 298.132C183.809 298.132 184.288 297.653 184.288 297.061C184.288 296.47 183.809 295.991 183.218 295.991C182.627 295.991 182.147 296.47 182.147 297.061C182.147 297.653 182.627 298.132 183.218 298.132Z" fill="#3A3A3A"/>
<path d="M189.961 298.132C190.552 298.132 191.031 297.653 191.031 297.061C191.031 296.47 190.552 295.991 189.961 295.991C189.37 295.991 188.891 296.47 188.891 297.061C188.891 297.653 189.37 298.132 189.961 298.132Z" fill="#3A3A3A"/>
<path d="M196.703 298.132C197.294 298.132 197.773 297.653 197.773 297.061C197.773 296.47 197.294 295.991 196.703 295.991C196.112 295.991 195.633 296.47 195.633 297.061C195.633 297.653 196.112 298.132 196.703 298.132Z" fill="#3A3A3A"/>
<path d="M109.042 298.132C109.633 298.132 110.112 297.653 110.112 297.061C110.112 296.47 109.633 295.991 109.042 295.991C108.451 295.991 107.972 296.47 107.972 297.061C107.972 297.653 108.451 298.132 109.042 298.132Z" fill="#3A3A3A"/>
<path d="M102.299 298.132C102.89 298.132 103.369 297.653 103.369 297.061C103.369 296.47 102.89 295.991 102.299 295.991C101.708 295.991 101.229 296.47 101.229 297.061C101.229 297.653 101.708 298.132 102.299 298.132Z" fill="#3A3A3A"/>
<path d="M115.785 298.132C116.376 298.132 116.855 297.653 116.855 297.061C116.855 296.47 116.376 295.991 115.785 295.991C115.194 295.991 114.715 296.47 114.715 297.061C114.715 297.653 115.194 298.132 115.785 298.132Z" fill="#3A3A3A"/>
<path d="M122.529 298.132C123.12 298.132 123.6 297.653 123.6 297.061C123.6 296.47 123.12 295.991 122.529 295.991C121.938 295.991 121.459 296.47 121.459 297.061C121.459 297.653 121.938 298.132 122.529 298.132Z" fill="#3A3A3A"/>
<path d="M129.271 298.132C129.863 298.132 130.342 297.653 130.342 297.061C130.342 296.47 129.863 295.991 129.271 295.991C128.68 295.991 128.201 296.47 128.201 297.061C128.201 297.653 128.68 298.132 129.271 298.132Z" fill="#3A3A3A"/>
<path d="M136.015 298.132C136.606 298.132 137.085 297.653 137.085 297.061C137.085 296.47 136.606 295.991 136.015 295.991C135.424 295.991 134.944 296.47 134.944 297.061C134.944 297.653 135.424 298.132 136.015 298.132Z" fill="#3A3A3A"/>
<path d="M142.759 298.132C143.35 298.132 143.829 297.653 143.829 297.061C143.829 296.47 143.35 295.991 142.759 295.991C142.168 295.991 141.688 296.47 141.688 297.061C141.688 297.653 142.168 298.132 142.759 298.132Z" fill="#3A3A3A"/>
<path d="M149.501 298.132C150.092 298.132 150.571 297.653 150.571 297.061C150.571 296.47 150.092 295.991 149.501 295.991C148.91 295.991 148.431 296.47 148.431 297.061C148.431 297.653 148.91 298.132 149.501 298.132Z" fill="#3A3A3A"/>
<path d="M206.725 280.565C207.316 280.565 207.795 280.086 207.795 279.495C207.795 278.904 207.316 278.425 206.725 278.425C206.133 278.425 205.654 278.904 205.654 279.495C205.654 280.086 206.133 280.565 206.725 280.565Z" fill="#3A3A3A"/>
<path d="M213.467 280.565C214.058 280.565 214.537 280.086 214.537 279.495C214.537 278.904 214.058 278.425 213.467 278.425C212.876 278.425 212.396 278.904 212.396 279.495C212.396 280.086 212.876 280.565 213.467 280.565Z" fill="#3A3A3A"/>
<path d="M220.21 280.565C220.801 280.565 221.28 280.086 221.28 279.495C221.28 278.904 220.801 278.425 220.21 278.425C219.619 278.425 219.14 278.904 219.14 279.495C219.14 280.086 219.619 280.565 220.21 280.565Z" fill="#3A3A3A"/>
<path d="M226.954 280.565C227.545 280.565 228.024 280.086 228.024 279.495C228.024 278.904 227.545 278.425 226.954 278.425C226.363 278.425 225.884 278.904 225.884 279.495C225.884 280.086 226.363 280.565 226.954 280.565Z" fill="#3A3A3A"/>
<path d="M233.695 280.565C234.286 280.565 234.766 280.086 234.766 279.495C234.766 278.904 234.286 278.425 233.695 278.425C233.104 278.425 232.625 278.904 232.625 279.495C232.625 280.086 233.104 280.565 233.695 280.565Z" fill="#3A3A3A"/>
<path d="M240.439 280.565C241.031 280.565 241.51 280.086 241.51 279.495C241.51 278.904 241.031 278.425 240.439 278.425C239.848 278.425 239.369 278.904 239.369 279.495C239.369 280.086 239.848 280.565 240.439 280.565Z" fill="#3A3A3A"/>
<path d="M247.184 280.565C247.775 280.565 248.254 280.086 248.254 279.495C248.254 278.904 247.775 278.425 247.184 278.425C246.593 278.425 246.113 278.904 246.113 279.495C246.113 280.086 246.593 280.565 247.184 280.565Z" fill="#3A3A3A"/>
<path d="M250.555 284.078C251.146 284.078 251.625 283.599 251.625 283.008C251.625 282.417 251.146 281.938 250.555 281.938C249.964 281.938 249.484 282.417 249.484 283.008C249.484 283.599 249.964 284.078 250.555 284.078Z" fill="#3A3A3A"/>
<path d="M203.353 284.078C203.945 284.078 204.424 283.599 204.424 283.008C204.424 282.417 203.945 281.938 203.353 281.938C202.762 281.938 202.283 282.417 202.283 283.008C202.283 283.599 202.762 284.078 203.353 284.078Z" fill="#3A3A3A"/>
<path d="M210.097 284.078C210.688 284.078 211.167 283.599 211.167 283.008C211.167 282.417 210.688 281.938 210.097 281.938C209.506 281.938 209.026 282.417 209.026 283.008C209.026 283.599 209.506 284.078 210.097 284.078Z" fill="#3A3A3A"/>
<path d="M216.839 284.078C217.43 284.078 217.909 283.599 217.909 283.008C217.909 282.417 217.43 281.938 216.839 281.938C216.248 281.938 215.769 282.417 215.769 283.008C215.769 283.599 216.248 284.078 216.839 284.078Z" fill="#3A3A3A"/>
<path d="M223.583 284.078C224.174 284.078 224.653 283.599 224.653 283.008C224.653 282.417 224.174 281.938 223.583 281.938C222.992 281.938 222.513 282.417 222.513 283.008C222.513 283.599 222.992 284.078 223.583 284.078Z" fill="#3A3A3A"/>
<path d="M230.326 284.078C230.917 284.078 231.396 283.599 231.396 283.008C231.396 282.417 230.917 281.938 230.326 281.938C229.735 281.938 229.256 282.417 229.256 283.008C229.256 283.599 229.735 284.078 230.326 284.078Z" fill="#3A3A3A"/>
<path d="M237.068 284.078C237.659 284.078 238.139 283.599 238.139 283.008C238.139 282.417 237.659 281.938 237.068 281.938C236.477 281.938 235.998 282.417 235.998 283.008C235.998 283.599 236.477 284.078 237.068 284.078Z" fill="#3A3A3A"/>
<path d="M243.812 284.078C244.403 284.078 244.882 283.599 244.882 283.008C244.882 282.417 244.403 281.938 243.812 281.938C243.22 281.938 242.741 282.417 242.741 283.008C242.741 283.599 243.22 284.078 243.812 284.078Z" fill="#3A3A3A"/>
<path d="M253.928 287.592C254.519 287.592 254.998 287.113 254.998 286.521C254.998 285.93 254.519 285.451 253.928 285.451C253.337 285.451 252.857 285.93 252.857 286.521C252.857 287.113 253.337 287.592 253.928 287.592Z" fill="#3A3A3A"/>
<path d="M206.725 287.592C207.316 287.592 207.795 287.113 207.795 286.521C207.795 285.93 207.316 285.451 206.725 285.451C206.133 285.451 205.654 285.93 205.654 286.521C205.654 287.113 206.133 287.592 206.725 287.592Z" fill="#3A3A3A"/>
<path d="M213.467 287.592C214.058 287.592 214.537 287.113 214.537 286.521C214.537 285.93 214.058 285.451 213.467 285.451C212.876 285.451 212.396 285.93 212.396 286.521C212.396 287.113 212.876 287.592 213.467 287.592Z" fill="#3A3A3A"/>
<path d="M220.21 287.592C220.801 287.592 221.28 287.113 221.28 286.521C221.28 285.93 220.801 285.451 220.21 285.451C219.619 285.451 219.14 285.93 219.14 286.521C219.14 287.113 219.619 287.592 220.21 287.592Z" fill="#3A3A3A"/>
<path d="M226.954 287.592C227.545 287.592 228.024 287.113 228.024 286.521C228.024 285.93 227.545 285.451 226.954 285.451C226.363 285.451 225.884 285.93 225.884 286.521C225.884 287.113 226.363 287.592 226.954 287.592Z" fill="#3A3A3A"/>
<path d="M233.695 287.592C234.286 287.592 234.766 287.113 234.766 286.521C234.766 285.93 234.286 285.451 233.695 285.451C233.104 285.451 232.625 285.93 232.625 286.521C232.625 287.113 233.104 287.592 233.695 287.592Z" fill="#3A3A3A"/>
<path d="M240.439 287.592C241.031 287.592 241.51 287.113 241.51 286.521C241.51 285.93 241.031 285.451 240.439 285.451C239.848 285.451 239.369 285.93 239.369 286.521C239.369 287.113 239.848 287.592 240.439 287.592Z" fill="#3A3A3A"/>
<path d="M247.184 287.592C247.775 287.592 248.254 287.113 248.254 286.521C248.254 285.93 247.775 285.451 247.184 285.451C246.593 285.451 246.113 285.93 246.113 286.521C246.113 287.113 246.593 287.592 247.184 287.592Z" fill="#3A3A3A"/>
<path d="M250.555 291.105C251.146 291.105 251.625 290.626 251.625 290.035C251.625 289.444 251.146 288.965 250.555 288.965C249.964 288.965 249.484 289.444 249.484 290.035C249.484 290.626 249.964 291.105 250.555 291.105Z" fill="#3A3A3A"/>
<path d="M257.297 291.105C257.888 291.105 258.367 290.626 258.367 290.035C258.367 289.444 257.888 288.965 257.297 288.965C256.706 288.965 256.227 289.444 256.227 290.035C256.227 290.626 256.706 291.105 257.297 291.105Z" fill="#3A3A3A"/>
<path d="M203.353 291.105C203.945 291.105 204.424 290.626 204.424 290.035C204.424 289.444 203.945 288.965 203.353 288.965C202.762 288.965 202.283 289.444 202.283 290.035C202.283 290.626 202.762 291.105 203.353 291.105Z" fill="#3A3A3A"/>
<path d="M210.097 291.105C210.688 291.105 211.167 290.626 211.167 290.035C211.167 289.444 210.688 288.965 210.097 288.965C209.506 288.965 209.026 289.444 209.026 290.035C209.026 290.626 209.506 291.105 210.097 291.105Z" fill="#3A3A3A"/>
<path d="M216.839 291.105C217.43 291.105 217.909 290.626 217.909 290.035C217.909 289.444 217.43 288.965 216.839 288.965C216.248 288.965 215.769 289.444 215.769 290.035C215.769 290.626 216.248 291.105 216.839 291.105Z" fill="#3A3A3A"/>
<path d="M223.583 291.105C224.174 291.105 224.653 290.626 224.653 290.035C224.653 289.444 224.174 288.965 223.583 288.965C222.992 288.965 222.513 289.444 222.513 290.035C222.513 290.626 222.992 291.105 223.583 291.105Z" fill="#3A3A3A"/>
<path d="M230.326 291.105C230.917 291.105 231.396 290.626 231.396 290.035C231.396 289.444 230.917 288.965 230.326 288.965C229.735 288.965 229.256 289.444 229.256 290.035C229.256 290.626 229.735 291.105 230.326 291.105Z" fill="#3A3A3A"/>
<path d="M237.068 291.105C237.659 291.105 238.139 290.626 238.139 290.035C238.139 289.444 237.659 288.965 237.068 288.965C236.477 288.965 235.998 289.444 235.998 290.035C235.998 290.626 236.477 291.105 237.068 291.105Z" fill="#3A3A3A"/>
<path d="M243.812 291.105C244.403 291.105 244.882 290.626 244.882 290.035C244.882 289.444 244.403 288.965 243.812 288.965C243.22 288.965 242.741 289.444 242.741 290.035C242.741 290.626 243.22 291.105 243.812 291.105Z" fill="#3A3A3A"/>
<path d="M253.928 294.618C254.519 294.618 254.998 294.139 254.998 293.548C254.998 292.957 254.519 292.478 253.928 292.478C253.337 292.478 252.857 292.957 252.857 293.548C252.857 294.139 253.337 294.618 253.928 294.618Z" fill="#3A3A3A"/>
<path d="M260.67 294.618C261.261 294.618 261.74 294.139 261.74 293.548C261.74 292.957 261.261 292.478 260.67 292.478C260.079 292.478 259.6 292.957 259.6 293.548C259.6 294.139 260.079 294.618 260.67 294.618Z" fill="#3A3A3A"/>
<path d="M206.725 294.618C207.316 294.618 207.795 294.139 207.795 293.548C207.795 292.957 207.316 292.478 206.725 292.478C206.133 292.478 205.654 292.957 205.654 293.548C205.654 294.139 206.133 294.618 206.725 294.618Z" fill="#3A3A3A"/>
<path d="M213.467 294.618C214.058 294.618 214.537 294.139 214.537 293.548C214.537 292.957 214.058 292.478 213.467 292.478C212.876 292.478 212.396 292.957 212.396 293.548C212.396 294.139 212.876 294.618 213.467 294.618Z" fill="#3A3A3A"/>
<path d="M220.21 294.618C220.801 294.618 221.28 294.139 221.28 293.548C221.28 292.957 220.801 292.478 220.21 292.478C219.619 292.478 219.14 292.957 219.14 293.548C219.14 294.139 219.619 294.618 220.21 294.618Z" fill="#3A3A3A"/>
<path d="M226.954 294.618C227.545 294.618 228.024 294.139 228.024 293.548C228.024 292.957 227.545 292.478 226.954 292.478C226.363 292.478 225.884 292.957 225.884 293.548C225.884 294.139 226.363 294.618 226.954 294.618Z" fill="#3A3A3A"/>
<path d="M233.695 294.618C234.286 294.618 234.766 294.139 234.766 293.548C234.766 292.957 234.286 292.478 233.695 292.478C233.104 292.478 232.625 292.957 232.625 293.548C232.625 294.139 233.104 294.618 233.695 294.618Z" fill="#3A3A3A"/>
<path d="M240.439 294.618C241.031 294.618 241.51 294.139 241.51 293.548C241.51 292.957 241.031 292.478 240.439 292.478C239.848 292.478 239.369 292.957 239.369 293.548C239.369 294.139 239.848 294.618 240.439 294.618Z" fill="#3A3A3A"/>
<path d="M247.184 294.618C247.775 294.618 248.254 294.139 248.254 293.548C248.254 292.957 247.775 292.478 247.184 292.478C246.593 292.478 246.113 292.957 246.113 293.548C246.113 294.139 246.593 294.618 247.184 294.618Z" fill="#3A3A3A"/>
<path d="M250.555 298.132C251.146 298.132 251.625 297.653 251.625 297.061C251.625 296.47 251.146 295.991 250.555 295.991C249.964 295.991 249.484 296.47 249.484 297.061C249.484 297.653 249.964 298.132 250.555 298.132Z" fill="#3A3A3A"/>
<path d="M257.297 298.132C257.888 298.132 258.367 297.653 258.367 297.061C258.367 296.47 257.888 295.991 257.297 295.991C256.706 295.991 256.227 296.47 256.227 297.061C256.227 297.653 256.706 298.132 257.297 298.132Z" fill="#3A3A3A"/>
<path d="M264.041 298.132C264.632 298.132 265.111 297.653 265.111 297.061C265.111 296.47 264.632 295.991 264.041 295.991C263.45 295.991 262.971 296.47 262.971 297.061C262.971 297.653 263.45 298.132 264.041 298.132Z" fill="#3A3A3A"/>
<path d="M203.353 298.132C203.945 298.132 204.424 297.653 204.424 297.061C204.424 296.47 203.945 295.991 203.353 295.991C202.762 295.991 202.283 296.47 202.283 297.061C202.283 297.653 202.762 298.132 203.353 298.132Z" fill="#3A3A3A"/>
<path d="M210.097 298.132C210.688 298.132 211.167 297.653 211.167 297.061C211.167 296.47 210.688 295.991 210.097 295.991C209.506 295.991 209.026 296.47 209.026 297.061C209.026 297.653 209.506 298.132 210.097 298.132Z" fill="#3A3A3A"/>
<path d="M216.839 298.132C217.43 298.132 217.909 297.653 217.909 297.061C217.909 296.47 217.43 295.991 216.839 295.991C216.248 295.991 215.769 296.47 215.769 297.061C215.769 297.653 216.248 298.132 216.839 298.132Z" fill="#3A3A3A"/>
<path d="M223.583 298.132C224.174 298.132 224.653 297.653 224.653 297.061C224.653 296.47 224.174 295.991 223.583 295.991C222.992 295.991 222.513 296.47 222.513 297.061C222.513 297.653 222.992 298.132 223.583 298.132Z" fill="#3A3A3A"/>
<path d="M230.326 298.132C230.917 298.132 231.396 297.653 231.396 297.061C231.396 296.47 230.917 295.991 230.326 295.991C229.735 295.991 229.256 296.47 229.256 297.061C229.256 297.653 229.735 298.132 230.326 298.132Z" fill="#3A3A3A"/>
<path d="M237.068 298.132C237.659 298.132 238.139 297.653 238.139 297.061C238.139 296.47 237.659 295.991 237.068 295.991C236.477 295.991 235.998 296.47 235.998 297.061C235.998 297.653 236.477 298.132 237.068 298.132Z" fill="#3A3A3A"/>
<path d="M243.812 298.132C244.403 298.132 244.882 297.653 244.882 297.061C244.882 296.47 244.403 295.991 243.812 295.991C243.22 295.991 242.741 296.47 242.741 297.061C242.741 297.653 243.22 298.132 243.812 298.132Z" fill="#3A3A3A"/>
<path d="M253.996 280.565C254.587 280.565 255.066 280.086 255.066 279.495C255.066 278.904 254.587 278.425 253.996 278.425C253.405 278.425 252.926 278.904 252.926 279.495C252.926 280.086 253.405 280.565 253.996 280.565Z" fill="#3A3A3A"/>
<path d="M260.738 280.565C261.329 280.565 261.809 280.086 261.809 279.495C261.809 278.904 261.329 278.425 260.738 278.425C260.147 278.425 259.668 278.904 259.668 279.495C259.668 280.086 260.147 280.565 260.738 280.565Z" fill="#3A3A3A"/>
<path d="M264.109 284.078C264.7 284.078 265.18 283.599 265.18 283.008C265.18 282.417 264.7 281.938 264.109 281.938C263.518 281.938 263.039 282.417 263.039 283.008C263.039 283.599 263.518 284.078 264.109 284.078Z" fill="#3A3A3A"/>
<path d="M257.366 284.078C257.957 284.078 258.436 283.599 258.436 283.008C258.436 282.417 257.957 281.938 257.366 281.938C256.775 281.938 256.296 282.417 256.296 283.008C256.296 283.599 256.775 284.078 257.366 284.078Z" fill="#3A3A3A"/>
<path d="M267.482 287.592C268.073 287.592 268.553 287.113 268.553 286.521C268.553 285.93 268.073 285.451 267.482 285.451C266.891 285.451 266.412 285.93 266.412 286.521C266.412 287.113 266.891 287.592 267.482 287.592Z" fill="#3A3A3A"/>
<path d="M260.738 287.592C261.329 287.592 261.809 287.113 261.809 286.521C261.809 285.93 261.329 285.451 260.738 285.451C260.147 285.451 259.668 285.93 259.668 286.521C259.668 287.113 260.147 287.592 260.738 287.592Z" fill="#3A3A3A"/>
<path d="M264.109 291.105C264.7 291.105 265.18 290.626 265.18 290.035C265.18 289.444 264.7 288.965 264.109 288.965C263.518 288.965 263.039 289.444 263.039 290.035C263.039 290.626 263.518 291.105 264.109 291.105Z" fill="#3A3A3A"/>
<path d="M270.854 291.105C271.445 291.105 271.924 290.626 271.924 290.035C271.924 289.444 271.445 288.965 270.854 288.965C270.262 288.965 269.783 289.444 269.783 290.035C269.783 290.626 270.262 291.105 270.854 291.105Z" fill="#3A3A3A"/>
<path d="M267.482 294.618C268.073 294.618 268.553 294.139 268.553 293.548C268.553 292.957 268.073 292.478 267.482 292.478C266.891 292.478 266.412 292.957 266.412 293.548C266.412 294.139 266.891 294.618 267.482 294.618Z" fill="#3A3A3A"/>
<path d="M274.226 294.618C274.817 294.618 275.296 294.139 275.296 293.548C275.296 292.957 274.817 292.478 274.226 292.478C273.634 292.478 273.155 292.957 273.155 293.548C273.155 294.139 273.634 294.618 274.226 294.618Z" fill="#3A3A3A"/>
<path d="M270.854 298.132C271.445 298.132 271.924 297.653 271.924 297.061C271.924 296.47 271.445 295.991 270.854 295.991C270.262 295.991 269.783 296.47 269.783 297.061C269.783 297.653 270.262 298.132 270.854 298.132Z" fill="#3A3A3A"/>
<path d="M277.595 298.132C278.186 298.132 278.665 297.653 278.665 297.061C278.665 296.47 278.186 295.991 277.595 295.991C277.004 295.991 276.524 296.47 276.524 297.061C276.524 297.653 277.004 298.132 277.595 298.132Z" fill="#3A3A3A"/>
<path d="M158.723 168.958V161.016C158.723 157.917 158.112 154.847 156.926 151.984C155.74 149.12 154.001 146.518 151.809 144.326C149.618 142.135 147.016 140.396 144.152 139.21C141.288 138.024 138.219 137.413 135.119 137.413H98.2818C92.2747 137.412 86.4128 139.26 81.4924 142.706C76.5719 146.152 72.8312 151.029 70.7783 156.674L62.1001 180.529C59.229 188.424 61.5444 196.55 66.831 201.854C71.8565 206.897 79.3426 208.596 86.1296 206.442L97.4511 201.285L101.422 207.115L158.723 168.958Z" fill="#86C4CF"/>
<path d="M84.3222 140.96H147.558C147.055 140.646 146.541 140.352 146.016 140.078H86.0838C85.5398 140.328 85.0017 140.595 84.4754 140.879C84.4224 140.905 84.3713 140.932 84.3222 140.96Z" fill="#F2F2F2"/>
<path d="M77.9975 145.588H152.973C152.713 145.289 152.446 144.999 152.171 144.708H78.9499C78.6279 144.999 78.3117 145.285 77.9975 145.588Z" fill="#F2F2F2"/>
<path d="M74.0899 150.216H156.115L155.986 149.966C155.872 149.754 155.758 149.544 155.638 149.334H74.7281C74.6005 149.503 74.4767 149.678 74.355 149.852C74.2548 149.972 74.1724 150.09 74.0899 150.216Z" fill="#F2F2F2"/>
<path d="M71.5212 154.842H157.906C157.828 154.545 157.741 154.253 157.649 153.96H71.9277C71.7863 154.251 71.6508 154.545 71.5212 154.842Z" fill="#F2F2F2"/>
<path d="M69.7623 159.47H158.667C158.651 159.175 158.624 158.88 158.596 158.59H70.0805L69.7623 159.47Z" fill="#F2F2F2"/>
<path d="M68.08 164.098H158.723V163.216H68.4001L68.08 164.098Z" fill="#F2F2F2"/>
<path d="M66.397 168.725H158.723V167.843H66.7171L66.397 168.725Z" fill="#F2F2F2"/>
<path d="M64.7134 173.351H152.131L153.225 172.623L153.455 172.47H65.0315L64.7134 173.351Z" fill="#F2F2F2"/>
<path d="M63.0282 177.978H145.183L146.507 177.099H63.3483L63.0282 177.978Z" fill="#F2F2F2"/>
<path d="M61.458 182.606H138.234L139.344 181.868L139.558 181.725H61.7074C61.619 182.017 61.5385 182.312 61.458 182.606Z" fill="#F2F2F2"/>
<path d="M60.8588 187.234H131.286L132.607 186.353H60.8922C60.8686 186.649 60.8686 186.942 60.8588 187.234Z" fill="#F2F2F2"/>
<path d="M61.1611 190.98C61.2121 191.275 61.271 191.57 61.3378 191.86H124.336L125.461 191.112L125.657 190.98H61.1611Z" fill="#F2F2F2"/>
<path d="M62.5679 195.607C62.6989 195.905 62.8364 196.199 62.9804 196.489H117.379L118.702 195.607H62.5679Z" fill="#F2F2F2"/>
<path d="M65.376 200.234C65.5685 200.473 65.7649 200.706 65.9652 200.935L66.1243 201.116H110.438L111.359 200.501L111.752 200.234H65.376Z" fill="#F2F2F2"/>
<path d="M120.615 137.416V194.34L121.497 193.751V137.416H120.615Z" fill="#F2F2F2"/>
<path d="M115.986 137.416V197.419L116.868 196.834V137.416H115.986Z" fill="#F2F2F2"/>
<path d="M111.358 137.416V200.5L111.759 200.233L112.24 199.913V137.416H111.358Z" fill="#F2F2F2"/>
<path d="M106.732 137.416V203.583L107.614 202.994V137.416H106.732Z" fill="#F2F2F2"/>
<path d="M102.106 137.416V206.663L102.985 206.077V137.416H102.106Z" fill="#F2F2F2"/>
<path d="M97.4766 137.429V201.326L98.3584 202.62V137.421H98.2818H97.8577H97.5277L97.4766 137.429Z" fill="#F2F2F2"/>
<path d="M92.8497 137.93V204.307L93.7314 204.026V137.772C93.4349 137.818 93.1423 137.869 92.8497 137.93Z" fill="#F2F2F2"/>
<path d="M88.2227 139.2V205.774L89.1025 205.495V138.894C88.808 138.988 88.5134 139.092 88.2227 139.2Z" fill="#F2F2F2"/>
<path d="M83.5938 141.37V207.066C83.8904 207.015 84.183 206.954 84.4756 206.889V140.875C84.4226 140.901 84.3715 140.928 84.3224 140.956C84.0769 141.093 83.8354 141.228 83.5938 141.37Z" fill="#F2F2F2"/>
<path d="M78.9679 144.694V207.319C79.2605 207.339 79.557 207.351 79.8496 207.356V143.95C79.5511 144.192 79.2572 144.44 78.9679 144.694Z" fill="#F2F2F2"/>
<path d="M74.3409 149.852V206.438C74.4803 206.485 74.6197 206.528 74.7611 206.57L75.1009 206.666L75.2227 206.699V148.664C75.0479 148.884 74.879 149.108 74.714 149.334C74.5864 149.503 74.4627 149.677 74.3409 149.852Z" fill="#F2F2F2"/>
<path d="M69.7062 159.608V204.214C69.8456 204.309 69.987 204.411 70.1284 204.489C70.2698 204.568 70.3935 204.652 70.5212 204.731L70.5801 204.768V157.187L70.0715 158.587L69.7494 159.468L69.7062 159.608Z" fill="#F2F2F2"/>
<path d="M65.0851 172.329V199.865C65.1793 199.989 65.2814 200.115 65.3757 200.235C65.5681 200.473 65.7645 200.707 65.9648 200.936V169.907L65.0851 172.329Z" fill="#F2F2F2"/>
<path d="M153.227 145.881V172.622L153.456 172.469L154.108 172.035V146.998C153.826 146.617 153.533 146.244 153.227 145.881Z" fill="#F2F2F2"/>
<path d="M148.599 141.645V175.705L149.48 175.116V142.289C149.192 142.065 148.897 141.857 148.599 141.645Z" fill="#F2F2F2"/>
<path d="M143.971 139.133V178.777L144.853 178.188V139.5C144.562 139.38 144.269 139.253 143.971 139.133Z" fill="#F2F2F2"/>
<path d="M139.344 137.794V181.868L139.558 181.725L140.226 181.279V137.973C139.935 137.906 139.638 137.847 139.344 137.794Z" fill="#F2F2F2"/>
<path d="M134.709 137.416V184.941L135.591 184.352V137.416H135.112H134.709Z" fill="#F2F2F2"/>
<path d="M130.088 137.416V188.028L130.97 187.443V137.416H130.088Z" fill="#F2F2F2"/>
<path d="M125.462 137.416V191.111L125.66 190.98L126.344 190.522V137.416H125.462Z" fill="#F2F2F2"/>
<path d="M88.765 178.214L95.874 163.656" stroke="#59221D" stroke-width="0.916941" stroke-linecap="round" stroke-linejoin="round"/>
<path d="M67.2952 203.083C73.2299 210.167 86.4386 207.339 90.1483 205.832C100.511 201.61 114.038 190.143 116.99 188.354C117.451 187.994 118.015 187.788 118.6 187.768C119.185 187.747 119.762 187.912 120.248 188.239L127.471 194.012C129.34 195.33 131.216 195.399 132.944 193.9L142.27 186.017L144.246 187.066C145.259 187.622 146.45 187.756 147.561 187.439C147.888 187.331 148.178 187.132 148.396 186.865C148.615 186.599 148.752 186.275 148.794 185.933C148.835 185.591 148.778 185.244 148.629 184.933C148.48 184.622 148.246 184.36 147.954 184.177L132.754 174.604C128.81 172.021 124.198 170.646 119.484 170.645H118.502C115.843 170.645 113.19 170.902 110.58 171.412L79.3747 178.836C69.4554 180.468 57.1539 190.98 67.2952 203.083Z" fill="#A74602"/>
<path d="M142.148 186.051L134.702 181.526" stroke="#59221D" stroke-width="0.916941" stroke-linecap="round" stroke-linejoin="round"/>
<path d="M138.39 188.901L131.308 184.657" stroke="#59221D" stroke-width="0.916941" stroke-linecap="round" stroke-linejoin="round"/>
<path d="M134.769 192.064L127.685 187.818" stroke="#59221D" stroke-width="0.916941" stroke-linecap="round" stroke-linejoin="round"/>
<path d="M121.297 146.649L105.47 137.417L110.863 126.983L121.297 130.249V146.649Z" fill="#A74602"/>
<path d="M121.297 130.349V146.648L105.47 137.416" stroke="#59221D" stroke-width="0.916941" stroke-linecap="round" stroke-linejoin="round"/>
<path d="M121.297 137.553L113.809 132.924C112.908 132.367 112.165 131.589 111.65 130.664C111.134 129.739 110.863 128.698 110.863 127.639V126.983L121.297 130.249V137.553Z" fill="#59221D"/>
<path d="M107.742 124.408V125.044C107.742 125.736 108.017 126.4 108.506 126.889C108.995 127.378 109.658 127.654 110.35 127.654H112.143L112.498 128.345C112.95 129.229 113.624 129.98 114.454 130.524C115.284 131.069 116.241 131.388 117.231 131.45L120.688 131.647C121.03 131.668 121.373 131.619 121.696 131.502C122.019 131.385 122.315 131.204 122.565 130.969C122.815 130.734 123.014 130.45 123.15 130.135C123.286 129.82 123.357 129.48 123.356 129.137V121.409C123.356 120.271 122.904 119.179 122.099 118.374C121.294 117.568 120.202 117.116 119.064 117.116H117.754C116.784 117.116 115.842 117.445 115.083 118.049C114.323 118.652 113.791 119.496 113.573 120.441L113.036 122.756C112.845 122.462 112.583 122.22 112.274 122.053C111.966 121.885 111.62 121.797 111.269 121.796H110.358C110.014 121.795 109.674 121.862 109.357 121.993C109.039 122.124 108.751 122.316 108.508 122.559C108.265 122.802 108.072 123.09 107.941 123.407C107.809 123.724 107.742 124.065 107.742 124.408Z" fill="#A74602"/>
<path d="M123.138 121.582H120.862L121.335 126.262H119.909" stroke="#59221D" stroke-width="0.916941" stroke-linecap="round" stroke-linejoin="round"/>
<path d="M118.229 121.579L115.416 121.803" stroke="#59221D" stroke-width="0.916941" stroke-linecap="round" stroke-linejoin="round"/>
<path d="M110.244 123.523C110.675 123.523 111.088 123.695 111.393 123.999C111.697 124.304 111.868 124.717 111.868 125.148" stroke="#59221D" stroke-width="0.916941" stroke-linecap="round" stroke-linejoin="round"/>
<path d="M117.245 124.727C116.992 124.727 116.787 124.363 116.787 123.914C116.787 123.465 116.992 123.101 117.245 123.101C117.497 123.101 117.702 123.465 117.702 123.914C117.702 124.363 117.497 124.727 117.245 124.727Z" fill="#59221D"/>
<path d="M122.753 124.727C122.501 124.727 122.296 124.363 122.296 123.914C122.296 123.465 122.501 123.101 122.753 123.101C123.006 123.101 123.211 123.465 123.211 123.914C123.211 124.363 123.006 124.727 122.753 124.727Z" fill="#59221D"/>
<path d="M120.847 128.346H119.771C119.285 128.347 118.816 128.169 118.453 127.848" stroke="#59221D" stroke-width="0.916941" stroke-linecap="round" stroke-linejoin="round"/>
<path d="M108.871 119.666C108.87 120.476 109.154 121.26 109.673 121.881C109.893 121.821 110.121 121.791 110.35 121.791H111.263C111.614 121.792 111.96 121.88 112.268 122.048C112.577 122.215 112.839 122.457 113.031 122.751L113.567 120.436C113.708 119.823 113.983 119.249 114.372 118.755C114.745 119.209 115.239 119.549 115.796 119.737C116.152 119.86 116.526 119.922 116.903 119.921C117.608 119.926 118.296 119.707 118.867 119.295C119.204 119.058 119.486 118.752 119.696 118.397C119.905 118.043 120.037 117.648 120.083 117.239C120.883 117.434 121.61 117.856 122.177 118.453C122.744 119.05 123.128 119.798 123.282 120.607C123.742 120.392 124.149 120.079 124.475 119.689C124.8 119.299 125.036 118.843 125.166 118.352C125.296 117.861 125.316 117.348 125.226 116.848C125.135 116.349 124.936 115.875 124.642 115.461C124.349 115.047 123.968 114.702 123.526 114.452C123.085 114.201 122.593 114.051 122.087 114.011C121.581 113.971 121.072 114.043 120.597 114.221C120.122 114.399 119.691 114.68 119.337 115.043C119.026 114.711 118.65 114.446 118.233 114.267C117.815 114.087 117.364 113.996 116.909 114C115.313 114 113.991 115.088 113.757 116.508C113.311 116.306 112.827 116.203 112.337 116.204C111.419 116.204 110.538 116.568 109.888 117.218C109.238 117.867 108.872 118.747 108.871 119.666Z" fill="#59221D"/>
<path d="M137.535 182.032H179.508L187.636 156.416C187.76 156.028 187.79 155.616 187.724 155.214C187.658 154.812 187.498 154.432 187.258 154.103C187.017 153.775 186.703 153.508 186.34 153.324C185.976 153.139 185.575 153.044 185.168 153.044H149.852C148.947 153.044 148.066 153.332 147.336 153.866C146.606 154.4 146.065 155.153 145.791 156.015L137.535 182.032Z" fill="#16488D"/>
<path d="M236.357 276.765H43.6654V183.152L85.6023 183.151L204.357 189L236.357 203V276.765Z" fill="#F2F2F2" stroke="#F2AF2A" stroke-width="2.74557" stroke-linecap="round" stroke-linejoin="round"/>
<path d="M43.6658 182.21H194.407L236.764 203.788H43.6658V182.21Z" fill="#F2AF2A"/>
<path d="M106.711 94.8148C106.711 103.512 99.6605 110.563 90.9633 110.563C82.266 110.563 75.2155 103.512 75.2155 94.8148C75.2155 86.1176 82.266 79.0671 90.9633 79.0671C99.6605 79.0671 106.711 86.1176 106.711 94.8148Z" fill="white" stroke="#DB3319" stroke-width="0.183007"/>
<path d="M89.3148 109.419C98.0626 109.419 105.154 102.327 105.154 93.5795C105.154 84.8317 98.0626 77.7402 89.3148 77.7402C80.5671 77.7402 73.4756 84.8317 73.4756 93.5795C73.4756 102.327 80.5671 109.419 89.3148 109.419Z" stroke="#DB3319" stroke-width="0.732027" stroke-linecap="round" stroke-linejoin="round"/>
<path d="M90.1785 81.0276C90.1785 81.5046 89.7918 81.8914 89.3147 81.8914C88.8376 81.8914 88.4509 81.5046 88.4509 81.0276C88.4509 80.5505 88.8376 80.1638 89.3147 80.1638C89.7918 80.1638 90.1785 80.5505 90.1785 81.0276Z" fill="#F2AF2A" stroke="#DB3319" stroke-width="0.183007"/>
<path d="M90.1785 106.132C90.1785 106.609 89.7918 106.996 89.3147 106.996C88.8376 106.996 88.4509 106.609 88.4509 106.132C88.4509 105.655 88.8376 105.268 89.3147 105.268C89.7918 105.268 90.1785 105.655 90.1785 106.132Z" fill="#F2AF2A" stroke="#DB3319" stroke-width="0.183007"/>
<path d="M77.6267 93.5803C77.6267 94.0574 77.24 94.4441 76.7629 94.4441C76.2858 94.4441 75.8991 94.0574 75.8991 93.5803C75.8991 93.1032 76.2858 92.7165 76.7629 92.7165C77.24 92.7165 77.6267 93.1032 77.6267 93.5803Z" fill="#F2AF2A" stroke="#DB3319" stroke-width="0.183007"/>
<path d="M102.733 93.5803C102.733 94.0574 102.346 94.4441 101.869 94.4441C101.392 94.4441 101.006 94.0574 101.006 93.5803C101.006 93.1032 101.392 92.7165 101.869 92.7165C102.346 92.7165 102.733 93.1032 102.733 93.5803Z" fill="#F2AF2A" stroke="#DB3319" stroke-width="0.183007"/>
<path d="M84.4521 89.444L89.278 94.0137L94.7645 84.9658" stroke="#DB3319" stroke-width="0.732027" stroke-linecap="round" stroke-linejoin="round"/>
</svg>
