<svg width="34" height="34" viewBox="0 0 34 34" fill="none" xmlns="http://www.w3.org/2000/svg">
<path d="M24.5835 9.91634V9.41634H24.0835H21.2502C20.7471 9.41634 20.3335 9.0027 20.3335 8.49967C20.3335 7.99665 20.7471 7.58301 21.2502 7.58301H24.0835C25.3657 7.58301 26.4168 8.63415 26.4168 9.91634V13.6705C26.4168 14.1961 26.242 14.7083 25.9041 15.1277L25.9031 15.129L20.9747 21.2895C20.9744 21.2898 20.9742 21.2901 20.9739 21.2905C20.5282 21.8412 19.8626 22.1663 19.1535 22.1663H14.1668H13.6668V22.6663C13.6668 24.7419 11.9924 26.4163 9.91683 26.4163C7.8413 26.4163 6.16683 24.7419 6.16683 22.6663V22.1663H5.66683H4.25016C3.74714 22.1663 3.3335 21.7527 3.3335 21.2497V18.4163C3.3335 15.5616 5.64547 13.2497 8.50016 13.2497H12.7502C13.2532 13.2497 13.6668 13.6633 13.6668 14.1663V19.833V20.333H14.1668H19.1535H19.3938L19.5439 20.1454L24.4739 13.9829L24.5835 13.8459V13.6705V9.91634ZM8.50016 22.1663H8.00016V22.6663C8.00016 23.7216 8.86152 24.583 9.91683 24.583C10.9721 24.583 11.8335 23.7216 11.8335 22.6663V22.1663H11.3335H8.50016ZM8.50016 8.99967H12.7502C13.2532 8.99967 13.6668 9.41332 13.6668 9.91634C13.6668 10.4194 13.2532 10.833 12.7502 10.833H8.50016C7.99714 10.833 7.5835 10.4194 7.5835 9.91634C7.5835 9.41332 7.99714 8.99967 8.50016 8.99967ZM23.1668 22.6663C23.1668 20.5908 24.8413 18.9163 26.9168 18.9163C28.9924 18.9163 30.6668 20.5908 30.6668 22.6663C30.6668 24.7419 28.9924 26.4163 26.9168 26.4163C24.8413 26.4163 23.1668 24.7419 23.1668 22.6663ZM25.0002 22.6663C25.0002 23.7216 25.8615 24.583 26.9168 24.583C27.9721 24.583 28.8335 23.7216 28.8335 22.6663C28.8335 21.611 27.9721 20.7497 26.9168 20.7497C25.8615 20.7497 25.0002 21.611 25.0002 22.6663Z" stroke="black"/>
</svg>
