<svg width="34" height="34" viewBox="0 0 34 34" fill="white" xmlns="http://www.w3.org/2000/svg">
<path d="M26.9163 9.91634C26.9163 8.35801 25.6413 7.08301 24.083 7.08301H21.2497C20.4705 7.08301 19.833 7.72051 19.833 8.49967C19.833 9.27884 20.4705 9.91634 21.2497 9.91634H24.083V13.6705L19.153 19.833H14.1663V14.1663C14.1663 13.3872 13.5288 12.7497 12.7497 12.7497H8.49967C5.36884 12.7497 2.83301 15.2855 2.83301 18.4163V21.2497C2.83301 22.0288 3.47051 22.6663 4.24967 22.6663H5.66634C5.66634 25.018 7.56467 26.9163 9.91634 26.9163C12.268 26.9163 14.1663 25.018 14.1663 22.6663H19.153C20.0172 22.6663 20.8247 22.2697 21.363 21.6038L26.293 15.4413C26.7038 14.9313 26.9163 14.308 26.9163 13.6705V9.91634ZM9.91634 24.083C9.13717 24.083 8.49967 23.4455 8.49967 22.6663H11.333C11.333 23.4455 10.6955 24.083 9.91634 24.083Z" fill="black"/>
<path d="M8.49967 8.49967H12.7497C13.5288 8.49967 14.1663 9.13717 14.1663 9.91634C14.1663 10.6955 13.5288 11.333 12.7497 11.333H8.49967C7.72051 11.333 7.08301 10.6955 7.08301 9.91634C7.08301 9.13717 7.72051 8.49967 8.49967 8.49967Z" fill="black"/>
<path d="M26.9163 18.4163C24.5647 18.4163 22.6663 20.3147 22.6663 22.6663C22.6663 25.018 24.5647 26.9163 26.9163 26.9163C29.268 26.9163 31.1663 25.018 31.1663 22.6663C31.1663 20.3147 29.268 18.4163 26.9163 18.4163ZM26.9163 24.083C26.1372 24.083 25.4997 23.4455 25.4997 22.6663C25.4997 21.8872 26.1372 21.2497 26.9163 21.2497C27.6955 21.2497 28.333 21.8872 28.333 22.6663C28.333 23.4455 27.6955 24.083 26.9163 24.083Z" fill="black"/>
</svg>
