<svg width="329" height="108" viewBox="0 0 329 108" fill="none" xmlns="http://www.w3.org/2000/svg">
<path d="M37.6027 16.3069C34.3867 16.3069 32.5947 14.2749 32.5947 10.6269C32.5947 6.96286 34.3867 4.91486 37.6027 4.91486C40.3707 4.91486 42.0828 6.43486 42.2587 9.13886H39.7307C39.5387 7.73086 38.7707 6.94686 37.5707 6.94686C35.9867 6.94686 35.1387 8.21086 35.1387 10.6269C35.1387 13.0109 35.9867 14.2749 37.5707 14.2749C38.7867 14.2749 39.5387 13.4909 39.7467 12.0829H42.2747C42.0667 14.7869 40.4187 16.3069 37.6027 16.3069ZM47.4645 16.2909C44.8885 16.2909 43.4005 14.7389 43.4005 12.0669C43.4005 9.37886 44.8885 7.82686 47.4645 7.82686C50.0405 7.82686 51.5125 9.37886 51.5125 12.0669C51.5125 14.7389 50.0725 16.2909 47.4645 16.2909ZM47.4645 14.5949C48.6485 14.5949 49.2405 13.7469 49.2405 12.0669C49.2405 10.3709 48.6485 9.52286 47.4645 9.52286C46.2965 9.52286 45.6565 10.4189 45.6565 12.0669C45.6565 13.6829 46.2965 14.5949 47.4645 14.5949ZM62.0406 7.84286C63.7046 7.84286 64.6646 8.80286 64.6646 10.4509V16.1309H62.4566V10.8669C62.4566 9.98686 62.0726 9.55486 61.3046 9.55486C60.4086 9.55486 59.8326 10.1629 59.8326 11.2029V16.1309H57.6246V10.8669C57.6246 9.98686 57.2406 9.55486 56.4566 9.55486C55.5606 9.55486 55.0006 10.1629 55.0006 11.2029V16.1309H52.7926V8.00286H54.4726V8.64286L54.3126 9.42686H54.5046C54.9046 8.51486 55.8006 7.84286 57.1286 7.84286C58.1206 7.84286 58.8246 8.19486 59.2406 8.88286L59.0966 9.50686H59.2726C59.7206 8.53086 60.6326 7.84286 62.0406 7.84286ZM69.9726 16.2909C67.3966 16.2909 65.9086 14.7389 65.9086 12.0669C65.9086 9.37886 67.3966 7.82686 69.9726 7.82686C72.5486 7.82686 74.0206 9.37886 74.0206 12.0669C74.0206 14.7389 72.5806 16.2909 69.9726 16.2909ZM69.9726 14.5949C71.1566 14.5949 71.7486 13.7469 71.7486 12.0669C71.7486 10.3709 71.1566 9.52286 69.9726 9.52286C68.8046 9.52286 68.1646 10.4189 68.1646 12.0669C68.1646 13.6829 68.8046 14.5949 69.9726 14.5949ZM82.5372 7.82686C85.0172 7.82686 86.2492 8.86686 86.2492 10.9469V16.1309H84.4892V15.4909L84.6652 14.7229H84.4412C83.8812 15.7629 82.8892 16.2909 81.4332 16.2909C79.6412 16.2909 78.6332 15.4269 78.6332 14.0349C78.6332 12.6109 79.5292 11.7949 81.6572 11.5389L83.9932 11.2669V10.8509C83.9932 9.87486 83.4972 9.37886 82.4892 9.37886C81.5132 9.37886 81.0172 9.84286 81.0012 10.7709H78.7932C78.8092 8.86686 80.1692 7.82686 82.5372 7.82686ZM82.0412 14.7549C83.1772 14.7549 83.9932 14.0509 83.9932 13.0109V12.5789L82.1052 12.7869C81.2892 12.8989 80.8732 13.2349 80.8732 13.7949C80.8732 14.4349 81.2572 14.7549 82.0412 14.7549ZM92.0031 7.82686C92.4351 7.82686 92.8031 7.89086 93.0911 8.01886V10.1309C92.7231 10.0189 92.3551 9.95486 92.0191 9.95486C90.7391 9.95486 89.9711 10.8189 89.9711 12.2429V16.1309H87.7151V8.00286H89.4911V8.61086L89.3151 9.60286H89.5231C89.8431 8.56286 90.7231 7.82686 92.0031 7.82686ZM103.303 7.84286C104.967 7.84286 105.927 8.80286 105.927 10.4509V16.1309H103.719V10.8669C103.719 9.98686 103.335 9.55486 102.567 9.55486C101.671 9.55486 101.095 10.1629 101.095 11.2029V16.1309H98.8871V10.8669C98.8871 9.98686 98.5031 9.55486 97.7191 9.55486C96.8231 9.55486 96.2631 10.1629 96.2631 11.2029V16.1309H94.0551V8.00286H95.7351V8.64286L95.5751 9.42686H95.7671C96.1671 8.51486 97.0631 7.84286 98.3911 7.84286C99.3831 7.84286 100.087 8.19486 100.503 8.88286L100.359 9.50686H100.535C100.983 8.53086 101.895 7.84286 103.303 7.84286ZM110.979 7.82686C113.459 7.82686 114.691 8.86686 114.691 10.9469V16.1309H112.931V15.4909L113.107 14.7229H112.883C112.323 15.7629 111.331 16.2909 109.875 16.2909C108.083 16.2909 107.075 15.4269 107.075 14.0349C107.075 12.6109 107.971 11.7949 110.099 11.5389L112.435 11.2669V10.8509C112.435 9.87486 111.939 9.37886 110.931 9.37886C109.955 9.37886 109.459 9.84286 109.443 10.7709H107.235C107.251 8.86686 108.611 7.82686 110.979 7.82686ZM110.483 14.7549C111.619 14.7549 112.435 14.0509 112.435 13.0109V12.5789L110.547 12.7869C109.731 12.8989 109.315 13.2349 109.315 13.7949C109.315 14.4349 109.699 14.7549 110.483 14.7549ZM122.653 16.1309H116.013V14.5949L119.325 10.1309L119.869 9.85886V9.63486L119.197 9.69886H116.093V8.00286H122.605V9.53886L119.293 14.0029L118.765 14.2749V14.4989L119.421 14.4349H122.653V16.1309ZM131.347 11.9389V12.4349H125.843C125.907 13.9069 126.483 14.6429 127.571 14.6429C128.435 14.6429 128.963 14.2589 129.155 13.4749H131.315C131.059 15.2029 129.699 16.2909 127.459 16.2909C124.915 16.2909 123.523 14.7869 123.523 12.1149C123.523 9.42686 125.043 7.82686 127.587 7.82686C130.035 7.82686 131.347 9.26686 131.347 11.9389ZM127.523 9.37886C126.595 9.37886 126.051 9.95486 125.891 11.1229H129.107C128.963 9.95486 128.435 9.37886 127.523 9.37886ZM137.37 7.82686C139.21 7.82686 140.234 8.83486 140.234 10.6109V16.1309H137.978V11.0909C137.978 10.0989 137.53 9.60286 136.618 9.60286C135.578 9.60286 134.906 10.2589 134.906 11.3949V16.1309H132.65V8.00286H134.426V8.62686L134.266 9.37886H134.458C134.906 8.48286 135.898 7.82686 137.37 7.82686ZM145.308 7.82686C147.788 7.82686 149.02 8.86686 149.02 10.9469V16.1309H147.26V15.4909L147.436 14.7229H147.212C146.652 15.7629 145.66 16.2909 144.204 16.2909C142.412 16.2909 141.404 15.4269 141.404 14.0349C141.404 12.6109 142.3 11.7949 144.428 11.5389L146.764 11.2669V10.8509C146.764 9.87486 146.268 9.37886 145.26 9.37886C144.284 9.37886 143.788 9.84286 143.772 10.7709H141.564C141.58 8.86686 142.94 7.82686 145.308 7.82686ZM144.812 14.7549C145.948 14.7549 146.764 14.0509 146.764 13.0109V12.5789L144.876 12.7869C144.06 12.8989 143.644 13.2349 143.644 13.7949C143.644 14.4349 144.028 14.7549 144.812 14.7549ZM155.974 8.11486V4.61086H158.246V16.1309H156.47V15.4749L156.63 14.7229H156.422C155.958 15.6349 155.014 16.2909 153.622 16.2909C151.526 16.2909 150.262 14.7389 150.262 12.0669C150.262 9.39486 151.542 7.82686 153.638 7.82686C154.966 7.82686 155.894 8.35486 156.422 9.41086H156.63L156.47 8.75486L155.974 8.11486ZM154.31 14.5789C155.398 14.5789 156.006 13.6989 156.006 12.0509C156.006 10.3709 155.446 9.53886 154.31 9.53886C153.174 9.53886 152.582 10.4349 152.582 12.0509C152.582 13.6669 153.174 14.5789 154.31 14.5789ZM163.509 16.2909C160.933 16.2909 159.445 14.7389 159.445 12.0669C159.445 9.37886 160.933 7.82686 163.509 7.82686C166.085 7.82686 167.557 9.37886 167.557 12.0669C167.557 14.7389 166.117 16.2909 163.509 16.2909ZM163.509 14.5949C164.693 14.5949 165.285 13.7469 165.285 12.0669C165.285 10.3709 164.693 9.52286 163.509 9.52286C162.341 9.52286 161.701 10.4189 161.701 12.0669C161.701 13.6829 162.341 14.5949 163.509 14.5949ZM173.126 7.82686C173.558 7.82686 173.926 7.89086 174.214 8.01886V10.1309C173.846 10.0189 173.478 9.95486 173.142 9.95486C171.862 9.95486 171.094 10.8189 171.094 12.2429V16.1309H168.838V8.00286H170.614V8.61086L170.438 9.60286H170.646C170.966 8.56286 171.846 7.82686 173.126 7.82686ZM174.433 16.1309V13.5549H176.721V15.4109C176.721 16.6269 176.113 17.7309 175.105 18.3229H173.905V18.0189C174.641 17.5229 175.121 16.8829 175.361 16.1309H174.433ZM187.084 16.1309H184.38L181.564 8.33886V8.00286H183.836L185.516 12.9629L185.628 13.8269H185.884L185.996 12.9629L187.66 8.00286H189.9V8.32286L187.084 16.1309ZM194.21 16.2909C191.634 16.2909 190.146 14.7389 190.146 12.0669C190.146 9.37886 191.634 7.82686 194.21 7.82686C196.786 7.82686 198.258 9.37886 198.258 12.0669C198.258 14.7389 196.818 16.2909 194.21 16.2909ZM194.21 14.5949C195.394 14.5949 195.986 13.7469 195.986 12.0669C195.986 10.3709 195.394 9.52286 194.21 9.52286C193.042 9.52286 192.402 10.4189 192.402 12.0669C192.402 13.6829 193.042 14.5949 194.21 14.5949ZM203.426 16.3069C200.802 16.3069 199.314 14.7549 199.314 12.0669C199.314 9.37886 200.818 7.84286 203.442 7.84286C205.73 7.84286 207.202 9.01086 207.346 11.0109H205.042C204.866 10.0029 204.322 9.49086 203.41 9.49086C202.21 9.49086 201.618 10.3549 201.618 12.0669C201.618 13.7309 202.242 14.6269 203.41 14.6269C204.306 14.6269 204.85 14.1309 205.042 13.1229H207.346C207.202 15.1069 205.746 16.3069 203.426 16.3069ZM212.119 5.69886L211.975 6.01886L211.111 7.13886H209.751V6.85086L211.543 4.56286H212.871L214.663 6.85086V7.13886H213.271L212.407 6.01886L212.263 5.69886H212.119ZM216.103 11.9389V12.4349H210.599C210.663 13.9069 211.239 14.6429 212.327 14.6429C213.191 14.6429 213.719 14.2589 213.911 13.4749H216.071C215.815 15.2029 214.455 16.2909 212.215 16.2909C209.671 16.2909 208.279 14.7869 208.279 12.1149C208.279 9.42686 209.799 7.82686 212.343 7.82686C214.791 7.82686 216.103 9.26686 216.103 11.9389ZM212.279 9.37886C211.351 9.37886 210.807 9.95486 210.647 11.1229H213.863C213.719 9.95486 213.191 9.37886 212.279 9.37886ZM227.01 8.62686V8.00286H228.898V15.6029C228.898 17.9229 227.538 19.2349 224.786 19.2349C222.402 19.2349 221.058 18.1789 220.914 16.3229H223.17C223.282 17.1549 223.842 17.6669 224.802 17.6669C225.906 17.6669 226.482 17.0269 226.53 15.7629L227.01 14.9789L227.186 14.2909H226.994C226.53 15.2029 225.57 15.8749 224.162 15.8749C222.034 15.8749 220.834 14.3709 220.834 11.8269C220.834 9.33086 222.034 7.82686 224.162 7.82686C225.522 7.82686 226.45 8.33886 226.978 9.36286H227.186L227.01 8.62686ZM226.562 11.8429C226.562 10.3069 225.954 9.42686 224.866 9.42686C223.762 9.42686 223.154 10.3229 223.154 11.8429C223.154 13.3789 223.778 14.2749 224.866 14.2749C225.954 14.2749 226.562 13.4269 226.562 11.8429ZM237.982 11.9389V12.4349H232.478C232.542 13.9069 233.118 14.6429 234.206 14.6429C235.07 14.6429 235.598 14.2589 235.79 13.4749H237.95C237.694 15.2029 236.334 16.2909 234.094 16.2909C231.55 16.2909 230.158 14.7869 230.158 12.1149C230.158 9.42686 231.678 7.82686 234.222 7.82686C236.67 7.82686 237.982 9.26686 237.982 11.9389ZM234.158 9.37886C233.23 9.37886 232.686 9.95486 232.526 11.1229H235.742C235.598 9.95486 235.07 9.37886 234.158 9.37886ZM243.572 7.82686C244.004 7.82686 244.372 7.89086 244.66 8.01886V10.1309C244.292 10.0189 243.924 9.95486 243.588 9.95486C242.308 9.95486 241.54 10.8189 241.54 12.2429V16.1309H239.284V8.00286H241.06V8.61086L240.884 9.60286H241.092C241.412 8.56286 242.292 7.82686 243.572 7.82686ZM253.099 11.9389V12.4349H247.595C247.659 13.9069 248.235 14.6429 249.323 14.6429C250.187 14.6429 250.715 14.2589 250.907 13.4749H253.067C252.811 15.2029 251.451 16.2909 249.211 16.2909C246.667 16.2909 245.275 14.7869 245.275 12.1149C245.275 9.42686 246.795 7.82686 249.339 7.82686C251.787 7.82686 253.099 9.26686 253.099 11.9389ZM249.275 9.37886C248.347 9.37886 247.803 9.95486 247.643 11.1229H250.859C250.715 9.95486 250.187 9.37886 249.275 9.37886ZM259.122 7.82686C260.962 7.82686 261.986 8.83486 261.986 10.6109V16.1309H259.73V11.0909C259.73 10.0989 259.282 9.60286 258.37 9.60286C257.33 9.60286 256.658 10.2589 256.658 11.3949V16.1309H254.402V8.00286H256.178V8.62686L256.018 9.37886H256.21C256.658 8.48286 257.65 7.82686 259.122 7.82686ZM267.364 16.3069C264.74 16.3069 263.252 14.7549 263.252 12.0669C263.252 9.37886 264.756 7.84286 267.38 7.84286C269.668 7.84286 271.14 9.01086 271.284 11.0109H268.98C268.804 10.0029 268.26 9.49086 267.348 9.49086C266.148 9.49086 265.556 10.3549 265.556 12.0669C265.556 13.7309 266.18 14.6269 267.348 14.6269C268.244 14.6269 268.788 14.1309 268.98 13.1229H271.284C271.14 15.1069 269.684 16.3069 267.364 16.3069ZM274.857 6.78686H272.473V4.61086H274.857V6.78686ZM274.809 16.1309H272.537V8.00286H274.809V16.1309ZM279.975 7.82686C282.455 7.82686 283.687 8.86686 283.687 10.9469V16.1309H281.927V15.4909L282.103 14.7229H281.879C281.319 15.7629 280.327 16.2909 278.871 16.2909C277.079 16.2909 276.071 15.4269 276.071 14.0349C276.071 12.6109 276.967 11.7949 279.095 11.5389L281.431 11.2669V10.8509C281.431 9.87486 280.935 9.37886 279.927 9.37886C278.951 9.37886 278.455 9.84286 278.439 10.7709H276.231C276.247 8.86686 277.607 7.82686 279.975 7.82686ZM279.479 14.7549C280.615 14.7549 281.431 14.0509 281.431 13.0109V12.5789L279.543 12.7869C278.727 12.8989 278.311 13.2349 278.311 13.7949C278.311 14.4349 278.695 14.7549 279.479 14.7549ZM292.645 16.2909C290.069 16.2909 288.581 14.7389 288.581 12.0669C288.581 9.37886 290.069 7.82686 292.645 7.82686C295.221 7.82686 296.693 9.37886 296.693 12.0669C296.693 14.7389 295.253 16.2909 292.645 16.2909ZM292.645 14.5949C293.829 14.5949 294.421 13.7469 294.421 12.0669C294.421 10.3709 293.829 9.52286 292.645 9.52286C291.477 9.52286 290.837 10.4189 290.837 12.0669C290.837 13.6829 291.477 14.5949 292.645 14.5949ZM5.19412 29.8269C7.67412 29.8269 8.90612 30.8669 8.90612 32.9469V38.1309H7.14612V37.4909L7.32212 36.7229H7.09812C6.53812 37.7629 5.54612 38.2909 4.09012 38.2909C2.29812 38.2909 1.29012 37.4269 1.29012 36.0349C1.29012 34.6109 2.18612 33.7949 4.31412 33.5389L6.65012 33.2669V32.8509C6.65012 31.8749 6.15412 31.3789 5.14612 31.3789C4.17012 31.3789 3.67412 31.8429 3.65812 32.7709H1.45012C1.46612 30.8669 2.82612 29.8269 5.19412 29.8269ZM4.69812 36.7549C5.83412 36.7549 6.65012 36.0509 6.65012 35.0109V34.5789L4.76212 34.7869C3.94612 34.8989 3.53012 35.2349 3.53012 35.7949C3.53012 36.4349 3.91412 36.7549 4.69812 36.7549ZM14.66 29.8269C15.092 29.8269 15.46 29.8909 15.748 30.0189V32.1309C15.38 32.0189 15.012 31.9549 14.676 31.9549C13.396 31.9549 12.628 32.8189 12.628 34.2429V38.1309H10.372V30.0029H12.148V30.6109L11.972 31.6029H12.18C12.5 30.5629 13.38 29.8269 14.66 29.8269ZM25.96 29.8429C27.624 29.8429 28.584 30.8029 28.584 32.4509V38.1309H26.376V32.8669C26.376 31.9869 25.992 31.5549 25.224 31.5549C24.328 31.5549 23.752 32.1629 23.752 33.2029V38.1309H21.544V32.8669C21.544 31.9869 21.16 31.5549 20.376 31.5549C19.48 31.5549 18.92 32.1629 18.92 33.2029V38.1309H16.712V30.0029H18.392V30.6429L18.232 31.4269H18.424C18.824 30.5149 19.72 29.8429 21.048 29.8429C22.04 29.8429 22.744 30.1949 23.16 30.8829L23.016 31.5069H23.192C23.64 30.5309 24.552 29.8429 25.96 29.8429ZM33.636 29.8269C36.116 29.8269 37.348 30.8669 37.348 32.9469V38.1309H35.588V37.4909L35.764 36.7229H35.54C34.98 37.7629 33.988 38.2909 32.532 38.2909C30.74 38.2909 29.732 37.4269 29.732 36.0349C29.732 34.6109 30.628 33.7949 32.756 33.5389L35.092 33.2669V32.8509C35.092 31.8749 34.596 31.3789 33.588 31.3789C32.612 31.3789 32.116 31.8429 32.1 32.7709H29.892C29.908 30.8669 31.268 29.8269 33.636 29.8269ZM33.14 36.7549C34.276 36.7549 35.092 36.0509 35.092 35.0109V34.5789L33.204 34.7869C32.388 34.8989 31.972 35.2349 31.972 35.7949C31.972 36.4349 32.356 36.7549 33.14 36.7549ZM45.3099 38.1309H38.6699V36.5949L41.9819 32.1309L42.5259 31.8589V31.6349L41.8539 31.6989H38.7499V30.0029H45.2619V31.5389L41.9499 36.0029L41.4219 36.2749V36.4989L42.0779 36.4349H45.3099V38.1309ZM54.0039 33.9389V34.4349H48.4999C48.5639 35.9069 49.1399 36.6429 50.2279 36.6429C51.0919 36.6429 51.6199 36.2589 51.8119 35.4749H53.9719C53.7159 37.2029 52.3559 38.2909 50.1159 38.2909C47.5719 38.2909 46.1799 36.7869 46.1799 34.1149C46.1799 31.4269 47.6999 29.8269 50.2439 29.8269C52.6919 29.8269 54.0039 31.2669 54.0039 33.9389ZM50.1799 31.3789C49.2519 31.3789 48.7079 31.9549 48.5479 33.1229H51.7639C51.6199 31.9549 51.0919 31.3789 50.1799 31.3789ZM60.0264 29.8269C61.8664 29.8269 62.8904 30.8349 62.8904 32.6109V38.1309H60.6344V33.0909C60.6344 32.0989 60.1864 31.6029 59.2744 31.6029C58.2344 31.6029 57.5624 32.2589 57.5624 33.3949V38.1309H55.3064V30.0029H57.0824V30.6269L56.9224 31.3789H57.1144C57.5624 30.4829 58.5544 29.8269 60.0264 29.8269ZM67.9647 29.8269C70.4447 29.8269 71.6767 30.8669 71.6767 32.9469V38.1309H69.9167V37.4909L70.0927 36.7229H69.8687C69.3087 37.7629 68.3167 38.2909 66.8607 38.2909C65.0687 38.2909 64.0607 37.4269 64.0607 36.0349C64.0607 34.6109 64.9567 33.7949 67.0847 33.5389L69.4207 33.2669V32.8509C69.4207 31.8749 68.9247 31.3789 67.9167 31.3789C66.9407 31.3789 66.4447 31.8429 66.4287 32.7709H64.2207C64.2367 30.8669 65.5967 29.8269 67.9647 29.8269ZM67.4687 36.7549C68.6047 36.7549 69.4207 36.0509 69.4207 35.0109V34.5789L67.5327 34.7869C66.7167 34.8989 66.3007 35.2349 66.3007 35.7949C66.3007 36.4349 66.6847 36.7549 67.4687 36.7549ZM82.3906 29.8429C84.0546 29.8429 85.0146 30.8029 85.0146 32.4509V38.1309H82.8066V32.8669C82.8066 31.9869 82.4226 31.5549 81.6546 31.5549C80.7586 31.5549 80.1826 32.1629 80.1826 33.2029V38.1309H77.9746V32.8669C77.9746 31.9869 77.5906 31.5549 76.8066 31.5549C75.9106 31.5549 75.3506 32.1629 75.3506 33.2029V38.1309H73.1426V30.0029H74.8226V30.6429L74.6626 31.4269H74.8546C75.2546 30.5149 76.1506 29.8429 77.4786 29.8429C78.4706 29.8429 79.1746 30.1949 79.5906 30.8829L79.4466 31.5069H79.6226C80.0706 30.5309 80.9826 29.8429 82.3906 29.8429ZM94.0826 33.9389V34.4349H88.5786C88.6426 35.9069 89.2186 36.6429 90.3066 36.6429C91.1706 36.6429 91.6986 36.2589 91.8906 35.4749H94.0506C93.7946 37.2029 92.4346 38.2909 90.1946 38.2909C87.6506 38.2909 86.2586 36.7869 86.2586 34.1149C86.2586 31.4269 87.7786 29.8269 90.3226 29.8269C92.7706 29.8269 94.0826 31.2669 94.0826 33.9389ZM90.2586 31.3789C89.3306 31.3789 88.7866 31.9549 88.6266 33.1229H91.8426C91.6986 31.9549 91.1706 31.3789 90.2586 31.3789ZM100.105 29.8269C101.945 29.8269 102.969 30.8349 102.969 32.6109V38.1309H100.713V33.0909C100.713 32.0989 100.265 31.6029 99.3531 31.6029C98.3131 31.6029 97.6411 32.2589 97.6411 33.3949V38.1309H95.3851V30.0029H97.1611V30.6269L97.0011 31.3789H97.1931C97.6411 30.4829 98.6331 29.8269 100.105 29.8269ZM108.779 36.4509C109.067 36.4509 109.387 36.4029 109.755 36.3229V38.0829C109.195 38.2269 108.619 38.2909 108.027 38.2909C106.155 38.2909 105.227 37.4109 105.227 35.6349V34.6749V31.5389H103.915V30.0029H105.227V27.8269H107.499V30.0029H109.723V31.5389H107.499V34.5309V35.2509C107.499 36.0509 107.931 36.4509 108.779 36.4509ZM114.686 38.2909C112.11 38.2909 110.622 36.7389 110.622 34.0669C110.622 31.3789 112.11 29.8269 114.686 29.8269C117.262 29.8269 118.734 31.3789 118.734 34.0669C118.734 36.7389 117.294 38.2909 114.686 38.2909ZM114.686 36.5949C115.87 36.5949 116.462 35.7469 116.462 34.0669C116.462 32.3709 115.87 31.5229 114.686 31.5229C113.518 31.5229 112.878 32.4189 112.878 34.0669C112.878 35.6829 113.518 36.5949 114.686 36.5949ZM129.155 30.1149V26.6109H131.427V38.1309H129.651V37.4749L129.811 36.7229H129.603C129.139 37.6349 128.195 38.2909 126.803 38.2909C124.707 38.2909 123.443 36.7389 123.443 34.0669C123.443 31.3949 124.723 29.8269 126.819 29.8269C128.147 29.8269 129.075 30.3549 129.603 31.4109H129.811L129.651 30.7549L129.155 30.1149ZM127.491 36.5789C128.579 36.5789 129.187 35.6989 129.187 34.0509C129.187 32.3709 128.627 31.5389 127.491 31.5389C126.355 31.5389 125.763 32.4349 125.763 34.0509C125.763 35.6669 126.355 36.5789 127.491 36.5789ZM140.451 33.9389V34.4349H134.947C135.011 35.9069 135.587 36.6429 136.675 36.6429C137.539 36.6429 138.067 36.2589 138.259 35.4749H140.419C140.163 37.2029 138.803 38.2909 136.563 38.2909C134.019 38.2909 132.627 36.7869 132.627 34.1149C132.627 31.4269 134.147 29.8269 136.691 29.8269C139.139 29.8269 140.451 31.2669 140.451 33.9389ZM136.627 31.3789C135.699 31.3789 135.155 31.9549 134.995 33.1229H138.211C138.067 31.9549 137.539 31.3789 136.627 31.3789ZM150.03 29.8429C152.19 29.8429 153.374 31.3789 153.374 34.0669C153.374 36.7709 152.174 38.3069 150.014 38.3069C148.686 38.3069 147.758 37.7789 147.23 36.7229H147.022L147.182 37.3789L147.678 38.0189V41.0909H145.406V30.0029H147.182V30.6589L147.022 31.4109H147.23C147.694 30.4989 148.638 29.8429 150.03 29.8429ZM149.342 36.5949C150.478 36.5949 151.07 35.6989 151.07 34.0829C151.07 32.4829 150.446 31.5549 149.342 31.5549C148.254 31.5549 147.63 32.4349 147.63 34.0829C147.63 35.7309 148.238 36.5949 149.342 36.5949ZM162.268 33.9389V34.4349H156.764C156.828 35.9069 157.404 36.6429 158.492 36.6429C159.356 36.6429 159.884 36.2589 160.076 35.4749H162.236C161.98 37.2029 160.62 38.2909 158.38 38.2909C155.836 38.2909 154.444 36.7869 154.444 34.1149C154.444 31.4269 155.964 29.8269 158.508 29.8269C160.956 29.8269 162.268 31.2669 162.268 33.9389ZM158.444 31.3789C157.516 31.3789 156.972 31.9549 156.812 33.1229H160.028C159.884 31.9549 159.356 31.3789 158.444 31.3789ZM169.058 30.1149V26.6109H171.33V38.1309H169.554V37.4749L169.714 36.7229H169.506C169.042 37.6349 168.098 38.2909 166.706 38.2909C164.61 38.2909 163.346 36.7389 163.346 34.0669C163.346 31.3949 164.626 29.8269 166.722 29.8269C168.05 29.8269 168.978 30.3549 169.506 31.4109H169.714L169.554 30.7549L169.058 30.1149ZM167.394 36.5789C168.482 36.5789 169.09 35.6989 169.09 34.0509C169.09 32.3709 168.53 31.5389 167.394 31.5389C166.258 31.5389 165.666 32.4349 165.666 34.0509C165.666 35.6669 166.258 36.5789 167.394 36.5789ZM175.217 28.7869H172.833V26.6109H175.217V28.7869ZM175.169 38.1309H172.897V30.0029H175.169V38.1309ZM182.238 30.1149V26.6109H184.51V38.1309H182.734V37.4749L182.894 36.7229H182.686C182.222 37.6349 181.278 38.2909 179.886 38.2909C177.79 38.2909 176.526 36.7389 176.526 34.0669C176.526 31.3949 177.806 29.8269 179.902 29.8269C181.23 29.8269 182.158 30.3549 182.686 31.4109H182.894L182.734 30.7549L182.238 30.1149ZM180.574 36.5789C181.662 36.5789 182.27 35.6989 182.27 34.0509C182.27 32.3709 181.71 31.5389 180.574 31.5389C179.438 31.5389 178.846 32.4349 178.846 34.0509C178.846 35.6669 179.438 36.5789 180.574 36.5789ZM189.774 38.2909C187.198 38.2909 185.71 36.7389 185.71 34.0669C185.71 31.3789 187.198 29.8269 189.774 29.8269C192.35 29.8269 193.822 31.3789 193.822 34.0669C193.822 36.7389 192.382 38.2909 189.774 38.2909ZM189.774 36.5949C190.958 36.5949 191.55 35.7469 191.55 34.0669C191.55 32.3709 190.958 31.5229 189.774 31.5229C188.606 31.5229 187.966 32.4189 187.966 34.0669C187.966 35.6829 188.606 36.5949 189.774 36.5949ZM198.478 38.2909C196.174 38.2909 194.942 37.4429 194.782 35.7309H196.91C197.07 36.4829 197.63 36.8669 198.574 36.8669C199.454 36.8669 200.014 36.5309 200.014 35.9069C200.014 35.4269 199.582 35.1069 198.718 34.9309L197.182 34.6589C195.694 34.3549 194.894 33.5389 194.894 32.4349C194.894 30.8509 196.254 29.8269 198.51 29.8269C200.702 29.8269 201.95 30.7389 202.062 32.3389H199.934C199.822 31.6189 199.31 31.2669 198.366 31.2669C197.518 31.2669 197.006 31.6029 197.006 32.1149C197.006 32.5469 197.438 32.8349 198.302 33.0109L199.79 33.2669C201.438 33.6029 202.27 34.3549 202.27 35.5549C202.27 37.2349 200.782 38.2909 198.478 38.2909ZM212.614 30.1149V26.6109H214.886V38.1309H213.11V37.4749L213.27 36.7229H213.062C212.598 37.6349 211.654 38.2909 210.262 38.2909C208.166 38.2909 206.902 36.7389 206.902 34.0669C206.902 31.3949 208.182 29.8269 210.278 29.8269C211.606 29.8269 212.534 30.3549 213.062 31.4109H213.27L213.11 30.7549L212.614 30.1149ZM210.95 36.5789C212.038 36.5789 212.646 35.6989 212.646 34.0509C212.646 32.3709 212.086 31.5389 210.95 31.5389C209.814 31.5389 209.222 32.4349 209.222 34.0509C209.222 35.6669 209.814 36.5789 210.95 36.5789ZM223.909 33.9389V34.4349H218.405C218.469 35.9069 219.045 36.6429 220.133 36.6429C220.997 36.6429 221.525 36.2589 221.717 35.4749H223.877C223.621 37.2029 222.261 38.2909 220.021 38.2909C217.477 38.2909 216.085 36.7869 216.085 34.1149C216.085 31.4269 217.605 29.8269 220.149 29.8269C222.597 29.8269 223.909 31.2669 223.909 33.9389ZM220.085 31.3789C219.157 31.3789 218.613 31.9549 218.453 33.1229H221.669C221.525 31.9549 220.997 31.3789 220.085 31.3789ZM238.113 29.8429C239.777 29.8429 240.737 30.8029 240.737 32.4509V38.1309H238.529V32.8669C238.529 31.9869 238.145 31.5549 237.377 31.5549C236.481 31.5549 235.905 32.1629 235.905 33.2029V38.1309H233.697V32.8669C233.697 31.9869 233.313 31.5549 232.529 31.5549C231.633 31.5549 231.073 32.1629 231.073 33.2029V38.1309H228.865V30.0029H230.545V30.6429L230.385 31.4269H230.577C230.977 30.5149 231.873 29.8429 233.201 29.8429C234.193 29.8429 234.897 30.1949 235.313 30.8829L235.169 31.5069H235.345C235.793 30.5309 236.705 29.8429 238.113 29.8429ZM245.788 29.8269C248.268 29.8269 249.5 30.8669 249.5 32.9469V38.1309H247.74V37.4909L247.916 36.7229H247.692C247.132 37.7629 246.14 38.2909 244.684 38.2909C242.892 38.2909 241.884 37.4269 241.884 36.0349C241.884 34.6109 242.78 33.7949 244.908 33.5389L247.244 33.2669V32.8509C247.244 31.8749 246.748 31.3789 245.74 31.3789C244.764 31.3789 244.268 31.8429 244.252 32.7709H242.044C242.06 30.8669 243.42 29.8269 245.788 29.8269ZM245.292 36.7549C246.428 36.7549 247.244 36.0509 247.244 35.0109V34.5789L245.356 34.7869C244.54 34.8989 244.124 35.2349 244.124 35.7949C244.124 36.4349 244.508 36.7549 245.292 36.7549ZM255.254 29.8269C255.686 29.8269 256.054 29.8909 256.342 30.0189V32.1309C255.974 32.0189 255.606 31.9549 255.27 31.9549C253.99 31.9549 253.222 32.8189 253.222 34.2429V38.1309H250.966V30.0029H252.742V30.6109L252.566 31.6029H252.774C253.094 30.5629 253.974 29.8269 255.254 29.8269ZM265.05 30.3389L261.914 33.9069L265.098 37.7949V38.1309H262.586L260.074 35.1389L259.834 34.5309H259.562V38.1309H257.306V26.6109H259.562V33.3629H259.834L260.106 32.7549L262.538 30.0029H265.05V30.3389ZM273.09 33.9389V34.4349H267.586C267.65 35.9069 268.226 36.6429 269.314 36.6429C270.178 36.6429 270.706 36.2589 270.898 35.4749H273.058C272.802 37.2029 271.442 38.2909 269.202 38.2909C266.658 38.2909 265.266 36.7869 265.266 34.1149C265.266 31.4269 266.786 29.8269 269.33 29.8269C271.778 29.8269 273.09 31.2669 273.09 33.9389ZM269.266 31.3789C268.338 31.3789 267.794 31.9549 267.634 33.1229H270.85C270.706 31.9549 270.178 31.3789 269.266 31.3789ZM278.494 36.4509C278.782 36.4509 279.102 36.4029 279.47 36.3229V38.0829C278.91 38.2269 278.334 38.2909 277.742 38.2909C275.87 38.2909 274.942 37.4109 274.942 35.6349V34.6749V31.5389H273.63V30.0029H274.942V27.8269H277.214V30.0029H279.438V31.5389H277.214V34.5309V35.2509C277.214 36.0509 277.646 36.4509 278.494 36.4509ZM285.357 29.8429C287.517 29.8429 288.701 31.3789 288.701 34.0669C288.701 36.7709 287.501 38.3069 285.341 38.3069C284.013 38.3069 283.085 37.7789 282.557 36.7229H282.349L282.509 37.3789L283.005 38.0189V41.0909H280.733V30.0029H282.509V30.6589L282.349 31.4109H282.557C283.021 30.4989 283.965 29.8429 285.357 29.8429ZM284.669 36.5949C285.805 36.5949 286.397 35.6989 286.397 34.0829C286.397 32.4829 285.773 31.5549 284.669 31.5549C283.581 31.5549 282.957 32.4349 282.957 34.0829C282.957 35.7309 283.565 36.5949 284.669 36.5949ZM292.41 38.1309H290.138V26.6109H292.41V38.1309ZM297.637 29.8269C300.117 29.8269 301.349 30.8669 301.349 32.9469V38.1309H299.589V37.4909L299.765 36.7229H299.541C298.981 37.7629 297.989 38.2909 296.533 38.2909C294.741 38.2909 293.733 37.4269 293.733 36.0349C293.733 34.6109 294.629 33.7949 296.757 33.5389L299.093 33.2669V32.8509C299.093 31.8749 298.597 31.3789 297.589 31.3789C296.613 31.3789 296.117 31.8429 296.101 32.7709H293.893C293.909 30.8669 295.269 29.8269 297.637 29.8269ZM297.141 36.7549C298.277 36.7549 299.093 36.0509 299.093 35.0109V34.5789L297.205 34.7869C296.389 34.8989 295.973 35.2349 295.973 35.7949C295.973 36.4349 296.357 36.7549 297.141 36.7549ZM306.703 38.3069C304.079 38.3069 302.591 36.7549 302.591 34.0669C302.591 31.3789 304.095 29.8429 306.719 29.8429C309.007 29.8429 310.479 31.0109 310.623 33.0109H308.319C308.143 32.0029 307.599 31.4909 306.687 31.4909C305.487 31.4909 304.895 32.3549 304.895 34.0669C304.895 35.7309 305.519 36.6269 306.687 36.6269C307.583 36.6269 308.127 36.1309 308.319 35.1229H310.623C310.479 37.1069 309.023 38.3069 306.703 38.3069ZM319.38 33.9389V34.4349H313.876C313.94 35.9069 314.516 36.6429 315.604 36.6429C316.468 36.6429 316.996 36.2589 317.188 35.4749H319.348C319.092 37.2029 317.732 38.2909 315.492 38.2909C312.948 38.2909 311.556 36.7869 311.556 34.1149C311.556 31.4269 313.076 29.8269 315.62 29.8269C318.068 29.8269 319.38 31.2669 319.38 33.9389ZM315.556 31.3789C314.628 31.3789 314.084 31.9549 313.924 33.1229H317.14C316.996 31.9549 316.468 31.3789 315.556 31.3789ZM324.059 38.2909C321.755 38.2909 320.523 37.4429 320.363 35.7309H322.491C322.651 36.4829 323.211 36.8669 324.155 36.8669C325.035 36.8669 325.595 36.5309 325.595 35.9069C325.595 35.4269 325.163 35.1069 324.299 34.9309L322.763 34.6589C321.275 34.3549 320.475 33.5389 320.475 32.4349C320.475 30.8509 321.835 29.8269 324.091 29.8269C326.283 29.8269 327.531 30.7389 327.643 32.3389H325.515C325.403 31.6189 324.891 31.2669 323.947 31.2669C323.099 31.2669 322.587 31.6029 322.587 32.1149C322.587 32.5469 323.019 32.8349 323.883 33.0109L325.371 33.2669C327.019 33.6029 327.851 34.3549 327.851 35.5549C327.851 37.2349 326.363 38.2909 324.059 38.2909ZM60.5673 51.8429C62.7273 51.8429 63.9113 53.3789 63.9113 56.0669C63.9113 58.7709 62.7113 60.3069 60.5513 60.3069C59.2233 60.3069 58.2953 59.7789 57.7673 58.7229H57.5593L57.7193 59.3789L58.2153 60.0189V63.0909H55.9433V52.0029H57.7193V52.6589L57.5593 53.4109H57.7673C58.2313 52.4989 59.1753 51.8429 60.5673 51.8429ZM59.8793 58.5949C61.0153 58.5949 61.6073 57.6989 61.6073 56.0829C61.6073 54.4829 60.9833 53.5549 59.8793 53.5549C58.7913 53.5549 58.1673 54.4349 58.1673 56.0829C58.1673 57.7309 58.7753 58.5949 59.8793 58.5949ZM68.7891 51.8269C71.2691 51.8269 72.5011 52.8669 72.5011 54.9469V60.1309H70.7411V59.4909L70.9171 58.7229H70.6931C70.1331 59.7629 69.1411 60.2909 67.6851 60.2909C65.8931 60.2909 64.8851 59.4269 64.8851 58.0349C64.8851 56.6109 65.7811 55.7949 67.9091 55.5389L70.2451 55.2669V54.8509C70.2451 53.8749 69.7491 53.3789 68.7411 53.3789C67.7651 53.3789 67.2691 53.8429 67.2531 54.7709H65.0451C65.0611 52.8669 66.4211 51.8269 68.7891 51.8269ZM68.2931 58.7549C69.4291 58.7549 70.2451 58.0509 70.2451 57.0109V56.5789L68.3571 56.7869C67.5411 56.8989 67.1251 57.2349 67.1251 57.7949C67.1251 58.4349 67.5091 58.7549 68.2931 58.7549ZM78.255 51.8269C78.687 51.8269 79.055 51.8909 79.343 52.0189V54.1309C78.975 54.0189 78.607 53.9549 78.271 53.9549C76.991 53.9549 76.223 54.8189 76.223 56.2429V60.1309H73.967V52.0029H75.743V52.6109L75.567 53.6029H75.775C76.095 52.5629 76.975 51.8269 78.255 51.8269ZM84.07 60.3069C81.446 60.3069 79.958 58.7549 79.958 56.0669C79.958 53.3789 81.462 51.8429 84.086 51.8429C86.374 51.8429 87.846 53.0109 87.99 55.0109H85.686C85.51 54.0029 84.966 53.4909 84.054 53.4909C82.854 53.4909 82.262 54.3549 82.262 56.0669C82.262 57.7309 82.886 58.6269 84.054 58.6269C84.95 58.6269 85.494 58.1309 85.686 57.1229H87.99C87.846 59.1069 86.39 60.3069 84.07 60.3069ZM96.747 55.9389V56.4349H91.243C91.307 57.9069 91.883 58.6429 92.971 58.6429C93.835 58.6429 94.363 58.2589 94.555 57.4749H96.715C96.459 59.2029 95.099 60.2909 92.859 60.2909C90.315 60.2909 88.923 58.7869 88.923 56.1149C88.923 53.4269 90.443 51.8269 92.987 51.8269C95.435 51.8269 96.747 53.2669 96.747 55.9389ZM92.923 53.3789C91.995 53.3789 91.451 53.9549 91.291 55.1229H94.507C94.363 53.9549 93.835 53.3789 92.923 53.3789ZM100.465 50.7869H98.0815V48.6109H100.465V50.7869ZM100.417 60.1309H98.1455V52.0029H100.417V60.1309ZM106.287 51.8269C106.719 51.8269 107.087 51.8909 107.375 52.0189V54.1309C107.007 54.0189 106.639 53.9549 106.303 53.9549C105.023 53.9549 104.255 54.8189 104.255 56.2429V60.1309H101.999V52.0029H103.775V52.6109L103.599 53.6029H103.807C104.127 52.5629 105.007 51.8269 106.287 51.8269ZM112.054 60.2909C109.478 60.2909 107.99 58.7389 107.99 56.0669C107.99 53.3789 109.478 51.8269 112.054 51.8269C114.63 51.8269 116.102 53.3789 116.102 56.0669C116.102 58.7389 114.662 60.2909 112.054 60.2909ZM112.054 58.5949C113.238 58.5949 113.83 57.7469 113.83 56.0669C113.83 54.3709 113.238 53.5229 112.054 53.5229C110.886 53.5229 110.246 54.4189 110.246 56.0669C110.246 57.6829 110.886 58.5949 112.054 58.5949ZM120.758 60.2909C118.454 60.2909 117.222 59.4429 117.062 57.7309H119.19C119.35 58.4829 119.91 58.8669 120.854 58.8669C121.734 58.8669 122.294 58.5309 122.294 57.9069C122.294 57.4269 121.862 57.1069 120.998 56.9309L119.462 56.6589C117.974 56.3549 117.174 55.5389 117.174 54.4349C117.174 52.8509 118.534 51.8269 120.79 51.8269C122.982 51.8269 124.23 52.7389 124.342 54.3389H122.214C122.102 53.6189 121.59 53.2669 120.646 53.2669C119.798 53.2669 119.286 53.6029 119.286 54.1149C119.286 54.5469 119.718 54.8349 120.582 55.0109L122.07 55.2669C123.718 55.6029 124.55 56.3549 124.55 57.5549C124.55 59.2349 123.062 60.2909 120.758 60.2909ZM137.006 55.9389V56.4349H131.502C131.566 57.9069 132.142 58.6429 133.23 58.6429C134.094 58.6429 134.622 58.2589 134.814 57.4749H136.974C136.718 59.2029 135.358 60.2909 133.118 60.2909C130.574 60.2909 129.182 58.7869 129.182 56.1149C129.182 53.4269 130.702 51.8269 133.246 51.8269C135.694 51.8269 137.006 53.2669 137.006 55.9389ZM133.182 53.3789C132.254 53.3789 131.71 53.9549 131.55 55.1229H134.766C134.622 53.9549 134.094 53.3789 133.182 53.3789ZM147.556 51.8429C149.22 51.8429 150.18 52.8029 150.18 54.4509V60.1309H147.972V54.8669C147.972 53.9869 147.588 53.5549 146.82 53.5549C145.924 53.5549 145.348 54.1629 145.348 55.2029V60.1309H143.14V54.8669C143.14 53.9869 142.756 53.5549 141.972 53.5549C141.076 53.5549 140.516 54.1629 140.516 55.2029V60.1309H138.308V52.0029H139.988V52.6429L139.828 53.4269H140.02C140.42 52.5149 141.316 51.8429 142.644 51.8429C143.636 51.8429 144.34 52.1949 144.756 52.8829L144.612 53.5069H144.788C145.236 52.5309 146.148 51.8429 147.556 51.8429ZM158.677 60.2909C156.373 60.2909 155.141 59.4429 154.981 57.7309H157.109C157.269 58.4829 157.829 58.8669 158.773 58.8669C159.653 58.8669 160.213 58.5309 160.213 57.9069C160.213 57.4269 159.781 57.1069 158.917 56.9309L157.381 56.6589C155.893 56.3549 155.093 55.5389 155.093 54.4349C155.093 52.8509 156.453 51.8269 158.709 51.8269C160.901 51.8269 162.149 52.7389 162.261 54.3389H160.133C160.021 53.6189 159.509 53.2669 158.565 53.2669C157.717 53.2669 157.205 53.6029 157.205 54.1149C157.205 54.5469 157.637 54.8349 158.501 55.0109L159.989 55.2669C161.637 55.6029 162.469 56.3549 162.469 57.5549C162.469 59.2349 160.981 60.2909 158.677 60.2909ZM168.872 56.7389V52.0029H171.144V60.1309H169.368V59.5069L169.528 58.7389H169.336C168.888 59.6349 167.928 60.2909 166.472 60.2909C164.664 60.2909 163.672 59.2829 163.672 57.4909V52.0029H165.928V57.0429C165.928 58.0349 166.36 58.5309 167.24 58.5309C168.216 58.5309 168.872 57.8429 168.872 56.7389ZM176.205 51.8269C178.685 51.8269 179.917 52.8669 179.917 54.9469V60.1309H178.157V59.4909L178.333 58.7229H178.109C177.549 59.7629 176.557 60.2909 175.101 60.2909C173.309 60.2909 172.301 59.4269 172.301 58.0349C172.301 56.6109 173.197 55.7949 175.325 55.5389L177.661 55.2669V54.8509C177.661 53.8749 177.165 53.3789 176.157 53.3789C175.181 53.3789 174.685 53.8429 174.669 54.7709H172.461C172.477 52.8669 173.837 51.8269 176.205 51.8269ZM175.709 58.7549C176.845 58.7549 177.661 58.0509 177.661 57.0109V56.5789L175.773 56.7869C174.957 56.8989 174.541 57.2349 174.541 57.7949C174.541 58.4349 174.925 58.7549 175.709 58.7549ZM188.924 60.3069C186.3 60.3069 184.812 58.7549 184.812 56.0669C184.812 53.3789 186.316 51.8429 188.94 51.8429C191.228 51.8429 192.7 53.0109 192.844 55.0109H190.54C190.364 54.0029 189.82 53.4909 188.908 53.4909C187.708 53.4909 187.116 54.3549 187.116 56.0669C187.116 57.7309 187.74 58.6269 188.908 58.6269C189.804 58.6269 190.348 58.1309 190.54 57.1229H192.844C192.7 59.1069 191.244 60.3069 188.924 60.3069ZM197.841 60.2909C195.265 60.2909 193.777 58.7389 193.777 56.0669C193.777 53.3789 195.265 51.8269 197.841 51.8269C200.417 51.8269 201.889 53.3789 201.889 56.0669C201.889 58.7389 200.449 60.2909 197.841 60.2909ZM197.841 58.5949C199.025 58.5949 199.617 57.7469 199.617 56.0669C199.617 54.3709 199.025 53.5229 197.841 53.5229C196.673 53.5229 196.033 54.4189 196.033 56.0669C196.033 57.6829 196.673 58.5949 197.841 58.5949ZM212.417 51.8429C214.081 51.8429 215.041 52.8029 215.041 54.4509V60.1309H212.833V54.8669C212.833 53.9869 212.449 53.5549 211.681 53.5549C210.785 53.5549 210.209 54.1629 210.209 55.2029V60.1309H208.001V54.8669C208.001 53.9869 207.617 53.5549 206.833 53.5549C205.937 53.5549 205.377 54.1629 205.377 55.2029V60.1309H203.169V52.0029H204.849V52.6429L204.689 53.4269H204.881C205.281 52.5149 206.177 51.8429 207.505 51.8429C208.497 51.8429 209.201 52.1949 209.617 52.8829L209.473 53.5069H209.649C210.097 52.5309 211.009 51.8429 212.417 51.8429ZM221.709 56.7389V52.0029H223.981V60.1309H222.205V59.5069L222.365 58.7389H222.173C221.725 59.6349 220.765 60.2909 219.309 60.2909C217.501 60.2909 216.509 59.2829 216.509 57.4909V52.0029H218.765V57.0429C218.765 58.0349 219.197 58.5309 220.077 58.5309C221.053 58.5309 221.709 57.8429 221.709 56.7389ZM230.178 51.8269C232.018 51.8269 233.042 52.8349 233.042 54.6109V60.1309H230.786V55.0909C230.786 54.0989 230.338 53.6029 229.426 53.6029C228.386 53.6029 227.714 54.2589 227.714 55.3949V60.1309H225.458V52.0029H227.234V52.6269L227.074 53.3789H227.266C227.714 52.4829 228.706 51.8269 230.178 51.8269ZM236.949 50.7869H234.565V48.6109H236.949V50.7869ZM236.901 60.1309H234.629V52.0029H236.901V60.1309ZM243.97 52.1149V48.6109H246.242V60.1309H244.466V59.4749L244.626 58.7229H244.418C243.954 59.6349 243.01 60.2909 241.618 60.2909C239.522 60.2909 238.258 58.7389 238.258 56.0669C238.258 53.3949 239.538 51.8269 241.634 51.8269C242.962 51.8269 243.89 52.3549 244.418 53.4109H244.626L244.466 52.7549L243.97 52.1149ZM242.306 58.5789C243.394 58.5789 244.002 57.6989 244.002 56.0509C244.002 54.3709 243.442 53.5389 242.306 53.5389C241.17 53.5389 240.578 54.4349 240.578 56.0509C240.578 57.6669 241.17 58.5789 242.306 58.5789ZM251.297 51.8269C253.777 51.8269 255.009 52.8669 255.009 54.9469V60.1309H253.249V59.4909L253.425 58.7229H253.201C252.641 59.7629 251.649 60.2909 250.193 60.2909C248.401 60.2909 247.393 59.4269 247.393 58.0349C247.393 56.6109 248.289 55.7949 250.417 55.5389L252.753 55.2669V54.8509C252.753 53.8749 252.257 53.3789 251.249 53.3789C250.273 53.3789 249.777 53.8429 249.761 54.7709H247.553C247.569 52.8669 248.929 51.8269 251.297 51.8269ZM250.801 58.7549C251.937 58.7549 252.753 58.0509 252.753 57.0109V56.5789L250.865 56.7869C250.049 56.8989 249.633 57.2349 249.633 57.7949C249.633 58.4349 250.017 58.7549 250.801 58.7549ZM261.963 52.1149V48.6109H264.235V60.1309H262.459V59.4749L262.619 58.7229H262.411C261.947 59.6349 261.003 60.2909 259.611 60.2909C257.515 60.2909 256.251 58.7389 256.251 56.0669C256.251 53.3949 257.531 51.8269 259.627 51.8269C260.955 51.8269 261.883 52.3549 262.411 53.4109H262.619L262.459 52.7549L261.963 52.1149ZM260.299 58.5789C261.387 58.5789 261.995 57.6989 261.995 56.0509C261.995 54.3709 261.435 53.5389 260.299 53.5389C259.163 53.5389 258.571 54.4349 258.571 56.0509C258.571 57.6669 259.163 58.5789 260.299 58.5789ZM273.258 55.9389V56.4349H267.754C267.818 57.9069 268.394 58.6429 269.482 58.6429C270.346 58.6429 270.874 58.2589 271.066 57.4749H273.226C272.97 59.2029 271.61 60.2909 269.37 60.2909C266.826 60.2909 265.434 58.7869 265.434 56.1149C265.434 53.4269 266.954 51.8269 269.498 51.8269C271.946 51.8269 273.258 53.2669 273.258 55.9389ZM269.434 53.3789C268.506 53.3789 267.962 53.9549 267.802 55.1229H271.018C270.874 53.9549 270.346 53.3789 269.434 53.3789Z" fill="black"/>
<path d="M24.7665 83.1309H22.9185L20.2185 75.0429V74.8509H21.5625L23.6865 81.4269L23.7585 81.9789H23.9505L24.0225 81.4269L26.1345 74.8509H27.4665V75.0429L24.7665 83.1309ZM30.3915 76.9509C32.2515 76.9509 33.2835 78.1269 33.2835 80.0949C33.2835 82.0629 32.2515 83.2389 30.3915 83.2389C28.5315 83.2389 27.4995 82.0629 27.4995 80.0949C27.4995 78.1269 28.5555 76.9509 30.3915 76.9509ZM30.4035 82.3029C31.4715 82.3029 32.0475 81.4869 32.0475 80.0949C32.0475 78.6909 31.4715 77.8869 30.4035 77.8869C29.3115 77.8869 28.7235 78.7029 28.7235 80.0949C28.7235 81.4869 29.3115 82.3029 30.4035 82.3029ZM37.2333 83.2509C35.3493 83.2509 34.3053 82.0749 34.3053 80.0949C34.3053 78.1269 35.3613 76.9629 37.2453 76.9629C38.8293 76.9629 39.8613 77.7789 39.9933 79.1709H38.7333C38.5653 78.3069 38.0613 77.8749 37.2333 77.8749C36.1293 77.8749 35.5533 78.6669 35.5533 80.0949C35.5533 81.5229 36.1413 82.3149 37.2333 82.3149C38.0373 82.3149 38.5773 81.8349 38.7333 81.0069H39.9933C39.8613 82.4109 38.8533 83.2509 37.2333 83.2509ZM43.6359 75.1389L43.5639 75.3189L42.7839 76.3269H41.9799V76.1829L43.3119 74.4669H44.0919L45.4239 76.1949V76.3269H44.5959L43.8279 75.3189L43.7439 75.1389H43.6359ZM46.4919 80.0109V80.2749H42.1599C42.2079 81.6309 42.7599 82.3149 43.8039 82.3149C44.6079 82.3149 45.0999 81.9429 45.2679 81.2109H46.4559C46.2639 82.4709 45.2919 83.2389 43.7439 83.2389C41.9079 83.2389 40.8999 82.0869 40.8999 80.1189C40.8999 78.1389 41.9679 76.9509 43.7799 76.9509C45.5439 76.9509 46.4919 78.0549 46.4919 80.0109ZM43.7439 77.8269C42.8319 77.8269 42.3159 78.3909 42.1959 79.5189H45.2679C45.1719 78.3909 44.6679 77.8269 43.7439 77.8269ZM53.5818 76.9629C55.2018 76.9629 56.0898 78.1629 56.0898 80.0949C56.0898 82.0509 55.1778 83.2509 53.5818 83.2509C52.5378 83.2509 51.8058 82.7469 51.4578 82.0269H51.3498L51.4218 82.4469L51.6738 82.8549V85.3029H50.4258V77.0709H51.4218V77.6229L51.3498 78.1749H51.4698C51.8058 77.4669 52.5378 76.9629 53.5818 76.9629ZM53.2338 82.3029C54.2778 82.3029 54.8298 81.4869 54.8298 80.1069C54.8298 78.7269 54.2538 77.9109 53.2338 77.9109C52.2258 77.9109 51.6498 78.7149 51.6498 80.1069C51.6498 81.5349 52.2258 82.3029 53.2338 82.3029ZM60.0142 76.9509C61.8742 76.9509 62.9062 78.1269 62.9062 80.0949C62.9062 82.0629 61.8742 83.2389 60.0142 83.2389C58.1542 83.2389 57.1222 82.0629 57.1222 80.0949C57.1222 78.1269 58.1782 76.9509 60.0142 76.9509ZM60.0262 82.3029C61.0942 82.3029 61.6702 81.4869 61.6702 80.0949C61.6702 78.6909 61.0942 77.8869 60.0262 77.8869C58.9342 77.8869 58.3462 78.7029 58.3462 80.0949C58.3462 81.4869 58.9342 82.3029 60.0262 82.3029ZM68.344 77.3469V74.4909H69.58V83.1309H68.584V82.5789L68.668 82.0269H68.548C68.2 82.7469 67.468 83.2389 66.424 83.2389C64.852 83.2389 63.928 82.0269 63.928 80.1069C63.928 78.1749 64.864 76.9509 66.436 76.9509C67.48 76.9509 68.212 77.4549 68.548 78.1749H68.668L68.584 77.7549L68.344 77.3469ZM66.784 82.2909C67.792 82.2909 68.368 81.4869 68.368 80.0949C68.368 78.6669 67.792 77.8989 66.784 77.8989C65.74 77.8989 65.188 78.7149 65.188 80.0949C65.188 81.4749 65.764 82.2909 66.784 82.2909ZM76.2903 80.0109V80.2749H71.9583C72.0063 81.6309 72.5583 82.3149 73.6023 82.3149C74.4063 82.3149 74.8983 81.9429 75.0663 81.2109H76.2543C76.0623 82.4709 75.0903 83.2389 73.5423 83.2389C71.7063 83.2389 70.6983 82.0869 70.6983 80.1189C70.6983 78.1389 71.7663 76.9509 73.5783 76.9509C75.3423 76.9509 76.2903 78.0549 76.2903 80.0109ZM73.5423 77.8269C72.6303 77.8269 72.1143 78.3909 71.9943 79.5189H75.0663C74.9703 78.3909 74.4663 77.8269 73.5423 77.8269ZM82.7322 76.9509C84.4602 76.9509 85.3242 77.7069 85.3242 79.2069V83.1309H84.3282V82.5789L84.4242 82.0269H84.2922C83.8842 82.8309 83.1282 83.2389 82.0122 83.2389C80.7162 83.2389 79.9722 82.6149 79.9722 81.5949C79.9722 80.5989 80.6082 79.9989 82.1562 79.8069L84.0882 79.5789V79.1589C84.0882 78.2709 83.6202 77.8269 82.6842 77.8269C81.7842 77.8269 81.3282 78.2349 81.3042 79.0629H80.0922C80.1042 77.6829 81.0882 76.9509 82.7322 76.9509ZM82.3242 82.3749C83.3802 82.3749 84.0882 81.7269 84.0882 80.7309V80.3229L82.3722 80.5269C81.5922 80.6349 81.1962 80.9469 81.1962 81.4629C81.1962 82.0509 81.6162 82.3749 82.3242 82.3749ZM89.4385 83.2509C87.5545 83.2509 86.5105 82.0749 86.5105 80.0949C86.5105 78.1269 87.5665 76.9629 89.4505 76.9629C91.0345 76.9629 92.0665 77.7789 92.1985 79.1709H90.9385C90.7705 78.3069 90.2665 77.8749 89.4385 77.8749C88.3345 77.8749 87.7585 78.6669 87.7585 80.0949C87.7585 81.5229 88.3465 82.3149 89.4385 82.3149C90.2425 82.3149 90.7825 81.8349 90.9385 81.0069H92.1985C92.0665 82.4109 91.0585 83.2509 89.4385 83.2509ZM96.009 76.9509C97.869 76.9509 98.901 78.1269 98.901 80.0949C98.901 82.0629 97.869 83.2389 96.009 83.2389C94.149 83.2389 93.117 82.0629 93.117 80.0949C93.117 78.1269 94.173 76.9509 96.009 76.9509ZM96.021 82.3029C97.089 82.3029 97.665 81.4869 97.665 80.0949C97.665 78.6909 97.089 77.8869 96.021 77.8869C94.929 77.8869 94.341 78.7029 94.341 80.0949C94.341 81.4869 94.929 82.3029 96.021 82.3029ZM106.751 76.9629C107.963 76.9629 108.695 77.6589 108.695 78.9069V83.1189H107.483V79.1229C107.483 78.3189 107.123 77.9109 106.391 77.9109C105.527 77.9109 104.999 78.4749 104.999 79.4229V83.1309H103.787V79.1229C103.787 78.3189 103.415 77.9109 102.683 77.9109C101.831 77.9109 101.303 78.4749 101.303 79.4469V83.1309H100.091V77.0709H101.039V77.5989L100.967 78.1269H101.075C101.363 77.4429 102.047 76.9629 103.007 76.9629C103.835 76.9629 104.387 77.2749 104.663 77.9109L104.603 78.2349H104.699C104.999 77.4789 105.707 76.9629 106.751 76.9629ZM113.205 76.9629C114.825 76.9629 115.713 78.1629 115.713 80.0949C115.713 82.0509 114.801 83.2509 113.205 83.2509C112.161 83.2509 111.429 82.7469 111.081 82.0269H110.973L111.045 82.4469L111.297 82.8549V85.3029H110.049V77.0709H111.045V77.6229L110.973 78.1749H111.093C111.429 77.4669 112.161 76.9629 113.205 76.9629ZM112.857 82.3029C113.901 82.3029 114.453 81.4869 114.453 80.1069C114.453 78.7269 113.877 77.9109 112.857 77.9109C111.849 77.9109 111.273 78.7149 111.273 80.1069C111.273 81.5349 111.849 82.3029 112.857 82.3029ZM119.421 76.9509C121.149 76.9509 122.013 77.7069 122.013 79.2069V83.1309H121.017V82.5789L121.113 82.0269H120.981C120.573 82.8309 119.817 83.2389 118.701 83.2389C117.405 83.2389 116.661 82.6149 116.661 81.5949C116.661 80.5989 117.297 79.9989 118.845 79.8069L120.777 79.5789V79.1589C120.777 78.2709 120.309 77.8269 119.373 77.8269C118.473 77.8269 118.017 78.2349 117.993 79.0629H116.781C116.793 77.6829 117.777 76.9509 119.421 76.9509ZM119.013 82.3749C120.069 82.3749 120.777 81.7269 120.777 80.7309V80.3229L119.061 80.5269C118.281 80.6349 117.885 80.9469 117.885 81.4629C117.885 82.0509 118.305 82.3749 119.013 82.3749ZM126.584 76.9509C127.94 76.9509 128.72 77.7069 128.72 79.0869V83.1309H127.496V79.3269C127.496 78.4029 127.064 77.9349 126.2 77.9349C125.228 77.9349 124.604 78.5469 124.604 79.6029V83.1309H123.368V77.0709H124.364V77.5869L124.292 78.1389H124.388C124.724 77.4549 125.468 76.9509 126.584 76.9509ZM133.307 76.9509C134.687 76.9509 135.455 77.6949 135.455 79.0869V83.1309H134.219V79.3269C134.219 78.4029 133.787 77.9349 132.923 77.9349C131.963 77.9349 131.327 78.5469 131.327 79.5909V83.1309H130.091V74.4909H131.327V77.2149L131.087 77.6709L131.003 78.1269H131.123C131.447 77.4429 132.215 76.9509 133.307 76.9509ZM139.323 76.9509C141.051 76.9509 141.915 77.7069 141.915 79.2069V83.1309H140.919V82.5789L141.015 82.0269H140.883C140.475 82.8309 139.719 83.2389 138.603 83.2389C137.307 83.2389 136.563 82.6149 136.563 81.5949C136.563 80.5989 137.199 79.9989 138.747 79.8069L140.679 79.5789V79.1589C140.679 78.2709 140.211 77.8269 139.275 77.8269C138.375 77.8269 137.919 78.2349 137.895 79.0629H136.683C136.695 77.6829 137.679 76.9509 139.323 76.9509ZM138.915 82.3749C139.971 82.3749 140.679 81.7269 140.679 80.7309V80.3229L138.963 80.5269C138.183 80.6349 137.787 80.9469 137.787 81.4629C137.787 82.0509 138.207 82.3749 138.915 82.3749ZM146.161 76.9509C146.485 76.9509 146.761 76.9989 146.989 77.0949V78.2469C146.689 78.1629 146.413 78.1149 146.149 78.1149C145.105 78.1149 144.505 78.8109 144.505 80.0109V83.1309H143.269V77.0709H144.277V77.5629L144.181 78.2229H144.289C144.565 77.4549 145.201 76.9509 146.161 76.9509ZM156.023 80.0109V80.2749H151.691C151.739 81.6309 152.291 82.3149 153.335 82.3149C154.139 82.3149 154.631 81.9429 154.799 81.2109H155.987C155.795 82.4709 154.823 83.2389 153.275 83.2389C151.439 83.2389 150.431 82.0869 150.431 80.1189C150.431 78.1389 151.499 76.9509 153.311 76.9509C155.075 76.9509 156.023 78.0549 156.023 80.0109ZM153.275 77.8269C152.363 77.8269 151.847 78.3909 151.727 79.5189H154.799C154.703 78.3909 154.199 77.8269 153.275 77.8269ZM162.717 83.2509C160.833 83.2509 159.789 82.0749 159.789 80.0949C159.789 78.1269 160.845 76.9629 162.729 76.9629C164.313 76.9629 165.345 77.7789 165.477 79.1709H164.217C164.049 78.3069 163.545 77.8749 162.717 77.8749C161.613 77.8749 161.037 78.6669 161.037 80.0949C161.037 81.5229 161.625 82.3149 162.717 82.3149C163.521 82.3149 164.061 81.8349 164.217 81.0069H165.477C165.345 82.4109 164.337 83.2509 162.717 83.2509ZM169.288 76.9509C171.148 76.9509 172.18 78.1269 172.18 80.0949C172.18 82.0629 171.148 83.2389 169.288 83.2389C167.428 83.2389 166.396 82.0629 166.396 80.0949C166.396 78.1269 167.452 76.9509 169.288 76.9509ZM169.3 82.3029C170.368 82.3029 170.944 81.4869 170.944 80.0949C170.944 78.6909 170.368 77.8869 169.3 77.8869C168.208 77.8869 167.62 78.7029 167.62 80.0949C167.62 81.4869 168.208 82.3029 169.3 82.3029ZM176.586 76.9509C177.942 76.9509 178.722 77.7069 178.722 79.0869V83.1309H177.498V79.3269C177.498 78.4029 177.066 77.9349 176.202 77.9349C175.23 77.9349 174.606 78.5469 174.606 79.6029V83.1309H173.37V77.0709H174.366V77.5869L174.294 78.1389H174.39C174.726 77.4549 175.47 76.9509 176.586 76.9509ZM182.733 75.3549C182.145 75.3549 181.857 75.6549 181.857 76.2549V77.0709H183.357V77.9349H181.857V83.1309H180.621L180.609 77.9349H179.685V77.0709H180.609V76.1469C180.609 74.9709 181.209 74.3829 182.421 74.3709C182.841 74.3829 183.177 74.4309 183.441 74.5149V75.4749C183.225 75.3909 182.985 75.3549 182.733 75.3549ZM185.678 76.0149H184.322V74.4909H185.69L185.678 76.0149ZM185.63 83.1309H184.394V77.0709H185.63V83.1309ZM189.987 76.9509C190.311 76.9509 190.587 76.9989 190.815 77.0949V78.2469C190.515 78.1629 190.239 78.1149 189.975 78.1149C188.931 78.1149 188.331 78.8109 188.331 80.0109V83.1309H187.095V77.0709H188.103V77.5629L188.007 78.2229H188.115C188.391 77.4549 189.027 76.9509 189.987 76.9509ZM198.335 76.9629C199.547 76.9629 200.279 77.6589 200.279 78.9069V83.1189H199.067V79.1229C199.067 78.3189 198.707 77.9109 197.975 77.9109C197.111 77.9109 196.583 78.4749 196.583 79.4229V83.1309H195.371V79.1229C195.371 78.3189 194.999 77.9109 194.267 77.9109C193.415 77.9109 192.887 78.4749 192.887 79.4469V83.1309H191.675V77.0709H192.623V77.5989L192.551 78.1269H192.659C192.947 77.4429 193.631 76.9629 194.591 76.9629C195.419 76.9629 195.971 77.2749 196.247 77.9109L196.187 78.2349H196.283C196.583 77.4789 197.291 76.9629 198.335 76.9629ZM204.141 76.9509C205.869 76.9509 206.733 77.7069 206.733 79.2069V83.1309H205.737V82.5789L205.833 82.0269H205.701C205.293 82.8309 204.537 83.2389 203.421 83.2389C202.125 83.2389 201.381 82.6149 201.381 81.5949C201.381 80.5989 202.017 79.9989 203.565 79.8069L205.497 79.5789V79.1589C205.497 78.2709 205.029 77.8269 204.093 77.8269C203.193 77.8269 202.737 78.2349 202.713 79.0629H201.501C201.513 77.6829 202.497 76.9509 204.141 76.9509ZM203.733 82.3749C204.789 82.3749 205.497 81.7269 205.497 80.7309V80.3229L203.781 80.5269C203.001 80.6349 202.605 80.9469 202.605 81.4629C202.605 82.0509 203.025 82.3749 203.733 82.3749ZM210.979 76.9509C211.303 76.9509 211.579 76.9989 211.807 77.0949V78.2469C211.507 78.1629 211.231 78.1149 210.967 78.1149C209.923 78.1149 209.323 78.8109 209.323 80.0109V83.1309H208.087V77.0709H209.095V77.5629L208.999 78.2229H209.107C209.383 77.4549 210.019 76.9509 210.979 76.9509ZM218.153 76.9509C220.013 76.9509 221.045 78.1269 221.045 80.0949C221.045 82.0629 220.013 83.2389 218.153 83.2389C216.293 83.2389 215.261 82.0629 215.261 80.0949C215.261 78.1269 216.317 76.9509 218.153 76.9509ZM218.165 82.3029C219.233 82.3029 219.809 81.4869 219.809 80.0949C219.809 78.6909 219.233 77.8869 218.165 77.8869C217.073 77.8869 216.485 78.7029 216.485 80.0949C216.485 81.4869 217.073 82.3029 218.165 82.3029ZM227.89 76.9509C228.214 76.9509 228.49 76.9989 228.718 77.0949V78.2469C228.418 78.1629 228.142 78.1149 227.878 78.1149C226.834 78.1149 226.234 78.8109 226.234 80.0109V83.1309H224.998V77.0709H226.006V77.5629L225.91 78.2229H226.018C226.294 77.4549 226.93 76.9509 227.89 76.9509ZM234.872 80.0109V80.2749H230.54C230.588 81.6309 231.14 82.3149 232.184 82.3149C232.988 82.3149 233.48 81.9429 233.648 81.2109H234.836C234.644 82.4709 233.672 83.2389 232.124 83.2389C230.288 83.2389 229.28 82.0869 229.28 80.1189C229.28 78.1389 230.348 76.9509 232.16 76.9509C233.924 76.9509 234.872 78.0549 234.872 80.0109ZM232.124 77.8269C231.212 77.8269 230.696 78.3909 230.576 79.5189H233.648C233.552 78.3909 233.048 77.8269 232.124 77.8269ZM238.803 83.2509C236.919 83.2509 235.875 82.0749 235.875 80.0949C235.875 78.1269 236.931 76.9629 238.815 76.9629C240.399 76.9629 241.431 77.7789 241.563 79.1709H240.303C240.135 78.3069 239.631 77.8749 238.803 77.8749C237.699 77.8749 237.123 78.6669 237.123 80.0949C237.123 81.5229 237.711 82.3149 238.803 82.3149C239.607 82.3149 240.147 81.8349 240.303 81.0069H241.563C241.431 82.4109 240.423 83.2509 238.803 83.2509ZM248.061 80.0109V80.2749H243.729C243.777 81.6309 244.329 82.3149 245.373 82.3149C246.177 82.3149 246.669 81.9429 246.837 81.2109H248.025C247.833 82.4709 246.861 83.2389 245.313 83.2389C243.477 83.2389 242.469 82.0869 242.469 80.1189C242.469 78.1389 243.537 76.9509 245.349 76.9509C247.113 76.9509 248.061 78.0549 248.061 80.0109ZM245.313 77.8269C244.401 77.8269 243.885 78.3909 243.765 79.5189H246.837C246.741 78.3909 246.237 77.8269 245.313 77.8269ZM252.389 76.9509C253.961 76.9509 254.897 78.1749 254.897 80.1069C254.897 82.0269 253.961 83.2389 252.389 83.2389C251.345 83.2389 250.613 82.7349 250.277 82.0269H250.157L250.229 82.5789V83.1309H249.233V74.4909H250.481V77.3469L250.229 77.7549L250.157 78.1749H250.265C250.613 77.4549 251.345 76.9509 252.389 76.9509ZM252.041 82.2909C253.061 82.2909 253.637 81.4269 253.625 80.0949C253.625 78.7389 253.061 77.8989 252.041 77.8989C251.021 77.8989 250.457 78.7509 250.457 80.0949C250.469 81.4509 251.033 82.2909 252.041 82.2909ZM257.477 76.0149H256.121V74.4909H257.489L257.477 76.0149ZM257.429 83.1309H256.193V77.0709H257.429V83.1309ZM265.555 76.9629C266.767 76.9629 267.499 77.6589 267.499 78.9069V83.1189H266.287V79.1229C266.287 78.3189 265.927 77.9109 265.195 77.9109C264.331 77.9109 263.803 78.4749 263.803 79.4229V83.1309H262.591V79.1229C262.591 78.3189 262.219 77.9109 261.487 77.9109C260.635 77.9109 260.107 78.4749 260.107 79.4469V83.1309H258.895V77.0709H259.843V77.5989L259.771 78.1269H259.879C260.167 77.4429 260.851 76.9629 261.811 76.9629C262.639 76.9629 263.191 77.2749 263.467 77.9109L263.407 78.2349H263.503C263.803 77.4789 264.511 76.9629 265.555 76.9629ZM274.265 80.0109V80.2749H269.933C269.981 81.6309 270.533 82.3149 271.577 82.3149C272.381 82.3149 272.873 81.9429 273.041 81.2109H274.229C274.037 82.4709 273.065 83.2389 271.517 83.2389C269.681 83.2389 268.673 82.0869 268.673 80.1189C268.673 78.1389 269.741 76.9509 271.553 76.9509C273.317 76.9509 274.265 78.0549 274.265 80.0109ZM271.517 77.8269C270.605 77.8269 270.089 78.3909 269.969 79.5189H273.041C272.945 78.3909 272.441 77.8269 271.517 77.8269ZM278.652 76.9509C280.008 76.9509 280.788 77.7069 280.788 79.0869V83.1309H279.564V79.3269C279.564 78.4029 279.132 77.9349 278.268 77.9349C277.296 77.9349 276.672 78.5469 276.672 79.6029V83.1309H275.436V77.0709H276.432V77.5869L276.36 78.1389H276.456C276.792 77.4549 277.536 76.9509 278.652 76.9509ZM285.064 82.2309C285.304 82.2309 285.58 82.1949 285.88 82.1109V83.0829C285.544 83.1909 285.148 83.2389 284.68 83.2389C283.42 83.2389 282.784 82.6269 282.784 81.3909V80.7909V77.9349H281.716V77.0709H282.784V75.4269H284.02V77.0709H285.844V77.9349H284.02V80.7189V81.1989C284.02 81.8829 284.368 82.2309 285.064 82.2309ZM289.615 76.9509C291.475 76.9509 292.507 78.1269 292.507 80.0949C292.507 82.0629 291.475 83.2389 289.615 83.2389C287.755 83.2389 286.723 82.0629 286.723 80.0949C286.723 78.1269 287.779 76.9509 289.615 76.9509ZM289.627 82.3029C290.695 82.3029 291.271 81.4869 291.271 80.0949C291.271 78.6909 290.695 77.8869 289.627 77.8869C288.535 77.8869 287.947 78.7029 287.947 80.0949C287.947 81.4869 288.535 82.3029 289.627 82.3029ZM300.708 77.3469V74.4909H301.944V83.1309H300.948V82.5789L301.032 82.0269H300.912C300.564 82.7469 299.832 83.2389 298.788 83.2389C297.216 83.2389 296.292 82.0269 296.292 80.1069C296.292 78.1749 297.228 76.9509 298.8 76.9509C299.844 76.9509 300.576 77.4549 300.912 78.1749H301.032L300.948 77.7549L300.708 77.3469ZM299.148 82.2909C300.156 82.2909 300.732 81.4869 300.732 80.0949C300.732 78.6669 300.156 77.8989 299.148 77.8989C298.104 77.8989 297.552 78.7149 297.552 80.0949C297.552 81.4749 298.128 82.2909 299.148 82.2909ZM308.654 80.0109V80.2749H304.322C304.37 81.6309 304.922 82.3149 305.966 82.3149C306.77 82.3149 307.262 81.9429 307.43 81.2109H308.618C308.426 82.4709 307.454 83.2389 305.906 83.2389C304.07 83.2389 303.062 82.0869 303.062 80.1189C303.062 78.1389 304.13 76.9509 305.942 76.9509C307.706 76.9509 308.654 78.0549 308.654 80.0109ZM305.906 77.8269C304.994 77.8269 304.478 78.3909 304.358 79.5189H307.43C307.334 78.3909 306.83 77.8269 305.906 77.8269ZM15.5434 98.9629C17.1634 98.9629 18.0514 100.163 18.0514 102.095C18.0514 104.051 17.1394 105.251 15.5434 105.251C14.4994 105.251 13.7674 104.747 13.4194 104.027H13.3114L13.3834 104.447L13.6354 104.855V107.303H12.3874V99.0709H13.3834V99.6229L13.3114 100.175H13.4314C13.7674 99.4669 14.4994 98.9629 15.5434 98.9629ZM15.1954 104.303C16.2394 104.303 16.7914 103.487 16.7914 102.107C16.7914 100.727 16.2154 99.9109 15.1954 99.9109C14.1874 99.9109 13.6114 100.715 13.6114 102.107C13.6114 103.535 14.1874 104.303 15.1954 104.303ZM24.6638 102.011V102.275H20.3318C20.3798 103.631 20.9318 104.315 21.9758 104.315C22.7798 104.315 23.2718 103.943 23.4398 103.211H24.6278C24.4358 104.471 23.4638 105.239 21.9158 105.239C20.0798 105.239 19.0718 104.087 19.0718 102.119C19.0718 100.139 20.1398 98.9509 21.9518 98.9509C23.7158 98.9509 24.6638 100.055 24.6638 102.011ZM21.9158 99.8269C21.0038 99.8269 20.4878 100.391 20.3678 101.519H23.4398C23.3438 100.391 22.8398 99.8269 21.9158 99.8269ZM30.0829 99.3469V96.4909H31.3189V105.131H30.3229V104.579L30.4069 104.027H30.2869C29.9389 104.747 29.2069 105.239 28.1629 105.239C26.5909 105.239 25.6669 104.027 25.6669 102.107C25.6669 100.175 26.6029 98.9509 28.1749 98.9509C29.2189 98.9509 29.9509 99.4549 30.2869 100.175H30.4069L30.3229 99.7549L30.0829 99.3469ZM28.5229 104.291C29.5309 104.291 30.1069 103.487 30.1069 102.095C30.1069 100.667 29.5309 99.8989 28.5229 99.8989C27.4789 99.8989 26.9269 100.715 26.9269 102.095C26.9269 103.475 27.5029 104.291 28.5229 104.291ZM34.0796 98.0149H32.7236V96.4909H34.0916L34.0796 98.0149ZM34.0316 105.131H32.7956V99.0709H34.0316V105.131ZM39.7453 99.3469V96.4909H40.9813V105.131H39.9853V104.579L40.0693 104.027H39.9493C39.6013 104.747 38.8693 105.239 37.8253 105.239C36.2533 105.239 35.3293 104.027 35.3293 102.107C35.3293 100.175 36.2653 98.9509 37.8373 98.9509C38.8813 98.9509 39.6133 99.4549 39.9493 100.175H40.0693L39.9853 99.7549L39.7453 99.3469ZM38.1853 104.291C39.1933 104.291 39.7693 103.487 39.7693 102.095C39.7693 100.667 39.1933 99.8989 38.1853 99.8989C37.1413 99.8989 36.5893 100.715 36.5893 102.095C36.5893 103.475 37.1653 104.291 38.1853 104.291ZM45.0036 98.9509C46.8636 98.9509 47.8956 100.127 47.8956 102.095C47.8956 104.063 46.8636 105.239 45.0036 105.239C43.1436 105.239 42.1116 104.063 42.1116 102.095C42.1116 100.127 43.1676 98.9509 45.0036 98.9509ZM45.0156 104.303C46.0836 104.303 46.6596 103.487 46.6596 102.095C46.6596 100.691 46.0836 99.8869 45.0156 99.8869C43.9236 99.8869 43.3356 100.703 43.3356 102.095C43.3356 103.487 43.9236 104.303 45.0156 104.303ZM51.4854 105.239C49.8534 105.239 48.9654 104.615 48.8214 103.367H50.0094C50.1414 104.075 50.6454 104.423 51.5214 104.423C52.3494 104.423 52.9014 104.075 52.9014 103.487C52.9014 103.019 52.5414 102.719 51.8094 102.575L50.5734 102.359C49.5054 102.155 48.9294 101.579 48.9294 100.775C48.9294 99.6709 49.8894 98.9509 51.4734 98.9509C52.9734 98.9509 53.8974 99.5869 54.0054 100.775H52.8174C52.7334 100.103 52.2534 99.7669 51.4014 99.7669C50.5854 99.7669 50.0934 100.115 50.0934 100.607C50.0934 101.015 50.4534 101.291 51.1614 101.435L52.3614 101.651C53.5494 101.879 54.1374 102.443 54.1374 103.319C54.1374 104.483 53.1054 105.239 51.4854 105.239ZM62.5326 99.6229V99.0709H63.5526V107.327H62.2806V104.867L62.5326 104.459L62.6046 104.027H62.4966C62.1606 104.747 61.4286 105.239 60.3846 105.239C58.8126 105.239 57.8646 104.027 57.8646 102.095C57.8646 100.175 58.8006 98.9629 60.3726 98.9629C61.4286 98.9629 62.1606 99.4549 62.4966 100.175H62.6046L62.5326 99.6229ZM60.7446 104.291C61.7406 104.291 62.3046 103.511 62.3046 102.107C62.3046 100.715 61.7406 99.9229 60.7446 99.9229C59.7246 99.9229 59.1606 100.751 59.1606 102.107C59.1606 103.487 59.7006 104.291 60.7446 104.291ZM68.929 102.611V99.0709H70.165V105.131H69.169V104.603L69.253 104.063H69.145C68.809 104.747 68.077 105.239 67.009 105.239C65.665 105.239 64.909 104.495 64.909 103.115V99.0709H66.145V102.887C66.145 103.811 66.565 104.267 67.393 104.267C68.317 104.267 68.929 103.655 68.929 102.611ZM76.9276 102.011V102.275H72.5956C72.6436 103.631 73.1956 104.315 74.2396 104.315C75.0436 104.315 75.5356 103.943 75.7036 103.211H76.8916C76.6996 104.471 75.7276 105.239 74.1796 105.239C72.3436 105.239 71.3356 104.087 71.3356 102.119C71.3356 100.139 72.4036 98.9509 74.2156 98.9509C75.9796 98.9509 76.9276 100.055 76.9276 102.011ZM74.1796 99.8269C73.2676 99.8269 72.7516 100.391 72.6316 101.519H75.7036C75.6076 100.391 75.1036 99.8269 74.1796 99.8269ZM83.6215 105.251C81.7375 105.251 80.6935 104.075 80.6935 102.095C80.6935 100.127 81.7495 98.9629 83.6335 98.9629C85.2175 98.9629 86.2495 99.7789 86.3815 101.171H85.1215C84.9535 100.307 84.4495 99.8749 83.6215 99.8749C82.5175 99.8749 81.9415 100.667 81.9415 102.095C81.9415 103.523 82.5295 104.315 83.6215 104.315C84.4255 104.315 84.9655 103.835 85.1215 103.007H86.3815C86.2495 104.411 85.2415 105.251 83.6215 105.251ZM90.6841 98.9509C92.0641 98.9509 92.8321 99.6949 92.8321 101.087V105.131H91.5961V101.327C91.5961 100.403 91.1641 99.9349 90.3001 99.9349C89.3401 99.9349 88.7041 100.547 88.7041 101.591V105.131H87.4681V96.4909H88.7041V99.2149L88.4641 99.6709L88.3801 100.127H88.5001C88.8241 99.4429 89.5921 98.9509 90.6841 98.9509ZM99.6038 102.011V102.275H95.2718C95.3198 103.631 95.8718 104.315 96.9158 104.315C97.7198 104.315 98.2118 103.943 98.3798 103.211H99.5678C99.3758 104.471 98.4038 105.239 96.8558 105.239C95.0198 105.239 94.0118 104.087 94.0118 102.119C94.0118 100.139 95.0798 98.9509 96.8918 98.9509C98.6558 98.9509 99.6038 100.055 99.6038 102.011ZM96.8558 99.8269C95.9438 99.8269 95.4278 100.391 95.3078 101.519H98.3798C98.2838 100.391 97.7798 99.8269 96.8558 99.8269ZM105.251 99.5989V99.0709H106.307V104.795C106.307 106.463 105.335 107.411 103.403 107.411C101.723 107.411 100.763 106.655 100.655 105.311H101.891C101.975 106.091 102.515 106.535 103.415 106.535C104.459 106.535 104.987 105.983 105.023 104.879L105.251 104.303L105.335 103.823H105.227C104.879 104.543 104.135 105.035 103.091 105.035C101.507 105.035 100.607 103.859 100.607 101.987C100.607 100.127 101.507 98.9509 103.091 98.9509C104.135 98.9509 104.879 99.4309 105.215 100.139H105.335L105.251 99.5989ZM103.463 104.147C104.459 104.147 105.035 103.367 105.035 101.987C105.035 100.631 104.459 99.8389 103.463 99.8389C102.419 99.8389 101.867 100.655 101.867 101.987C101.867 103.343 102.443 104.147 103.463 104.147ZM110.182 98.9509C111.91 98.9509 112.774 99.7069 112.774 101.207V105.131H111.778V104.579L111.874 104.027H111.742C111.334 104.831 110.578 105.239 109.462 105.239C108.166 105.239 107.422 104.615 107.422 103.595C107.422 102.599 108.058 101.999 109.606 101.807L111.538 101.579V101.159C111.538 100.271 111.07 99.8269 110.134 99.8269C109.234 99.8269 108.778 100.235 108.754 101.063H107.542C107.554 99.6829 108.538 98.9509 110.182 98.9509ZM109.774 104.375C110.83 104.375 111.538 103.727 111.538 102.731V102.323L109.822 102.527C109.042 102.635 108.646 102.947 108.646 103.463C108.646 104.051 109.066 104.375 109.774 104.375ZM120.789 98.9629C122.001 98.9629 122.733 99.6589 122.733 100.907V105.119H121.521V101.123C121.521 100.319 121.161 99.9109 120.429 99.9109C119.565 99.9109 119.037 100.475 119.037 101.423V105.131H117.825V101.123C117.825 100.319 117.453 99.9109 116.721 99.9109C115.869 99.9109 115.341 100.475 115.341 101.447V105.131H114.129V99.0709H115.077V99.5989L115.005 100.127H115.113C115.401 99.4429 116.085 98.9629 117.045 98.9629C117.873 98.9629 118.425 99.2749 118.701 99.9109L118.641 100.235H118.737C119.037 99.4789 119.745 98.9629 120.789 98.9629ZM129.358 98.9509C131.086 98.9509 131.95 99.7069 131.95 101.207V105.131H130.954V104.579L131.05 104.027H130.918C130.51 104.831 129.754 105.239 128.638 105.239C127.342 105.239 126.598 104.615 126.598 103.595C126.598 102.599 127.234 101.999 128.782 101.807L130.714 101.579V101.159C130.714 100.271 130.246 99.8269 129.31 99.8269C128.41 99.8269 127.954 100.235 127.93 101.063H126.718C126.73 99.6829 127.714 98.9509 129.358 98.9509ZM128.95 104.375C130.006 104.375 130.714 103.727 130.714 102.731V102.323L128.998 102.527C128.218 102.635 127.822 102.947 127.822 103.463C127.822 104.051 128.242 104.375 128.95 104.375ZM136.028 98.9509C137.888 98.9509 138.92 100.127 138.92 102.095C138.92 104.063 137.888 105.239 136.028 105.239C134.168 105.239 133.136 104.063 133.136 102.095C133.136 100.127 134.192 98.9509 136.028 98.9509ZM136.04 104.303C137.108 104.303 137.684 103.487 137.684 102.095C137.684 100.691 137.108 99.8869 136.04 99.8869C134.948 99.8869 134.36 100.703 134.36 102.095C134.36 103.487 134.948 104.303 136.04 104.303ZM145.272 105.239C143.64 105.239 142.752 104.615 142.608 103.367H143.796C143.928 104.075 144.432 104.423 145.308 104.423C146.136 104.423 146.688 104.075 146.688 103.487C146.688 103.019 146.328 102.719 145.596 102.575L144.36 102.359C143.292 102.155 142.716 101.579 142.716 100.775C142.716 99.6709 143.676 98.9509 145.26 98.9509C146.76 98.9509 147.684 99.5869 147.792 100.775H146.604C146.52 100.103 146.04 99.7669 145.188 99.7669C144.372 99.7669 143.88 100.115 143.88 100.607C143.88 101.015 144.24 101.291 144.948 101.435L146.148 101.651C147.336 101.879 147.924 102.443 147.924 103.319C147.924 104.483 146.892 105.239 145.272 105.239ZM154.481 102.011V102.275H150.149C150.197 103.631 150.749 104.315 151.793 104.315C152.597 104.315 153.089 103.943 153.257 103.211H154.445C154.253 104.471 153.281 105.239 151.733 105.239C149.897 105.239 148.889 104.087 148.889 102.119C148.889 100.139 149.957 98.9509 151.769 98.9509C153.533 98.9509 154.481 100.055 154.481 102.011ZM151.733 99.8269C150.821 99.8269 150.305 100.391 150.185 101.519H153.257C153.161 100.391 152.657 99.8269 151.733 99.8269ZM159.672 102.611V99.0709H160.908V105.131H159.912V104.603L159.996 104.063H159.888C159.552 104.747 158.82 105.239 157.752 105.239C156.408 105.239 155.652 104.495 155.652 103.115V99.0709H156.888V102.887C156.888 103.811 157.308 104.267 158.136 104.267C159.06 104.267 159.672 103.655 159.672 102.611ZM167.781 105.251C165.897 105.251 164.853 104.075 164.853 102.095C164.853 100.127 165.909 98.9629 167.793 98.9629C169.377 98.9629 170.409 99.7789 170.541 101.171H169.281C169.113 100.307 168.609 99.8749 167.781 99.8749C166.677 99.8749 166.101 100.667 166.101 102.095C166.101 103.523 166.689 104.315 167.781 104.315C168.585 104.315 169.125 103.835 169.281 103.007H170.541C170.409 104.411 169.401 105.251 167.781 105.251ZM177.04 102.011V102.275H172.708C172.756 103.631 173.308 104.315 174.352 104.315C175.156 104.315 175.648 103.943 175.816 103.211H177.004C176.812 104.471 175.84 105.239 174.292 105.239C172.456 105.239 171.448 104.087 171.448 102.119C171.448 100.139 172.516 98.9509 174.328 98.9509C176.092 98.9509 177.04 100.055 177.04 102.011ZM174.292 99.8269C173.38 99.8269 172.864 100.391 172.744 101.519H175.816C175.72 100.391 175.216 99.8269 174.292 99.8269ZM181.427 98.9509C182.783 98.9509 183.563 99.7069 183.563 101.087V105.131H182.339V101.327C182.339 100.403 181.907 99.9349 181.043 99.9349C180.071 99.9349 179.447 100.547 179.447 101.603V105.131H178.211V99.0709H179.207V99.5869L179.135 100.139H179.231C179.567 99.4549 180.311 98.9509 181.427 98.9509ZM187.839 104.231C188.079 104.231 188.355 104.195 188.655 104.111V105.083C188.319 105.191 187.923 105.239 187.455 105.239C186.195 105.239 185.559 104.627 185.559 103.391V102.791V99.9349H184.491V99.0709H185.559V97.4269H186.795V99.0709H188.619V99.9349H186.795V102.719V103.199C186.795 103.883 187.143 104.231 187.839 104.231ZM192.722 98.9509C193.046 98.9509 193.322 98.9989 193.55 99.0949V100.247C193.25 100.163 192.974 100.115 192.71 100.115C191.666 100.115 191.066 100.811 191.066 102.011V105.131H189.83V99.0709H190.838V99.5629L190.742 100.223H190.85C191.126 99.4549 191.762 98.9509 192.722 98.9509ZM197.016 98.9509C198.876 98.9509 199.908 100.127 199.908 102.095C199.908 104.063 198.876 105.239 197.016 105.239C195.156 105.239 194.124 104.063 194.124 102.095C194.124 100.127 195.18 98.9509 197.016 98.9509ZM197.028 104.303C198.096 104.303 198.672 103.487 198.672 102.095C198.672 100.691 198.096 99.8869 197.028 99.8869C195.936 99.8869 195.348 100.703 195.348 102.095C195.348 103.487 195.936 104.303 197.028 104.303ZM207.077 98.9509C208.433 98.9509 209.213 99.7069 209.213 101.087V105.131H207.989V101.327C207.989 100.403 207.557 99.9349 206.693 99.9349C205.721 99.9349 205.097 100.547 205.097 101.603V105.131H203.861V99.0709H204.857V99.5869L204.785 100.139H204.881C205.217 99.4549 205.961 98.9509 207.077 98.9509ZM213.093 98.9509C214.821 98.9509 215.685 99.7069 215.685 101.207V105.131H214.689V104.579L214.785 104.027H214.653C214.245 104.831 213.489 105.239 212.373 105.239C211.077 105.239 210.333 104.615 210.333 103.595C210.333 102.599 210.969 101.999 212.517 101.807L214.449 101.579V101.159C214.449 100.271 213.981 99.8269 213.045 99.8269C212.145 99.8269 211.689 100.235 211.665 101.063H210.453C210.465 99.6829 211.449 98.9509 213.093 98.9509ZM212.685 104.375C213.741 104.375 214.449 103.727 214.449 102.731V102.323L212.733 102.527C211.953 102.635 211.557 102.947 211.557 103.463C211.557 104.051 211.977 104.375 212.685 104.375ZM222.958 98.9629C224.578 98.9629 225.466 100.163 225.466 102.095C225.466 104.051 224.554 105.251 222.958 105.251C221.914 105.251 221.182 104.747 220.834 104.027H220.726L220.798 104.447L221.05 104.855V107.303H219.802V99.0709H220.798V99.6229L220.726 100.175H220.846C221.182 99.4669 221.914 98.9629 222.958 98.9629ZM222.61 104.303C223.654 104.303 224.206 103.487 224.206 102.107C224.206 100.727 223.63 99.9109 222.61 99.9109C221.602 99.9109 221.026 100.715 221.026 102.107C221.026 103.535 221.602 104.303 222.61 104.303ZM230.926 96.4909V96.6469L229.21 98.3269H228.322V98.1709L229.75 96.4909H230.926ZM229.174 98.9509C230.902 98.9509 231.766 99.7069 231.766 101.207V105.131H230.77V104.579L230.866 104.027H230.734C230.326 104.831 229.57 105.239 228.454 105.239C227.158 105.239 226.414 104.615 226.414 103.595C226.414 102.599 227.05 101.999 228.598 101.807L230.53 101.579V101.159C230.53 100.271 230.062 99.8269 229.126 99.8269C228.226 99.8269 227.77 100.235 227.746 101.063H226.534C226.546 99.6829 227.53 98.9509 229.174 98.9509ZM228.766 104.375C229.822 104.375 230.53 103.727 230.53 102.731V102.323L228.814 102.527C228.034 102.635 227.638 102.947 227.638 103.463C227.638 104.051 228.058 104.375 228.766 104.375ZM237.596 99.5989V99.0709H238.652V104.795C238.652 106.463 237.68 107.411 235.748 107.411C234.068 107.411 233.108 106.655 233 105.311H234.236C234.32 106.091 234.86 106.535 235.76 106.535C236.804 106.535 237.332 105.983 237.368 104.879L237.596 104.303L237.68 103.823H237.572C237.224 104.543 236.48 105.035 235.436 105.035C233.852 105.035 232.952 103.859 232.952 101.987C232.952 100.127 233.852 98.9509 235.436 98.9509C236.48 98.9509 237.224 99.4309 237.56 100.139H237.68L237.596 99.5989ZM235.808 104.147C236.804 104.147 237.38 103.367 237.38 101.987C237.38 100.631 236.804 99.8389 235.808 99.8389C234.764 99.8389 234.212 100.655 234.212 101.987C234.212 103.343 234.788 104.147 235.808 104.147ZM241.412 98.0149H240.056V96.4909H241.424L241.412 98.0149ZM241.364 105.131H240.128V99.0709H241.364V105.131ZM246.046 98.9509C247.402 98.9509 248.182 99.7069 248.182 101.087V105.131H246.958V101.327C246.958 100.403 246.526 99.9349 245.662 99.9349C244.69 99.9349 244.066 100.547 244.066 101.603V105.131H242.83V99.0709H243.826V99.5869L243.754 100.139H243.85C244.186 99.4549 244.93 98.9509 246.046 98.9509ZM252.061 98.9509C253.789 98.9509 254.653 99.7069 254.653 101.207V105.131H253.657V104.579L253.753 104.027H253.621C253.213 104.831 252.457 105.239 251.341 105.239C250.045 105.239 249.301 104.615 249.301 103.595C249.301 102.599 249.937 101.999 251.485 101.807L253.417 101.579V101.159C253.417 100.271 252.949 99.8269 252.013 99.8269C251.113 99.8269 250.657 100.235 250.633 101.063H249.421C249.433 99.6829 250.417 98.9509 252.061 98.9509ZM251.653 104.375C252.709 104.375 253.417 103.727 253.417 102.731V102.323L251.701 102.527C250.921 102.635 250.525 102.947 250.525 103.463C250.525 104.051 250.945 104.375 251.653 104.375ZM263.018 99.3469V96.4909H264.254V105.131H263.258V104.579L263.342 104.027H263.222C262.874 104.747 262.142 105.239 261.098 105.239C259.526 105.239 258.602 104.027 258.602 102.107C258.602 100.175 259.538 98.9509 261.11 98.9509C262.154 98.9509 262.886 99.4549 263.222 100.175H263.342L263.258 99.7549L263.018 99.3469ZM261.458 104.291C262.466 104.291 263.042 103.487 263.042 102.095C263.042 100.667 262.466 99.8989 261.458 99.8989C260.414 99.8989 259.862 100.715 259.862 102.095C259.862 103.475 260.438 104.291 261.458 104.291ZM270.965 102.011V102.275H266.633C266.681 103.631 267.233 104.315 268.277 104.315C269.081 104.315 269.573 103.943 269.741 103.211H270.929C270.737 104.471 269.765 105.239 268.217 105.239C266.381 105.239 265.373 104.087 265.373 102.119C265.373 100.139 266.441 98.9509 268.253 98.9509C270.017 98.9509 270.965 100.055 270.965 102.011ZM268.217 99.8269C267.305 99.8269 266.789 100.391 266.669 101.519H269.741C269.645 100.391 269.141 99.8269 268.217 99.8269ZM275.139 96.8509H277.971C280.155 96.8509 281.247 97.8229 281.247 99.7789C281.247 101.723 280.155 102.695 277.971 102.707L276.447 102.719V105.131H275.139V96.8509ZM276.447 101.699H277.863C279.219 101.699 279.891 101.063 279.891 99.7909C279.891 98.5069 279.219 97.8589 277.863 97.8589H276.447V101.699ZM287.363 102.011V102.275H283.031C283.079 103.631 283.631 104.315 284.675 104.315C285.479 104.315 285.971 103.943 286.139 103.211H287.327C287.135 104.471 286.163 105.239 284.615 105.239C282.779 105.239 281.771 104.087 281.771 102.119C281.771 100.139 282.839 98.9509 284.651 98.9509C286.415 98.9509 287.363 100.055 287.363 102.011ZM284.615 99.8269C283.703 99.8269 283.187 100.391 283.067 101.519H286.139C286.043 100.391 285.539 99.8269 284.615 99.8269ZM292.782 99.3469V96.4909H294.018V105.131H293.022V104.579L293.106 104.027H292.986C292.638 104.747 291.906 105.239 290.862 105.239C289.29 105.239 288.366 104.027 288.366 102.107C288.366 100.175 289.302 98.9509 290.874 98.9509C291.918 98.9509 292.65 99.4549 292.986 100.175H293.106L293.022 99.7549L292.782 99.3469ZM291.222 104.291C292.23 104.291 292.806 103.487 292.806 102.095C292.806 100.667 292.23 99.8989 291.222 99.8989C290.178 99.8989 289.626 100.715 289.626 102.095C289.626 103.475 290.202 104.291 291.222 104.291ZM296.778 98.0149H295.422V96.4909H296.79L296.778 98.0149ZM296.73 105.131H295.494V99.0709H296.73V105.131ZM302.444 99.3469V96.4909H303.68V105.131H302.684V104.579L302.768 104.027H302.648C302.3 104.747 301.568 105.239 300.524 105.239C298.952 105.239 298.028 104.027 298.028 102.107C298.028 100.175 298.964 98.9509 300.536 98.9509C301.58 98.9509 302.312 99.4549 302.648 100.175H302.768L302.684 99.7549L302.444 99.3469ZM300.884 104.291C301.892 104.291 302.468 103.487 302.468 102.095C302.468 100.667 301.892 99.8989 300.884 99.8989C299.84 99.8989 299.288 100.715 299.288 102.095C299.288 103.475 299.864 104.291 300.884 104.291ZM307.702 98.9509C309.562 98.9509 310.594 100.127 310.594 102.095C310.594 104.063 309.562 105.239 307.702 105.239C305.842 105.239 304.81 104.063 304.81 102.095C304.81 100.127 305.866 98.9509 307.702 98.9509ZM307.714 104.303C308.782 104.303 309.358 103.487 309.358 102.095C309.358 100.691 308.782 99.8869 307.714 99.8869C306.622 99.8869 306.034 100.703 306.034 102.095C306.034 103.487 306.622 104.303 307.714 104.303ZM314.184 105.239C312.552 105.239 311.664 104.615 311.52 103.367H312.708C312.84 104.075 313.344 104.423 314.22 104.423C315.048 104.423 315.6 104.075 315.6 103.487C315.6 103.019 315.24 102.719 314.508 102.575L313.272 102.359C312.204 102.155 311.628 101.579 311.628 100.775C311.628 99.6709 312.588 98.9509 314.172 98.9509C315.672 98.9509 316.596 99.5869 316.704 100.775H315.516C315.432 100.103 314.952 99.7669 314.1 99.7669C313.284 99.7669 312.792 100.115 312.792 100.607C312.792 101.015 313.152 101.291 313.86 101.435L315.06 101.651C316.248 101.879 316.836 102.443 316.836 103.319C316.836 104.483 315.804 105.239 314.184 105.239Z" fill="#3A3A3A"/>
</svg>
