<svg width="329" height="109" viewBox="0 0 329 109" fill="none" xmlns="http://www.w3.org/2000/svg">
<path d="M17.9109 16.3069C14.6949 16.3069 12.9029 14.2749 12.9029 10.6269C12.9029 6.96286 14.6949 4.91486 17.9109 4.91486C20.6789 4.91486 22.3909 6.43486 22.5669 9.13886H20.0389C19.8469 7.73086 19.0789 6.94686 17.8789 6.94686C16.2949 6.94686 15.4469 8.21086 15.4469 10.6269C15.4469 13.0109 16.2949 14.2749 17.8789 14.2749C19.0949 14.2749 19.8469 13.4909 20.0549 12.0829H22.5829C22.3749 14.7869 20.7269 16.3069 17.9109 16.3069ZM27.7726 16.2909C25.1966 16.2909 23.7086 14.7389 23.7086 12.0669C23.7086 9.37886 25.1966 7.82686 27.7726 7.82686C30.3486 7.82686 31.8206 9.37886 31.8206 12.0669C31.8206 14.7389 30.3806 16.2909 27.7726 16.2909ZM27.7726 14.5949C28.9566 14.5949 29.5486 13.7469 29.5486 12.0669C29.5486 10.3709 28.9566 9.52286 27.7726 9.52286C26.6046 9.52286 25.9646 10.4189 25.9646 12.0669C25.9646 13.6829 26.6046 14.5949 27.7726 14.5949ZM42.3487 7.84286C44.0127 7.84286 44.9727 8.80286 44.9727 10.4509V16.1309H42.7647V10.8669C42.7647 9.98686 42.3807 9.55486 41.6127 9.55486C40.7167 9.55486 40.1407 10.1629 40.1407 11.2029V16.1309H37.9327V10.8669C37.9327 9.98686 37.5487 9.55486 36.7647 9.55486C35.8687 9.55486 35.3087 10.1629 35.3087 11.2029V16.1309H33.1007V8.00286H34.7807V8.64286L34.6207 9.42686H34.8127C35.2127 8.51486 36.1087 7.84286 37.4367 7.84286C38.4287 7.84286 39.1327 8.19486 39.5487 8.88286L39.4047 9.50686H39.5807C40.0287 8.53086 40.9407 7.84286 42.3487 7.84286ZM50.2807 16.2909C47.7047 16.2909 46.2167 14.7389 46.2167 12.0669C46.2167 9.37886 47.7047 7.82686 50.2807 7.82686C52.8567 7.82686 54.3287 9.37886 54.3287 12.0669C54.3287 14.7389 52.8887 16.2909 50.2807 16.2909ZM50.2807 14.5949C51.4647 14.5949 52.0567 13.7469 52.0567 12.0669C52.0567 10.3709 51.4647 9.52286 50.2807 9.52286C49.1127 9.52286 48.4727 10.4189 48.4727 12.0669C48.4727 13.6829 49.1127 14.5949 50.2807 14.5949ZM66.8614 11.9389V12.4349H61.3574C61.4214 13.9069 61.9974 14.6429 63.0854 14.6429C63.9494 14.6429 64.4774 14.2589 64.6694 13.4749H66.8294C66.5734 15.2029 65.2134 16.2909 62.9734 16.2909C60.4294 16.2909 59.0374 14.7869 59.0374 12.1149C59.0374 9.42686 60.5574 7.82686 63.1014 7.82686C65.5494 7.82686 66.8614 9.26686 66.8614 11.9389ZM63.0374 9.37886C62.1094 9.37886 61.5654 9.95486 61.4054 11.1229H64.6214C64.4774 9.95486 63.9494 9.37886 63.0374 9.37886ZM72.8839 7.82686C74.7239 7.82686 75.7479 8.83486 75.7479 10.6109V16.1309H73.4919V11.0909C73.4919 10.0989 73.0439 9.60286 72.1319 9.60286C71.0919 9.60286 70.4199 10.2589 70.4199 11.3949V16.1309H68.1639V8.00286H69.9399V8.62686L69.7799 9.37886H69.9719C70.4199 8.48286 71.4119 7.82686 72.8839 7.82686ZM81.5582 14.4509C81.8462 14.4509 82.1662 14.4029 82.5342 14.3229V16.0829C81.9742 16.2269 81.3982 16.2909 80.8062 16.2909C78.9342 16.2909 78.0062 15.4109 78.0062 13.6349V12.6749V9.53886H76.6942V8.00286H78.0062V5.82686H80.2782V8.00286H82.5022V9.53886H80.2782V12.5309V13.2509C80.2782 14.0509 80.7102 14.4509 81.5582 14.4509ZM88.085 7.82686C88.517 7.82686 88.885 7.89086 89.173 8.01886V10.1309C88.805 10.0189 88.437 9.95486 88.101 9.95486C86.821 9.95486 86.053 10.8189 86.053 12.2429V16.1309H83.797V8.00286H85.573V8.61086L85.397 9.60286H85.605C85.925 8.56286 86.805 7.82686 88.085 7.82686ZM97.612 11.9389V12.4349H92.108C92.172 13.9069 92.748 14.6429 93.836 14.6429C94.7 14.6429 95.228 14.2589 95.42 13.4749H97.58C97.324 15.2029 95.964 16.2909 93.724 16.2909C91.18 16.2909 89.788 14.7869 89.788 12.1149C89.788 9.42686 91.308 7.82686 93.852 7.82686C96.3 7.82686 97.612 9.26686 97.612 11.9389ZM93.788 9.37886C92.86 9.37886 92.316 9.95486 92.156 11.1229H95.372C95.228 9.95486 94.7 9.37886 93.788 9.37886ZM104.866 8.62686V8.00286H106.754V15.6029C106.754 17.9229 105.394 19.2349 102.642 19.2349C100.258 19.2349 98.9145 18.1789 98.7705 16.3229H101.026C101.138 17.1549 101.698 17.6669 102.658 17.6669C103.762 17.6669 104.338 17.0269 104.386 15.7629L104.866 14.9789L105.042 14.2909H104.85C104.386 15.2029 103.426 15.8749 102.018 15.8749C99.8905 15.8749 98.6905 14.3709 98.6905 11.8269C98.6905 9.33086 99.8905 7.82686 102.018 7.82686C103.378 7.82686 104.306 8.33886 104.834 9.36286H105.042L104.866 8.62686ZM104.418 11.8429C104.418 10.3069 103.81 9.42686 102.722 9.42686C101.618 9.42686 101.01 10.3229 101.01 11.8429C101.01 13.3789 101.634 14.2749 102.722 14.2749C103.81 14.2749 104.418 13.4269 104.418 11.8429ZM111.823 7.82686C114.303 7.82686 115.535 8.86686 115.535 10.9469V16.1309H113.775V15.4909L113.951 14.7229H113.727C113.167 15.7629 112.175 16.2909 110.719 16.2909C108.927 16.2909 107.919 15.4269 107.919 14.0349C107.919 12.6109 108.815 11.7949 110.943 11.5389L113.279 11.2669V10.8509C113.279 9.87486 112.783 9.37886 111.775 9.37886C110.799 9.37886 110.303 9.84286 110.287 10.7709H108.079C108.095 8.86686 109.455 7.82686 111.823 7.82686ZM111.327 14.7549C112.463 14.7549 113.279 14.0509 113.279 13.0109V12.5789L111.391 12.7869C110.575 12.8989 110.159 13.2349 110.159 13.7949C110.159 14.4349 110.543 14.7549 111.327 14.7549ZM122.489 8.11486V4.61086H124.761V16.1309H122.985V15.4749L123.145 14.7229H122.937C122.473 15.6349 121.529 16.2909 120.137 16.2909C118.041 16.2909 116.777 14.7389 116.777 12.0669C116.777 9.39486 118.057 7.82686 120.153 7.82686C121.481 7.82686 122.409 8.35486 122.937 9.41086H123.145L122.985 8.75486L122.489 8.11486ZM120.825 14.5789C121.913 14.5789 122.521 13.6989 122.521 12.0509C122.521 10.3709 121.961 9.53886 120.825 9.53886C119.689 9.53886 119.097 10.4349 119.097 12.0509C119.097 13.6669 119.689 14.5789 120.825 14.5789ZM130.024 16.2909C127.448 16.2909 125.96 14.7389 125.96 12.0669C125.96 9.37886 127.448 7.82686 130.024 7.82686C132.6 7.82686 134.072 9.37886 134.072 12.0669C134.072 14.7389 132.632 16.2909 130.024 16.2909ZM130.024 14.5949C131.208 14.5949 131.8 13.7469 131.8 12.0669C131.8 10.3709 131.208 9.52286 130.024 9.52286C128.856 9.52286 128.216 10.4189 128.216 12.0669C128.216 13.6829 128.856 14.5949 130.024 14.5949ZM139.641 7.82686C140.073 7.82686 140.441 7.89086 140.729 8.01886V10.1309C140.361 10.0189 139.993 9.95486 139.657 9.95486C138.377 9.95486 137.609 10.8189 137.609 12.2429V16.1309H135.353V8.00286H137.129V8.61086L136.953 9.60286H137.161C137.481 8.56286 138.361 7.82686 139.641 7.82686ZM140.948 16.1309V13.5549H143.236V15.4109C143.236 16.6269 142.628 17.7309 141.62 18.3229H140.42V18.0189C141.156 17.5229 141.636 16.8829 141.876 16.1309H140.948ZM153.599 16.1309H150.895L148.079 8.33886V8.00286H150.351L152.031 12.9629L152.143 13.8269H152.399L152.511 12.9629L154.175 8.00286H156.415V8.32286L153.599 16.1309ZM160.724 16.2909C158.148 16.2909 156.66 14.7389 156.66 12.0669C156.66 9.37886 158.148 7.82686 160.724 7.82686C163.3 7.82686 164.772 9.37886 164.772 12.0669C164.772 14.7389 163.332 16.2909 160.724 16.2909ZM160.724 14.5949C161.908 14.5949 162.5 13.7469 162.5 12.0669C162.5 10.3709 161.908 9.52286 160.724 9.52286C159.556 9.52286 158.916 10.4189 158.916 12.0669C158.916 13.6829 159.556 14.5949 160.724 14.5949ZM169.941 16.3069C167.317 16.3069 165.829 14.7549 165.829 12.0669C165.829 9.37886 167.333 7.84286 169.957 7.84286C172.245 7.84286 173.717 9.01086 173.861 11.0109H171.557C171.381 10.0029 170.837 9.49086 169.925 9.49086C168.725 9.49086 168.133 10.3549 168.133 12.0669C168.133 13.7309 168.757 14.6269 169.925 14.6269C170.821 14.6269 171.365 14.1309 171.557 13.1229H173.861C173.717 15.1069 172.261 16.3069 169.941 16.3069ZM178.634 5.69886L178.49 6.01886L177.626 7.13886H176.266V6.85086L178.058 4.56286H179.386L181.178 6.85086V7.13886H179.786L178.922 6.01886L178.778 5.69886H178.634ZM182.618 11.9389V12.4349H177.114C177.178 13.9069 177.754 14.6429 178.842 14.6429C179.706 14.6429 180.234 14.2589 180.426 13.4749H182.586C182.33 15.2029 180.97 16.2909 178.73 16.2909C176.186 16.2909 174.794 14.7869 174.794 12.1149C174.794 9.42686 176.314 7.82686 178.858 7.82686C181.306 7.82686 182.618 9.26686 182.618 11.9389ZM178.794 9.37886C177.866 9.37886 177.322 9.95486 177.162 11.1229H180.378C180.234 9.95486 179.706 9.37886 178.794 9.37886ZM193.797 4.62686V4.93086L191.477 7.15486H189.989V6.83486L191.781 4.62686H193.797ZM195.173 11.9389V12.4349H189.669C189.733 13.9069 190.309 14.6429 191.397 14.6429C192.261 14.6429 192.789 14.2589 192.981 13.4749H195.141C194.885 15.2029 193.525 16.2909 191.285 16.2909C188.741 16.2909 187.349 14.7869 187.349 12.1149C187.349 9.42686 188.869 7.82686 191.413 7.82686C193.861 7.82686 195.173 9.26686 195.173 11.9389ZM191.349 9.37886C190.421 9.37886 189.877 9.95486 189.717 11.1229H192.933C192.789 9.95486 192.261 9.37886 191.349 9.37886ZM204.416 7.82686C204.848 7.82686 205.216 7.89086 205.504 8.01886V10.1309C205.136 10.0189 204.768 9.95486 204.432 9.95486C203.152 9.95486 202.384 10.8189 202.384 12.2429V16.1309H200.128V8.00286H201.904V8.61086L201.728 9.60286H201.936C202.256 8.56286 203.136 7.82686 204.416 7.82686ZM213.943 11.9389V12.4349H208.439C208.503 13.9069 209.079 14.6429 210.167 14.6429C211.031 14.6429 211.559 14.2589 211.751 13.4749H213.911C213.655 15.2029 212.295 16.2909 210.055 16.2909C207.511 16.2909 206.119 14.7869 206.119 12.1149C206.119 9.42686 207.639 7.82686 210.183 7.82686C212.631 7.82686 213.943 9.26686 213.943 11.9389ZM210.119 9.37886C209.191 9.37886 208.647 9.95486 208.487 11.1229H211.703C211.559 9.95486 211.031 9.37886 210.119 9.37886ZM218.621 16.2909C216.317 16.2909 215.085 15.4429 214.925 13.7309H217.053C217.213 14.4829 217.773 14.8669 218.717 14.8669C219.597 14.8669 220.157 14.5309 220.157 13.9069C220.157 13.4269 219.725 13.1069 218.861 12.9309L217.325 12.6589C215.837 12.3549 215.037 11.5389 215.037 10.4349C215.037 8.85086 216.397 7.82686 218.653 7.82686C220.845 7.82686 222.093 8.73886 222.205 10.3389H220.077C219.965 9.61886 219.453 9.26686 218.509 9.26686C217.661 9.26686 217.149 9.60286 217.149 10.1149C217.149 10.5469 217.581 10.8349 218.445 11.0109L219.933 11.2669C221.581 11.6029 222.413 12.3549 222.413 13.5549C222.413 15.2349 220.925 16.2909 218.621 16.2909ZM228.24 7.84286C230.4 7.84286 231.584 9.37886 231.584 12.0669C231.584 14.7709 230.384 16.3069 228.224 16.3069C226.896 16.3069 225.968 15.7789 225.44 14.7229H225.232L225.392 15.3789L225.888 16.0189V19.0909H223.616V8.00286H225.392V8.65886L225.232 9.41086H225.44C225.904 8.49886 226.848 7.84286 228.24 7.84286ZM227.552 14.5949C228.688 14.5949 229.28 13.6989 229.28 12.0829C229.28 10.4829 228.656 9.55486 227.552 9.55486C226.464 9.55486 225.84 10.4349 225.84 12.0829C225.84 13.7309 226.448 14.5949 227.552 14.5949ZM236.718 16.2909C234.142 16.2909 232.654 14.7389 232.654 12.0669C232.654 9.37886 234.142 7.82686 236.718 7.82686C239.294 7.82686 240.766 9.37886 240.766 12.0669C240.766 14.7389 239.326 16.2909 236.718 16.2909ZM236.718 14.5949C237.902 14.5949 238.494 13.7469 238.494 12.0669C238.494 10.3709 237.902 9.52286 236.718 9.52286C235.55 9.52286 234.91 10.4189 234.91 12.0669C234.91 13.6829 235.55 14.5949 236.718 14.5949ZM246.766 7.82686C248.606 7.82686 249.63 8.83486 249.63 10.6109V16.1309H247.374V11.0909C247.374 10.0989 246.926 9.60286 246.014 9.60286C244.974 9.60286 244.302 10.2589 244.302 11.3949V16.1309H242.046V8.00286H243.822V8.62686L243.662 9.37886H243.854C244.302 8.48286 245.294 7.82686 246.766 7.82686ZM254.497 16.2909C252.193 16.2909 250.961 15.4429 250.801 13.7309H252.929C253.089 14.4829 253.649 14.8669 254.593 14.8669C255.473 14.8669 256.033 14.5309 256.033 13.9069C256.033 13.4269 255.601 13.1069 254.737 12.9309L253.201 12.6589C251.713 12.3549 250.913 11.5389 250.913 10.4349C250.913 8.85086 252.273 7.82686 254.529 7.82686C256.721 7.82686 257.969 8.73886 258.081 10.3389H255.953C255.841 9.61886 255.329 9.26686 254.385 9.26686C253.537 9.26686 253.025 9.60286 253.025 10.1149C253.025 10.5469 253.457 10.8349 254.321 11.0109L255.809 11.2669C257.457 11.6029 258.289 12.3549 258.289 13.5549C258.289 15.2349 256.801 16.2909 254.497 16.2909ZM265.604 4.61086V4.91486L263.284 7.13886H261.796V6.81886L263.588 4.61086H265.604ZM263.076 7.82686C265.556 7.82686 266.788 8.86686 266.788 10.9469V16.1309H265.028V15.4909L265.204 14.7229H264.98C264.42 15.7629 263.428 16.2909 261.972 16.2909C260.18 16.2909 259.172 15.4269 259.172 14.0349C259.172 12.6109 260.068 11.7949 262.196 11.5389L264.532 11.2669V10.8509C264.532 9.87486 264.036 9.37886 263.028 9.37886C262.052 9.37886 261.556 9.84286 261.54 10.7709H259.332C259.348 8.86686 260.708 7.82686 263.076 7.82686ZM262.58 14.7549C263.716 14.7549 264.532 14.0509 264.532 13.0109V12.5789L262.644 12.7869C261.828 12.8989 261.412 13.2349 261.412 13.7949C261.412 14.4349 261.796 14.7549 262.58 14.7549ZM272.996 16.1309H270.292L267.476 8.33886V8.00286H269.748L271.428 12.9629L271.54 13.8269H271.796L271.908 12.9629L273.572 8.00286H275.812V8.32286L272.996 16.1309ZM283.881 11.9389V12.4349H278.377C278.441 13.9069 279.017 14.6429 280.105 14.6429C280.969 14.6429 281.497 14.2589 281.689 13.4749H283.849C283.593 15.2029 282.233 16.2909 279.993 16.2909C277.449 16.2909 276.057 14.7869 276.057 12.1149C276.057 9.42686 277.577 7.82686 280.121 7.82686C282.569 7.82686 283.881 9.26686 283.881 11.9389ZM280.057 9.37886C279.129 9.37886 278.585 9.95486 278.425 11.1229H281.641C281.497 9.95486 280.969 9.37886 280.057 9.37886ZM287.6 16.1309H285.328V4.61086H287.6V16.1309ZM297.519 7.84286C299.679 7.84286 300.863 9.37886 300.863 12.0669C300.863 14.7709 299.663 16.3069 297.503 16.3069C296.175 16.3069 295.247 15.7789 294.719 14.7229H294.511L294.671 15.3789L295.167 16.0189V19.0909H292.895V8.00286H294.671V8.65886L294.511 9.41086H294.719C295.183 8.49886 296.127 7.84286 297.519 7.84286ZM296.831 14.5949C297.967 14.5949 298.559 13.6989 298.559 12.0829C298.559 10.4829 297.935 9.55486 296.831 9.55486C295.743 9.55486 295.119 10.4349 295.119 12.0829C295.119 13.7309 295.727 14.5949 296.831 14.5949ZM305.997 16.2909C303.421 16.2909 301.933 14.7389 301.933 12.0669C301.933 9.37886 303.421 7.82686 305.997 7.82686C308.573 7.82686 310.045 9.37886 310.045 12.0669C310.045 14.7389 308.605 16.2909 305.997 16.2909ZM305.997 14.5949C307.181 14.5949 307.773 13.7469 307.773 12.0669C307.773 10.3709 307.181 9.52286 305.997 9.52286C304.829 9.52286 304.189 10.4189 304.189 12.0669C304.189 13.6829 304.829 14.5949 305.997 14.5949ZM315.613 7.82686C316.045 7.82686 316.413 7.89086 316.701 8.01886V10.1309C316.333 10.0189 315.965 9.95486 315.629 9.95486C314.349 9.95486 313.581 10.8189 313.581 12.2429V16.1309H311.325V8.00286H313.101V8.61086L312.925 9.60286H313.133C313.453 8.56286 314.333 7.82686 315.613 7.82686ZM10.5108 33.9389V34.4349H5.00675C5.07075 35.9069 5.64675 36.6429 6.73475 36.6429C7.59875 36.6429 8.12675 36.2589 8.31875 35.4749H10.4788C10.2228 37.2029 8.86275 38.2909 6.62275 38.2909C4.07875 38.2909 2.68675 36.7869 2.68675 34.1149C2.68675 31.4269 4.20675 29.8269 6.75075 29.8269C9.19875 29.8269 10.5108 31.2669 10.5108 33.9389ZM6.68675 31.3789C5.75875 31.3789 5.21475 31.9549 5.05475 33.1229H8.27075C8.12675 31.9549 7.59875 31.3789 6.68675 31.3789ZM16.5333 29.8269C18.3733 29.8269 19.3973 30.8349 19.3973 32.6109V38.1309H17.1413V33.0909C17.1413 32.0989 16.6933 31.6029 15.7813 31.6029C14.7413 31.6029 14.0693 32.2589 14.0693 33.3949V38.1309H11.8133V30.0029H13.5893V30.6269L13.4293 31.3789H13.6213C14.0693 30.4829 15.0613 29.8269 16.5333 29.8269ZM25.2076 36.4509C25.4956 36.4509 25.8156 36.4029 26.1836 36.3229V38.0829C25.6236 38.2269 25.0476 38.2909 24.4556 38.2909C22.5836 38.2909 21.6556 37.4109 21.6556 35.6349V34.6749V31.5389H20.3436V30.0029H21.6556V27.8269H23.9276V30.0029H26.1516V31.5389H23.9276V34.5309V35.2509C23.9276 36.0509 24.3596 36.4509 25.2076 36.4509ZM31.7344 29.8269C32.1664 29.8269 32.5344 29.8909 32.8224 30.0189V32.1309C32.4544 32.0189 32.0864 31.9549 31.7504 31.9549C30.4704 31.9549 29.7024 32.8189 29.7024 34.2429V38.1309H27.4464V30.0029H29.2224V30.6109L29.0464 31.6029H29.2544C29.5744 30.5629 30.4544 29.8269 31.7344 29.8269ZM41.2614 33.9389V34.4349H35.7574C35.8214 35.9069 36.3974 36.6429 37.4854 36.6429C38.3494 36.6429 38.8774 36.2589 39.0694 35.4749H41.2294C40.9734 37.2029 39.6134 38.2909 37.3734 38.2909C34.8294 38.2909 33.4374 36.7869 33.4374 34.1149C33.4374 31.4269 34.9574 29.8269 37.5014 29.8269C39.9494 29.8269 41.2614 31.2669 41.2614 33.9389ZM37.4374 31.3789C36.5094 31.3789 35.9654 31.9549 35.8054 33.1229H39.0214C38.8774 31.9549 38.3494 31.3789 37.4374 31.3789ZM48.5159 30.6269V30.0029H50.4039V37.6029C50.4039 39.9229 49.0439 41.2349 46.2919 41.2349C43.9079 41.2349 42.5639 40.1789 42.4199 38.3229H44.6759C44.7879 39.1549 45.3479 39.6669 46.3079 39.6669C47.4119 39.6669 47.9879 39.0269 48.0359 37.7629L48.5159 36.9789L48.6919 36.2909H48.4999C48.0359 37.2029 47.0759 37.8749 45.6679 37.8749C43.5399 37.8749 42.3399 36.3709 42.3399 33.8269C42.3399 31.3309 43.5399 29.8269 45.6679 29.8269C47.0279 29.8269 47.9559 30.3389 48.4839 31.3629H48.6919L48.5159 30.6269ZM48.0679 33.8429C48.0679 32.3069 47.4599 31.4269 46.3719 31.4269C45.2679 31.4269 44.6599 32.3229 44.6599 33.8429C44.6599 35.3789 45.2839 36.2749 46.3719 36.2749C47.4599 36.2749 48.0679 35.4269 48.0679 33.8429ZM55.4723 29.8269C57.9523 29.8269 59.1843 30.8669 59.1843 32.9469V38.1309H57.4243V37.4909L57.6003 36.7229H57.3763C56.8163 37.7629 55.8243 38.2909 54.3683 38.2909C52.5763 38.2909 51.5683 37.4269 51.5683 36.0349C51.5683 34.6109 52.4643 33.7949 54.5923 33.5389L56.9283 33.2669V32.8509C56.9283 31.8749 56.4323 31.3789 55.4243 31.3789C54.4483 31.3789 53.9523 31.8429 53.9363 32.7709H51.7283C51.7443 30.8669 53.1043 29.8269 55.4723 29.8269ZM54.9763 36.7549C56.1123 36.7549 56.9283 36.0509 56.9283 35.0109V34.5789L55.0403 34.7869C54.2243 34.8989 53.8083 35.2349 53.8083 35.7949C53.8083 36.4349 54.1923 36.7549 54.9763 36.7549ZM64.9381 29.8269C65.3701 29.8269 65.7381 29.8909 66.0261 30.0189V32.1309C65.6581 32.0189 65.2901 31.9549 64.9541 31.9549C63.6741 31.9549 62.9061 32.8189 62.9061 34.2429V38.1309H60.6501V30.0029H62.4261V30.6109L62.2501 31.6029H62.4581C62.7781 30.5629 63.6581 29.8269 64.9381 29.8269ZM75.2666 29.8429C77.4266 29.8429 78.6106 31.3789 78.6106 34.0669C78.6106 36.7709 77.4106 38.3069 75.2506 38.3069C73.9226 38.3069 72.9946 37.7789 72.4666 36.7229H72.2586L72.4186 37.3789L72.9146 38.0189V41.0909H70.6426V30.0029H72.4186V30.6589L72.2586 31.4109H72.4666C72.9306 30.4989 73.8746 29.8429 75.2666 29.8429ZM74.5786 36.5949C75.7146 36.5949 76.3066 35.6989 76.3066 34.0829C76.3066 32.4829 75.6826 31.5549 74.5786 31.5549C73.4906 31.5549 72.8666 32.4349 72.8666 34.0829C72.8666 35.7309 73.4746 36.5949 74.5786 36.5949ZM87.5045 33.9389V34.4349H82.0005C82.0645 35.9069 82.6405 36.6429 83.7285 36.6429C84.5925 36.6429 85.1205 36.2589 85.3125 35.4749H87.4725C87.2165 37.2029 85.8565 38.2909 83.6165 38.2909C81.0725 38.2909 79.6805 36.7869 79.6805 34.1149C79.6805 31.4269 81.2005 29.8269 83.7445 29.8269C86.1925 29.8269 87.5045 31.2669 87.5045 33.9389ZM83.6805 31.3789C82.7525 31.3789 82.2085 31.9549 82.0485 33.1229H85.2645C85.1205 31.9549 84.5925 31.3789 83.6805 31.3789ZM94.295 30.1149V26.6109H96.567V38.1309H94.791V37.4749L94.951 36.7229H94.743C94.279 37.6349 93.335 38.2909 91.943 38.2909C89.847 38.2909 88.583 36.7389 88.583 34.0669C88.583 31.3949 89.863 29.8269 91.959 29.8269C93.287 29.8269 94.215 30.3549 94.743 31.4109H94.951L94.791 30.7549L94.295 30.1149ZM92.631 36.5789C93.719 36.5789 94.327 35.6989 94.327 34.0509C94.327 32.3709 93.767 31.5389 92.631 31.5389C91.495 31.5389 90.903 32.4349 90.903 34.0509C90.903 35.6669 91.495 36.5789 92.631 36.5789ZM100.454 28.7869H98.0696V26.6109H100.454V28.7869ZM100.406 38.1309H98.1336V30.0029H100.406V38.1309ZM107.475 30.1149V26.6109H109.747V38.1309H107.971V37.4749L108.131 36.7229H107.923C107.459 37.6349 106.515 38.2909 105.123 38.2909C103.027 38.2909 101.763 36.7389 101.763 34.0669C101.763 31.3949 103.043 29.8269 105.139 29.8269C106.467 29.8269 107.395 30.3549 107.923 31.4109H108.131L107.971 30.7549L107.475 30.1149ZM105.811 36.5789C106.899 36.5789 107.507 35.6989 107.507 34.0509C107.507 32.3709 106.947 31.5389 105.811 31.5389C104.675 31.5389 104.083 32.4349 104.083 34.0509C104.083 35.6669 104.675 36.5789 105.811 36.5789ZM115.011 38.2909C112.435 38.2909 110.947 36.7389 110.947 34.0669C110.947 31.3789 112.435 29.8269 115.011 29.8269C117.587 29.8269 119.059 31.3789 119.059 34.0669C119.059 36.7389 117.619 38.2909 115.011 38.2909ZM115.011 36.5949C116.195 36.5949 116.787 35.7469 116.787 34.0669C116.787 32.3709 116.195 31.5229 115.011 31.5229C113.843 31.5229 113.203 32.4189 113.203 34.0669C113.203 35.6829 113.843 36.5949 115.011 36.5949ZM123.715 38.2909C121.411 38.2909 120.179 37.4429 120.019 35.7309H122.147C122.307 36.4829 122.867 36.8669 123.811 36.8669C124.691 36.8669 125.251 36.5309 125.251 35.9069C125.251 35.4269 124.819 35.1069 123.955 34.9309L122.419 34.6589C120.931 34.3549 120.131 33.5389 120.131 32.4349C120.131 30.8509 121.491 29.8269 123.747 29.8269C125.939 29.8269 127.187 30.7389 127.299 32.3389H125.171C125.059 31.6189 124.547 31.2669 123.603 31.2669C122.755 31.2669 122.243 31.6029 122.243 32.1149C122.243 32.5469 122.675 32.8349 123.539 33.0109L125.027 33.2669C126.675 33.6029 127.507 34.3549 127.507 35.5549C127.507 37.2349 126.019 38.2909 123.715 38.2909ZM137.851 30.1149V26.6109H140.123V38.1309H138.347V37.4749L138.507 36.7229H138.299C137.835 37.6349 136.891 38.2909 135.499 38.2909C133.403 38.2909 132.139 36.7389 132.139 34.0669C132.139 31.3949 133.419 29.8269 135.515 29.8269C136.843 29.8269 137.771 30.3549 138.299 31.4109H138.507L138.347 30.7549L137.851 30.1149ZM136.187 36.5789C137.275 36.5789 137.883 35.6989 137.883 34.0509C137.883 32.3709 137.323 31.5389 136.187 31.5389C135.051 31.5389 134.459 32.4349 134.459 34.0509C134.459 35.6669 135.051 36.5789 136.187 36.5789ZM149.146 33.9389V34.4349H143.642C143.706 35.9069 144.282 36.6429 145.37 36.6429C146.234 36.6429 146.762 36.2589 146.954 35.4749H149.114C148.858 37.2029 147.498 38.2909 145.258 38.2909C142.714 38.2909 141.322 36.7869 141.322 34.1149C141.322 31.4269 142.842 29.8269 145.386 29.8269C147.834 29.8269 149.146 31.2669 149.146 33.9389ZM145.322 31.3789C144.394 31.3789 143.85 31.9549 143.69 33.1229H146.906C146.762 31.9549 146.234 31.3789 145.322 31.3789ZM163.349 29.8429C165.013 29.8429 165.973 30.8029 165.973 32.4509V38.1309H163.765V32.8669C163.765 31.9869 163.381 31.5549 162.613 31.5549C161.717 31.5549 161.141 32.1629 161.141 33.2029V38.1309H158.933V32.8669C158.933 31.9869 158.549 31.5549 157.765 31.5549C156.869 31.5549 156.309 32.1629 156.309 33.2029V38.1309H154.101V30.0029H155.781V30.6429L155.621 31.4269H155.813C156.213 30.5149 157.109 29.8429 158.437 29.8429C159.429 29.8429 160.133 30.1949 160.549 30.8829L160.405 31.5069H160.581C161.029 30.5309 161.941 29.8429 163.349 29.8429ZM171.025 29.8269C173.505 29.8269 174.737 30.8669 174.737 32.9469V38.1309H172.977V37.4909L173.153 36.7229H172.929C172.369 37.7629 171.377 38.2909 169.921 38.2909C168.129 38.2909 167.121 37.4269 167.121 36.0349C167.121 34.6109 168.017 33.7949 170.145 33.5389L172.481 33.2669V32.8509C172.481 31.8749 171.985 31.3789 170.977 31.3789C170.001 31.3789 169.505 31.8429 169.489 32.7709H167.281C167.297 30.8669 168.657 29.8269 171.025 29.8269ZM170.529 36.7549C171.665 36.7549 172.481 36.0509 172.481 35.0109V34.5789L170.593 34.7869C169.777 34.8989 169.361 35.2349 169.361 35.7949C169.361 36.4349 169.745 36.7549 170.529 36.7549ZM180.491 29.8269C180.923 29.8269 181.291 29.8909 181.579 30.0189V32.1309C181.211 32.0189 180.843 31.9549 180.507 31.9549C179.227 31.9549 178.459 32.8189 178.459 34.2429V38.1309H176.203V30.0029H177.979V30.6109L177.803 31.6029H178.011C178.331 30.5629 179.211 29.8269 180.491 29.8269ZM190.287 30.3389L187.151 33.9069L190.335 37.7949V38.1309H187.823L185.311 35.1389L185.071 34.5309H184.799V38.1309H182.543V26.6109H184.799V33.3629H185.071L185.343 32.7549L187.775 30.0029H190.287V30.3389ZM198.327 33.9389V34.4349H192.823C192.887 35.9069 193.463 36.6429 194.551 36.6429C195.415 36.6429 195.943 36.2589 196.135 35.4749H198.295C198.039 37.2029 196.679 38.2909 194.439 38.2909C191.895 38.2909 190.503 36.7869 190.503 34.1149C190.503 31.4269 192.023 29.8269 194.567 29.8269C197.015 29.8269 198.327 31.2669 198.327 33.9389ZM194.503 31.3789C193.575 31.3789 193.031 31.9549 192.871 33.1229H196.087C195.943 31.9549 195.415 31.3789 194.503 31.3789ZM203.731 36.4509C204.019 36.4509 204.339 36.4029 204.707 36.3229V38.0829C204.147 38.2269 203.571 38.2909 202.979 38.2909C201.107 38.2909 200.179 37.4109 200.179 35.6349V34.6749V31.5389H198.867V30.0029H200.179V27.8269H202.451V30.0029H204.675V31.5389H202.451V34.5309V35.2509C202.451 36.0509 202.883 36.4509 203.731 36.4509ZM210.593 29.8429C212.753 29.8429 213.937 31.3789 213.937 34.0669C213.937 36.7709 212.737 38.3069 210.577 38.3069C209.249 38.3069 208.321 37.7789 207.793 36.7229H207.585L207.745 37.3789L208.241 38.0189V41.0909H205.969V30.0029H207.745V30.6589L207.585 31.4109H207.793C208.257 30.4989 209.201 29.8429 210.593 29.8429ZM209.905 36.5949C211.041 36.5949 211.633 35.6989 211.633 34.0829C211.633 32.4829 211.009 31.5549 209.905 31.5549C208.817 31.5549 208.193 32.4349 208.193 34.0829C208.193 35.7309 208.801 36.5949 209.905 36.5949ZM217.647 38.1309H215.375V26.6109H217.647V38.1309ZM222.874 29.8269C225.354 29.8269 226.586 30.8669 226.586 32.9469V38.1309H224.826V37.4909L225.002 36.7229H224.778C224.218 37.7629 223.226 38.2909 221.77 38.2909C219.978 38.2909 218.97 37.4269 218.97 36.0349C218.97 34.6109 219.866 33.7949 221.994 33.5389L224.33 33.2669V32.8509C224.33 31.8749 223.834 31.3789 222.826 31.3789C221.85 31.3789 221.354 31.8429 221.338 32.7709H219.13C219.146 30.8669 220.506 29.8269 222.874 29.8269ZM222.378 36.7549C223.514 36.7549 224.33 36.0509 224.33 35.0109V34.5789L222.442 34.7869C221.626 34.8989 221.21 35.2349 221.21 35.7949C221.21 36.4349 221.594 36.7549 222.378 36.7549ZM231.94 38.3069C229.316 38.3069 227.828 36.7549 227.828 34.0669C227.828 31.3789 229.332 29.8429 231.956 29.8429C234.244 29.8429 235.716 31.0109 235.86 33.0109H233.556C233.38 32.0029 232.836 31.4909 231.924 31.4909C230.724 31.4909 230.132 32.3549 230.132 34.0669C230.132 35.7309 230.756 36.6269 231.924 36.6269C232.82 36.6269 233.364 36.1309 233.556 35.1229H235.86C235.716 37.1069 234.26 38.3069 231.94 38.3069ZM244.617 33.9389V34.4349H239.113C239.177 35.9069 239.753 36.6429 240.841 36.6429C241.705 36.6429 242.233 36.2589 242.425 35.4749H244.585C244.329 37.2029 242.969 38.2909 240.729 38.2909C238.185 38.2909 236.793 36.7869 236.793 34.1149C236.793 31.4269 238.313 29.8269 240.857 29.8269C243.305 29.8269 244.617 31.2669 244.617 33.9389ZM240.793 31.3789C239.865 31.3789 239.321 31.9549 239.161 33.1229H242.377C242.233 31.9549 241.705 31.3789 240.793 31.3789ZM249.295 38.2909C246.991 38.2909 245.759 37.4429 245.599 35.7309H247.727C247.887 36.4829 248.447 36.8669 249.391 36.8669C250.271 36.8669 250.831 36.5309 250.831 35.9069C250.831 35.4269 250.399 35.1069 249.535 34.9309L247.999 34.6589C246.511 34.3549 245.711 33.5389 245.711 32.4349C245.711 30.8509 247.071 29.8269 249.327 29.8269C251.519 29.8269 252.767 30.7389 252.879 32.3389H250.751C250.639 31.6189 250.127 31.2669 249.183 31.2669C248.335 31.2669 247.823 31.6029 247.823 32.1149C247.823 32.5469 248.255 32.8349 249.119 33.0109L250.607 33.2669C252.255 33.6029 253.087 34.3549 253.087 35.5549C253.087 37.2349 251.599 38.2909 249.295 38.2909ZM262.567 29.8429C264.727 29.8429 265.911 31.3789 265.911 34.0669C265.911 36.7709 264.711 38.3069 262.551 38.3069C261.223 38.3069 260.295 37.7789 259.767 36.7229H259.559L259.719 37.3789L260.215 38.0189V41.0909H257.943V30.0029H259.719V30.6589L259.559 31.4109H259.767C260.231 30.4989 261.175 29.8429 262.567 29.8429ZM261.879 36.5949C263.015 36.5949 263.607 35.6989 263.607 34.0829C263.607 32.4829 262.983 31.5549 261.879 31.5549C260.791 31.5549 260.167 32.4349 260.167 34.0829C260.167 35.7309 260.775 36.5949 261.879 36.5949ZM270.789 29.8269C273.269 29.8269 274.501 30.8669 274.501 32.9469V38.1309H272.741V37.4909L272.917 36.7229H272.693C272.133 37.7629 271.141 38.2909 269.685 38.2909C267.893 38.2909 266.885 37.4269 266.885 36.0349C266.885 34.6109 267.781 33.7949 269.909 33.5389L272.245 33.2669V32.8509C272.245 31.8749 271.749 31.3789 270.741 31.3789C269.765 31.3789 269.269 31.8429 269.253 32.7709H267.045C267.061 30.8669 268.421 29.8269 270.789 29.8269ZM270.293 36.7549C271.429 36.7549 272.245 36.0509 272.245 35.0109V34.5789L270.357 34.7869C269.541 34.8989 269.125 35.2349 269.125 35.7949C269.125 36.4349 269.509 36.7549 270.293 36.7549ZM280.255 29.8269C280.687 29.8269 281.055 29.8909 281.343 30.0189V32.1309C280.975 32.0189 280.607 31.9549 280.271 31.9549C278.991 31.9549 278.223 32.8189 278.223 34.2429V38.1309H275.967V30.0029H277.743V30.6109L277.567 31.6029H277.775C278.095 30.5629 278.975 29.8269 280.255 29.8269ZM286.07 38.3069C283.446 38.3069 281.958 36.7549 281.958 34.0669C281.958 31.3789 283.462 29.8429 286.086 29.8429C288.374 29.8429 289.846 31.0109 289.99 33.0109H287.686C287.51 32.0029 286.966 31.4909 286.054 31.4909C284.854 31.4909 284.262 32.3549 284.262 34.0669C284.262 35.7309 284.886 36.6269 286.054 36.6269C286.95 36.6269 287.494 36.1309 287.686 35.1229H289.99C289.846 37.1069 288.39 38.3069 286.07 38.3069ZM298.747 33.9389V34.4349H293.243C293.307 35.9069 293.883 36.6429 294.971 36.6429C295.835 36.6429 296.363 36.2589 296.555 35.4749H298.715C298.459 37.2029 297.099 38.2909 294.859 38.2909C292.315 38.2909 290.923 36.7869 290.923 34.1149C290.923 31.4269 292.443 29.8269 294.987 29.8269C297.435 29.8269 298.747 31.2669 298.747 33.9389ZM294.923 31.3789C293.995 31.3789 293.451 31.9549 293.291 33.1229H296.507C296.363 31.9549 295.835 31.3789 294.923 31.3789ZM302.466 28.7869H300.082V26.6109H302.466V28.7869ZM302.418 38.1309H300.146V30.0029H302.418V38.1309ZM308.287 29.8269C308.719 29.8269 309.087 29.8909 309.375 30.0189V32.1309C309.007 32.0189 308.639 31.9549 308.303 31.9549C307.023 31.9549 306.255 32.8189 306.255 34.2429V38.1309H303.999V30.0029H305.775V30.6109L305.599 31.6029H305.807C306.127 30.5629 307.007 29.8269 308.287 29.8269ZM314.054 38.2909C311.478 38.2909 309.99 36.7389 309.99 34.0669C309.99 31.3789 311.478 29.8269 314.054 29.8269C316.63 29.8269 318.102 31.3789 318.102 34.0669C318.102 36.7389 316.662 38.2909 314.054 38.2909ZM314.054 36.5949C315.238 36.5949 315.83 35.7469 315.83 34.0669C315.83 32.3709 315.238 31.5229 314.054 31.5229C312.886 31.5229 312.246 32.4189 312.246 34.0669C312.246 35.6829 312.886 36.5949 314.054 36.5949ZM322.758 38.2909C320.454 38.2909 319.222 37.4429 319.062 35.7309H321.19C321.35 36.4829 321.91 36.8669 322.854 36.8669C323.734 36.8669 324.294 36.5309 324.294 35.9069C324.294 35.4269 323.862 35.1069 322.998 34.9309L321.462 34.6589C319.974 34.3549 319.174 33.5389 319.174 32.4349C319.174 30.8509 320.534 29.8269 322.79 29.8269C324.982 29.8269 326.23 30.7389 326.342 32.3389H324.214C324.102 31.6189 323.59 31.2669 322.646 31.2669C321.798 31.2669 321.286 31.6029 321.286 32.1149C321.286 32.5469 321.718 32.8349 322.582 33.0109L324.07 33.2669C325.718 33.6029 326.55 34.3549 326.55 35.5549C326.55 37.2349 325.062 38.2909 322.758 38.2909ZM100.274 55.9389V56.4349H94.7705C94.8345 57.9069 95.4105 58.6429 96.4985 58.6429C97.3625 58.6429 97.8905 58.2589 98.0825 57.4749H100.242C99.9865 59.2029 98.6265 60.2909 96.3865 60.2909C93.8425 60.2909 92.4505 58.7869 92.4505 56.1149C92.4505 53.4269 93.9705 51.8269 96.5145 51.8269C98.9625 51.8269 100.274 53.2669 100.274 55.9389ZM96.4505 53.3789C95.5225 53.3789 94.9785 53.9549 94.8185 55.1229H98.0345C97.8905 53.9549 97.3625 53.3789 96.4505 53.3789ZM110.825 51.8429C112.489 51.8429 113.449 52.8029 113.449 54.4509V60.1309H111.241V54.8669C111.241 53.9869 110.857 53.5549 110.089 53.5549C109.193 53.5549 108.617 54.1629 108.617 55.2029V60.1309H106.409V54.8669C106.409 53.9869 106.025 53.5549 105.241 53.5549C104.345 53.5549 103.785 54.1629 103.785 55.2029V60.1309H101.577V52.0029H103.257V52.6429L103.097 53.4269H103.289C103.689 52.5149 104.585 51.8429 105.913 51.8429C106.905 51.8429 107.609 52.1949 108.025 52.8829L107.881 53.5069H108.057C108.505 52.5309 109.417 51.8429 110.825 51.8429ZM121.946 60.2909C119.642 60.2909 118.41 59.4429 118.25 57.7309H120.378C120.538 58.4829 121.098 58.8669 122.042 58.8669C122.922 58.8669 123.482 58.5309 123.482 57.9069C123.482 57.4269 123.05 57.1069 122.186 56.9309L120.65 56.6589C119.162 56.3549 118.362 55.5389 118.362 54.4349C118.362 52.8509 119.722 51.8269 121.978 51.8269C124.17 51.8269 125.418 52.7389 125.53 54.3389H123.402C123.29 53.6189 122.778 53.2669 121.834 53.2669C120.986 53.2669 120.474 53.6029 120.474 54.1149C120.474 54.5469 120.906 54.8349 121.77 55.0109L123.258 55.2669C124.906 55.6029 125.738 56.3549 125.738 57.5549C125.738 59.2349 124.25 60.2909 121.946 60.2909ZM132.141 56.7389V52.0029H134.413V60.1309H132.637V59.5069L132.797 58.7389H132.605C132.157 59.6349 131.197 60.2909 129.741 60.2909C127.933 60.2909 126.941 59.2829 126.941 57.4909V52.0029H129.197V57.0429C129.197 58.0349 129.629 58.5309 130.509 58.5309C131.485 58.5309 132.141 57.8429 132.141 56.7389ZM139.474 51.8269C141.954 51.8269 143.186 52.8669 143.186 54.9469V60.1309H141.426V59.4909L141.602 58.7229H141.378C140.818 59.7629 139.826 60.2909 138.37 60.2909C136.578 60.2909 135.57 59.4269 135.57 58.0349C135.57 56.6109 136.466 55.7949 138.594 55.5389L140.93 55.2669V54.8509C140.93 53.8749 140.434 53.3789 139.426 53.3789C138.45 53.3789 137.954 53.8429 137.938 54.7709H135.73C135.746 52.8669 137.106 51.8269 139.474 51.8269ZM138.978 58.7549C140.114 58.7549 140.93 58.0509 140.93 57.0109V56.5789L139.042 56.7869C138.226 56.8989 137.81 57.2349 137.81 57.7949C137.81 58.4349 138.194 58.7549 138.978 58.7549ZM152.193 60.3069C149.569 60.3069 148.081 58.7549 148.081 56.0669C148.081 53.3789 149.585 51.8429 152.209 51.8429C154.497 51.8429 155.969 53.0109 156.113 55.0109H153.809C153.633 54.0029 153.089 53.4909 152.177 53.4909C150.977 53.4909 150.385 54.3549 150.385 56.0669C150.385 57.7309 151.009 58.6269 152.177 58.6269C153.073 58.6269 153.617 58.1309 153.809 57.1229H156.113C155.969 59.1069 154.513 60.3069 152.193 60.3069ZM161.11 60.2909C158.534 60.2909 157.046 58.7389 157.046 56.0669C157.046 53.3789 158.534 51.8269 161.11 51.8269C163.686 51.8269 165.158 53.3789 165.158 56.0669C165.158 58.7389 163.718 60.2909 161.11 60.2909ZM161.11 58.5949C162.294 58.5949 162.886 57.7469 162.886 56.0669C162.886 54.3709 162.294 53.5229 161.11 53.5229C159.942 53.5229 159.302 54.4189 159.302 56.0669C159.302 57.6829 159.942 58.5949 161.11 58.5949ZM175.686 51.8429C177.35 51.8429 178.31 52.8029 178.31 54.4509V60.1309H176.102V54.8669C176.102 53.9869 175.718 53.5549 174.95 53.5549C174.054 53.5549 173.478 54.1629 173.478 55.2029V60.1309H171.27V54.8669C171.27 53.9869 170.886 53.5549 170.102 53.5549C169.206 53.5549 168.646 54.1629 168.646 55.2029V60.1309H166.438V52.0029H168.118V52.6429L167.958 53.4269H168.15C168.55 52.5149 169.446 51.8429 170.774 51.8429C171.766 51.8429 172.47 52.1949 172.886 52.8829L172.742 53.5069H172.918C173.366 52.5309 174.278 51.8429 175.686 51.8429ZM184.978 56.7389V52.0029H187.25V60.1309H185.474V59.5069L185.634 58.7389H185.442C184.994 59.6349 184.034 60.2909 182.578 60.2909C180.77 60.2909 179.778 59.2829 179.778 57.4909V52.0029H182.034V57.0429C182.034 58.0349 182.466 58.5309 183.346 58.5309C184.322 58.5309 184.978 57.8429 184.978 56.7389ZM193.447 51.8269C195.287 51.8269 196.311 52.8349 196.311 54.6109V60.1309H194.055V55.0909C194.055 54.0989 193.607 53.6029 192.695 53.6029C191.655 53.6029 190.983 54.2589 190.983 55.3949V60.1309H188.727V52.0029H190.503V52.6269L190.343 53.3789H190.535C190.983 52.4829 191.975 51.8269 193.447 51.8269ZM200.217 50.7869H197.833V48.6109H200.217V50.7869ZM200.169 60.1309H197.897V52.0029H200.169V60.1309ZM207.239 52.1149V48.6109H209.511V60.1309H207.735V59.4749L207.895 58.7229H207.687C207.223 59.6349 206.279 60.2909 204.887 60.2909C202.791 60.2909 201.527 58.7389 201.527 56.0669C201.527 53.3949 202.807 51.8269 204.903 51.8269C206.231 51.8269 207.159 52.3549 207.687 53.4109H207.895L207.735 52.7549L207.239 52.1149ZM205.575 58.5789C206.663 58.5789 207.271 57.6989 207.271 56.0509C207.271 54.3709 206.711 53.5389 205.575 53.5389C204.439 53.5389 203.847 54.4349 203.847 56.0509C203.847 57.6669 204.439 58.5789 205.575 58.5789ZM214.565 51.8269C217.045 51.8269 218.277 52.8669 218.277 54.9469V60.1309H216.517V59.4909L216.693 58.7229H216.469C215.909 59.7629 214.917 60.2909 213.461 60.2909C211.669 60.2909 210.661 59.4269 210.661 58.0349C210.661 56.6109 211.557 55.7949 213.685 55.5389L216.021 55.2669V54.8509C216.021 53.8749 215.525 53.3789 214.517 53.3789C213.541 53.3789 213.045 53.8429 213.029 54.7709H210.821C210.837 52.8669 212.197 51.8269 214.565 51.8269ZM214.069 58.7549C215.205 58.7549 216.021 58.0509 216.021 57.0109V56.5789L214.133 56.7869C213.317 56.8989 212.901 57.2349 212.901 57.7949C212.901 58.4349 213.285 58.7549 214.069 58.7549ZM225.231 52.1149V48.6109H227.503V60.1309H225.727V59.4749L225.887 58.7229H225.679C225.215 59.6349 224.271 60.2909 222.879 60.2909C220.783 60.2909 219.519 58.7389 219.519 56.0669C219.519 53.3949 220.799 51.8269 222.895 51.8269C224.223 51.8269 225.151 52.3549 225.679 53.4109H225.887L225.727 52.7549L225.231 52.1149ZM223.567 58.5789C224.655 58.5789 225.263 57.6989 225.263 56.0509C225.263 54.3709 224.703 53.5389 223.567 53.5389C222.431 53.5389 221.839 54.4349 221.839 56.0509C221.839 57.6669 222.431 58.5789 223.567 58.5789ZM236.527 55.9389V56.4349H231.023C231.087 57.9069 231.663 58.6429 232.751 58.6429C233.615 58.6429 234.143 58.2589 234.335 57.4749H236.495C236.239 59.2029 234.879 60.2909 232.639 60.2909C230.095 60.2909 228.703 58.7869 228.703 56.1149C228.703 53.4269 230.223 51.8269 232.767 51.8269C235.215 51.8269 236.527 53.2669 236.527 55.9389ZM232.703 53.3789C231.775 53.3789 231.231 53.9549 231.071 55.1229H234.287C234.143 53.9549 233.615 53.3789 232.703 53.3789Z" fill="black"/>
<path d="M20.3645 84.1309H18.5165L15.8165 76.0429V75.8509H17.1605L19.2845 82.4269L19.3565 82.9789H19.5485L19.6205 82.4269L21.7325 75.8509H23.0645V76.0429L20.3645 84.1309ZM25.9895 77.9509C27.8495 77.9509 28.8815 79.1269 28.8815 81.0949C28.8815 83.0629 27.8495 84.2389 25.9895 84.2389C24.1295 84.2389 23.0975 83.0629 23.0975 81.0949C23.0975 79.1269 24.1535 77.9509 25.9895 77.9509ZM26.0015 83.3029C27.0695 83.3029 27.6455 82.4869 27.6455 81.0949C27.6455 79.6909 27.0695 78.8869 26.0015 78.8869C24.9095 78.8869 24.3215 79.7029 24.3215 81.0949C24.3215 82.4869 24.9095 83.3029 26.0015 83.3029ZM32.8313 84.2509C30.9473 84.2509 29.9033 83.0749 29.9033 81.0949C29.9033 79.1269 30.9593 77.9629 32.8433 77.9629C34.4273 77.9629 35.4593 78.7789 35.5913 80.1709H34.3313C34.1633 79.3069 33.6593 78.8749 32.8313 78.8749C31.7273 78.8749 31.1513 79.6669 31.1513 81.0949C31.1513 82.5229 31.7393 83.3149 32.8313 83.3149C33.6353 83.3149 34.1753 82.8349 34.3313 82.0069H35.5913C35.4593 83.4109 34.4513 84.2509 32.8313 84.2509ZM39.2338 76.1389L39.1618 76.3189L38.3818 77.3269H37.5778V77.1829L38.9098 75.4669H39.6898L41.0218 77.1949V77.3269H40.1938L39.4258 76.3189L39.3418 76.1389H39.2338ZM42.0898 81.0109V81.2749H37.7578C37.8058 82.6309 38.3578 83.3149 39.4018 83.3149C40.2058 83.3149 40.6978 82.9429 40.8658 82.2109H42.0538C41.8618 83.4709 40.8898 84.2389 39.3418 84.2389C37.5058 84.2389 36.4978 83.0869 36.4978 81.1189C36.4978 79.1389 37.5658 77.9509 39.3778 77.9509C41.1418 77.9509 42.0898 79.0549 42.0898 81.0109ZM39.3418 78.8269C38.4298 78.8269 37.9138 79.3909 37.7938 80.5189H40.8658C40.7698 79.3909 40.2658 78.8269 39.3418 78.8269ZM49.1798 77.9629C50.7998 77.9629 51.6878 79.1629 51.6878 81.0949C51.6878 83.0509 50.7758 84.2509 49.1798 84.2509C48.1358 84.2509 47.4038 83.7469 47.0558 83.0269H46.9478L47.0198 83.4469L47.2718 83.8549V86.3029H46.0238V78.0709H47.0198V78.6229L46.9478 79.1749H47.0678C47.4038 78.4669 48.1358 77.9629 49.1798 77.9629ZM48.8318 83.3029C49.8758 83.3029 50.4278 82.4869 50.4278 81.1069C50.4278 79.7269 49.8518 78.9109 48.8318 78.9109C47.8238 78.9109 47.2478 79.7149 47.2478 81.1069C47.2478 82.5349 47.8238 83.3029 48.8318 83.3029ZM55.6121 77.9509C57.4721 77.9509 58.5041 79.1269 58.5041 81.0949C58.5041 83.0629 57.4721 84.2389 55.6121 84.2389C53.7521 84.2389 52.7201 83.0629 52.7201 81.0949C52.7201 79.1269 53.7761 77.9509 55.6121 77.9509ZM55.6241 83.3029C56.6921 83.3029 57.2681 82.4869 57.2681 81.0949C57.2681 79.6909 56.6921 78.8869 55.6241 78.8869C54.5321 78.8869 53.9441 79.7029 53.9441 81.0949C53.9441 82.4869 54.5321 83.3029 55.6241 83.3029ZM63.9419 78.3469V75.4909H65.1779V84.1309H64.1819V83.5789L64.2659 83.0269H64.1459C63.7979 83.7469 63.0659 84.2389 62.0219 84.2389C60.4499 84.2389 59.5259 83.0269 59.5259 81.1069C59.5259 79.1749 60.4619 77.9509 62.0339 77.9509C63.0779 77.9509 63.8099 78.4549 64.1459 79.1749H64.2659L64.1819 78.7549L63.9419 78.3469ZM62.3819 83.2909C63.3899 83.2909 63.9659 82.4869 63.9659 81.0949C63.9659 79.6669 63.3899 78.8989 62.3819 78.8989C61.3379 78.8989 60.7859 79.7149 60.7859 81.0949C60.7859 82.4749 61.3619 83.2909 62.3819 83.2909ZM71.8883 81.0109V81.2749H67.5563C67.6043 82.6309 68.1563 83.3149 69.2003 83.3149C70.0043 83.3149 70.4963 82.9429 70.6643 82.2109H71.8523C71.6603 83.4709 70.6883 84.2389 69.1403 84.2389C67.3043 84.2389 66.2963 83.0869 66.2963 81.1189C66.2963 79.1389 67.3643 77.9509 69.1763 77.9509C70.9403 77.9509 71.8883 79.0549 71.8883 81.0109ZM69.1403 78.8269C68.2283 78.8269 67.7123 79.3909 67.5923 80.5189H70.6643C70.5683 79.3909 70.0643 78.8269 69.1403 78.8269ZM78.3302 77.9509C80.0582 77.9509 80.9222 78.7069 80.9222 80.2069V84.1309H79.9262V83.5789L80.0222 83.0269H79.8902C79.4822 83.8309 78.7262 84.2389 77.6102 84.2389C76.3142 84.2389 75.5702 83.6149 75.5702 82.5949C75.5702 81.5989 76.2062 80.9989 77.7542 80.8069L79.6862 80.5789V80.1589C79.6862 79.2709 79.2182 78.8269 78.2822 78.8269C77.3822 78.8269 76.9262 79.2349 76.9022 80.0629H75.6902C75.7022 78.6829 76.6862 77.9509 78.3302 77.9509ZM77.9222 83.3749C78.9782 83.3749 79.6862 82.7269 79.6862 81.7309V81.3229L77.9702 81.5269C77.1902 81.6349 76.7942 81.9469 76.7942 82.4629C76.7942 83.0509 77.2142 83.3749 77.9222 83.3749ZM85.0364 84.2509C83.1524 84.2509 82.1084 83.0749 82.1084 81.0949C82.1084 79.1269 83.1644 77.9629 85.0484 77.9629C86.6324 77.9629 87.6644 78.7789 87.7964 80.1709H86.5364C86.3684 79.3069 85.8644 78.8749 85.0364 78.8749C83.9324 78.8749 83.3564 79.6669 83.3564 81.0949C83.3564 82.5229 83.9444 83.3149 85.0364 83.3149C85.8404 83.3149 86.3804 82.8349 86.5364 82.0069H87.7964C87.6644 83.4109 86.6564 84.2509 85.0364 84.2509ZM91.607 77.9509C93.467 77.9509 94.499 79.1269 94.499 81.0949C94.499 83.0629 93.467 84.2389 91.607 84.2389C89.747 84.2389 88.715 83.0629 88.715 81.0949C88.715 79.1269 89.771 77.9509 91.607 77.9509ZM91.619 83.3029C92.687 83.3029 93.263 82.4869 93.263 81.0949C93.263 79.6909 92.687 78.8869 91.619 78.8869C90.527 78.8869 89.939 79.7029 89.939 81.0949C89.939 82.4869 90.527 83.3029 91.619 83.3029ZM102.349 77.9629C103.561 77.9629 104.293 78.6589 104.293 79.9069V84.1189H103.081V80.1229C103.081 79.3189 102.721 78.9109 101.989 78.9109C101.125 78.9109 100.597 79.4749 100.597 80.4229V84.1309H99.3848V80.1229C99.3848 79.3189 99.0128 78.9109 98.2808 78.9109C97.4288 78.9109 96.9008 79.4749 96.9008 80.4469V84.1309H95.6888V78.0709H96.6368V78.5989L96.5648 79.1269H96.6728C96.9608 78.4429 97.6448 77.9629 98.6048 77.9629C99.4328 77.9629 99.9848 78.2749 100.261 78.9109L100.201 79.2349H100.297C100.597 78.4789 101.305 77.9629 102.349 77.9629ZM108.803 77.9629C110.423 77.9629 111.311 79.1629 111.311 81.0949C111.311 83.0509 110.399 84.2509 108.803 84.2509C107.759 84.2509 107.027 83.7469 106.679 83.0269H106.571L106.643 83.4469L106.895 83.8549V86.3029H105.647V78.0709H106.643V78.6229L106.571 79.1749H106.691C107.027 78.4669 107.759 77.9629 108.803 77.9629ZM108.455 83.3029C109.499 83.3029 110.051 82.4869 110.051 81.1069C110.051 79.7269 109.475 78.9109 108.455 78.9109C107.447 78.9109 106.871 79.7149 106.871 81.1069C106.871 82.5349 107.447 83.3029 108.455 83.3029ZM115.019 77.9509C116.747 77.9509 117.611 78.7069 117.611 80.2069V84.1309H116.615V83.5789L116.711 83.0269H116.579C116.171 83.8309 115.415 84.2389 114.299 84.2389C113.003 84.2389 112.259 83.6149 112.259 82.5949C112.259 81.5989 112.895 80.9989 114.443 80.8069L116.375 80.5789V80.1589C116.375 79.2709 115.907 78.8269 114.971 78.8269C114.071 78.8269 113.615 79.2349 113.591 80.0629H112.379C112.391 78.6829 113.375 77.9509 115.019 77.9509ZM114.611 83.3749C115.667 83.3749 116.375 82.7269 116.375 81.7309V81.3229L114.659 81.5269C113.879 81.6349 113.483 81.9469 113.483 82.4629C113.483 83.0509 113.903 83.3749 114.611 83.3749ZM122.181 77.9509C123.537 77.9509 124.317 78.7069 124.317 80.0869V84.1309H123.093V80.3269C123.093 79.4029 122.661 78.9349 121.797 78.9349C120.825 78.9349 120.201 79.5469 120.201 80.6029V84.1309H118.965V78.0709H119.961V78.5869L119.889 79.1389H119.985C120.321 78.4549 121.065 77.9509 122.181 77.9509ZM128.905 77.9509C130.285 77.9509 131.053 78.6949 131.053 80.0869V84.1309H129.817V80.3269C129.817 79.4029 129.385 78.9349 128.521 78.9349C127.561 78.9349 126.925 79.5469 126.925 80.5909V84.1309H125.689V75.4909H126.925V78.2149L126.685 78.6709L126.601 79.1269H126.721C127.045 78.4429 127.813 77.9509 128.905 77.9509ZM134.921 77.9509C136.649 77.9509 137.513 78.7069 137.513 80.2069V84.1309H136.517V83.5789L136.613 83.0269H136.481C136.073 83.8309 135.317 84.2389 134.201 84.2389C132.905 84.2389 132.161 83.6149 132.161 82.5949C132.161 81.5989 132.797 80.9989 134.345 80.8069L136.277 80.5789V80.1589C136.277 79.2709 135.809 78.8269 134.873 78.8269C133.973 78.8269 133.517 79.2349 133.493 80.0629H132.281C132.293 78.6829 133.277 77.9509 134.921 77.9509ZM134.513 83.3749C135.569 83.3749 136.277 82.7269 136.277 81.7309V81.3229L134.561 81.5269C133.781 81.6349 133.385 81.9469 133.385 82.4629C133.385 83.0509 133.805 83.3749 134.513 83.3749ZM141.759 77.9509C142.083 77.9509 142.359 77.9989 142.587 78.0949V79.2469C142.287 79.1629 142.011 79.1149 141.747 79.1149C140.703 79.1149 140.103 79.8109 140.103 81.0109V84.1309H138.867V78.0709H139.875V78.5629L139.779 79.2229H139.887C140.163 78.4549 140.799 77.9509 141.759 77.9509ZM148.717 77.9509C150.445 77.9509 151.309 78.7069 151.309 80.2069V84.1309H150.313V83.5789L150.409 83.0269H150.277C149.869 83.8309 149.113 84.2389 147.997 84.2389C146.701 84.2389 145.957 83.6149 145.957 82.5949C145.957 81.5989 146.593 80.9989 148.141 80.8069L150.073 80.5789V80.1589C150.073 79.2709 149.605 78.8269 148.669 78.8269C147.769 78.8269 147.313 79.2349 147.289 80.0629H146.077C146.089 78.6829 147.073 77.9509 148.717 77.9509ZM148.309 83.3749C149.365 83.3749 150.073 82.7269 150.073 81.7309V81.3229L148.357 81.5269C147.577 81.6349 147.181 81.9469 147.181 82.4629C147.181 83.0509 147.601 83.3749 148.309 83.3749ZM155.063 84.2389C153.431 84.2389 152.543 83.6149 152.399 82.3669H153.587C153.719 83.0749 154.223 83.4229 155.099 83.4229C155.927 83.4229 156.479 83.0749 156.479 82.4869C156.479 82.0189 156.119 81.7189 155.387 81.5749L154.151 81.3589C153.083 81.1549 152.507 80.5789 152.507 79.7749C152.507 78.6709 153.467 77.9509 155.051 77.9509C156.551 77.9509 157.475 78.5869 157.583 79.7749H156.395C156.311 79.1029 155.831 78.7669 154.979 78.7669C154.163 78.7669 153.671 79.1149 153.671 79.6069C153.671 80.0149 154.031 80.2909 154.739 80.4349L155.939 80.6509C157.127 80.8789 157.715 81.4429 157.715 82.3189C157.715 83.4829 156.683 84.2389 155.063 84.2389ZM164.023 84.2389C162.391 84.2389 161.503 83.6149 161.359 82.3669H162.547C162.679 83.0749 163.183 83.4229 164.059 83.4229C164.887 83.4229 165.439 83.0749 165.439 82.4869C165.439 82.0189 165.079 81.7189 164.347 81.5749L163.111 81.3589C162.043 81.1549 161.467 80.5789 161.467 79.7749C161.467 78.6709 162.427 77.9509 164.011 77.9509C165.511 77.9509 166.435 78.5869 166.543 79.7749H165.355C165.271 79.1029 164.791 78.7669 163.939 78.7669C163.123 78.7669 162.631 79.1149 162.631 79.6069C162.631 80.0149 162.991 80.2909 163.699 80.4349L164.899 80.6509C166.087 80.8789 166.675 81.4429 166.675 82.3189C166.675 83.4829 165.643 84.2389 164.023 84.2389ZM170.543 77.9509C172.403 77.9509 173.435 79.1269 173.435 81.0949C173.435 83.0629 172.403 84.2389 170.543 84.2389C168.683 84.2389 167.651 83.0629 167.651 81.0949C167.651 79.1269 168.707 77.9509 170.543 77.9509ZM170.555 83.3029C171.623 83.3029 172.199 82.4869 172.199 81.0949C172.199 79.6909 171.623 78.8869 170.555 78.8869C169.463 78.8869 168.875 79.7029 168.875 81.0949C168.875 82.4869 169.463 83.3029 170.555 83.3029ZM176.017 84.1309H174.781V75.4909H176.017V84.1309ZM178.932 77.0149H177.576V75.4909H178.944L178.932 77.0149ZM178.884 84.1309H177.648V78.0709H178.884V84.1309ZM183.11 84.2509C181.226 84.2509 180.182 83.0749 180.182 81.0949C180.182 79.1269 181.238 77.9629 183.122 77.9629C184.706 77.9629 185.738 78.7789 185.87 80.1709H184.61C184.442 79.3069 183.938 78.8749 183.11 78.8749C182.006 78.8749 181.43 79.6669 181.43 81.0949C181.43 82.5229 182.018 83.3149 183.11 83.3149C183.914 83.3149 184.454 82.8349 184.61 82.0069H185.87C185.738 83.4109 184.73 84.2509 183.11 84.2509ZM188.348 77.0149H186.992V75.4909H188.36L188.348 77.0149ZM188.3 84.1309H187.064V78.0709H188.3V84.1309ZM192.67 83.2309C192.91 83.2309 193.186 83.1949 193.486 83.1109V84.0829C193.15 84.1909 192.754 84.2389 192.286 84.2389C191.026 84.2389 190.39 83.6269 190.39 82.3909V81.7909V78.9349H189.322V78.0709H190.39V76.4269H191.626V78.0709H193.45V78.9349H191.626V81.7189V82.1989C191.626 82.8829 191.974 83.2309 192.67 83.2309ZM197.193 77.9509C198.921 77.9509 199.785 78.7069 199.785 80.2069V84.1309H198.789V83.5789L198.885 83.0269H198.753C198.345 83.8309 197.589 84.2389 196.473 84.2389C195.177 84.2389 194.433 83.6149 194.433 82.5949C194.433 81.5989 195.069 80.9989 196.617 80.8069L198.549 80.5789V80.1589C198.549 79.2709 198.081 78.8269 197.145 78.8269C196.245 78.8269 195.789 79.2349 195.765 80.0629H194.553C194.565 78.6829 195.549 77.9509 197.193 77.9509ZM196.785 83.3749C197.841 83.3749 198.549 82.7269 198.549 81.7309V81.3229L196.833 81.5269C196.053 81.6349 195.657 81.9469 195.657 82.4629C195.657 83.0509 196.077 83.3749 196.785 83.3749ZM203.899 83.3149C204.703 83.3149 205.243 82.8349 205.399 82.0069H206.659C206.527 83.3029 205.651 84.1309 204.223 84.2389L203.803 84.8509H204.055C204.859 84.8509 205.267 85.1989 205.267 85.7749C205.267 86.4589 204.679 86.8429 203.671 86.8429C203.239 86.8429 202.867 86.7949 202.555 86.7109V86.1229C202.903 86.2309 203.275 86.2909 203.647 86.2909C204.223 86.2909 204.511 86.1229 204.511 85.7869C204.511 85.5109 204.283 85.3789 203.827 85.3789H202.867V85.2469L203.551 84.2389C201.883 84.0949 200.971 82.9549 200.971 81.0949C200.971 79.1269 202.027 77.9629 203.911 77.9629C205.495 77.9629 206.527 78.7789 206.659 80.1709H205.399C205.231 79.3069 204.727 78.8749 203.899 78.8749C202.795 78.8749 202.219 79.6669 202.219 81.0949C202.219 82.5229 202.807 83.3149 203.899 83.3149ZM211.262 77.3269C210.974 77.3269 210.674 77.2189 210.362 77.0149C210.05 76.7989 209.822 76.6909 209.69 76.6909C209.354 76.6909 209.21 76.9549 209.222 77.2909H208.586C208.526 76.5589 208.922 75.9349 209.702 75.9349C209.966 75.9349 210.242 76.0429 210.542 76.2589C210.842 76.4629 211.07 76.5709 211.214 76.5709C211.514 76.5709 211.682 76.3189 211.646 75.9709H212.318C212.378 76.7389 212.018 77.3269 211.262 77.3269ZM210.47 77.9509C212.33 77.9509 213.362 79.1269 213.362 81.0949C213.362 83.0629 212.33 84.2389 210.47 84.2389C208.61 84.2389 207.578 83.0629 207.578 81.0949C207.578 79.1269 208.634 77.9509 210.47 77.9509ZM210.482 83.3029C211.55 83.3029 212.126 82.4869 212.126 81.0949C212.126 79.6909 211.55 78.8869 210.482 78.8869C209.39 78.8869 208.802 79.7029 208.802 81.0949C208.802 82.4869 209.39 83.3029 210.482 83.3029ZM219.964 81.0109V81.2749H215.632C215.68 82.6309 216.232 83.3149 217.276 83.3149C218.08 83.3149 218.572 82.9429 218.74 82.2109H219.928C219.736 83.4709 218.764 84.2389 217.216 84.2389C215.38 84.2389 214.372 83.0869 214.372 81.1189C214.372 79.1389 215.44 77.9509 217.252 77.9509C219.016 77.9509 219.964 79.0549 219.964 81.0109ZM217.216 78.8269C216.304 78.8269 215.788 79.3909 215.668 80.5189H218.74C218.644 79.3909 218.14 78.8269 217.216 78.8269ZM223.535 84.2389C221.903 84.2389 221.015 83.6149 220.871 82.3669H222.059C222.191 83.0749 222.695 83.4229 223.571 83.4229C224.399 83.4229 224.951 83.0749 224.951 82.4869C224.951 82.0189 224.591 81.7189 223.859 81.5749L222.623 81.3589C221.555 81.1549 220.979 80.5789 220.979 79.7749C220.979 78.6709 221.939 77.9509 223.523 77.9509C225.023 77.9509 225.947 78.5869 226.055 79.7749H224.867C224.783 79.1029 224.303 78.7669 223.451 78.7669C222.635 78.7669 222.143 79.1149 222.143 79.6069C222.143 80.0149 222.503 80.2909 223.211 80.4349L224.411 80.6509C225.599 80.8789 226.187 81.4429 226.187 82.3189C226.187 83.4829 225.155 84.2389 223.535 84.2389ZM234.342 78.3469V75.4909H235.578V84.1309H234.582V83.5789L234.666 83.0269H234.546C234.198 83.7469 233.466 84.2389 232.422 84.2389C230.85 84.2389 229.926 83.0269 229.926 81.1069C229.926 79.1749 230.862 77.9509 232.434 77.9509C233.478 77.9509 234.21 78.4549 234.546 79.1749H234.666L234.582 78.7549L234.342 78.3469ZM232.782 83.2909C233.79 83.2909 234.366 82.4869 234.366 81.0949C234.366 79.6669 233.79 78.8989 232.782 78.8989C231.738 78.8989 231.186 79.7149 231.186 81.0949C231.186 82.4749 231.762 83.2909 232.782 83.2909ZM242.288 81.0109V81.2749H237.956C238.004 82.6309 238.556 83.3149 239.6 83.3149C240.404 83.3149 240.896 82.9429 241.064 82.2109H242.252C242.06 83.4709 241.088 84.2389 239.54 84.2389C237.704 84.2389 236.696 83.0869 236.696 81.1189C236.696 79.1389 237.764 77.9509 239.576 77.9509C241.34 77.9509 242.288 79.0549 242.288 81.0109ZM239.54 78.8269C238.628 78.8269 238.112 79.3909 237.992 80.5189H241.064C240.968 79.3909 240.464 78.8269 239.54 78.8269ZM249.378 77.9629C250.998 77.9629 251.886 79.1629 251.886 81.0949C251.886 83.0509 250.974 84.2509 249.378 84.2509C248.334 84.2509 247.602 83.7469 247.254 83.0269H247.146L247.218 83.4469L247.47 83.8549V86.3029H246.222V78.0709H247.218V78.6229L247.146 79.1749H247.266C247.602 78.4669 248.334 77.9629 249.378 77.9629ZM249.03 83.3029C250.074 83.3029 250.626 82.4869 250.626 81.1069C250.626 79.7269 250.05 78.9109 249.03 78.9109C248.022 78.9109 247.446 79.7149 247.446 81.1069C247.446 82.5349 248.022 83.3029 249.03 83.3029ZM258.499 81.0109V81.2749H254.167C254.215 82.6309 254.767 83.3149 255.811 83.3149C256.615 83.3149 257.107 82.9429 257.275 82.2109H258.463C258.271 83.4709 257.299 84.2389 255.751 84.2389C253.915 84.2389 252.907 83.0869 252.907 81.1189C252.907 79.1389 253.975 77.9509 255.787 77.9509C257.551 77.9509 258.499 79.0549 258.499 81.0109ZM255.751 78.8269C254.839 78.8269 254.323 79.3909 254.203 80.5189H257.275C257.179 79.3909 256.675 78.8269 255.751 78.8269ZM263.918 78.3469V75.4909H265.154V84.1309H264.158V83.5789L264.242 83.0269H264.122C263.774 83.7469 263.042 84.2389 261.998 84.2389C260.426 84.2389 259.502 83.0269 259.502 81.1069C259.502 79.1749 260.438 77.9509 262.01 77.9509C263.054 77.9509 263.786 78.4549 264.122 79.1749H264.242L264.158 78.7549L263.918 78.3469ZM262.358 83.2909C263.366 83.2909 263.942 82.4869 263.942 81.0949C263.942 79.6669 263.366 78.8989 262.358 78.8989C261.314 78.8989 260.762 79.7149 260.762 81.0949C260.762 82.4749 261.338 83.2909 262.358 83.2909ZM267.914 77.0149H266.558V75.4909H267.926L267.914 77.0149ZM267.866 84.1309H266.63V78.0709H267.866V84.1309ZM273.58 78.3469V75.4909H274.816V84.1309H273.82V83.5789L273.904 83.0269H273.784C273.436 83.7469 272.704 84.2389 271.66 84.2389C270.088 84.2389 269.164 83.0269 269.164 81.1069C269.164 79.1749 270.1 77.9509 271.672 77.9509C272.716 77.9509 273.448 78.4549 273.784 79.1749H273.904L273.82 78.7549L273.58 78.3469ZM272.02 83.2909C273.028 83.2909 273.604 82.4869 273.604 81.0949C273.604 79.6669 273.028 78.8989 272.02 78.8989C270.976 78.8989 270.424 79.7149 270.424 81.0949C270.424 82.4749 271 83.2909 272.02 83.2909ZM278.838 77.9509C280.698 77.9509 281.73 79.1269 281.73 81.0949C281.73 83.0629 280.698 84.2389 278.838 84.2389C276.978 84.2389 275.946 83.0629 275.946 81.0949C275.946 79.1269 277.002 77.9509 278.838 77.9509ZM278.85 83.3029C279.918 83.3029 280.494 82.4869 280.494 81.0949C280.494 79.6909 279.918 78.8869 278.85 78.8869C277.758 78.8869 277.17 79.7029 277.17 81.0949C277.17 82.4869 277.758 83.3029 278.85 83.3029ZM285.32 84.2389C283.688 84.2389 282.8 83.6149 282.656 82.3669H283.844C283.976 83.0749 284.48 83.4229 285.356 83.4229C286.184 83.4229 286.736 83.0749 286.736 82.4869C286.736 82.0189 286.376 81.7189 285.644 81.5749L284.408 81.3589C283.34 81.1549 282.764 80.5789 282.764 79.7749C282.764 78.6709 283.724 77.9509 285.308 77.9509C286.808 77.9509 287.732 78.5869 287.84 79.7749H286.652C286.568 79.1029 286.088 78.7669 285.236 78.7669C284.42 78.7669 283.928 79.1149 283.928 79.6069C283.928 80.0149 284.288 80.2909 284.996 80.4349L286.196 80.6509C287.384 80.8789 287.972 81.4429 287.972 82.3189C287.972 83.4829 286.94 84.2389 285.32 84.2389ZM297.291 81.0109V81.2749H292.959C293.007 82.6309 293.559 83.3149 294.603 83.3149C295.407 83.3149 295.899 82.9429 296.067 82.2109H297.255C297.063 83.4709 296.091 84.2389 294.543 84.2389C292.707 84.2389 291.699 83.0869 291.699 81.1189C291.699 79.1389 292.767 77.9509 294.579 77.9509C296.343 77.9509 297.291 79.0549 297.291 81.0109ZM294.543 78.8269C293.631 78.8269 293.115 79.3909 292.995 80.5189H296.067C295.971 79.3909 295.467 78.8269 294.543 78.8269ZM303.949 77.9509C305.809 77.9509 306.841 79.1269 306.841 81.0949C306.841 83.0629 305.809 84.2389 303.949 84.2389C302.089 84.2389 301.057 83.0629 301.057 81.0949C301.057 79.1269 302.113 77.9509 303.949 77.9509ZM303.961 83.3029C305.029 83.3029 305.605 82.4869 305.605 81.0949C305.605 79.6909 305.029 78.8869 303.961 78.8869C302.869 78.8869 302.281 79.7029 302.281 81.0949C302.281 82.4869 302.869 83.3029 303.961 83.3029ZM310.431 84.2389C308.799 84.2389 307.911 83.6149 307.767 82.3669H308.955C309.087 83.0749 309.591 83.4229 310.467 83.4229C311.295 83.4229 311.847 83.0749 311.847 82.4869C311.847 82.0189 311.487 81.7189 310.755 81.5749L309.519 81.3589C308.451 81.1549 307.875 80.5789 307.875 79.7749C307.875 78.6709 308.835 77.9509 310.419 77.9509C311.919 77.9509 312.843 78.5869 312.951 79.7749H311.763C311.679 79.1029 311.199 78.7669 310.347 78.7669C309.531 78.7669 309.039 79.1149 309.039 79.6069C309.039 80.0149 309.399 80.2909 310.107 80.4349L311.307 80.6509C312.495 80.8789 313.083 81.4429 313.083 82.3189C313.083 83.4829 312.051 84.2389 310.431 84.2389ZM43.556 106.239C41.924 106.239 41.036 105.615 40.892 104.367H42.08C42.212 105.075 42.716 105.423 43.592 105.423C44.42 105.423 44.972 105.075 44.972 104.487C44.972 104.019 44.612 103.719 43.88 103.575L42.644 103.359C41.576 103.155 41 102.579 41 101.775C41 100.671 41.96 99.9509 43.544 99.9509C45.044 99.9509 45.968 100.587 46.076 101.775H44.888C44.804 101.103 44.324 100.767 43.472 100.767C42.656 100.767 42.164 101.115 42.164 101.607C42.164 102.015 42.524 102.291 43.232 102.435L44.432 102.651C45.62 102.879 46.208 103.443 46.208 104.319C46.208 105.483 45.176 106.239 43.556 106.239ZM50.2564 105.231C50.4964 105.231 50.7724 105.195 51.0724 105.111V106.083C50.7364 106.191 50.3404 106.239 49.8724 106.239C48.6124 106.239 47.9764 105.627 47.9764 104.391V103.791V100.935H46.9084V100.071H47.9764V98.4269H49.2124V100.071H51.0364V100.935H49.2124V103.719V104.199C49.2124 104.883 49.5604 105.231 50.2564 105.231ZM54.7795 99.9509C56.5075 99.9509 57.3715 100.707 57.3715 102.207V106.131H56.3755V105.579L56.4715 105.027H56.3395C55.9315 105.831 55.1755 106.239 54.0595 106.239C52.7635 106.239 52.0195 105.615 52.0195 104.595C52.0195 103.599 52.6555 102.999 54.2035 102.807L56.1355 102.579V102.159C56.1355 101.271 55.6675 100.827 54.7315 100.827C53.8315 100.827 53.3755 101.235 53.3515 102.063H52.1395C52.1515 100.683 53.1355 99.9509 54.7795 99.9509ZM54.3715 105.375C55.4275 105.375 56.1355 104.727 56.1355 103.731V103.323L54.4195 103.527C53.6395 103.635 53.2435 103.947 53.2435 104.463C53.2435 105.051 53.6635 105.375 54.3715 105.375ZM61.6297 105.231C61.8697 105.231 62.1457 105.195 62.4457 105.111V106.083C62.1097 106.191 61.7137 106.239 61.2457 106.239C59.9857 106.239 59.3497 105.627 59.3497 104.391V103.791V100.935H58.2817V100.071H59.3497V98.4269H60.5857V100.071H62.4097V100.935H60.5857V103.719V104.199C60.5857 104.883 60.9337 105.231 61.6297 105.231ZM67.6413 103.611V100.071H68.8773V106.131H67.8813V105.603L67.9653 105.063H67.8573C67.5213 105.747 66.7893 106.239 65.7213 106.239C64.3773 106.239 63.6213 105.495 63.6213 104.115V100.071H64.8573V103.887C64.8573 104.811 65.2773 105.267 66.1053 105.267C67.0293 105.267 67.6413 104.655 67.6413 103.611ZM72.6279 106.239C70.9959 106.239 70.1079 105.615 69.9639 104.367H71.1519C71.2839 105.075 71.7879 105.423 72.6639 105.423C73.4919 105.423 74.0439 105.075 74.0439 104.487C74.0439 104.019 73.6839 103.719 72.9519 103.575L71.7159 103.359C70.6479 103.155 70.0719 102.579 70.0719 101.775C70.0719 100.671 71.0319 99.9509 72.6159 99.9509C74.1159 99.9509 75.0399 100.587 75.1479 101.775H73.9599C73.8759 101.103 73.3959 100.767 72.5439 100.767C71.7279 100.767 71.2359 101.115 71.2359 101.607C71.2359 102.015 71.5959 102.291 72.3039 102.435L73.5039 102.651C74.6919 102.879 75.2799 103.443 75.2799 104.319C75.2799 105.483 74.2479 106.239 72.6279 106.239ZM83.4351 100.347V97.4909H84.6711V106.131H83.6751V105.579L83.7591 105.027H83.6391C83.2911 105.747 82.5591 106.239 81.5151 106.239C79.9431 106.239 79.0191 105.027 79.0191 103.107C79.0191 101.175 79.9551 99.9509 81.5271 99.9509C82.5711 99.9509 83.3031 100.455 83.6391 101.175H83.7591L83.6751 100.755L83.4351 100.347ZM81.8751 105.291C82.8831 105.291 83.4591 104.487 83.4591 103.095C83.4591 101.667 82.8831 100.899 81.8751 100.899C80.8311 100.899 80.2791 101.715 80.2791 103.095C80.2791 104.475 80.8551 105.291 81.8751 105.291ZM91.3815 103.011V103.275H87.0495C87.0975 104.631 87.6495 105.315 88.6935 105.315C89.4975 105.315 89.9895 104.943 90.1575 104.211H91.3455C91.1535 105.471 90.1815 106.239 88.6335 106.239C86.7975 106.239 85.7895 105.087 85.7895 103.119C85.7895 101.139 86.8575 99.9509 88.6695 99.9509C90.4335 99.9509 91.3815 101.055 91.3815 103.011ZM88.6335 100.827C87.7215 100.827 87.2055 101.391 87.0855 102.519H90.1575C90.0615 101.391 89.5575 100.827 88.6335 100.827ZM97.7154 106.239C96.0834 106.239 95.1954 105.615 95.0514 104.367H96.2394C96.3714 105.075 96.8754 105.423 97.7514 105.423C98.5794 105.423 99.1314 105.075 99.1314 104.487C99.1314 104.019 98.7714 103.719 98.0394 103.575L96.8034 103.359C95.7354 103.155 95.1594 102.579 95.1594 101.775C95.1594 100.671 96.1194 99.9509 97.7034 99.9509C99.2034 99.9509 100.127 100.587 100.235 101.775H99.0474C98.9634 101.103 98.4834 100.767 97.6314 100.767C96.8154 100.767 96.3234 101.115 96.3234 101.607C96.3234 102.015 96.6834 102.291 97.3914 102.435L98.5914 102.651C99.7794 102.879 100.367 103.443 100.367 104.319C100.367 105.483 99.3354 106.239 97.7154 106.239ZM105.532 103.611V100.071H106.768V106.131H105.772V105.603L105.856 105.063H105.748C105.412 105.747 104.68 106.239 103.612 106.239C102.268 106.239 101.512 105.495 101.512 104.115V100.071H102.748V103.887C102.748 104.811 103.168 105.267 103.996 105.267C104.92 105.267 105.532 104.655 105.532 103.611ZM110.626 99.9509C112.354 99.9509 113.218 100.707 113.218 102.207V106.131H112.222V105.579L112.318 105.027H112.186C111.778 105.831 111.022 106.239 109.906 106.239C108.61 106.239 107.866 105.615 107.866 104.595C107.866 103.599 108.502 102.999 110.05 102.807L111.982 102.579V102.159C111.982 101.271 111.514 100.827 110.578 100.827C109.678 100.827 109.222 101.235 109.198 102.063H107.986C107.998 100.683 108.982 99.9509 110.626 99.9509ZM110.218 105.375C111.274 105.375 111.982 104.727 111.982 103.731V103.323L110.266 103.527C109.486 103.635 109.09 103.947 109.09 104.463C109.09 105.051 109.51 105.375 110.218 105.375ZM116.973 106.239C115.341 106.239 114.453 105.615 114.309 104.367H115.497C115.629 105.075 116.133 105.423 117.009 105.423C117.837 105.423 118.389 105.075 118.389 104.487C118.389 104.019 118.029 103.719 117.297 103.575L116.061 103.359C114.993 103.155 114.417 102.579 114.417 101.775C114.417 100.671 115.377 99.9509 116.961 99.9509C118.461 99.9509 119.385 100.587 119.493 101.775H118.305C118.221 101.103 117.741 100.767 116.889 100.767C116.073 100.767 115.581 101.115 115.581 101.607C115.581 102.015 115.941 102.291 116.649 102.435L117.849 102.651C119.037 102.879 119.625 103.443 119.625 104.319C119.625 105.483 118.593 106.239 116.973 106.239ZM128.944 103.011V103.275H124.612C124.66 104.631 125.212 105.315 126.256 105.315C127.06 105.315 127.552 104.943 127.72 104.211H128.908C128.716 105.471 127.744 106.239 126.196 106.239C124.36 106.239 123.352 105.087 123.352 103.119C123.352 101.139 124.42 99.9509 126.232 99.9509C127.996 99.9509 128.944 101.055 128.944 103.011ZM126.196 100.827C125.284 100.827 124.768 101.391 124.648 102.519H127.72C127.624 101.391 127.12 100.827 126.196 100.827ZM133.331 99.9509C134.687 99.9509 135.467 100.707 135.467 102.087V106.131H134.243V102.327C134.243 101.403 133.811 100.935 132.947 100.935C131.975 100.935 131.351 101.547 131.351 102.603V106.131H130.115V100.071H131.111V100.587L131.039 101.139H131.135C131.471 100.455 132.215 99.9509 133.331 99.9509ZM139.743 105.231C139.983 105.231 140.259 105.195 140.559 105.111V106.083C140.223 106.191 139.827 106.239 139.359 106.239C138.099 106.239 137.463 105.627 137.463 104.391V103.791V100.935H136.395V100.071H137.463V98.4269H138.699V100.071H140.523V100.935H138.699V103.719V104.199C138.699 104.883 139.047 105.231 139.743 105.231ZM144.626 99.9509C144.95 99.9509 145.226 99.9989 145.454 100.095V101.247C145.154 101.163 144.878 101.115 144.614 101.115C143.57 101.115 142.97 101.811 142.97 103.011V106.131H141.734V100.071H142.742V100.563L142.646 101.223H142.754C143.03 100.455 143.666 99.9509 144.626 99.9509ZM151.608 103.011V103.275H147.276C147.324 104.631 147.876 105.315 148.92 105.315C149.724 105.315 150.216 104.943 150.384 104.211H151.572C151.38 105.471 150.408 106.239 148.86 106.239C147.024 106.239 146.016 105.087 146.016 103.119C146.016 101.139 147.084 99.9509 148.896 99.9509C150.66 99.9509 151.608 101.055 151.608 103.011ZM148.86 100.827C147.948 100.827 147.432 101.391 147.312 102.519H150.384C150.288 101.391 149.784 100.827 148.86 100.827ZM157.255 100.599V100.071H158.311V105.795C158.311 107.463 157.339 108.411 155.407 108.411C153.727 108.411 152.767 107.655 152.659 106.311H153.895C153.979 107.091 154.519 107.535 155.419 107.535C156.463 107.535 156.991 106.983 157.027 105.879L157.255 105.303L157.339 104.823H157.231C156.883 105.543 156.139 106.035 155.095 106.035C153.511 106.035 152.611 104.859 152.611 102.987C152.611 101.127 153.511 99.9509 155.095 99.9509C156.139 99.9509 156.883 100.431 157.219 101.139H157.339L157.255 100.599ZM155.467 105.147C156.463 105.147 157.039 104.367 157.039 102.987C157.039 101.631 156.463 100.839 155.467 100.839C154.423 100.839 153.871 101.655 153.871 102.987C153.871 104.343 154.447 105.147 155.467 105.147ZM162.187 99.9509C163.915 99.9509 164.779 100.707 164.779 102.207V106.131H163.783V105.579L163.879 105.027H163.747C163.339 105.831 162.583 106.239 161.467 106.239C160.171 106.239 159.427 105.615 159.427 104.595C159.427 103.599 160.063 102.999 161.611 102.807L163.543 102.579V102.159C163.543 101.271 163.075 100.827 162.139 100.827C161.239 100.827 160.783 101.235 160.759 102.063H159.547C159.559 100.683 160.543 99.9509 162.187 99.9509ZM161.779 105.375C162.835 105.375 163.543 104.727 163.543 103.731V103.323L161.827 103.527C161.047 103.635 160.651 103.947 160.651 104.463C160.651 105.051 161.071 105.375 161.779 105.375ZM168.533 106.239C166.901 106.239 166.013 105.615 165.869 104.367H167.057C167.189 105.075 167.693 105.423 168.569 105.423C169.397 105.423 169.949 105.075 169.949 104.487C169.949 104.019 169.589 103.719 168.857 103.575L167.621 103.359C166.553 103.155 165.977 102.579 165.977 101.775C165.977 100.671 166.937 99.9509 168.521 99.9509C170.021 99.9509 170.945 100.587 171.053 101.775H169.865C169.781 101.103 169.301 100.767 168.449 100.767C167.633 100.767 167.141 101.115 167.141 101.607C167.141 102.015 167.501 102.291 168.209 102.435L169.409 102.651C170.597 102.879 171.185 103.443 171.185 104.319C171.185 105.483 170.153 106.239 168.533 106.239ZM178.308 99.9509C179.664 99.9509 180.444 100.707 180.444 102.087V106.131H179.22V102.327C179.22 101.403 178.788 100.935 177.924 100.935C176.952 100.935 176.328 101.547 176.328 102.603V106.131H175.092V100.071H176.088V100.587L176.016 101.139H176.112C176.448 100.455 177.192 99.9509 178.308 99.9509ZM184.324 99.9509C186.052 99.9509 186.916 100.707 186.916 102.207V106.131H185.92V105.579L186.016 105.027H185.884C185.476 105.831 184.72 106.239 183.604 106.239C182.308 106.239 181.564 105.615 181.564 104.595C181.564 103.599 182.2 102.999 183.748 102.807L185.68 102.579V102.159C185.68 101.271 185.212 100.827 184.276 100.827C183.376 100.827 182.92 101.235 182.896 102.063H181.684C181.696 100.683 182.68 99.9509 184.324 99.9509ZM183.916 105.375C184.972 105.375 185.68 104.727 185.68 103.731V103.323L183.964 103.527C183.184 103.635 182.788 103.947 182.788 104.463C182.788 105.051 183.208 105.375 183.916 105.375ZM194.189 99.9629C195.809 99.9629 196.697 101.163 196.697 103.095C196.697 105.051 195.785 106.251 194.189 106.251C193.145 106.251 192.413 105.747 192.065 105.027H191.957L192.029 105.447L192.281 105.855V108.303H191.033V100.071H192.029V100.623L191.957 101.175H192.077C192.413 100.467 193.145 99.9629 194.189 99.9629ZM193.841 105.303C194.885 105.303 195.437 104.487 195.437 103.107C195.437 101.727 194.861 100.911 193.841 100.911C192.833 100.911 192.257 101.715 192.257 103.107C192.257 104.535 192.833 105.303 193.841 105.303ZM202.158 97.4909V97.6469L200.442 99.3269H199.554V99.1709L200.982 97.4909H202.158ZM200.406 99.9509C202.134 99.9509 202.998 100.707 202.998 102.207V106.131H202.002V105.579L202.098 105.027H201.966C201.558 105.831 200.802 106.239 199.686 106.239C198.39 106.239 197.646 105.615 197.646 104.595C197.646 103.599 198.282 102.999 199.83 102.807L201.762 102.579V102.159C201.762 101.271 201.294 100.827 200.358 100.827C199.458 100.827 199.002 101.235 198.978 102.063H197.766C197.778 100.683 198.762 99.9509 200.406 99.9509ZM199.998 105.375C201.054 105.375 201.762 104.727 201.762 103.731V103.323L200.046 103.527C199.266 103.635 198.87 103.947 198.87 104.463C198.87 105.051 199.29 105.375 199.998 105.375ZM208.828 100.599V100.071H209.884V105.795C209.884 107.463 208.912 108.411 206.98 108.411C205.3 108.411 204.34 107.655 204.232 106.311H205.468C205.552 107.091 206.092 107.535 206.992 107.535C208.036 107.535 208.564 106.983 208.6 105.879L208.828 105.303L208.912 104.823H208.804C208.456 105.543 207.712 106.035 206.668 106.035C205.084 106.035 204.184 104.859 204.184 102.987C204.184 101.127 205.084 99.9509 206.668 99.9509C207.712 99.9509 208.456 100.431 208.792 101.139H208.912L208.828 100.599ZM207.04 105.147C208.036 105.147 208.612 104.367 208.612 102.987C208.612 101.631 208.036 100.839 207.04 100.839C205.996 100.839 205.444 101.655 205.444 102.987C205.444 104.343 206.02 105.147 207.04 105.147ZM212.643 99.0149H211.287V97.4909H212.655L212.643 99.0149ZM212.595 106.131H211.359V100.071H212.595V106.131ZM217.277 99.9509C218.633 99.9509 219.413 100.707 219.413 102.087V106.131H218.189V102.327C218.189 101.403 217.757 100.935 216.893 100.935C215.921 100.935 215.297 101.547 215.297 102.603V106.131H214.061V100.071H215.057V100.587L214.985 101.139H215.081C215.417 100.455 216.161 99.9509 217.277 99.9509ZM223.293 99.9509C225.021 99.9509 225.885 100.707 225.885 102.207V106.131H224.889V105.579L224.985 105.027H224.853C224.445 105.831 223.689 106.239 222.573 106.239C221.277 106.239 220.533 105.615 220.533 104.595C220.533 103.599 221.169 102.999 222.717 102.807L224.649 102.579V102.159C224.649 101.271 224.181 100.827 223.245 100.827C222.345 100.827 221.889 101.235 221.865 102.063H220.653C220.665 100.683 221.649 99.9509 223.293 99.9509ZM222.885 105.375C223.941 105.375 224.649 104.727 224.649 103.731V103.323L222.933 103.527C222.153 103.635 221.757 103.947 221.757 104.463C221.757 105.051 222.177 105.375 222.885 105.375ZM234.25 100.347V97.4909H235.486V106.131H234.49V105.579L234.574 105.027H234.454C234.106 105.747 233.374 106.239 232.33 106.239C230.758 106.239 229.834 105.027 229.834 103.107C229.834 101.175 230.77 99.9509 232.342 99.9509C233.386 99.9509 234.118 100.455 234.454 101.175H234.574L234.49 100.755L234.25 100.347ZM232.69 105.291C233.698 105.291 234.274 104.487 234.274 103.095C234.274 101.667 233.698 100.899 232.69 100.899C231.646 100.899 231.094 101.715 231.094 103.095C231.094 104.475 231.67 105.291 232.69 105.291ZM242.196 103.011V103.275H237.864C237.912 104.631 238.464 105.315 239.508 105.315C240.312 105.315 240.804 104.943 240.972 104.211H242.16C241.968 105.471 240.996 106.239 239.448 106.239C237.612 106.239 236.604 105.087 236.604 103.119C236.604 101.139 237.672 99.9509 239.484 99.9509C241.248 99.9509 242.196 101.055 242.196 103.011ZM239.448 100.827C238.536 100.827 238.02 101.391 237.9 102.519H240.972C240.876 101.391 240.372 100.827 239.448 100.827ZM246.37 97.8509H249.202C251.386 97.8509 252.478 98.8229 252.478 100.779C252.478 102.723 251.386 103.695 249.202 103.707L247.678 103.719V106.131H246.37V97.8509ZM247.678 102.699H249.094C250.45 102.699 251.122 102.063 251.122 100.791C251.122 99.5069 250.45 98.8589 249.094 98.8589H247.678V102.699ZM258.594 103.011V103.275H254.262C254.31 104.631 254.862 105.315 255.906 105.315C256.71 105.315 257.202 104.943 257.37 104.211H258.558C258.366 105.471 257.394 106.239 255.846 106.239C254.01 106.239 253.002 105.087 253.002 103.119C253.002 101.139 254.07 99.9509 255.882 99.9509C257.646 99.9509 258.594 101.055 258.594 103.011ZM255.846 100.827C254.934 100.827 254.418 101.391 254.298 102.519H257.37C257.274 101.391 256.77 100.827 255.846 100.827ZM264.013 100.347V97.4909H265.249V106.131H264.253V105.579L264.337 105.027H264.217C263.869 105.747 263.137 106.239 262.093 106.239C260.521 106.239 259.597 105.027 259.597 103.107C259.597 101.175 260.533 99.9509 262.105 99.9509C263.149 99.9509 263.881 100.455 264.217 101.175H264.337L264.253 100.755L264.013 100.347ZM262.453 105.291C263.461 105.291 264.037 104.487 264.037 103.095C264.037 101.667 263.461 100.899 262.453 100.899C261.409 100.899 260.857 101.715 260.857 103.095C260.857 104.475 261.433 105.291 262.453 105.291ZM268.01 99.0149H266.654V97.4909H268.022L268.01 99.0149ZM267.962 106.131H266.726V100.071H267.962V106.131ZM273.675 100.347V97.4909H274.911V106.131H273.915V105.579L273.999 105.027H273.879C273.531 105.747 272.799 106.239 271.755 106.239C270.183 106.239 269.259 105.027 269.259 103.107C269.259 101.175 270.195 99.9509 271.767 99.9509C272.811 99.9509 273.543 100.455 273.879 101.175H273.999L273.915 100.755L273.675 100.347ZM272.115 105.291C273.123 105.291 273.699 104.487 273.699 103.095C273.699 101.667 273.123 100.899 272.115 100.899C271.071 100.899 270.519 101.715 270.519 103.095C270.519 104.475 271.095 105.291 272.115 105.291ZM278.934 99.9509C280.794 99.9509 281.826 101.127 281.826 103.095C281.826 105.063 280.794 106.239 278.934 106.239C277.074 106.239 276.042 105.063 276.042 103.095C276.042 101.127 277.098 99.9509 278.934 99.9509ZM278.946 105.303C280.014 105.303 280.59 104.487 280.59 103.095C280.59 101.691 280.014 100.887 278.946 100.887C277.854 100.887 277.266 101.703 277.266 103.095C277.266 104.487 277.854 105.303 278.946 105.303ZM285.416 106.239C283.784 106.239 282.896 105.615 282.752 104.367H283.94C284.072 105.075 284.576 105.423 285.452 105.423C286.28 105.423 286.832 105.075 286.832 104.487C286.832 104.019 286.472 103.719 285.74 103.575L284.504 103.359C283.436 103.155 282.86 102.579 282.86 101.775C282.86 100.671 283.82 99.9509 285.404 99.9509C286.904 99.9509 287.828 100.587 287.936 101.775H286.748C286.664 101.103 286.184 100.767 285.332 100.767C284.516 100.767 284.024 101.115 284.024 101.607C284.024 102.015 284.384 102.291 285.092 102.435L286.292 102.651C287.48 102.879 288.068 103.443 288.068 104.319C288.068 105.483 287.036 106.239 285.416 106.239Z" fill="#3A3A3A"/>
</svg>
