<svg width="329" height="126" viewBox="0 0 329 126" fill="none" xmlns="http://www.w3.org/2000/svg">
<path d="M26.297 5.09184H29.625L33.129 15.7478V16.1318H30.825L30.217 14.2438H25.673L25.081 16.1318H22.809V15.7638L26.297 5.09184ZM27.609 8.05184L26.249 12.4198H29.641L28.249 8.05184L28.089 6.96384H27.769L27.609 8.05184ZM38.8033 7.82784C40.6433 7.82784 41.6673 8.83584 41.6673 10.6118V16.1318H39.4113V11.0918C39.4113 10.0998 38.9633 9.60384 38.0513 9.60384C37.0113 9.60384 36.3393 10.2598 36.3393 11.3958V16.1318H34.0833V8.00384H35.8593V8.62784L35.6993 9.37984H35.8913C36.3393 8.48384 37.3313 7.82784 38.8033 7.82784ZM47.4776 14.4518C47.7656 14.4518 48.0856 14.4038 48.4536 14.3238V16.0838C47.8936 16.2278 47.3176 16.2918 46.7256 16.2918C44.8536 16.2918 43.9256 15.4118 43.9256 13.6358V12.6758V9.53984H42.6136V8.00384H43.9256V5.82784H46.1976V8.00384H48.4216V9.53984H46.1976V12.5318V13.2518C46.1976 14.0518 46.6296 14.4518 47.4776 14.4518ZM57.1445 11.9398V12.4358H51.6405C51.7045 13.9078 52.2805 14.6438 53.3685 14.6438C54.2325 14.6438 54.7605 14.2598 54.9525 13.4758H57.1125C56.8565 15.2038 55.4965 16.2918 53.2565 16.2918C50.7125 16.2918 49.3205 14.7878 49.3205 12.1158C49.3205 9.42784 50.8405 7.82784 53.3845 7.82784C55.8325 7.82784 57.1445 9.26784 57.1445 11.9398ZM53.3205 9.37984C52.3925 9.37984 51.8485 9.95584 51.6885 11.1238H54.9045C54.7605 9.95584 54.2325 9.37984 53.3205 9.37984ZM61.823 16.2918C59.519 16.2918 58.287 15.4438 58.127 13.7318H60.255C60.415 14.4838 60.975 14.8678 61.919 14.8678C62.799 14.8678 63.359 14.5318 63.359 13.9078C63.359 13.4278 62.927 13.1078 62.063 12.9318L60.527 12.6598C59.039 12.3558 58.239 11.5398 58.239 10.4358C58.239 8.85184 59.599 7.82784 61.855 7.82784C64.047 7.82784 65.295 8.73984 65.407 10.3398H63.279C63.167 9.61984 62.655 9.26784 61.711 9.26784C60.863 9.26784 60.351 9.60384 60.351 10.1158C60.351 10.5478 60.783 10.8358 61.647 11.0118L63.135 11.2678C64.783 11.6038 65.615 12.3558 65.615 13.5558C65.615 15.2358 64.127 16.2918 61.823 16.2918ZM75.9588 8.11584V4.61184H78.2308V16.1318H76.4548V15.4758L76.6148 14.7238H76.4068C75.9428 15.6358 74.9988 16.2918 73.6068 16.2918C71.5108 16.2918 70.2468 14.7398 70.2468 12.0678C70.2468 9.39584 71.5268 7.82784 73.6228 7.82784C74.9508 7.82784 75.8788 8.35584 76.4068 9.41184H76.6148L76.4548 8.75584L75.9588 8.11584ZM74.2948 14.5798C75.3828 14.5798 75.9908 13.6998 75.9908 12.0518C75.9908 10.3718 75.4308 9.53984 74.2948 9.53984C73.1588 9.53984 72.5668 10.4358 72.5668 12.0518C72.5668 13.6678 73.1588 14.5798 74.2948 14.5798ZM87.2545 11.9398V12.4358H81.7505C81.8145 13.9078 82.3905 14.6438 83.4785 14.6438C84.3425 14.6438 84.8705 14.2598 85.0625 13.4758H87.2225C86.9665 15.2038 85.6065 16.2918 83.3665 16.2918C80.8225 16.2918 79.4305 14.7878 79.4305 12.1158C79.4305 9.42784 80.9505 7.82784 83.4945 7.82784C85.9425 7.82784 87.2545 9.26784 87.2545 11.9398ZM83.4305 9.37984C82.5025 9.37984 81.9585 9.95584 81.7985 11.1238H85.0145C84.8705 9.95584 84.3425 9.37984 83.4305 9.37984ZM99.8095 11.9398V12.4358H94.3055C94.3695 13.9078 94.9455 14.6438 96.0335 14.6438C96.8975 14.6438 97.4255 14.2598 97.6175 13.4758H99.7775C99.5215 15.2038 98.1615 16.2918 95.9215 16.2918C93.3775 16.2918 91.9855 14.7878 91.9855 12.1158C91.9855 9.42784 93.5055 7.82784 96.0495 7.82784C98.4975 7.82784 99.8095 9.26784 99.8095 11.9398ZM95.9855 9.37984C95.0575 9.37984 94.5135 9.95584 94.3535 11.1238H97.5695C97.4255 9.95584 96.8975 9.37984 95.9855 9.37984ZM105.832 7.82784C107.672 7.82784 108.696 8.83584 108.696 10.6118V16.1318H106.44V11.0918C106.44 10.0998 105.992 9.60384 105.08 9.60384C104.04 9.60384 103.368 10.2598 103.368 11.3958V16.1318H101.112V8.00384H102.888V8.62784L102.728 9.37984H102.92C103.368 8.48384 104.36 7.82784 105.832 7.82784ZM114.506 14.4518C114.794 14.4518 115.114 14.4038 115.482 14.3238V16.0838C114.922 16.2278 114.346 16.2918 113.754 16.2918C111.882 16.2918 110.954 15.4118 110.954 13.6358V12.6758V9.53984H109.642V8.00384H110.954V5.82784H113.226V8.00384H115.45V9.53984H113.226V12.5318V13.2518C113.226 14.0518 113.658 14.4518 114.506 14.4518ZM121.033 7.82784C121.465 7.82784 121.833 7.89184 122.121 8.01984V10.1318C121.753 10.0198 121.385 9.95584 121.049 9.95584C119.769 9.95584 119.001 10.8198 119.001 12.2438V16.1318H116.745V8.00384H118.521V8.61184L118.345 9.60384H118.553C118.873 8.56384 119.753 7.82784 121.033 7.82784ZM130.56 11.9398V12.4358H125.056C125.12 13.9078 125.696 14.6438 126.784 14.6438C127.648 14.6438 128.176 14.2598 128.368 13.4758H130.528C130.272 15.2038 128.912 16.2918 126.672 16.2918C124.128 16.2918 122.736 14.7878 122.736 12.1158C122.736 9.42784 124.256 7.82784 126.8 7.82784C129.248 7.82784 130.56 9.26784 130.56 11.9398ZM126.736 9.37984C125.808 9.37984 125.264 9.95584 125.104 11.1238H128.32C128.176 9.95584 127.648 9.37984 126.736 9.37984ZM137.815 8.62784V8.00384H139.703V15.6038C139.703 17.9238 138.343 19.2358 135.591 19.2358C133.207 19.2358 131.863 18.1798 131.719 16.3238H133.975C134.087 17.1558 134.647 17.6678 135.607 17.6678C136.711 17.6678 137.287 17.0278 137.335 15.7638L137.815 14.9798L137.991 14.2918H137.799C137.335 15.2038 136.375 15.8758 134.967 15.8758C132.839 15.8758 131.639 14.3718 131.639 11.8278C131.639 9.33184 132.839 7.82784 134.967 7.82784C136.327 7.82784 137.255 8.33984 137.783 9.36384H137.991L137.815 8.62784ZM137.367 11.8438C137.367 10.3078 136.759 9.42784 135.671 9.42784C134.567 9.42784 133.959 10.3238 133.959 11.8438C133.959 13.3798 134.583 14.2758 135.671 14.2758C136.759 14.2758 137.367 13.4278 137.367 11.8438ZM144.771 7.82784C147.251 7.82784 148.483 8.86784 148.483 10.9478V16.1318H146.723V15.4918L146.899 14.7238H146.675C146.115 15.7638 145.123 16.2918 143.667 16.2918C141.875 16.2918 140.867 15.4278 140.867 14.0358C140.867 12.6118 141.763 11.7958 143.891 11.5398L146.227 11.2678V10.8518C146.227 9.87584 145.731 9.37984 144.723 9.37984C143.747 9.37984 143.251 9.84384 143.235 10.7718H141.027C141.043 8.86784 142.403 7.82784 144.771 7.82784ZM144.275 14.7558C145.411 14.7558 146.227 14.0518 146.227 13.0118V12.5798L144.339 12.7878C143.523 12.8998 143.107 13.2358 143.107 13.7958C143.107 14.4358 143.491 14.7558 144.275 14.7558ZM154.237 7.82784C154.669 7.82784 155.037 7.89184 155.325 8.01984V10.1318C154.957 10.0198 154.589 9.95584 154.253 9.95584C152.973 9.95584 152.205 10.8198 152.205 12.2438V16.1318H149.949V8.00384H151.725V8.61184L151.549 9.60384H151.757C152.077 8.56384 152.957 7.82784 154.237 7.82784ZM163.525 7.82784C166.005 7.82784 167.237 8.86784 167.237 10.9478V16.1318H165.477V15.4918L165.653 14.7238H165.429C164.869 15.7638 163.877 16.2918 162.421 16.2918C160.629 16.2918 159.621 15.4278 159.621 14.0358C159.621 12.6118 160.517 11.7958 162.645 11.5398L164.981 11.2678V10.8518C164.981 9.87584 164.485 9.37984 163.477 9.37984C162.501 9.37984 162.005 9.84384 161.989 10.7718H159.781C159.797 8.86784 161.157 7.82784 163.525 7.82784ZM163.029 14.7558C164.165 14.7558 164.981 14.0518 164.981 13.0118V12.5798L163.093 12.7878C162.277 12.8998 161.861 13.2358 161.861 13.7958C161.861 14.4358 162.245 14.7558 163.029 14.7558ZM179.956 11.9398V12.4358H174.452C174.516 13.9078 175.092 14.6438 176.18 14.6438C177.044 14.6438 177.572 14.2598 177.764 13.4758H179.924C179.668 15.2038 178.308 16.2918 176.068 16.2918C173.524 16.2918 172.132 14.7878 172.132 12.1158C172.132 9.42784 173.652 7.82784 176.196 7.82784C178.644 7.82784 179.956 9.26784 179.956 11.9398ZM176.132 9.37984C175.204 9.37984 174.66 9.95584 174.5 11.1238H177.716C177.572 9.95584 177.044 9.37984 176.132 9.37984ZM185.978 7.82784C187.818 7.82784 188.842 8.83584 188.842 10.6118V16.1318H186.586V11.0918C186.586 10.0998 186.138 9.60384 185.226 9.60384C184.186 9.60384 183.514 10.2598 183.514 11.3958V16.1318H181.258V8.00384H183.034V8.62784L182.874 9.37984H183.066C183.514 8.48384 184.506 7.82784 185.978 7.82784ZM194.221 16.3078C191.597 16.3078 190.109 14.7558 190.109 12.0678C190.109 9.37984 191.613 7.84384 194.237 7.84384C196.525 7.84384 197.997 9.01184 198.141 11.0118H195.837C195.661 10.0038 195.117 9.49184 194.205 9.49184C193.005 9.49184 192.413 10.3558 192.413 12.0678C192.413 13.7318 193.037 14.6278 194.205 14.6278C195.101 14.6278 195.645 14.1318 195.837 13.1238H198.141C197.997 15.1078 196.541 16.3078 194.221 16.3078ZM203.138 16.2918C200.562 16.2918 199.074 14.7398 199.074 12.0678C199.074 9.37984 200.562 7.82784 203.138 7.82784C205.714 7.82784 207.186 9.37984 207.186 12.0678C207.186 14.7398 205.746 16.2918 203.138 16.2918ZM203.138 14.5958C204.322 14.5958 204.914 13.7478 204.914 12.0678C204.914 10.3718 204.322 9.52384 203.138 9.52384C201.97 9.52384 201.33 10.4198 201.33 12.0678C201.33 13.6838 201.97 14.5958 203.138 14.5958ZM217.714 7.84384C219.378 7.84384 220.338 8.80384 220.338 10.4518V16.1318H218.13V10.8678C218.13 9.98784 217.746 9.55584 216.978 9.55584C216.082 9.55584 215.506 10.1638 215.506 11.2038V16.1318H213.298V10.8678C213.298 9.98784 212.914 9.55584 212.13 9.55584C211.234 9.55584 210.674 10.1638 210.674 11.2038V16.1318H208.466V8.00384H210.146V8.64384L209.986 9.42784H210.178C210.578 8.51584 211.474 7.84384 212.802 7.84384C213.794 7.84384 214.498 8.19584 214.914 8.88384L214.77 9.50784H214.946C215.394 8.53184 216.306 7.84384 217.714 7.84384ZM229.406 11.9398V12.4358H223.902C223.966 13.9078 224.542 14.6438 225.63 14.6438C226.494 14.6438 227.022 14.2598 227.214 13.4758H229.374C229.118 15.2038 227.758 16.2918 225.518 16.2918C222.974 16.2918 221.582 14.7878 221.582 12.1158C221.582 9.42784 223.102 7.82784 225.646 7.82784C228.094 7.82784 229.406 9.26784 229.406 11.9398ZM225.582 9.37984C224.654 9.37984 224.11 9.95584 223.95 11.1238H227.166C227.022 9.95584 226.494 9.37984 225.582 9.37984ZM235.428 7.82784C237.268 7.82784 238.292 8.83584 238.292 10.6118V16.1318H236.036V11.0918C236.036 10.0998 235.588 9.60384 234.676 9.60384C233.636 9.60384 232.964 10.2598 232.964 11.3958V16.1318H230.708V8.00384H232.484V8.62784L232.324 9.37984H232.516C232.964 8.48384 233.956 7.82784 235.428 7.82784ZM245.271 8.11584V4.61184H247.543V16.1318H245.767V15.4758L245.927 14.7238H245.719C245.255 15.6358 244.311 16.2918 242.919 16.2918C240.823 16.2918 239.559 14.7398 239.559 12.0678C239.559 9.39584 240.839 7.82784 242.935 7.82784C244.263 7.82784 245.191 8.35584 245.719 9.41184H245.927L245.767 8.75584L245.271 8.11584ZM243.607 14.5798C244.695 14.5798 245.303 13.6998 245.303 12.0518C245.303 10.3718 244.743 9.53984 243.607 9.53984C242.471 9.53984 241.879 10.4358 241.879 12.0518C241.879 13.6678 242.471 14.5798 243.607 14.5798ZM252.597 7.82784C255.077 7.82784 256.309 8.86784 256.309 10.9478V16.1318H254.549V15.4918L254.725 14.7238H254.501C253.941 15.7638 252.949 16.2918 251.493 16.2918C249.701 16.2918 248.693 15.4278 248.693 14.0358C248.693 12.6118 249.589 11.7958 251.717 11.5398L254.053 11.2678V10.8518C254.053 9.87584 253.557 9.37984 252.549 9.37984C251.573 9.37984 251.077 9.84384 251.061 10.7718H248.853C248.869 8.86784 250.229 7.82784 252.597 7.82784ZM252.101 14.7558C253.237 14.7558 254.053 14.0518 254.053 13.0118V12.5798L252.165 12.7878C251.349 12.8998 250.933 13.2358 250.933 13.7958C250.933 14.4358 251.317 14.7558 252.101 14.7558ZM266.052 7.84384C268.212 7.84384 269.396 9.37984 269.396 12.0678C269.396 14.7718 268.196 16.3078 266.036 16.3078C264.708 16.3078 263.78 15.7798 263.252 14.7238H263.044L263.204 15.3798L263.7 16.0198V19.0918H261.428V8.00384H263.204V8.65984L263.044 9.41184H263.252C263.716 8.49984 264.66 7.84384 266.052 7.84384ZM265.364 14.5958C266.5 14.5958 267.092 13.6998 267.092 12.0838C267.092 10.4838 266.468 9.55584 265.364 9.55584C264.276 9.55584 263.652 10.4358 263.652 12.0838C263.652 13.7318 264.26 14.5958 265.364 14.5958ZM274.273 7.82784C276.753 7.82784 277.985 8.86784 277.985 10.9478V16.1318H276.225V15.4918L276.401 14.7238H276.177C275.617 15.7638 274.625 16.2918 273.169 16.2918C271.377 16.2918 270.369 15.4278 270.369 14.0358C270.369 12.6118 271.265 11.7958 273.393 11.5398L275.729 11.2678V10.8518C275.729 9.87584 275.233 9.37984 274.225 9.37984C273.249 9.37984 272.753 9.84384 272.737 10.7718H270.529C270.545 8.86784 271.905 7.82784 274.273 7.82784ZM273.777 14.7558C274.913 14.7558 275.729 14.0518 275.729 13.0118V12.5798L273.841 12.7878C273.025 12.8998 272.609 13.2358 272.609 13.7958C272.609 14.4358 272.993 14.7558 273.777 14.7558ZM283.739 7.82784C284.171 7.82784 284.539 7.89184 284.827 8.01984V10.1318C284.459 10.0198 284.091 9.95584 283.755 9.95584C282.475 9.95584 281.707 10.8198 281.707 12.2438V16.1318H279.451V8.00384H281.227V8.61184L281.051 9.60384H281.259C281.579 8.56384 282.459 7.82784 283.739 7.82784ZM289.329 7.82784C291.809 7.82784 293.041 8.86784 293.041 10.9478V16.1318H291.281V15.4918L291.457 14.7238H291.233C290.673 15.7638 289.681 16.2918 288.225 16.2918C286.433 16.2918 285.425 15.4278 285.425 14.0358C285.425 12.6118 286.321 11.7958 288.449 11.5398L290.785 11.2678V10.8518C290.785 9.87584 290.289 9.37984 289.281 9.37984C288.305 9.37984 287.809 9.84384 287.793 10.7718H285.585C285.601 8.86784 286.961 7.82784 289.329 7.82784ZM288.833 14.7558C289.969 14.7558 290.785 14.0518 290.785 13.0118V12.5798L288.897 12.7878C288.081 12.8998 287.665 13.2358 287.665 13.7958C287.665 14.4358 288.049 14.7558 288.833 14.7558ZM301.999 16.2918C299.423 16.2918 297.935 14.7398 297.935 12.0678C297.935 9.37984 299.423 7.82784 301.999 7.82784C304.575 7.82784 306.047 9.37984 306.047 12.0678C306.047 14.7398 304.607 16.2918 301.999 16.2918ZM301.999 14.5958C303.183 14.5958 303.775 13.7478 303.775 12.0678C303.775 10.3718 303.183 9.52384 301.999 9.52384C300.831 9.52384 300.191 10.4198 300.191 12.0678C300.191 13.6838 300.831 14.5958 301.999 14.5958ZM16.2988 38.3078C13.6748 38.3078 12.1868 36.7558 12.1868 34.0678C12.1868 31.3798 13.6908 29.8438 16.3148 29.8438C18.6028 29.8438 20.0748 31.0118 20.2188 33.0118H17.9148C17.7388 32.0038 17.1948 31.4918 16.2828 31.4918C15.0828 31.4918 14.4908 32.3558 14.4908 34.0678C14.4908 35.7318 15.1148 36.6278 16.2828 36.6278C17.1788 36.6278 17.7228 36.1318 17.9148 35.1238H20.2188C20.0748 37.1078 18.6188 38.3078 16.2988 38.3078ZM23.7918 38.1318H21.5198V26.6118H23.7918V38.1318ZM27.8505 28.7878H25.4665V26.6118H27.8505V28.7878ZM27.8025 38.1318H25.5305V30.0038H27.8025V38.1318ZM36.9839 33.9398V34.4358H31.4799C31.5439 35.9078 32.1199 36.6438 33.2079 36.6438C34.0719 36.6438 34.5999 36.2598 34.7919 35.4758H36.9519C36.6959 37.2038 35.3359 38.2918 33.0959 38.2918C30.5519 38.2918 29.1599 36.7878 29.1599 34.1158C29.1599 31.4278 30.6799 29.8278 33.2239 29.8278C35.6719 29.8278 36.9839 31.2678 36.9839 33.9398ZM33.1599 31.3798C32.2319 31.3798 31.6879 31.9558 31.5279 33.1238H34.7439C34.5999 31.9558 34.0719 31.3798 33.1599 31.3798ZM43.0064 29.8278C44.8464 29.8278 45.8704 30.8358 45.8704 32.6118V38.1318H43.6144V33.0918C43.6144 32.0998 43.1664 31.6038 42.2544 31.6038C41.2144 31.6038 40.5424 32.2598 40.5424 33.3958V38.1318H38.2864V30.0038H40.0624V30.6278L39.9024 31.3798H40.0944C40.5424 30.4838 41.5344 29.8278 43.0064 29.8278ZM51.6808 36.4518C51.9688 36.4518 52.2888 36.4038 52.6568 36.3238V38.0838C52.0968 38.2278 51.5208 38.2918 50.9288 38.2918C49.0568 38.2918 48.1288 37.4118 48.1288 35.6358V34.6758V31.5398H46.8168V30.0038H48.1288V27.8278H50.4008V30.0038H52.6248V31.5398H50.4008V34.5318V35.2518C50.4008 36.0518 50.8328 36.4518 51.6808 36.4518ZM61.3476 33.9398V34.4358H55.8436C55.9076 35.9078 56.4836 36.6438 57.5716 36.6438C58.4356 36.6438 58.9636 36.2598 59.1556 35.4758H61.3156C61.0596 37.2038 59.6996 38.2918 57.4596 38.2918C54.9156 38.2918 53.5236 36.7878 53.5236 34.1158C53.5236 31.4278 55.0436 29.8278 57.5876 29.8278C60.0356 29.8278 61.3476 31.2678 61.3476 33.9398ZM57.5236 31.3798C56.5956 31.3798 56.0516 31.9558 55.8916 33.1238H59.1076C58.9636 31.9558 58.4356 31.3798 57.5236 31.3798ZM62.8901 38.1318V35.5558H65.1781V37.4118C65.1781 38.6278 64.5701 39.7318 63.5621 40.3238H62.3621V40.0198C63.0981 39.5238 63.5781 38.8838 63.8181 38.1318H62.8901ZM76.0369 30.1158V26.6118H78.3089V38.1318H76.5329V37.4758L76.6929 36.7238H76.4849C76.0209 37.6358 75.0769 38.2918 73.6849 38.2918C71.5889 38.2918 70.3249 36.7398 70.3249 34.0678C70.3249 31.3958 71.6049 29.8278 73.7009 29.8278C75.0289 29.8278 75.9569 30.3558 76.4849 31.4118H76.6929L76.5329 30.7558L76.0369 30.1158ZM74.3729 36.5798C75.4609 36.5798 76.0689 35.6998 76.0689 34.0518C76.0689 32.3718 75.5089 31.5398 74.3729 31.5398C73.2369 31.5398 72.6449 32.4358 72.6449 34.0518C72.6449 35.6678 73.2369 36.5798 74.3729 36.5798ZM82.1955 28.7878H79.8115V26.6118H82.1955V28.7878ZM82.1475 38.1318H79.8755V30.0038H82.1475V38.1318ZM89.6809 30.6278V30.0038H91.5689V37.6038C91.5689 39.9238 90.2089 41.2358 87.4569 41.2358C85.0729 41.2358 83.7289 40.1798 83.5849 38.3238H85.8409C85.9529 39.1558 86.5129 39.6678 87.4729 39.6678C88.5769 39.6678 89.1529 39.0278 89.2009 37.7638L89.6809 36.9798L89.8569 36.2918H89.6649C89.2009 37.2038 88.2409 37.8758 86.8329 37.8758C84.7049 37.8758 83.5049 36.3718 83.5049 33.8278C83.5049 31.3318 84.7049 29.8278 86.8329 29.8278C88.1929 29.8278 89.1209 30.3398 89.6489 31.3638H89.8569L89.6809 30.6278ZM89.2329 33.8438C89.2329 32.3078 88.6249 31.4278 87.5369 31.4278C86.4329 31.4278 85.8249 32.3238 85.8249 33.8438C85.8249 35.3798 86.4489 36.2758 87.5369 36.2758C88.6249 36.2758 89.2329 35.4278 89.2329 33.8438ZM95.4693 28.7878H93.0853V26.6118H95.4693V28.7878ZM95.4213 38.1318H93.1493V30.0038H95.4213V38.1318ZM101.323 36.4518C101.611 36.4518 101.931 36.4038 102.299 36.3238V38.0838C101.739 38.2278 101.163 38.2918 100.571 38.2918C98.6986 38.2918 97.7706 37.4118 97.7706 35.6358V34.6758V31.5398H96.4586V30.0038H97.7706V27.8278H100.043V30.0038H102.267V31.5398H100.043V34.5318V35.2518C100.043 36.0518 100.475 36.4518 101.323 36.4518ZM110.99 33.9398V34.4358H105.486C105.55 35.9078 106.126 36.6438 107.214 36.6438C108.078 36.6438 108.606 36.2598 108.798 35.4758H110.958C110.702 37.2038 109.342 38.2918 107.102 38.2918C104.558 38.2918 103.166 36.7878 103.166 34.1158C103.166 31.4278 104.686 29.8278 107.23 29.8278C109.678 29.8278 110.99 31.2678 110.99 33.9398ZM107.166 31.3798C106.238 31.3798 105.694 31.9558 105.534 33.1238H108.75C108.606 31.9558 108.078 31.3798 107.166 31.3798ZM119.785 38.2918C117.209 38.2918 115.721 36.7398 115.721 34.0678C115.721 31.3798 117.209 29.8278 119.785 29.8278C122.361 29.8278 123.833 31.3798 123.833 34.0678C123.833 36.7398 122.393 38.2918 119.785 38.2918ZM119.785 36.5958C120.969 36.5958 121.561 35.7478 121.561 34.0678C121.561 32.3718 120.969 31.5238 119.785 31.5238C118.617 31.5238 117.977 32.4198 117.977 34.0678C117.977 35.6838 118.617 36.5958 119.785 36.5958ZM132.653 38.3078C130.029 38.3078 128.541 36.7558 128.541 34.0678C128.541 31.3798 130.045 29.8438 132.669 29.8438C134.957 29.8438 136.429 31.0118 136.573 33.0118H134.269C134.093 32.0038 133.549 31.4918 132.637 31.4918C131.437 31.4918 130.845 32.3558 130.845 34.0678C130.845 35.7318 131.469 36.6278 132.637 36.6278C133.533 36.6278 134.077 36.1318 134.269 35.1238H136.573C136.429 37.1078 134.973 38.3078 132.653 38.3078ZM141.762 29.1398H140.274V28.8198L142.066 26.6118H144.082V26.9158L141.762 29.1398ZM141.57 38.2918C138.994 38.2918 137.506 36.7398 137.506 34.0678C137.506 31.3798 138.994 29.8278 141.57 29.8278C144.146 29.8278 145.618 31.3798 145.618 34.0678C145.618 36.7398 144.178 38.2918 141.57 38.2918ZM141.57 36.5958C142.754 36.5958 143.346 35.7478 143.346 34.0678C143.346 32.3718 142.754 31.5238 141.57 31.5238C140.402 31.5238 139.762 32.4198 139.762 34.0678C139.762 35.6838 140.402 36.5958 141.57 36.5958ZM152.386 30.1158V26.6118H154.658V38.1318H152.882V37.4758L153.042 36.7238H152.834C152.37 37.6358 151.426 38.2918 150.034 38.2918C147.938 38.2918 146.674 36.7398 146.674 34.0678C146.674 31.3958 147.954 29.8278 150.05 29.8278C151.378 29.8278 152.306 30.3558 152.834 31.4118H153.042L152.882 30.7558L152.386 30.1158ZM150.722 36.5798C151.81 36.5798 152.418 35.6998 152.418 34.0518C152.418 32.3718 151.858 31.5398 150.722 31.5398C149.586 31.5398 148.994 32.4358 148.994 34.0518C148.994 35.6678 149.586 36.5798 150.722 36.5798ZM158.545 28.7878H156.161V26.6118H158.545V28.7878ZM158.497 38.1318H156.225V30.0038H158.497V38.1318ZM166.03 30.6278V30.0038H167.918V37.6038C167.918 39.9238 166.558 41.2358 163.806 41.2358C161.422 41.2358 160.078 40.1798 159.934 38.3238H162.19C162.302 39.1558 162.862 39.6678 163.822 39.6678C164.926 39.6678 165.502 39.0278 165.55 37.7638L166.03 36.9798L166.206 36.2918H166.014C165.55 37.2038 164.59 37.8758 163.182 37.8758C161.054 37.8758 159.854 36.3718 159.854 33.8278C159.854 31.3318 161.054 29.8278 163.182 29.8278C164.542 29.8278 165.47 30.3398 165.998 31.3638H166.206L166.03 30.6278ZM165.582 33.8438C165.582 32.3078 164.974 31.4278 163.886 31.4278C162.782 31.4278 162.174 32.3238 162.174 33.8438C162.174 35.3798 162.798 36.2758 163.886 36.2758C164.974 36.2758 165.582 35.4278 165.582 33.8438ZM173.243 38.2918C170.667 38.2918 169.179 36.7398 169.179 34.0678C169.179 31.3798 170.667 29.8278 173.243 29.8278C175.819 29.8278 177.291 31.3798 177.291 34.0678C177.291 36.7398 175.851 38.2918 173.243 38.2918ZM173.243 36.5958C174.427 36.5958 175.019 35.7478 175.019 34.0678C175.019 32.3718 174.427 31.5238 173.243 31.5238C172.075 31.5238 171.435 32.4198 171.435 34.0678C171.435 35.6838 172.075 36.5958 173.243 36.5958ZM187.711 30.1158V26.6118H189.983V38.1318H188.207V37.4758L188.367 36.7238H188.159C187.695 37.6358 186.751 38.2918 185.359 38.2918C183.263 38.2918 181.999 36.7398 181.999 34.0678C181.999 31.3958 183.279 29.8278 185.375 29.8278C186.703 29.8278 187.631 30.3558 188.159 31.4118H188.367L188.207 30.7558L187.711 30.1158ZM186.047 36.5798C187.135 36.5798 187.743 35.6998 187.743 34.0518C187.743 32.3718 187.183 31.5398 186.047 31.5398C184.911 31.5398 184.319 32.4358 184.319 34.0518C184.319 35.6678 184.911 36.5798 186.047 36.5798ZM199.007 33.9398V34.4358H193.503C193.567 35.9078 194.143 36.6438 195.231 36.6438C196.095 36.6438 196.623 36.2598 196.815 35.4758H198.975C198.719 37.2038 197.359 38.2918 195.119 38.2918C192.575 38.2918 191.183 36.7878 191.183 34.1158C191.183 31.4278 192.703 29.8278 195.247 29.8278C197.695 29.8278 199.007 31.2678 199.007 33.9398ZM195.183 31.3798C194.255 31.3798 193.711 31.9558 193.551 33.1238H196.767C196.623 31.9558 196.095 31.3798 195.183 31.3798ZM207.85 38.3078C205.226 38.3078 203.738 36.7558 203.738 34.0678C203.738 31.3798 205.242 29.8438 207.866 29.8438C210.154 29.8438 211.626 31.0118 211.77 33.0118H209.466C209.29 32.0038 208.746 31.4918 207.834 31.4918C206.634 31.4918 206.042 32.3558 206.042 34.0678C206.042 35.7318 206.666 36.6278 207.834 36.6278C208.73 36.6278 209.274 36.1318 209.466 35.1238H211.77C211.626 37.1078 210.17 38.3078 207.85 38.3078ZM216.767 38.2918C214.191 38.2918 212.703 36.7398 212.703 34.0678C212.703 31.3798 214.191 29.8278 216.767 29.8278C219.343 29.8278 220.815 31.3798 220.815 34.0678C220.815 36.7398 219.375 38.2918 216.767 38.2918ZM216.767 36.5958C217.951 36.5958 218.543 35.7478 218.543 34.0678C218.543 32.3718 217.951 31.5238 216.767 31.5238C215.599 31.5238 214.959 32.4198 214.959 34.0678C214.959 35.6838 215.599 36.5958 216.767 36.5958ZM226.815 29.8278C228.655 29.8278 229.679 30.8358 229.679 32.6118V38.1318H227.423V33.0918C227.423 32.0998 226.975 31.6038 226.063 31.6038C225.023 31.6038 224.351 32.2598 224.351 33.3958V38.1318H222.095V30.0038H223.871V30.6278L223.711 31.3798H223.903C224.351 30.4838 225.343 29.8278 226.815 29.8278ZM235.201 28.1958C234.481 28.1958 234.113 28.5478 234.113 29.2678V30.0038H235.969V31.5398H234.113V38.1318H231.825V31.5398H230.673V30.0038H231.825V29.0438C231.825 27.3158 232.657 26.4518 234.561 26.4358C235.185 26.4518 235.681 26.5158 236.065 26.6278V28.3398C235.777 28.2438 235.489 28.1958 235.201 28.1958ZM239.379 28.7878H236.995V26.6118H239.379V28.7878ZM239.331 38.1318H237.059V30.0038H239.331V38.1318ZM245.2 29.8278C245.632 29.8278 246 29.8918 246.288 30.0198V32.1318C245.92 32.0198 245.552 31.9558 245.216 31.9558C243.936 31.9558 243.168 32.8198 243.168 34.2438V38.1318H240.912V30.0038H242.688V30.6118L242.512 31.6038H242.72C243.04 30.5638 243.92 29.8278 245.2 29.8278ZM256.5 29.8438C258.164 29.8438 259.124 30.8038 259.124 32.4518V38.1318H256.916V32.8678C256.916 31.9878 256.532 31.5558 255.764 31.5558C254.868 31.5558 254.292 32.1638 254.292 33.2038V38.1318H252.084V32.8678C252.084 31.9878 251.7 31.5558 250.916 31.5558C250.02 31.5558 249.46 32.1638 249.46 33.2038V38.1318H247.252V30.0038H248.932V30.6438L248.772 31.4278H248.964C249.364 30.5158 250.26 29.8438 251.588 29.8438C252.58 29.8438 253.284 30.1958 253.7 30.8838L253.556 31.5078H253.732C254.18 30.5318 255.092 29.8438 256.5 29.8438ZM264.176 29.8278C266.656 29.8278 267.888 30.8678 267.888 32.9478V38.1318H266.128V37.4918L266.304 36.7238H266.08C265.52 37.7638 264.528 38.2918 263.072 38.2918C261.28 38.2918 260.272 37.4278 260.272 36.0358C260.272 34.6118 261.168 33.7958 263.296 33.5398L265.632 33.2678V32.8518C265.632 31.8758 265.136 31.3798 264.128 31.3798C263.152 31.3798 262.656 31.8438 262.64 32.7718H260.432C260.448 30.8678 261.808 29.8278 264.176 29.8278ZM263.68 36.7558C264.816 36.7558 265.632 36.0518 265.632 35.0118V34.5798L263.744 34.7878C262.928 34.8998 262.512 35.2358 262.512 35.7958C262.512 36.4358 262.896 36.7558 263.68 36.7558ZM273.226 36.6278C274.122 36.6278 274.666 36.1318 274.858 35.1238H277.162C277.034 36.9318 275.802 38.0998 273.818 38.2758L273.274 39.0438H273.514C274.714 39.0438 275.306 39.4758 275.306 40.3238C275.306 41.2838 274.442 41.8438 272.986 41.8438C272.362 41.8438 271.834 41.7798 271.418 41.6518L271.402 40.7078C271.85 40.8678 272.346 40.9478 272.89 40.9478C273.642 40.9478 274.01 40.7558 273.994 40.3558C274.01 40.0518 273.722 39.8918 273.098 39.8918H271.77V39.6198L272.698 38.2918C270.41 38.0838 269.13 36.5478 269.13 34.0678C269.13 31.3798 270.634 29.8438 273.258 29.8438C275.546 29.8438 277.018 31.0118 277.162 33.0118H274.858C274.682 32.0038 274.138 31.4918 273.226 31.4918C272.026 31.4918 271.434 32.3558 271.434 34.0678C271.434 35.7318 272.058 36.6278 273.226 36.6278ZM280.383 29.1398H279.327C279.199 28.0358 279.759 27.1238 280.911 27.1238C281.279 27.1238 281.647 27.2518 282.031 27.5078C282.415 27.7638 282.687 27.8918 282.847 27.8918C283.199 27.8918 283.343 27.6518 283.295 27.1878H284.431C284.559 28.3398 284.047 29.2198 282.943 29.2198C282.543 29.2198 282.143 29.0918 281.727 28.8358C281.327 28.5638 281.039 28.4358 280.895 28.4358C280.511 28.4358 280.335 28.6758 280.383 29.1398ZM281.903 29.8278C284.383 29.8278 285.615 30.8678 285.615 32.9478V38.1318H283.855V37.4918L284.031 36.7238H283.807C283.247 37.7638 282.255 38.2918 280.799 38.2918C279.007 38.2918 277.999 37.4278 277.999 36.0358C277.999 34.6118 278.895 33.7958 281.023 33.5398L283.359 33.2678V32.8518C283.359 31.8758 282.863 31.3798 281.855 31.3798C280.879 31.3798 280.383 31.8438 280.367 32.7718H278.159C278.175 30.8678 279.535 29.8278 281.903 29.8278ZM281.407 36.7558C282.543 36.7558 283.359 36.0518 283.359 35.0118V34.5798L281.471 34.7878C280.655 34.8998 280.239 35.2358 280.239 35.7958C280.239 36.4358 280.623 36.7558 281.407 36.7558ZM290.921 38.2918C288.345 38.2918 286.857 36.7398 286.857 34.0678C286.857 31.3798 288.345 29.8278 290.921 29.8278C293.497 29.8278 294.969 31.3798 294.969 34.0678C294.969 36.7398 293.529 38.2918 290.921 38.2918ZM290.921 36.5958C292.105 36.5958 292.697 35.7478 292.697 34.0678C292.697 32.3718 292.105 31.5238 290.921 31.5238C289.753 31.5238 289.113 32.4198 289.113 34.0678C289.113 35.6838 289.753 36.5958 290.921 36.5958ZM305.389 30.1158V26.6118H307.661V38.1318H305.885V37.4758L306.045 36.7238H305.837C305.373 37.6358 304.429 38.2918 303.037 38.2918C300.941 38.2918 299.677 36.7398 299.677 34.0678C299.677 31.3958 300.957 29.8278 303.053 29.8278C304.381 29.8278 305.309 30.3558 305.837 31.4118H306.045L305.885 30.7558L305.389 30.1158ZM303.725 36.5798C304.813 36.5798 305.421 35.6998 305.421 34.0518C305.421 32.3718 304.861 31.5398 303.725 31.5398C302.589 31.5398 301.997 32.4358 301.997 34.0518C301.997 35.6678 302.589 36.5798 303.725 36.5798ZM312.925 38.2918C310.349 38.2918 308.861 36.7398 308.861 34.0678C308.861 31.3798 310.349 29.8278 312.925 29.8278C315.501 29.8278 316.973 31.3798 316.973 34.0678C316.973 36.7398 315.533 38.2918 312.925 38.2918ZM312.925 36.5958C314.109 36.5958 314.701 35.7478 314.701 34.0678C314.701 32.3718 314.109 31.5238 312.925 31.5238C311.757 31.5238 311.117 32.4198 311.117 34.0678C311.117 35.6838 311.757 36.5958 312.925 36.5958ZM95.476 51.8438C97.636 51.8438 98.82 53.3798 98.82 56.0678C98.82 58.7718 97.62 60.3078 95.46 60.3078C94.132 60.3078 93.204 59.7798 92.676 58.7238H92.468L92.628 59.3798L93.124 60.0198V63.0918H90.852V52.0038H92.628V52.6598L92.468 53.4118H92.676C93.14 52.4998 94.084 51.8438 95.476 51.8438ZM94.788 58.5958C95.924 58.5958 96.516 57.6998 96.516 56.0838C96.516 54.4838 95.892 53.5558 94.788 53.5558C93.7 53.5558 93.076 54.4358 93.076 56.0838C93.076 57.7318 93.684 58.5958 94.788 58.5958ZM107.714 55.9398V56.4358H102.21C102.274 57.9078 102.85 58.6438 103.938 58.6438C104.802 58.6438 105.33 58.2598 105.522 57.4758H107.682C107.426 59.2038 106.066 60.2918 103.826 60.2918C101.282 60.2918 99.8899 58.7878 99.8899 56.1158C99.8899 53.4278 101.41 51.8278 103.954 51.8278C106.402 51.8278 107.714 53.2678 107.714 55.9398ZM103.89 53.3798C102.962 53.3798 102.418 53.9558 102.258 55.1238H105.474C105.33 53.9558 104.802 53.3798 103.89 53.3798ZM114.504 52.1158V48.6118H116.776V60.1318H115V59.4758L115.16 58.7238H114.952C114.488 59.6358 113.544 60.2918 112.152 60.2918C110.056 60.2918 108.792 58.7398 108.792 56.0678C108.792 53.3958 110.072 51.8278 112.168 51.8278C113.496 51.8278 114.424 52.3558 114.952 53.4118H115.16L115 52.7558L114.504 52.1158ZM112.84 58.5798C113.928 58.5798 114.536 57.6998 114.536 56.0518C114.536 54.3718 113.976 53.5398 112.84 53.5398C111.704 53.5398 111.112 54.4358 111.112 56.0518C111.112 57.6678 111.704 58.5798 112.84 58.5798ZM120.663 50.7878H118.279V48.6118H120.663V50.7878ZM120.615 60.1318H118.343V52.0038H120.615V60.1318ZM127.684 52.1158V48.6118H129.956V60.1318H128.18V59.4758L128.34 58.7238H128.132C127.668 59.6358 126.724 60.2918 125.332 60.2918C123.236 60.2918 121.972 58.7398 121.972 56.0678C121.972 53.3958 123.252 51.8278 125.348 51.8278C126.676 51.8278 127.604 52.3558 128.132 53.4118H128.34L128.18 52.7558L127.684 52.1158ZM126.02 58.5798C127.108 58.5798 127.716 57.6998 127.716 56.0518C127.716 54.3718 127.156 53.5398 126.02 53.5398C124.884 53.5398 124.292 54.4358 124.292 56.0518C124.292 57.6678 124.884 58.5798 126.02 58.5798ZM135.22 60.2918C132.644 60.2918 131.156 58.7398 131.156 56.0678C131.156 53.3798 132.644 51.8278 135.22 51.8278C137.796 51.8278 139.268 53.3798 139.268 56.0678C139.268 58.7398 137.828 60.2918 135.22 60.2918ZM135.22 58.5958C136.404 58.5958 136.996 57.7478 136.996 56.0678C136.996 54.3718 136.404 53.5238 135.22 53.5238C134.052 53.5238 133.412 54.4198 133.412 56.0678C133.412 57.6838 134.052 58.5958 135.22 58.5958ZM151.801 55.9398V56.4358H146.297C146.361 57.9078 146.937 58.6438 148.025 58.6438C148.889 58.6438 149.417 58.2598 149.609 57.4758H151.769C151.513 59.2038 150.153 60.2918 147.913 60.2918C145.369 60.2918 143.977 58.7878 143.977 56.1158C143.977 53.4278 145.497 51.8278 148.041 51.8278C150.489 51.8278 151.801 53.2678 151.801 55.9398ZM147.977 53.3798C147.049 53.3798 146.505 53.9558 146.345 55.1238H149.561C149.417 53.9558 148.889 53.3798 147.977 53.3798ZM157.823 51.8278C159.663 51.8278 160.687 52.8358 160.687 54.6118V60.1318H158.431V55.0918C158.431 54.0998 157.983 53.6038 157.071 53.6038C156.031 53.6038 155.359 54.2598 155.359 55.3958V60.1318H153.103V52.0038H154.879V52.6278L154.719 53.3798H154.911C155.359 52.4838 156.351 51.8278 157.823 51.8278ZM166.92 60.1318H164.216L161.4 52.3398V52.0038H163.672L165.352 56.9638L165.464 57.8278H165.72L165.832 56.9638L167.496 52.0038H169.736V52.3238L166.92 60.1318ZM173.121 50.7878H170.737V48.6118H173.121V50.7878ZM173.073 60.1318H170.801V52.0038H173.073V60.1318ZM178.238 51.8278C180.718 51.8278 181.95 52.8678 181.95 54.9478V60.1318H180.19V59.4918L180.366 58.7238H180.142C179.582 59.7638 178.59 60.2918 177.134 60.2918C175.342 60.2918 174.334 59.4278 174.334 58.0358C174.334 56.6118 175.23 55.7958 177.358 55.5398L179.694 55.2678V54.8518C179.694 53.8758 179.198 53.3798 178.19 53.3798C177.214 53.3798 176.718 53.8438 176.702 54.7718H174.494C174.51 52.8678 175.87 51.8278 178.238 51.8278ZM177.742 58.7558C178.878 58.7558 179.694 58.0518 179.694 57.0118V56.5798L177.806 56.7878C176.99 56.8998 176.574 57.2358 176.574 57.7958C176.574 58.4358 176.958 58.7558 177.742 58.7558ZM188.904 52.1158V48.6118H191.176V60.1318H189.4V59.4758L189.56 58.7238H189.352C188.888 59.6358 187.944 60.2918 186.552 60.2918C184.456 60.2918 183.192 58.7398 183.192 56.0678C183.192 53.3958 184.472 51.8278 186.568 51.8278C187.896 51.8278 188.824 52.3558 189.352 53.4118H189.56L189.4 52.7558L188.904 52.1158ZM187.24 58.5798C188.328 58.5798 188.936 57.6998 188.936 56.0518C188.936 54.3718 188.376 53.5398 187.24 53.5398C186.104 53.5398 185.512 54.4358 185.512 56.0518C185.512 57.6678 186.104 58.5798 187.24 58.5798ZM196.44 60.2918C193.864 60.2918 192.376 58.7398 192.376 56.0678C192.376 53.3798 193.864 51.8278 196.44 51.8278C199.016 51.8278 200.488 53.3798 200.488 56.0678C200.488 58.7398 199.048 60.2918 196.44 60.2918ZM196.44 58.5958C197.624 58.5958 198.216 57.7478 198.216 56.0678C198.216 54.3718 197.624 53.5238 196.44 53.5238C195.272 53.5238 194.632 54.4198 194.632 56.0678C194.632 57.6838 195.272 58.5958 196.44 58.5958ZM209.005 51.8278C211.485 51.8278 212.717 52.8678 212.717 54.9478V60.1318H210.957V59.4918L211.133 58.7238H210.909C210.349 59.7638 209.357 60.2918 207.901 60.2918C206.109 60.2918 205.101 59.4278 205.101 58.0358C205.101 56.6118 205.997 55.7958 208.125 55.5398L210.461 55.2678V54.8518C210.461 53.8758 209.965 53.3798 208.957 53.3798C207.981 53.3798 207.485 53.8438 207.469 54.7718H205.261C205.277 52.8678 206.637 51.8278 209.005 51.8278ZM208.509 58.7558C209.645 58.7558 210.461 58.0518 210.461 57.0118V56.5798L208.573 56.7878C207.757 56.8998 207.341 57.2358 207.341 57.7958C207.341 58.4358 207.725 58.7558 208.509 58.7558ZM225.435 55.9398V56.4358H219.931C219.995 57.9078 220.571 58.6438 221.659 58.6438C222.523 58.6438 223.051 58.2598 223.243 57.4758H225.403C225.147 59.2038 223.787 60.2918 221.547 60.2918C219.003 60.2918 217.611 58.7878 217.611 56.1158C217.611 53.4278 219.131 51.8278 221.675 51.8278C224.123 51.8278 225.435 53.2678 225.435 55.9398ZM221.611 53.3798C220.683 53.3798 220.139 53.9558 219.979 55.1238H223.195C223.051 53.9558 222.523 53.3798 221.611 53.3798ZM229.154 60.1318H226.882V48.6118H229.154V60.1318ZM238.35 55.9398V56.4358H232.846C232.91 57.9078 233.486 58.6438 234.574 58.6438C235.438 58.6438 235.966 58.2598 236.158 57.4758H238.318C238.062 59.2038 236.702 60.2918 234.462 60.2918C231.918 60.2918 230.526 58.7878 230.526 56.1158C230.526 53.4278 232.046 51.8278 234.59 51.8278C237.038 51.8278 238.35 53.2678 238.35 55.9398ZM234.526 53.3798C233.598 53.3798 233.054 53.9558 232.894 55.1238H236.11C235.966 53.9558 235.438 53.3798 234.526 53.3798Z" fill="black"/>
<path d="M25.7328 77.4118V80.0878H29.9568V81.1318H24.5088V72.8518H29.8968V73.9078H25.7328V76.3918H29.2968V77.4118H25.7328ZM33.5449 81.2398C31.9129 81.2398 31.0249 80.6158 30.8809 79.3678H32.0689C32.2009 80.0758 32.7049 80.4238 33.5809 80.4238C34.4089 80.4238 34.9609 80.0758 34.9609 79.4878C34.9609 79.0198 34.6009 78.7198 33.8689 78.5758L32.6329 78.3598C31.5649 78.1558 30.9889 77.5798 30.9889 76.7758C30.9889 75.6718 31.9489 74.9518 33.5329 74.9518C35.0329 74.9518 35.9569 75.5878 36.0649 76.7758H34.8769C34.7929 76.1038 34.3129 75.7678 33.4609 75.7678C32.6449 75.7678 32.1529 76.1158 32.1529 76.6078C32.1529 77.0158 32.5129 77.2918 33.2209 77.4358L34.4209 77.6518C35.6089 77.8798 36.1969 78.4438 36.1969 79.3198C36.1969 80.4838 35.1649 81.2398 33.5449 81.2398ZM39.7413 81.2398C38.1093 81.2398 37.2213 80.6158 37.0773 79.3678H38.2653C38.3973 80.0758 38.9013 80.4238 39.7773 80.4238C40.6053 80.4238 41.1573 80.0758 41.1573 79.4878C41.1573 79.0198 40.7973 78.7198 40.0653 78.5758L38.8293 78.3598C37.7613 78.1558 37.1853 77.5798 37.1853 76.7758C37.1853 75.6718 38.1453 74.9518 39.7293 74.9518C41.2293 74.9518 42.1533 75.5878 42.2613 76.7758H41.0733C40.9893 76.1038 40.5093 75.7678 39.6573 75.7678C38.8413 75.7678 38.3493 76.1158 38.3493 76.6078C38.3493 77.0158 38.7093 77.2918 39.4173 77.4358L40.6173 77.6518C41.8053 77.8798 42.3933 78.4438 42.3933 79.3198C42.3933 80.4838 41.3613 81.2398 39.7413 81.2398ZM48.9497 78.0118V78.2758H44.6177C44.6657 79.6318 45.2177 80.3158 46.2617 80.3158C47.0657 80.3158 47.5577 79.9438 47.7257 79.2118H48.9137C48.7217 80.4718 47.7497 81.2398 46.2017 81.2398C44.3657 81.2398 43.3577 80.0878 43.3577 78.1198C43.3577 76.1398 44.4257 74.9518 46.2377 74.9518C48.0017 74.9518 48.9497 76.0558 48.9497 78.0118ZM46.2017 75.8278C45.2897 75.8278 44.7737 76.3918 44.6537 77.5198H47.7257C47.6297 76.3918 47.1257 75.8278 46.2017 75.8278ZM55.6437 81.2518C53.7597 81.2518 52.7157 80.0758 52.7157 78.0958C52.7157 76.1278 53.7717 74.9638 55.6557 74.9638C57.2397 74.9638 58.2717 75.7798 58.4037 77.1718H57.1437C56.9757 76.3078 56.4717 75.8758 55.6437 75.8758C54.5397 75.8758 53.9637 76.6678 53.9637 78.0958C53.9637 79.5238 54.5517 80.3158 55.6437 80.3158C56.4477 80.3158 56.9877 79.8358 57.1437 79.0078H58.4037C58.2717 80.4118 57.2637 81.2518 55.6437 81.2518ZM62.2502 74.3278H61.3622V74.1718L62.7902 72.4918H63.9662V72.6478L62.2502 74.3278ZM62.2142 74.9518C64.0742 74.9518 65.1062 76.1278 65.1062 78.0958C65.1062 80.0638 64.0742 81.2398 62.2142 81.2398C60.3542 81.2398 59.3222 80.0638 59.3222 78.0958C59.3222 76.1278 60.3782 74.9518 62.2142 74.9518ZM62.2262 80.3038C63.2942 80.3038 63.8702 79.4878 63.8702 78.0958C63.8702 76.6918 63.2942 75.8878 62.2262 75.8878C61.1342 75.8878 60.5462 76.7038 60.5462 78.0958C60.5462 79.4878 61.1342 80.3038 62.2262 80.3038ZM70.544 75.3478V72.4918H71.78V81.1318H70.784V80.5798L70.868 80.0278H70.748C70.4 80.7478 69.668 81.2398 68.624 81.2398C67.052 81.2398 66.128 80.0278 66.128 78.1078C66.128 76.1758 67.064 74.9518 68.636 74.9518C69.68 74.9518 70.412 75.4558 70.748 76.1758H70.868L70.784 75.7558L70.544 75.3478ZM68.984 80.2918C69.992 80.2918 70.568 79.4878 70.568 78.0958C70.568 76.6678 69.992 75.8998 68.984 75.8998C67.94 75.8998 67.388 76.7158 67.388 78.0958C67.388 79.4758 67.964 80.2918 68.984 80.2918ZM74.5407 74.0158H73.1847V72.4918H74.5527L74.5407 74.0158ZM74.4927 81.1318H73.2567V75.0718H74.4927V81.1318ZM80.4344 75.5998V75.0718H81.4904V80.7958C81.4904 82.4638 80.5184 83.4118 78.5864 83.4118C76.9064 83.4118 75.9464 82.6558 75.8384 81.3118H77.0744C77.1584 82.0918 77.6984 82.5358 78.5984 82.5358C79.6424 82.5358 80.1704 81.9838 80.2064 80.8798L80.4344 80.3038L80.5184 79.8238H80.4104C80.0624 80.5438 79.3184 81.0358 78.2744 81.0358C76.6904 81.0358 75.7904 79.8598 75.7904 77.9878C75.7904 76.1278 76.6904 74.9518 78.2744 74.9518C79.3184 74.9518 80.0624 75.4318 80.3984 76.1398H80.5184L80.4344 75.5998ZM78.6464 80.1478C79.6424 80.1478 80.2184 79.3678 80.2184 77.9878C80.2184 76.6318 79.6424 75.8398 78.6464 75.8398C77.6024 75.8398 77.0504 76.6558 77.0504 77.9878C77.0504 79.3438 77.6264 80.1478 78.6464 80.1478ZM85.5819 74.9518C87.4419 74.9518 88.4739 76.1278 88.4739 78.0958C88.4739 80.0638 87.4419 81.2398 85.5819 81.2398C83.7219 81.2398 82.6899 80.0638 82.6899 78.0958C82.6899 76.1278 83.7459 74.9518 85.5819 74.9518ZM85.5939 80.3038C86.6619 80.3038 87.2379 79.4878 87.2379 78.0958C87.2379 76.6918 86.6619 75.8878 85.5939 75.8878C84.5019 75.8878 83.9139 76.7038 83.9139 78.0958C83.9139 79.4878 84.5019 80.3038 85.5939 80.3038ZM96.8065 72.4918V72.6478L95.0905 74.3278H94.2025V74.1718L95.6305 72.4918H96.8065ZM97.8385 78.0118V78.2758H93.5065C93.5545 79.6318 94.1065 80.3158 95.1505 80.3158C95.9545 80.3158 96.4465 79.9438 96.6145 79.2118H97.8025C97.6105 80.4718 96.6385 81.2398 95.0905 81.2398C93.2545 81.2398 92.2465 80.0878 92.2465 78.1198C92.2465 76.1398 93.3145 74.9518 95.1265 74.9518C96.8905 74.9518 97.8385 76.0558 97.8385 78.0118ZM95.0905 75.8278C94.1785 75.8278 93.6625 76.3918 93.5425 77.5198H96.6145C96.5185 76.3918 96.0145 75.8278 95.0905 75.8278ZM107.184 78.0118V78.2758H102.852C102.9 79.6318 103.452 80.3158 104.496 80.3158C105.3 80.3158 105.792 79.9438 105.96 79.2118H107.148C106.956 80.4718 105.984 81.2398 104.436 81.2398C102.6 81.2398 101.592 80.0878 101.592 78.1198C101.592 76.1398 102.66 74.9518 104.472 74.9518C106.236 74.9518 107.184 76.0558 107.184 78.0118ZM104.436 75.8278C103.524 75.8278 103.008 76.3918 102.888 77.5198H105.96C105.864 76.3918 105.36 75.8278 104.436 75.8278ZM111.572 74.9518C112.928 74.9518 113.708 75.7078 113.708 77.0878V81.1318H112.484V77.3278C112.484 76.4038 112.052 75.9358 111.188 75.9358C110.216 75.9358 109.592 76.5478 109.592 77.6038V81.1318H108.356V75.0718H109.352V75.5878L109.28 76.1398H109.376C109.712 75.4558 110.456 74.9518 111.572 74.9518ZM118.168 81.1318H116.656L114.448 75.2398V75.0718H115.696L117.28 79.4758L117.34 79.8958H117.496L117.556 79.4758L119.14 75.0718H120.364V75.2278L118.168 81.1318ZM122.679 74.0158H121.323V72.4918H122.691L122.679 74.0158ZM122.631 81.1318H121.395V75.0718H122.631V81.1318ZM126.605 74.9518C128.333 74.9518 129.197 75.7078 129.197 77.2078V81.1318H128.201V80.5798L128.297 80.0278H128.165C127.757 80.8318 127.001 81.2398 125.885 81.2398C124.589 81.2398 123.845 80.6158 123.845 79.5958C123.845 78.5998 124.481 77.9998 126.029 77.8078L127.961 77.5798V77.1598C127.961 76.2718 127.493 75.8278 126.557 75.8278C125.657 75.8278 125.201 76.2358 125.177 77.0638H123.965C123.977 75.6838 124.961 74.9518 126.605 74.9518ZM126.197 80.3758C127.253 80.3758 127.961 79.7278 127.961 78.7318V78.3238L126.245 78.5278C125.465 78.6358 125.069 78.9478 125.069 79.4638C125.069 80.0518 125.489 80.3758 126.197 80.3758ZM134.799 75.3478V72.4918H136.035V81.1318H135.039V80.5798L135.123 80.0278H135.003C134.655 80.7478 133.923 81.2398 132.879 81.2398C131.307 81.2398 130.383 80.0278 130.383 78.1078C130.383 76.1758 131.319 74.9518 132.891 74.9518C133.935 74.9518 134.667 75.4558 135.003 76.1758H135.123L135.039 75.7558L134.799 75.3478ZM133.239 80.2918C134.247 80.2918 134.823 79.4878 134.823 78.0958C134.823 76.6678 134.247 75.8998 133.239 75.8998C132.195 75.8998 131.643 76.7158 131.643 78.0958C131.643 79.4758 132.219 80.2918 133.239 80.2918ZM140.058 74.9518C141.918 74.9518 142.95 76.1278 142.95 78.0958C142.95 80.0638 141.918 81.2398 140.058 81.2398C138.198 81.2398 137.166 80.0638 137.166 78.0958C137.166 76.1278 138.222 74.9518 140.058 74.9518ZM140.07 80.3038C141.138 80.3038 141.714 79.4878 141.714 78.0958C141.714 76.6918 141.138 75.8878 140.07 75.8878C138.978 75.8878 138.39 76.7038 138.39 78.0958C138.39 79.4878 138.978 80.3038 140.07 80.3038ZM149.41 74.9518C151.138 74.9518 152.002 75.7078 152.002 77.2078V81.1318H151.006V80.5798L151.102 80.0278H150.97C150.562 80.8318 149.806 81.2398 148.69 81.2398C147.394 81.2398 146.65 80.6158 146.65 79.5958C146.65 78.5998 147.286 77.9998 148.834 77.8078L150.766 77.5798V77.1598C150.766 76.2718 150.298 75.8278 149.362 75.8278C148.462 75.8278 148.006 76.2358 147.982 77.0638H146.77C146.782 75.6838 147.766 74.9518 149.41 74.9518ZM149.002 80.3758C150.058 80.3758 150.766 79.7278 150.766 78.7318V78.3238L149.05 78.5278C148.27 78.6358 147.874 78.9478 147.874 79.4638C147.874 80.0518 148.294 80.3758 149.002 80.3758ZM156.081 74.9518C157.941 74.9518 158.973 76.1278 158.973 78.0958C158.973 80.0638 157.941 81.2398 156.081 81.2398C154.221 81.2398 153.189 80.0638 153.189 78.0958C153.189 76.1278 154.245 74.9518 156.081 74.9518ZM156.093 80.3038C157.161 80.3038 157.737 79.4878 157.737 78.0958C157.737 76.6918 157.161 75.8878 156.093 75.8878C155.001 75.8878 154.413 76.7038 154.413 78.0958C154.413 79.4878 155.001 80.3038 156.093 80.3038ZM165.685 81.2518C163.801 81.2518 162.757 80.0758 162.757 78.0958C162.757 76.1278 163.813 74.9638 165.697 74.9638C167.281 74.9638 168.313 75.7798 168.445 77.1718H167.185C167.017 76.3078 166.513 75.8758 165.685 75.8758C164.581 75.8758 164.005 76.6678 164.005 78.0958C164.005 79.5238 164.593 80.3158 165.685 80.3158C166.489 80.3158 167.029 79.8358 167.185 79.0078H168.445C168.313 80.4118 167.305 81.2518 165.685 81.2518ZM170.924 81.1318H169.688V72.4918H170.924V81.1318ZM173.839 74.0158H172.483V72.4918H173.851L173.839 74.0158ZM173.791 81.1318H172.555V75.0718H173.791V81.1318ZM180.668 78.0118V78.2758H176.336C176.384 79.6318 176.936 80.3158 177.98 80.3158C178.784 80.3158 179.276 79.9438 179.444 79.2118H180.632C180.44 80.4718 179.468 81.2398 177.92 81.2398C176.084 81.2398 175.076 80.0878 175.076 78.1198C175.076 76.1398 176.144 74.9518 177.956 74.9518C179.72 74.9518 180.668 76.0558 180.668 78.0118ZM177.92 75.8278C177.008 75.8278 176.492 76.3918 176.372 77.5198H179.444C179.348 76.3918 178.844 75.8278 177.92 75.8278ZM185.056 74.9518C186.412 74.9518 187.192 75.7078 187.192 77.0878V81.1318H185.968V77.3278C185.968 76.4038 185.536 75.9358 184.672 75.9358C183.7 75.9358 183.076 76.5478 183.076 77.6038V81.1318H181.84V75.0718H182.836V75.5878L182.764 76.1398H182.86C183.196 75.4558 183.94 74.9518 185.056 74.9518ZM191.467 80.2318C191.707 80.2318 191.983 80.1958 192.283 80.1118V81.0838C191.947 81.1918 191.551 81.2398 191.083 81.2398C189.823 81.2398 189.187 80.6278 189.187 79.3918V78.7918V75.9358H188.119V75.0718H189.187V73.4278H190.423V75.0718H192.247V75.9358H190.423V78.7198V79.1998C190.423 79.8838 190.771 80.2318 191.467 80.2318ZM198.707 78.0118V78.2758H194.375C194.423 79.6318 194.975 80.3158 196.019 80.3158C196.823 80.3158 197.315 79.9438 197.483 79.2118H198.671C198.479 80.4718 197.507 81.2398 195.959 81.2398C194.123 81.2398 193.115 80.0878 193.115 78.1198C193.115 76.1398 194.183 74.9518 195.995 74.9518C197.759 74.9518 198.707 76.0558 198.707 78.0118ZM195.959 75.8278C195.047 75.8278 194.531 76.3918 194.411 77.5198H197.483C197.387 76.3918 196.883 75.8278 195.959 75.8278ZM205.797 74.9638C207.417 74.9638 208.305 76.1638 208.305 78.0958C208.305 80.0518 207.393 81.2518 205.797 81.2518C204.753 81.2518 204.021 80.7478 203.673 80.0278H203.565L203.637 80.4478L203.889 80.8558V83.3038H202.641V75.0718H203.637V75.6238L203.565 76.1758H203.685C204.021 75.4678 204.753 74.9638 205.797 74.9638ZM205.449 80.3038C206.493 80.3038 207.045 79.4878 207.045 78.1078C207.045 76.7278 206.469 75.9118 205.449 75.9118C204.441 75.9118 203.865 76.7158 203.865 78.1078C203.865 79.5358 204.441 80.3038 205.449 80.3038ZM212.229 74.9518C214.089 74.9518 215.121 76.1278 215.121 78.0958C215.121 80.0638 214.089 81.2398 212.229 81.2398C210.369 81.2398 209.337 80.0638 209.337 78.0958C209.337 76.1278 210.393 74.9518 212.229 74.9518ZM212.241 80.3038C213.309 80.3038 213.885 79.4878 213.885 78.0958C213.885 76.6918 213.309 75.8878 212.241 75.8878C211.149 75.8878 210.561 76.7038 210.561 78.0958C210.561 79.4878 211.149 80.3038 212.241 80.3038ZM219.203 74.9518C219.527 74.9518 219.803 74.9998 220.031 75.0958V76.2478C219.731 76.1638 219.455 76.1158 219.191 76.1158C218.147 76.1158 217.547 76.8118 217.547 78.0118V81.1318H216.311V75.0718H217.319V75.5638L217.223 76.2238H217.331C217.607 75.4558 218.243 74.9518 219.203 74.9518ZM229.065 78.0118V78.2758H224.733C224.781 79.6318 225.333 80.3158 226.377 80.3158C227.181 80.3158 227.673 79.9438 227.841 79.2118H229.029C228.837 80.4718 227.865 81.2398 226.317 81.2398C224.481 81.2398 223.473 80.0878 223.473 78.1198C223.473 76.1398 224.541 74.9518 226.353 74.9518C228.117 74.9518 229.065 76.0558 229.065 78.0118ZM226.317 75.8278C225.405 75.8278 224.889 76.3918 224.769 77.5198H227.841C227.745 76.3918 227.241 75.8278 226.317 75.8278ZM236.896 74.9638C238.108 74.9638 238.84 75.6598 238.84 76.9078V81.1198H237.628V77.1238C237.628 76.3198 237.268 75.9118 236.536 75.9118C235.672 75.9118 235.144 76.4758 235.144 77.4238V81.1318H233.932V77.1238C233.932 76.3198 233.56 75.9118 232.828 75.9118C231.976 75.9118 231.448 76.4758 231.448 77.4478V81.1318H230.236V75.0718H231.184V75.5998L231.112 76.1278H231.22C231.508 75.4438 232.192 74.9638 233.152 74.9638C233.98 74.9638 234.532 75.2758 234.808 75.9118L234.748 76.2358H234.844C235.144 75.4798 235.852 74.9638 236.896 74.9638ZM242.702 74.9518C244.43 74.9518 245.294 75.7078 245.294 77.2078V81.1318H244.298V80.5798L244.394 80.0278H244.262C243.854 80.8318 243.098 81.2398 241.982 81.2398C240.686 81.2398 239.942 80.6158 239.942 79.5958C239.942 78.5998 240.578 77.9998 242.126 77.8078L244.058 77.5798V77.1598C244.058 76.2718 243.59 75.8278 242.654 75.8278C241.754 75.8278 241.298 76.2358 241.274 77.0638H240.062C240.074 75.6838 241.058 74.9518 242.702 74.9518ZM242.294 80.3758C243.35 80.3758 244.058 79.7278 244.058 78.7318V78.3238L242.342 78.5278C241.562 78.6358 241.166 78.9478 241.166 79.4638C241.166 80.0518 241.586 80.3758 242.294 80.3758ZM248.041 74.0158H246.685V72.4918H248.053L248.041 74.0158ZM247.993 81.1318H246.757V75.0718H247.993V81.1318ZM250.85 81.1318H249.614V72.4918H250.85V81.1318ZM260.548 78.0118V78.2758H256.216C256.264 79.6318 256.816 80.3158 257.86 80.3158C258.664 80.3158 259.156 79.9438 259.324 79.2118H260.512C260.32 80.4718 259.348 81.2398 257.8 81.2398C255.964 81.2398 254.956 80.0878 254.956 78.1198C254.956 76.1398 256.024 74.9518 257.836 74.9518C259.6 74.9518 260.548 76.0558 260.548 78.0118ZM257.8 75.8278C256.888 75.8278 256.372 76.3918 256.252 77.5198H259.324C259.228 76.3918 258.724 75.8278 257.8 75.8278ZM267.626 81.2278C265.646 81.2278 264.542 80.3878 264.362 78.8038H265.682C265.85 79.7998 266.522 80.2918 267.686 80.2918C268.754 80.2918 269.486 79.7758 269.486 78.9238C269.486 78.2398 269.006 77.7838 268.046 77.5318L266.486 77.1718C265.19 76.8358 264.542 76.1158 264.542 75.0238C264.542 73.6318 265.694 72.7318 267.602 72.7318C269.414 72.7318 270.53 73.5718 270.686 75.0958H269.366C269.222 74.1238 268.538 73.6678 267.578 73.6678C266.534 73.6678 265.898 74.1598 265.898 74.9158C265.898 75.5038 266.294 75.9118 267.074 76.1278L268.646 76.4998C270.122 76.8718 270.866 77.6398 270.866 78.7918C270.866 80.2918 269.642 81.2278 267.626 81.2278ZM273.501 81.1318H272.301V72.8518H274.377L276.381 79.1758L276.453 79.6318H276.645L276.717 79.1758L278.733 72.8518H280.749V81.1318H279.561L279.621 74.7238V74.2318H279.429L279.345 74.6758L277.245 81.1318H275.817L273.717 74.6758L273.645 74.2318H273.441V74.7238L273.501 81.1318ZM285.492 81.2278C283.512 81.2278 282.408 80.3878 282.228 78.8038H283.548C283.716 79.7998 284.388 80.2918 285.552 80.2918C286.62 80.2918 287.352 79.7758 287.352 78.9238C287.352 78.2398 286.872 77.7838 285.912 77.5318L284.352 77.1718C283.056 76.8358 282.408 76.1158 282.408 75.0238C282.408 73.6318 283.56 72.7318 285.468 72.7318C287.28 72.7318 288.396 73.5718 288.552 75.0958H287.232C287.088 74.1238 286.404 73.6678 285.444 73.6678C284.4 73.6678 283.764 74.1598 283.764 74.9158C283.764 75.5038 284.16 75.9118 284.94 76.1278L286.512 76.4998C287.988 76.8718 288.732 77.6398 288.732 78.7918C288.732 80.2918 287.508 81.2278 285.492 81.2278ZM295.906 74.9518C297.262 74.9518 298.042 75.7078 298.042 77.0878V81.1318H296.818V77.3278C296.818 76.4038 296.386 75.9358 295.522 75.9358C294.55 75.9358 293.926 76.5478 293.926 77.6038V81.1318H292.69V75.0718H293.686V75.5878L293.614 76.1398H293.71C294.046 75.4558 294.79 74.9518 295.906 74.9518ZM302.137 74.9518C303.997 74.9518 305.029 76.1278 305.029 78.0958C305.029 80.0638 303.997 81.2398 302.137 81.2398C300.277 81.2398 299.245 80.0638 299.245 78.0958C299.245 76.1278 300.301 74.9518 302.137 74.9518ZM302.149 80.3038C303.217 80.3038 303.793 79.4878 303.793 78.0958C303.793 76.6918 303.217 75.8878 302.149 75.8878C301.057 75.8878 300.469 76.7038 300.469 78.0958C300.469 79.4878 301.057 80.3038 302.149 80.3038ZM34.3875 96.9638C35.5995 96.9638 36.3315 97.6598 36.3315 98.9078V103.12H35.1195V99.1238C35.1195 98.3198 34.7595 97.9118 34.0275 97.9118C33.1635 97.9118 32.6355 98.4758 32.6355 99.4238V103.132H31.4235V99.1238C31.4235 98.3198 31.0515 97.9118 30.3195 97.9118C29.4675 97.9118 28.9395 98.4758 28.9395 99.4478V103.132H27.7275V97.0718H28.6755V97.5998L28.6035 98.1278H28.7115C28.9995 97.4438 29.6835 96.9638 30.6435 96.9638C31.4715 96.9638 32.0235 97.2758 32.2995 97.9118L32.2395 98.2358H32.3355C32.6355 97.4798 33.3435 96.9638 34.3875 96.9638ZM40.4096 96.9518C42.2696 96.9518 43.3016 98.1278 43.3016 100.096C43.3016 102.064 42.2696 103.24 40.4096 103.24C38.5496 103.24 37.5176 102.064 37.5176 100.096C37.5176 98.1278 38.5736 96.9518 40.4096 96.9518ZM40.4216 102.304C41.4896 102.304 42.0656 101.488 42.0656 100.096C42.0656 98.6918 41.4896 97.8878 40.4216 97.8878C39.3296 97.8878 38.7416 98.7038 38.7416 100.096C38.7416 101.488 39.3296 102.304 40.4216 102.304ZM51.1514 96.9638C52.3634 96.9638 53.0954 97.6598 53.0954 98.9078V103.12H51.8834V99.1238C51.8834 98.3198 51.5234 97.9118 50.7914 97.9118C49.9274 97.9118 49.3994 98.4758 49.3994 99.4238V103.132H48.1874V99.1238C48.1874 98.3198 47.8154 97.9118 47.0834 97.9118C46.2314 97.9118 45.7034 98.4758 45.7034 99.4478V103.132H44.4914V97.0718H45.4394V97.5998L45.3674 98.1278H45.4754C45.7634 97.4438 46.4474 96.9638 47.4074 96.9638C48.2354 96.9638 48.7874 97.2758 49.0634 97.9118L49.0034 98.2358H49.0994C49.3994 97.4798 50.1074 96.9638 51.1514 96.9638ZM59.8616 100.012V100.276H55.5296C55.5776 101.632 56.1296 102.316 57.1736 102.316C57.9776 102.316 58.4696 101.944 58.6376 101.212H59.8256C59.6336 102.472 58.6616 103.24 57.1136 103.24C55.2776 103.24 54.2696 102.088 54.2696 100.12C54.2696 98.1398 55.3376 96.9518 57.1496 96.9518C58.9136 96.9518 59.8616 98.0558 59.8616 100.012ZM57.1136 97.8278C56.2016 97.8278 55.6856 98.3918 55.5656 99.5198H58.6376C58.5416 98.3918 58.0376 97.8278 57.1136 97.8278ZM64.2487 96.9518C65.6047 96.9518 66.3847 97.7078 66.3847 99.0878V103.132H65.1607V99.3278C65.1607 98.4038 64.7287 97.9358 63.8647 97.9358C62.8927 97.9358 62.2687 98.5478 62.2687 99.6038V103.132H61.0327V97.0718H62.0287V97.5878L61.9567 98.1398H62.0527C62.3887 97.4558 63.1327 96.9518 64.2487 96.9518ZM70.6604 102.232C70.9004 102.232 71.1764 102.196 71.4764 102.112V103.084C71.1404 103.192 70.7444 103.24 70.2764 103.24C69.0164 103.24 68.3804 102.628 68.3804 101.392V100.792V97.9358H67.3124V97.0718H68.3804V95.4278H69.6164V97.0718H71.4404V97.9358H69.6164V100.72V101.2C69.6164 101.884 69.9644 102.232 70.6604 102.232ZM75.212 96.9518C77.072 96.9518 78.104 98.1278 78.104 100.096C78.104 102.064 77.072 103.24 75.212 103.24C73.352 103.24 72.32 102.064 72.32 100.096C72.32 98.1278 73.376 96.9518 75.212 96.9518ZM75.224 102.304C76.292 102.304 76.868 101.488 76.868 100.096C76.868 98.6918 76.292 97.8878 75.224 97.8878C74.132 97.8878 73.544 98.7038 73.544 100.096C73.544 101.488 74.132 102.304 75.224 102.304ZM87.4686 100.012V100.276H83.1366C83.1846 101.632 83.7366 102.316 84.7806 102.316C85.5846 102.316 86.0766 101.944 86.2446 101.212H87.4326C87.2406 102.472 86.2686 103.24 84.7206 103.24C82.8846 103.24 81.8766 102.088 81.8766 100.12C81.8766 98.1398 82.9446 96.9518 84.7566 96.9518C86.5206 96.9518 87.4686 98.0558 87.4686 100.012ZM84.7206 97.8278C83.8086 97.8278 83.2926 98.3918 83.1726 99.5198H86.2446C86.1486 98.3918 85.6446 97.8278 84.7206 97.8278ZM95.2997 96.9638C96.5117 96.9638 97.2437 97.6598 97.2437 98.9078V103.12H96.0317V99.1238C96.0317 98.3198 95.6717 97.9118 94.9397 97.9118C94.0757 97.9118 93.5477 98.4758 93.5477 99.4238V103.132H92.3357V99.1238C92.3357 98.3198 91.9637 97.9118 91.2317 97.9118C90.3797 97.9118 89.8517 98.4758 89.8517 99.4478V103.132H88.6397V97.0718H89.5877V97.5998L89.5157 98.1278H89.6237C89.9117 97.4438 90.5957 96.9638 91.5557 96.9638C92.3837 96.9638 92.9357 97.2758 93.2117 97.9118L93.1517 98.2358H93.2477C93.5477 97.4798 94.2557 96.9638 95.2997 96.9638ZM105.849 97.6238V97.0718H106.869V105.328H105.597V102.868L105.849 102.46L105.921 102.028H105.813C105.477 102.748 104.745 103.24 103.701 103.24C102.129 103.24 101.181 102.028 101.181 100.096C101.181 98.1758 102.117 96.9638 103.689 96.9638C104.745 96.9638 105.477 97.4558 105.813 98.1758H105.921L105.849 97.6238ZM104.061 102.292C105.057 102.292 105.621 101.512 105.621 100.108C105.621 98.7158 105.057 97.9238 104.061 97.9238C103.041 97.9238 102.477 98.7518 102.477 100.108C102.477 101.488 103.017 102.292 104.061 102.292ZM112.245 100.612V97.0718H113.481V103.132H112.485V102.604L112.569 102.064H112.461C112.125 102.748 111.393 103.24 110.325 103.24C108.981 103.24 108.225 102.496 108.225 101.116V97.0718H109.461V100.888C109.461 101.812 109.881 102.268 110.709 102.268C111.633 102.268 112.245 101.656 112.245 100.612ZM120.244 100.012V100.276H115.912C115.96 101.632 116.512 102.316 117.556 102.316C118.36 102.316 118.852 101.944 119.02 101.212H120.208C120.016 102.472 119.044 103.24 117.496 103.24C115.66 103.24 114.652 102.088 114.652 100.12C114.652 98.1398 115.72 96.9518 117.532 96.9518C119.296 96.9518 120.244 98.0558 120.244 100.012ZM117.496 97.8278C116.584 97.8278 116.068 98.3918 115.948 99.5198H119.02C118.924 98.3918 118.42 97.8278 117.496 97.8278ZM127.454 103.132H125.942L123.734 97.2398V97.0718H124.982L126.566 101.476L126.626 101.896H126.782L126.842 101.476L128.426 97.0718H129.65V97.2278L127.454 103.132ZM132.922 96.9518C134.782 96.9518 135.814 98.1278 135.814 100.096C135.814 102.064 134.782 103.24 132.922 103.24C131.062 103.24 130.03 102.064 130.03 100.096C130.03 98.1278 131.086 96.9518 132.922 96.9518ZM132.934 102.304C134.002 102.304 134.578 101.488 134.578 100.096C134.578 98.6918 134.002 97.8878 132.934 97.8878C131.842 97.8878 131.254 98.7038 131.254 100.096C131.254 101.488 131.842 102.304 132.934 102.304ZM139.764 103.252C137.88 103.252 136.836 102.076 136.836 100.096C136.836 98.1278 137.892 96.9638 139.776 96.9638C141.36 96.9638 142.392 97.7798 142.524 99.1718H141.264C141.096 98.3078 140.592 97.8758 139.764 97.8758C138.66 97.8758 138.084 98.6678 138.084 100.096C138.084 101.524 138.672 102.316 139.764 102.316C140.568 102.316 141.108 101.836 141.264 101.008H142.524C142.392 102.412 141.384 103.252 139.764 103.252ZM146.166 95.1398L146.094 95.3198L145.314 96.3278H144.51V96.1838L145.842 94.4678H146.622L147.954 96.1958V96.3278H147.126L146.358 95.3198L146.274 95.1398H146.166ZM149.022 100.012V100.276H144.69C144.738 101.632 145.29 102.316 146.334 102.316C147.138 102.316 147.63 101.944 147.798 101.212H148.986C148.794 102.472 147.822 103.24 146.274 103.24C144.438 103.24 143.43 102.088 143.43 100.12C143.43 98.1398 144.498 96.9518 146.31 96.9518C148.074 96.9518 149.022 98.0558 149.022 100.012ZM146.274 97.8278C145.362 97.8278 144.846 98.3918 144.726 99.5198H147.798C147.702 98.3918 147.198 97.8278 146.274 97.8278ZM155.848 96.9518C156.172 96.9518 156.448 96.9998 156.676 97.0958V98.2478C156.376 98.1638 156.1 98.1158 155.836 98.1158C154.792 98.1158 154.192 98.8118 154.192 100.012V103.132H152.956V97.0718H153.964V97.5638L153.868 98.2238H153.976C154.252 97.4558 154.888 96.9518 155.848 96.9518ZM162.83 100.012V100.276H158.498C158.546 101.632 159.098 102.316 160.142 102.316C160.946 102.316 161.438 101.944 161.606 101.212H162.794C162.602 102.472 161.63 103.24 160.082 103.24C158.246 103.24 157.238 102.088 157.238 100.12C157.238 98.1398 158.306 96.9518 160.118 96.9518C161.882 96.9518 162.83 98.0558 162.83 100.012ZM160.082 97.8278C159.17 97.8278 158.654 98.3918 158.534 99.5198H161.606C161.51 98.3918 161.006 97.8278 160.082 97.8278ZM166.706 102.232C166.946 102.232 167.222 102.196 167.522 102.112V103.084C167.186 103.192 166.79 103.24 166.322 103.24C165.062 103.24 164.426 102.628 164.426 101.392V100.792V97.9358H163.358V97.0718H164.426V95.4278H165.662V97.0718H167.486V97.9358H165.662V100.72V101.2C165.662 101.884 166.01 102.232 166.706 102.232ZM170.09 96.0158H168.734V94.4918H170.102L170.09 96.0158ZM170.042 103.132H168.806V97.0718H170.042V103.132ZM174.4 96.9518C174.724 96.9518 175 96.9998 175.228 97.0958V98.2478C174.928 98.1638 174.652 98.1158 174.388 98.1158C173.344 98.1158 172.744 98.8118 172.744 100.012V103.132H171.508V97.0718H172.516V97.5638L172.42 98.2238H172.528C172.804 97.4558 173.44 96.9518 174.4 96.9518ZM178.525 96.9518C180.253 96.9518 181.117 97.7078 181.117 99.2078V103.132H180.121V102.58L180.217 102.028H180.085C179.677 102.832 178.921 103.24 177.805 103.24C176.509 103.24 175.765 102.616 175.765 101.596C175.765 100.6 176.401 99.9998 177.949 99.8078L179.881 99.5798V99.1598C179.881 98.2718 179.413 97.8278 178.477 97.8278C177.577 97.8278 177.121 98.2358 177.097 99.0638H175.885C175.897 97.6838 176.881 96.9518 178.525 96.9518ZM178.117 102.376C179.173 102.376 179.881 101.728 179.881 100.732V100.324L178.165 100.528C177.385 100.636 176.989 100.948 176.989 101.464C176.989 102.052 177.409 102.376 178.117 102.376ZM187.958 96.9518C189.818 96.9518 190.85 98.1278 190.85 100.096C190.85 102.064 189.818 103.24 187.958 103.24C186.098 103.24 185.066 102.064 185.066 100.096C185.066 98.1278 186.122 96.9518 187.958 96.9518ZM187.97 102.304C189.038 102.304 189.614 101.488 189.614 100.096C189.614 98.6918 189.038 97.8878 187.97 97.8878C186.878 97.8878 186.29 98.7038 186.29 100.096C186.29 101.488 186.878 102.304 187.97 102.304ZM197.958 96.9638C199.578 96.9638 200.466 98.1638 200.466 100.096C200.466 102.052 199.554 103.252 197.958 103.252C196.914 103.252 196.182 102.748 195.834 102.028H195.726L195.798 102.448L196.05 102.856V105.304H194.802V97.0718H195.798V97.6238L195.726 98.1758H195.846C196.182 97.4678 196.914 96.9638 197.958 96.9638ZM197.61 102.304C198.654 102.304 199.206 101.488 199.206 100.108C199.206 98.7278 198.63 97.9118 197.61 97.9118C196.602 97.9118 196.026 98.7158 196.026 100.108C196.026 101.536 196.602 102.304 197.61 102.304ZM207.079 100.012V100.276H202.747C202.795 101.632 203.347 102.316 204.391 102.316C205.195 102.316 205.687 101.944 205.855 101.212H207.043C206.851 102.472 205.879 103.24 204.331 103.24C202.495 103.24 201.487 102.088 201.487 100.12C201.487 98.1398 202.555 96.9518 204.367 96.9518C206.131 96.9518 207.079 98.0558 207.079 100.012ZM204.331 97.8278C203.419 97.8278 202.903 98.3918 202.783 99.5198H205.855C205.759 98.3918 205.255 97.8278 204.331 97.8278ZM212.498 97.3478V94.4918H213.734V103.132H212.738V102.58L212.822 102.028H212.702C212.354 102.748 211.622 103.24 210.578 103.24C209.006 103.24 208.082 102.028 208.082 100.108C208.082 98.1758 209.018 96.9518 210.59 96.9518C211.634 96.9518 212.366 97.4558 212.702 98.1758H212.822L212.738 97.7558L212.498 97.3478ZM210.938 102.292C211.946 102.292 212.522 101.488 212.522 100.096C212.522 98.6678 211.946 97.8998 210.938 97.8998C209.894 97.8998 209.342 98.7158 209.342 100.096C209.342 101.476 209.918 102.292 210.938 102.292ZM216.494 96.0158H215.138V94.4918H216.506L216.494 96.0158ZM216.446 103.132H215.21V97.0718H216.446V103.132ZM222.16 97.3478V94.4918H223.396V103.132H222.4V102.58L222.484 102.028H222.364C222.016 102.748 221.284 103.24 220.24 103.24C218.668 103.24 217.744 102.028 217.744 100.108C217.744 98.1758 218.68 96.9518 220.252 96.9518C221.296 96.9518 222.028 97.4558 222.364 98.1758H222.484L222.4 97.7558L222.16 97.3478ZM220.6 102.292C221.608 102.292 222.184 101.488 222.184 100.096C222.184 98.6678 221.608 97.8998 220.6 97.8998C219.556 97.8998 219.004 98.7158 219.004 100.096C219.004 101.476 219.58 102.292 220.6 102.292ZM227.418 96.9518C229.278 96.9518 230.31 98.1278 230.31 100.096C230.31 102.064 229.278 103.24 227.418 103.24C225.558 103.24 224.526 102.064 224.526 100.096C224.526 98.1278 225.582 96.9518 227.418 96.9518ZM227.43 102.304C228.498 102.304 229.074 101.488 229.074 100.096C229.074 98.6918 228.498 97.8878 227.43 97.8878C226.338 97.8878 225.75 98.7038 225.75 100.096C225.75 101.488 226.338 102.304 227.43 102.304ZM237.479 96.9518C238.835 96.9518 239.615 97.7078 239.615 99.0878V103.132H238.391V99.3278C238.391 98.4038 237.959 97.9358 237.095 97.9358C236.123 97.9358 235.499 98.5478 235.499 99.6038V103.132H234.263V97.0718H235.259V97.5878L235.187 98.1398H235.283C235.619 97.4558 236.363 96.9518 237.479 96.9518ZM243.711 96.9518C245.571 96.9518 246.603 98.1278 246.603 100.096C246.603 102.064 245.571 103.24 243.711 103.24C241.851 103.24 240.819 102.064 240.819 100.096C240.819 98.1278 241.875 96.9518 243.711 96.9518ZM243.723 102.304C244.791 102.304 245.367 101.488 245.367 100.096C245.367 98.6918 244.791 97.8878 243.723 97.8878C242.631 97.8878 242.043 98.7038 242.043 100.096C242.043 101.488 242.631 102.304 243.723 102.304ZM253.315 103.252C251.431 103.252 250.387 102.076 250.387 100.096C250.387 98.1278 251.443 96.9638 253.327 96.9638C254.911 96.9638 255.943 97.7798 256.075 99.1718H254.815C254.647 98.3078 254.143 97.8758 253.315 97.8758C252.211 97.8758 251.635 98.6678 251.635 100.096C251.635 101.524 252.223 102.316 253.315 102.316C254.119 102.316 254.659 101.836 254.815 101.008H256.075C255.943 102.412 254.935 103.252 253.315 103.252ZM262.574 100.012V100.276H258.242C258.29 101.632 258.842 102.316 259.886 102.316C260.69 102.316 261.182 101.944 261.35 101.212H262.538C262.346 102.472 261.374 103.24 259.826 103.24C257.99 103.24 256.982 102.088 256.982 100.12C256.982 98.1398 258.05 96.9518 259.862 96.9518C261.626 96.9518 262.574 98.0558 262.574 100.012ZM259.826 97.8278C258.914 97.8278 258.398 98.3918 258.278 99.5198H261.35C261.254 98.3918 260.75 97.8278 259.826 97.8278ZM266.961 96.9518C268.317 96.9518 269.097 97.7078 269.097 99.0878V103.132H267.873V99.3278C267.873 98.4038 267.441 97.9358 266.577 97.9358C265.605 97.9358 264.981 98.5478 264.981 99.6038V103.132H263.745V97.0718H264.741V97.5878L264.669 98.1398H264.765C265.101 97.4558 265.845 96.9518 266.961 96.9518ZM273.373 102.232C273.613 102.232 273.889 102.196 274.189 102.112V103.084C273.853 103.192 273.457 103.24 272.989 103.24C271.729 103.24 271.093 102.628 271.093 101.392V100.792V97.9358H270.025V97.0718H271.093V95.4278H272.329V97.0718H274.153V97.9358H272.329V100.72V101.2C272.329 101.884 272.677 102.232 273.373 102.232ZM278.256 96.9518C278.58 96.9518 278.856 96.9998 279.084 97.0958V98.2478C278.784 98.1638 278.508 98.1158 278.244 98.1158C277.2 98.1158 276.6 98.8118 276.6 100.012V103.132H275.364V97.0718H276.372V97.5638L276.276 98.2238H276.384C276.66 97.4558 277.296 96.9518 278.256 96.9518ZM282.55 96.9518C284.41 96.9518 285.442 98.1278 285.442 100.096C285.442 102.064 284.41 103.24 282.55 103.24C280.69 103.24 279.658 102.064 279.658 100.096C279.658 98.1278 280.714 96.9518 282.55 96.9518ZM282.562 102.304C283.63 102.304 284.206 101.488 284.206 100.096C284.206 98.6918 283.63 97.8878 282.562 97.8878C281.47 97.8878 280.882 98.7038 280.882 100.096C280.882 101.488 281.47 102.304 282.562 102.304ZM293.643 97.3478V94.4918H294.879V103.132H293.883V102.58L293.967 102.028H293.847C293.499 102.748 292.767 103.24 291.723 103.24C290.151 103.24 289.227 102.028 289.227 100.108C289.227 98.1758 290.163 96.9518 291.735 96.9518C292.779 96.9518 293.511 97.4558 293.847 98.1758H293.967L293.883 97.7558L293.643 97.3478ZM292.083 102.292C293.091 102.292 293.667 101.488 293.667 100.096C293.667 98.6678 293.091 97.8998 292.083 97.8998C291.039 97.8998 290.487 98.7158 290.487 100.096C290.487 101.476 291.063 102.292 292.083 102.292ZM301.589 100.012V100.276H297.257C297.305 101.632 297.857 102.316 298.901 102.316C299.705 102.316 300.197 101.944 300.365 101.212H301.553C301.361 102.472 300.389 103.24 298.841 103.24C297.005 103.24 295.997 102.088 295.997 100.12C295.997 98.1398 297.065 96.9518 298.877 96.9518C300.641 96.9518 301.589 98.0558 301.589 100.012ZM298.841 97.8278C297.929 97.8278 297.413 98.3918 297.293 99.5198H300.365C300.269 98.3918 299.765 97.8278 298.841 97.8278ZM123.906 118.952C125.634 118.952 126.498 119.708 126.498 121.208V125.132H125.502V124.58L125.598 124.028H125.466C125.058 124.832 124.302 125.24 123.186 125.24C121.89 125.24 121.146 124.616 121.146 123.596C121.146 122.6 121.782 122 123.33 121.808L125.262 121.58V121.16C125.262 120.272 124.794 119.828 123.858 119.828C122.958 119.828 122.502 120.236 122.478 121.064H121.266C121.278 119.684 122.262 118.952 123.906 118.952ZM123.498 124.376C124.554 124.376 125.262 123.728 125.262 122.732V122.324L123.546 122.528C122.766 122.636 122.37 122.948 122.37 123.464C122.37 124.052 122.79 124.376 123.498 124.376ZM130.744 118.952C131.068 118.952 131.344 119 131.572 119.096V120.248C131.272 120.164 130.996 120.116 130.732 120.116C129.688 120.116 129.088 120.812 129.088 122.012V125.132H127.852V119.072H128.86V119.564L128.764 120.224H128.872C129.148 119.456 129.784 118.952 130.744 118.952ZM139.091 118.964C140.303 118.964 141.035 119.66 141.035 120.908V125.12H139.823V121.124C139.823 120.32 139.463 119.912 138.731 119.912C137.867 119.912 137.339 120.476 137.339 121.424V125.132H136.127V121.124C136.127 120.32 135.755 119.912 135.023 119.912C134.171 119.912 133.643 120.476 133.643 121.448V125.132H132.431V119.072H133.379V119.6L133.307 120.128H133.415C133.703 119.444 134.387 118.964 135.347 118.964C136.175 118.964 136.727 119.276 137.003 119.912L136.943 120.236H137.039C137.339 119.48 138.047 118.964 139.091 118.964ZM144.897 118.952C146.625 118.952 147.489 119.708 147.489 121.208V125.132H146.493V124.58L146.589 124.028H146.457C146.049 124.832 145.293 125.24 144.177 125.24C142.881 125.24 142.137 124.616 142.137 123.596C142.137 122.6 142.773 122 144.321 121.808L146.253 121.58V121.16C146.253 120.272 145.785 119.828 144.849 119.828C143.949 119.828 143.493 120.236 143.469 121.064H142.257C142.269 119.684 143.253 118.952 144.897 118.952ZM144.489 124.376C145.545 124.376 146.253 123.728 146.253 122.732V122.324L144.537 122.528C143.757 122.636 143.361 122.948 143.361 123.464C143.361 124.052 143.781 124.376 144.489 124.376ZM153.403 125.132H148.663V124.28L151.555 120.284L151.879 120.104V119.972L151.471 120.008H148.711V119.072H153.379V119.924L150.487 123.908L150.175 124.1V124.232L150.571 124.196H153.403V125.132ZM159.819 122.012V122.276H155.487C155.535 123.632 156.087 124.316 157.131 124.316C157.935 124.316 158.427 123.944 158.595 123.212H159.783C159.591 124.472 158.619 125.24 157.071 125.24C155.235 125.24 154.227 124.088 154.227 122.12C154.227 120.14 155.295 118.952 157.107 118.952C158.871 118.952 159.819 120.056 159.819 122.012ZM157.071 119.828C156.159 119.828 155.643 120.392 155.523 121.52H158.595C158.499 120.392 157.995 119.828 157.071 119.828ZM164.206 118.952C165.562 118.952 166.342 119.708 166.342 121.088V125.132H165.118V121.328C165.118 120.404 164.686 119.936 163.822 119.936C162.85 119.936 162.226 120.548 162.226 121.604V125.132H160.99V119.072H161.986V119.588L161.914 120.14H162.01C162.346 119.456 163.09 118.952 164.206 118.952ZM170.222 118.952C171.95 118.952 172.814 119.708 172.814 121.208V125.132H171.818V124.58L171.914 124.028H171.782C171.374 124.832 170.618 125.24 169.502 125.24C168.206 125.24 167.462 124.616 167.462 123.596C167.462 122.6 168.098 122 169.646 121.808L171.578 121.58V121.16C171.578 120.272 171.11 119.828 170.174 119.828C169.274 119.828 168.818 120.236 168.794 121.064H167.582C167.594 119.684 168.578 118.952 170.222 118.952ZM169.814 124.376C170.87 124.376 171.578 123.728 171.578 122.732V122.324L169.862 122.528C169.082 122.636 168.686 122.948 168.686 123.464C168.686 124.052 169.106 124.376 169.814 124.376ZM180.828 118.964C182.04 118.964 182.772 119.66 182.772 120.908V125.12H181.56V121.124C181.56 120.32 181.2 119.912 180.468 119.912C179.604 119.912 179.076 120.476 179.076 121.424V125.132H177.864V121.124C177.864 120.32 177.492 119.912 176.76 119.912C175.908 119.912 175.38 120.476 175.38 121.448V125.132H174.168V119.072H175.116V119.6L175.044 120.128H175.152C175.44 119.444 176.124 118.964 177.084 118.964C177.912 118.964 178.464 119.276 178.74 119.912L178.68 120.236H178.776C179.076 119.48 179.784 118.964 180.828 118.964ZM189.538 122.012V122.276H185.206C185.254 123.632 185.806 124.316 186.85 124.316C187.654 124.316 188.146 123.944 188.314 123.212H189.502C189.31 124.472 188.338 125.24 186.79 125.24C184.954 125.24 183.946 124.088 183.946 122.12C183.946 120.14 185.014 118.952 186.826 118.952C188.59 118.952 189.538 120.056 189.538 122.012ZM186.79 119.828C185.878 119.828 185.362 120.392 185.242 121.52H188.314C188.218 120.392 187.714 119.828 186.79 119.828ZM193.925 118.952C195.281 118.952 196.061 119.708 196.061 121.088V125.132H194.837V121.328C194.837 120.404 194.405 119.936 193.541 119.936C192.569 119.936 191.945 120.548 191.945 121.604V125.132H190.709V119.072H191.705V119.588L191.633 120.14H191.729C192.065 119.456 192.809 118.952 193.925 118.952ZM200.337 124.232C200.577 124.232 200.853 124.196 201.153 124.112V125.084C200.817 125.192 200.421 125.24 199.953 125.24C198.693 125.24 198.057 124.628 198.057 123.392V122.792V119.936H196.989V119.072H198.057V117.428H199.293V119.072H201.117V119.936H199.293V122.72V123.2C199.293 123.884 199.641 124.232 200.337 124.232ZM204.889 118.952C206.749 118.952 207.781 120.128 207.781 122.096C207.781 124.064 206.749 125.24 204.889 125.24C203.029 125.24 201.997 124.064 201.997 122.096C201.997 120.128 203.053 118.952 204.889 118.952ZM204.901 124.304C205.969 124.304 206.545 123.488 206.545 122.096C206.545 120.692 205.969 119.888 204.901 119.888C203.809 119.888 203.221 120.704 203.221 122.096C203.221 123.488 203.809 124.304 204.901 124.304Z" fill="#3A3A3A"/>
</svg>
