<svg width="329" height="108" viewBox="0 0 329 108" fill="none" xmlns="http://www.w3.org/2000/svg">
<path d="M21.396 16.3078C18.532 16.3078 16.916 14.6118 16.916 11.6038V5.09184H19.332V11.7798C19.332 13.3638 20.068 14.2118 21.412 14.2118C22.756 14.2118 23.492 13.3638 23.492 11.7798V5.09184H25.86V11.6038C25.86 14.6118 24.228 16.3078 21.396 16.3078ZM36.8425 7.84384C38.5065 7.84384 39.4665 8.80384 39.4665 10.4518V16.1318H37.2585V10.8678C37.2585 9.98784 36.8745 9.55584 36.1065 9.55584C35.2105 9.55584 34.6345 10.1638 34.6345 11.2038V16.1318H32.4265V10.8678C32.4265 9.98784 32.0425 9.55584 31.2585 9.55584C30.3625 9.55584 29.8025 10.1638 29.8025 11.2038V16.1318H27.5945V8.00384H29.2745V8.64384L29.1145 9.42784H29.3065C29.7065 8.51584 30.6025 7.84384 31.9305 7.84384C32.9225 7.84384 33.6265 8.19584 34.0425 8.88384L33.8985 9.50784H34.0745C34.5225 8.53184 35.4345 7.84384 36.8425 7.84384ZM44.5185 7.82784C46.9985 7.82784 48.2305 8.86784 48.2305 10.9478V16.1318H46.4705V15.4918L46.6465 14.7238H46.4225C45.8625 15.7638 44.8705 16.2918 43.4145 16.2918C41.6225 16.2918 40.6145 15.4278 40.6145 14.0358C40.6145 12.6118 41.5105 11.7958 43.6385 11.5398L45.9745 11.2678V10.8518C45.9745 9.87584 45.4785 9.37984 44.4705 9.37984C43.4945 9.37984 42.9985 9.84384 42.9825 10.7718H40.7745C40.7905 8.86784 42.1505 7.82784 44.5185 7.82784ZM44.0225 14.7558C45.1585 14.7558 45.9745 14.0518 45.9745 13.0118V12.5798L44.0865 12.7878C43.2705 12.8998 42.8545 13.2358 42.8545 13.7958C42.8545 14.4358 43.2385 14.7558 44.0225 14.7558ZM58.3409 16.1318H55.6369L52.8209 8.33984V8.00384H55.0929L56.7729 12.9638L56.8849 13.8278H57.1409L57.2529 12.9638L58.9169 8.00384H61.1569V8.32384L58.3409 16.1318ZM69.2264 11.9398V12.4358H63.7224C63.7864 13.9078 64.3624 14.6438 65.4504 14.6438C66.3144 14.6438 66.8424 14.2598 67.0344 13.4758H69.1944C68.9384 15.2038 67.5784 16.2918 65.3384 16.2918C62.7944 16.2918 61.4024 14.7878 61.4024 12.1158C61.4024 9.42784 62.9224 7.82784 65.4664 7.82784C67.9144 7.82784 69.2264 9.26784 69.2264 11.9398ZM65.4024 9.37984C64.4744 9.37984 63.9304 9.95584 63.7704 11.1238H66.9864C66.8424 9.95584 66.3144 9.37984 65.4024 9.37984ZM77.0249 16.1318H70.3849V14.5958L73.6969 10.1318L74.2409 9.85984V9.63584L73.5689 9.69984H70.4649V8.00384H76.9769V9.53984L73.6649 14.0038L73.1369 14.2758V14.4998L73.7929 14.4358H77.0249V16.1318ZM85.621 7.82784C88.101 7.82784 89.333 8.86784 89.333 10.9478V16.1318H87.573V15.4918L87.749 14.7238H87.525C86.965 15.7638 85.973 16.2918 84.517 16.2918C82.725 16.2918 81.717 15.4278 81.717 14.0358C81.717 12.6118 82.613 11.7958 84.741 11.5398L87.077 11.2678V10.8518C87.077 9.87584 86.581 9.37984 85.573 9.37984C84.597 9.37984 84.101 9.84384 84.085 10.7718H81.877C81.893 8.86784 83.253 7.82784 85.621 7.82784ZM85.125 14.7558C86.261 14.7558 87.077 14.0518 87.077 13.0118V12.5798L85.189 12.7878C84.373 12.8998 83.957 13.2358 83.957 13.7958C83.957 14.4358 84.341 14.7558 85.125 14.7558ZM94.6869 16.3078C92.0629 16.3078 90.5749 14.7558 90.5749 12.0678C90.5749 9.37984 92.0789 7.84384 94.7029 7.84384C96.9909 7.84384 98.4629 9.01184 98.6069 11.0118H96.3029C96.1269 10.0038 95.5829 9.49184 94.6709 9.49184C93.4709 9.49184 92.8789 10.3558 92.8789 12.0678C92.8789 13.7318 93.5029 14.6278 94.6709 14.6278C95.5669 14.6278 96.1109 14.1318 96.3029 13.1238H98.6069C98.4629 15.1078 97.0069 16.3078 94.6869 16.3078ZM107.364 11.9398V12.4358H101.86C101.924 13.9078 102.5 14.6438 103.588 14.6438C104.452 14.6438 104.98 14.2598 105.172 13.4758H107.332C107.076 15.2038 105.716 16.2918 103.476 16.2918C100.932 16.2918 99.5399 14.7878 99.5399 12.1158C99.5399 9.42784 101.06 7.82784 103.604 7.82784C106.052 7.82784 107.364 9.26784 107.364 11.9398ZM103.54 9.37984C102.612 9.37984 102.068 9.95584 101.908 11.1238H105.124C104.98 9.95584 104.452 9.37984 103.54 9.37984ZM111.082 6.78784H108.698V4.61184H111.082V6.78784ZM111.034 16.1318H108.762V8.00384H111.034V16.1318ZM116.936 14.4518C117.224 14.4518 117.544 14.4038 117.912 14.3238V16.0838C117.352 16.2278 116.776 16.2918 116.184 16.2918C114.312 16.2918 113.384 15.4118 113.384 13.6358V12.6758V9.53984H112.072V8.00384H113.384V5.82784H115.656V8.00384H117.88V9.53984H115.656V12.5318V13.2518C115.656 14.0518 116.088 14.4518 116.936 14.4518ZM122.805 7.82784C125.285 7.82784 126.517 8.86784 126.517 10.9478V16.1318H124.757V15.4918L124.933 14.7238H124.709C124.149 15.7638 123.157 16.2918 121.701 16.2918C119.909 16.2918 118.901 15.4278 118.901 14.0358C118.901 12.6118 119.797 11.7958 121.925 11.5398L124.261 11.2678V10.8518C124.261 9.87584 123.765 9.37984 122.757 9.37984C121.781 9.37984 121.285 9.84384 121.269 10.7718H119.061C119.077 8.86784 120.437 7.82784 122.805 7.82784ZM122.309 14.7558C123.445 14.7558 124.261 14.0518 124.261 13.0118V12.5798L122.373 12.7878C121.557 12.8998 121.141 13.2358 121.141 13.7958C121.141 14.4358 121.525 14.7558 122.309 14.7558ZM135.22 7.82784C137.7 7.82784 138.932 8.86784 138.932 10.9478V16.1318H137.172V15.4918L137.348 14.7238H137.124C136.564 15.7638 135.572 16.2918 134.116 16.2918C132.324 16.2918 131.316 15.4278 131.316 14.0358C131.316 12.6118 132.212 11.7958 134.34 11.5398L136.676 11.2678V10.8518C136.676 9.87584 136.18 9.37984 135.172 9.37984C134.196 9.37984 133.7 9.84384 133.684 10.7718H131.476C131.492 8.86784 132.852 7.82784 135.22 7.82784ZM134.724 14.7558C135.86 14.7558 136.676 14.0518 136.676 13.0118V12.5798L134.788 12.7878C133.972 12.8998 133.556 13.2358 133.556 13.7958C133.556 14.4358 133.94 14.7558 134.724 14.7558ZM147.426 16.2918C145.122 16.2918 143.89 15.4438 143.73 13.7318H145.858C146.018 14.4838 146.578 14.8678 147.522 14.8678C148.402 14.8678 148.962 14.5318 148.962 13.9078C148.962 13.4278 148.53 13.1078 147.666 12.9318L146.13 12.6598C144.642 12.3558 143.842 11.5398 143.842 10.4358C143.842 8.85184 145.202 7.82784 147.458 7.82784C149.65 7.82784 150.898 8.73984 151.01 10.3398H148.882C148.77 9.61984 148.258 9.26784 147.314 9.26784C146.466 9.26784 145.954 9.60384 145.954 10.1158C145.954 10.5478 146.386 10.8358 147.25 11.0118L148.738 11.2678C150.386 11.6038 151.218 12.3558 151.218 13.5558C151.218 15.2358 149.73 16.2918 147.426 16.2918ZM156.261 16.2918C153.685 16.2918 152.197 14.7398 152.197 12.0678C152.197 9.37984 153.685 7.82784 156.261 7.82784C158.837 7.82784 160.309 9.37984 160.309 12.0678C160.309 14.7398 158.869 16.2918 156.261 16.2918ZM156.261 14.5958C157.445 14.5958 158.037 13.7478 158.037 12.0678C158.037 10.3718 157.445 9.52384 156.261 9.52384C155.093 9.52384 154.453 10.4198 154.453 12.0678C154.453 13.6838 155.093 14.5958 156.261 14.5958ZM164.006 16.1318H161.734V4.61184H164.006V16.1318ZM168.064 6.78784H165.68V4.61184H168.064V6.78784ZM168.016 16.1318H165.744V8.00384H168.016V16.1318ZM173.486 16.3078C170.862 16.3078 169.374 14.7558 169.374 12.0678C169.374 9.37984 170.878 7.84384 173.502 7.84384C175.79 7.84384 177.262 9.01184 177.406 11.0118H175.102C174.926 10.0038 174.382 9.49184 173.47 9.49184C172.27 9.49184 171.678 10.3558 171.678 12.0678C171.678 13.7318 172.302 14.6278 173.47 14.6278C174.366 14.6278 174.91 14.1318 175.102 13.1238H177.406C177.262 15.1078 175.806 16.3078 173.486 16.3078ZM180.979 6.78784H178.595V4.61184H180.979V6.78784ZM180.931 16.1318H178.659V8.00384H180.931V16.1318ZM186.832 14.4518C187.12 14.4518 187.44 14.4038 187.808 14.3238V16.0838C187.248 16.2278 186.672 16.2918 186.08 16.2918C184.208 16.2918 183.28 15.4118 183.28 13.6358V12.6758V9.53984H181.968V8.00384H183.28V5.82784H185.552V8.00384H187.776V9.53984H185.552V12.5318V13.2518C185.552 14.0518 185.984 14.4518 186.832 14.4518ZM192.702 7.82784C195.182 7.82784 196.414 8.86784 196.414 10.9478V16.1318H194.654V15.4918L194.83 14.7238H194.606C194.046 15.7638 193.054 16.2918 191.598 16.2918C189.806 16.2918 188.798 15.4278 188.798 14.0358C188.798 12.6118 189.694 11.7958 191.822 11.5398L194.158 11.2678V10.8518C194.158 9.87584 193.662 9.37984 192.654 9.37984C191.678 9.37984 191.182 9.84384 191.166 10.7718H188.958C188.974 8.86784 190.334 7.82784 192.702 7.82784ZM192.206 14.7558C193.342 14.7558 194.158 14.0518 194.158 13.0118V12.5798L192.27 12.7878C191.454 12.8998 191.038 13.2358 191.038 13.7958C191.038 14.4358 191.422 14.7558 192.206 14.7558ZM201.752 14.6278C202.648 14.6278 203.192 14.1318 203.384 13.1238H205.688C205.56 14.9318 204.328 16.0998 202.344 16.2758L201.8 17.0438H202.04C203.24 17.0438 203.832 17.4758 203.832 18.3238C203.832 19.2838 202.968 19.8438 201.512 19.8438C200.888 19.8438 200.36 19.7798 199.944 19.6518L199.928 18.7078C200.376 18.8678 200.872 18.9478 201.416 18.9478C202.168 18.9478 202.536 18.7558 202.52 18.3558C202.536 18.0518 202.248 17.8918 201.624 17.8918H200.296V17.6198L201.224 16.2918C198.936 16.0838 197.656 14.5478 197.656 12.0678C197.656 9.37984 199.16 7.84384 201.784 7.84384C204.072 7.84384 205.544 9.01184 205.688 11.0118H203.384C203.208 10.0038 202.664 9.49184 201.752 9.49184C200.552 9.49184 199.96 10.3558 199.96 12.0678C199.96 13.7318 200.584 14.6278 201.752 14.6278ZM208.908 7.13984H207.852C207.724 6.03584 208.284 5.12384 209.436 5.12384C209.804 5.12384 210.172 5.25184 210.556 5.50784C210.94 5.76384 211.212 5.89184 211.372 5.89184C211.724 5.89184 211.868 5.65184 211.82 5.18784H212.956C213.084 6.33984 212.572 7.21984 211.468 7.21984C211.068 7.21984 210.668 7.09184 210.252 6.83584C209.852 6.56384 209.564 6.43584 209.42 6.43584C209.036 6.43584 208.86 6.67584 208.908 7.13984ZM210.428 7.82784C212.908 7.82784 214.14 8.86784 214.14 10.9478V16.1318H212.38V15.4918L212.556 14.7238H212.332C211.772 15.7638 210.78 16.2918 209.324 16.2918C207.532 16.2918 206.524 15.4278 206.524 14.0358C206.524 12.6118 207.42 11.7958 209.548 11.5398L211.884 11.2678V10.8518C211.884 9.87584 211.388 9.37984 210.38 9.37984C209.404 9.37984 208.908 9.84384 208.892 10.7718H206.684C206.7 8.86784 208.06 7.82784 210.428 7.82784ZM209.932 14.7558C211.068 14.7558 211.884 14.0518 211.884 13.0118V12.5798L209.996 12.7878C209.18 12.8998 208.764 13.2358 208.764 13.7958C208.764 14.4358 209.148 14.7558 209.932 14.7558ZM219.446 16.2918C216.87 16.2918 215.382 14.7398 215.382 12.0678C215.382 9.37984 216.87 7.82784 219.446 7.82784C222.022 7.82784 223.494 9.37984 223.494 12.0678C223.494 14.7398 222.054 16.2918 219.446 16.2918ZM219.446 14.5958C220.63 14.5958 221.222 13.7478 221.222 12.0678C221.222 10.3718 220.63 9.52384 219.446 9.52384C218.278 9.52384 217.638 10.4198 217.638 12.0678C217.638 13.6838 218.278 14.5958 219.446 14.5958ZM224.608 16.1318V13.5558H226.896V15.4118C226.896 16.6278 226.288 17.7318 225.28 18.3238H224.08V18.0198C224.816 17.5238 225.296 16.8838 225.536 16.1318H224.608ZM237.755 8.11584V4.61184H240.027V16.1318H238.251V15.4758L238.411 14.7238H238.203C237.739 15.6358 236.795 16.2918 235.403 16.2918C233.307 16.2918 232.043 14.7398 232.043 12.0678C232.043 9.39584 233.323 7.82784 235.419 7.82784C236.747 7.82784 237.675 8.35584 238.203 9.41184H238.411L238.251 8.75584L237.755 8.11584ZM236.091 14.5798C237.179 14.5798 237.787 13.6998 237.787 12.0518C237.787 10.3718 237.227 9.53984 236.091 9.53984C234.955 9.53984 234.363 10.4358 234.363 12.0518C234.363 13.6678 234.955 14.5798 236.091 14.5798ZM243.914 6.78784H241.53V4.61184H243.914V6.78784ZM243.866 16.1318H241.594V8.00384H243.866V16.1318ZM249.735 7.82784C250.167 7.82784 250.535 7.89184 250.823 8.01984V10.1318C250.455 10.0198 250.087 9.95584 249.751 9.95584C248.471 9.95584 247.703 10.8198 247.703 12.2438V16.1318H245.447V8.00384H247.223V8.61184L247.047 9.60384H247.255C247.575 8.56384 248.455 7.82784 249.735 7.82784ZM254.203 6.78784H251.819V4.61184H254.203V6.78784ZM254.155 16.1318H251.883V8.00384H254.155V16.1318ZM258.2 6.78784H255.832V4.61184H258.216L258.2 6.78784ZM255.528 19.0758C255.144 19.0758 254.776 19.0278 254.408 18.9478V17.2038C254.584 17.2518 254.776 17.2838 254.968 17.2838C255.624 17.2838 255.896 16.9638 255.896 16.2438V8.00384H258.168V16.3078C258.168 18.1638 257.336 19.0758 255.528 19.0758ZM263.332 7.82784C265.812 7.82784 267.044 8.86784 267.044 10.9478V16.1318H265.284V15.4918L265.46 14.7238H265.236C264.676 15.7638 263.684 16.2918 262.228 16.2918C260.436 16.2918 259.428 15.4278 259.428 14.0358C259.428 12.6118 260.324 11.7958 262.452 11.5398L264.788 11.2678V10.8518C264.788 9.87584 264.292 9.37984 263.284 9.37984C262.308 9.37984 261.812 9.84384 261.796 10.7718H259.588C259.604 8.86784 260.964 7.82784 263.332 7.82784ZM262.836 14.7558C263.972 14.7558 264.788 14.0518 264.788 13.0118V12.5798L262.9 12.7878C262.084 12.8998 261.668 13.2358 261.668 13.7958C261.668 14.4358 262.052 14.7558 262.836 14.7558ZM273.454 12.9158H268.67V11.0758H273.454V12.9158ZM278.492 16.2918C276.188 16.2918 274.956 15.4438 274.796 13.7318H276.924C277.084 14.4838 277.644 14.8678 278.588 14.8678C279.468 14.8678 280.028 14.5318 280.028 13.9078C280.028 13.4278 279.596 13.1078 278.732 12.9318L277.196 12.6598C275.708 12.3558 274.908 11.5398 274.908 10.4358C274.908 8.85184 276.268 7.82784 278.524 7.82784C280.716 7.82784 281.964 8.73984 282.076 10.3398H279.948C279.836 9.61984 279.324 9.26784 278.38 9.26784C277.532 9.26784 277.02 9.60384 277.02 10.1158C277.02 10.5478 277.452 10.8358 278.316 11.0118L279.804 11.2678C281.452 11.6038 282.284 12.3558 282.284 13.5558C282.284 15.2358 280.796 16.2918 278.492 16.2918ZM291.087 11.9398V12.4358H285.583C285.647 13.9078 286.223 14.6438 287.311 14.6438C288.175 14.6438 288.703 14.2598 288.895 13.4758H291.055C290.799 15.2038 289.439 16.2918 287.199 16.2918C284.655 16.2918 283.263 14.7878 283.263 12.1158C283.263 9.42784 284.783 7.82784 287.327 7.82784C289.775 7.82784 291.087 9.26784 291.087 11.9398ZM287.263 9.37984C286.335 9.37984 285.791 9.95584 285.631 11.1238H288.847C288.703 9.95584 288.175 9.37984 287.263 9.37984ZM299.626 7.82784C302.106 7.82784 303.338 8.86784 303.338 10.9478V16.1318H301.578V15.4918L301.754 14.7238H301.53C300.97 15.7638 299.978 16.2918 298.522 16.2918C296.73 16.2918 295.722 15.4278 295.722 14.0358C295.722 12.6118 296.618 11.7958 298.746 11.5398L301.082 11.2678V10.8518C301.082 9.87584 300.586 9.37984 299.578 9.37984C298.602 9.37984 298.106 9.84384 298.09 10.7718H295.882C295.898 8.86784 297.258 7.82784 299.626 7.82784ZM299.13 14.7558C300.266 14.7558 301.082 14.0518 301.082 13.0118V12.5798L299.194 12.7878C298.378 12.8998 297.962 13.2358 297.962 13.7958C297.962 14.4358 298.346 14.7558 299.13 14.7558ZM308.644 16.2918C306.068 16.2918 304.58 14.7398 304.58 12.0678C304.58 9.37984 306.068 7.82784 308.644 7.82784C311.22 7.82784 312.692 9.37984 312.692 12.0678C312.692 14.7398 311.252 16.2918 308.644 16.2918ZM308.644 14.5958C309.828 14.5958 310.42 13.7478 310.42 12.0678C310.42 10.3718 309.828 9.52384 308.644 9.52384C307.476 9.52384 306.836 10.4198 306.836 12.0678C306.836 13.6838 307.476 14.5958 308.644 14.5958ZM47.1434 38.3078C44.5194 38.3078 43.0314 36.7558 43.0314 34.0678C43.0314 31.3798 44.5354 29.8438 47.1594 29.8438C49.4474 29.8438 50.9194 31.0118 51.0634 33.0118H48.7594C48.5834 32.0038 48.0394 31.4918 47.1274 31.4918C45.9274 31.4918 45.3354 32.3558 45.3354 34.0678C45.3354 35.7318 45.9594 36.6278 47.1274 36.6278C48.0234 36.6278 48.5674 36.1318 48.7594 35.1238H51.0634C50.9194 37.1078 49.4634 38.3078 47.1434 38.3078ZM59.8204 33.9398V34.4358H54.3164C54.3804 35.9078 54.9564 36.6438 56.0444 36.6438C56.9084 36.6438 57.4364 36.2598 57.6284 35.4758H59.7884C59.5324 37.2038 58.1724 38.2918 55.9324 38.2918C53.3884 38.2918 51.9964 36.7878 51.9964 34.1158C51.9964 31.4278 53.5164 29.8278 56.0604 29.8278C58.5084 29.8278 59.8204 31.2678 59.8204 33.9398ZM55.9964 31.3798C55.0684 31.3798 54.5244 31.9558 54.3644 33.1238H57.5804C57.4364 31.9558 56.9084 31.3798 55.9964 31.3798ZM65.8429 29.8278C67.6829 29.8278 68.7069 30.8358 68.7069 32.6118V38.1318H66.4509V33.0918C66.4509 32.0998 66.0029 31.6038 65.0909 31.6038C64.0509 31.6038 63.3789 32.2598 63.3789 33.3958V38.1318H61.1229V30.0038H62.8989V30.6278L62.7389 31.3798H62.9309C63.3789 30.4838 64.3709 29.8278 65.8429 29.8278ZM74.5173 36.4518C74.8053 36.4518 75.1253 36.4038 75.4933 36.3238V38.0838C74.9333 38.2278 74.3573 38.2918 73.7653 38.2918C71.8933 38.2918 70.9653 37.4118 70.9653 35.6358V34.6758V31.5398H69.6533V30.0038H70.9653V27.8278H73.2373V30.0038H75.4613V31.5398H73.2373V34.5318V35.2518C73.2373 36.0518 73.6693 36.4518 74.5173 36.4518ZM81.0441 29.8278C81.4761 29.8278 81.8441 29.8918 82.1321 30.0198V32.1318C81.7641 32.0198 81.3961 31.9558 81.0601 31.9558C79.7801 31.9558 79.0121 32.8198 79.0121 34.2438V38.1318H76.7561V30.0038H78.5321V30.6118L78.3561 31.6038H78.5641C78.8841 30.5638 79.7641 29.8278 81.0441 29.8278ZM86.8111 38.2918C84.2351 38.2918 82.7471 36.7398 82.7471 34.0678C82.7471 31.3798 84.2351 29.8278 86.8111 29.8278C89.3871 29.8278 90.8591 31.3798 90.8591 34.0678C90.8591 36.7398 89.4191 38.2918 86.8111 38.2918ZM86.8111 36.5958C87.9951 36.5958 88.5871 35.7478 88.5871 34.0678C88.5871 32.3718 87.9951 31.5238 86.8111 31.5238C85.6431 31.5238 85.0031 32.4198 85.0031 34.0678C85.0031 35.6838 85.6431 36.5958 86.8111 36.5958ZM101.28 30.1158V26.6118H103.552V38.1318H101.776V37.4758L101.936 36.7238H101.728C101.264 37.6358 100.32 38.2918 98.9277 38.2918C96.8317 38.2918 95.5677 36.7398 95.5677 34.0678C95.5677 31.3958 96.8477 29.8278 98.9437 29.8278C100.272 29.8278 101.2 30.3558 101.728 31.4118H101.936L101.776 30.7558L101.28 30.1158ZM99.6157 36.5798C100.704 36.5798 101.312 35.6998 101.312 34.0518C101.312 32.3718 100.752 31.5398 99.6157 31.5398C98.4797 31.5398 97.8877 32.4358 97.8877 34.0518C97.8877 35.6678 98.4797 36.5798 99.6157 36.5798ZM112.575 33.9398V34.4358H107.071C107.135 35.9078 107.711 36.6438 108.799 36.6438C109.663 36.6438 110.191 36.2598 110.383 35.4758H112.543C112.287 37.2038 110.927 38.2918 108.687 38.2918C106.143 38.2918 104.751 36.7878 104.751 34.1158C104.751 31.4278 106.271 29.8278 108.815 29.8278C111.263 29.8278 112.575 31.2678 112.575 33.9398ZM108.751 31.3798C107.823 31.3798 107.279 31.9558 107.119 33.1238H110.335C110.191 31.9558 109.663 31.3798 108.751 31.3798ZM121.114 29.8278C123.594 29.8278 124.826 30.8678 124.826 32.9478V38.1318H123.066V37.4918L123.242 36.7238H123.018C122.458 37.7638 121.466 38.2918 120.01 38.2918C118.218 38.2918 117.21 37.4278 117.21 36.0358C117.21 34.6118 118.106 33.7958 120.234 33.5398L122.57 33.2678V32.8518C122.57 31.8758 122.074 31.3798 121.066 31.3798C120.09 31.3798 119.594 31.8438 119.578 32.7718H117.37C117.386 30.8678 118.746 29.8278 121.114 29.8278ZM120.618 36.7558C121.754 36.7558 122.57 36.0518 122.57 35.0118V34.5798L120.682 34.7878C119.866 34.8998 119.45 35.2358 119.45 35.7958C119.45 36.4358 119.834 36.7558 120.618 36.7558ZM130.58 29.8278C131.012 29.8278 131.38 29.8918 131.668 30.0198V32.1318C131.3 32.0198 130.932 31.9558 130.596 31.9558C129.316 31.9558 128.548 32.8198 128.548 34.2438V38.1318H126.292V30.0038H128.068V30.6118L127.892 31.6038H128.1C128.42 30.5638 129.3 29.8278 130.58 29.8278ZM141.88 29.8438C143.544 29.8438 144.504 30.8038 144.504 32.4518V38.1318H142.296V32.8678C142.296 31.9878 141.912 31.5558 141.144 31.5558C140.248 31.5558 139.672 32.1638 139.672 33.2038V38.1318H137.464V32.8678C137.464 31.9878 137.08 31.5558 136.296 31.5558C135.4 31.5558 134.84 32.1638 134.84 33.2038V38.1318H132.632V30.0038H134.312V30.6438L134.152 31.4278H134.344C134.744 30.5158 135.64 29.8438 136.968 29.8438C137.96 29.8438 138.664 30.1958 139.08 30.8838L138.936 31.5078H139.112C139.56 30.5318 140.472 29.8438 141.88 29.8438ZM149.556 29.8278C152.036 29.8278 153.268 30.8678 153.268 32.9478V38.1318H151.508V37.4918L151.684 36.7238H151.46C150.9 37.7638 149.908 38.2918 148.452 38.2918C146.66 38.2918 145.652 37.4278 145.652 36.0358C145.652 34.6118 146.548 33.7958 148.676 33.5398L151.012 33.2678V32.8518C151.012 31.8758 150.516 31.3798 149.508 31.3798C148.532 31.3798 148.036 31.8438 148.02 32.7718H145.812C145.828 30.8678 147.188 29.8278 149.556 29.8278ZM149.06 36.7558C150.196 36.7558 151.012 36.0518 151.012 35.0118V34.5798L149.124 34.7878C148.308 34.8998 147.892 35.2358 147.892 35.7958C147.892 36.4358 148.276 36.7558 149.06 36.7558ZM161.23 38.1318H154.59V36.5958L157.902 32.1318L158.446 31.8598V31.6358L157.774 31.6998H154.67V30.0038H161.182V31.5398L157.87 36.0038L157.342 36.2758V36.4998L157.998 36.4358H161.23V38.1318ZM169.924 33.9398V34.4358H164.42C164.484 35.9078 165.06 36.6438 166.148 36.6438C167.012 36.6438 167.54 36.2598 167.732 35.4758H169.892C169.636 37.2038 168.276 38.2918 166.036 38.2918C163.492 38.2918 162.1 36.7878 162.1 34.1158C162.1 31.4278 163.62 29.8278 166.164 29.8278C168.612 29.8278 169.924 31.2678 169.924 33.9398ZM166.1 31.3798C165.172 31.3798 164.628 31.9558 164.468 33.1238H167.684C167.54 31.9558 167.012 31.3798 166.1 31.3798ZM175.947 29.8278C177.787 29.8278 178.811 30.8358 178.811 32.6118V38.1318H176.555V33.0918C176.555 32.0998 176.107 31.6038 175.195 31.6038C174.155 31.6038 173.483 32.2598 173.483 33.3958V38.1318H171.227V30.0038H173.003V30.6278L172.843 31.3798H173.035C173.483 30.4838 174.475 29.8278 175.947 29.8278ZM183.885 29.8278C186.365 29.8278 187.597 30.8678 187.597 32.9478V38.1318H185.837V37.4918L186.013 36.7238H185.789C185.229 37.7638 184.237 38.2918 182.781 38.2918C180.989 38.2918 179.981 37.4278 179.981 36.0358C179.981 34.6118 180.877 33.7958 183.005 33.5398L185.341 33.2678V32.8518C185.341 31.8758 184.845 31.3798 183.837 31.3798C182.861 31.3798 182.365 31.8438 182.349 32.7718H180.141C180.157 30.8678 181.517 29.8278 183.885 29.8278ZM183.389 36.7558C184.525 36.7558 185.341 36.0518 185.341 35.0118V34.5798L183.453 34.7878C182.637 34.8998 182.221 35.2358 182.221 35.7958C182.221 36.4358 182.605 36.7558 183.389 36.7558ZM198.311 29.8438C199.975 29.8438 200.935 30.8038 200.935 32.4518V38.1318H198.727V32.8678C198.727 31.9878 198.343 31.5558 197.575 31.5558C196.679 31.5558 196.103 32.1638 196.103 33.2038V38.1318H193.895V32.8678C193.895 31.9878 193.511 31.5558 192.727 31.5558C191.831 31.5558 191.271 32.1638 191.271 33.2038V38.1318H189.063V30.0038H190.743V30.6438L190.583 31.4278H190.775C191.175 30.5158 192.071 29.8438 193.399 29.8438C194.391 29.8438 195.095 30.1958 195.511 30.8838L195.367 31.5078H195.543C195.991 30.5318 196.903 29.8438 198.311 29.8438ZM210.003 33.9398V34.4358H204.499C204.563 35.9078 205.139 36.6438 206.227 36.6438C207.091 36.6438 207.619 36.2598 207.811 35.4758H209.971C209.715 37.2038 208.355 38.2918 206.115 38.2918C203.571 38.2918 202.179 36.7878 202.179 34.1158C202.179 31.4278 203.699 29.8278 206.243 29.8278C208.691 29.8278 210.003 31.2678 210.003 33.9398ZM206.179 31.3798C205.251 31.3798 204.707 31.9558 204.547 33.1238H207.763C207.619 31.9558 207.091 31.3798 206.179 31.3798ZM216.025 29.8278C217.865 29.8278 218.889 30.8358 218.889 32.6118V38.1318H216.633V33.0918C216.633 32.0998 216.185 31.6038 215.273 31.6038C214.233 31.6038 213.561 32.2598 213.561 33.3958V38.1318H211.305V30.0038H213.081V30.6278L212.921 31.3798H213.113C213.561 30.4838 214.553 29.8278 216.025 29.8278ZM224.7 36.4518C224.988 36.4518 225.308 36.4038 225.676 36.3238V38.0838C225.116 38.2278 224.54 38.2918 223.948 38.2918C222.076 38.2918 221.148 37.4118 221.148 35.6358V34.6758V31.5398H219.836V30.0038H221.148V27.8278H223.42V30.0038H225.644V31.5398H223.42V34.5318V35.2518C223.42 36.0518 223.852 36.4518 224.7 36.4518ZM230.607 38.2918C228.031 38.2918 226.543 36.7398 226.543 34.0678C226.543 31.3798 228.031 29.8278 230.607 29.8278C233.183 29.8278 234.655 31.3798 234.655 34.0678C234.655 36.7398 233.215 38.2918 230.607 38.2918ZM230.607 36.5958C231.791 36.5958 232.383 35.7478 232.383 34.0678C232.383 32.3718 231.791 31.5238 230.607 31.5238C229.439 31.5238 228.799 32.4198 228.799 34.0678C228.799 35.6838 229.439 36.5958 230.607 36.5958ZM245.075 30.1158V26.6118H247.347V38.1318H245.571V37.4758L245.731 36.7238H245.523C245.059 37.6358 244.115 38.2918 242.723 38.2918C240.627 38.2918 239.363 36.7398 239.363 34.0678C239.363 31.3958 240.643 29.8278 242.739 29.8278C244.067 29.8278 244.995 30.3558 245.523 31.4118H245.731L245.571 30.7558L245.075 30.1158ZM243.411 36.5798C244.499 36.5798 245.107 35.6998 245.107 34.0518C245.107 32.3718 244.547 31.5398 243.411 31.5398C242.275 31.5398 241.683 32.4358 241.683 34.0518C241.683 35.6678 242.275 36.5798 243.411 36.5798ZM256.371 33.9398V34.4358H250.867C250.931 35.9078 251.507 36.6438 252.595 36.6438C253.459 36.6438 253.987 36.2598 254.179 35.4758H256.339C256.083 37.2038 254.723 38.2918 252.483 38.2918C249.939 38.2918 248.547 36.7878 248.547 34.1158C248.547 31.4278 250.067 29.8278 252.611 29.8278C255.059 29.8278 256.371 31.2678 256.371 33.9398ZM252.547 31.3798C251.619 31.3798 251.075 31.9558 250.915 33.1238H254.131C253.987 31.9558 253.459 31.3798 252.547 31.3798ZM264.702 38.2918C262.398 38.2918 261.166 37.4438 261.006 35.7318H263.134C263.294 36.4838 263.854 36.8678 264.798 36.8678C265.678 36.8678 266.238 36.5318 266.238 35.9078C266.238 35.4278 265.806 35.1078 264.942 34.9318L263.406 34.6598C261.918 34.3558 261.118 33.5398 261.118 32.4358C261.118 30.8518 262.478 29.8278 264.734 29.8278C266.926 29.8278 268.174 30.7398 268.286 32.3398H266.158C266.046 31.6198 265.534 31.2678 264.59 31.2678C263.742 31.2678 263.23 31.6038 263.23 32.1158C263.23 32.5478 263.662 32.8358 264.526 33.0118L266.014 33.2678C267.662 33.6038 268.494 34.3558 268.494 35.5558C268.494 37.2358 267.006 38.2918 264.702 38.2918ZM274.897 34.7398V30.0038H277.169V38.1318H275.393V37.5078L275.553 36.7398H275.361C274.913 37.6358 273.953 38.2918 272.497 38.2918C270.689 38.2918 269.697 37.2838 269.697 35.4918V30.0038H271.953V35.0438C271.953 36.0358 272.385 36.5318 273.265 36.5318C274.241 36.5318 274.897 35.8438 274.897 34.7398ZM282.231 29.8278C284.711 29.8278 285.943 30.8678 285.943 32.9478V38.1318H284.183V37.4918L284.359 36.7238H284.135C283.575 37.7638 282.583 38.2918 281.127 38.2918C279.335 38.2918 278.327 37.4278 278.327 36.0358C278.327 34.6118 279.223 33.7958 281.351 33.5398L283.687 33.2678V32.8518C283.687 31.8758 283.191 31.3798 282.183 31.3798C281.207 31.3798 280.711 31.8438 280.695 32.7718H278.487C278.503 30.8678 279.863 29.8278 282.231 29.8278ZM281.735 36.7558C282.871 36.7558 283.687 36.0518 283.687 35.0118V34.5798L281.799 34.7878C280.983 34.8998 280.567 35.2358 280.567 35.7958C280.567 36.4358 280.951 36.7558 281.735 36.7558ZM30.0416 60.3078C27.4176 60.3078 25.9296 58.7558 25.9296 56.0678C25.9296 53.3798 27.4336 51.8438 30.0576 51.8438C32.3456 51.8438 33.8176 53.0118 33.9616 55.0118H31.6576C31.4816 54.0038 30.9376 53.4918 30.0256 53.4918C28.8256 53.4918 28.2336 54.3558 28.2336 56.0678C28.2336 57.7318 28.8576 58.6278 30.0256 58.6278C30.9216 58.6278 31.4656 58.1318 31.6576 57.1238H33.9616C33.8176 59.1078 32.3616 60.3078 30.0416 60.3078ZM38.9586 60.2918C36.3826 60.2918 34.8946 58.7398 34.8946 56.0678C34.8946 53.3798 36.3826 51.8278 38.9586 51.8278C41.5346 51.8278 43.0066 53.3798 43.0066 56.0678C43.0066 58.7398 41.5666 60.2918 38.9586 60.2918ZM38.9586 58.5958C40.1426 58.5958 40.7346 57.7478 40.7346 56.0678C40.7346 54.3718 40.1426 53.5238 38.9586 53.5238C37.7906 53.5238 37.1506 54.4198 37.1506 56.0678C37.1506 57.6838 37.7906 58.5958 38.9586 58.5958ZM53.5347 51.8438C55.1987 51.8438 56.1587 52.8038 56.1587 54.4518V60.1318H53.9507V54.8678C53.9507 53.9878 53.5667 53.5558 52.7987 53.5558C51.9027 53.5558 51.3267 54.1638 51.3267 55.2038V60.1318H49.1187V54.8678C49.1187 53.9878 48.7347 53.5558 47.9507 53.5558C47.0547 53.5558 46.4947 54.1638 46.4947 55.2038V60.1318H44.2867V52.0038H45.9667V52.6438L45.8067 53.4278H45.9987C46.3987 52.5158 47.2947 51.8438 48.6227 51.8438C49.6147 51.8438 50.3187 52.1958 50.7347 52.8838L50.5907 53.5078H50.7667C51.2147 52.5318 52.1267 51.8438 53.5347 51.8438ZM62.8267 56.7398V52.0038H65.0987V60.1318H63.3227V59.5078L63.4827 58.7398H63.2907C62.8427 59.6358 61.8827 60.2918 60.4267 60.2918C58.6187 60.2918 57.6267 59.2838 57.6267 57.4918V52.0038H59.8827V57.0438C59.8827 58.0358 60.3147 58.5318 61.1947 58.5318C62.1707 58.5318 62.8267 57.8438 62.8267 56.7398ZM71.2961 51.8278C73.1361 51.8278 74.1601 52.8358 74.1601 54.6118V60.1318H71.9041V55.0918C71.9041 54.0998 71.4561 53.6038 70.5441 53.6038C69.5041 53.6038 68.8321 54.2598 68.8321 55.3958V60.1318H66.5761V52.0038H68.3521V52.6278L68.1921 53.3798H68.3841C68.8321 52.4838 69.8241 51.8278 71.2961 51.8278ZM78.0664 50.7878H75.6824V48.6118H78.0664V50.7878ZM78.0184 60.1318H75.7464V52.0038H78.0184V60.1318ZM85.0878 52.1158V48.6118H87.3598V60.1318H85.5838V59.4758L85.7438 58.7238H85.5358C85.0718 59.6358 84.1278 60.2918 82.7358 60.2918C80.6398 60.2918 79.3758 58.7398 79.3758 56.0678C79.3758 53.3958 80.6558 51.8278 82.7518 51.8278C84.0798 51.8278 85.0078 52.3558 85.5358 53.4118H85.7438L85.5838 52.7558L85.0878 52.1158ZM83.4238 58.5798C84.5118 58.5798 85.1198 57.6998 85.1198 56.0518C85.1198 54.3718 84.5598 53.5398 83.4238 53.5398C82.2878 53.5398 81.6958 54.4358 81.6958 56.0518C81.6958 57.6678 82.2878 58.5798 83.4238 58.5798ZM92.4144 51.8278C94.8944 51.8278 96.1264 52.8678 96.1264 54.9478V60.1318H94.3664V59.4918L94.5424 58.7238H94.3184C93.7584 59.7638 92.7664 60.2918 91.3104 60.2918C89.5184 60.2918 88.5104 59.4278 88.5104 58.0358C88.5104 56.6118 89.4064 55.7958 91.5344 55.5398L93.8704 55.2678V54.8518C93.8704 53.8758 93.3744 53.3798 92.3664 53.3798C91.3904 53.3798 90.8944 53.8438 90.8784 54.7718H88.6704C88.6864 52.8678 90.0464 51.8278 92.4144 51.8278ZM91.9184 58.7558C93.0544 58.7558 93.8704 58.0518 93.8704 57.0118V56.5798L91.9824 56.7878C91.1664 56.8998 90.7504 57.2358 90.7504 57.7958C90.7504 58.4358 91.1344 58.7558 91.9184 58.7558ZM103.08 52.1158V48.6118H105.352V60.1318H103.576V59.4758L103.736 58.7238H103.528C103.064 59.6358 102.12 60.2918 100.728 60.2918C98.6323 60.2918 97.3683 58.7398 97.3683 56.0678C97.3683 53.3958 98.6483 51.8278 100.744 51.8278C102.072 51.8278 103 52.3558 103.528 53.4118H103.736L103.576 52.7558L103.08 52.1158ZM101.416 58.5798C102.504 58.5798 103.112 57.6998 103.112 56.0518C103.112 54.3718 102.552 53.5398 101.416 53.5398C100.28 53.5398 99.6883 54.4358 99.6883 56.0518C99.6883 57.6678 100.28 58.5798 101.416 58.5798ZM114.376 55.9398V56.4358H108.872C108.936 57.9078 109.512 58.6438 110.6 58.6438C111.464 58.6438 111.992 58.2598 112.184 57.4758H114.344C114.088 59.2038 112.728 60.2918 110.488 60.2918C107.944 60.2918 106.552 58.7878 106.552 56.1158C106.552 53.4278 108.072 51.8278 110.616 51.8278C113.064 51.8278 114.376 53.2678 114.376 55.9398ZM110.552 53.3798C109.624 53.3798 109.08 53.9558 108.92 55.1238H112.136C111.992 53.9558 111.464 53.3798 110.552 53.3798ZM123.955 51.8438C126.115 51.8438 127.299 53.3798 127.299 56.0678C127.299 58.7718 126.099 60.3078 123.939 60.3078C122.611 60.3078 121.683 59.7798 121.155 58.7238H120.947L121.107 59.3798L121.603 60.0198V63.0918H119.331V52.0038H121.107V52.6598L120.947 53.4118H121.155C121.619 52.4998 122.563 51.8438 123.955 51.8438ZM123.267 58.5958C124.403 58.5958 124.995 57.6998 124.995 56.0838C124.995 54.4838 124.371 53.5558 123.267 53.5558C122.179 53.5558 121.555 54.4358 121.555 56.0838C121.555 57.7318 122.163 58.5958 123.267 58.5958ZM132.177 51.8278C134.657 51.8278 135.889 52.8678 135.889 54.9478V60.1318H134.129V59.4918L134.305 58.7238H134.081C133.521 59.7638 132.529 60.2918 131.073 60.2918C129.281 60.2918 128.273 59.4278 128.273 58.0358C128.273 56.6118 129.169 55.7958 131.297 55.5398L133.633 55.2678V54.8518C133.633 53.8758 133.137 53.3798 132.129 53.3798C131.153 53.3798 130.657 53.8438 130.641 54.7718H128.433C128.449 52.8678 129.809 51.8278 132.177 51.8278ZM131.681 58.7558C132.817 58.7558 133.633 58.0518 133.633 57.0118V56.5798L131.745 56.7878C130.929 56.8998 130.513 57.2358 130.513 57.7958C130.513 58.4358 130.897 58.7558 131.681 58.7558ZM141.643 51.8278C142.075 51.8278 142.443 51.8918 142.731 52.0198V54.1318C142.363 54.0198 141.995 53.9558 141.659 53.9558C140.379 53.9558 139.611 54.8198 139.611 56.2438V60.1318H137.355V52.0038H139.131V52.6118L138.955 53.6038H139.163C139.483 52.5638 140.363 51.8278 141.643 51.8278ZM147.232 51.8278C149.712 51.8278 150.944 52.8678 150.944 54.9478V60.1318H149.184V59.4918L149.36 58.7238H149.136C148.576 59.7638 147.584 60.2918 146.128 60.2918C144.336 60.2918 143.328 59.4278 143.328 58.0358C143.328 56.6118 144.224 55.7958 146.352 55.5398L148.688 55.2678V54.8518C148.688 53.8758 148.192 53.3798 147.184 53.3798C146.208 53.3798 145.712 53.8438 145.696 54.7718H143.488C143.504 52.8678 144.864 51.8278 147.232 51.8278ZM146.736 58.7558C147.872 58.7558 148.688 58.0518 148.688 57.0118V56.5798L146.8 56.7878C145.984 56.8998 145.568 57.2358 145.568 57.7958C145.568 58.4358 145.952 58.7558 146.736 58.7558ZM160.35 51.8278C160.782 51.8278 161.15 51.8918 161.438 52.0198V54.1318C161.07 54.0198 160.702 53.9558 160.366 53.9558C159.086 53.9558 158.318 54.8198 158.318 56.2438V60.1318H156.062V52.0038H157.838V52.6118L157.662 53.6038H157.87C158.19 52.5638 159.07 51.8278 160.35 51.8278ZM169.877 55.9398V56.4358H164.373C164.437 57.9078 165.013 58.6438 166.101 58.6438C166.965 58.6438 167.493 58.2598 167.685 57.4758H169.845C169.589 59.2038 168.229 60.2918 165.989 60.2918C163.445 60.2918 162.053 58.7878 162.053 56.1158C162.053 53.4278 163.573 51.8278 166.117 51.8278C168.565 51.8278 169.877 53.2678 169.877 55.9398ZM166.053 53.3798C165.125 53.3798 164.581 53.9558 164.421 55.1238H167.637C167.493 53.9558 166.965 53.3798 166.053 53.3798ZM175.281 58.4518C175.569 58.4518 175.889 58.4038 176.257 58.3238V60.0838C175.697 60.2278 175.121 60.2918 174.529 60.2918C172.657 60.2918 171.729 59.4118 171.729 57.6358V56.6758V53.5398H170.417V52.0038H171.729V49.8278H174.001V52.0038H176.225V53.5398H174.001V56.5318V57.2518C174.001 58.0518 174.433 58.4518 175.281 58.4518ZM179.936 50.7878H177.552V48.6118H179.936V50.7878ZM179.888 60.1318H177.616V52.0038H179.888V60.1318ZM185.757 51.8278C186.189 51.8278 186.557 51.8918 186.845 52.0198V54.1318C186.477 54.0198 186.109 53.9558 185.773 53.9558C184.493 53.9558 183.725 54.8198 183.725 56.2438V60.1318H181.469V52.0038H183.245V52.6118L183.069 53.6038H183.277C183.597 52.5638 184.477 51.8278 185.757 51.8278ZM191.346 51.8278C193.826 51.8278 195.058 52.8678 195.058 54.9478V60.1318H193.298V59.4918L193.474 58.7238H193.25C192.69 59.7638 191.698 60.2918 190.242 60.2918C188.45 60.2918 187.442 59.4278 187.442 58.0358C187.442 56.6118 188.338 55.7958 190.466 55.5398L192.802 55.2678V54.8518C192.802 53.8758 192.306 53.3798 191.298 53.3798C190.322 53.3798 189.826 53.8438 189.81 54.7718H187.602C187.618 52.8678 188.978 51.8278 191.346 51.8278ZM190.85 58.7558C191.986 58.7558 192.802 58.0518 192.802 57.0118V56.5798L190.914 56.7878C190.098 56.8998 189.682 57.2358 189.682 57.7958C189.682 58.4358 190.066 58.7558 190.85 58.7558ZM200.812 51.8278C201.244 51.8278 201.612 51.8918 201.9 52.0198V54.1318C201.532 54.0198 201.164 53.9558 200.828 53.9558C199.548 53.9558 198.78 54.8198 198.78 56.2438V60.1318H196.524V52.0038H198.3V52.6118L198.124 53.6038H198.332C198.652 52.5638 199.532 51.8278 200.812 51.8278ZM210.101 51.8278C212.581 51.8278 213.813 52.8678 213.813 54.9478V60.1318H212.053V59.4918L212.229 58.7238H212.005C211.445 59.7638 210.453 60.2918 208.997 60.2918C207.205 60.2918 206.197 59.4278 206.197 58.0358C206.197 56.6118 207.093 55.7958 209.221 55.5398L211.557 55.2678V54.8518C211.557 53.8758 211.061 53.3798 210.053 53.3798C209.077 53.3798 208.581 53.8438 208.565 54.7718H206.357C206.373 52.8678 207.733 51.8278 210.101 51.8278ZM209.605 58.7558C210.741 58.7558 211.557 58.0518 211.557 57.0118V56.5798L209.669 56.7878C208.853 56.8998 208.437 57.2358 208.437 57.7958C208.437 58.4358 208.821 58.7558 209.605 58.7558ZM226.531 55.9398V56.4358H221.027C221.091 57.9078 221.667 58.6438 222.755 58.6438C223.619 58.6438 224.147 58.2598 224.339 57.4758H226.499C226.243 59.2038 224.883 60.2918 222.643 60.2918C220.099 60.2918 218.707 58.7878 218.707 56.1158C218.707 53.4278 220.227 51.8278 222.771 51.8278C225.219 51.8278 226.531 53.2678 226.531 55.9398ZM222.707 53.3798C221.779 53.3798 221.235 53.9558 221.075 55.1238H224.291C224.147 53.9558 223.619 53.3798 222.707 53.3798ZM232.554 51.8278C234.394 51.8278 235.418 52.8358 235.418 54.6118V60.1318H233.162V55.0918C233.162 54.0998 232.714 53.6038 231.802 53.6038C230.762 53.6038 230.09 54.2598 230.09 55.3958V60.1318H227.834V52.0038H229.61V52.6278L229.45 53.3798H229.642C230.09 52.4838 231.082 51.8278 232.554 51.8278ZM240.796 60.3078C238.172 60.3078 236.684 58.7558 236.684 56.0678C236.684 53.3798 238.188 51.8438 240.812 51.8438C243.1 51.8438 244.572 53.0118 244.716 55.0118H242.412C242.236 54.0038 241.692 53.4918 240.78 53.4918C239.58 53.4918 238.988 54.3558 238.988 56.0678C238.988 57.7318 239.612 58.6278 240.78 58.6278C241.676 58.6278 242.22 58.1318 242.412 57.1238H244.716C244.572 59.1078 243.116 60.3078 240.796 60.3078ZM249.713 60.2918C247.137 60.2918 245.649 58.7398 245.649 56.0678C245.649 53.3798 247.137 51.8278 249.713 51.8278C252.289 51.8278 253.761 53.3798 253.761 56.0678C253.761 58.7398 252.321 60.2918 249.713 60.2918ZM249.713 58.5958C250.897 58.5958 251.489 57.7478 251.489 56.0678C251.489 54.3718 250.897 53.5238 249.713 53.5238C248.545 53.5238 247.905 54.4198 247.905 56.0678C247.905 57.6838 248.545 58.5958 249.713 58.5958ZM264.289 51.8438C265.953 51.8438 266.913 52.8038 266.913 54.4518V60.1318H264.705V54.8678C264.705 53.9878 264.321 53.5558 263.553 53.5558C262.657 53.5558 262.081 54.1638 262.081 55.2038V60.1318H259.873V54.8678C259.873 53.9878 259.489 53.5558 258.705 53.5558C257.809 53.5558 257.249 54.1638 257.249 55.2038V60.1318H255.041V52.0038H256.721V52.6438L256.561 53.4278H256.753C257.153 52.5158 258.049 51.8438 259.377 51.8438C260.369 51.8438 261.073 52.1958 261.489 52.8838L261.345 53.5078H261.521C261.969 52.5318 262.881 51.8438 264.289 51.8438ZM275.981 55.9398V56.4358H270.477C270.541 57.9078 271.117 58.6438 272.205 58.6438C273.069 58.6438 273.597 58.2598 273.789 57.4758H275.949C275.693 59.2038 274.333 60.2918 272.093 60.2918C269.549 60.2918 268.157 58.7878 268.157 56.1158C268.157 53.4278 269.677 51.8278 272.221 51.8278C274.669 51.8278 275.981 53.2678 275.981 55.9398ZM272.157 53.3798C271.229 53.3798 270.685 53.9558 270.525 55.1238H273.741C273.597 53.9558 273.069 53.3798 272.157 53.3798ZM282.004 51.8278C283.844 51.8278 284.868 52.8358 284.868 54.6118V60.1318H282.612V55.0918C282.612 54.0998 282.164 53.6038 281.252 53.6038C280.212 53.6038 279.54 54.2598 279.54 55.3958V60.1318H277.284V52.0038H279.06V52.6278L278.9 53.3798H279.092C279.54 52.4838 280.532 51.8278 282.004 51.8278ZM291.846 52.1158V48.6118H294.118V60.1318H292.342V59.4758L292.502 58.7238H292.294C291.83 59.6358 290.886 60.2918 289.494 60.2918C287.398 60.2918 286.134 58.7398 286.134 56.0678C286.134 53.3958 287.414 51.8278 289.51 51.8278C290.838 51.8278 291.766 52.3558 292.294 53.4118H292.502L292.342 52.7558L291.846 52.1158ZM290.182 58.5798C291.27 58.5798 291.878 57.6998 291.878 56.0518C291.878 54.3718 291.318 53.5398 290.182 53.5398C289.046 53.5398 288.454 54.4358 288.454 56.0518C288.454 57.6678 289.046 58.5798 290.182 58.5798ZM299.173 51.8278C301.653 51.8278 302.885 52.8678 302.885 54.9478V60.1318H301.125V59.4918L301.301 58.7238H301.077C300.517 59.7638 299.525 60.2918 298.069 60.2918C296.277 60.2918 295.269 59.4278 295.269 58.0358C295.269 56.6118 296.165 55.7958 298.293 55.5398L300.629 55.2678V54.8518C300.629 53.8758 300.133 53.3798 299.125 53.3798C298.149 53.3798 297.653 53.8438 297.637 54.7718H295.429C295.445 52.8678 296.805 51.8278 299.173 51.8278ZM298.677 58.7558C299.813 58.7558 300.629 58.0518 300.629 57.0118V56.5798L298.741 56.7878C297.925 56.8998 297.509 57.2358 297.509 57.7958C297.509 58.4358 297.893 58.7558 298.677 58.7558Z" fill="black"/>
<path d="M6.50941 83.1318H4.66141L1.96141 75.0438V74.8518H3.30541L5.42941 81.4278L5.50141 81.9798H5.69341L5.76541 81.4278L7.87741 74.8518H9.20941V75.0438L6.50941 83.1318ZM12.1344 76.9518C13.9944 76.9518 15.0264 78.1278 15.0264 80.0958C15.0264 82.0638 13.9944 83.2398 12.1344 83.2398C10.2744 83.2398 9.24241 82.0638 9.24241 80.0958C9.24241 78.1278 10.2984 76.9518 12.1344 76.9518ZM12.1464 82.3038C13.2144 82.3038 13.7904 81.4878 13.7904 80.0958C13.7904 78.6918 13.2144 77.8878 12.1464 77.8878C11.0544 77.8878 10.4664 78.7038 10.4664 80.0958C10.4664 81.4878 11.0544 82.3038 12.1464 82.3038ZM18.9762 83.2518C17.0922 83.2518 16.0482 82.0758 16.0482 80.0958C16.0482 78.1278 17.1042 76.9638 18.9882 76.9638C20.5722 76.9638 21.6042 77.7798 21.7362 79.1718H20.4762C20.3082 78.3078 19.8042 77.8758 18.9762 77.8758C17.8722 77.8758 17.2962 78.6678 17.2962 80.0958C17.2962 81.5238 17.8842 82.3158 18.9762 82.3158C19.7802 82.3158 20.3202 81.8358 20.4762 81.0078H21.7362C21.6042 82.4118 20.5962 83.2518 18.9762 83.2518ZM25.3788 75.1398L25.3068 75.3198L24.5268 76.3278H23.7228V76.1838L25.0548 74.4678H25.8348L27.1668 76.1958V76.3278H26.3388L25.5708 75.3198L25.4868 75.1398H25.3788ZM28.2348 80.0118V80.2758H23.9028C23.9508 81.6318 24.5028 82.3158 25.5468 82.3158C26.3508 82.3158 26.8428 81.9438 27.0108 81.2118H28.1988C28.0068 82.4718 27.0348 83.2398 25.4868 83.2398C23.6508 83.2398 22.6428 82.0878 22.6428 80.1198C22.6428 78.1398 23.7108 76.9518 25.5228 76.9518C27.2868 76.9518 28.2348 78.0558 28.2348 80.0118ZM25.4868 77.8278C24.5748 77.8278 24.0588 78.3918 23.9388 79.5198H27.0108C26.9148 78.3918 26.4108 77.8278 25.4868 77.8278ZM35.0727 82.2318C35.3127 82.2318 35.5887 82.1958 35.8887 82.1118V83.0838C35.5527 83.1918 35.1567 83.2398 34.6887 83.2398C33.4287 83.2398 32.7927 82.6278 32.7927 81.3918V80.7918V77.9358H31.7247V77.0718H32.7927V75.4278H34.0287V77.0718H35.8527V77.9358H34.0287V80.7198V81.1998C34.0287 81.8838 34.3767 82.2318 35.0727 82.2318ZM42.3123 80.0118V80.2758H37.9803C38.0283 81.6318 38.5803 82.3158 39.6243 82.3158C40.4283 82.3158 40.9203 81.9438 41.0883 81.2118H42.2763C42.0843 82.4718 41.1123 83.2398 39.5643 83.2398C37.7283 83.2398 36.7203 82.0878 36.7203 80.1198C36.7203 78.1398 37.7883 76.9518 39.6003 76.9518C41.3643 76.9518 42.3123 78.0558 42.3123 80.0118ZM39.5643 77.8278C38.6523 77.8278 38.1363 78.3918 38.0163 79.5198H41.0883C40.9923 78.3918 40.4883 77.8278 39.5643 77.8278ZM46.3754 76.9518C46.6994 76.9518 46.9754 76.9998 47.2034 77.0958V78.2478C46.9034 78.1638 46.6274 78.1158 46.3634 78.1158C45.3194 78.1158 44.7194 78.8118 44.7194 80.0118V83.1318H43.4834V77.0718H44.4914V77.5638L44.3954 78.2238H44.5034C44.7794 77.4558 45.4154 76.9518 46.3754 76.9518ZM52.2523 74.4918V74.6478L50.5363 76.3278H49.6483V76.1718L51.0763 74.4918H52.2523ZM50.5003 76.9518C52.2283 76.9518 53.0923 77.7078 53.0923 79.2078V83.1318H52.0963V82.5798L52.1923 82.0278H52.0603C51.6523 82.8318 50.8963 83.2398 49.7803 83.2398C48.4843 83.2398 47.7403 82.6158 47.7403 81.5958C47.7403 80.5998 48.3763 79.9998 49.9243 79.8078L51.8563 79.5798V79.1598C51.8563 78.2718 51.3883 77.8278 50.4523 77.8278C49.5523 77.8278 49.0963 78.2358 49.0723 79.0638H47.8603C47.8723 77.6838 48.8563 76.9518 50.5003 76.9518ZM50.0923 82.3758C51.1483 82.3758 51.8563 81.7278 51.8563 80.7318V80.3238L50.1403 80.5278C49.3603 80.6358 48.9643 80.9478 48.9643 81.4638C48.9643 82.0518 49.3843 82.3758 50.0923 82.3758ZM59.9333 76.9518C61.7933 76.9518 62.8253 78.1278 62.8253 80.0958C62.8253 82.0638 61.7933 83.2398 59.9333 83.2398C58.0733 83.2398 57.0413 82.0638 57.0413 80.0958C57.0413 78.1278 58.0973 76.9518 59.9333 76.9518ZM59.9453 82.3038C61.0133 82.3038 61.5893 81.4878 61.5893 80.0958C61.5893 78.6918 61.0133 77.8878 59.9453 77.8878C58.8533 77.8878 58.2653 78.7038 58.2653 80.0958C58.2653 81.4878 58.8533 82.3038 59.9453 82.3038ZM69.9339 76.9638C71.5539 76.9638 72.4419 78.1638 72.4419 80.0958C72.4419 82.0518 71.5299 83.2518 69.9339 83.2518C68.8899 83.2518 68.1579 82.7478 67.8099 82.0278H67.7019L67.7739 82.4478L68.0259 82.8558V85.3038H66.7779V77.0718H67.7739V77.6238L67.7019 78.1758H67.8219C68.1579 77.4678 68.8899 76.9638 69.9339 76.9638ZM69.5859 82.3038C70.6299 82.3038 71.1819 81.4878 71.1819 80.1078C71.1819 78.7278 70.6059 77.9118 69.5859 77.9118C68.5779 77.9118 68.0019 78.7158 68.0019 80.1078C68.0019 81.5358 68.5779 82.3038 69.5859 82.3038ZM76.5343 76.9518C76.8583 76.9518 77.1343 76.9998 77.3623 77.0958V78.2478C77.0623 78.1638 76.7863 78.1158 76.5223 78.1158C75.4783 78.1158 74.8783 78.8118 74.8783 80.0118V83.1318H73.6423V77.0718H74.6503V77.5638L74.5543 78.2238H74.6623C74.9383 77.4558 75.5743 76.9518 76.5343 76.9518ZM80.6592 76.9518C82.3872 76.9518 83.2512 77.7078 83.2512 79.2078V83.1318H82.2552V82.5798L82.3512 82.0278H82.2192C81.8112 82.8318 81.0552 83.2398 79.9392 83.2398C78.6432 83.2398 77.8992 82.6158 77.8992 81.5958C77.8992 80.5998 78.5352 79.9998 80.0832 79.8078L82.0152 79.5798V79.1598C82.0152 78.2718 81.5472 77.8278 80.6112 77.8278C79.7112 77.8278 79.2552 78.2358 79.2312 79.0638H78.0192C78.0312 77.6838 79.0152 76.9518 80.6592 76.9518ZM80.2512 82.3758C81.3072 82.3758 82.0152 81.7278 82.0152 80.7318V80.3238L80.2992 80.5278C79.5192 80.6358 79.1232 80.9478 79.1232 81.4638C79.1232 82.0518 79.5432 82.3758 80.2512 82.3758ZM89.1654 83.1318H84.4254V82.2798L87.3174 78.2838L87.6414 78.1038V77.9718L87.2334 78.0078H84.4734V77.0718H89.1414V77.9238L86.2494 81.9078L85.9374 82.0998V82.2318L86.3334 82.1958H89.1654V83.1318ZM92.893 76.9518C94.753 76.9518 95.785 78.1278 95.785 80.0958C95.785 82.0638 94.753 83.2398 92.893 83.2398C91.033 83.2398 90.001 82.0638 90.001 80.0958C90.001 78.1278 91.057 76.9518 92.893 76.9518ZM92.905 82.3038C93.973 82.3038 94.549 81.4878 94.549 80.0958C94.549 78.6918 93.973 77.8878 92.905 77.8878C91.813 77.8878 91.225 78.7038 91.225 80.0958C91.225 81.4878 91.813 82.3038 92.905 82.3038ZM103.986 77.3478V74.4918H105.222V83.1318H104.226V82.5798L104.31 82.0278H104.19C103.842 82.7478 103.11 83.2398 102.066 83.2398C100.494 83.2398 99.5696 82.0278 99.5696 80.1078C99.5696 78.1758 100.506 76.9518 102.078 76.9518C103.122 76.9518 103.854 77.4558 104.19 78.1758H104.31L104.226 77.7558L103.986 77.3478ZM102.426 82.2918C103.434 82.2918 104.01 81.4878 104.01 80.0958C104.01 78.6678 103.434 77.8998 102.426 77.8998C101.382 77.8998 100.83 78.7158 100.83 80.0958C100.83 81.4758 101.406 82.2918 102.426 82.2918ZM111.932 80.0118V80.2758H107.6C107.648 81.6318 108.2 82.3158 109.244 82.3158C110.048 82.3158 110.54 81.9438 110.708 81.2118H111.896C111.704 82.4718 110.732 83.2398 109.184 83.2398C107.348 83.2398 106.34 82.0878 106.34 80.1198C106.34 78.1398 107.408 76.9518 109.22 76.9518C110.984 76.9518 111.932 78.0558 111.932 80.0118ZM109.184 77.8278C108.272 77.8278 107.756 78.3918 107.636 79.5198H110.708C110.612 78.3918 110.108 77.8278 109.184 77.8278ZM120.078 74.8518V82.0638H122.43V83.1318H115.986V82.0638H118.77V77.3598H116.07V76.3038H118.134C118.662 76.3038 118.854 76.1118 118.938 75.5958L119.022 74.8518H120.078ZM129.682 76.9518C131.062 76.9518 131.83 77.6958 131.83 79.0878V83.1318H130.594V79.3278C130.594 78.4038 130.162 77.9358 129.298 77.9358C128.338 77.9358 127.702 78.5478 127.702 79.5918V83.1318H126.466V74.4918H127.702V77.2158L127.462 77.6718L127.378 78.1278H127.498C127.822 77.4438 128.59 76.9518 129.682 76.9518ZM135.913 76.9518C137.773 76.9518 138.805 78.1278 138.805 80.0958C138.805 82.0638 137.773 83.2398 135.913 83.2398C134.053 83.2398 133.021 82.0638 133.021 80.0958C133.021 78.1278 134.077 76.9518 135.913 76.9518ZM135.925 82.3038C136.993 82.3038 137.569 81.4878 137.569 80.0958C137.569 78.6918 136.993 77.8878 135.925 77.8878C134.833 77.8878 134.245 78.7038 134.245 80.0958C134.245 81.4878 134.833 82.3038 135.925 82.3038ZM142.887 76.9518C143.211 76.9518 143.487 76.9998 143.715 77.0958V78.2478C143.415 78.1638 143.139 78.1158 142.875 78.1158C141.831 78.1158 141.231 78.8118 141.231 80.0118V83.1318H139.995V77.0718H141.003V77.5638L140.907 78.2238H141.015C141.291 77.4558 141.927 76.9518 142.887 76.9518ZM147.012 76.9518C148.74 76.9518 149.604 77.7078 149.604 79.2078V83.1318H148.608V82.5798L148.704 82.0278H148.572C148.164 82.8318 147.408 83.2398 146.292 83.2398C144.996 83.2398 144.252 82.6158 144.252 81.5958C144.252 80.5998 144.888 79.9998 146.436 79.8078L148.368 79.5798V79.1598C148.368 78.2718 147.9 77.8278 146.964 77.8278C146.064 77.8278 145.608 78.2358 145.584 79.0638H144.372C144.384 77.6838 145.368 76.9518 147.012 76.9518ZM146.604 82.3758C147.66 82.3758 148.368 81.7278 148.368 80.7318V80.3238L146.652 80.5278C145.872 80.6358 145.476 80.9478 145.476 81.4638C145.476 82.0518 145.896 82.3758 146.604 82.3758ZM156.877 76.9638C158.497 76.9638 159.385 78.1638 159.385 80.0958C159.385 82.0518 158.473 83.2518 156.877 83.2518C155.833 83.2518 155.101 82.7478 154.753 82.0278H154.645L154.717 82.4478L154.969 82.8558V85.3038H153.721V77.0718H154.717V77.6238L154.645 78.1758H154.765C155.101 77.4678 155.833 76.9638 156.877 76.9638ZM156.529 82.3038C157.573 82.3038 158.125 81.4878 158.125 80.1078C158.125 78.7278 157.549 77.9118 156.529 77.9118C155.521 77.9118 154.945 78.7158 154.945 80.1078C154.945 81.5358 155.521 82.3038 156.529 82.3038ZM163.094 76.9518C164.822 76.9518 165.686 77.7078 165.686 79.2078V83.1318H164.69V82.5798L164.786 82.0278H164.654C164.246 82.8318 163.49 83.2398 162.374 83.2398C161.078 83.2398 160.334 82.6158 160.334 81.5958C160.334 80.5998 160.97 79.9998 162.518 79.8078L164.45 79.5798V79.1598C164.45 78.2718 163.982 77.8278 163.046 77.8278C162.146 77.8278 161.69 78.2358 161.666 79.0638H160.454C160.466 77.6838 161.45 76.9518 163.094 76.9518ZM162.686 82.3758C163.742 82.3758 164.45 81.7278 164.45 80.7318V80.3238L162.734 80.5278C161.954 80.6358 161.558 80.9478 161.558 81.4638C161.558 82.0518 161.978 82.3758 162.686 82.3758ZM169.932 76.9518C170.256 76.9518 170.532 76.9998 170.76 77.0958V78.2478C170.46 78.1638 170.184 78.1158 169.92 78.1158C168.876 78.1158 168.276 78.8118 168.276 80.0118V83.1318H167.04V77.0718H168.048V77.5638L167.952 78.2238H168.06C168.336 77.4558 168.972 76.9518 169.932 76.9518ZM174.057 76.9518C175.785 76.9518 176.649 77.7078 176.649 79.2078V83.1318H175.653V82.5798L175.749 82.0278H175.617C175.209 82.8318 174.453 83.2398 173.337 83.2398C172.041 83.2398 171.297 82.6158 171.297 81.5958C171.297 80.5998 171.933 79.9998 173.481 79.8078L175.413 79.5798V79.1598C175.413 78.2718 174.945 77.8278 174.009 77.8278C173.109 77.8278 172.653 78.2358 172.629 79.0638H171.417C171.429 77.6838 172.413 76.9518 174.057 76.9518ZM173.649 82.3758C174.705 82.3758 175.413 81.7278 175.413 80.7318V80.3238L173.697 80.5278C172.917 80.6358 172.521 80.9478 172.521 81.4638C172.521 82.0518 172.941 82.3758 173.649 82.3758ZM183.658 76.9518C183.982 76.9518 184.258 76.9998 184.486 77.0958V78.2478C184.186 78.1638 183.91 78.1158 183.646 78.1158C182.602 78.1158 182.002 78.8118 182.002 80.0118V83.1318H180.766V77.0718H181.774V77.5638L181.678 78.2238H181.786C182.062 77.4558 182.698 76.9518 183.658 76.9518ZM190.64 80.0118V80.2758H186.308C186.356 81.6318 186.908 82.3158 187.952 82.3158C188.756 82.3158 189.248 81.9438 189.416 81.2118H190.604C190.412 82.4718 189.44 83.2398 187.892 83.2398C186.056 83.2398 185.048 82.0878 185.048 80.1198C185.048 78.1398 186.116 76.9518 187.928 76.9518C189.692 76.9518 190.64 78.0558 190.64 80.0118ZM187.892 77.8278C186.98 77.8278 186.464 78.3918 186.344 79.5198H189.416C189.32 78.3918 188.816 77.8278 187.892 77.8278ZM194.516 82.2318C194.756 82.2318 195.032 82.1958 195.332 82.1118V83.0838C194.996 83.1918 194.6 83.2398 194.132 83.2398C192.872 83.2398 192.236 82.6278 192.236 81.3918V80.7918V77.9358H191.168V77.0718H192.236V75.4278H193.472V77.0718H195.296V77.9358H193.472V80.7198V81.1998C193.472 81.8838 193.82 82.2318 194.516 82.2318ZM197.899 76.0158H196.543V74.4918H197.911L197.899 76.0158ZM197.851 83.1318H196.615V77.0718H197.851V83.1318ZM202.209 76.9518C202.533 76.9518 202.809 76.9998 203.037 77.0958V78.2478C202.737 78.1638 202.461 78.1158 202.197 78.1158C201.153 78.1158 200.553 78.8118 200.553 80.0118V83.1318H199.317V77.0718H200.325V77.5638L200.229 78.2238H200.337C200.613 77.4558 201.249 76.9518 202.209 76.9518ZM208.086 74.4918V74.6478L206.37 76.3278H205.482V76.1718L206.91 74.4918H208.086ZM206.334 76.9518C208.062 76.9518 208.926 77.7078 208.926 79.2078V83.1318H207.93V82.5798L208.026 82.0278H207.894C207.486 82.8318 206.73 83.2398 205.614 83.2398C204.318 83.2398 203.574 82.6158 203.574 81.5958C203.574 80.5998 204.21 79.9998 205.758 79.8078L207.69 79.5798V79.1598C207.69 78.2718 207.222 77.8278 206.286 77.8278C205.386 77.8278 204.93 78.2358 204.906 79.0638H203.694C203.706 77.6838 204.69 76.9518 206.334 76.9518ZM205.926 82.3758C206.982 82.3758 207.69 81.7278 207.69 80.7318V80.3238L205.974 80.5278C205.194 80.6358 204.798 80.9478 204.798 81.4638C204.798 82.0518 205.218 82.3758 205.926 82.3758ZM213.676 80.5638H210.316V79.5318H213.676V80.5638ZM216.474 83.1318H215.238V74.4918H216.474V83.1318ZM220.651 76.9518C222.511 76.9518 223.543 78.1278 223.543 80.0958C223.543 82.0638 222.511 83.2398 220.651 83.2398C218.791 83.2398 217.759 82.0638 217.759 80.0958C217.759 78.1278 218.815 76.9518 220.651 76.9518ZM220.663 82.3038C221.731 82.3038 222.307 81.4878 222.307 80.0958C222.307 78.6918 221.731 77.8878 220.663 77.8878C219.571 77.8878 218.983 78.7038 218.983 80.0958C218.983 81.4878 219.571 82.3038 220.663 82.3038ZM230.219 76.9518C232.079 76.9518 233.111 78.1278 233.111 80.0958C233.111 82.0638 232.079 83.2398 230.219 83.2398C228.359 83.2398 227.327 82.0638 227.327 80.0958C227.327 78.1278 228.383 76.9518 230.219 76.9518ZM230.231 82.3038C231.299 82.3038 231.875 81.4878 231.875 80.0958C231.875 78.6918 231.299 77.8878 230.231 77.8878C229.139 77.8878 228.551 78.7038 228.551 80.0958C228.551 81.4878 229.139 82.3038 230.231 82.3038ZM238.321 80.6118V77.0718H239.557V83.1318H238.561V82.6038L238.645 82.0638H238.537C238.201 82.7478 237.469 83.2398 236.401 83.2398C235.057 83.2398 234.301 82.4958 234.301 81.1158V77.0718H235.537V80.8878C235.537 81.8118 235.957 82.2678 236.785 82.2678C237.709 82.2678 238.321 81.6558 238.321 80.6118ZM240.992 83.1318V81.4278H242.324V82.7118C242.324 83.5878 241.976 84.2718 241.292 84.7638H240.584V84.5718C241.1 84.1758 241.412 83.6958 241.544 83.1318H240.992ZM249.299 83.2518C247.415 83.2518 246.371 82.0758 246.371 80.0958C246.371 78.1278 247.427 76.9638 249.311 76.9638C250.895 76.9638 251.927 77.7798 252.059 79.1718H250.799C250.631 78.3078 250.127 77.8758 249.299 77.8758C248.195 77.8758 247.619 78.6678 247.619 80.0958C247.619 81.5238 248.207 82.3158 249.299 82.3158C250.103 82.3158 250.643 81.8358 250.799 81.0078H252.059C251.927 82.4118 250.919 83.2518 249.299 83.2518ZM255.653 76.9518C257.381 76.9518 258.245 77.7078 258.245 79.2078V83.1318H257.249V82.5798L257.345 82.0278H257.213C256.805 82.8318 256.049 83.2398 254.933 83.2398C253.637 83.2398 252.893 82.6158 252.893 81.5958C252.893 80.5998 253.529 79.9998 255.077 79.8078L257.009 79.5798V79.1598C257.009 78.2718 256.541 77.8278 255.605 77.8278C254.705 77.8278 254.249 78.2358 254.225 79.0638H253.013C253.025 77.6838 254.009 76.9518 255.653 76.9518ZM255.245 82.3758C256.301 82.3758 257.009 81.7278 257.009 80.7318V80.3238L255.293 80.5278C254.513 80.6358 254.117 80.9478 254.117 81.4638C254.117 82.0518 254.537 82.3758 255.245 82.3758ZM262 83.2398C260.368 83.2398 259.48 82.6158 259.336 81.3678H260.524C260.656 82.0758 261.16 82.4238 262.036 82.4238C262.864 82.4238 263.416 82.0758 263.416 81.4878C263.416 81.0198 263.056 80.7198 262.324 80.5758L261.088 80.3598C260.02 80.1558 259.444 79.5798 259.444 78.7758C259.444 77.6718 260.404 76.9518 261.988 76.9518C263.488 76.9518 264.412 77.5878 264.52 78.7758H263.332C263.248 78.1038 262.768 77.7678 261.916 77.7678C261.1 77.7678 260.608 78.1158 260.608 78.6078C260.608 79.0158 260.968 79.2918 261.676 79.4358L262.876 79.6518C264.064 79.8798 264.652 80.4438 264.652 81.3198C264.652 82.4838 263.62 83.2398 262 83.2398ZM268.52 76.9518C270.38 76.9518 271.412 78.1278 271.412 80.0958C271.412 82.0638 270.38 83.2398 268.52 83.2398C266.66 83.2398 265.628 82.0638 265.628 80.0958C265.628 78.1278 266.684 76.9518 268.52 76.9518ZM268.532 82.3038C269.6 82.3038 270.176 81.4878 270.176 80.0958C270.176 78.6918 269.6 77.8878 268.532 77.8878C267.44 77.8878 266.852 78.7038 266.852 80.0958C266.852 81.4878 267.44 82.3038 268.532 82.3038ZM278.125 83.2518C276.241 83.2518 275.197 82.0758 275.197 80.0958C275.197 78.1278 276.253 76.9638 278.137 76.9638C279.721 76.9638 280.753 77.7798 280.885 79.1718H279.625C279.457 78.3078 278.953 77.8758 278.125 77.8758C277.021 77.8758 276.445 78.6678 276.445 80.0958C276.445 81.5238 277.033 82.3158 278.125 82.3158C278.929 82.3158 279.469 81.8358 279.625 81.0078H280.885C280.753 82.4118 279.745 83.2518 278.125 83.2518ZM284.695 76.9518C286.555 76.9518 287.587 78.1278 287.587 80.0958C287.587 82.0638 286.555 83.2398 284.695 83.2398C282.835 83.2398 281.803 82.0638 281.803 80.0958C281.803 78.1278 282.859 76.9518 284.695 76.9518ZM284.707 82.3038C285.775 82.3038 286.351 81.4878 286.351 80.0958C286.351 78.6918 285.775 77.8878 284.707 77.8878C283.615 77.8878 283.027 78.7038 283.027 80.0958C283.027 81.4878 283.615 82.3038 284.707 82.3038ZM291.993 76.9518C293.349 76.9518 294.129 77.7078 294.129 79.0878V83.1318H292.905V79.3278C292.905 78.4038 292.473 77.9358 291.609 77.9358C290.637 77.9358 290.013 78.5478 290.013 79.6038V83.1318H288.777V77.0718H289.773V77.5878L289.701 78.1398H289.797C290.133 77.4558 290.877 76.9518 291.993 76.9518ZM298.405 82.2318C298.645 82.2318 298.921 82.1958 299.221 82.1118V83.0838C298.885 83.1918 298.489 83.2398 298.021 83.2398C296.761 83.2398 296.125 82.6278 296.125 81.3918V80.7918V77.9358H295.057V77.0718H296.125V75.4278H297.361V77.0718H299.185V77.9358H297.361V80.7198V81.1998C297.361 81.8838 297.709 82.2318 298.405 82.2318ZM303.288 76.9518C303.612 76.9518 303.888 76.9998 304.116 77.0958V78.2478C303.816 78.1638 303.54 78.1158 303.276 78.1158C302.232 78.1158 301.632 78.8118 301.632 80.0118V83.1318H300.396V77.0718H301.404V77.5638L301.308 78.2238H301.416C301.692 77.4558 302.328 76.9518 303.288 76.9518ZM309.165 74.4918V74.6478L307.449 76.3278H306.561V76.1718L307.989 74.4918H309.165ZM307.413 76.9518C309.141 76.9518 310.005 77.7078 310.005 79.2078V83.1318H309.009V82.5798L309.105 82.0278H308.973C308.565 82.8318 307.809 83.2398 306.693 83.2398C305.397 83.2398 304.653 82.6158 304.653 81.5958C304.653 80.5998 305.289 79.9998 306.837 79.8078L308.769 79.5798V79.1598C308.769 78.2718 308.301 77.8278 307.365 77.8278C306.465 77.8278 306.009 78.2358 305.985 79.0638H304.773C304.785 77.6838 305.769 76.9518 307.413 76.9518ZM307.005 82.3758C308.061 82.3758 308.769 81.7278 308.769 80.7318V80.3238L307.053 80.5278C306.273 80.6358 305.877 80.9478 305.877 81.4638C305.877 82.0518 306.297 82.3758 307.005 82.3758ZM314.251 76.9518C314.575 76.9518 314.851 76.9998 315.079 77.0958V78.2478C314.779 78.1638 314.503 78.1158 314.239 78.1158C313.195 78.1158 312.595 78.8118 312.595 80.0118V83.1318H311.359V77.0718H312.367V77.5638L312.271 78.2238H312.379C312.655 77.4558 313.291 76.9518 314.251 76.9518ZM317.331 76.0158H315.975V74.4918H317.343L317.331 76.0158ZM317.283 83.1318H316.047V77.0718H317.283V83.1318ZM321.472 76.9518C323.332 76.9518 324.364 78.1278 324.364 80.0958C324.364 82.0638 323.332 83.2398 321.472 83.2398C319.612 83.2398 318.58 82.0638 318.58 80.0958C318.58 78.1278 319.636 76.9518 321.472 76.9518ZM321.484 82.3038C322.552 82.3038 323.128 81.4878 323.128 80.0958C323.128 78.6918 322.552 77.8878 321.484 77.8878C320.392 77.8878 319.804 78.7038 319.804 80.0958C319.804 81.4878 320.392 82.3038 321.484 82.3038ZM325.298 83.1318V81.4278H326.63V82.7118C326.63 83.5878 326.282 84.2718 325.598 84.7638H324.89V84.5718C325.406 84.1758 325.718 83.6958 325.85 83.1318H325.298ZM28.4615 98.9518C30.1895 98.9518 31.0535 99.7078 31.0535 101.208V105.132H30.0575V104.58L30.1535 104.028H30.0215C29.6135 104.832 28.8575 105.24 27.7415 105.24C26.4455 105.24 25.7015 104.616 25.7015 103.596C25.7015 102.6 26.3375 102 27.8855 101.808L29.8175 101.58V101.16C29.8175 100.272 29.3495 99.8278 28.4135 99.8278C27.5135 99.8278 27.0575 100.236 27.0335 101.064H25.8215C25.8335 99.6838 26.8175 98.9518 28.4615 98.9518ZM28.0535 104.376C29.1095 104.376 29.8175 103.728 29.8175 102.732V102.324L28.1015 102.528C27.3215 102.636 26.9255 102.948 26.9255 103.464C26.9255 104.052 27.3455 104.376 28.0535 104.376ZM40.5826 102.012V102.276H36.2506C36.2986 103.632 36.8506 104.316 37.8946 104.316C38.6986 104.316 39.1906 103.944 39.3586 103.212H40.5466C40.3546 104.472 39.3826 105.24 37.8346 105.24C35.9986 105.24 34.9906 104.088 34.9906 102.12C34.9906 100.14 36.0586 98.9518 37.8706 98.9518C39.6346 98.9518 40.5826 100.056 40.5826 102.012ZM37.8346 99.8278C36.9226 99.8278 36.4066 100.392 36.2866 101.52H39.3586C39.2626 100.392 38.7586 99.8278 37.8346 99.8278ZM44.9697 98.9518C46.3257 98.9518 47.1057 99.7078 47.1057 101.088V105.132H45.8817V101.328C45.8817 100.404 45.4497 99.9358 44.5857 99.9358C43.6137 99.9358 42.9897 100.548 42.9897 101.604V105.132H41.7537V99.0718H42.7497V99.5878L42.6777 100.14H42.7737C43.1097 99.4558 43.8537 98.9518 44.9697 98.9518ZM51.3814 104.232C51.6214 104.232 51.8974 104.196 52.1974 104.112V105.084C51.8614 105.192 51.4654 105.24 50.9974 105.24C49.7374 105.24 49.1014 104.628 49.1014 103.392V102.792V99.9358H48.0334V99.0718H49.1014V97.4278H50.3374V99.0718H52.1614V99.9358H50.3374V102.72V103.2C50.3374 103.884 50.6854 104.232 51.3814 104.232ZM56.2651 98.9518C56.5891 98.9518 56.8651 98.9998 57.0931 99.0958V100.248C56.7931 100.164 56.5171 100.116 56.2531 100.116C55.2091 100.116 54.6091 100.812 54.6091 102.012V105.132H53.3731V99.0718H54.3811V99.5638L54.2851 100.224H54.3931C54.6691 99.4558 55.3051 98.9518 56.2651 98.9518ZM63.2471 102.012V102.276H58.9151C58.9631 103.632 59.5151 104.316 60.5591 104.316C61.3631 104.316 61.8551 103.944 62.0231 103.212H63.2111C63.0191 104.472 62.0471 105.24 60.4991 105.24C58.6631 105.24 57.6551 104.088 57.6551 102.12C57.6551 100.14 58.7231 98.9518 60.5351 98.9518C62.2991 98.9518 63.2471 100.056 63.2471 102.012ZM60.4991 99.8278C59.5871 99.8278 59.0711 100.392 58.9511 101.52H62.0231C61.9271 100.392 61.4231 99.8278 60.4991 99.8278ZM68.8942 99.5998V99.0718H69.9502V104.796C69.9502 106.464 68.9782 107.412 67.0462 107.412C65.3662 107.412 64.4062 106.656 64.2982 105.312H65.5342C65.6182 106.092 66.1582 106.536 67.0582 106.536C68.1022 106.536 68.6302 105.984 68.6662 104.88L68.8942 104.304L68.9782 103.824H68.8702C68.5222 104.544 67.7782 105.036 66.7342 105.036C65.1502 105.036 64.2502 103.86 64.2502 101.988C64.2502 100.128 65.1502 98.9518 66.7342 98.9518C67.7782 98.9518 68.5222 99.4318 68.8582 100.14H68.9782L68.8942 99.5998ZM67.1062 104.148C68.1022 104.148 68.6782 103.368 68.6782 101.988C68.6782 100.632 68.1022 99.8398 67.1062 99.8398C66.0622 99.8398 65.5102 100.656 65.5102 101.988C65.5102 103.344 66.0862 104.148 67.1062 104.148ZM73.8258 98.9518C75.5538 98.9518 76.4178 99.7078 76.4178 101.208V105.132H75.4218V104.58L75.5178 104.028H75.3858C74.9778 104.832 74.2218 105.24 73.1058 105.24C71.8098 105.24 71.0658 104.616 71.0658 103.596C71.0658 102.6 71.7018 102 73.2498 101.808L75.1818 101.58V101.16C75.1818 100.272 74.7138 99.8278 73.7778 99.8278C72.8778 99.8278 72.4218 100.236 72.3978 101.064H71.1858C71.1978 99.6838 72.1818 98.9518 73.8258 98.9518ZM73.4178 104.376C74.4738 104.376 75.1818 103.728 75.1818 102.732V102.324L73.4658 102.528C72.6858 102.636 72.2898 102.948 72.2898 103.464C72.2898 104.052 72.7098 104.376 73.4178 104.376ZM82.9348 105.24C81.3028 105.24 80.4148 104.616 80.2708 103.368H81.4588C81.5908 104.076 82.0948 104.424 82.9708 104.424C83.7988 104.424 84.3508 104.076 84.3508 103.488C84.3508 103.02 83.9908 102.72 83.2588 102.576L82.0228 102.36C80.9548 102.156 80.3788 101.58 80.3788 100.776C80.3788 99.6718 81.3388 98.9518 82.9228 98.9518C84.4228 98.9518 85.3468 99.5878 85.4548 100.776H84.2668C84.1828 100.104 83.7028 99.7678 82.8508 99.7678C82.0348 99.7678 81.5428 100.116 81.5428 100.608C81.5428 101.016 81.9028 101.292 82.6108 101.436L83.8108 101.652C84.9988 101.88 85.5868 102.444 85.5868 103.32C85.5868 104.484 84.5548 105.24 82.9348 105.24ZM92.1432 102.012V102.276H87.8112C87.8592 103.632 88.4112 104.316 89.4552 104.316C90.2592 104.316 90.7512 103.944 90.9192 103.212H92.1072C91.9152 104.472 90.9432 105.24 89.3952 105.24C87.5592 105.24 86.5512 104.088 86.5512 102.12C86.5512 100.14 87.6192 98.9518 89.4312 98.9518C91.1952 98.9518 92.1432 100.056 92.1432 102.012ZM89.3952 99.8278C88.4832 99.8278 87.9672 100.392 87.8472 101.52H90.9192C90.8232 100.392 90.3192 99.8278 89.3952 99.8278ZM96.2063 98.9518C96.5303 98.9518 96.8063 98.9998 97.0343 99.0958V100.248C96.7343 100.164 96.4583 100.116 96.1943 100.116C95.1503 100.116 94.5503 100.812 94.5503 102.012V105.132H93.3143V99.0718H94.3223V99.5638L94.2263 100.224H94.3343C94.6103 99.4558 95.2463 98.9518 96.2063 98.9518ZM102.083 96.4918V96.6478L100.367 98.3278H99.4792V98.1718L100.907 96.4918H102.083ZM100.331 98.9518C102.059 98.9518 102.923 99.7078 102.923 101.208V105.132H101.927V104.58L102.023 104.028H101.891C101.483 104.832 100.727 105.24 99.6112 105.24C98.3152 105.24 97.5712 104.616 97.5712 103.596C97.5712 102.6 98.2072 102 99.7552 101.808L101.687 101.58V101.16C101.687 100.272 101.219 99.8278 100.283 99.8278C99.3832 99.8278 98.9272 100.236 98.9032 101.064H97.6912C97.7032 99.6838 98.6872 98.9518 100.331 98.9518ZM99.9232 104.376C100.979 104.376 101.687 103.728 101.687 102.732V102.324L99.9712 102.528C99.1912 102.636 98.7952 102.948 98.7952 103.464C98.7952 104.052 99.2152 104.376 99.9232 104.376ZM109.932 98.9518C110.256 98.9518 110.532 98.9998 110.76 99.0958V100.248C110.46 100.164 110.184 100.116 109.92 100.116C108.876 100.116 108.276 100.812 108.276 102.012V105.132H107.04V99.0718H108.048V99.5638L107.952 100.224H108.06C108.336 99.4558 108.972 98.9518 109.932 98.9518ZM116.914 102.012V102.276H112.582C112.63 103.632 113.182 104.316 114.226 104.316C115.03 104.316 115.522 103.944 115.69 103.212H116.878C116.686 104.472 115.714 105.24 114.166 105.24C112.33 105.24 111.322 104.088 111.322 102.12C111.322 100.14 112.39 98.9518 114.202 98.9518C115.966 98.9518 116.914 100.056 116.914 102.012ZM114.166 99.8278C113.254 99.8278 112.738 100.392 112.618 101.52H115.69C115.594 100.392 115.09 99.8278 114.166 99.8278ZM122.333 99.3478V96.4918H123.569V105.132H122.573V104.58L122.657 104.028H122.537C122.189 104.748 121.457 105.24 120.413 105.24C118.841 105.24 117.917 104.028 117.917 102.108C117.917 100.176 118.853 98.9518 120.425 98.9518C121.469 98.9518 122.201 99.4558 122.537 100.176H122.657L122.573 99.7558L122.333 99.3478ZM120.773 104.292C121.781 104.292 122.357 103.488 122.357 102.096C122.357 100.668 121.781 99.8998 120.773 99.8998C119.729 99.8998 119.177 100.716 119.177 102.096C119.177 103.476 119.753 104.292 120.773 104.292ZM126.33 98.0158H124.974V96.4918H126.342L126.33 98.0158ZM126.282 105.132H125.046V99.0718H126.282V105.132ZM130.64 98.9518C130.964 98.9518 131.24 98.9998 131.468 99.0958V100.248C131.168 100.164 130.892 100.116 130.628 100.116C129.584 100.116 128.984 100.812 128.984 102.012V105.132H127.748V99.0718H128.756V99.5638L128.66 100.224H128.768C129.044 99.4558 129.68 98.9518 130.64 98.9518ZM137.622 102.012V102.276H133.29C133.338 103.632 133.89 104.316 134.934 104.316C135.738 104.316 136.23 103.944 136.398 103.212H137.586C137.394 104.472 136.422 105.24 134.874 105.24C133.038 105.24 132.03 104.088 132.03 102.12C132.03 100.14 133.098 98.9518 134.91 98.9518C136.674 98.9518 137.622 100.056 137.622 102.012ZM134.874 99.8278C133.962 99.8278 133.446 100.392 133.326 101.52H136.398C136.302 100.392 135.798 99.8278 134.874 99.8278ZM141.553 105.252C139.669 105.252 138.625 104.076 138.625 102.096C138.625 100.128 139.681 98.9638 141.565 98.9638C143.149 98.9638 144.181 99.7798 144.313 101.172H143.053C142.885 100.308 142.381 99.8758 141.553 99.8758C140.449 99.8758 139.873 100.668 139.873 102.096C139.873 103.524 140.461 104.316 141.553 104.316C142.357 104.316 142.897 103.836 143.053 103.008H144.313C144.181 104.412 143.173 105.252 141.553 105.252ZM146.791 98.0158H145.435V96.4918H146.803L146.791 98.0158ZM146.743 105.132H145.507V99.0718H146.743V105.132ZM150.933 98.9518C152.793 98.9518 153.825 100.128 153.825 102.096C153.825 104.064 152.793 105.24 150.933 105.24C149.073 105.24 148.041 104.064 148.041 102.096C148.041 100.128 149.097 98.9518 150.933 98.9518ZM150.945 104.304C152.013 104.304 152.589 103.488 152.589 102.096C152.589 100.692 152.013 99.8878 150.945 99.8878C149.853 99.8878 149.265 100.704 149.265 102.096C149.265 103.488 149.853 104.304 150.945 104.304ZM158.231 98.9518C159.587 98.9518 160.367 99.7078 160.367 101.088V105.132H159.143V101.328C159.143 100.404 158.711 99.9358 157.847 99.9358C156.875 99.9358 156.251 100.548 156.251 101.604V105.132H155.015V99.0718H156.011V99.5878L155.939 100.14H156.035C156.371 99.4558 157.115 98.9518 158.231 98.9518ZM164.247 98.9518C165.975 98.9518 166.839 99.7078 166.839 101.208V105.132H165.843V104.58L165.939 104.028H165.807C165.399 104.832 164.643 105.24 163.527 105.24C162.231 105.24 161.487 104.616 161.487 103.596C161.487 102.6 162.123 102 163.671 101.808L165.603 101.58V101.16C165.603 100.272 165.135 99.8278 164.199 99.8278C163.299 99.8278 162.843 100.236 162.819 101.064H161.607C161.619 99.6838 162.603 98.9518 164.247 98.9518ZM163.839 104.376C164.895 104.376 165.603 103.728 165.603 102.732V102.324L163.887 102.528C163.107 102.636 162.711 102.948 162.711 103.464C162.711 104.052 163.131 104.376 163.839 104.376ZM172.441 99.3478V96.4918H173.677V105.132H172.681V104.58L172.765 104.028H172.645C172.297 104.748 171.565 105.24 170.521 105.24C168.949 105.24 168.025 104.028 168.025 102.108C168.025 100.176 168.961 98.9518 170.533 98.9518C171.577 98.9518 172.309 99.4558 172.645 100.176H172.765L172.681 99.7558L172.441 99.3478ZM170.881 104.292C171.889 104.292 172.465 103.488 172.465 102.096C172.465 100.668 171.889 99.8998 170.881 99.8998C169.837 99.8998 169.285 100.716 169.285 102.096C169.285 103.476 169.861 104.292 170.881 104.292ZM177.554 98.9518C179.282 98.9518 180.146 99.7078 180.146 101.208V105.132H179.15V104.58L179.246 104.028H179.114C178.706 104.832 177.95 105.24 176.834 105.24C175.538 105.24 174.794 104.616 174.794 103.596C174.794 102.6 175.43 102 176.978 101.808L178.91 101.58V101.16C178.91 100.272 178.442 99.8278 177.506 99.8278C176.606 99.8278 176.15 100.236 176.126 101.064H174.914C174.926 99.6838 175.91 98.9518 177.554 98.9518ZM177.146 104.376C178.202 104.376 178.91 103.728 178.91 102.732V102.324L177.194 102.528C176.414 102.636 176.018 102.948 176.018 103.464C176.018 104.052 176.438 104.376 177.146 104.376ZM187.419 98.9638C189.039 98.9638 189.927 100.164 189.927 102.096C189.927 104.052 189.015 105.252 187.419 105.252C186.375 105.252 185.643 104.748 185.295 104.028H185.187L185.259 104.448L185.511 104.856V107.304H184.263V99.0718H185.259V99.6238L185.187 100.176H185.307C185.643 99.4678 186.375 98.9638 187.419 98.9638ZM187.071 104.304C188.115 104.304 188.667 103.488 188.667 102.108C188.667 100.728 188.091 99.9118 187.071 99.9118C186.063 99.9118 185.487 100.716 185.487 102.108C185.487 103.536 186.063 104.304 187.071 104.304ZM193.635 98.9518C195.363 98.9518 196.227 99.7078 196.227 101.208V105.132H195.231V104.58L195.327 104.028H195.195C194.787 104.832 194.031 105.24 192.915 105.24C191.619 105.24 190.875 104.616 190.875 103.596C190.875 102.6 191.511 102 193.059 101.808L194.991 101.58V101.16C194.991 100.272 194.523 99.8278 193.587 99.8278C192.687 99.8278 192.231 100.236 192.207 101.064H190.995C191.007 99.6838 191.991 98.9518 193.635 98.9518ZM193.227 104.376C194.283 104.376 194.991 103.728 194.991 102.732V102.324L193.275 102.528C192.495 102.636 192.099 102.948 192.099 103.464C192.099 104.052 192.519 104.376 193.227 104.376ZM200.473 98.9518C200.797 98.9518 201.073 98.9998 201.301 99.0958V100.248C201.001 100.164 200.725 100.116 200.461 100.116C199.417 100.116 198.817 100.812 198.817 102.012V105.132H197.581V99.0718H198.589V99.5638L198.493 100.224H198.601C198.877 99.4558 199.513 98.9518 200.473 98.9518ZM204.598 98.9518C206.326 98.9518 207.19 99.7078 207.19 101.208V105.132H206.194V104.58L206.29 104.028H206.158C205.75 104.832 204.994 105.24 203.878 105.24C202.582 105.24 201.838 104.616 201.838 103.596C201.838 102.6 202.474 102 204.022 101.808L205.954 101.58V101.16C205.954 100.272 205.486 99.8278 204.55 99.8278C203.65 99.8278 203.194 100.236 203.17 101.064H201.958C201.97 99.6838 202.954 98.9518 204.598 98.9518ZM204.19 104.376C205.246 104.376 205.954 103.728 205.954 102.732V102.324L204.238 102.528C203.458 102.636 203.062 102.948 203.062 103.464C203.062 104.052 203.482 104.376 204.19 104.376ZM214.031 98.9518C215.891 98.9518 216.923 100.128 216.923 102.096C216.923 104.064 215.891 105.24 214.031 105.24C212.171 105.24 211.139 104.064 211.139 102.096C211.139 100.128 212.195 98.9518 214.031 98.9518ZM214.043 104.304C215.111 104.304 215.687 103.488 215.687 102.096C215.687 100.692 215.111 99.8878 214.043 99.8878C212.951 99.8878 212.363 100.704 212.363 102.096C212.363 103.488 212.951 104.304 214.043 104.304ZM222.133 102.612V99.0718H223.369V105.132H222.373V104.604L222.457 104.064H222.349C222.013 104.748 221.281 105.24 220.213 105.24C218.869 105.24 218.113 104.496 218.113 103.116V99.0718H219.349V102.888C219.349 103.812 219.769 104.268 220.597 104.268C221.521 104.268 222.133 103.656 222.133 102.612ZM227.623 104.232C227.863 104.232 228.139 104.196 228.439 104.112V105.084C228.103 105.192 227.707 105.24 227.239 105.24C225.979 105.24 225.343 104.628 225.343 103.392V102.792V99.9358H224.275V99.0718H225.343V97.4278H226.579V99.0718H228.403V99.9358H226.579V102.72V103.2C226.579 103.884 226.927 104.232 227.623 104.232ZM232.507 98.9518C232.831 98.9518 233.107 98.9998 233.335 99.0958V100.248C233.035 100.164 232.759 100.116 232.495 100.116C231.451 100.116 230.851 100.812 230.851 102.012V105.132H229.615V99.0718H230.623V99.5638L230.527 100.224H230.635C230.911 99.4558 231.547 98.9518 232.507 98.9518ZM236.801 98.9518C238.661 98.9518 239.693 100.128 239.693 102.096C239.693 104.064 238.661 105.24 236.801 105.24C234.941 105.24 233.909 104.064 233.909 102.096C233.909 100.128 234.965 98.9518 236.801 98.9518ZM236.813 104.304C237.881 104.304 238.457 103.488 238.457 102.096C238.457 100.692 237.881 99.8878 236.813 99.8878C235.721 99.8878 235.133 100.704 235.133 102.096C235.133 103.488 235.721 104.304 236.813 104.304ZM249.058 102.012V102.276H244.726C244.774 103.632 245.326 104.316 246.37 104.316C247.174 104.316 247.666 103.944 247.834 103.212H249.022C248.83 104.472 247.858 105.24 246.31 105.24C244.474 105.24 243.466 104.088 243.466 102.12C243.466 100.14 244.534 98.9518 246.346 98.9518C248.11 98.9518 249.058 100.056 249.058 102.012ZM246.31 99.8278C245.398 99.8278 244.882 100.392 244.762 101.52H247.834C247.738 100.392 247.234 99.8278 246.31 99.8278ZM253.445 98.9518C254.801 98.9518 255.581 99.7078 255.581 101.088V105.132H254.357V101.328C254.357 100.404 253.925 99.9358 253.061 99.9358C252.089 99.9358 251.465 100.548 251.465 101.604V105.132H250.229V99.0718H251.225V99.5878L251.153 100.14H251.249C251.585 99.4558 252.329 98.9518 253.445 98.9518ZM259.857 104.232C260.097 104.232 260.373 104.196 260.673 104.112V105.084C260.337 105.192 259.941 105.24 259.473 105.24C258.213 105.24 257.577 104.628 257.577 103.392V102.792V99.9358H256.509V99.0718H257.577V97.4278H258.813V99.0718H260.637V99.9358H258.813V102.72V103.2C258.813 103.884 259.161 104.232 259.857 104.232ZM264.74 98.9518C265.064 98.9518 265.34 98.9998 265.568 99.0958V100.248C265.268 100.164 264.992 100.116 264.728 100.116C263.684 100.116 263.084 100.812 263.084 102.012V105.132H261.848V99.0718H262.856V99.5638L262.76 100.224H262.868C263.144 99.4558 263.78 98.9518 264.74 98.9518ZM271.722 102.012V102.276H267.39C267.438 103.632 267.99 104.316 269.034 104.316C269.838 104.316 270.33 103.944 270.498 103.212H271.686C271.494 104.472 270.522 105.24 268.974 105.24C267.138 105.24 266.13 104.088 266.13 102.12C266.13 100.14 267.198 98.9518 269.01 98.9518C270.774 98.9518 271.722 100.056 271.722 102.012ZM268.974 99.8278C268.062 99.8278 267.546 100.392 267.426 101.52H270.498C270.402 100.392 269.898 99.8278 268.974 99.8278ZM277.369 99.5998V99.0718H278.425V104.796C278.425 106.464 277.453 107.412 275.521 107.412C273.841 107.412 272.881 106.656 272.773 105.312H274.009C274.093 106.092 274.633 106.536 275.533 106.536C276.577 106.536 277.105 105.984 277.141 104.88L277.369 104.304L277.453 103.824H277.345C276.997 104.544 276.253 105.036 275.209 105.036C273.625 105.036 272.725 103.86 272.725 101.988C272.725 100.128 273.625 98.9518 275.209 98.9518C276.253 98.9518 276.997 99.4318 277.333 100.14H277.453L277.369 99.5998ZM275.581 104.148C276.577 104.148 277.153 103.368 277.153 101.988C277.153 100.632 276.577 99.8398 275.581 99.8398C274.537 99.8398 273.985 100.656 273.985 101.988C273.985 103.344 274.561 104.148 275.581 104.148ZM282.301 98.9518C284.029 98.9518 284.893 99.7078 284.893 101.208V105.132H283.897V104.58L283.993 104.028H283.861C283.453 104.832 282.697 105.24 281.581 105.24C280.285 105.24 279.541 104.616 279.541 103.596C279.541 102.6 280.177 102 281.725 101.808L283.657 101.58V101.16C283.657 100.272 283.189 99.8278 282.253 99.8278C281.353 99.8278 280.897 100.236 280.873 101.064H279.661C279.673 99.6838 280.657 98.9518 282.301 98.9518ZM281.893 104.376C282.949 104.376 283.657 103.728 283.657 102.732V102.324L281.941 102.528C281.161 102.636 280.765 102.948 280.765 103.464C280.765 104.052 281.185 104.376 281.893 104.376ZM290.495 99.3478V96.4918H291.731V105.132H290.735V104.58L290.819 104.028H290.699C290.351 104.748 289.619 105.24 288.575 105.24C287.003 105.24 286.079 104.028 286.079 102.108C286.079 100.176 287.015 98.9518 288.587 98.9518C289.631 98.9518 290.363 99.4558 290.699 100.176H290.819L290.735 99.7558L290.495 99.3478ZM288.935 104.292C289.943 104.292 290.519 103.488 290.519 102.096C290.519 100.668 289.943 99.8998 288.935 99.8998C287.891 99.8998 287.339 100.716 287.339 102.096C287.339 103.476 287.915 104.292 288.935 104.292ZM295.753 98.9518C297.613 98.9518 298.645 100.128 298.645 102.096C298.645 104.064 297.613 105.24 295.753 105.24C293.893 105.24 292.861 104.064 292.861 102.096C292.861 100.128 293.917 98.9518 295.753 98.9518ZM295.765 104.304C296.833 104.304 297.409 103.488 297.409 102.096C297.409 100.692 296.833 99.8878 295.765 99.8878C294.673 99.8878 294.085 100.704 294.085 102.096C294.085 103.488 294.673 104.304 295.765 104.304ZM302.727 98.9518C303.051 98.9518 303.327 98.9998 303.555 99.0958V100.248C303.255 100.164 302.979 100.116 302.715 100.116C301.671 100.116 301.071 100.812 301.071 102.012V105.132H299.835V99.0718H300.843V99.5638L300.747 100.224H300.855C301.131 99.4558 301.767 98.9518 302.727 98.9518Z" fill="#3A3A3A"/>
</svg>
