<svg width="329" height="129" viewBox="0 0 329 129" fill="none" xmlns="http://www.w3.org/2000/svg">
<path d="M10.0448 5.09086H13.3728L16.8768 15.7469V16.1309H14.5728L13.9648 14.2429H9.42081L8.82881 16.1309H6.55681V15.7629L10.0448 5.09086ZM11.3568 8.05086L9.99681 12.4189H13.3888L11.9968 8.05086L11.8368 6.96286H11.5168L11.3568 8.05086ZM21.2023 16.2909C18.6263 16.2909 17.1383 14.7389 17.1383 12.0669C17.1383 9.37886 18.6263 7.82686 21.2023 7.82686C23.7783 7.82686 25.2503 9.37886 25.2503 12.0669C25.2503 14.7389 23.8103 16.2909 21.2023 16.2909ZM21.2023 14.5949C22.3863 14.5949 22.9783 13.7469 22.9783 12.0669C22.9783 10.3709 22.3863 9.52286 21.2023 9.52286C20.0343 9.52286 19.3943 10.4189 19.3943 12.0669C19.3943 13.6829 20.0343 14.5949 21.2023 14.5949ZM34.4709 7.82686C34.9029 7.82686 35.2709 7.89086 35.5589 8.01886V10.1309C35.1909 10.0189 34.8229 9.95486 34.4869 9.95486C33.2069 9.95486 32.4389 10.8189 32.4389 12.2429V16.1309H30.1829V8.00286H31.9589V8.61086L31.7829 9.60286H31.9909C32.3109 8.56286 33.1909 7.82686 34.4709 7.82686ZM43.9979 11.9389V12.4349H38.4939C38.5579 13.9069 39.1339 14.6429 40.2219 14.6429C41.0859 14.6429 41.6139 14.2589 41.8059 13.4749H43.9659C43.7099 15.2029 42.3499 16.2909 40.1099 16.2909C37.5659 16.2909 36.1739 14.7869 36.1739 12.1149C36.1739 9.42686 37.6939 7.82686 40.2379 7.82686C42.6859 7.82686 43.9979 9.26686 43.9979 11.9389ZM40.1739 9.37886C39.2459 9.37886 38.7019 9.95486 38.5419 11.1229H41.7579C41.6139 9.95486 41.0859 9.37886 40.1739 9.37886ZM49.1884 16.3069C46.5644 16.3069 45.0764 14.7549 45.0764 12.0669C45.0764 9.37886 46.5804 7.84286 49.2044 7.84286C51.4924 7.84286 52.9644 9.01086 53.1084 11.0109H50.8044C50.6284 10.0029 50.0844 9.49086 49.1724 9.49086C47.9724 9.49086 47.3804 10.3549 47.3804 12.0669C47.3804 13.7309 48.0044 14.6269 49.1724 14.6269C50.0684 14.6269 50.6124 14.1309 50.8044 13.1229H53.1084C52.9644 15.1069 51.5084 16.3069 49.1884 16.3069ZM61.8654 11.9389V12.4349H56.3614C56.4254 13.9069 57.0014 14.6429 58.0894 14.6429C58.9534 14.6429 59.4814 14.2589 59.6734 13.4749H61.8334C61.5774 15.2029 60.2174 16.2909 57.9774 16.2909C55.4334 16.2909 54.0414 14.7869 54.0414 12.1149C54.0414 9.42686 55.5614 7.82686 58.1054 7.82686C60.5534 7.82686 61.8654 9.26686 61.8654 11.9389ZM58.0414 9.37886C57.1134 9.37886 56.5694 9.95486 56.4094 11.1229H59.6254C59.4814 9.95486 58.9534 9.37886 58.0414 9.37886ZM67.7759 7.82686C69.8719 7.82686 71.1359 9.39486 71.1359 12.0669C71.1359 14.7389 69.8559 16.2909 67.7919 16.2909C66.3999 16.2909 65.4559 15.6349 64.9919 14.7229H64.7839L64.9439 15.4749V16.1309H63.1679V4.61086H65.4399V8.11486L64.9439 8.75486L64.7839 9.41086H64.9919C65.5199 8.35486 66.4479 7.82686 67.7759 7.82686ZM65.4079 12.0509C65.4239 13.6509 66.0159 14.5789 67.1039 14.5789C68.1919 14.5789 68.8319 13.6349 68.8159 12.0509C68.7999 10.4669 68.1919 9.53886 67.1039 9.53886C66.0159 9.53886 65.3919 10.4989 65.4079 12.0509ZM80.0142 11.9389V12.4349H74.5102C74.5742 13.9069 75.1502 14.6429 76.2382 14.6429C77.1022 14.6429 77.6302 14.2589 77.8222 13.4749H79.9822C79.7262 15.2029 78.3662 16.2909 76.1262 16.2909C73.5822 16.2909 72.1902 14.7869 72.1902 12.1149C72.1902 9.42686 73.7102 7.82686 76.2542 7.82686C78.7022 7.82686 80.0142 9.26686 80.0142 11.9389ZM76.1902 9.37886C75.2622 9.37886 74.7182 9.95486 74.5582 11.1229H77.7742C77.6302 9.95486 77.1022 9.37886 76.1902 9.37886ZM85.6047 7.82686C86.0367 7.82686 86.4047 7.89086 86.6927 8.01886V10.1309C86.3247 10.0189 85.9567 9.95486 85.6207 9.95486C84.3407 9.95486 83.5727 10.8189 83.5727 12.2429V16.1309H81.3167V8.00286H83.0927V8.61086L82.9167 9.60286H83.1247C83.4447 8.56286 84.3247 7.82686 85.6047 7.82686ZM96.5092 12.7389V8.00286H98.7812V16.1309H97.0052V15.5069L97.1652 14.7389H96.9732C96.5252 15.6349 95.5652 16.2909 94.1092 16.2909C92.3012 16.2909 91.3092 15.2829 91.3092 13.4909V8.00286H93.5652V13.0429C93.5652 14.0349 93.9972 14.5309 94.8772 14.5309C95.8532 14.5309 96.5092 13.8429 96.5092 12.7389ZM109.507 7.84286C111.171 7.84286 112.131 8.80286 112.131 10.4509V16.1309H109.923V10.8669C109.923 9.98686 109.539 9.55486 108.771 9.55486C107.875 9.55486 107.299 10.1629 107.299 11.2029V16.1309H105.091V10.8669C105.091 9.98686 104.707 9.55486 103.923 9.55486C103.027 9.55486 102.467 10.1629 102.467 11.2029V16.1309H100.259V8.00286H101.939V8.64286L101.779 9.42686H101.971C102.371 8.51486 103.267 7.84286 104.595 7.84286C105.587 7.84286 106.291 8.19486 106.707 8.88286L106.563 9.50686H106.739C107.187 8.53086 108.099 7.84286 109.507 7.84286ZM117.183 7.82686C119.663 7.82686 120.895 8.86686 120.895 10.9469V16.1309H119.135V15.4909L119.311 14.7229H119.087C118.527 15.7629 117.535 16.2909 116.079 16.2909C114.287 16.2909 113.279 15.4269 113.279 14.0349C113.279 12.6109 114.175 11.7949 116.303 11.5389L118.639 11.2669V10.8509C118.639 9.87486 118.143 9.37886 117.135 9.37886C116.159 9.37886 115.663 9.84286 115.647 10.7709H113.439C113.455 8.86686 114.815 7.82686 117.183 7.82686ZM116.687 14.7549C117.823 14.7549 118.639 14.0509 118.639 13.0109V12.5789L116.751 12.7869C115.935 12.8989 115.519 13.2349 115.519 13.7949C115.519 14.4349 115.903 14.7549 116.687 14.7549ZM133.613 11.9389V12.4349H128.109C128.173 13.9069 128.749 14.6429 129.837 14.6429C130.701 14.6429 131.229 14.2589 131.421 13.4749H133.581C133.325 15.2029 131.965 16.2909 129.725 16.2909C127.181 16.2909 125.789 14.7869 125.789 12.1149C125.789 9.42686 127.309 7.82686 129.853 7.82686C132.301 7.82686 133.613 9.26686 133.613 11.9389ZM129.789 9.37886C128.861 9.37886 128.317 9.95486 128.157 11.1229H131.373C131.229 9.95486 130.701 9.37886 129.789 9.37886ZM139.635 7.82686C141.475 7.82686 142.499 8.83486 142.499 10.6109V16.1309H140.243V11.0909C140.243 10.0989 139.795 9.60286 138.883 9.60286C137.843 9.60286 137.171 10.2589 137.171 11.3949V16.1309H134.915V8.00286H136.691V8.62686L136.531 9.37886H136.723C137.171 8.48286 138.163 7.82686 139.635 7.82686ZM147.878 16.3069C145.254 16.3069 143.766 14.7549 143.766 12.0669C143.766 9.37886 145.27 7.84286 147.894 7.84286C150.182 7.84286 151.654 9.01086 151.798 11.0109H149.494C149.318 10.0029 148.774 9.49086 147.862 9.49086C146.662 9.49086 146.07 10.3549 146.07 12.0669C146.07 13.7309 146.694 14.6269 147.862 14.6269C148.758 14.6269 149.302 14.1309 149.494 13.1229H151.798C151.654 15.1069 150.198 16.3069 147.878 16.3069ZM156.795 16.2909C154.219 16.2909 152.731 14.7389 152.731 12.0669C152.731 9.37886 154.219 7.82686 156.795 7.82686C159.371 7.82686 160.843 9.37886 160.843 12.0669C160.843 14.7389 159.403 16.2909 156.795 16.2909ZM156.795 14.5949C157.979 14.5949 158.571 13.7469 158.571 12.0669C158.571 10.3709 157.979 9.52286 156.795 9.52286C155.627 9.52286 154.987 10.4189 154.987 12.0669C154.987 13.6829 155.627 14.5949 156.795 14.5949ZM171.371 7.84286C173.035 7.84286 173.995 8.80286 173.995 10.4509V16.1309H171.787V10.8669C171.787 9.98686 171.403 9.55486 170.635 9.55486C169.739 9.55486 169.163 10.1629 169.163 11.2029V16.1309H166.955V10.8669C166.955 9.98686 166.571 9.55486 165.787 9.55486C164.891 9.55486 164.331 10.1629 164.331 11.2029V16.1309H162.123V8.00286H163.803V8.64286L163.643 9.42686H163.835C164.235 8.51486 165.131 7.84286 166.459 7.84286C167.451 7.84286 168.155 8.19486 168.571 8.88286L168.427 9.50686H168.603C169.051 8.53086 169.963 7.84286 171.371 7.84286ZM183.063 11.9389V12.4349H177.559C177.623 13.9069 178.199 14.6429 179.287 14.6429C180.151 14.6429 180.679 14.2589 180.871 13.4749H183.031C182.775 15.2029 181.415 16.2909 179.175 16.2909C176.631 16.2909 175.239 14.7869 175.239 12.1149C175.239 9.42686 176.759 7.82686 179.303 7.82686C181.751 7.82686 183.063 9.26686 183.063 11.9389ZM179.239 9.37886C178.311 9.37886 177.767 9.95486 177.607 11.1229H180.823C180.679 9.95486 180.151 9.37886 179.239 9.37886ZM189.085 7.82686C190.925 7.82686 191.949 8.83486 191.949 10.6109V16.1309H189.693V11.0909C189.693 10.0989 189.245 9.60286 188.333 9.60286C187.293 9.60286 186.621 10.2589 186.621 11.3949V16.1309H184.365V8.00286H186.141V8.62686L185.981 9.37886H186.173C186.621 8.48286 187.613 7.82686 189.085 7.82686ZM198.928 8.11486V4.61086H201.2V16.1309H199.424V15.4749L199.584 14.7229H199.376C198.912 15.6349 197.968 16.2909 196.576 16.2909C194.48 16.2909 193.216 14.7389 193.216 12.0669C193.216 9.39486 194.496 7.82686 196.592 7.82686C197.92 7.82686 198.848 8.35486 199.376 9.41086H199.584L199.424 8.75486L198.928 8.11486ZM197.264 14.5789C198.352 14.5789 198.96 13.6989 198.96 12.0509C198.96 10.3709 198.4 9.53886 197.264 9.53886C196.128 9.53886 195.536 10.4349 195.536 12.0509C195.536 13.6669 196.128 14.5789 197.264 14.5789ZM206.254 7.82686C208.734 7.82686 209.966 8.86686 209.966 10.9469V16.1309H208.206V15.4909L208.382 14.7229H208.158C207.598 15.7629 206.606 16.2909 205.15 16.2909C203.358 16.2909 202.35 15.4269 202.35 14.0349C202.35 12.6109 203.246 11.7949 205.374 11.5389L207.71 11.2669V10.8509C207.71 9.87486 207.214 9.37886 206.206 9.37886C205.23 9.37886 204.734 9.84286 204.718 10.7709H202.51C202.526 8.86686 203.886 7.82686 206.254 7.82686ZM205.758 14.7549C206.894 14.7549 207.71 14.0509 207.71 13.0109V12.5789L205.822 12.7869C205.006 12.8989 204.59 13.2349 204.59 13.7949C204.59 14.4349 204.974 14.7549 205.758 14.7549ZM222.685 11.9389V12.4349H217.181C217.245 13.9069 217.821 14.6429 218.909 14.6429C219.773 14.6429 220.301 14.2589 220.493 13.4749H222.653C222.397 15.2029 221.037 16.2909 218.797 16.2909C216.253 16.2909 214.861 14.7869 214.861 12.1149C214.861 9.42686 216.381 7.82686 218.925 7.82686C221.373 7.82686 222.685 9.26686 222.685 11.9389ZM218.861 9.37886C217.933 9.37886 217.389 9.95486 217.229 11.1229H220.445C220.301 9.95486 219.773 9.37886 218.861 9.37886ZM233.235 7.84286C234.899 7.84286 235.859 8.80286 235.859 10.4509V16.1309H233.651V10.8669C233.651 9.98686 233.267 9.55486 232.499 9.55486C231.603 9.55486 231.027 10.1629 231.027 11.2029V16.1309H228.819V10.8669C228.819 9.98686 228.435 9.55486 227.651 9.55486C226.755 9.55486 226.195 10.1629 226.195 11.2029V16.1309H223.987V8.00286H225.667V8.64286L225.507 9.42686H225.699C226.099 8.51486 226.995 7.84286 228.323 7.84286C229.315 7.84286 230.019 8.19486 230.435 8.88286L230.291 9.50686H230.467C230.915 8.53086 231.827 7.84286 233.235 7.84286ZM244.356 16.2909C242.052 16.2909 240.82 15.4429 240.66 13.7309H242.788C242.948 14.4829 243.508 14.8669 244.452 14.8669C245.332 14.8669 245.892 14.5309 245.892 13.9069C245.892 13.4269 245.46 13.1069 244.596 12.9309L243.06 12.6589C241.572 12.3549 240.772 11.5389 240.772 10.4349C240.772 8.85086 242.132 7.82686 244.388 7.82686C246.58 7.82686 247.828 8.73886 247.94 10.3389H245.812C245.7 9.61886 245.188 9.26686 244.244 9.26686C243.396 9.26686 242.884 9.60286 242.884 10.1149C242.884 10.5469 243.316 10.8349 244.18 11.0109L245.668 11.2669C247.316 11.6029 248.148 12.3549 248.148 13.5549C248.148 15.2349 246.66 16.2909 244.356 16.2909ZM256.951 11.9389V12.4349H251.447C251.511 13.9069 252.087 14.6429 253.175 14.6429C254.039 14.6429 254.567 14.2589 254.759 13.4749H256.919C256.663 15.2029 255.303 16.2909 253.063 16.2909C250.519 16.2909 249.127 14.7869 249.127 12.1149C249.127 9.42686 250.647 7.82686 253.191 7.82686C255.639 7.82686 256.951 9.26686 256.951 11.9389ZM253.127 9.37886C252.199 9.37886 251.655 9.95486 251.495 11.1229H254.711C254.567 9.95486 254.039 9.37886 253.127 9.37886ZM263.454 12.7389V8.00286H265.726V16.1309H263.95V15.5069L264.11 14.7389H263.918C263.47 15.6349 262.51 16.2909 261.054 16.2909C259.246 16.2909 258.254 15.2829 258.254 13.4909V8.00286H260.51V13.0429C260.51 14.0349 260.942 14.5309 261.822 14.5309C262.798 14.5309 263.454 13.8429 263.454 12.7389ZM274.743 16.3069C272.119 16.3069 270.631 14.7549 270.631 12.0669C270.631 9.37886 272.135 7.84286 274.759 7.84286C277.047 7.84286 278.519 9.01086 278.663 11.0109H276.359C276.183 10.0029 275.639 9.49086 274.727 9.49086C273.527 9.49086 272.935 10.3549 272.935 12.0669C272.935 13.7309 273.559 14.6269 274.727 14.6269C275.623 14.6269 276.167 14.1309 276.359 13.1229H278.663C278.519 15.1069 277.063 16.3069 274.743 16.3069ZM287.42 11.9389V12.4349H281.916C281.98 13.9069 282.556 14.6429 283.644 14.6429C284.508 14.6429 285.036 14.2589 285.228 13.4749H287.388C287.132 15.2029 285.772 16.2909 283.532 16.2909C280.988 16.2909 279.596 14.7869 279.596 12.1149C279.596 9.42686 281.116 7.82686 283.66 7.82686C286.108 7.82686 287.42 9.26686 287.42 11.9389ZM283.596 9.37886C282.668 9.37886 282.124 9.95486 281.964 11.1229H285.18C285.036 9.95486 284.508 9.37886 283.596 9.37886ZM293.443 7.82686C295.283 7.82686 296.307 8.83486 296.307 10.6109V16.1309H294.051V11.0909C294.051 10.0989 293.603 9.60286 292.691 9.60286C291.651 9.60286 290.979 10.2589 290.979 11.3949V16.1309H288.723V8.00286H290.499V8.62686L290.339 9.37886H290.531C290.979 8.48286 291.971 7.82686 293.443 7.82686ZM302.117 14.4509C302.405 14.4509 302.725 14.4029 303.093 14.3229V16.0829C302.533 16.2269 301.957 16.2909 301.365 16.2909C299.493 16.2909 298.565 15.4109 298.565 13.6349V12.6749V9.53886H297.253V8.00286H298.565V5.82686H300.837V8.00286H303.061V9.53886H300.837V12.5309V13.2509C300.837 14.0509 301.269 14.4509 302.117 14.4509ZM308.644 7.82686C309.076 7.82686 309.444 7.89086 309.732 8.01886V10.1309C309.364 10.0189 308.996 9.95486 308.66 9.95486C307.38 9.95486 306.612 10.8189 306.612 12.2429V16.1309H304.356V8.00286H306.132V8.61086L305.956 9.60286H306.164C306.484 8.56286 307.364 7.82686 308.644 7.82686ZM314.411 16.2909C311.835 16.2909 310.347 14.7389 310.347 12.0669C310.347 9.37886 311.835 7.82686 314.411 7.82686C316.987 7.82686 318.459 9.37886 318.459 12.0669C318.459 14.7389 317.019 16.2909 314.411 16.2909ZM314.411 14.5949C315.595 14.5949 316.187 13.7469 316.187 12.0669C316.187 10.3709 315.595 9.52286 314.411 9.52286C313.243 9.52286 312.603 10.4189 312.603 12.0669C312.603 13.6829 313.243 14.5949 314.411 14.5949ZM319.573 16.1309V13.5549H321.861V15.4109C321.861 16.6269 321.253 17.7309 320.245 18.3229H319.045V18.0189C319.781 17.5229 320.261 16.8829 320.501 16.1309H319.573ZM7.91594 38.3069C5.29194 38.3069 3.80394 36.7549 3.80394 34.0669C3.80394 31.3789 5.30794 29.8429 7.93194 29.8429C10.2199 29.8429 11.6919 31.0109 11.8359 33.0109H9.53194C9.35594 32.0029 8.81194 31.4909 7.89994 31.4909C6.69994 31.4909 6.10794 32.3549 6.10794 34.0669C6.10794 35.7309 6.73194 36.6269 7.89994 36.6269C8.79594 36.6269 9.33994 36.1309 9.53194 35.1229H11.8359C11.6919 37.1069 10.2359 38.3069 7.91594 38.3069ZM16.8329 38.2909C14.2569 38.2909 12.7689 36.7389 12.7689 34.0669C12.7689 31.3789 14.2569 29.8269 16.8329 29.8269C19.4089 29.8269 20.8809 31.3789 20.8809 34.0669C20.8809 36.7389 19.4409 38.2909 16.8329 38.2909ZM16.8329 36.5949C18.0169 36.5949 18.6089 35.7469 18.6089 34.0669C18.6089 32.3709 18.0169 31.5229 16.8329 31.5229C15.6649 31.5229 15.0249 32.4189 15.0249 34.0669C15.0249 35.6829 15.6649 36.5949 16.8329 36.5949ZM26.8811 29.8269C28.7211 29.8269 29.7451 30.8349 29.7451 32.6109V38.1309H27.4891V33.0909C27.4891 32.0989 27.0411 31.6029 26.1291 31.6029C25.0891 31.6029 24.4171 32.2589 24.4171 33.3949V38.1309H22.1611V30.0029H23.9371V30.6269L23.7771 31.3789H23.9691C24.4171 30.4829 25.4091 29.8269 26.8811 29.8269ZM35.2674 28.1949C34.5474 28.1949 34.1794 28.5469 34.1794 29.2669V30.0029H36.0354V31.5389H34.1794V38.1309H31.8914V31.5389H30.7394V30.0029H31.8914V29.0429C31.8914 27.3149 32.7234 26.4509 34.6274 26.4349C35.2514 26.4509 35.7474 26.5149 36.1314 26.6269V28.3389C35.8434 28.2429 35.5554 28.1949 35.2674 28.1949ZM39.4446 28.7869H37.0606V26.6109H39.4446V28.7869ZM39.3966 38.1309H37.1246V30.0029H39.3966V38.1309ZM45.2659 29.8269C45.6979 29.8269 46.0659 29.8909 46.3539 30.0189V32.1309C45.9859 32.0189 45.6179 31.9549 45.2819 31.9549C44.0019 31.9549 43.2339 32.8189 43.2339 34.2429V38.1309H40.9779V30.0029H42.7539V30.6109L42.5779 31.6029H42.7859C43.1059 30.5629 43.9859 29.8269 45.2659 29.8269ZM56.5659 29.8429C58.2299 29.8429 59.1899 30.8029 59.1899 32.4509V38.1309H56.9819V32.8669C56.9819 31.9869 56.5979 31.5549 55.8299 31.5549C54.9339 31.5549 54.3579 32.1629 54.3579 33.2029V38.1309H52.1499V32.8669C52.1499 31.9869 51.7659 31.5549 50.9819 31.5549C50.0859 31.5549 49.5259 32.1629 49.5259 33.2029V38.1309H47.3179V30.0029H48.9979V30.6429L48.8379 31.4269H49.0299C49.4299 30.5149 50.3259 29.8429 51.6539 29.8429C52.6459 29.8429 53.3499 30.1949 53.7659 30.8829L53.6219 31.5069H53.7979C54.2459 30.5309 55.1579 29.8429 56.5659 29.8429ZM68.2579 33.9389V34.4349H62.7539C62.8179 35.9069 63.3939 36.6429 64.4819 36.6429C65.3459 36.6429 65.8739 36.2589 66.0659 35.4749H68.2259C67.9699 37.2029 66.6099 38.2909 64.3699 38.2909C61.8259 38.2909 60.4339 36.7869 60.4339 34.1149C60.4339 31.4269 61.9539 29.8269 64.4979 29.8269C66.9459 29.8269 68.2579 31.2669 68.2579 33.9389ZM64.4339 31.3789C63.5059 31.3789 62.9619 31.9549 62.8019 33.1229H66.0179C65.8739 31.9549 65.3459 31.3789 64.4339 31.3789ZM76.7969 29.8269C79.2769 29.8269 80.5089 30.8669 80.5089 32.9469V38.1309H78.7489V37.4909L78.9249 36.7229H78.7009C78.1409 37.7629 77.1489 38.2909 75.6929 38.2909C73.9009 38.2909 72.8929 37.4269 72.8929 36.0349C72.8929 34.6109 73.7889 33.7949 75.9169 33.5389L78.2529 33.2669V32.8509C78.2529 31.8749 77.7569 31.3789 76.7489 31.3789C75.7729 31.3789 75.2769 31.8429 75.2609 32.7709H73.0529C73.0689 30.8669 74.4289 29.8269 76.7969 29.8269ZM76.3009 36.7549C77.4369 36.7549 78.2529 36.0509 78.2529 35.0109V34.5789L76.3649 34.7869C75.5489 34.8989 75.1329 35.2349 75.1329 35.7949C75.1329 36.4349 75.5169 36.7549 76.3009 36.7549ZM89.5153 38.3069C86.8913 38.3069 85.4033 36.7549 85.4033 34.0669C85.4033 31.3789 86.9073 29.8429 89.5313 29.8429C91.8193 29.8429 93.2913 31.0109 93.4353 33.0109H91.1313C90.9553 32.0029 90.4113 31.4909 89.4993 31.4909C88.2993 31.4909 87.7073 32.3549 87.7073 34.0669C87.7073 35.7309 88.3313 36.6269 89.4993 36.6269C90.3953 36.6269 90.9393 36.1309 91.1313 35.1229H93.4353C93.2913 37.1069 91.8353 38.3069 89.5153 38.3069ZM99.3283 29.8269C101.184 29.8269 102.208 30.8349 102.208 32.6109V38.1309H99.9363V33.0909C99.9363 32.0989 99.4883 31.6029 98.5763 31.6029C97.5363 31.6029 96.8643 32.2749 96.8643 33.3789V38.1309H94.5923V26.6109H96.8643V30.0029L96.3523 30.6749L96.1923 31.3629H96.4003C96.9603 30.3389 97.9363 29.8269 99.3283 29.8269ZM111.282 33.9389V34.4349H105.778C105.842 35.9069 106.418 36.6429 107.506 36.6429C108.37 36.6429 108.898 36.2589 109.09 35.4749H111.25C110.994 37.2029 109.634 38.2909 107.394 38.2909C104.85 38.2909 103.458 36.7869 103.458 34.1149C103.458 31.4269 104.978 29.8269 107.522 29.8269C109.97 29.8269 111.282 31.2669 111.282 33.9389ZM107.458 31.3789C106.53 31.3789 105.986 31.9549 105.826 33.1229H109.042C108.898 31.9549 108.37 31.3789 107.458 31.3789ZM118.537 30.6269V30.0029H120.425V37.6029C120.425 39.9229 119.065 41.2349 116.313 41.2349C113.929 41.2349 112.585 40.1789 112.441 38.3229H114.697C114.809 39.1549 115.369 39.6669 116.329 39.6669C117.433 39.6669 118.009 39.0269 118.057 37.7629L118.537 36.9789L118.713 36.2909H118.521C118.057 37.2029 117.097 37.8749 115.689 37.8749C113.561 37.8749 112.361 36.3709 112.361 33.8269C112.361 31.3309 113.561 29.8269 115.689 29.8269C117.049 29.8269 117.977 30.3389 118.505 31.3629H118.713L118.537 30.6269ZM118.089 33.8429C118.089 32.3069 117.481 31.4269 116.393 31.4269C115.289 31.4269 114.681 32.3229 114.681 33.8429C114.681 35.3789 115.305 36.2749 116.393 36.2749C117.481 36.2749 118.089 35.4269 118.089 33.8429ZM125.493 29.8269C127.973 29.8269 129.205 30.8669 129.205 32.9469V38.1309H127.445V37.4909L127.621 36.7229H127.397C126.837 37.7629 125.845 38.2909 124.389 38.2909C122.597 38.2909 121.589 37.4269 121.589 36.0349C121.589 34.6109 122.485 33.7949 124.613 33.5389L126.949 33.2669V32.8509C126.949 31.8749 126.453 31.3789 125.445 31.3789C124.469 31.3789 123.973 31.8429 123.957 32.7709H121.749C121.765 30.8669 123.125 29.8269 125.493 29.8269ZM124.997 36.7549C126.133 36.7549 126.949 36.0509 126.949 35.0109V34.5789L125.061 34.7869C124.245 34.8989 123.829 35.2349 123.829 35.7949C123.829 36.4349 124.213 36.7549 124.997 36.7549ZM136.159 30.1149V26.6109H138.431V38.1309H136.655V37.4749L136.815 36.7229H136.607C136.143 37.6349 135.199 38.2909 133.807 38.2909C131.711 38.2909 130.447 36.7389 130.447 34.0669C130.447 31.3949 131.727 29.8269 133.823 29.8269C135.151 29.8269 136.079 30.3549 136.607 31.4109H136.815L136.655 30.7549L136.159 30.1149ZM134.495 36.5789C135.583 36.5789 136.191 35.6989 136.191 34.0509C136.191 32.3709 135.631 31.5389 134.495 31.5389C133.359 31.5389 132.767 32.4349 132.767 34.0509C132.767 35.6669 133.359 36.5789 134.495 36.5789ZM143.486 29.8269C145.966 29.8269 147.198 30.8669 147.198 32.9469V38.1309H145.438V37.4909L145.614 36.7229H145.39C144.83 37.7629 143.838 38.2909 142.382 38.2909C140.59 38.2909 139.582 37.4269 139.582 36.0349C139.582 34.6109 140.478 33.7949 142.606 33.5389L144.942 33.2669V32.8509C144.942 31.8749 144.446 31.3789 143.438 31.3789C142.462 31.3789 141.966 31.8429 141.95 32.7709H139.742C139.758 30.8669 141.118 29.8269 143.486 29.8269ZM142.99 36.7549C144.126 36.7549 144.942 36.0509 144.942 35.0109V34.5789L143.054 34.7869C142.238 34.8989 141.822 35.2349 141.822 35.7949C141.822 36.4349 142.206 36.7549 142.99 36.7549ZM157.804 30.1149V26.6109H160.076V38.1309H158.3V37.4749L158.46 36.7229H158.252C157.788 37.6349 156.844 38.2909 155.452 38.2909C153.356 38.2909 152.092 36.7389 152.092 34.0669C152.092 31.3949 153.372 29.8269 155.468 29.8269C156.796 29.8269 157.724 30.3549 158.252 31.4109H158.46L158.3 30.7549L157.804 30.1149ZM156.14 36.5789C157.228 36.5789 157.836 35.6989 157.836 34.0509C157.836 32.3709 157.276 31.5389 156.14 31.5389C155.004 31.5389 154.412 32.4349 154.412 34.0509C154.412 35.6669 155.004 36.5789 156.14 36.5789ZM163.963 28.7869H161.579V26.6109H163.963V28.7869ZM163.915 38.1309H161.643V30.0029H163.915V38.1309ZM171.448 30.6269V30.0029H173.336V37.6029C173.336 39.9229 171.976 41.2349 169.224 41.2349C166.84 41.2349 165.496 40.1789 165.352 38.3229H167.608C167.72 39.1549 168.28 39.6669 169.24 39.6669C170.344 39.6669 170.92 39.0269 170.968 37.7629L171.448 36.9789L171.624 36.2909H171.432C170.968 37.2029 170.008 37.8749 168.6 37.8749C166.472 37.8749 165.272 36.3709 165.272 33.8269C165.272 31.3309 166.472 29.8269 168.6 29.8269C169.96 29.8269 170.888 30.3389 171.416 31.3629H171.624L171.448 30.6269ZM171 33.8429C171 32.3069 170.392 31.4269 169.304 31.4269C168.2 31.4269 167.592 32.3229 167.592 33.8429C167.592 35.3789 168.216 36.2749 169.304 36.2749C170.392 36.2749 171 35.4269 171 33.8429ZM177.236 28.7869H174.852V26.6109H177.236V28.7869ZM177.188 38.1309H174.916V30.0029H177.188V38.1309ZM183.09 36.4509C183.378 36.4509 183.698 36.4029 184.066 36.3229V38.0829C183.506 38.2269 182.93 38.2909 182.338 38.2909C180.466 38.2909 179.538 37.4109 179.538 35.6349V34.6749V31.5389H178.226V30.0029H179.538V27.8269H181.81V30.0029H184.034V31.5389H181.81V34.5309V35.2509C181.81 36.0509 182.242 36.4509 183.09 36.4509ZM188.959 29.8269C191.439 29.8269 192.671 30.8669 192.671 32.9469V38.1309H190.911V37.4909L191.087 36.7229H190.863C190.303 37.7629 189.311 38.2909 187.855 38.2909C186.063 38.2909 185.055 37.4269 185.055 36.0349C185.055 34.6109 185.951 33.7949 188.079 33.5389L190.415 33.2669V32.8509C190.415 31.8749 189.919 31.3789 188.911 31.3789C187.935 31.3789 187.439 31.8429 187.423 32.7709H185.215C185.231 30.8669 186.591 29.8269 188.959 29.8269ZM188.463 36.7549C189.599 36.7549 190.415 36.0509 190.415 35.0109V34.5789L188.527 34.7869C187.711 34.8989 187.295 35.2349 187.295 35.7949C187.295 36.4349 187.679 36.7549 188.463 36.7549ZM198.857 29.8269C200.697 29.8269 201.721 30.8349 201.721 32.6109V38.1309H199.465V33.0909C199.465 32.0989 199.017 31.6029 198.105 31.6029C197.065 31.6029 196.393 32.2589 196.393 33.3949V38.1309H194.137V30.0029H195.913V30.6269L195.753 31.3789H195.945C196.393 30.4829 197.385 29.8269 198.857 29.8269ZM208.7 30.1149V26.6109H210.972V38.1309H209.196V37.4749L209.356 36.7229H209.148C208.684 37.6349 207.74 38.2909 206.348 38.2909C204.252 38.2909 202.988 36.7389 202.988 34.0669C202.988 31.3949 204.268 29.8269 206.364 29.8269C207.692 29.8269 208.62 30.3549 209.148 31.4109H209.356L209.196 30.7549L208.7 30.1149ZM207.036 36.5789C208.124 36.5789 208.732 35.6989 208.732 34.0509C208.732 32.3709 208.172 31.5389 207.036 31.5389C205.9 31.5389 205.308 32.4349 205.308 34.0509C205.308 35.6669 205.9 36.5789 207.036 36.5789ZM216.235 38.2909C213.659 38.2909 212.171 36.7389 212.171 34.0669C212.171 31.3789 213.659 29.8269 216.235 29.8269C218.811 29.8269 220.283 31.3789 220.283 34.0669C220.283 36.7389 218.843 38.2909 216.235 38.2909ZM216.235 36.5949C217.419 36.5949 218.011 35.7469 218.011 34.0669C218.011 32.3709 217.419 31.5229 216.235 31.5229C215.067 31.5229 214.427 32.4189 214.427 34.0669C214.427 35.6829 215.067 36.5949 216.235 36.5949ZM228.592 38.2909C226.288 38.2909 225.056 37.4429 224.896 35.7309H227.024C227.184 36.4829 227.744 36.8669 228.688 36.8669C229.568 36.8669 230.128 36.5309 230.128 35.9069C230.128 35.4269 229.696 35.1069 228.832 34.9309L227.296 34.6589C225.808 34.3549 225.008 33.5389 225.008 32.4349C225.008 30.8509 226.368 29.8269 228.624 29.8269C230.816 29.8269 232.064 30.7389 232.176 32.3389H230.048C229.936 31.6189 229.424 31.2669 228.48 31.2669C227.632 31.2669 227.12 31.6029 227.12 32.1149C227.12 32.5469 227.552 32.8349 228.416 33.0109L229.904 33.2669C231.552 33.6029 232.384 34.3549 232.384 35.5549C232.384 37.2349 230.896 38.2909 228.592 38.2909ZM241.187 33.9389V34.4349H235.683C235.747 35.9069 236.323 36.6429 237.411 36.6429C238.275 36.6429 238.803 36.2589 238.995 35.4749H241.155C240.899 37.2029 239.539 38.2909 237.299 38.2909C234.755 38.2909 233.363 36.7869 233.363 34.1149C233.363 31.4269 234.883 29.8269 237.427 29.8269C239.875 29.8269 241.187 31.2669 241.187 33.9389ZM237.363 31.3789C236.435 31.3789 235.891 31.9549 235.731 33.1229H238.947C238.803 31.9549 238.275 31.3789 237.363 31.3789ZM247.69 34.7389V30.0029H249.962V38.1309H248.186V37.5069L248.346 36.7389H248.154C247.706 37.6349 246.746 38.2909 245.29 38.2909C243.482 38.2909 242.49 37.2829 242.49 35.4909V30.0029H244.746V35.0429C244.746 36.0349 245.178 36.5309 246.058 36.5309C247.034 36.5309 247.69 35.8429 247.69 34.7389ZM258.98 38.3069C256.356 38.3069 254.868 36.7549 254.868 34.0669C254.868 31.3789 256.372 29.8429 258.996 29.8429C261.284 29.8429 262.756 31.0109 262.9 33.0109H260.596C260.42 32.0029 259.876 31.4909 258.964 31.4909C257.764 31.4909 257.172 32.3549 257.172 34.0669C257.172 35.7309 257.796 36.6269 258.964 36.6269C259.86 36.6269 260.404 36.1309 260.596 35.1229H262.9C262.756 37.1069 261.3 38.3069 258.98 38.3069ZM268.089 29.1389H266.601V28.8189L268.393 26.6109H270.409V26.9149L268.089 29.1389ZM267.897 38.2909C265.321 38.2909 263.833 36.7389 263.833 34.0669C263.833 31.3789 265.321 29.8269 267.897 29.8269C270.473 29.8269 271.945 31.3789 271.945 34.0669C271.945 36.7389 270.505 38.2909 267.897 38.2909ZM267.897 36.5949C269.081 36.5949 269.673 35.7469 269.673 34.0669C269.673 32.3709 269.081 31.5229 267.897 31.5229C266.729 31.5229 266.089 32.4189 266.089 34.0669C266.089 35.6829 266.729 36.5949 267.897 36.5949ZM278.713 30.1149V26.6109H280.985V38.1309H279.209V37.4749L279.369 36.7229H279.161C278.697 37.6349 277.753 38.2909 276.361 38.2909C274.265 38.2909 273.001 36.7389 273.001 34.0669C273.001 31.3949 274.281 29.8269 276.377 29.8269C277.705 29.8269 278.633 30.3549 279.161 31.4109H279.369L279.209 30.7549L278.713 30.1149ZM277.049 36.5789C278.137 36.5789 278.745 35.6989 278.745 34.0509C278.745 32.3709 278.185 31.5389 277.049 31.5389C275.913 31.5389 275.321 32.4349 275.321 34.0509C275.321 35.6669 275.913 36.5789 277.049 36.5789ZM284.871 28.7869H282.487V26.6109H284.871V28.7869ZM284.823 38.1309H282.551V30.0029H284.823V38.1309ZM292.357 30.6269V30.0029H294.245V37.6029C294.245 39.9229 292.885 41.2349 290.133 41.2349C287.749 41.2349 286.405 40.1789 286.261 38.3229H288.517C288.629 39.1549 289.189 39.6669 290.149 39.6669C291.253 39.6669 291.829 39.0269 291.877 37.7629L292.357 36.9789L292.533 36.2909H292.341C291.877 37.2029 290.917 37.8749 289.509 37.8749C287.381 37.8749 286.181 36.3709 286.181 33.8269C286.181 31.3309 287.381 29.8269 289.509 29.8269C290.869 29.8269 291.797 30.3389 292.325 31.3629H292.533L292.357 30.6269ZM291.909 33.8429C291.909 32.3069 291.301 31.4269 290.213 31.4269C289.109 31.4269 288.501 32.3229 288.501 33.8429C288.501 35.3789 289.125 36.2749 290.213 36.2749C291.301 36.2749 291.909 35.4269 291.909 33.8429ZM299.569 38.2909C296.993 38.2909 295.505 36.7389 295.505 34.0669C295.505 31.3789 296.993 29.8269 299.569 29.8269C302.145 29.8269 303.617 31.3789 303.617 34.0669C303.617 36.7389 302.177 38.2909 299.569 38.2909ZM299.569 36.5949C300.753 36.5949 301.345 35.7469 301.345 34.0669C301.345 32.3709 300.753 31.5229 299.569 31.5229C298.401 31.5229 297.761 32.4189 297.761 34.0669C297.761 35.6829 298.401 36.5949 299.569 36.5949ZM314.038 30.1149V26.6109H316.31V38.1309H314.534V37.4749L314.694 36.7229H314.486C314.022 37.6349 313.078 38.2909 311.686 38.2909C309.59 38.2909 308.326 36.7389 308.326 34.0669C308.326 31.3949 309.606 29.8269 311.702 29.8269C313.03 29.8269 313.958 30.3549 314.486 31.4109H314.694L314.534 30.7549L314.038 30.1149ZM312.374 36.5789C313.462 36.5789 314.07 35.6989 314.07 34.0509C314.07 32.3709 313.51 31.5389 312.374 31.5389C311.238 31.5389 310.646 32.4349 310.646 34.0509C310.646 35.6669 311.238 36.5789 312.374 36.5789ZM325.334 33.9389V34.4349H319.83C319.894 35.9069 320.47 36.6429 321.558 36.6429C322.422 36.6429 322.95 36.2589 323.142 35.4749H325.302C325.046 37.2029 323.686 38.2909 321.446 38.2909C318.902 38.2909 317.51 36.7869 317.51 34.1149C317.51 31.4269 319.03 29.8269 321.574 29.8269C324.022 29.8269 325.334 31.2669 325.334 33.9389ZM321.51 31.3789C320.582 31.3789 320.038 31.9549 319.878 33.1229H323.094C322.95 31.9549 322.422 31.3789 321.51 31.3789ZM119.172 51.8269C119.604 51.8269 119.972 51.8909 120.26 52.0189V54.1309C119.892 54.0189 119.524 53.9549 119.188 53.9549C117.908 53.9549 117.14 54.8189 117.14 56.2429V60.1309H114.884V52.0029H116.66V52.6109L116.484 53.6029H116.692C117.012 52.5629 117.892 51.8269 119.172 51.8269ZM124.761 51.8269C127.241 51.8269 128.473 52.8669 128.473 54.9469V60.1309H126.713V59.4909L126.889 58.7229H126.665C126.105 59.7629 125.113 60.2909 123.657 60.2909C121.865 60.2909 120.857 59.4269 120.857 58.0349C120.857 56.6109 121.753 55.7949 123.881 55.5389L126.217 55.2669V54.8509C126.217 53.8749 125.721 53.3789 124.713 53.3789C123.737 53.3789 123.241 53.8429 123.225 54.7709H121.017C121.033 52.8669 122.393 51.8269 124.761 51.8269ZM124.265 58.7549C125.401 58.7549 126.217 58.0509 126.217 57.0109V56.5789L124.329 56.7869C123.513 56.8989 123.097 57.2349 123.097 57.7949C123.097 58.4349 123.481 58.7549 124.265 58.7549ZM133.315 60.2909C131.011 60.2909 129.779 59.4429 129.619 57.7309H131.747C131.907 58.4829 132.467 58.8669 133.411 58.8669C134.291 58.8669 134.851 58.5309 134.851 57.9069C134.851 57.4269 134.419 57.1069 133.555 56.9309L132.019 56.6589C130.531 56.3549 129.731 55.5389 129.731 54.4349C129.731 52.8509 131.091 51.8269 133.347 51.8269C135.539 51.8269 136.787 52.7389 136.899 54.3389H134.771C134.659 53.6189 134.147 53.2669 133.203 53.2669C132.355 53.2669 131.843 53.6029 131.843 54.1149C131.843 54.5469 132.275 54.8349 133.139 55.0109L134.627 55.2669C136.275 55.6029 137.107 56.3549 137.107 57.5549C137.107 59.2349 135.619 60.2909 133.315 60.2909ZM142.63 58.4509C142.918 58.4509 143.238 58.4029 143.606 58.3229V60.0829C143.046 60.2269 142.47 60.2909 141.878 60.2909C140.006 60.2909 139.078 59.4109 139.078 57.6349V56.6749V53.5389H137.766V52.0029H139.078V49.8269H141.35V52.0029H143.574V53.5389H141.35V56.5309V57.2509C141.35 58.0509 141.782 58.4509 142.63 58.4509ZM149.157 51.8269C149.589 51.8269 149.957 51.8909 150.245 52.0189V54.1309C149.877 54.0189 149.509 53.9549 149.173 53.9549C147.893 53.9549 147.125 54.8189 147.125 56.2429V60.1309H144.869V52.0029H146.645V52.6109L146.469 53.6029H146.677C146.997 52.5629 147.877 51.8269 149.157 51.8269ZM158.684 55.9389V56.4349H153.18C153.244 57.9069 153.82 58.6429 154.908 58.6429C155.772 58.6429 156.3 58.2589 156.492 57.4749H158.652C158.396 59.2029 157.036 60.2909 154.796 60.2909C152.252 60.2909 150.86 58.7869 150.86 56.1149C150.86 53.4269 152.38 51.8269 154.924 51.8269C157.372 51.8269 158.684 53.2669 158.684 55.9389ZM154.86 53.3789C153.932 53.3789 153.388 53.9549 153.228 55.1229H156.444C156.3 53.9549 155.772 53.3789 154.86 53.3789ZM163.57 51.8269C166.05 51.8269 167.282 52.8669 167.282 54.9469V60.1309H165.522V59.4909L165.698 58.7229H165.474C164.914 59.7629 163.922 60.2909 162.466 60.2909C160.674 60.2909 159.666 59.4269 159.666 58.0349C159.666 56.6109 160.562 55.7949 162.69 55.5389L165.026 55.2669V54.8509C165.026 53.8749 164.53 53.3789 163.522 53.3789C162.546 53.3789 162.05 53.8429 162.034 54.7709H159.826C159.842 52.8669 161.202 51.8269 163.57 51.8269ZM163.074 58.7549C164.21 58.7549 165.026 58.0509 165.026 57.0109V56.5789L163.138 56.7869C162.322 56.8989 161.906 57.2349 161.906 57.7949C161.906 58.4349 162.29 58.7549 163.074 58.7549ZM177.996 51.8429C179.66 51.8429 180.62 52.8029 180.62 54.4509V60.1309H178.412V54.8669C178.412 53.9869 178.028 53.5549 177.26 53.5549C176.364 53.5549 175.788 54.1629 175.788 55.2029V60.1309H173.58V54.8669C173.58 53.9869 173.196 53.5549 172.412 53.5549C171.516 53.5549 170.956 54.1629 170.956 55.2029V60.1309H168.748V52.0029H170.428V52.6429L170.268 53.4269H170.46C170.86 52.5149 171.756 51.8429 173.084 51.8429C174.076 51.8429 174.78 52.1949 175.196 52.8829L175.052 53.5069H175.228C175.676 52.5309 176.588 51.8429 177.996 51.8429ZM189.688 55.9389V56.4349H184.184C184.248 57.9069 184.824 58.6429 185.912 58.6429C186.776 58.6429 187.304 58.2589 187.496 57.4749H189.656C189.4 59.2029 188.04 60.2909 185.8 60.2909C183.256 60.2909 181.864 58.7869 181.864 56.1149C181.864 53.4269 183.384 51.8269 185.928 51.8269C188.376 51.8269 189.688 53.2669 189.688 55.9389ZM185.864 53.3789C184.936 53.3789 184.392 53.9549 184.232 55.1229H187.448C187.304 53.9549 186.776 53.3789 185.864 53.3789ZM195.711 51.8269C197.551 51.8269 198.575 52.8349 198.575 54.6109V60.1309H196.319V55.0909C196.319 54.0989 195.871 53.6029 194.959 53.6029C193.919 53.6029 193.247 54.2589 193.247 55.3949V60.1309H190.991V52.0029H192.767V52.6269L192.607 53.3789H192.799C193.247 52.4829 194.239 51.8269 195.711 51.8269ZM204.385 58.4509C204.673 58.4509 204.993 58.4029 205.361 58.3229V60.0829C204.801 60.2269 204.225 60.2909 203.633 60.2909C201.761 60.2909 200.833 59.4109 200.833 57.6349V56.6749V53.5389H199.521V52.0029H200.833V49.8269H203.105V52.0029H205.329V53.5389H203.105V56.5309V57.2509C203.105 58.0509 203.537 58.4509 204.385 58.4509ZM210.292 60.2909C207.716 60.2909 206.228 58.7389 206.228 56.0669C206.228 53.3789 207.716 51.8269 210.292 51.8269C212.868 51.8269 214.34 53.3789 214.34 56.0669C214.34 58.7389 212.9 60.2909 210.292 60.2909ZM210.292 58.5949C211.476 58.5949 212.068 57.7469 212.068 56.0669C212.068 54.3709 211.476 53.5229 210.292 53.5229C209.124 53.5229 208.484 54.4189 208.484 56.0669C208.484 57.6829 209.124 58.5949 210.292 58.5949Z" fill="black"/>
<path d="M17.7753 82.2509C15.6993 82.2509 14.5713 81.0149 14.5713 78.7589V73.8509H15.8913V78.8429C15.8913 80.3429 16.5273 81.0989 17.7873 81.0989C19.0473 81.0989 19.6833 80.3429 19.6833 78.8429V73.8509H20.9673V78.7589C20.9673 81.0149 19.8393 82.2509 17.7753 82.2509ZM29.2385 75.9629C30.4505 75.9629 31.1825 76.6589 31.1825 77.9069V82.1189H29.9705V78.1229C29.9705 77.3189 29.6105 76.9109 28.8785 76.9109C28.0145 76.9109 27.4865 77.4749 27.4865 78.4229V82.1309H26.2745V78.1229C26.2745 77.3189 25.9025 76.9109 25.1705 76.9109C24.3185 76.9109 23.7905 77.4749 23.7905 78.4469V82.1309H22.5785V76.0709H23.5265V76.5989L23.4545 77.1269H23.5625C23.8505 76.4429 24.5345 75.9629 25.4945 75.9629C26.3225 75.9629 26.8745 76.2749 27.1505 76.9109L27.0905 77.2349H27.1865C27.4865 76.4789 28.1945 75.9629 29.2385 75.9629ZM35.0447 75.9509C36.7727 75.9509 37.6367 76.7069 37.6367 78.2069V82.1309H36.6407V81.5789L36.7367 81.0269H36.6047C36.1967 81.8309 35.4407 82.2389 34.3247 82.2389C33.0287 82.2389 32.2847 81.6149 32.2847 80.5949C32.2847 79.5989 32.9207 78.9989 34.4687 78.8069L36.4007 78.5789V78.1589C36.4007 77.2709 35.9327 76.8269 34.9967 76.8269C34.0967 76.8269 33.6407 77.2349 33.6167 78.0629H32.4047C32.4167 76.6829 33.4007 75.9509 35.0447 75.9509ZM34.6367 81.3749C35.6927 81.3749 36.4007 80.7269 36.4007 79.7309V79.3229L34.6847 79.5269C33.9047 79.6349 33.5087 79.9469 33.5087 80.4629C33.5087 81.0509 33.9287 81.3749 34.6367 81.3749ZM45.0297 82.1309H43.5177L41.3097 76.2389V76.0709H42.5577L44.1417 80.4749L44.2017 80.8949H44.3577L44.4177 80.4749L46.0017 76.0709H47.2257V76.2269L45.0297 82.1309ZM53.1863 79.0109V79.2749H48.8543C48.9023 80.6309 49.4543 81.3149 50.4983 81.3149C51.3023 81.3149 51.7943 80.9429 51.9623 80.2109H53.1503C52.9583 81.4709 51.9863 82.2389 50.4383 82.2389C48.6023 82.2389 47.5943 81.0869 47.5943 79.1189C47.5943 77.1389 48.6623 75.9509 50.4743 75.9509C52.2383 75.9509 53.1863 77.0549 53.1863 79.0109ZM50.4383 76.8269C49.5263 76.8269 49.0103 77.3909 48.8903 78.5189H51.9623C51.8663 77.3909 51.3623 76.8269 50.4383 76.8269ZM58.9174 82.1309H54.1774V81.2789L57.0694 77.2829L57.3934 77.1029V76.9709L56.9854 77.0069H54.2254V76.0709H58.8934V76.9229L56.0014 80.9069L55.6894 81.0989V81.2309L56.0854 81.1949H58.9174V82.1309ZM65.6431 82.2509C63.7591 82.2509 62.7151 81.0749 62.7151 79.0949C62.7151 77.1269 63.7711 75.9629 65.6551 75.9629C67.2391 75.9629 68.2711 76.7789 68.4031 78.1709H67.1431C66.9751 77.3069 66.4711 76.8749 65.6431 76.8749C64.5391 76.8749 63.9631 77.6669 63.9631 79.0949C63.9631 80.5229 64.5511 81.3149 65.6431 81.3149C66.4471 81.3149 66.9871 80.8349 67.1431 80.0069H68.4031C68.2711 81.4109 67.2631 82.2509 65.6431 82.2509ZM72.2136 75.9509C74.0736 75.9509 75.1056 77.1269 75.1056 79.0949C75.1056 81.0629 74.0736 82.2389 72.2136 82.2389C70.3536 82.2389 69.3216 81.0629 69.3216 79.0949C69.3216 77.1269 70.3776 75.9509 72.2136 75.9509ZM72.2256 81.3029C73.2936 81.3029 73.8696 80.4869 73.8696 79.0949C73.8696 77.6909 73.2936 76.8869 72.2256 76.8869C71.1336 76.8869 70.5456 77.7029 70.5456 79.0949C70.5456 80.4869 71.1336 81.3029 72.2256 81.3029ZM79.5114 75.9509C80.8674 75.9509 81.6474 76.7069 81.6474 78.0869V82.1309H80.4234V78.3269C80.4234 77.4029 79.9914 76.9349 79.1274 76.9349C78.1554 76.9349 77.5314 77.5469 77.5314 78.6029V82.1309H76.2954V76.0709H77.2914V76.5869L77.2194 77.1389H77.3154C77.6514 76.4549 78.3954 75.9509 79.5114 75.9509ZM85.6592 74.3549C85.0712 74.3549 84.7832 74.6549 84.7832 75.2549V76.0709H86.2832V76.9349H84.7832V82.1309H83.5472L83.5352 76.9349H82.6112V76.0709H83.5352V75.1469C83.5352 73.9709 84.1352 73.3829 85.3472 73.3709C85.7672 73.3829 86.1032 73.4309 86.3672 73.5149V74.4749C86.1512 74.3909 85.9112 74.3549 85.6592 74.3549ZM88.6037 75.0149H87.2477V73.4909H88.6157L88.6037 75.0149ZM88.5557 82.1309H87.3197V76.0709H88.5557V82.1309ZM92.9133 75.9509C93.2373 75.9509 93.5133 75.9989 93.7413 76.0949V77.2469C93.4413 77.1629 93.1653 77.1149 92.9013 77.1149C91.8573 77.1149 91.2573 77.8109 91.2573 79.0109V82.1309H90.0213V76.0709H91.0293V76.5629L90.9333 77.2229H91.0413C91.3173 76.4549 91.9533 75.9509 92.9133 75.9509ZM101.261 75.9629C102.473 75.9629 103.205 76.6589 103.205 77.9069V82.1189H101.993V78.1229C101.993 77.3189 101.633 76.9109 100.901 76.9109C100.037 76.9109 99.5086 77.4749 99.5086 78.4229V82.1309H98.2966V78.1229C98.2966 77.3189 97.9246 76.9109 97.1926 76.9109C96.3406 76.9109 95.8126 77.4749 95.8126 78.4469V82.1309H94.6006V76.0709H95.5486V76.5989L95.4766 77.1269H95.5846C95.8726 76.4429 96.5566 75.9629 97.5166 75.9629C98.3446 75.9629 98.8966 76.2749 99.1726 76.9109L99.1126 77.2349H99.2086C99.5086 76.4789 100.217 75.9629 101.261 75.9629ZM107.067 75.9509C108.795 75.9509 109.659 76.7069 109.659 78.2069V82.1309H108.663V81.5789L108.759 81.0269H108.627C108.219 81.8309 107.463 82.2389 106.347 82.2389C105.051 82.2389 104.307 81.6149 104.307 80.5949C104.307 79.5989 104.943 78.9989 106.491 78.8069L108.423 78.5789V78.1589C108.423 77.2709 107.955 76.8269 107.019 76.8269C106.119 76.8269 105.663 77.2349 105.639 78.0629H104.427C104.439 76.6829 105.423 75.9509 107.067 75.9509ZM106.659 81.3749C107.715 81.3749 108.423 80.7269 108.423 79.7309V79.3229L106.707 79.5269C105.927 79.6349 105.531 79.9469 105.531 80.4629C105.531 81.0509 105.951 81.3749 106.659 81.3749ZM115.261 76.3469V73.4909H116.497V82.1309H115.501V81.5789L115.585 81.0269H115.465C115.117 81.7469 114.385 82.2389 113.341 82.2389C111.769 82.2389 110.845 81.0269 110.845 79.1069C110.845 77.1749 111.781 75.9509 113.353 75.9509C114.397 75.9509 115.129 76.4549 115.465 77.1749H115.585L115.501 76.7549L115.261 76.3469ZM113.701 81.2909C114.709 81.2909 115.285 80.4869 115.285 79.0949C115.285 77.6669 114.709 76.8989 113.701 76.8989C112.657 76.8989 112.105 77.7149 112.105 79.0949C112.105 80.4749 112.681 81.2909 113.701 81.2909ZM120.519 75.9509C122.379 75.9509 123.411 77.1269 123.411 79.0949C123.411 81.0629 122.379 82.2389 120.519 82.2389C118.659 82.2389 117.627 81.0629 117.627 79.0949C117.627 77.1269 118.683 75.9509 120.519 75.9509ZM120.531 81.3029C121.599 81.3029 122.175 80.4869 122.175 79.0949C122.175 77.6909 121.599 76.8869 120.531 76.8869C119.439 76.8869 118.851 77.7029 118.851 79.0949C118.851 80.4869 119.439 81.3029 120.531 81.3029ZM130.088 75.9509C131.948 75.9509 132.98 77.1269 132.98 79.0949C132.98 81.0629 131.948 82.2389 130.088 82.2389C128.228 82.2389 127.196 81.0629 127.196 79.0949C127.196 77.1269 128.252 75.9509 130.088 75.9509ZM130.1 81.3029C131.168 81.3029 131.744 80.4869 131.744 79.0949C131.744 77.6909 131.168 76.8869 130.1 76.8869C129.008 76.8869 128.42 77.7029 128.42 79.0949C128.42 80.4869 129.008 81.3029 130.1 81.3029ZM139.44 75.9509C141.168 75.9509 142.032 76.7069 142.032 78.2069V82.1309H141.036V81.5789L141.132 81.0269H141C140.592 81.8309 139.836 82.2389 138.72 82.2389C137.424 82.2389 136.68 81.6149 136.68 80.5949C136.68 79.5989 137.316 78.9989 138.864 78.8069L140.796 78.5789V78.1589C140.796 77.2709 140.328 76.8269 139.392 76.8269C138.492 76.8269 138.036 77.2349 138.012 78.0629H136.8C136.812 76.6829 137.796 75.9509 139.44 75.9509ZM139.032 81.3749C140.088 81.3749 140.796 80.7269 140.796 79.7309V79.3229L139.08 79.5269C138.3 79.6349 137.904 79.9469 137.904 80.4629C137.904 81.0509 138.324 81.3749 139.032 81.3749ZM146.279 75.9509C146.603 75.9509 146.879 75.9989 147.107 76.0949V77.2469C146.807 77.1629 146.531 77.1149 146.267 77.1149C145.223 77.1149 144.623 77.8109 144.623 79.0109V82.1309H143.387V76.0709H144.395V76.5629L144.299 77.2229H144.407C144.683 76.4549 145.319 75.9509 146.279 75.9509ZM154.626 75.9629C155.838 75.9629 156.57 76.6589 156.57 77.9069V82.1189H155.358V78.1229C155.358 77.3189 154.998 76.9109 154.266 76.9109C153.402 76.9109 152.874 77.4749 152.874 78.4229V82.1309H151.662V78.1229C151.662 77.3189 151.29 76.9109 150.558 76.9109C149.706 76.9109 149.178 77.4749 149.178 78.4469V82.1309H147.966V76.0709H148.914V76.5989L148.842 77.1269H148.95C149.238 76.4429 149.922 75.9629 150.882 75.9629C151.71 75.9629 152.262 76.2749 152.538 76.9109L152.478 77.2349H152.574C152.874 76.4789 153.582 75.9629 154.626 75.9629ZM160.432 75.9509C162.16 75.9509 163.024 76.7069 163.024 78.2069V82.1309H162.028V81.5789L162.124 81.0269H161.992C161.584 81.8309 160.828 82.2389 159.712 82.2389C158.416 82.2389 157.672 81.6149 157.672 80.5949C157.672 79.5989 158.308 78.9989 159.856 78.8069L161.788 78.5789V78.1589C161.788 77.2709 161.32 76.8269 160.384 76.8269C159.484 76.8269 159.028 77.2349 159.004 78.0629H157.792C157.804 76.6829 158.788 75.9509 160.432 75.9509ZM160.024 81.3749C161.08 81.3749 161.788 80.7269 161.788 79.7309V79.3229L160.072 79.5269C159.292 79.6349 158.896 79.9469 158.896 80.4629C158.896 81.0509 159.316 81.3749 160.024 81.3749ZM168.938 82.1309H164.198V81.2789L167.09 77.2829L167.414 77.1029V76.9709L167.006 77.0069H164.246V76.0709H168.914V76.9229L166.022 80.9069L165.71 81.0989V81.2309L166.106 81.1949H168.938V82.1309ZM175.354 79.0109V79.2749H171.022C171.07 80.6309 171.622 81.3149 172.666 81.3149C173.47 81.3149 173.962 80.9429 174.13 80.2109H175.318C175.126 81.4709 174.154 82.2389 172.606 82.2389C170.77 82.2389 169.762 81.0869 169.762 79.1189C169.762 77.1389 170.83 75.9509 172.642 75.9509C174.406 75.9509 175.354 77.0549 175.354 79.0109ZM172.606 76.8269C171.694 76.8269 171.178 77.3909 171.058 78.5189H174.13C174.034 77.3909 173.53 76.8269 172.606 76.8269ZM179.741 75.9509C181.097 75.9509 181.877 76.7069 181.877 78.0869V82.1309H180.653V78.3269C180.653 77.4029 180.221 76.9349 179.357 76.9349C178.385 76.9349 177.761 77.5469 177.761 78.6029V82.1309H176.525V76.0709H177.521V76.5869L177.449 77.1389H177.545C177.881 76.4549 178.625 75.9509 179.741 75.9509ZM185.757 75.9509C187.485 75.9509 188.349 76.7069 188.349 78.2069V82.1309H187.353V81.5789L187.449 81.0269H187.317C186.909 81.8309 186.153 82.2389 185.037 82.2389C183.741 82.2389 182.997 81.6149 182.997 80.5949C182.997 79.5989 183.633 78.9989 185.181 78.8069L187.113 78.5789V78.1589C187.113 77.2709 186.645 76.8269 185.709 76.8269C184.809 76.8269 184.353 77.2349 184.329 78.0629H183.117C183.129 76.6829 184.113 75.9509 185.757 75.9509ZM185.349 81.3749C186.405 81.3749 187.113 80.7269 187.113 79.7309V79.3229L185.397 79.5269C184.617 79.6349 184.221 79.9469 184.221 80.4629C184.221 81.0509 184.641 81.3749 185.349 81.3749ZM196.363 75.9629C197.575 75.9629 198.307 76.6589 198.307 77.9069V82.1189H197.095V78.1229C197.095 77.3189 196.735 76.9109 196.003 76.9109C195.139 76.9109 194.611 77.4749 194.611 78.4229V82.1309H193.399V78.1229C193.399 77.3189 193.027 76.9109 192.295 76.9109C191.443 76.9109 190.915 77.4749 190.915 78.4469V82.1309H189.703V76.0709H190.651V76.5989L190.579 77.1269H190.687C190.975 76.4429 191.659 75.9629 192.619 75.9629C193.447 75.9629 193.999 76.2749 194.275 76.9109L194.215 77.2349H194.311C194.611 76.4789 195.319 75.9629 196.363 75.9629ZM205.073 79.0109V79.2749H200.741C200.789 80.6309 201.341 81.3149 202.385 81.3149C203.189 81.3149 203.681 80.9429 203.849 80.2109H205.037C204.845 81.4709 203.873 82.2389 202.325 82.2389C200.489 82.2389 199.481 81.0869 199.481 79.1189C199.481 77.1389 200.549 75.9509 202.361 75.9509C204.125 75.9509 205.073 77.0549 205.073 79.0109ZM202.325 76.8269C201.413 76.8269 200.897 77.3909 200.777 78.5189H203.849C203.753 77.3909 203.249 76.8269 202.325 76.8269ZM209.46 75.9509C210.816 75.9509 211.596 76.7069 211.596 78.0869V82.1309H210.372V78.3269C210.372 77.4029 209.94 76.9349 209.076 76.9349C208.104 76.9349 207.48 77.5469 207.48 78.6029V82.1309H206.244V76.0709H207.24V76.5869L207.168 77.1389H207.264C207.6 76.4549 208.344 75.9509 209.46 75.9509ZM215.872 81.2309C216.112 81.2309 216.388 81.1949 216.688 81.1109V82.0829C216.352 82.1909 215.956 82.2389 215.488 82.2389C214.228 82.2389 213.592 81.6269 213.592 80.3909V79.7909V76.9349H212.524V76.0709H213.592V74.4269H214.828V76.0709H216.652V76.9349H214.828V79.7189V80.1989C214.828 80.8829 215.176 81.2309 215.872 81.2309ZM220.423 75.9509C222.283 75.9509 223.315 77.1269 223.315 79.0949C223.315 81.0629 222.283 82.2389 220.423 82.2389C218.563 82.2389 217.531 81.0629 217.531 79.0949C217.531 77.1269 218.587 75.9509 220.423 75.9509ZM220.435 81.3029C221.503 81.3029 222.079 80.4869 222.079 79.0949C222.079 77.6909 221.503 76.8869 220.435 76.8869C219.343 76.8869 218.755 77.7029 218.755 79.0949C218.755 80.4869 219.343 81.3029 220.435 81.3029ZM231.516 76.3469V73.4909H232.752V82.1309H231.756V81.5789L231.84 81.0269H231.72C231.372 81.7469 230.64 82.2389 229.596 82.2389C228.024 82.2389 227.1 81.0269 227.1 79.1069C227.1 77.1749 228.036 75.9509 229.608 75.9509C230.652 75.9509 231.384 76.4549 231.72 77.1749H231.84L231.756 76.7549L231.516 76.3469ZM229.956 81.2909C230.964 81.2909 231.54 80.4869 231.54 79.0949C231.54 77.6669 230.964 76.8989 229.956 76.8989C228.912 76.8989 228.36 77.7149 228.36 79.0949C228.36 80.4749 228.936 81.2909 229.956 81.2909ZM236.774 75.9509C238.634 75.9509 239.666 77.1269 239.666 79.0949C239.666 81.0629 238.634 82.2389 236.774 82.2389C234.914 82.2389 233.882 81.0629 233.882 79.0949C233.882 77.1269 234.938 75.9509 236.774 75.9509ZM236.786 81.3029C237.854 81.3029 238.43 80.4869 238.43 79.0949C238.43 77.6909 237.854 76.8869 236.786 76.8869C235.694 76.8869 235.106 77.7029 235.106 79.0949C235.106 80.4869 235.694 81.3029 236.786 81.3029ZM246.775 75.9629C248.395 75.9629 249.283 77.1629 249.283 79.0949C249.283 81.0509 248.371 82.2509 246.775 82.2509C245.731 82.2509 244.999 81.7469 244.651 81.0269H244.543L244.615 81.4469L244.867 81.8549V84.3029H243.619V76.0709H244.615V76.6229L244.543 77.1749H244.663C244.999 76.4669 245.731 75.9629 246.775 75.9629ZM246.427 81.3029C247.471 81.3029 248.023 80.4869 248.023 79.1069C248.023 77.7269 247.447 76.9109 246.427 76.9109C245.419 76.9109 244.843 77.7149 244.843 79.1069C244.843 80.5349 245.419 81.3029 246.427 81.3029ZM255.895 79.0109V79.2749H251.563C251.611 80.6309 252.163 81.3149 253.207 81.3149C254.011 81.3149 254.503 80.9429 254.671 80.2109H255.859C255.667 81.4709 254.695 82.2389 253.147 82.2389C251.311 82.2389 250.303 81.0869 250.303 79.1189C250.303 77.1389 251.371 75.9509 253.183 75.9509C254.947 75.9509 255.895 77.0549 255.895 79.0109ZM253.147 76.8269C252.235 76.8269 251.719 77.3909 251.599 78.5189H254.671C254.575 77.3909 254.071 76.8269 253.147 76.8269ZM261.315 76.3469V73.4909H262.551V82.1309H261.555V81.5789L261.639 81.0269H261.519C261.171 81.7469 260.439 82.2389 259.395 82.2389C257.823 82.2389 256.899 81.0269 256.899 79.1069C256.899 77.1749 257.835 75.9509 259.407 75.9509C260.451 75.9509 261.183 76.4549 261.519 77.1749H261.639L261.555 76.7549L261.315 76.3469ZM259.755 81.2909C260.763 81.2909 261.339 80.4869 261.339 79.0949C261.339 77.6669 260.763 76.8989 259.755 76.8989C258.711 76.8989 258.159 77.7149 258.159 79.0949C258.159 80.4749 258.735 81.2909 259.755 81.2909ZM265.311 75.0149H263.955V73.4909H265.323L265.311 75.0149ZM265.263 82.1309H264.027V76.0709H265.263V82.1309ZM270.977 76.3469V73.4909H272.213V82.1309H271.217V81.5789L271.301 81.0269H271.181C270.833 81.7469 270.101 82.2389 269.057 82.2389C267.485 82.2389 266.561 81.0269 266.561 79.1069C266.561 77.1749 267.497 75.9509 269.069 75.9509C270.113 75.9509 270.845 76.4549 271.181 77.1749H271.301L271.217 76.7549L270.977 76.3469ZM269.417 81.2909C270.425 81.2909 271.001 80.4869 271.001 79.0949C271.001 77.6669 270.425 76.8989 269.417 76.8989C268.373 76.8989 267.821 77.7149 267.821 79.0949C267.821 80.4749 268.397 81.2909 269.417 81.2909ZM276.235 75.9509C278.095 75.9509 279.127 77.1269 279.127 79.0949C279.127 81.0629 278.095 82.2389 276.235 82.2389C274.375 82.2389 273.343 81.0629 273.343 79.0949C273.343 77.1269 274.399 75.9509 276.235 75.9509ZM276.247 81.3029C277.315 81.3029 277.891 80.4869 277.891 79.0949C277.891 77.6909 277.315 76.8869 276.247 76.8869C275.155 76.8869 274.567 77.7029 274.567 79.0949C274.567 80.4869 275.155 81.3029 276.247 81.3029ZM280.061 82.1309V80.4269H281.393V81.7109C281.393 82.5869 281.045 83.2709 280.361 83.7629H279.653V83.5709C280.169 83.1749 280.481 82.6949 280.613 82.1309H280.061ZM288.008 82.2389C286.376 82.2389 285.488 81.6149 285.344 80.3669H286.532C286.664 81.0749 287.168 81.4229 288.044 81.4229C288.872 81.4229 289.424 81.0749 289.424 80.4869C289.424 80.0189 289.064 79.7189 288.332 79.5749L287.096 79.3589C286.028 79.1549 285.452 78.5789 285.452 77.7749C285.452 76.6709 286.412 75.9509 287.996 75.9509C289.496 75.9509 290.42 76.5869 290.528 77.7749H289.34C289.256 77.1029 288.776 76.7669 287.924 76.7669C287.108 76.7669 286.616 77.1149 286.616 77.6069C286.616 78.0149 286.976 78.2909 287.684 78.4349L288.884 78.6509C290.072 78.8789 290.66 79.4429 290.66 80.3189C290.66 81.4829 289.628 82.2389 288.008 82.2389ZM297.217 79.0109V79.2749H292.885C292.933 80.6309 293.485 81.3149 294.529 81.3149C295.333 81.3149 295.825 80.9429 295.993 80.2109H297.181C296.989 81.4709 296.017 82.2389 294.469 82.2389C292.633 82.2389 291.625 81.0869 291.625 79.1189C291.625 77.1389 292.693 75.9509 294.505 75.9509C296.269 75.9509 297.217 77.0549 297.217 79.0109ZM294.469 76.8269C293.557 76.8269 293.041 77.3909 292.921 78.5189H295.993C295.897 77.3909 295.393 76.8269 294.469 76.8269ZM301.28 75.9509C301.604 75.9509 301.88 75.9989 302.108 76.0949V77.2469C301.808 77.1629 301.532 77.1149 301.268 77.1149C300.224 77.1149 299.624 77.8109 299.624 79.0109V82.1309H298.388V76.0709H299.396V76.5629L299.3 77.2229H299.408C299.684 76.4549 300.32 75.9509 301.28 75.9509ZM304.145 75.2909H303.509C303.449 74.5589 303.845 73.9349 304.625 73.9349C304.889 73.9349 305.165 74.0429 305.465 74.2589C305.765 74.4629 305.993 74.5709 306.137 74.5709C306.437 74.5709 306.605 74.3189 306.569 73.9709H307.241C307.301 74.7389 306.941 75.3269 306.185 75.3269C305.897 75.3269 305.597 75.2189 305.285 75.0149C304.973 74.7989 304.745 74.6909 304.613 74.6909C304.277 74.6909 304.133 74.9549 304.145 75.2909ZM305.405 75.9509C307.133 75.9509 307.997 76.7069 307.997 78.2069V82.1309H307.001V81.5789L307.097 81.0269H306.965C306.557 81.8309 305.801 82.2389 304.685 82.2389C303.389 82.2389 302.645 81.6149 302.645 80.5949C302.645 79.5989 303.281 78.9989 304.829 78.8069L306.761 78.5789V78.1589C306.761 77.2709 306.293 76.8269 305.357 76.8269C304.457 76.8269 304.001 77.2349 303.977 78.0629H302.765C302.777 76.6829 303.761 75.9509 305.405 75.9509ZM304.997 81.3749C306.053 81.3749 306.761 80.7269 306.761 79.7309V79.3229L305.045 79.5269C304.265 79.6349 303.869 79.9469 303.869 80.4629C303.869 81.0509 304.289 81.3749 304.997 81.3749ZM312.075 75.9509C313.935 75.9509 314.967 77.1269 314.967 79.0949C314.967 81.0629 313.935 82.2389 312.075 82.2389C310.215 82.2389 309.183 81.0629 309.183 79.0949C309.183 77.1269 310.239 75.9509 312.075 75.9509ZM312.087 81.3029C313.155 81.3029 313.731 80.4869 313.731 79.0949C313.731 77.6909 313.155 76.8869 312.087 76.8869C310.995 76.8869 310.407 77.7029 310.407 79.0949C310.407 80.4869 310.995 81.3029 312.087 81.3029ZM9.25318 101.011V101.275H4.92118C4.96918 102.631 5.52118 103.315 6.56518 103.315C7.36918 103.315 7.86118 102.943 8.02918 102.211H9.21718C9.02518 103.471 8.05318 104.239 6.50518 104.239C4.66918 104.239 3.66118 103.087 3.66118 101.119C3.66118 99.1389 4.72918 97.9509 6.54118 97.9509C8.30518 97.9509 9.25318 99.0549 9.25318 101.011ZM6.50518 98.8269C5.59318 98.8269 5.07718 99.3909 4.95718 100.519H8.02918C7.93318 99.3909 7.42918 98.8269 6.50518 98.8269ZM13.6403 97.9509C14.9963 97.9509 15.7763 98.7069 15.7763 100.087V104.131H14.5523V100.327C14.5523 99.4029 14.1203 98.9349 13.2563 98.9349C12.2843 98.9349 11.6603 99.5469 11.6603 100.603V104.131H10.4243V98.0709H11.4203V98.5869L11.3483 99.1389H11.4443C11.7803 98.4549 12.5243 97.9509 13.6403 97.9509ZM20.2366 104.131H18.7246L16.5166 98.2389V98.0709H17.7646L19.3486 102.475L19.4086 102.895H19.5646L19.6246 102.475L21.2086 98.0709H22.4326V98.2269L20.2366 104.131ZM24.7482 97.0149H23.3922V95.4909H24.7602L24.7482 97.0149ZM24.7002 104.131H23.4642V98.0709H24.7002V104.131ZM28.6739 97.9509C30.4019 97.9509 31.2659 98.7069 31.2659 100.207V104.131H30.2699V103.579L30.3659 103.027H30.2339C29.8259 103.831 29.0699 104.239 27.9539 104.239C26.6579 104.239 25.9139 103.615 25.9139 102.595C25.9139 101.599 26.5499 100.999 28.0979 100.807L30.0299 100.579V100.159C30.0299 99.2709 29.5619 98.8269 28.6259 98.8269C27.7259 98.8269 27.2699 99.2349 27.2459 100.063H26.0339C26.0459 98.6829 27.0299 97.9509 28.6739 97.9509ZM28.2659 103.375C29.3219 103.375 30.0299 102.727 30.0299 101.731V101.323L28.3139 101.527C27.5339 101.635 27.1379 101.947 27.1379 102.463C27.1379 103.051 27.5579 103.375 28.2659 103.375ZM36.8681 98.3469V95.4909H38.1041V104.131H37.1081V103.579L37.1921 103.027H37.0721C36.7241 103.747 35.9921 104.239 34.9481 104.239C33.3761 104.239 32.4521 103.027 32.4521 101.107C32.4521 99.1749 33.3881 97.9509 34.9601 97.9509C36.0041 97.9509 36.7361 98.4549 37.0721 99.1749H37.1921L37.1081 98.7549L36.8681 98.3469ZM35.3081 103.291C36.3161 103.291 36.8921 102.487 36.8921 101.095C36.8921 99.6669 36.3161 98.8989 35.3081 98.8989C34.2641 98.8989 33.7121 99.7149 33.7121 101.095C33.7121 102.475 34.2881 103.291 35.3081 103.291ZM41.9807 97.9509C43.7087 97.9509 44.5727 98.7069 44.5727 100.207V104.131H43.5767V103.579L43.6727 103.027H43.5407C43.1327 103.831 42.3767 104.239 41.2607 104.239C39.9647 104.239 39.2207 103.615 39.2207 102.595C39.2207 101.599 39.8567 100.999 41.4047 100.807L43.3367 100.579V100.159C43.3367 99.2709 42.8687 98.8269 41.9327 98.8269C41.0327 98.8269 40.5767 99.2349 40.5527 100.063H39.3407C39.3527 98.6829 40.3367 97.9509 41.9807 97.9509ZM41.5727 103.375C42.6287 103.375 43.3367 102.727 43.3367 101.731V101.323L41.6207 101.527C40.8407 101.635 40.4447 101.947 40.4447 102.463C40.4447 103.051 40.8647 103.375 41.5727 103.375ZM48.327 104.239C46.695 104.239 45.807 103.615 45.663 102.367H46.851C46.983 103.075 47.487 103.423 48.363 103.423C49.191 103.423 49.743 103.075 49.743 102.487C49.743 102.019 49.383 101.719 48.651 101.575L47.415 101.359C46.347 101.155 45.771 100.579 45.771 99.7749C45.771 98.6709 46.731 97.9509 48.315 97.9509C49.815 97.9509 50.739 98.5869 50.847 99.7749H49.659C49.575 99.1029 49.095 98.7669 48.243 98.7669C47.427 98.7669 46.935 99.1149 46.935 99.6069C46.935 100.015 47.295 100.291 48.003 100.435L49.203 100.651C50.391 100.879 50.979 101.443 50.979 102.319C50.979 103.483 49.947 104.239 48.327 104.239ZM57.2862 104.239C55.6542 104.239 54.7662 103.615 54.6222 102.367H55.8102C55.9422 103.075 56.4462 103.423 57.3222 103.423C58.1502 103.423 58.7022 103.075 58.7022 102.487C58.7022 102.019 58.3422 101.719 57.6102 101.575L56.3742 101.359C55.3062 101.155 54.7302 100.579 54.7302 99.7749C54.7302 98.6709 55.6902 97.9509 57.2742 97.9509C58.7742 97.9509 59.6982 98.5869 59.8062 99.7749H58.6182C58.5342 99.1029 58.0542 98.7669 57.2022 98.7669C56.3862 98.7669 55.8942 99.1149 55.8942 99.6069C55.8942 100.015 56.2542 100.291 56.9622 100.435L58.1622 100.651C59.3502 100.879 59.9382 101.443 59.9382 102.319C59.9382 103.483 58.9062 104.239 57.2862 104.239ZM63.8066 97.9509C65.6666 97.9509 66.6986 99.1269 66.6986 101.095C66.6986 103.063 65.6666 104.239 63.8066 104.239C61.9466 104.239 60.9146 103.063 60.9146 101.095C60.9146 99.1269 61.9706 97.9509 63.8066 97.9509ZM63.8186 103.303C64.8866 103.303 65.4626 102.487 65.4626 101.095C65.4626 99.6909 64.8866 98.8869 63.8186 98.8869C62.7266 98.8869 62.1386 99.7029 62.1386 101.095C62.1386 102.487 62.7266 103.303 63.8186 103.303ZM69.2804 104.131H68.0444V95.4909H69.2804V104.131ZM72.1955 97.0149H70.8395V95.4909H72.2075L72.1955 97.0149ZM72.1475 104.131H70.9115V98.0709H72.1475V104.131ZM76.3732 104.251C74.4892 104.251 73.4452 103.075 73.4452 101.095C73.4452 99.1269 74.5012 97.9629 76.3852 97.9629C77.9692 97.9629 79.0012 98.7789 79.1332 100.171H77.8732C77.7052 99.3069 77.2012 98.8749 76.3732 98.8749C75.2692 98.8749 74.6932 99.6669 74.6932 101.095C74.6932 102.523 75.2812 103.315 76.3732 103.315C77.1772 103.315 77.7172 102.835 77.8732 102.007H79.1332C79.0012 103.411 77.9932 104.251 76.3732 104.251ZM81.6118 97.0149H80.2558V95.4909H81.6238L81.6118 97.0149ZM81.5638 104.131H80.3278V98.0709H81.5638V104.131ZM85.9335 103.231C86.1735 103.231 86.4495 103.195 86.7495 103.111V104.083C86.4135 104.191 86.0175 104.239 85.5495 104.239C84.2895 104.239 83.6535 103.627 83.6535 102.391V101.791V98.9349H82.5855V98.0709H83.6535V96.4269H84.8895V98.0709H86.7135V98.9349H84.8895V101.719V102.199C84.8895 102.883 85.2375 103.231 85.9335 103.231ZM90.4565 97.9509C92.1845 97.9509 93.0485 98.7069 93.0485 100.207V104.131H92.0525V103.579L92.1485 103.027H92.0165C91.6085 103.831 90.8525 104.239 89.7365 104.239C88.4405 104.239 87.6965 103.615 87.6965 102.595C87.6965 101.599 88.3325 100.999 89.8805 100.807L91.8125 100.579V100.159C91.8125 99.2709 91.3445 98.8269 90.4085 98.8269C89.5085 98.8269 89.0525 99.2349 89.0285 100.063H87.8165C87.8285 98.6829 88.8125 97.9509 90.4565 97.9509ZM90.0485 103.375C91.1045 103.375 91.8125 102.727 91.8125 101.731V101.323L90.0965 101.527C89.3165 101.635 88.9205 101.947 88.9205 102.463C88.9205 103.051 89.3405 103.375 90.0485 103.375ZM97.1627 103.315C97.9667 103.315 98.5067 102.835 98.6627 102.007H99.9227C99.7907 103.303 98.9147 104.131 97.4867 104.239L97.0667 104.851H97.3187C98.1227 104.851 98.5307 105.199 98.5307 105.775C98.5307 106.459 97.9427 106.843 96.9347 106.843C96.5027 106.843 96.1307 106.795 95.8187 106.711V106.123C96.1667 106.231 96.5387 106.291 96.9107 106.291C97.4867 106.291 97.7747 106.123 97.7747 105.787C97.7747 105.511 97.5467 105.379 97.0907 105.379H96.1307V105.247L96.8147 104.239C95.1467 104.095 94.2347 102.955 94.2347 101.095C94.2347 99.1269 95.2907 97.9629 97.1747 97.9629C98.7587 97.9629 99.7907 98.7789 99.9227 100.171H98.6627C98.4947 99.3069 97.9907 98.8749 97.1627 98.8749C96.0587 98.8749 95.4827 99.6669 95.4827 101.095C95.4827 102.523 96.0707 103.315 97.1627 103.315ZM104.525 97.3269C104.237 97.3269 103.937 97.2189 103.625 97.0149C103.313 96.7989 103.085 96.6909 102.953 96.6909C102.617 96.6909 102.473 96.9549 102.485 97.2909H101.849C101.789 96.5589 102.185 95.9349 102.965 95.9349C103.229 95.9349 103.505 96.0429 103.805 96.2589C104.105 96.4629 104.333 96.5709 104.477 96.5709C104.777 96.5709 104.945 96.3189 104.909 95.9709H105.581C105.641 96.7389 105.281 97.3269 104.525 97.3269ZM103.733 97.9509C105.593 97.9509 106.625 99.1269 106.625 101.095C106.625 103.063 105.593 104.239 103.733 104.239C101.873 104.239 100.841 103.063 100.841 101.095C100.841 99.1269 101.897 97.9509 103.733 97.9509ZM103.745 103.303C104.813 103.303 105.389 102.487 105.389 101.095C105.389 99.6909 104.813 98.8869 103.745 98.8869C102.653 98.8869 102.065 99.7029 102.065 101.095C102.065 102.487 102.653 103.303 103.745 103.303ZM113.227 101.011V101.275H108.895C108.943 102.631 109.495 103.315 110.539 103.315C111.343 103.315 111.835 102.943 112.003 102.211H113.191C112.999 103.471 112.027 104.239 110.479 104.239C108.643 104.239 107.635 103.087 107.635 101.119C107.635 99.1389 108.703 97.9509 110.515 97.9509C112.279 97.9509 113.227 99.0549 113.227 101.011ZM110.479 98.8269C109.567 98.8269 109.051 99.3909 108.931 100.519H112.003C111.907 99.3909 111.403 98.8269 110.479 98.8269ZM116.798 104.239C115.166 104.239 114.278 103.615 114.134 102.367H115.322C115.454 103.075 115.958 103.423 116.834 103.423C117.662 103.423 118.214 103.075 118.214 102.487C118.214 102.019 117.854 101.719 117.122 101.575L115.886 101.359C114.818 101.155 114.242 100.579 114.242 99.7749C114.242 98.6709 115.202 97.9509 116.786 97.9509C118.286 97.9509 119.21 98.5869 119.318 99.7749H118.13C118.046 99.1029 117.566 98.7669 116.714 98.7669C115.898 98.7669 115.406 99.1149 115.406 99.6069C115.406 100.015 115.766 100.291 116.474 100.435L117.674 100.651C118.862 100.879 119.45 101.443 119.45 102.319C119.45 103.483 118.418 104.239 116.798 104.239ZM127.605 98.3469V95.4909H128.841V104.131H127.845V103.579L127.929 103.027H127.809C127.461 103.747 126.729 104.239 125.685 104.239C124.113 104.239 123.189 103.027 123.189 101.107C123.189 99.1749 124.125 97.9509 125.697 97.9509C126.741 97.9509 127.473 98.4549 127.809 99.1749H127.929L127.845 98.7549L127.605 98.3469ZM126.045 103.291C127.053 103.291 127.629 102.487 127.629 101.095C127.629 99.6669 127.053 98.8989 126.045 98.8989C125.001 98.8989 124.449 99.7149 124.449 101.095C124.449 102.475 125.025 103.291 126.045 103.291ZM135.552 101.011V101.275H131.22C131.268 102.631 131.82 103.315 132.864 103.315C133.668 103.315 134.16 102.943 134.328 102.211H135.516C135.324 103.471 134.352 104.239 132.804 104.239C130.968 104.239 129.96 103.087 129.96 101.119C129.96 99.1389 131.028 97.9509 132.84 97.9509C134.604 97.9509 135.552 99.0549 135.552 101.011ZM132.804 98.8269C131.892 98.8269 131.376 99.3909 131.256 100.519H134.328C134.232 99.3909 133.728 98.8269 132.804 98.8269ZM144.898 101.011V101.275H140.566C140.614 102.631 141.166 103.315 142.21 103.315C143.014 103.315 143.506 102.943 143.674 102.211H144.862C144.67 103.471 143.698 104.239 142.15 104.239C140.314 104.239 139.306 103.087 139.306 101.119C139.306 99.1389 140.374 97.9509 142.186 97.9509C143.95 97.9509 144.898 99.0549 144.898 101.011ZM142.15 98.8269C141.238 98.8269 140.722 99.3909 140.602 100.519H143.674C143.578 99.3909 143.074 98.8269 142.15 98.8269ZM149.285 97.9509C150.641 97.9509 151.421 98.7069 151.421 100.087V104.131H150.197V100.327C150.197 99.4029 149.765 98.9349 148.901 98.9349C147.929 98.9349 147.305 99.5469 147.305 100.603V104.131H146.069V98.0709H147.065V98.5869L146.993 99.1389H147.089C147.425 98.4549 148.169 97.9509 149.285 97.9509ZM155.697 103.231C155.937 103.231 156.213 103.195 156.513 103.111V104.083C156.177 104.191 155.781 104.239 155.313 104.239C154.053 104.239 153.417 103.627 153.417 102.391V101.791V98.9349H152.349V98.0709H153.417V96.4269H154.653V98.0709H156.477V98.9349H154.653V101.719V102.199C154.653 102.883 155.001 103.231 155.697 103.231ZM160.58 97.9509C160.904 97.9509 161.18 97.9989 161.408 98.0949V99.2469C161.108 99.1629 160.832 99.1149 160.568 99.1149C159.524 99.1149 158.924 99.8109 158.924 101.011V104.131H157.688V98.0709H158.696V98.5629L158.6 99.2229H158.708C158.984 98.4549 159.62 97.9509 160.58 97.9509ZM167.562 101.011V101.275H163.23C163.278 102.631 163.83 103.315 164.874 103.315C165.678 103.315 166.17 102.943 166.338 102.211H167.526C167.334 103.471 166.362 104.239 164.814 104.239C162.978 104.239 161.97 103.087 161.97 101.119C161.97 99.1389 163.038 97.9509 164.85 97.9509C166.614 97.9509 167.562 99.0549 167.562 101.011ZM164.814 98.8269C163.902 98.8269 163.386 99.3909 163.266 100.519H166.338C166.242 99.3909 165.738 98.8269 164.814 98.8269ZM173.209 98.5989V98.0709H174.265V103.795C174.265 105.463 173.293 106.411 171.361 106.411C169.681 106.411 168.721 105.655 168.613 104.311H169.849C169.933 105.091 170.473 105.535 171.373 105.535C172.417 105.535 172.945 104.983 172.981 103.879L173.209 103.303L173.293 102.823H173.185C172.837 103.543 172.093 104.035 171.049 104.035C169.465 104.035 168.565 102.859 168.565 100.987C168.565 99.1269 169.465 97.9509 171.049 97.9509C172.093 97.9509 172.837 98.4309 173.173 99.1389H173.293L173.209 98.5989ZM171.421 103.147C172.417 103.147 172.993 102.367 172.993 100.987C172.993 99.6309 172.417 98.8389 171.421 98.8389C170.377 98.8389 169.825 99.6549 169.825 100.987C169.825 102.343 170.401 103.147 171.421 103.147ZM178.141 97.9509C179.869 97.9509 180.733 98.7069 180.733 100.207V104.131H179.737V103.579L179.833 103.027H179.701C179.293 103.831 178.537 104.239 177.421 104.239C176.125 104.239 175.381 103.615 175.381 102.595C175.381 101.599 176.017 100.999 177.565 100.807L179.497 100.579V100.159C179.497 99.2709 179.029 98.8269 178.093 98.8269C177.193 98.8269 176.737 99.2349 176.713 100.063H175.501C175.513 98.6829 176.497 97.9509 178.141 97.9509ZM177.733 103.375C178.789 103.375 179.497 102.727 179.497 101.731V101.323L177.781 101.527C177.001 101.635 176.605 101.947 176.605 102.463C176.605 103.051 177.025 103.375 177.733 103.375ZM189.098 98.3469V95.4909H190.334V104.131H189.338V103.579L189.422 103.027H189.302C188.954 103.747 188.222 104.239 187.178 104.239C185.606 104.239 184.682 103.027 184.682 101.107C184.682 99.1749 185.618 97.9509 187.19 97.9509C188.234 97.9509 188.966 98.4549 189.302 99.1749H189.422L189.338 98.7549L189.098 98.3469ZM187.538 103.291C188.546 103.291 189.122 102.487 189.122 101.095C189.122 99.6669 188.546 98.8989 187.538 98.8989C186.494 98.8989 185.942 99.7149 185.942 101.095C185.942 102.475 186.518 103.291 187.538 103.291ZM197.044 101.011V101.275H192.712C192.76 102.631 193.312 103.315 194.356 103.315C195.16 103.315 195.652 102.943 195.82 102.211H197.008C196.816 103.471 195.844 104.239 194.296 104.239C192.46 104.239 191.452 103.087 191.452 101.119C191.452 99.1389 192.52 97.9509 194.332 97.9509C196.096 97.9509 197.044 99.0549 197.044 101.011ZM194.296 98.8269C193.384 98.8269 192.868 99.3909 192.748 100.519H195.82C195.724 99.3909 195.22 98.8269 194.296 98.8269ZM199.607 104.131H198.371V95.4909H199.607V104.131ZM206.472 101.011V101.275H202.14C202.188 102.631 202.74 103.315 203.784 103.315C204.588 103.315 205.08 102.943 205.248 102.211H206.436C206.244 103.471 205.272 104.239 203.724 104.239C201.888 104.239 200.88 103.087 200.88 101.119C200.88 99.1389 201.948 97.9509 203.76 97.9509C205.524 97.9509 206.472 99.0549 206.472 101.011ZM203.724 98.8269C202.812 98.8269 202.296 99.3909 202.176 100.519H205.248C205.152 99.3909 204.648 98.8269 203.724 98.8269ZM213.562 97.9629C215.182 97.9629 216.07 99.1629 216.07 101.095C216.07 103.051 215.158 104.251 213.562 104.251C212.518 104.251 211.786 103.747 211.438 103.027H211.33L211.402 103.447L211.654 103.855V106.303H210.406V98.0709H211.402V98.6229L211.33 99.1749H211.45C211.786 98.4669 212.518 97.9629 213.562 97.9629ZM213.214 103.303C214.258 103.303 214.81 102.487 214.81 101.107C214.81 99.7269 214.234 98.9109 213.214 98.9109C212.206 98.9109 211.63 99.7149 211.63 101.107C211.63 102.535 212.206 103.303 213.214 103.303ZM219.779 97.9509C221.507 97.9509 222.371 98.7069 222.371 100.207V104.131H221.375V103.579L221.471 103.027H221.339C220.931 103.831 220.175 104.239 219.059 104.239C217.763 104.239 217.019 103.615 217.019 102.595C217.019 101.599 217.655 100.999 219.203 100.807L221.135 100.579V100.159C221.135 99.2709 220.667 98.8269 219.731 98.8269C218.831 98.8269 218.375 99.2349 218.351 100.063H217.139C217.151 98.6829 218.135 97.9509 219.779 97.9509ZM219.371 103.375C220.427 103.375 221.135 102.727 221.135 101.731V101.323L219.419 101.527C218.639 101.635 218.243 101.947 218.243 102.463C218.243 103.051 218.663 103.375 219.371 103.375ZM226.617 97.9509C226.941 97.9509 227.217 97.9989 227.445 98.0949V99.2469C227.145 99.1629 226.869 99.1149 226.605 99.1149C225.561 99.1149 224.961 99.8109 224.961 101.011V104.131H223.725V98.0709H224.733V98.5629L224.637 99.2229H224.745C225.021 98.4549 225.657 97.9509 226.617 97.9509ZM230.742 97.9509C232.47 97.9509 233.334 98.7069 233.334 100.207V104.131H232.338V103.579L232.434 103.027H232.302C231.894 103.831 231.138 104.239 230.022 104.239C228.726 104.239 227.982 103.615 227.982 102.595C227.982 101.599 228.618 100.999 230.166 100.807L232.098 100.579V100.159C232.098 99.2709 231.63 98.8269 230.694 98.8269C229.794 98.8269 229.338 99.2349 229.314 100.063H228.102C228.114 98.6829 229.098 97.9509 230.742 97.9509ZM230.334 103.375C231.39 103.375 232.098 102.727 232.098 101.731V101.323L230.382 101.527C229.602 101.635 229.206 101.947 229.206 102.463C229.206 103.051 229.626 103.375 230.334 103.375ZM240.175 97.9509C242.035 97.9509 243.067 99.1269 243.067 101.095C243.067 103.063 242.035 104.239 240.175 104.239C238.315 104.239 237.283 103.063 237.283 101.095C237.283 99.1269 238.339 97.9509 240.175 97.9509ZM240.187 103.303C241.255 103.303 241.831 102.487 241.831 101.095C241.831 99.6909 241.255 98.8869 240.187 98.8869C239.095 98.8869 238.507 99.7029 238.507 101.095C238.507 102.487 239.095 103.303 240.187 103.303ZM246.656 104.239C245.024 104.239 244.136 103.615 243.992 102.367H245.18C245.312 103.075 245.816 103.423 246.692 103.423C247.52 103.423 248.072 103.075 248.072 102.487C248.072 102.019 247.712 101.719 246.98 101.575L245.744 101.359C244.676 101.155 244.1 100.579 244.1 99.7749C244.1 98.6709 245.06 97.9509 246.644 97.9509C248.144 97.9509 249.068 98.5869 249.176 99.7749H247.988C247.904 99.1029 247.424 98.7669 246.572 98.7669C245.756 98.7669 245.264 99.1149 245.264 99.6069C245.264 100.015 245.624 100.291 246.332 100.435L247.532 100.651C248.72 100.879 249.308 101.443 249.308 102.319C249.308 103.483 248.276 104.239 246.656 104.239ZM258.628 101.011V101.275H254.296C254.344 102.631 254.896 103.315 255.94 103.315C256.744 103.315 257.236 102.943 257.404 102.211H258.592C258.4 103.471 257.428 104.239 255.88 104.239C254.044 104.239 253.036 103.087 253.036 101.119C253.036 99.1389 254.104 97.9509 255.916 97.9509C257.68 97.9509 258.628 99.0549 258.628 101.011ZM255.88 98.8269C254.968 98.8269 254.452 99.3909 254.332 100.519H257.404C257.308 99.3909 256.804 98.8269 255.88 98.8269ZM263.015 97.9509C264.371 97.9509 265.151 98.7069 265.151 100.087V104.131H263.927V100.327C263.927 99.4029 263.495 98.9349 262.631 98.9349C261.659 98.9349 261.035 99.5469 261.035 100.603V104.131H259.799V98.0709H260.795V98.5869L260.723 99.1389H260.819C261.155 98.4549 261.899 97.9509 263.015 97.9509ZM269.427 103.231C269.667 103.231 269.943 103.195 270.243 103.111V104.083C269.907 104.191 269.511 104.239 269.043 104.239C267.783 104.239 267.147 103.627 267.147 102.391V101.791V98.9349H266.079V98.0709H267.147V96.4269H268.383V98.0709H270.207V98.9349H268.383V101.719V102.199C268.383 102.883 268.731 103.231 269.427 103.231ZM274.31 97.9509C274.634 97.9509 274.91 97.9989 275.138 98.0949V99.2469C274.838 99.1629 274.562 99.1149 274.298 99.1149C273.254 99.1149 272.654 99.8109 272.654 101.011V104.131H271.418V98.0709H272.426V98.5629L272.33 99.2229H272.438C272.714 98.4549 273.35 97.9509 274.31 97.9509ZM281.292 101.011V101.275H276.96C277.008 102.631 277.56 103.315 278.604 103.315C279.408 103.315 279.9 102.943 280.068 102.211H281.256C281.064 103.471 280.092 104.239 278.544 104.239C276.708 104.239 275.7 103.087 275.7 101.119C275.7 99.1389 276.768 97.9509 278.58 97.9509C280.344 97.9509 281.292 99.0549 281.292 101.011ZM278.544 98.8269C277.632 98.8269 277.116 99.3909 276.996 100.519H280.068C279.972 99.3909 279.468 98.8269 278.544 98.8269ZM286.939 98.5989V98.0709H287.995V103.795C287.995 105.463 287.023 106.411 285.091 106.411C283.411 106.411 282.451 105.655 282.343 104.311H283.579C283.663 105.091 284.203 105.535 285.103 105.535C286.147 105.535 286.675 104.983 286.711 103.879L286.939 103.303L287.023 102.823H286.915C286.567 103.543 285.823 104.035 284.779 104.035C283.195 104.035 282.295 102.859 282.295 100.987C282.295 99.1269 283.195 97.9509 284.779 97.9509C285.823 97.9509 286.567 98.4309 286.903 99.1389H287.023L286.939 98.5989ZM285.151 103.147C286.147 103.147 286.723 102.367 286.723 100.987C286.723 99.6309 286.147 98.8389 285.151 98.8389C284.107 98.8389 283.555 99.6549 283.555 100.987C283.555 102.343 284.131 103.147 285.151 103.147ZM291.871 97.9509C293.599 97.9509 294.463 98.7069 294.463 100.207V104.131H293.467V103.579L293.563 103.027H293.431C293.023 103.831 292.267 104.239 291.151 104.239C289.855 104.239 289.111 103.615 289.111 102.595C289.111 101.599 289.747 100.999 291.295 100.807L293.227 100.579V100.159C293.227 99.2709 292.759 98.8269 291.823 98.8269C290.923 98.8269 290.467 99.2349 290.443 100.063H289.231C289.243 98.6829 290.227 97.9509 291.871 97.9509ZM291.463 103.375C292.519 103.375 293.227 102.727 293.227 101.731V101.323L291.511 101.527C290.731 101.635 290.335 101.947 290.335 102.463C290.335 103.051 290.755 103.375 291.463 103.375ZM300.065 98.3469V95.4909H301.301V104.131H300.305V103.579L300.389 103.027H300.269C299.921 103.747 299.189 104.239 298.145 104.239C296.573 104.239 295.649 103.027 295.649 101.107C295.649 99.1749 296.585 97.9509 298.157 97.9509C299.201 97.9509 299.933 98.4549 300.269 99.1749H300.389L300.305 98.7549L300.065 98.3469ZM298.505 103.291C299.513 103.291 300.089 102.487 300.089 101.095C300.089 99.6669 299.513 98.8989 298.505 98.8989C297.461 98.8989 296.909 99.7149 296.909 101.095C296.909 102.475 297.485 103.291 298.505 103.291ZM305.323 97.9509C307.183 97.9509 308.215 99.1269 308.215 101.095C308.215 103.063 307.183 104.239 305.323 104.239C303.463 104.239 302.431 103.063 302.431 101.095C302.431 99.1269 303.487 97.9509 305.323 97.9509ZM305.335 103.303C306.403 103.303 306.979 102.487 306.979 101.095C306.979 99.6909 306.403 98.8869 305.335 98.8869C304.243 98.8869 303.655 99.7029 303.655 101.095C303.655 102.487 304.243 103.303 305.335 103.303ZM312.297 97.9509C312.621 97.9509 312.897 97.9989 313.125 98.0949V99.2469C312.825 99.1629 312.549 99.1149 312.285 99.1149C311.241 99.1149 310.641 99.8109 310.641 101.011V104.131H309.405V98.0709H310.413V98.5629L310.317 99.2229H310.425C310.701 98.4549 311.337 97.9509 312.297 97.9509ZM319.279 101.011V101.275H314.947C314.995 102.631 315.547 103.315 316.591 103.315C317.395 103.315 317.887 102.943 318.055 102.211H319.243C319.051 103.471 318.079 104.239 316.531 104.239C314.695 104.239 313.687 103.087 313.687 101.119C313.687 99.1389 314.755 97.9509 316.567 97.9509C318.331 97.9509 319.279 99.0549 319.279 101.011ZM316.531 98.8269C315.619 98.8269 315.103 99.3909 314.983 100.519H318.055C317.959 99.3909 317.455 98.8269 316.531 98.8269ZM322.85 104.239C321.218 104.239 320.33 103.615 320.186 102.367H321.374C321.506 103.075 322.01 103.423 322.886 103.423C323.714 103.423 324.266 103.075 324.266 102.487C324.266 102.019 323.906 101.719 323.174 101.575L321.938 101.359C320.87 101.155 320.294 100.579 320.294 99.7749C320.294 98.6709 321.254 97.9509 322.838 97.9509C324.338 97.9509 325.262 98.5869 325.37 99.7749H324.182C324.098 99.1029 323.618 98.7669 322.766 98.7669C321.95 98.7669 321.458 99.1149 321.458 99.6069C321.458 100.015 321.818 100.291 322.526 100.435L323.726 100.651C324.914 100.879 325.502 101.443 325.502 102.319C325.502 103.483 324.47 104.239 322.85 104.239ZM144.39 120.347V117.491H145.626V126.131H144.63V125.579L144.714 125.027H144.594C144.246 125.747 143.514 126.239 142.47 126.239C140.898 126.239 139.974 125.027 139.974 123.107C139.974 121.175 140.91 119.951 142.482 119.951C143.526 119.951 144.258 120.455 144.594 121.175H144.714L144.63 120.755L144.39 120.347ZM142.83 125.291C143.838 125.291 144.414 124.487 144.414 123.095C144.414 121.667 143.838 120.899 142.83 120.899C141.786 120.899 141.234 121.715 141.234 123.095C141.234 124.475 141.81 125.291 142.83 125.291ZM149.503 119.951C151.231 119.951 152.095 120.707 152.095 122.207V126.131H151.099V125.579L151.195 125.027H151.063C150.655 125.831 149.899 126.239 148.783 126.239C147.487 126.239 146.743 125.615 146.743 124.595C146.743 123.599 147.379 122.999 148.927 122.807L150.859 122.579V122.159C150.859 121.271 150.391 120.827 149.455 120.827C148.555 120.827 148.099 121.235 148.075 122.063H146.863C146.875 120.683 147.859 119.951 149.503 119.951ZM149.095 125.375C150.151 125.375 150.859 124.727 150.859 123.731V123.323L149.143 123.527C148.363 123.635 147.967 123.947 147.967 124.463C147.967 125.051 148.387 125.375 149.095 125.375ZM159.104 119.951C159.428 119.951 159.704 119.999 159.932 120.095V121.247C159.632 121.163 159.356 121.115 159.092 121.115C158.048 121.115 157.448 121.811 157.448 123.011V126.131H156.212V120.071H157.22V120.563L157.124 121.223H157.232C157.508 120.455 158.144 119.951 159.104 119.951ZM166.086 123.011V123.275H161.754C161.802 124.631 162.354 125.315 163.398 125.315C164.202 125.315 164.694 124.943 164.862 124.211H166.05C165.858 125.471 164.886 126.239 163.338 126.239C161.502 126.239 160.494 125.087 160.494 123.119C160.494 121.139 161.562 119.951 163.374 119.951C165.138 119.951 166.086 121.055 166.086 123.011ZM163.338 120.827C162.426 120.827 161.91 121.391 161.79 122.519H164.862C164.766 121.391 164.262 120.827 163.338 120.827ZM171.733 120.599V120.071H172.789V125.795C172.789 127.463 171.817 128.411 169.885 128.411C168.205 128.411 167.245 127.655 167.137 126.311H168.373C168.457 127.091 168.997 127.535 169.897 127.535C170.941 127.535 171.469 126.983 171.505 125.879L171.733 125.303L171.817 124.823H171.709C171.361 125.543 170.617 126.035 169.573 126.035C167.989 126.035 167.089 124.859 167.089 122.987C167.089 121.127 167.989 119.951 169.573 119.951C170.617 119.951 171.361 120.431 171.697 121.139H171.817L171.733 120.599ZM169.945 125.147C170.941 125.147 171.517 124.367 171.517 122.987C171.517 121.631 170.941 120.839 169.945 120.839C168.901 120.839 168.349 121.655 168.349 122.987C168.349 124.343 168.925 125.147 169.945 125.147ZM175.548 119.015H174.192V117.491H175.56L175.548 119.015ZM175.5 126.131H174.264V120.071H175.5V126.131ZM178.214 119.291H177.578C177.518 118.559 177.914 117.935 178.694 117.935C178.958 117.935 179.234 118.043 179.534 118.259C179.834 118.463 180.062 118.571 180.206 118.571C180.506 118.571 180.674 118.319 180.638 117.971H181.31C181.37 118.739 181.01 119.327 180.254 119.327C179.966 119.327 179.666 119.219 179.354 119.015C179.042 118.799 178.814 118.691 178.682 118.691C178.346 118.691 178.202 118.955 178.214 119.291ZM179.474 119.951C181.202 119.951 182.066 120.707 182.066 122.207V126.131H181.07V125.579L181.166 125.027H181.034C180.626 125.831 179.87 126.239 178.754 126.239C177.458 126.239 176.714 125.615 176.714 124.595C176.714 123.599 177.35 122.999 178.898 122.807L180.83 122.579V122.159C180.83 121.271 180.362 120.827 179.426 120.827C178.526 120.827 178.07 121.235 178.046 122.063H176.834C176.846 120.683 177.83 119.951 179.474 119.951ZM179.066 125.375C180.122 125.375 180.83 124.727 180.83 123.731V123.323L179.114 123.527C178.334 123.635 177.938 123.947 177.938 124.463C177.938 125.051 178.358 125.375 179.066 125.375ZM186.144 119.951C188.004 119.951 189.036 121.127 189.036 123.095C189.036 125.063 188.004 126.239 186.144 126.239C184.284 126.239 183.252 125.063 183.252 123.095C183.252 121.127 184.308 119.951 186.144 119.951ZM186.156 125.303C187.224 125.303 187.8 124.487 187.8 123.095C187.8 121.691 187.224 120.887 186.156 120.887C185.064 120.887 184.476 121.703 184.476 123.095C184.476 124.487 185.064 125.303 186.156 125.303Z" fill="#3A3A3A"/>
</svg>
