<svg width="329" height="108" viewBox="0 0 329 108" fill="none" xmlns="http://www.w3.org/2000/svg">
<path d="M20.0176 5.09184H23.3456L26.8496 15.7478V16.1318H24.5456L23.9376 14.2438H19.3936L18.8016 16.1318H16.5296V15.7638L20.0176 5.09184ZM21.3296 8.05184L19.9696 12.4198H23.3616L21.9696 8.05184L21.8096 6.96384H21.4896L21.3296 8.05184ZM31.1751 16.2918C28.5991 16.2918 27.1111 14.7398 27.1111 12.0678C27.1111 9.37984 28.5991 7.82784 31.1751 7.82784C33.7511 7.82784 35.2231 9.37984 35.2231 12.0678C35.2231 14.7398 33.7831 16.2918 31.1751 16.2918ZM31.1751 14.5958C32.3591 14.5958 32.9511 13.7478 32.9511 12.0678C32.9511 10.3718 32.3591 9.52384 31.1751 9.52384C30.0071 9.52384 29.3671 10.4198 29.3671 12.0678C29.3671 13.6838 30.0071 14.5958 31.1751 14.5958ZM44.0438 16.3078C41.4198 16.3078 39.9318 14.7558 39.9318 12.0678C39.9318 9.37984 41.4358 7.84384 44.0598 7.84384C46.3478 7.84384 47.8198 9.01184 47.9638 11.0118H45.6598C45.4838 10.0038 44.9398 9.49184 44.0278 9.49184C42.8278 9.49184 42.2358 10.3558 42.2358 12.0678C42.2358 13.7318 42.8598 14.6278 44.0278 14.6278C44.9238 14.6278 45.4678 14.1318 45.6598 13.1238H47.9638C47.8198 15.1078 46.3638 16.3078 44.0438 16.3078ZM53.8568 7.82784C55.7128 7.82784 56.7368 8.83584 56.7368 10.6118V16.1318H54.4648V11.0918C54.4648 10.0998 54.0168 9.60384 53.1048 9.60384C52.0648 9.60384 51.3928 10.2758 51.3928 11.3798V16.1318H49.1208V4.61184H51.3928V8.00384L50.8808 8.67584L50.7208 9.36384H50.9288C51.4888 8.33984 52.4648 7.82784 53.8568 7.82784ZM65.8108 11.9398V12.4358H60.3068C60.3708 13.9078 60.9468 14.6438 62.0348 14.6438C62.8988 14.6438 63.4268 14.2598 63.6188 13.4758H65.7788C65.5228 15.2038 64.1628 16.2918 61.9228 16.2918C59.3788 16.2918 57.9868 14.7878 57.9868 12.1158C57.9868 9.42784 59.5068 7.82784 62.0508 7.82784C64.4988 7.82784 65.8108 9.26784 65.8108 11.9398ZM61.9868 9.37984C61.0588 9.37984 60.5148 9.95584 60.3548 11.1238H63.5708C63.4268 9.95584 62.8988 9.37984 61.9868 9.37984ZM73.0653 8.62784V8.00384H74.9533V15.6038C74.9533 17.9238 73.5933 19.2358 70.8413 19.2358C68.4573 19.2358 67.1133 18.1798 66.9693 16.3238H69.2253C69.3373 17.1558 69.8973 17.6678 70.8573 17.6678C71.9613 17.6678 72.5373 17.0278 72.5853 15.7638L73.0653 14.9798L73.2413 14.2918H73.0493C72.5853 15.2038 71.6253 15.8758 70.2173 15.8758C68.0893 15.8758 66.8893 14.3718 66.8893 11.8278C66.8893 9.33184 68.0893 7.82784 70.2173 7.82784C71.5773 7.82784 72.5053 8.33984 73.0333 9.36384H73.2413L73.0653 8.62784ZM72.6173 11.8438C72.6173 10.3078 72.0093 9.42784 70.9213 9.42784C69.8173 9.42784 69.2093 10.3238 69.2093 11.8438C69.2093 13.3798 69.8333 14.2758 70.9213 14.2758C72.0093 14.2758 72.6173 13.4278 72.6173 11.8438ZM80.0216 7.82784C82.5016 7.82784 83.7336 8.86784 83.7336 10.9478V16.1318H81.9736V15.4918L82.1496 14.7238H81.9256C81.3656 15.7638 80.3736 16.2918 78.9176 16.2918C77.1256 16.2918 76.1176 15.4278 76.1176 14.0358C76.1176 12.6118 77.0136 11.7958 79.1416 11.5398L81.4776 11.2678V10.8518C81.4776 9.87584 80.9816 9.37984 79.9736 9.37984C78.9976 9.37984 78.5016 9.84384 78.4856 10.7718H76.2776C76.2936 8.86784 77.6536 7.82784 80.0216 7.82784ZM79.5256 14.7558C80.6616 14.7558 81.4776 14.0518 81.4776 13.0118V12.5798L79.5896 12.7878C78.7736 12.8998 78.3576 13.2358 78.3576 13.7958C78.3576 14.4358 78.7416 14.7558 79.5256 14.7558ZM89.4875 7.82784C89.9195 7.82784 90.2875 7.89184 90.5755 8.01984V10.1318C90.2075 10.0198 89.8395 9.95584 89.5035 9.95584C88.2235 9.95584 87.4555 10.8198 87.4555 12.2438V16.1318H85.1995V8.00384H86.9755V8.61184L86.7995 9.60384H87.0075C87.3275 8.56384 88.2075 7.82784 89.4875 7.82784ZM99.912 7.82784C101.752 7.82784 102.776 8.83584 102.776 10.6118V16.1318H100.52V11.0918C100.52 10.0998 100.072 9.60384 99.16 9.60384C98.12 9.60384 97.448 10.2598 97.448 11.3958V16.1318H95.192V8.00384H96.968V8.62784L96.808 9.37984H97C97.448 8.48384 98.44 7.82784 99.912 7.82784ZM108.106 16.2918C105.53 16.2918 104.042 14.7398 104.042 12.0678C104.042 9.37984 105.53 7.82784 108.106 7.82784C110.682 7.82784 112.154 9.37984 112.154 12.0678C112.154 14.7398 110.714 16.2918 108.106 16.2918ZM108.106 14.5958C109.29 14.5958 109.882 13.7478 109.882 12.0678C109.882 10.3718 109.29 9.52384 108.106 9.52384C106.938 9.52384 106.298 10.4198 106.298 12.0678C106.298 13.6838 106.938 14.5958 108.106 14.5958ZM120.975 16.3078C118.351 16.3078 116.863 14.7558 116.863 12.0678C116.863 9.37984 118.367 7.84384 120.991 7.84384C123.279 7.84384 124.751 9.01184 124.895 11.0118H122.591C122.415 10.0038 121.871 9.49184 120.959 9.49184C119.759 9.49184 119.167 10.3558 119.167 12.0678C119.167 13.7318 119.791 14.6278 120.959 14.6278C121.855 14.6278 122.399 14.1318 122.591 13.1238H124.895C124.751 15.1078 123.295 16.3078 120.975 16.3078ZM133.652 11.9398V12.4358H128.148C128.212 13.9078 128.788 14.6438 129.876 14.6438C130.74 14.6438 131.268 14.2598 131.46 13.4758H133.62C133.364 15.2038 132.004 16.2918 129.764 16.2918C127.22 16.2918 125.828 14.7878 125.828 12.1158C125.828 9.42784 127.348 7.82784 129.892 7.82784C132.34 7.82784 133.652 9.26784 133.652 11.9398ZM129.828 9.37984C128.9 9.37984 128.356 9.95584 128.196 11.1238H131.412C131.268 9.95584 130.74 9.37984 129.828 9.37984ZM139.674 7.82784C141.514 7.82784 142.538 8.83584 142.538 10.6118V16.1318H140.282V11.0918C140.282 10.0998 139.834 9.60384 138.922 9.60384C137.882 9.60384 137.21 10.2598 137.21 11.3958V16.1318H134.954V8.00384H136.73V8.62784L136.57 9.37984H136.762C137.21 8.48384 138.202 7.82784 139.674 7.82784ZM148.349 14.4518C148.637 14.4518 148.957 14.4038 149.325 14.3238V16.0838C148.765 16.2278 148.189 16.2918 147.597 16.2918C145.725 16.2918 144.797 15.4118 144.797 13.6358V12.6758V9.53984H143.485V8.00384H144.797V5.82784H147.069V8.00384H149.293V9.53984H147.069V12.5318V13.2518C147.069 14.0518 147.501 14.4518 148.349 14.4518ZM154.876 7.82784C155.308 7.82784 155.676 7.89184 155.964 8.01984V10.1318C155.596 10.0198 155.228 9.95584 154.892 9.95584C153.612 9.95584 152.844 10.8198 152.844 12.2438V16.1318H150.588V8.00384H152.364V8.61184L152.188 9.60384H152.396C152.716 8.56384 153.596 7.82784 154.876 7.82784ZM160.643 16.2918C158.067 16.2918 156.579 14.7398 156.579 12.0678C156.579 9.37984 158.067 7.82784 160.643 7.82784C163.219 7.82784 164.691 9.37984 164.691 12.0678C164.691 14.7398 163.251 16.2918 160.643 16.2918ZM160.643 14.5958C161.827 14.5958 162.419 13.7478 162.419 12.0678C162.419 10.3718 161.827 9.52384 160.643 9.52384C159.475 9.52384 158.835 10.4198 158.835 12.0678C158.835 13.6838 159.475 14.5958 160.643 14.5958ZM175.111 8.11584V4.61184H177.383V16.1318H175.607V15.4758L175.767 14.7238H175.559C175.095 15.6358 174.151 16.2918 172.759 16.2918C170.663 16.2918 169.399 14.7398 169.399 12.0678C169.399 9.39584 170.679 7.82784 172.775 7.82784C174.103 7.82784 175.031 8.35584 175.559 9.41184H175.767L175.607 8.75584L175.111 8.11584ZM173.447 14.5798C174.535 14.5798 175.143 13.6998 175.143 12.0518C175.143 10.3718 174.583 9.53984 173.447 9.53984C172.311 9.53984 171.719 10.4358 171.719 12.0518C171.719 13.6678 172.311 14.5798 173.447 14.5798ZM186.407 11.9398V12.4358H180.903C180.967 13.9078 181.543 14.6438 182.631 14.6438C183.495 14.6438 184.023 14.2598 184.215 13.4758H186.375C186.119 15.2038 184.759 16.2918 182.519 16.2918C179.975 16.2918 178.583 14.7878 178.583 12.1158C178.583 9.42784 180.103 7.82784 182.647 7.82784C185.095 7.82784 186.407 9.26784 186.407 11.9398ZM182.583 9.37984C181.655 9.37984 181.111 9.95584 180.951 11.1238H184.167C184.023 9.95584 183.495 9.37984 182.583 9.37984ZM194.946 7.82784C197.426 7.82784 198.658 8.86784 198.658 10.9478V16.1318H196.898V15.4918L197.074 14.7238H196.85C196.29 15.7638 195.298 16.2918 193.842 16.2918C192.05 16.2918 191.042 15.4278 191.042 14.0358C191.042 12.6118 191.938 11.7958 194.066 11.5398L196.402 11.2678V10.8518C196.402 9.87584 195.906 9.37984 194.898 9.37984C193.922 9.37984 193.426 9.84384 193.41 10.7718H191.202C191.218 8.86784 192.578 7.82784 194.946 7.82784ZM194.45 14.7558C195.586 14.7558 196.402 14.0518 196.402 13.0118V12.5798L194.514 12.7878C193.698 12.8998 193.282 13.2358 193.282 13.7958C193.282 14.4358 193.666 14.7558 194.45 14.7558ZM204.412 7.82784C204.844 7.82784 205.212 7.89184 205.5 8.01984V10.1318C205.132 10.0198 204.764 9.95584 204.428 9.95584C203.148 9.95584 202.38 10.8198 202.38 12.2438V16.1318H200.124V8.00384H201.9V8.61184L201.724 9.60384H201.932C202.252 8.56384 203.132 7.82784 204.412 7.82784ZM215.712 7.84384C217.376 7.84384 218.336 8.80384 218.336 10.4518V16.1318H216.128V10.8678C216.128 9.98784 215.744 9.55584 214.976 9.55584C214.08 9.55584 213.504 10.1638 213.504 11.2038V16.1318H211.296V10.8678C211.296 9.98784 210.912 9.55584 210.128 9.55584C209.232 9.55584 208.672 10.1638 208.672 11.2038V16.1318H206.464V8.00384H208.144V8.64384L207.984 9.42784H208.176C208.576 8.51584 209.472 7.84384 210.8 7.84384C211.792 7.84384 212.496 8.19584 212.912 8.88384L212.768 9.50784H212.944C213.392 8.53184 214.304 7.84384 215.712 7.84384ZM223.388 7.82784C225.868 7.82784 227.1 8.86784 227.1 10.9478V16.1318H225.34V15.4918L225.516 14.7238H225.292C224.732 15.7638 223.74 16.2918 222.284 16.2918C220.492 16.2918 219.484 15.4278 219.484 14.0358C219.484 12.6118 220.38 11.7958 222.508 11.5398L224.844 11.2678V10.8518C224.844 9.87584 224.348 9.37984 223.34 9.37984C222.364 9.37984 221.868 9.84384 221.852 10.7718H219.644C219.66 8.86784 221.02 7.82784 223.388 7.82784ZM222.892 14.7558C224.028 14.7558 224.844 14.0518 224.844 13.0118V12.5798L222.956 12.7878C222.14 12.8998 221.724 13.2358 221.724 13.7958C221.724 14.4358 222.108 14.7558 222.892 14.7558ZM235.062 16.1318H228.422V14.5958L231.734 10.1318L232.278 9.85984V9.63584L231.606 9.69984H228.502V8.00384H235.014V9.53984L231.702 14.0038L231.174 14.2758V14.4998L231.83 14.4358H235.062V16.1318ZM243.756 11.9398V12.4358H238.252C238.316 13.9078 238.892 14.6438 239.98 14.6438C240.844 14.6438 241.372 14.2598 241.564 13.4758H243.724C243.468 15.2038 242.108 16.2918 239.868 16.2918C237.324 16.2918 235.932 14.7878 235.932 12.1158C235.932 9.42784 237.452 7.82784 239.996 7.82784C242.444 7.82784 243.756 9.26784 243.756 11.9398ZM239.932 9.37984C239.004 9.37984 238.46 9.95584 238.3 11.1238H241.516C241.372 9.95584 240.844 9.37984 239.932 9.37984ZM249.778 7.82784C251.618 7.82784 252.642 8.83584 252.642 10.6118V16.1318H250.386V11.0918C250.386 10.0998 249.938 9.60384 249.026 9.60384C247.986 9.60384 247.314 10.2598 247.314 11.3958V16.1318H245.058V8.00384H246.834V8.62784L246.674 9.37984H246.866C247.314 8.48384 248.306 7.82784 249.778 7.82784ZM257.717 7.82784C260.197 7.82784 261.429 8.86784 261.429 10.9478V16.1318H259.669V15.4918L259.845 14.7238H259.621C259.061 15.7638 258.069 16.2918 256.613 16.2918C254.821 16.2918 253.813 15.4278 253.813 14.0358C253.813 12.6118 254.709 11.7958 256.837 11.5398L259.173 11.2678V10.8518C259.173 9.87584 258.677 9.37984 257.669 9.37984C256.693 9.37984 256.197 9.84384 256.181 10.7718H253.973C253.989 8.86784 255.349 7.82784 257.717 7.82784ZM257.221 14.7558C258.357 14.7558 259.173 14.0518 259.173 13.0118V12.5798L257.285 12.7878C256.469 12.8998 256.053 13.2358 256.053 13.7958C256.053 14.4358 256.437 14.7558 257.221 14.7558ZM272.143 7.84384C273.807 7.84384 274.767 8.80384 274.767 10.4518V16.1318H272.559V10.8678C272.559 9.98784 272.175 9.55584 271.407 9.55584C270.51 9.55584 269.935 10.1638 269.935 11.2038V16.1318H267.727V10.8678C267.727 9.98784 267.343 9.55584 266.559 9.55584C265.663 9.55584 265.103 10.1638 265.103 11.2038V16.1318H262.895V8.00384H264.575V8.64384L264.414 9.42784H264.607C265.007 8.51584 265.903 7.84384 267.231 7.84384C268.223 7.84384 268.927 8.19584 269.343 8.88384L269.199 9.50784H269.375C269.823 8.53184 270.735 7.84384 272.143 7.84384ZM283.835 11.9398V12.4358H278.331C278.395 13.9078 278.971 14.6438 280.059 14.6438C280.923 14.6438 281.451 14.2598 281.643 13.4758H283.803C283.547 15.2038 282.187 16.2918 279.947 16.2918C277.403 16.2918 276.011 14.7878 276.011 12.1158C276.011 9.42784 277.531 7.82784 280.075 7.82784C282.523 7.82784 283.835 9.26784 283.835 11.9398ZM280.011 9.37984C279.083 9.37984 278.539 9.95584 278.379 11.1238H281.595C281.451 9.95584 280.923 9.37984 280.011 9.37984ZM289.857 7.82784C291.697 7.82784 292.721 8.83584 292.721 10.6118V16.1318H290.465V11.0918C290.465 10.0998 290.017 9.60384 289.105 9.60384C288.065 9.60384 287.393 10.2598 287.393 11.3958V16.1318H285.137V8.00384H286.913V8.62784L286.753 9.37984H286.945C287.393 8.48384 288.385 7.82784 289.857 7.82784ZM298.531 14.4518C298.819 14.4518 299.139 14.4038 299.507 14.3238V16.0838C298.947 16.2278 298.371 16.2918 297.779 16.2918C295.907 16.2918 294.979 15.4118 294.979 13.6358V12.6758V9.53984H293.667V8.00384H294.979V5.82784H297.251V8.00384H299.475V9.53984H297.251V12.5318V13.2518C297.251 14.0518 297.683 14.4518 298.531 14.4518ZM304.438 16.2918C301.862 16.2918 300.374 14.7398 300.374 12.0678C300.374 9.37984 301.862 7.82784 304.438 7.82784C307.014 7.82784 308.486 9.37984 308.486 12.0678C308.486 14.7398 307.046 16.2918 304.438 16.2918ZM304.438 14.5958C305.622 14.5958 306.214 13.7478 306.214 12.0678C306.214 10.3718 305.622 9.52384 304.438 9.52384C303.27 9.52384 302.63 10.4198 302.63 12.0678C302.63 13.6838 303.27 14.5958 304.438 14.5958ZM309.6 16.1318V13.5558H311.888V15.4118C311.888 16.6278 311.28 17.7318 310.272 18.3238H309.072V18.0198C309.808 17.5238 310.288 16.8838 310.528 16.1318H309.6ZM24.8429 29.8278C27.3229 29.8278 28.5549 30.8678 28.5549 32.9478V38.1318H26.7949V37.4918L26.9709 36.7238H26.7469C26.1869 37.7638 25.1949 38.2918 23.7389 38.2918C21.9469 38.2918 20.9389 37.4278 20.9389 36.0358C20.9389 34.6118 21.8349 33.7958 23.9629 33.5398L26.2989 33.2678V32.8518C26.2989 31.8758 25.8029 31.3798 24.7949 31.3798C23.8189 31.3798 23.3229 31.8438 23.3069 32.7718H21.0989C21.1149 30.8678 22.4749 29.8278 24.8429 29.8278ZM24.3469 36.7558C25.4829 36.7558 26.2989 36.0518 26.2989 35.0118V34.5798L24.4109 34.7878C23.5949 34.8998 23.1789 35.2358 23.1789 35.7958C23.1789 36.4358 23.5629 36.7558 24.3469 36.7558ZM35.2208 34.7398V30.0038H37.4928V38.1318H35.7168V37.5078L35.8768 36.7398H35.6848C35.2368 37.6358 34.2768 38.2918 32.8208 38.2918C31.0128 38.2918 30.0208 37.2838 30.0208 35.4918V30.0038H32.2768V35.0438C32.2768 36.0358 32.7088 36.5318 33.5888 36.5318C34.5648 36.5318 35.2208 35.8438 35.2208 34.7398ZM43.2901 36.4518C43.5781 36.4518 43.8981 36.4038 44.2661 36.3238V38.0838C43.7061 38.2278 43.1301 38.2918 42.5381 38.2918C40.6661 38.2918 39.7381 37.4118 39.7381 35.6358V34.6758V31.5398H38.4261V30.0038H39.7381V27.8278H42.0101V30.0038H44.2341V31.5398H42.0101V34.5318V35.2518C42.0101 36.0518 42.4421 36.4518 43.2901 36.4518ZM52.957 33.9398V34.4358H47.453C47.517 35.9078 48.093 36.6438 49.181 36.6438C50.045 36.6438 50.573 36.2598 50.765 35.4758H52.925C52.669 37.2038 51.309 38.2918 49.069 38.2918C46.525 38.2918 45.133 36.7878 45.133 34.1158C45.133 31.4278 46.653 29.8278 49.197 29.8278C51.645 29.8278 52.957 31.2678 52.957 33.9398ZM49.133 31.3798C48.205 31.3798 47.661 31.9558 47.501 33.1238H50.717C50.573 31.9558 50.045 31.3798 49.133 31.3798ZM58.9795 29.8278C60.8195 29.8278 61.8435 30.8358 61.8435 32.6118V38.1318H59.5875V33.0918C59.5875 32.0998 59.1395 31.6038 58.2275 31.6038C57.1875 31.6038 56.5155 32.2598 56.5155 33.3958V38.1318H54.2595V30.0038H56.0355V30.6278L55.8755 31.3798H56.0675C56.5155 30.4838 57.5075 29.8278 58.9795 29.8278ZM67.6539 36.4518C67.9419 36.4518 68.2619 36.4038 68.6299 36.3238V38.0838C68.0699 38.2278 67.4939 38.2918 66.9019 38.2918C65.0299 38.2918 64.1019 37.4118 64.1019 35.6358V34.6758V31.5398H62.7899V30.0038H64.1019V27.8278H66.3739V30.0038H68.5979V31.5398H66.3739V34.5318V35.2518C66.3739 36.0518 66.8059 36.4518 67.6539 36.4518ZM72.3086 28.7878H69.9246V26.6118H72.3086V28.7878ZM72.2606 38.1318H69.9886V30.0038H72.2606V38.1318ZM79.81 30.6438V30.0038H81.634V41.1078H79.298V38.0518L79.81 37.3958L79.97 36.7398H79.762C79.298 37.6358 78.37 38.2918 76.978 38.2918C74.914 38.2918 73.618 36.7398 73.618 34.0678C73.618 31.3958 74.882 29.8438 76.978 29.8438C78.386 29.8438 79.314 30.4998 79.762 31.4118H79.97L79.81 30.6438ZM77.682 36.5638C78.754 36.5638 79.346 35.7158 79.346 34.0678C79.346 32.4518 78.754 31.5878 77.682 31.5878C76.594 31.5878 76.002 32.4838 76.002 34.0678C76.002 35.6678 76.594 36.5638 77.682 36.5638ZM88.3195 34.7398V30.0038H90.5915V38.1318H88.8155V37.5078L88.9755 36.7398H88.7835C88.3355 37.6358 87.3755 38.2918 85.9195 38.2918C84.1115 38.2918 83.1195 37.2838 83.1195 35.4918V30.0038H85.3755V35.0438C85.3755 36.0358 85.8075 36.5318 86.6875 36.5318C87.6635 36.5318 88.3195 35.8438 88.3195 34.7398ZM99.6689 33.9398V34.4358H94.1649C94.2289 35.9078 94.8049 36.6438 95.8929 36.6438C96.7569 36.6438 97.2849 36.2598 97.4769 35.4758H99.6369C99.3809 37.2038 98.0209 38.2918 95.7809 38.2918C93.2369 38.2918 91.8449 36.7878 91.8449 34.1158C91.8449 31.4278 93.3649 29.8278 95.9089 29.8278C98.3569 29.8278 99.6689 31.2678 99.6689 33.9398ZM95.8449 31.3798C94.9169 31.3798 94.3729 31.9558 94.2129 33.1238H97.4289C97.2849 31.9558 96.7569 31.3798 95.8449 31.3798ZM105.915 34.9158H101.131V33.0758H105.915V34.9158ZM110.953 38.2918C108.649 38.2918 107.417 37.4438 107.257 35.7318H109.385C109.545 36.4838 110.105 36.8678 111.049 36.8678C111.929 36.8678 112.489 36.5318 112.489 35.9078C112.489 35.4278 112.057 35.1078 111.193 34.9318L109.657 34.6598C108.169 34.3558 107.369 33.5398 107.369 32.4358C107.369 30.8518 108.729 29.8278 110.985 29.8278C113.177 29.8278 114.425 30.7398 114.537 32.3398H112.409C112.297 31.6198 111.785 31.2678 110.841 31.2678C109.993 31.2678 109.481 31.6038 109.481 32.1158C109.481 32.5478 109.913 32.8358 110.777 33.0118L112.265 33.2678C113.913 33.6038 114.745 34.3558 114.745 35.5558C114.745 37.2358 113.257 38.2918 110.953 38.2918ZM123.548 33.9398V34.4358H118.044C118.108 35.9078 118.684 36.6438 119.772 36.6438C120.636 36.6438 121.164 36.2598 121.356 35.4758H123.516C123.26 37.2038 121.9 38.2918 119.66 38.2918C117.116 38.2918 115.724 36.7878 115.724 34.1158C115.724 31.4278 117.244 29.8278 119.788 29.8278C122.236 29.8278 123.548 31.2678 123.548 33.9398ZM119.724 31.3798C118.796 31.3798 118.252 31.9558 118.092 33.1238H121.308C121.164 31.9558 120.636 31.3798 119.724 31.3798ZM132.391 38.3078C129.767 38.3078 128.279 36.7558 128.279 34.0678C128.279 31.3798 129.783 29.8438 132.407 29.8438C134.695 29.8438 136.167 31.0118 136.311 33.0118H134.007C133.831 32.0038 133.287 31.4918 132.375 31.4918C131.175 31.4918 130.583 32.3558 130.583 34.0678C130.583 35.7318 131.207 36.6278 132.375 36.6278C133.271 36.6278 133.815 36.1318 134.007 35.1238H136.311C136.167 37.1078 134.711 38.3078 132.391 38.3078ZM141.308 38.2918C138.732 38.2918 137.244 36.7398 137.244 34.0678C137.244 31.3798 138.732 29.8278 141.308 29.8278C143.884 29.8278 145.356 31.3798 145.356 34.0678C145.356 36.7398 143.916 38.2918 141.308 38.2918ZM141.308 36.5958C142.492 36.5958 143.084 35.7478 143.084 34.0678C143.084 32.3718 142.492 31.5238 141.308 31.5238C140.14 31.5238 139.5 32.4198 139.5 34.0678C139.5 35.6838 140.14 36.5958 141.308 36.5958ZM155.884 29.8438C157.548 29.8438 158.508 30.8038 158.508 32.4518V38.1318H156.3V32.8678C156.3 31.9878 155.916 31.5558 155.148 31.5558C154.252 31.5558 153.676 32.1638 153.676 33.2038V38.1318H151.468V32.8678C151.468 31.9878 151.084 31.5558 150.3 31.5558C149.404 31.5558 148.844 32.1638 148.844 33.2038V38.1318H146.636V30.0038H148.316V30.6438L148.156 31.4278H148.348C148.748 30.5158 149.644 29.8438 150.972 29.8438C151.964 29.8438 152.668 30.1958 153.084 30.8838L152.94 31.5078H153.116C153.564 30.5318 154.476 29.8438 155.884 29.8438ZM167.469 38.2918C164.893 38.2918 163.405 36.7398 163.405 34.0678C163.405 31.3798 164.893 29.8278 167.469 29.8278C170.045 29.8278 171.517 31.3798 171.517 34.0678C171.517 36.7398 170.077 38.2918 167.469 38.2918ZM167.469 36.5958C168.653 36.5958 169.245 35.7478 169.245 34.0678C169.245 32.3718 168.653 31.5238 167.469 31.5238C166.301 31.5238 165.661 32.4198 165.661 34.0678C165.661 35.6838 166.301 36.5958 167.469 36.5958ZM180.034 29.8278C182.514 29.8278 183.746 30.8678 183.746 32.9478V38.1318H181.986V37.4918L182.162 36.7238H181.938C181.378 37.7638 180.386 38.2918 178.93 38.2918C177.138 38.2918 176.13 37.4278 176.13 36.0358C176.13 34.6118 177.026 33.7958 179.154 33.5398L181.49 33.2678V32.8518C181.49 31.8758 180.994 31.3798 179.986 31.3798C179.01 31.3798 178.514 31.8438 178.498 32.7718H176.29C176.306 30.8678 177.666 29.8278 180.034 29.8278ZM179.538 36.7558C180.674 36.7558 181.49 36.0518 181.49 35.0118V34.5798L179.602 34.7878C178.786 34.8998 178.37 35.2358 178.37 35.7958C178.37 36.4358 178.754 36.7558 179.538 36.7558ZM189.499 29.8278C189.931 29.8278 190.299 29.8918 190.587 30.0198V32.1318C190.219 32.0198 189.851 31.9558 189.515 31.9558C188.235 31.9558 187.467 32.8198 187.467 34.2438V38.1318H185.211V30.0038H186.987V30.6118L186.811 31.6038H187.019C187.339 30.5638 188.219 29.8278 189.499 29.8278ZM200.799 29.8438C202.463 29.8438 203.423 30.8038 203.423 32.4518V38.1318H201.215V32.8678C201.215 31.9878 200.831 31.5558 200.063 31.5558C199.167 31.5558 198.591 32.1638 198.591 33.2038V38.1318H196.383V32.8678C196.383 31.9878 195.999 31.5558 195.215 31.5558C194.319 31.5558 193.759 32.1638 193.759 33.2038V38.1318H191.551V30.0038H193.231V30.6438L193.071 31.4278H193.263C193.663 30.5158 194.559 29.8438 195.887 29.8438C196.879 29.8438 197.583 30.1958 197.999 30.8838L197.855 31.5078H198.031C198.479 30.5318 199.391 29.8438 200.799 29.8438ZM208.475 29.8278C210.955 29.8278 212.187 30.8678 212.187 32.9478V38.1318H210.427V37.4918L210.603 36.7238H210.379C209.819 37.7638 208.827 38.2918 207.371 38.2918C205.579 38.2918 204.571 37.4278 204.571 36.0358C204.571 34.6118 205.467 33.7958 207.595 33.5398L209.931 33.2678V32.8518C209.931 31.8758 209.435 31.3798 208.427 31.3798C207.451 31.3798 206.955 31.8438 206.939 32.7718H204.731C204.747 30.8678 206.107 29.8278 208.475 29.8278ZM207.979 36.7558C209.115 36.7558 209.931 36.0518 209.931 35.0118V34.5798L208.043 34.7878C207.227 34.8998 206.811 35.2358 206.811 35.7958C206.811 36.4358 207.195 36.7558 207.979 36.7558ZM220.149 38.1318H213.509V36.5958L216.821 32.1318L217.365 31.8598V31.6358L216.693 31.6998H213.589V30.0038H220.101V31.5398L216.789 36.0038L216.261 36.2758V36.4998L216.917 36.4358H220.149V38.1318ZM228.843 33.9398V34.4358H223.339C223.403 35.9078 223.979 36.6438 225.067 36.6438C225.931 36.6438 226.459 36.2598 226.651 35.4758H228.811C228.555 37.2038 227.195 38.2918 224.955 38.2918C222.411 38.2918 221.019 36.7878 221.019 34.1158C221.019 31.4278 222.539 29.8278 225.083 29.8278C227.531 29.8278 228.843 31.2678 228.843 33.9398ZM225.019 31.3798C224.091 31.3798 223.547 31.9558 223.387 33.1238H226.603C226.459 31.9558 225.931 31.3798 225.019 31.3798ZM234.866 29.8278C236.706 29.8278 237.73 30.8358 237.73 32.6118V38.1318H235.474V33.0918C235.474 32.0998 235.026 31.6038 234.114 31.6038C233.074 31.6038 232.402 32.2598 232.402 33.3958V38.1318H230.146V30.0038H231.922V30.6278L231.762 31.3798H231.954C232.402 30.4838 233.394 29.8278 234.866 29.8278ZM242.804 29.8278C245.284 29.8278 246.516 30.8678 246.516 32.9478V38.1318H244.756V37.4918L244.932 36.7238H244.708C244.148 37.7638 243.156 38.2918 241.7 38.2918C239.908 38.2918 238.9 37.4278 238.9 36.0358C238.9 34.6118 239.796 33.7958 241.924 33.5398L244.26 33.2678V32.8518C244.26 31.8758 243.764 31.3798 242.756 31.3798C241.78 31.3798 241.284 31.8438 241.268 32.7718H239.06C239.076 30.8678 240.436 29.8278 242.804 29.8278ZM242.308 36.7558C243.444 36.7558 244.26 36.0518 244.26 35.0118V34.5798L242.372 34.7878C241.556 34.8998 241.14 35.2358 241.14 35.7958C241.14 36.4358 241.524 36.7558 242.308 36.7558ZM253.47 30.1158V26.6118H255.742V38.1318H253.966V37.4758L254.126 36.7238H253.918C253.454 37.6358 252.51 38.2918 251.118 38.2918C249.022 38.2918 247.758 36.7398 247.758 34.0678C247.758 31.3958 249.038 29.8278 251.134 29.8278C252.462 29.8278 253.39 30.3558 253.918 31.4118H254.126L253.966 30.7558L253.47 30.1158ZM251.806 36.5798C252.894 36.5798 253.502 35.6998 253.502 34.0518C253.502 32.3718 252.942 31.5398 251.806 31.5398C250.67 31.5398 250.078 32.4358 250.078 34.0518C250.078 35.6678 250.67 36.5798 251.806 36.5798ZM261.006 38.2918C258.43 38.2918 256.942 36.7398 256.942 34.0678C256.942 31.3798 258.43 29.8278 261.006 29.8278C263.582 29.8278 265.054 31.3798 265.054 34.0678C265.054 36.7398 263.614 38.2918 261.006 38.2918ZM261.006 36.5958C262.19 36.5958 262.782 35.7478 262.782 34.0678C262.782 32.3718 262.19 31.5238 261.006 31.5238C259.838 31.5238 259.198 32.4198 259.198 34.0678C259.198 35.6838 259.838 36.5958 261.006 36.5958ZM270.622 29.8278C271.054 29.8278 271.422 29.8918 271.71 30.0198V32.1318C271.342 32.0198 270.974 31.9558 270.638 31.9558C269.358 31.9558 268.59 32.8198 268.59 34.2438V38.1318H266.334V30.0038H268.11V30.6118L267.934 31.6038H268.142C268.462 30.5638 269.342 29.8278 270.622 29.8278ZM280.95 29.8438C283.11 29.8438 284.294 31.3798 284.294 34.0678C284.294 36.7718 283.094 38.3078 280.934 38.3078C279.606 38.3078 278.678 37.7798 278.15 36.7238H277.942L278.102 37.3798L278.598 38.0198V41.0918H276.326V30.0038H278.102V30.6598L277.942 31.4118H278.15C278.614 30.4998 279.558 29.8438 280.95 29.8438ZM280.262 36.5958C281.398 36.5958 281.99 35.6998 281.99 34.0838C281.99 32.4838 281.366 31.5558 280.262 31.5558C279.174 31.5558 278.55 32.4358 278.55 34.0838C278.55 35.7318 279.158 36.5958 280.262 36.5958ZM289.172 29.8278C291.652 29.8278 292.884 30.8678 292.884 32.9478V38.1318H291.124V37.4918L291.3 36.7238H291.076C290.516 37.7638 289.524 38.2918 288.068 38.2918C286.276 38.2918 285.268 37.4278 285.268 36.0358C285.268 34.6118 286.164 33.7958 288.292 33.5398L290.628 33.2678V32.8518C290.628 31.8758 290.132 31.3798 289.124 31.3798C288.148 31.3798 287.652 31.8438 287.636 32.7718H285.428C285.444 30.8678 286.804 29.8278 289.172 29.8278ZM288.676 36.7558C289.812 36.7558 290.628 36.0518 290.628 35.0118V34.5798L288.74 34.7878C287.924 34.8998 287.508 35.2358 287.508 35.7958C287.508 36.4358 287.892 36.7558 288.676 36.7558ZM298.638 29.8278C299.07 29.8278 299.438 29.8918 299.726 30.0198V32.1318C299.358 32.0198 298.99 31.9558 298.654 31.9558C297.374 31.9558 296.606 32.8198 296.606 34.2438V38.1318H294.35V30.0038H296.126V30.6118L295.95 31.6038H296.158C296.478 30.5638 297.358 29.8278 298.638 29.8278ZM304.227 29.8278C306.707 29.8278 307.939 30.8678 307.939 32.9478V38.1318H306.179V37.4918L306.355 36.7238H306.131C305.571 37.7638 304.579 38.2918 303.123 38.2918C301.331 38.2918 300.323 37.4278 300.323 36.0358C300.323 34.6118 301.219 33.7958 303.347 33.5398L305.683 33.2678V32.8518C305.683 31.8758 305.187 31.3798 304.179 31.3798C303.203 31.3798 302.707 31.8438 302.691 32.7718H300.483C300.499 30.8678 301.859 29.8278 304.227 29.8278ZM303.731 36.7558C304.867 36.7558 305.683 36.0518 305.683 35.0118V34.5798L303.795 34.7878C302.979 34.8998 302.563 35.2358 302.563 35.7958C302.563 36.4358 302.947 36.7558 303.731 36.7558ZM91.0247 51.8438C93.1847 51.8438 94.3687 53.3798 94.3687 56.0678C94.3687 58.7718 93.1687 60.3078 91.0087 60.3078C89.6807 60.3078 88.7527 59.7798 88.2247 58.7238H88.0167L88.1767 59.3798L88.6727 60.0198V63.0918H86.4007V52.0038H88.1767V52.6598L88.0167 53.4118H88.2247C88.6887 52.4998 89.6327 51.8438 91.0247 51.8438ZM90.3367 58.5958C91.4727 58.5958 92.0647 57.6998 92.0647 56.0838C92.0647 54.4838 91.4407 53.5558 90.3367 53.5558C89.2487 53.5558 88.6247 54.4358 88.6247 56.0838C88.6247 57.7318 89.2327 58.5958 90.3367 58.5958ZM99.5026 60.2918C96.9266 60.2918 95.4386 58.7398 95.4386 56.0678C95.4386 53.3798 96.9266 51.8278 99.5026 51.8278C102.079 51.8278 103.551 53.3798 103.551 56.0678C103.551 58.7398 102.111 60.2918 99.5026 60.2918ZM99.5026 58.5958C100.687 58.5958 101.279 57.7478 101.279 56.0678C101.279 54.3718 100.687 53.5238 99.5026 53.5238C98.3346 53.5238 97.6946 54.4198 97.6946 56.0678C97.6946 57.6838 98.3346 58.5958 99.5026 58.5958ZM110.319 52.1158V48.6118H112.591V60.1318H110.815V59.4758L110.975 58.7238H110.767C110.303 59.6358 109.359 60.2918 107.967 60.2918C105.871 60.2918 104.607 58.7398 104.607 56.0678C104.607 53.3958 105.887 51.8278 107.983 51.8278C109.311 51.8278 110.239 52.3558 110.767 53.4118H110.975L110.815 52.7558L110.319 52.1158ZM108.655 58.5798C109.743 58.5798 110.351 57.6998 110.351 56.0518C110.351 54.3718 109.791 53.5398 108.655 53.5398C107.519 53.5398 106.927 54.4358 106.927 56.0518C106.927 57.6678 107.519 58.5798 108.655 58.5798ZM121.614 55.9398V56.4358H116.11C116.174 57.9078 116.75 58.6438 117.838 58.6438C118.702 58.6438 119.23 58.2598 119.422 57.4758H121.582C121.326 59.2038 119.966 60.2918 117.726 60.2918C115.182 60.2918 113.79 58.7878 113.79 56.1158C113.79 53.4278 115.31 51.8278 117.854 51.8278C120.302 51.8278 121.614 53.2678 121.614 55.9398ZM117.79 53.3798C116.862 53.3798 116.318 53.9558 116.158 55.1238H119.374C119.23 53.9558 118.702 53.3798 117.79 53.3798ZM127.205 51.8278C127.637 51.8278 128.005 51.8918 128.293 52.0198V54.1318C127.925 54.0198 127.557 53.9558 127.221 53.9558C125.941 53.9558 125.173 54.8198 125.173 56.2438V60.1318H122.917V52.0038H124.693V52.6118L124.517 53.6038H124.725C125.045 52.5638 125.925 51.8278 127.205 51.8278ZM136.941 50.1958C136.221 50.1958 135.853 50.5478 135.853 51.2678V52.0038H137.709V53.5398H135.853V60.1318H133.565V53.5398H132.413V52.0038H133.565V51.0438C133.565 49.3158 134.397 48.4518 136.301 48.4358C136.925 48.4518 137.421 48.5158 137.805 48.6278V50.3398C137.517 50.2438 137.229 50.1958 136.941 50.1958ZM142.287 51.8278C144.767 51.8278 145.999 52.8678 145.999 54.9478V60.1318H144.239V59.4918L144.415 58.7238H144.191C143.631 59.7638 142.639 60.2918 141.183 60.2918C139.391 60.2918 138.383 59.4278 138.383 58.0358C138.383 56.6118 139.279 55.7958 141.407 55.5398L143.743 55.2678V54.8518C143.743 53.8758 143.247 53.3798 142.239 53.3798C141.263 53.3798 140.767 53.8438 140.751 54.7718H138.543C138.559 52.8678 139.919 51.8278 142.287 51.8278ZM141.791 58.7558C142.927 58.7558 143.743 58.0518 143.743 57.0118V56.5798L141.855 56.7878C141.039 56.8998 140.623 57.2358 140.623 57.7958C140.623 58.4358 141.007 58.7558 141.791 58.7558ZM153.961 60.1318H147.321V58.5958L150.633 54.1318L151.177 53.8598V53.6358L150.505 53.6998H147.401V52.0038H153.913V53.5398L150.601 58.0038L150.073 58.2758V58.4998L150.729 58.4358H153.961V60.1318ZM162.655 55.9398V56.4358H157.151C157.215 57.9078 157.791 58.6438 158.879 58.6438C159.743 58.6438 160.271 58.2598 160.463 57.4758H162.623C162.367 59.2038 161.007 60.2918 158.767 60.2918C156.223 60.2918 154.831 58.7878 154.831 56.1158C154.831 53.4278 156.351 51.8278 158.895 51.8278C161.343 51.8278 162.655 53.2678 162.655 55.9398ZM158.831 53.3798C157.903 53.3798 157.359 53.9558 157.199 55.1238H160.415C160.271 53.9558 159.743 53.3798 158.831 53.3798ZM168.245 51.8278C168.677 51.8278 169.045 51.8918 169.333 52.0198V54.1318C168.965 54.0198 168.597 53.9558 168.261 53.9558C166.981 53.9558 166.213 54.8198 166.213 56.2438V60.1318H163.957V52.0038H165.733V52.6118L165.557 53.6038H165.765C166.085 52.5638 166.965 51.8278 168.245 51.8278ZM177.533 51.8278C180.013 51.8278 181.245 52.8678 181.245 54.9478V60.1318H179.485V59.4918L179.661 58.7238H179.437C178.877 59.7638 177.885 60.2918 176.429 60.2918C174.637 60.2918 173.629 59.4278 173.629 58.0358C173.629 56.6118 174.525 55.7958 176.653 55.5398L178.989 55.2678V54.8518C178.989 53.8758 178.493 53.3798 177.485 53.3798C176.509 53.3798 176.013 53.8438 175.997 54.7718H173.789C173.805 52.8678 175.165 51.8278 177.533 51.8278ZM177.037 58.7558C178.173 58.7558 178.989 58.0518 178.989 57.0118V56.5798L177.101 56.7878C176.285 56.8998 175.869 57.2358 175.869 57.7958C175.869 58.4358 176.253 58.7558 177.037 58.7558ZM193.964 55.9398V56.4358H188.46C188.524 57.9078 189.1 58.6438 190.188 58.6438C191.052 58.6438 191.58 58.2598 191.772 57.4758H193.932C193.676 59.2038 192.316 60.2918 190.076 60.2918C187.532 60.2918 186.14 58.7878 186.14 56.1158C186.14 53.4278 187.66 51.8278 190.204 51.8278C192.652 51.8278 193.964 53.2678 193.964 55.9398ZM190.14 53.3798C189.212 53.3798 188.668 53.9558 188.508 55.1238H191.724C191.58 53.9558 191.052 53.3798 190.14 53.3798ZM199.986 51.8278C201.826 51.8278 202.85 52.8358 202.85 54.6118V60.1318H200.594V55.0918C200.594 54.0998 200.146 53.6038 199.234 53.6038C198.194 53.6038 197.522 54.2598 197.522 55.3958V60.1318H195.266V52.0038H197.042V52.6278L196.882 53.3798H197.074C197.522 52.4838 198.514 51.8278 199.986 51.8278ZM208.661 58.4518C208.949 58.4518 209.269 58.4038 209.637 58.3238V60.0838C209.077 60.2278 208.501 60.2918 207.909 60.2918C206.037 60.2918 205.109 59.4118 205.109 57.6358V56.6758V53.5398H203.797V52.0038H205.109V49.8278H207.381V52.0038H209.605V53.5398H207.381V56.5318V57.2518C207.381 58.0518 207.813 58.4518 208.661 58.4518ZM215.188 51.8278C215.62 51.8278 215.988 51.8918 216.276 52.0198V54.1318C215.908 54.0198 215.54 53.9558 215.204 53.9558C213.924 53.9558 213.156 54.8198 213.156 56.2438V60.1318H210.9V52.0038H212.676V52.6118L212.5 53.6038H212.708C213.028 52.5638 213.908 51.8278 215.188 51.8278ZM224.715 55.9398V56.4358H219.211C219.275 57.9078 219.851 58.6438 220.939 58.6438C221.803 58.6438 222.331 58.2598 222.523 57.4758H224.683C224.427 59.2038 223.067 60.2918 220.827 60.2918C218.283 60.2918 216.891 58.7878 216.891 56.1158C216.891 53.4278 218.411 51.8278 220.955 51.8278C223.403 51.8278 224.715 53.2678 224.715 55.9398ZM220.891 53.3798C219.963 53.3798 219.419 53.9558 219.259 55.1238H222.475C222.331 53.9558 221.803 53.3798 220.891 53.3798ZM231.969 52.6278V52.0038H233.857V59.6038C233.857 61.9238 232.497 63.2358 229.745 63.2358C227.361 63.2358 226.017 62.1798 225.873 60.3238H228.129C228.241 61.1558 228.801 61.6678 229.761 61.6678C230.865 61.6678 231.441 61.0278 231.489 59.7638L231.969 58.9798L232.145 58.2918H231.953C231.489 59.2038 230.529 59.8758 229.121 59.8758C226.993 59.8758 225.793 58.3718 225.793 55.8278C225.793 53.3318 226.993 51.8278 229.121 51.8278C230.481 51.8278 231.409 52.3398 231.937 53.3638H232.145L231.969 52.6278ZM231.521 55.8438C231.521 54.3078 230.913 53.4278 229.825 53.4278C228.721 53.4278 228.113 54.3238 228.113 55.8438C228.113 57.3798 228.737 58.2758 229.825 58.2758C230.913 58.2758 231.521 57.4278 231.521 55.8438ZM238.925 51.8278C241.405 51.8278 242.637 52.8678 242.637 54.9478V60.1318H240.877V59.4918L241.053 58.7238H240.829C240.269 59.7638 239.277 60.2918 237.821 60.2918C236.029 60.2918 235.021 59.4278 235.021 58.0358C235.021 56.6118 235.917 55.7958 238.045 55.5398L240.381 55.2678V54.8518C240.381 53.8758 239.885 53.3798 238.877 53.3798C237.901 53.3798 237.405 53.8438 237.389 54.7718H235.181C235.197 52.8678 236.557 51.8278 238.925 51.8278ZM238.429 58.7558C239.565 58.7558 240.381 58.0518 240.381 57.0118V56.5798L238.493 56.7878C237.677 56.8998 237.261 57.2358 237.261 57.7958C237.261 58.4358 237.645 58.7558 238.429 58.7558Z" fill="black"/>
<path d="M13.3857 83.1318H11.5377L8.83773 75.0438V74.8518H10.1817L12.3057 81.4278L12.3777 81.9798H12.5697L12.6417 81.4278L14.7537 74.8518H16.0857V75.0438L13.3857 83.1318ZM19.0107 76.9518C20.8707 76.9518 21.9027 78.1278 21.9027 80.0958C21.9027 82.0638 20.8707 83.2398 19.0107 83.2398C17.1507 83.2398 16.1187 82.0638 16.1187 80.0958C16.1187 78.1278 17.1747 76.9518 19.0107 76.9518ZM19.0227 82.3038C20.0907 82.3038 20.6667 81.4878 20.6667 80.0958C20.6667 78.6918 20.0907 77.8878 19.0227 77.8878C17.9307 77.8878 17.3427 78.7038 17.3427 80.0958C17.3427 81.4878 17.9307 82.3038 19.0227 82.3038ZM25.8525 83.2518C23.9685 83.2518 22.9245 82.0758 22.9245 80.0958C22.9245 78.1278 23.9805 76.9638 25.8645 76.9638C27.4485 76.9638 28.4805 77.7798 28.6125 79.1718H27.3525C27.1845 78.3078 26.6805 77.8758 25.8525 77.8758C24.7485 77.8758 24.1725 78.6678 24.1725 80.0958C24.1725 81.5238 24.7605 82.3158 25.8525 82.3158C26.6565 82.3158 27.1965 81.8358 27.3525 81.0078H28.6125C28.4805 82.4118 27.4725 83.2518 25.8525 83.2518ZM32.2551 75.1398L32.1831 75.3198L31.4031 76.3278H30.5991V76.1838L31.9311 74.4678H32.7111L34.0431 76.1958V76.3278H33.2151L32.4471 75.3198L32.3631 75.1398H32.2551ZM35.1111 80.0118V80.2758H30.7791C30.8271 81.6318 31.3791 82.3158 32.4231 82.3158C33.2271 82.3158 33.7191 81.9438 33.8871 81.2118H35.0751C34.8831 82.4718 33.9111 83.2398 32.3631 83.2398C30.5271 83.2398 29.5191 82.0878 29.5191 80.1198C29.5191 78.1398 30.5871 76.9518 32.3991 76.9518C34.1631 76.9518 35.1111 78.0558 35.1111 80.0118ZM32.3631 77.8278C31.4511 77.8278 30.9351 78.3918 30.8151 79.5198H33.8871C33.7911 78.3918 33.2871 77.8278 32.3631 77.8278ZM43.293 77.3478V74.4918H44.529V83.1318H43.533V82.5798L43.617 82.0278H43.497C43.149 82.7478 42.417 83.2398 41.373 83.2398C39.801 83.2398 38.877 82.0278 38.877 80.1078C38.877 78.1758 39.813 76.9518 41.385 76.9518C42.429 76.9518 43.161 77.4558 43.497 78.1758H43.617L43.533 77.7558L43.293 77.3478ZM41.733 82.2918C42.741 82.2918 43.317 81.4878 43.317 80.0958C43.317 78.6678 42.741 77.8998 41.733 77.8998C40.689 77.8998 40.137 78.7158 40.137 80.0958C40.137 81.4758 40.713 82.2918 41.733 82.2918ZM51.2394 80.0118V80.2758H46.9074C46.9554 81.6318 47.5074 82.3158 48.5514 82.3158C49.3554 82.3158 49.8474 81.9438 50.0154 81.2118H51.2034C51.0114 82.4718 50.0394 83.2398 48.4914 83.2398C46.6554 83.2398 45.6474 82.0878 45.6474 80.1198C45.6474 78.1398 46.7154 76.9518 48.5274 76.9518C50.2914 76.9518 51.2394 78.0558 51.2394 80.0118ZM48.4914 77.8278C47.5794 77.8278 47.0634 78.3918 46.9434 79.5198H50.0154C49.9194 78.3918 49.4154 77.8278 48.4914 77.8278ZM55.3115 83.1318H53.7995L51.5915 77.2398V77.0718H52.8395L54.4235 81.4758L54.4835 81.8958H54.6395L54.6995 81.4758L56.2835 77.0718H57.5075V77.2278L55.3115 83.1318ZM63.4681 80.0118V80.2758H59.1361C59.1841 81.6318 59.7361 82.3158 60.7801 82.3158C61.5841 82.3158 62.0761 81.9438 62.2441 81.2118H63.4321C63.2401 82.4718 62.2681 83.2398 60.7201 83.2398C58.8841 83.2398 57.8761 82.0878 57.8761 80.1198C57.8761 78.1398 58.9441 76.9518 60.7561 76.9518C62.5201 76.9518 63.4681 78.0558 63.4681 80.0118ZM60.7201 77.8278C59.8081 77.8278 59.2921 78.3918 59.1721 79.5198H62.2441C62.1481 78.3918 61.6441 77.8278 60.7201 77.8278ZM67.5312 76.9518C67.8552 76.9518 68.1312 76.9998 68.3592 77.0958V78.2478C68.0592 78.1638 67.7832 78.1158 67.5192 78.1158C66.4752 78.1158 65.8752 78.8118 65.8752 80.0118V83.1318H64.6392V77.0718H65.6472V77.5638L65.5512 78.2238H65.6592C65.9352 77.4558 66.5712 76.9518 67.5312 76.9518ZM73.4081 74.4918V74.6478L71.6921 76.3278H70.8041V76.1718L72.2321 74.4918H73.4081ZM71.6561 76.9518C73.3841 76.9518 74.2481 77.7078 74.2481 79.2078V83.1318H73.2521V82.5798L73.3481 82.0278H73.2161C72.8081 82.8318 72.0521 83.2398 70.9361 83.2398C69.6401 83.2398 68.8961 82.6158 68.8961 81.5958C68.8961 80.5998 69.5321 79.9998 71.0801 79.8078L73.0121 79.5798V79.1598C73.0121 78.2718 72.5441 77.8278 71.6081 77.8278C70.7081 77.8278 70.2521 78.2358 70.2281 79.0638H69.0161C69.0281 77.6838 70.0121 76.9518 71.6561 76.9518ZM71.2481 82.3758C72.3041 82.3758 73.0121 81.7278 73.0121 80.7318V80.3238L71.2961 80.5278C70.5161 80.6358 70.1201 80.9478 70.1201 81.4638C70.1201 82.0518 70.5401 82.3758 71.2481 82.3758ZM82.6132 77.3478V74.4918H83.8492V83.1318H82.8532V82.5798L82.9372 82.0278H82.8172C82.4692 82.7478 81.7372 83.2398 80.6932 83.2398C79.1212 83.2398 78.1972 82.0278 78.1972 80.1078C78.1972 78.1758 79.1332 76.9518 80.7052 76.9518C81.7492 76.9518 82.4812 77.4558 82.8172 78.1758H82.9372L82.8532 77.7558L82.6132 77.3478ZM81.0532 82.2918C82.0612 82.2918 82.6372 81.4878 82.6372 80.0958C82.6372 78.6678 82.0612 77.8998 81.0532 77.8998C80.0092 77.8998 79.4572 78.7158 79.4572 80.0958C79.4572 81.4758 80.0332 82.2918 81.0532 82.2918ZM86.6098 76.0158H85.2538V74.4918H86.6218L86.6098 76.0158ZM86.5618 83.1318H85.3258V77.0718H86.5618V83.1318ZM92.5035 77.5998V77.0718H93.5595V82.7958C93.5595 84.4638 92.5875 85.4118 90.6555 85.4118C88.9755 85.4118 88.0155 84.6558 87.9075 83.3118H89.1435C89.2275 84.0918 89.7675 84.5358 90.6675 84.5358C91.7115 84.5358 92.2395 83.9838 92.2755 82.8798L92.5035 82.3038L92.5875 81.8238H92.4795C92.1315 82.5438 91.3875 83.0358 90.3435 83.0358C88.7595 83.0358 87.8595 81.8598 87.8595 79.9878C87.8595 78.1278 88.7595 76.9518 90.3435 76.9518C91.3875 76.9518 92.1315 77.4318 92.4675 78.1398H92.5875L92.5035 77.5998ZM90.7155 82.1478C91.7115 82.1478 92.2875 81.3678 92.2875 79.9878C92.2875 78.6318 91.7115 77.8398 90.7155 77.8398C89.6715 77.8398 89.1195 78.6558 89.1195 79.9878C89.1195 81.3438 89.6955 82.1478 90.7155 82.1478ZM96.319 76.0158H94.963V74.4918H96.331L96.319 76.0158ZM96.271 83.1318H95.035V77.0718H96.271V83.1318ZM100.641 82.2318C100.881 82.2318 101.157 82.1958 101.457 82.1118V83.0838C101.121 83.1918 100.725 83.2398 100.257 83.2398C98.9967 83.2398 98.3607 82.6278 98.3607 81.3918V80.7918V77.9358H97.2927V77.0718H98.3607V75.4278H99.5967V77.0718H101.421V77.9358H99.5967V80.7198V81.1998C99.5967 81.8838 99.9447 82.2318 100.641 82.2318ZM105.164 76.9518C106.892 76.9518 107.756 77.7078 107.756 79.2078V83.1318H106.76V82.5798L106.856 82.0278H106.724C106.316 82.8318 105.56 83.2398 104.444 83.2398C103.148 83.2398 102.404 82.6158 102.404 81.5958C102.404 80.5998 103.04 79.9998 104.588 79.8078L106.52 79.5798V79.1598C106.52 78.2718 106.052 77.8278 105.116 77.8278C104.216 77.8278 103.76 78.2358 103.736 79.0638H102.524C102.536 77.6838 103.52 76.9518 105.164 76.9518ZM104.756 82.3758C105.812 82.3758 106.52 81.7278 106.52 80.7318V80.3238L104.804 80.5278C104.024 80.6358 103.628 80.9478 103.628 81.4638C103.628 82.0518 104.048 82.3758 104.756 82.3758ZM112.002 76.9518C112.326 76.9518 112.602 76.9998 112.83 77.0958V78.2478C112.53 78.1638 112.254 78.1158 111.99 78.1158C110.946 78.1158 110.346 78.8118 110.346 80.0118V83.1318H109.11V77.0718H110.118V77.5638L110.022 78.2238H110.13C110.406 77.4558 111.042 76.9518 112.002 76.9518ZM119.176 76.9518C121.036 76.9518 122.068 78.1278 122.068 80.0958C122.068 82.0638 121.036 83.2398 119.176 83.2398C117.316 83.2398 116.284 82.0638 116.284 80.0958C116.284 78.1278 117.34 76.9518 119.176 76.9518ZM119.188 82.3038C120.256 82.3038 120.832 81.4878 120.832 80.0958C120.832 78.6918 120.256 77.8878 119.188 77.8878C118.096 77.8878 117.508 78.7038 117.508 80.0958C117.508 81.4878 118.096 82.3038 119.188 82.3038ZM128.781 83.2518C126.897 83.2518 125.853 82.0758 125.853 80.0958C125.853 78.1278 126.909 76.9638 128.793 76.9638C130.377 76.9638 131.409 77.7798 131.541 79.1718H130.281C130.113 78.3078 129.609 77.8758 128.781 77.8758C127.677 77.8758 127.101 78.6678 127.101 80.0958C127.101 81.5238 127.689 82.3158 128.781 82.3158C129.585 82.3158 130.125 81.8358 130.281 81.0078H131.541C131.409 82.4118 130.401 83.2518 128.781 83.2518ZM135.387 76.3278H134.499V76.1718L135.927 74.4918H137.103V74.6478L135.387 76.3278ZM135.351 76.9518C137.211 76.9518 138.243 78.1278 138.243 80.0958C138.243 82.0638 137.211 83.2398 135.351 83.2398C133.491 83.2398 132.459 82.0638 132.459 80.0958C132.459 78.1278 133.515 76.9518 135.351 76.9518ZM135.363 82.3038C136.431 82.3038 137.007 81.4878 137.007 80.0958C137.007 78.6918 136.431 77.8878 135.363 77.8878C134.271 77.8878 133.683 78.7038 133.683 80.0958C133.683 81.4878 134.271 82.3038 135.363 82.3038ZM143.681 77.3478V74.4918H144.917V83.1318H143.921V82.5798L144.005 82.0278H143.885C143.537 82.7478 142.805 83.2398 141.761 83.2398C140.189 83.2398 139.265 82.0278 139.265 80.1078C139.265 78.1758 140.201 76.9518 141.773 76.9518C142.817 76.9518 143.549 77.4558 143.885 78.1758H144.005L143.921 77.7558L143.681 77.3478ZM142.121 82.2918C143.129 82.2918 143.705 81.4878 143.705 80.0958C143.705 78.6678 143.129 77.8998 142.121 77.8998C141.077 77.8998 140.525 78.7158 140.525 80.0958C140.525 81.4758 141.101 82.2918 142.121 82.2918ZM147.678 76.0158H146.322V74.4918H147.69L147.678 76.0158ZM147.63 83.1318H146.394V77.0718H147.63V83.1318ZM153.571 77.5998V77.0718H154.627V82.7958C154.627 84.4638 153.655 85.4118 151.723 85.4118C150.043 85.4118 149.083 84.6558 148.975 83.3118H150.211C150.295 84.0918 150.835 84.5358 151.735 84.5358C152.779 84.5358 153.307 83.9838 153.343 82.8798L153.571 82.3038L153.655 81.8238H153.547C153.199 82.5438 152.455 83.0358 151.411 83.0358C149.827 83.0358 148.927 81.8598 148.927 79.9878C148.927 78.1278 149.827 76.9518 151.411 76.9518C152.455 76.9518 153.199 77.4318 153.535 78.1398H153.655L153.571 77.5998ZM151.783 82.1478C152.779 82.1478 153.355 81.3678 153.355 79.9878C153.355 78.6318 152.779 77.8398 151.783 77.8398C150.739 77.8398 150.187 78.6558 150.187 79.9878C150.187 81.3438 150.763 82.1478 151.783 82.1478ZM158.719 76.9518C160.579 76.9518 161.611 78.1278 161.611 80.0958C161.611 82.0638 160.579 83.2398 158.719 83.2398C156.859 83.2398 155.827 82.0638 155.827 80.0958C155.827 78.1278 156.883 76.9518 158.719 76.9518ZM158.731 82.3038C159.799 82.3038 160.375 81.4878 160.375 80.0958C160.375 78.6918 159.799 77.8878 158.731 77.8878C157.639 77.8878 157.051 78.7038 157.051 80.0958C157.051 81.4878 157.639 82.3038 158.731 82.3038ZM169.811 77.3478V74.4918H171.047V83.1318H170.051V82.5798L170.135 82.0278H170.015C169.667 82.7478 168.935 83.2398 167.891 83.2398C166.319 83.2398 165.395 82.0278 165.395 80.1078C165.395 78.1758 166.331 76.9518 167.903 76.9518C168.947 76.9518 169.679 77.4558 170.015 78.1758H170.135L170.051 77.7558L169.811 77.3478ZM168.251 82.2918C169.259 82.2918 169.835 81.4878 169.835 80.0958C169.835 78.6678 169.259 77.8998 168.251 77.8998C167.207 77.8998 166.655 78.7158 166.655 80.0958C166.655 81.4758 167.231 82.2918 168.251 82.2918ZM177.758 80.0118V80.2758H173.426C173.474 81.6318 174.026 82.3158 175.07 82.3158C175.874 82.3158 176.366 81.9438 176.534 81.2118H177.722C177.53 82.4718 176.558 83.2398 175.01 83.2398C173.174 83.2398 172.166 82.0878 172.166 80.1198C172.166 78.1398 173.234 76.9518 175.046 76.9518C176.81 76.9518 177.758 78.0558 177.758 80.0118ZM175.01 77.8278C174.098 77.8278 173.582 78.3918 173.462 79.5198H176.534C176.438 78.3918 175.934 77.8278 175.01 77.8278ZM184.584 76.9518C184.908 76.9518 185.184 76.9998 185.412 77.0958V78.2478C185.112 78.1638 184.836 78.1158 184.572 78.1158C183.528 78.1158 182.928 78.8118 182.928 80.0118V83.1318H181.692V77.0718H182.7V77.5638L182.604 78.2238H182.712C182.988 77.4558 183.624 76.9518 184.584 76.9518ZM188.709 76.9518C190.437 76.9518 191.301 77.7078 191.301 79.2078V83.1318H190.305V82.5798L190.401 82.0278H190.269C189.861 82.8318 189.105 83.2398 187.989 83.2398C186.693 83.2398 185.949 82.6158 185.949 81.5958C185.949 80.5998 186.585 79.9998 188.133 79.8078L190.065 79.5798V79.1598C190.065 78.2718 189.597 77.8278 188.661 77.8278C187.761 77.8278 187.305 78.2358 187.281 79.0638H186.069C186.081 77.6838 187.065 76.9518 188.709 76.9518ZM188.301 82.3758C189.357 82.3758 190.065 81.7278 190.065 80.7318V80.3238L188.349 80.5278C187.569 80.6358 187.173 80.9478 187.173 81.4638C187.173 82.0518 187.593 82.3758 188.301 82.3758ZM195.055 83.2398C193.423 83.2398 192.535 82.6158 192.391 81.3678H193.579C193.711 82.0758 194.215 82.4238 195.091 82.4238C195.919 82.4238 196.471 82.0758 196.471 81.4878C196.471 81.0198 196.111 80.7198 195.379 80.5758L194.143 80.3598C193.075 80.1558 192.499 79.5798 192.499 78.7758C192.499 77.6718 193.459 76.9518 195.043 76.9518C196.543 76.9518 197.467 77.5878 197.575 78.7758H196.387C196.303 78.1038 195.823 77.7678 194.971 77.7678C194.155 77.7678 193.663 78.1158 193.663 78.6078C193.663 79.0158 194.023 79.2918 194.731 79.4358L195.931 79.6518C197.119 79.8798 197.707 80.4438 197.707 81.3198C197.707 82.4838 196.675 83.2398 195.055 83.2398ZM201.755 82.2318C201.995 82.2318 202.271 82.1958 202.571 82.1118V83.0838C202.235 83.1918 201.839 83.2398 201.371 83.2398C200.111 83.2398 199.475 82.6278 199.475 81.3918V80.7918V77.9358H198.407V77.0718H199.475V75.4278H200.711V77.0718H202.535V77.9358H200.711V80.7198V81.1998C200.711 81.8838 201.059 82.2318 201.755 82.2318ZM206.639 76.9518C206.963 76.9518 207.239 76.9998 207.467 77.0958V78.2478C207.167 78.1638 206.891 78.1158 206.627 78.1158C205.583 78.1158 204.983 78.8118 204.983 80.0118V83.1318H203.747V77.0718H204.755V77.5638L204.659 78.2238H204.767C205.043 77.4558 205.679 76.9518 206.639 76.9518ZM213.621 80.0118V80.2758H209.289C209.337 81.6318 209.889 82.3158 210.933 82.3158C211.737 82.3158 212.229 81.9438 212.397 81.2118H213.585C213.393 82.4718 212.421 83.2398 210.873 83.2398C209.037 83.2398 208.029 82.0878 208.029 80.1198C208.029 78.1398 209.097 76.9518 210.909 76.9518C212.673 76.9518 213.621 78.0558 213.621 80.0118ZM210.873 77.8278C209.961 77.8278 209.445 78.3918 209.325 79.5198H212.397C212.301 78.3918 211.797 77.8278 210.873 77.8278ZM217.3 76.9518C219.028 76.9518 219.892 77.7078 219.892 79.2078V83.1318H218.896V82.5798L218.992 82.0278H218.86C218.452 82.8318 217.696 83.2398 216.58 83.2398C215.284 83.2398 214.54 82.6158 214.54 81.5958C214.54 80.5998 215.176 79.9998 216.724 79.8078L218.656 79.5798V79.1598C218.656 78.2718 218.188 77.8278 217.252 77.8278C216.352 77.8278 215.896 78.2358 215.872 79.0638H214.66C214.672 77.6838 215.656 76.9518 217.3 76.9518ZM216.892 82.3758C217.948 82.3758 218.656 81.7278 218.656 80.7318V80.3238L216.94 80.5278C216.16 80.6358 215.764 80.9478 215.764 81.4638C215.764 82.0518 216.184 82.3758 216.892 82.3758ZM227.906 76.9638C229.118 76.9638 229.85 77.6598 229.85 78.9078V83.1198H228.638V79.1238C228.638 78.3198 228.278 77.9118 227.546 77.9118C226.682 77.9118 226.154 78.4758 226.154 79.4238V83.1318H224.942V79.1238C224.942 78.3198 224.57 77.9118 223.838 77.9118C222.986 77.9118 222.458 78.4758 222.458 79.4478V83.1318H221.246V77.0718H222.194V77.5998L222.122 78.1278H222.23C222.518 77.4438 223.202 76.9638 224.162 76.9638C224.99 76.9638 225.542 77.2758 225.818 77.9118L225.758 78.2358H225.854C226.154 77.4798 226.862 76.9638 227.906 76.9638ZM236.616 80.0118V80.2758H232.284C232.332 81.6318 232.884 82.3158 233.928 82.3158C234.732 82.3158 235.224 81.9438 235.392 81.2118H236.58C236.388 82.4718 235.416 83.2398 233.868 83.2398C232.032 83.2398 231.024 82.0878 231.024 80.1198C231.024 78.1398 232.092 76.9518 233.904 76.9518C235.668 76.9518 236.616 78.0558 236.616 80.0118ZM233.868 77.8278C232.956 77.8278 232.44 78.3918 232.32 79.5198H235.392C235.296 78.3918 234.792 77.8278 233.868 77.8278ZM241.004 76.9518C242.36 76.9518 243.14 77.7078 243.14 79.0878V83.1318H241.916V79.3278C241.916 78.4038 241.484 77.9358 240.62 77.9358C239.648 77.9358 239.024 78.5478 239.024 79.6038V83.1318H237.788V77.0718H238.784V77.5878L238.712 78.1398H238.808C239.144 77.4558 239.888 76.9518 241.004 76.9518ZM247.415 82.2318C247.655 82.2318 247.931 82.1958 248.231 82.1118V83.0838C247.895 83.1918 247.499 83.2398 247.031 83.2398C245.771 83.2398 245.135 82.6278 245.135 81.3918V80.7918V77.9358H244.067V77.0718H245.135V75.4278H246.371V77.0718H248.195V77.9358H246.371V80.7198V81.1998C246.371 81.8838 246.719 82.2318 247.415 82.2318ZM251.967 76.9518C253.827 76.9518 254.859 78.1278 254.859 80.0958C254.859 82.0638 253.827 83.2398 251.967 83.2398C250.107 83.2398 249.075 82.0638 249.075 80.0958C249.075 78.1278 250.131 76.9518 251.967 76.9518ZM251.979 82.3038C253.047 82.3038 253.623 81.4878 253.623 80.0958C253.623 78.6918 253.047 77.8878 251.979 77.8878C250.887 77.8878 250.299 78.7038 250.299 80.0958C250.299 81.4878 250.887 82.3038 251.979 82.3038ZM263.059 77.3478V74.4918H264.295V83.1318H263.299V82.5798L263.383 82.0278H263.263C262.915 82.7478 262.183 83.2398 261.139 83.2398C259.567 83.2398 258.643 82.0278 258.643 80.1078C258.643 78.1758 259.579 76.9518 261.151 76.9518C262.195 76.9518 262.927 77.4558 263.263 78.1758H263.383L263.299 77.7558L263.059 77.3478ZM261.499 82.2918C262.507 82.2918 263.083 81.4878 263.083 80.0958C263.083 78.6678 262.507 77.8998 261.499 77.8998C260.455 77.8998 259.903 78.7158 259.903 80.0958C259.903 81.4758 260.479 82.2918 261.499 82.2918ZM268.318 76.9518C270.178 76.9518 271.21 78.1278 271.21 80.0958C271.21 82.0638 270.178 83.2398 268.318 83.2398C266.458 83.2398 265.426 82.0638 265.426 80.0958C265.426 78.1278 266.482 76.9518 268.318 76.9518ZM268.33 82.3038C269.398 82.3038 269.974 81.4878 269.974 80.0958C269.974 78.6918 269.398 77.8878 268.33 77.8878C267.238 77.8878 266.65 78.7038 266.65 80.0958C266.65 81.4878 267.238 82.3038 268.33 82.3038ZM278.318 76.9638C279.938 76.9638 280.826 78.1638 280.826 80.0958C280.826 82.0518 279.914 83.2518 278.318 83.2518C277.274 83.2518 276.542 82.7478 276.194 82.0278H276.086L276.158 82.4478L276.41 82.8558V85.3038H275.162V77.0718H276.158V77.6238L276.086 78.1758H276.206C276.542 77.4678 277.274 76.9638 278.318 76.9638ZM277.97 82.3038C279.014 82.3038 279.566 81.4878 279.566 80.1078C279.566 78.7278 278.99 77.9118 277.97 77.9118C276.962 77.9118 276.386 78.7158 276.386 80.1078C276.386 81.5358 276.962 82.3038 277.97 82.3038ZM287.439 80.0118V80.2758H283.107C283.155 81.6318 283.707 82.3158 284.751 82.3158C285.555 82.3158 286.047 81.9438 286.215 81.2118H287.403C287.211 82.4718 286.239 83.2398 284.691 83.2398C282.855 83.2398 281.847 82.0878 281.847 80.1198C281.847 78.1398 282.915 76.9518 284.727 76.9518C286.491 76.9518 287.439 78.0558 287.439 80.0118ZM284.691 77.8278C283.779 77.8278 283.263 78.3918 283.143 79.5198H286.215C286.119 78.3918 285.615 77.8278 284.691 77.8278ZM292.858 77.3478V74.4918H294.094V83.1318H293.098V82.5798L293.182 82.0278H293.062C292.714 82.7478 291.982 83.2398 290.938 83.2398C289.366 83.2398 288.442 82.0278 288.442 80.1078C288.442 78.1758 289.378 76.9518 290.95 76.9518C291.994 76.9518 292.726 77.4558 293.062 78.1758H293.182L293.098 77.7558L292.858 77.3478ZM291.298 82.2918C292.306 82.2918 292.882 81.4878 292.882 80.0958C292.882 78.6678 292.306 77.8998 291.298 77.8998C290.254 77.8998 289.702 78.7158 289.702 80.0958C289.702 81.4758 290.278 82.2918 291.298 82.2918ZM296.855 76.0158H295.499V74.4918H296.867L296.855 76.0158ZM296.807 83.1318H295.571V77.0718H296.807V83.1318ZM302.52 77.3478V74.4918H303.756V83.1318H302.76V82.5798L302.844 82.0278H302.724C302.376 82.7478 301.644 83.2398 300.6 83.2398C299.028 83.2398 298.104 82.0278 298.104 80.1078C298.104 78.1758 299.04 76.9518 300.612 76.9518C301.656 76.9518 302.388 77.4558 302.724 78.1758H302.844L302.76 77.7558L302.52 77.3478ZM300.96 82.2918C301.968 82.2918 302.544 81.4878 302.544 80.0958C302.544 78.6678 301.968 77.8998 300.96 77.8998C299.916 77.8998 299.364 78.7158 299.364 80.0958C299.364 81.4758 299.94 82.2918 300.96 82.2918ZM307.779 76.9518C309.639 76.9518 310.671 78.1278 310.671 80.0958C310.671 82.0638 309.639 83.2398 307.779 83.2398C305.919 83.2398 304.887 82.0638 304.887 80.0958C304.887 78.1278 305.943 76.9518 307.779 76.9518ZM307.791 82.3038C308.859 82.3038 309.435 81.4878 309.435 80.0958C309.435 78.6918 308.859 77.8878 307.791 77.8878C306.699 77.8878 306.111 78.7038 306.111 80.0958C306.111 81.4878 306.699 82.3038 307.791 82.3038ZM320.035 80.0118V80.2758H315.703C315.751 81.6318 316.303 82.3158 317.347 82.3158C318.151 82.3158 318.643 81.9438 318.811 81.2118H319.999C319.807 82.4718 318.835 83.2398 317.287 83.2398C315.451 83.2398 314.443 82.0878 314.443 80.1198C314.443 78.1398 315.511 76.9518 317.323 76.9518C319.087 76.9518 320.035 78.0558 320.035 80.0118ZM317.287 77.8278C316.375 77.8278 315.859 78.3918 315.739 79.5198H318.811C318.715 78.3918 318.211 77.8278 317.287 77.8278ZM7.39075 98.9518C9.11875 98.9518 9.98275 99.7078 9.98275 101.208V105.132H8.98675V104.58L9.08275 104.028H8.95075C8.54275 104.832 7.78675 105.24 6.67075 105.24C5.37475 105.24 4.63075 104.616 4.63075 103.596C4.63075 102.6 5.26675 102 6.81475 101.808L8.74675 101.58V101.16C8.74675 100.272 8.27875 99.8278 7.34275 99.8278C6.44275 99.8278 5.98675 100.236 5.96275 101.064H4.75075C4.76275 99.6838 5.74675 98.9518 7.39075 98.9518ZM6.98275 104.376C8.03875 104.376 8.74675 103.728 8.74675 102.732V102.324L7.03075 102.528C6.25075 102.636 5.85475 102.948 5.85475 103.464C5.85475 104.052 6.27475 104.376 6.98275 104.376ZM15.813 99.5998V99.0718H16.869V104.796C16.869 106.464 15.897 107.412 13.965 107.412C12.285 107.412 11.325 106.656 11.217 105.312H12.453C12.537 106.092 13.077 106.536 13.977 106.536C15.021 106.536 15.549 105.984 15.585 104.88L15.813 104.304L15.897 103.824H15.789C15.441 104.544 14.697 105.036 13.653 105.036C12.069 105.036 11.169 103.86 11.169 101.988C11.169 100.128 12.069 98.9518 13.653 98.9518C14.697 98.9518 15.441 99.4318 15.777 100.14H15.897L15.813 99.5998ZM14.025 104.148C15.021 104.148 15.597 103.368 15.597 101.988C15.597 100.632 15.021 99.8398 14.025 99.8398C12.981 99.8398 12.429 100.656 12.429 101.988C12.429 103.344 13.005 104.148 14.025 104.148ZM22.2565 102.612V99.0718H23.4925V105.132H22.4965V104.604L22.5805 104.064H22.4725C22.1365 104.748 21.4045 105.24 20.3365 105.24C18.9925 105.24 18.2365 104.496 18.2365 103.116V99.0718H19.4725V102.888C19.4725 103.812 19.8925 104.268 20.7205 104.268C21.6445 104.268 22.2565 103.656 22.2565 102.612ZM27.3511 98.9518C29.0791 98.9518 29.9431 99.7078 29.9431 101.208V105.132H28.9471V104.58L29.0431 104.028H28.9111C28.5031 104.832 27.7471 105.24 26.6311 105.24C25.3351 105.24 24.5911 104.616 24.5911 103.596C24.5911 102.6 25.2271 102 26.7751 101.808L28.7071 101.58V101.16C28.7071 100.272 28.2391 99.8278 27.3031 99.8278C26.4031 99.8278 25.9471 100.236 25.9231 101.064H24.7111C24.7231 99.6838 25.7071 98.9518 27.3511 98.9518ZM26.9431 104.376C27.9991 104.376 28.7071 103.728 28.7071 102.732V102.324L26.9911 102.528C26.2111 102.636 25.8151 102.948 25.8151 103.464C25.8151 104.052 26.2351 104.376 26.9431 104.376ZM34.1893 98.9518C34.5133 98.9518 34.7893 98.9998 35.0173 99.0958V100.248C34.7173 100.164 34.4413 100.116 34.1773 100.116C33.1333 100.116 32.5333 100.812 32.5333 102.012V105.132H31.2973V99.0718H32.3053V99.5638L32.2093 100.224H32.3173C32.5933 99.4558 33.2293 98.9518 34.1893 98.9518ZM40.0073 99.3478V96.4918H41.2433V105.132H40.2473V104.58L40.3313 104.028H40.2113C39.8633 104.748 39.1313 105.24 38.0873 105.24C36.5153 105.24 35.5913 104.028 35.5913 102.108C35.5913 100.176 36.5273 98.9518 38.0993 98.9518C39.1433 98.9518 39.8753 99.4558 40.2113 100.176H40.3313L40.2473 99.7558L40.0073 99.3478ZM38.4473 104.292C39.4553 104.292 40.0313 103.488 40.0313 102.096C40.0313 100.668 39.4553 99.8998 38.4473 99.8998C37.4033 99.8998 36.8513 100.716 36.8513 102.096C36.8513 103.476 37.4273 104.292 38.4473 104.292ZM45.12 98.9518C46.848 98.9518 47.712 99.7078 47.712 101.208V105.132H46.716V104.58L46.812 104.028H46.68C46.272 104.832 45.516 105.24 44.4 105.24C43.104 105.24 42.36 104.616 42.36 103.596C42.36 102.6 42.996 102 44.544 101.808L46.476 101.58V101.16C46.476 100.272 46.008 99.8278 45.072 99.8278C44.172 99.8278 43.716 100.236 43.692 101.064H42.48C42.492 99.6838 43.476 98.9518 45.12 98.9518ZM44.712 104.376C45.768 104.376 46.476 103.728 46.476 102.732V102.324L44.76 102.528C43.98 102.636 43.584 102.948 43.584 103.464C43.584 104.052 44.004 104.376 44.712 104.376ZM51.9582 98.9518C52.2822 98.9518 52.5582 98.9998 52.7862 99.0958V100.248C52.4862 100.164 52.2102 100.116 51.9462 100.116C50.9022 100.116 50.3022 100.812 50.3022 102.012V105.132H49.0662V99.0718H50.0742V99.5638L49.9782 100.224H50.0862C50.3622 99.4558 50.9982 98.9518 51.9582 98.9518ZM58.9162 98.9518C60.6442 98.9518 61.5082 99.7078 61.5082 101.208V105.132H60.5122V104.58L60.6082 104.028H60.4762C60.0682 104.832 59.3122 105.24 58.1962 105.24C56.9002 105.24 56.1562 104.616 56.1562 103.596C56.1562 102.6 56.7922 102 58.3402 101.808L60.2722 101.58V101.16C60.2722 100.272 59.8042 99.8278 58.8682 99.8278C57.9682 99.8278 57.5122 100.236 57.4882 101.064H56.2762C56.2882 99.6838 57.2722 98.9518 58.9162 98.9518ZM58.5082 104.376C59.5642 104.376 60.2722 103.728 60.2722 102.732V102.324L58.5562 102.528C57.7762 102.636 57.3802 102.948 57.3802 103.464C57.3802 104.052 57.8002 104.376 58.5082 104.376ZM68.3852 105.252C66.5012 105.252 65.4572 104.076 65.4572 102.096C65.4572 100.128 66.5132 98.9638 68.3972 98.9638C69.9812 98.9638 71.0132 99.7798 71.1452 101.172H69.8852C69.7172 100.308 69.2132 99.8758 68.3852 99.8758C67.2812 99.8758 66.7052 100.668 66.7052 102.096C66.7052 103.524 67.2932 104.316 68.3852 104.316C69.1892 104.316 69.7292 103.836 69.8852 103.008H71.1452C71.0132 104.412 70.0052 105.252 68.3852 105.252ZM74.9558 98.9518C76.8158 98.9518 77.8478 100.128 77.8478 102.096C77.8478 104.064 76.8158 105.24 74.9558 105.24C73.0958 105.24 72.0638 104.064 72.0638 102.096C72.0638 100.128 73.1198 98.9518 74.9558 98.9518ZM74.9678 104.304C76.0358 104.304 76.6118 103.488 76.6118 102.096C76.6118 100.692 76.0358 99.8878 74.9678 99.8878C73.8758 99.8878 73.2878 100.704 73.2878 102.096C73.2878 103.488 73.8758 104.304 74.9678 104.304ZM82.2536 98.9518C83.6096 98.9518 84.3896 99.7078 84.3896 101.088V105.132H83.1656V101.328C83.1656 100.404 82.7336 99.9358 81.8696 99.9358C80.8976 99.9358 80.2736 100.548 80.2736 101.604V105.132H79.0376V99.0718H80.0336V99.5878L79.9616 100.14H80.0576C80.3936 99.4558 81.1376 98.9518 82.2536 98.9518ZM88.4013 97.3558C87.8133 97.3558 87.5253 97.6558 87.5253 98.2558V99.0718H89.0253V99.9358H87.5253V105.132H86.2893L86.2773 99.9358H85.3533V99.0718H86.2773V98.1478C86.2773 96.9718 86.8773 96.3838 88.0893 96.3718C88.5093 96.3838 88.8453 96.4318 89.1093 96.5158V97.4758C88.8933 97.3918 88.6533 97.3558 88.4013 97.3558ZM91.3458 98.0158H89.9898V96.4918H91.3578L91.3458 98.0158ZM91.2978 105.132H90.0618V99.0718H91.2978V105.132ZM95.6555 98.9518C95.9795 98.9518 96.2555 98.9998 96.4835 99.0958V100.248C96.1835 100.164 95.9075 100.116 95.6435 100.116C94.5995 100.116 93.9995 100.812 93.9995 102.012V105.132H92.7635V99.0718H93.7715V99.5638L93.6755 100.224H93.7835C94.0595 99.4558 94.6955 98.9518 95.6555 98.9518ZM104.003 98.9638C105.215 98.9638 105.947 99.6598 105.947 100.908V105.12H104.735V101.124C104.735 100.32 104.375 99.9118 103.643 99.9118C102.779 99.9118 102.251 100.476 102.251 101.424V105.132H101.039V101.124C101.039 100.32 100.667 99.9118 99.9347 99.9118C99.0827 99.9118 98.5547 100.476 98.5547 101.448V105.132H97.3427V99.0718H98.2907V99.5998L98.2187 100.128H98.3267C98.6147 99.4438 99.2987 98.9638 100.259 98.9638C101.087 98.9638 101.639 99.2758 101.915 99.9118L101.855 100.236H101.951C102.251 99.4798 102.959 98.9638 104.003 98.9638ZM109.809 98.9518C111.537 98.9518 112.401 99.7078 112.401 101.208V105.132H111.405V104.58L111.501 104.028H111.369C110.961 104.832 110.205 105.24 109.089 105.24C107.793 105.24 107.049 104.616 107.049 103.596C107.049 102.6 107.685 102 109.233 101.808L111.165 101.58V101.16C111.165 100.272 110.697 99.8278 109.761 99.8278C108.861 99.8278 108.405 100.236 108.381 101.064H107.169C107.181 99.6838 108.165 98.9518 109.809 98.9518ZM109.401 104.376C110.457 104.376 111.165 103.728 111.165 102.732V102.324L109.449 102.528C108.669 102.636 108.273 102.948 108.273 103.464C108.273 104.052 108.693 104.376 109.401 104.376ZM116.515 104.316C117.319 104.316 117.859 103.836 118.015 103.008H119.275C119.143 104.304 118.267 105.132 116.839 105.24L116.419 105.852H116.671C117.475 105.852 117.883 106.2 117.883 106.776C117.883 107.46 117.295 107.844 116.287 107.844C115.855 107.844 115.483 107.796 115.171 107.712V107.124C115.519 107.232 115.891 107.292 116.263 107.292C116.839 107.292 117.127 107.124 117.127 106.788C117.127 106.512 116.899 106.38 116.443 106.38H115.483V106.248L116.167 105.24C114.499 105.096 113.587 103.956 113.587 102.096C113.587 100.128 114.643 98.9638 116.527 98.9638C118.111 98.9638 119.143 99.7798 119.275 101.172H118.015C117.847 100.308 117.343 99.8758 116.515 99.8758C115.411 99.8758 114.835 100.668 114.835 102.096C114.835 103.524 115.423 104.316 116.515 104.316ZM121.61 98.2918H120.974C120.914 97.5598 121.31 96.9358 122.09 96.9358C122.354 96.9358 122.63 97.0438 122.93 97.2598C123.23 97.4638 123.458 97.5718 123.602 97.5718C123.902 97.5718 124.07 97.3198 124.034 96.9718H124.706C124.766 97.7398 124.406 98.3278 123.65 98.3278C123.362 98.3278 123.062 98.2198 122.75 98.0158C122.438 97.7998 122.21 97.6918 122.078 97.6918C121.742 97.6918 121.598 97.9558 121.61 98.2918ZM122.87 98.9518C124.598 98.9518 125.462 99.7078 125.462 101.208V105.132H124.466V104.58L124.562 104.028H124.43C124.022 104.832 123.266 105.24 122.15 105.24C120.854 105.24 120.11 104.616 120.11 103.596C120.11 102.6 120.746 102 122.294 101.808L124.226 101.58V101.16C124.226 100.272 123.758 99.8278 122.822 99.8278C121.922 99.8278 121.466 100.236 121.442 101.064H120.23C120.242 99.6838 121.226 98.9518 122.87 98.9518ZM122.462 104.376C123.518 104.376 124.226 103.728 124.226 102.732V102.324L122.51 102.528C121.73 102.636 121.334 102.948 121.334 103.464C121.334 104.052 121.754 104.376 122.462 104.376ZM129.54 98.9518C131.4 98.9518 132.432 100.128 132.432 102.096C132.432 104.064 131.4 105.24 129.54 105.24C127.68 105.24 126.648 104.064 126.648 102.096C126.648 100.128 127.704 98.9518 129.54 98.9518ZM129.552 104.304C130.62 104.304 131.196 103.488 131.196 102.096C131.196 100.692 130.62 99.8878 129.552 99.8878C128.46 99.8878 127.872 100.704 127.872 102.096C127.872 103.488 128.46 104.304 129.552 104.304ZM140.632 99.3478V96.4918H141.868V105.132H140.872V104.58L140.956 104.028H140.836C140.488 104.748 139.756 105.24 138.712 105.24C137.14 105.24 136.216 104.028 136.216 102.108C136.216 100.176 137.152 98.9518 138.724 98.9518C139.768 98.9518 140.5 99.4558 140.836 100.176H140.956L140.872 99.7558L140.632 99.3478ZM139.072 104.292C140.08 104.292 140.656 103.488 140.656 102.096C140.656 100.668 140.08 99.8998 139.072 99.8998C138.028 99.8998 137.476 100.716 137.476 102.096C137.476 103.476 138.052 104.292 139.072 104.292ZM145.745 98.9518C147.473 98.9518 148.337 99.7078 148.337 101.208V105.132H147.341V104.58L147.437 104.028H147.305C146.897 104.832 146.141 105.24 145.025 105.24C143.729 105.24 142.985 104.616 142.985 103.596C142.985 102.6 143.621 102 145.169 101.808L147.101 101.58V101.16C147.101 100.272 146.633 99.8278 145.697 99.8278C144.797 99.8278 144.341 100.236 144.317 101.064H143.105C143.117 99.6838 144.101 98.9518 145.745 98.9518ZM145.337 104.376C146.393 104.376 147.101 103.728 147.101 102.732V102.324L145.385 102.528C144.605 102.636 144.209 102.948 144.209 103.464C144.209 104.052 144.629 104.376 145.337 104.376ZM155.178 98.9518C157.038 98.9518 158.07 100.128 158.07 102.096C158.07 104.064 157.038 105.24 155.178 105.24C153.318 105.24 152.286 104.064 152.286 102.096C152.286 100.128 153.342 98.9518 155.178 98.9518ZM155.19 104.304C156.258 104.304 156.834 103.488 156.834 102.096C156.834 100.692 156.258 99.8878 155.19 99.8878C154.098 99.8878 153.51 100.704 153.51 102.096C153.51 103.488 154.098 104.304 155.19 104.304ZM163.28 102.612V99.0718H164.516V105.132H163.52V104.604L163.604 104.064H163.496C163.16 104.748 162.428 105.24 161.36 105.24C160.016 105.24 159.26 104.496 159.26 103.116V99.0718H160.496V102.888C160.496 103.812 160.916 104.268 161.744 104.268C162.668 104.268 163.28 103.656 163.28 102.612ZM168.77 104.232C169.01 104.232 169.286 104.196 169.586 104.112V105.084C169.25 105.192 168.854 105.24 168.386 105.24C167.126 105.24 166.49 104.628 166.49 103.392V102.792V99.9358H165.422V99.0718H166.49V97.4278H167.726V99.0718H169.55V99.9358H167.726V102.72V103.2C167.726 103.884 168.074 104.232 168.77 104.232ZM173.654 98.9518C173.978 98.9518 174.254 98.9998 174.482 99.0958V100.248C174.182 100.164 173.906 100.116 173.642 100.116C172.598 100.116 171.998 100.812 171.998 102.012V105.132H170.762V99.0718H171.77V99.5638L171.674 100.224H171.782C172.058 99.4558 172.694 98.9518 173.654 98.9518ZM177.779 98.9518C179.507 98.9518 180.371 99.7078 180.371 101.208V105.132H179.375V104.58L179.471 104.028H179.339C178.931 104.832 178.175 105.24 177.059 105.24C175.763 105.24 175.019 104.616 175.019 103.596C175.019 102.6 175.655 102 177.203 101.808L179.135 101.58V101.16C179.135 100.272 178.667 99.8278 177.731 99.8278C176.831 99.8278 176.375 100.236 176.351 101.064H175.139C175.151 99.6838 176.135 98.9518 177.779 98.9518ZM177.371 104.376C178.427 104.376 179.135 103.728 179.135 102.732V102.324L177.419 102.528C176.639 102.636 176.243 102.948 176.243 103.464C176.243 104.052 176.663 104.376 177.371 104.376ZM187.644 98.9638C189.264 98.9638 190.152 100.164 190.152 102.096C190.152 104.052 189.24 105.252 187.644 105.252C186.6 105.252 185.868 104.748 185.52 104.028H185.412L185.484 104.448L185.736 104.856V107.304H184.488V99.0718H185.484V99.6238L185.412 100.176H185.532C185.868 99.4678 186.6 98.9638 187.644 98.9638ZM187.296 104.304C188.34 104.304 188.892 103.488 188.892 102.108C188.892 100.728 188.316 99.9118 187.296 99.9118C186.288 99.9118 185.712 100.716 185.712 102.108C185.712 103.536 186.288 104.304 187.296 104.304ZM193.86 98.9518C195.588 98.9518 196.452 99.7078 196.452 101.208V105.132H195.456V104.58L195.552 104.028H195.42C195.012 104.832 194.256 105.24 193.14 105.24C191.844 105.24 191.1 104.616 191.1 103.596C191.1 102.6 191.736 102 193.284 101.808L195.216 101.58V101.16C195.216 100.272 194.748 99.8278 193.812 99.8278C192.912 99.8278 192.456 100.236 192.432 101.064H191.22C191.232 99.6838 192.216 98.9518 193.86 98.9518ZM193.452 104.376C194.508 104.376 195.216 103.728 195.216 102.732V102.324L193.5 102.528C192.72 102.636 192.324 102.948 192.324 103.464C192.324 104.052 192.744 104.376 193.452 104.376ZM200.699 98.9518C201.023 98.9518 201.299 98.9998 201.527 99.0958V100.248C201.227 100.164 200.951 100.116 200.687 100.116C199.643 100.116 199.043 100.812 199.043 102.012V105.132H197.807V99.0718H198.815V99.5638L198.719 100.224H198.827C199.103 99.4558 199.739 98.9518 200.699 98.9518ZM205.313 104.232C205.553 104.232 205.829 104.196 206.129 104.112V105.084C205.793 105.192 205.397 105.24 204.929 105.24C203.669 105.24 203.033 104.628 203.033 103.392V102.792V99.9358H201.965V99.0718H203.033V97.4278H204.269V99.0718H206.093V99.9358H204.269V102.72V103.2C204.269 103.884 204.617 104.232 205.313 104.232ZM212.553 102.012V102.276H208.221C208.269 103.632 208.821 104.316 209.865 104.316C210.669 104.316 211.161 103.944 211.329 103.212H212.517C212.325 104.472 211.353 105.24 209.805 105.24C207.969 105.24 206.961 104.088 206.961 102.12C206.961 100.14 208.029 98.9518 209.841 98.9518C211.605 98.9518 212.553 100.056 212.553 102.012ZM209.805 99.8278C208.893 99.8278 208.377 100.392 208.257 101.52H211.329C211.233 100.392 210.729 99.8278 209.805 99.8278ZM219.643 98.9638C221.263 98.9638 222.151 100.164 222.151 102.096C222.151 104.052 221.239 105.252 219.643 105.252C218.599 105.252 217.867 104.748 217.519 104.028H217.411L217.483 104.448L217.735 104.856V107.304H216.487V99.0718H217.483V99.6238L217.411 100.176H217.531C217.867 99.4678 218.599 98.9638 219.643 98.9638ZM219.295 104.304C220.339 104.304 220.891 103.488 220.891 102.108C220.891 100.728 220.315 99.9118 219.295 99.9118C218.287 99.9118 217.711 100.716 217.711 102.108C217.711 103.536 218.287 104.304 219.295 104.304ZM225.859 98.9518C227.587 98.9518 228.451 99.7078 228.451 101.208V105.132H227.455V104.58L227.551 104.028H227.419C227.011 104.832 226.255 105.24 225.139 105.24C223.843 105.24 223.099 104.616 223.099 103.596C223.099 102.6 223.735 102 225.283 101.808L227.215 101.58V101.16C227.215 100.272 226.747 99.8278 225.811 99.8278C224.911 99.8278 224.455 100.236 224.431 101.064H223.219C223.231 99.6838 224.215 98.9518 225.859 98.9518ZM225.451 104.376C226.507 104.376 227.215 103.728 227.215 102.732V102.324L225.499 102.528C224.719 102.636 224.323 102.948 224.323 103.464C224.323 104.052 224.743 104.376 225.451 104.376ZM232.697 98.9518C233.021 98.9518 233.297 98.9998 233.525 99.0958V100.248C233.225 100.164 232.949 100.116 232.685 100.116C231.641 100.116 231.041 100.812 231.041 102.012V105.132H229.805V99.0718H230.813V99.5638L230.717 100.224H230.825C231.101 99.4558 231.737 98.9518 232.697 98.9518ZM236.822 98.9518C238.55 98.9518 239.414 99.7078 239.414 101.208V105.132H238.418V104.58L238.514 104.028H238.382C237.974 104.832 237.218 105.24 236.102 105.24C234.806 105.24 234.062 104.616 234.062 103.596C234.062 102.6 234.698 102 236.246 101.808L238.178 101.58V101.16C238.178 100.272 237.71 99.8278 236.774 99.8278C235.874 99.8278 235.418 100.236 235.394 101.064H234.182C234.194 99.6838 235.178 98.9518 236.822 98.9518ZM236.414 104.376C237.47 104.376 238.178 103.728 238.178 102.732V102.324L236.462 102.528C235.682 102.636 235.286 102.948 235.286 103.464C235.286 104.052 235.706 104.376 236.414 104.376ZM246.171 97.3558C245.583 97.3558 245.295 97.6558 245.295 98.2558V99.0718H246.795V99.9358H245.295V105.132H244.059L244.047 99.9358H243.123V99.0718H244.047V98.1478C244.047 96.9718 244.647 96.3838 245.859 96.3718C246.279 96.3838 246.615 96.4318 246.879 96.5158V97.4758C246.663 97.3918 246.423 97.3558 246.171 97.3558ZM250.232 98.9518C251.96 98.9518 252.824 99.7078 252.824 101.208V105.132H251.828V104.58L251.924 104.028H251.792C251.384 104.832 250.628 105.24 249.512 105.24C248.216 105.24 247.472 104.616 247.472 103.596C247.472 102.6 248.108 102 249.656 101.808L251.588 101.58V101.16C251.588 100.272 251.12 99.8278 250.184 99.8278C249.284 99.8278 248.828 100.236 248.804 101.064H247.592C247.604 99.6838 248.588 98.9518 250.232 98.9518ZM249.824 104.376C250.88 104.376 251.588 103.728 251.588 102.732V102.324L249.872 102.528C249.092 102.636 248.696 102.948 248.696 103.464C248.696 104.052 249.116 104.376 249.824 104.376ZM258.738 105.132H253.998V104.28L256.89 100.284L257.214 100.104V99.9718L256.806 100.008H254.046V99.0718H258.714V99.9238L255.822 103.908L255.51 104.1V104.232L255.906 104.196H258.738V105.132ZM265.154 102.012V102.276H260.822C260.87 103.632 261.422 104.316 262.466 104.316C263.27 104.316 263.762 103.944 263.93 103.212H265.118C264.926 104.472 263.954 105.24 262.406 105.24C260.57 105.24 259.562 104.088 259.562 102.12C259.562 100.14 260.63 98.9518 262.442 98.9518C264.206 98.9518 265.154 100.056 265.154 102.012ZM262.406 99.8278C261.494 99.8278 260.978 100.392 260.858 101.52H263.93C263.834 100.392 263.33 99.8278 262.406 99.8278ZM269.217 98.9518C269.541 98.9518 269.817 98.9998 270.045 99.0958V100.248C269.745 100.164 269.469 100.116 269.205 100.116C268.161 100.116 267.561 100.812 267.561 102.012V105.132H266.325V99.0718H267.333V99.5638L267.237 100.224H267.345C267.621 99.4558 268.257 98.9518 269.217 98.9518ZM276.175 98.9518C277.903 98.9518 278.767 99.7078 278.767 101.208V105.132H277.771V104.58L277.867 104.028H277.735C277.327 104.832 276.571 105.24 275.455 105.24C274.159 105.24 273.415 104.616 273.415 103.596C273.415 102.6 274.051 102 275.599 101.808L277.531 101.58V101.16C277.531 100.272 277.063 99.8278 276.127 99.8278C275.227 99.8278 274.771 100.236 274.747 101.064H273.535C273.547 99.6838 274.531 98.9518 276.175 98.9518ZM275.767 104.376C276.823 104.376 277.531 103.728 277.531 102.732V102.324L275.815 102.528C275.035 102.636 274.639 102.948 274.639 103.464C274.639 104.052 275.059 104.376 275.767 104.376ZM288.296 102.012V102.276H283.964C284.012 103.632 284.564 104.316 285.608 104.316C286.412 104.316 286.904 103.944 287.072 103.212H288.26C288.068 104.472 287.096 105.24 285.548 105.24C283.712 105.24 282.704 104.088 282.704 102.12C282.704 100.14 283.772 98.9518 285.584 98.9518C287.348 98.9518 288.296 100.056 288.296 102.012ZM285.548 99.8278C284.636 99.8278 284.12 100.392 284 101.52H287.072C286.976 100.392 286.472 99.8278 285.548 99.8278ZM292.683 98.9518C294.039 98.9518 294.819 99.7078 294.819 101.088V105.132H293.595V101.328C293.595 100.404 293.163 99.9358 292.299 99.9358C291.327 99.9358 290.703 100.548 290.703 101.604V105.132H289.467V99.0718H290.463V99.5878L290.391 100.14H290.487C290.823 99.4558 291.567 98.9518 292.683 98.9518ZM299.095 104.232C299.335 104.232 299.611 104.196 299.911 104.112V105.084C299.575 105.192 299.179 105.24 298.711 105.24C297.451 105.24 296.815 104.628 296.815 103.392V102.792V99.9358H295.747V99.0718H296.815V97.4278H298.051V99.0718H299.875V99.9358H298.051V102.72V103.2C298.051 103.884 298.399 104.232 299.095 104.232ZM303.978 98.9518C304.302 98.9518 304.578 98.9998 304.806 99.0958V100.248C304.506 100.164 304.23 100.116 303.966 100.116C302.922 100.116 302.322 100.812 302.322 102.012V105.132H301.086V99.0718H302.094V99.5638L301.998 100.224H302.106C302.382 99.4558 303.018 98.9518 303.978 98.9518ZM310.96 102.012V102.276H306.628C306.676 103.632 307.228 104.316 308.272 104.316C309.076 104.316 309.568 103.944 309.736 103.212H310.924C310.732 104.472 309.76 105.24 308.212 105.24C306.376 105.24 305.368 104.088 305.368 102.12C305.368 100.14 306.436 98.9518 308.248 98.9518C310.012 98.9518 310.96 100.056 310.96 102.012ZM308.212 99.8278C307.3 99.8278 306.784 100.392 306.664 101.52H309.736C309.64 100.392 309.136 99.8278 308.212 99.8278ZM316.608 99.5998V99.0718H317.664V104.796C317.664 106.464 316.692 107.412 314.76 107.412C313.08 107.412 312.12 106.656 312.012 105.312H313.248C313.332 106.092 313.872 106.536 314.772 106.536C315.816 106.536 316.344 105.984 316.38 104.88L316.608 104.304L316.692 103.824H316.584C316.236 104.544 315.492 105.036 314.448 105.036C312.864 105.036 311.964 103.86 311.964 101.988C311.964 100.128 312.864 98.9518 314.448 98.9518C315.492 98.9518 316.236 99.4318 316.572 100.14H316.692L316.608 99.5998ZM314.82 104.148C315.816 104.148 316.392 103.368 316.392 101.988C316.392 100.632 315.816 99.8398 314.82 99.8398C313.776 99.8398 313.224 100.656 313.224 101.988C313.224 103.344 313.8 104.148 314.82 104.148ZM321.539 98.9518C323.267 98.9518 324.131 99.7078 324.131 101.208V105.132H323.135V104.58L323.231 104.028H323.099C322.691 104.832 321.935 105.24 320.819 105.24C319.523 105.24 318.779 104.616 318.779 103.596C318.779 102.6 319.415 102 320.963 101.808L322.895 101.58V101.16C322.895 100.272 322.427 99.8278 321.491 99.8278C320.591 99.8278 320.135 100.236 320.111 101.064H318.899C318.911 99.6838 319.895 98.9518 321.539 98.9518ZM321.131 104.376C322.187 104.376 322.895 103.728 322.895 102.732V102.324L321.179 102.528C320.399 102.636 320.003 102.948 320.003 103.464C320.003 104.052 320.423 104.376 321.131 104.376Z" fill="#3A3A3A"/>
</svg>
