<svg width="329" height="128" viewBox="0 0 329 128" fill="none" xmlns="http://www.w3.org/2000/svg">
<path d="M5.68325 5.09086H9.01125L12.5153 15.7469V16.1309H10.2113L9.60325 14.2429H5.05925L4.46725 16.1309H2.19525V15.7629L5.68325 5.09086ZM6.99525 8.05086L5.63525 12.4189H9.02725L7.63525 8.05086L7.47525 6.96286H7.15525L6.99525 8.05086ZM18.4888 8.11486V4.61086H20.7608V16.1309H18.9848V15.4749L19.1448 14.7229H18.9368C18.4728 15.6349 17.5288 16.2909 16.1368 16.2909C14.0408 16.2909 12.7768 14.7389 12.7768 12.0669C12.7768 9.39486 14.0568 7.82686 16.1528 7.82686C17.4808 7.82686 18.4088 8.35486 18.9368 9.41086H19.1448L18.9848 8.75486L18.4888 8.11486ZM16.8248 14.5789C17.9128 14.5789 18.5208 13.6989 18.5208 12.0509C18.5208 10.3709 17.9608 9.53886 16.8248 9.53886C15.6888 9.53886 15.0968 10.4349 15.0968 12.0509C15.0968 13.6669 15.6888 14.5789 16.8248 14.5789ZM31.4794 7.84286C33.1434 7.84286 34.1034 8.80286 34.1034 10.4509V16.1309H31.8954V10.8669C31.8954 9.98686 31.5114 9.55486 30.7434 9.55486C29.8474 9.55486 29.2714 10.1629 29.2714 11.2029V16.1309H27.0634V10.8669C27.0634 9.98686 26.6794 9.55486 25.8954 9.55486C24.9994 9.55486 24.4394 10.1629 24.4394 11.2029V16.1309H22.2314V8.00286H23.9114V8.64286L23.7514 9.42686H23.9434C24.3434 8.51486 25.2394 7.84286 26.5674 7.84286C27.5594 7.84286 28.2634 8.19486 28.6794 8.88286L28.5354 9.50686H28.7114C29.1594 8.53086 30.0714 7.84286 31.4794 7.84286ZM37.9874 6.78686H35.6034V4.61086H37.9874V6.78686ZM37.9394 16.1309H35.6674V8.00286H37.9394V16.1309ZM44.2408 7.82686C46.0808 7.82686 47.1048 8.83486 47.1048 10.6109V16.1309H44.8488V11.0909C44.8488 10.0989 44.4008 9.60286 43.4888 9.60286C42.4488 9.60286 41.7768 10.2589 41.7768 11.3949V16.1309H39.5208V8.00286H41.2968V8.62686L41.1368 9.37886H41.3288C41.7768 8.48286 42.7688 7.82686 44.2408 7.82686ZM51.0111 6.78686H48.6271V4.61086H51.0111V6.78686ZM50.9631 16.1309H48.6911V8.00286H50.9631V16.1309ZM55.9205 16.2909C53.6165 16.2909 52.3845 15.4429 52.2245 13.7309H54.3525C54.5125 14.4829 55.0725 14.8669 56.0165 14.8669C56.8965 14.8669 57.4565 14.5309 57.4565 13.9069C57.4565 13.4269 57.0245 13.1069 56.1605 12.9309L54.6245 12.6589C53.1365 12.3549 52.3365 11.5389 52.3365 10.4349C52.3365 8.85086 53.6965 7.82686 55.9525 7.82686C58.1445 7.82686 59.3925 8.73886 59.5045 10.3389H57.3765C57.2645 9.61886 56.7525 9.26686 55.8085 9.26686C54.9605 9.26686 54.4485 9.60286 54.4485 10.1149C54.4485 10.5469 54.8805 10.8349 55.7445 11.0109L57.2325 11.2669C58.8805 11.6029 59.7125 12.3549 59.7125 13.5549C59.7125 15.2349 58.2245 16.2909 55.9205 16.2909ZM65.2358 14.4509C65.5238 14.4509 65.8438 14.4029 66.2118 14.3229V16.0829C65.6518 16.2269 65.0758 16.2909 64.4838 16.2909C62.6118 16.2909 61.6838 15.4109 61.6838 13.6349V12.6749V9.53886H60.3718V8.00286H61.6838V5.82686H63.9558V8.00286H66.1798V9.53886H63.9558V12.5309V13.2509C63.9558 14.0509 64.3878 14.4509 65.2358 14.4509ZM71.7625 7.82686C72.1945 7.82686 72.5625 7.89086 72.8505 8.01886V10.1309C72.4825 10.0189 72.1145 9.95486 71.7785 9.95486C70.4985 9.95486 69.7305 10.8189 69.7305 12.2429V16.1309H67.4745V8.00286H69.2505V8.61086L69.0745 9.60286H69.2825C69.6025 8.56286 70.4825 7.82686 71.7625 7.82686ZM81.2895 11.9389V12.4349H75.7855C75.8495 13.9069 76.4255 14.6429 77.5135 14.6429C78.3775 14.6429 78.9055 14.2589 79.0975 13.4749H81.2575C81.0015 15.2029 79.6415 16.2909 77.4015 16.2909C74.8575 16.2909 73.4655 14.7869 73.4655 12.1149C73.4655 9.42686 74.9855 7.82686 77.5295 7.82686C79.9775 7.82686 81.2895 9.26686 81.2895 11.9389ZM77.4655 9.37886C76.5375 9.37886 75.9935 9.95486 75.8335 11.1229H79.0495C78.9055 9.95486 78.3775 9.37886 77.4655 9.37886ZM89.8285 7.82686C92.3085 7.82686 93.5405 8.86686 93.5405 10.9469V16.1309H91.7805V15.4909L91.9565 14.7229H91.7325C91.1725 15.7629 90.1805 16.2909 88.7245 16.2909C86.9325 16.2909 85.9245 15.4269 85.9245 14.0349C85.9245 12.6109 86.8205 11.7949 88.9485 11.5389L91.2845 11.2669V10.8509C91.2845 9.87486 90.7885 9.37886 89.7805 9.37886C88.8045 9.37886 88.3085 9.84286 88.2925 10.7709H86.0845C86.1005 8.86686 87.4605 7.82686 89.8285 7.82686ZM89.3325 14.7549C90.4685 14.7549 91.2845 14.0509 91.2845 13.0109V12.5789L89.3965 12.7869C88.5805 12.8989 88.1645 13.2349 88.1645 13.7949C88.1645 14.4349 88.5485 14.7549 89.3325 14.7549ZM102.947 7.82686C103.379 7.82686 103.747 7.89086 104.035 8.01886V10.1309C103.667 10.0189 103.299 9.95486 102.963 9.95486C101.683 9.95486 100.915 10.8189 100.915 12.2429V16.1309H98.6589V8.00286H100.435V8.61086L100.259 9.60286H100.467C100.787 8.56286 101.667 7.82686 102.947 7.82686ZM112.474 11.9389V12.4349H106.97C107.034 13.9069 107.61 14.6429 108.698 14.6429C109.562 14.6429 110.09 14.2589 110.282 13.4749H112.442C112.186 15.2029 110.826 16.2909 108.586 16.2909C106.042 16.2909 104.65 14.7869 104.65 12.1149C104.65 9.42686 106.17 7.82686 108.714 7.82686C111.162 7.82686 112.474 9.26686 112.474 11.9389ZM108.65 9.37886C107.722 9.37886 107.178 9.95486 107.018 11.1229H110.234C110.09 9.95486 109.562 9.37886 108.65 9.37886ZM117.878 14.4509C118.166 14.4509 118.486 14.4029 118.854 14.3229V16.0829C118.294 16.2269 117.718 16.2909 117.126 16.2909C115.254 16.2909 114.326 15.4109 114.326 13.6349V12.6749V9.53886H113.014V8.00286H114.326V5.82686H116.598V8.00286H118.822V9.53886H116.598V12.5309V13.2509C116.598 14.0509 117.03 14.4509 117.878 14.4509ZM122.532 6.78686H120.148V4.61086H122.532V6.78686ZM122.484 16.1309H120.212V8.00286H122.484V16.1309ZM128.354 7.82686C128.786 7.82686 129.154 7.89086 129.442 8.01886V10.1309C129.074 10.0189 128.706 9.95486 128.37 9.95486C127.09 9.95486 126.322 10.8189 126.322 12.2429V16.1309H124.066V8.00286H125.842V8.61086L125.666 9.60286H125.874C126.194 8.56286 127.074 7.82686 128.354 7.82686ZM133.943 7.82686C136.423 7.82686 137.655 8.86686 137.655 10.9469V16.1309H135.895V15.4909L136.071 14.7229H135.847C135.287 15.7629 134.295 16.2909 132.839 16.2909C131.047 16.2909 130.039 15.4269 130.039 14.0349C130.039 12.6109 130.935 11.7949 133.063 11.5389L135.399 11.2669V10.8509C135.399 9.87486 134.903 9.37886 133.895 9.37886C132.919 9.37886 132.423 9.84286 132.407 10.7709H130.199C130.215 8.86686 131.575 7.82686 133.943 7.82686ZM133.447 14.7549C134.583 14.7549 135.399 14.0509 135.399 13.0109V12.5789L133.511 12.7869C132.695 12.8989 132.279 13.2349 132.279 13.7949C132.279 14.4349 132.663 14.7549 133.447 14.7549ZM144.609 8.11486V4.61086H146.881V16.1309H145.105V15.4749L145.265 14.7229H145.057C144.593 15.6349 143.649 16.2909 142.257 16.2909C140.161 16.2909 138.897 14.7389 138.897 12.0669C138.897 9.39486 140.177 7.82686 142.273 7.82686C143.601 7.82686 144.529 8.35486 145.057 9.41086H145.265L145.105 8.75486L144.609 8.11486ZM142.945 14.5789C144.033 14.5789 144.641 13.6989 144.641 12.0509C144.641 10.3709 144.081 9.53886 142.945 9.53886C141.809 9.53886 141.217 10.4349 141.217 12.0509C141.217 13.6669 141.809 14.5789 142.945 14.5789ZM151.935 7.82686C154.415 7.82686 155.647 8.86686 155.647 10.9469V16.1309H153.887V15.4909L154.063 14.7229H153.839C153.279 15.7629 152.287 16.2909 150.831 16.2909C149.039 16.2909 148.031 15.4269 148.031 14.0349C148.031 12.6109 148.927 11.7949 151.055 11.5389L153.391 11.2669V10.8509C153.391 9.87486 152.895 9.37886 151.887 9.37886C150.911 9.37886 150.415 9.84286 150.399 10.7709H148.191C148.207 8.86686 149.567 7.82686 151.935 7.82686ZM151.439 14.7549C152.575 14.7549 153.391 14.0509 153.391 13.0109V12.5789L151.503 12.7869C150.687 12.8989 150.271 13.2349 150.271 13.7949C150.271 14.4349 150.655 14.7549 151.439 14.7549ZM166.254 8.11486V4.61086H168.526V16.1309H166.75V15.4749L166.91 14.7229H166.702C166.238 15.6349 165.294 16.2909 163.902 16.2909C161.806 16.2909 160.542 14.7389 160.542 12.0669C160.542 9.39486 161.822 7.82686 163.918 7.82686C165.246 7.82686 166.174 8.35486 166.702 9.41086H166.91L166.75 8.75486L166.254 8.11486ZM164.59 14.5789C165.678 14.5789 166.286 13.6989 166.286 12.0509C166.286 10.3709 165.726 9.53886 164.59 9.53886C163.454 9.53886 162.862 10.4349 162.862 12.0509C162.862 13.6669 163.454 14.5789 164.59 14.5789ZM173.58 7.82686C176.06 7.82686 177.292 8.86686 177.292 10.9469V16.1309H175.532V15.4909L175.708 14.7229H175.484C174.924 15.7629 173.932 16.2909 172.476 16.2909C170.684 16.2909 169.676 15.4269 169.676 14.0349C169.676 12.6109 170.572 11.7949 172.7 11.5389L175.036 11.2669V10.8509C175.036 9.87486 174.54 9.37886 173.532 9.37886C172.556 9.37886 172.06 9.84286 172.044 10.7709H169.836C169.852 8.86686 171.212 7.82686 173.58 7.82686ZM173.084 14.7549C174.22 14.7549 175.036 14.0509 175.036 13.0109V12.5789L173.148 12.7869C172.332 12.8989 171.916 13.2349 171.916 13.7949C171.916 14.4349 172.3 14.7549 173.084 14.7549ZM182.134 16.2909C179.83 16.2909 178.598 15.4429 178.438 13.7309H180.566C180.726 14.4829 181.286 14.8669 182.23 14.8669C183.11 14.8669 183.67 14.5309 183.67 13.9069C183.67 13.4269 183.238 13.1069 182.374 12.9309L180.838 12.6589C179.35 12.3549 178.55 11.5389 178.55 10.4349C178.55 8.85086 179.91 7.82686 182.166 7.82686C184.358 7.82686 185.606 8.73886 185.718 10.3389H183.59C183.478 9.61886 182.966 9.26686 182.022 9.26686C181.174 9.26686 180.662 9.60286 180.662 10.1149C180.662 10.5469 181.094 10.8349 181.958 11.0109L183.446 11.2669C185.094 11.6029 185.926 12.3549 185.926 13.5549C185.926 15.2349 184.438 16.2909 182.134 16.2909ZM198.382 11.9389V12.4349H192.878C192.942 13.9069 193.518 14.6429 194.606 14.6429C195.47 14.6429 195.998 14.2589 196.19 13.4749H198.35C198.094 15.2029 196.734 16.2909 194.494 16.2909C191.95 16.2909 190.558 14.7869 190.558 12.1149C190.558 9.42686 192.078 7.82686 194.622 7.82686C197.07 7.82686 198.382 9.26686 198.382 11.9389ZM194.558 9.37886C193.63 9.37886 193.086 9.95486 192.926 11.1229H196.142C195.998 9.95486 195.47 9.37886 194.558 9.37886ZM204.404 7.82686C206.244 7.82686 207.268 8.83486 207.268 10.6109V16.1309H205.012V11.0909C205.012 10.0989 204.564 9.60286 203.652 9.60286C202.612 9.60286 201.94 10.2589 201.94 11.3949V16.1309H199.684V8.00286H201.46V8.62686L201.3 9.37886H201.492C201.94 8.48286 202.932 7.82686 204.404 7.82686ZM212.647 16.3069C210.023 16.3069 208.535 14.7549 208.535 12.0669C208.535 9.37886 210.039 7.84286 212.663 7.84286C214.951 7.84286 216.423 9.01086 216.567 11.0109H214.263C214.087 10.0029 213.543 9.49086 212.631 9.49086C211.431 9.49086 210.839 10.3549 210.839 12.0669C210.839 13.7309 211.463 14.6269 212.631 14.6269C213.527 14.6269 214.071 14.1309 214.263 13.1229H216.567C216.423 15.1069 214.967 16.3069 212.647 16.3069ZM221.564 16.2909C218.988 16.2909 217.5 14.7389 217.5 12.0669C217.5 9.37886 218.988 7.82686 221.564 7.82686C224.14 7.82686 225.612 9.37886 225.612 12.0669C225.612 14.7389 224.172 16.2909 221.564 16.2909ZM221.564 14.5949C222.748 14.5949 223.34 13.7469 223.34 12.0669C223.34 10.3709 222.748 9.52286 221.564 9.52286C220.396 9.52286 219.756 10.4189 219.756 12.0669C219.756 13.6829 220.396 14.5949 221.564 14.5949ZM236.14 7.84286C237.804 7.84286 238.764 8.80286 238.764 10.4509V16.1309H236.556V10.8669C236.556 9.98686 236.172 9.55486 235.404 9.55486C234.508 9.55486 233.932 10.1629 233.932 11.2029V16.1309H231.724V10.8669C231.724 9.98686 231.34 9.55486 230.556 9.55486C229.66 9.55486 229.1 10.1629 229.1 11.2029V16.1309H226.892V8.00286H228.572V8.64286L228.412 9.42686H228.604C229.004 8.51486 229.9 7.84286 231.228 7.84286C232.22 7.84286 232.924 8.19486 233.34 8.88286L233.196 9.50686H233.372C233.82 8.53086 234.732 7.84286 236.14 7.84286ZM247.832 11.9389V12.4349H242.328C242.392 13.9069 242.968 14.6429 244.056 14.6429C244.92 14.6429 245.448 14.2589 245.64 13.4749H247.8C247.544 15.2029 246.184 16.2909 243.944 16.2909C241.4 16.2909 240.008 14.7869 240.008 12.1149C240.008 9.42686 241.528 7.82686 244.072 7.82686C246.52 7.82686 247.832 9.26686 247.832 11.9389ZM244.008 9.37886C243.08 9.37886 242.536 9.95486 242.376 11.1229H245.592C245.448 9.95486 244.92 9.37886 244.008 9.37886ZM253.855 7.82686C255.695 7.82686 256.719 8.83486 256.719 10.6109V16.1309H254.463V11.0909C254.463 10.0989 254.015 9.60286 253.103 9.60286C252.063 9.60286 251.391 10.2589 251.391 11.3949V16.1309H249.135V8.00286H250.911V8.62686L250.751 9.37886H250.943C251.391 8.48286 252.383 7.82686 253.855 7.82686ZM263.697 8.11486V4.61086H265.969V16.1309H264.193V15.4749L264.353 14.7229H264.145C263.681 15.6349 262.737 16.2909 261.345 16.2909C259.249 16.2909 257.985 14.7389 257.985 12.0669C257.985 9.39486 259.265 7.82686 261.361 7.82686C262.689 7.82686 263.617 8.35486 264.145 9.41086H264.353L264.193 8.75486L263.697 8.11486ZM262.033 14.5789C263.121 14.5789 263.729 13.6989 263.729 12.0509C263.729 10.3709 263.169 9.53886 262.033 9.53886C260.897 9.53886 260.305 10.4349 260.305 12.0509C260.305 13.6669 260.897 14.5789 262.033 14.5789ZM271.023 7.82686C273.503 7.82686 274.735 8.86686 274.735 10.9469V16.1309H272.975V15.4909L273.151 14.7229H272.927C272.367 15.7629 271.375 16.2909 269.919 16.2909C268.127 16.2909 267.119 15.4269 267.119 14.0349C267.119 12.6109 268.015 11.7949 270.143 11.5389L272.479 11.2669V10.8509C272.479 9.87486 271.983 9.37886 270.975 9.37886C269.999 9.37886 269.503 9.84286 269.487 10.7709H267.279C267.295 8.86686 268.655 7.82686 271.023 7.82686ZM270.527 14.7549C271.663 14.7549 272.479 14.0509 272.479 13.0109V12.5789L270.591 12.7869C269.775 12.8989 269.359 13.2349 269.359 13.7949C269.359 14.4349 269.743 14.7549 270.527 14.7549ZM279.577 16.2909C277.273 16.2909 276.041 15.4429 275.881 13.7309H278.009C278.169 14.4829 278.729 14.8669 279.673 14.8669C280.553 14.8669 281.113 14.5309 281.113 13.9069C281.113 13.4269 280.681 13.1069 279.817 12.9309L278.281 12.6589C276.793 12.3549 275.993 11.5389 275.993 10.4349C275.993 8.85086 277.353 7.82686 279.609 7.82686C281.801 7.82686 283.049 8.73886 283.161 10.3389H281.033C280.921 9.61886 280.409 9.26686 279.465 9.26686C278.617 9.26686 278.105 9.60286 278.105 10.1149C278.105 10.5469 278.537 10.8349 279.401 11.0109L280.889 11.2669C282.537 11.6029 283.369 12.3549 283.369 13.5549C283.369 15.2349 281.881 16.2909 279.577 16.2909ZM292.849 7.84286C295.009 7.84286 296.193 9.37886 296.193 12.0669C296.193 14.7709 294.993 16.3069 292.833 16.3069C291.505 16.3069 290.577 15.7789 290.049 14.7229H289.841L290.001 15.3789L290.497 16.0189V19.0909H288.225V8.00286H290.001V8.65886L289.841 9.41086H290.049C290.513 8.49886 291.457 7.84286 292.849 7.84286ZM292.161 14.5949C293.297 14.5949 293.889 13.6989 293.889 12.0829C293.889 10.4829 293.265 9.55486 292.161 9.55486C291.073 9.55486 290.449 10.4349 290.449 12.0829C290.449 13.7309 291.057 14.5949 292.161 14.5949ZM305.087 11.9389V12.4349H299.583C299.647 13.9069 300.223 14.6429 301.311 14.6429C302.175 14.6429 302.703 14.2589 302.895 13.4749H305.055C304.799 15.2029 303.439 16.2909 301.199 16.2909C298.655 16.2909 297.263 14.7869 297.263 12.1149C297.263 9.42686 298.783 7.82686 301.327 7.82686C303.775 7.82686 305.087 9.26686 305.087 11.9389ZM301.263 9.37886C300.335 9.37886 299.791 9.95486 299.631 11.1229H302.847C302.703 9.95486 302.175 9.37886 301.263 9.37886ZM308.805 16.1309H306.533V4.61086H308.805V16.1309ZM314.241 16.2909C311.665 16.2909 310.177 14.7389 310.177 12.0669C310.177 9.37886 311.665 7.82686 314.241 7.82686C316.817 7.82686 318.289 9.37886 318.289 12.0669C318.289 14.7389 316.849 16.2909 314.241 16.2909ZM314.241 14.5949C315.425 14.5949 316.017 13.7469 316.017 12.0669C316.017 10.3709 315.425 9.52286 314.241 9.52286C313.073 9.52286 312.433 10.4189 312.433 12.0669C312.433 13.6829 313.073 14.5949 314.241 14.5949ZM322.945 16.2909C320.641 16.2909 319.409 15.4429 319.249 13.7309H321.377C321.537 14.4829 322.097 14.8669 323.041 14.8669C323.921 14.8669 324.481 14.5309 324.481 13.9069C324.481 13.4269 324.049 13.1069 323.185 12.9309L321.649 12.6589C320.161 12.3549 319.361 11.5389 319.361 10.4349C319.361 8.85086 320.721 7.82686 322.977 7.82686C325.169 7.82686 326.417 8.73886 326.529 10.3389H324.401C324.289 9.61886 323.777 9.26686 322.833 9.26686C321.985 9.26686 321.473 9.60286 321.473 10.1149C321.473 10.5469 321.905 10.8349 322.769 11.0109L324.257 11.2669C325.905 11.6029 326.737 12.3549 326.737 13.5549C326.737 15.2349 325.249 16.2909 322.945 16.2909ZM27.1011 33.9389V34.4349H21.5971C21.6611 35.9069 22.2371 36.6429 23.3251 36.6429C24.1891 36.6429 24.7171 36.2589 24.9091 35.4749H27.0691C26.8131 37.2029 25.4531 38.2909 23.2131 38.2909C20.6691 38.2909 19.2771 36.7869 19.2771 34.1149C19.2771 31.4269 20.7971 29.8269 23.3411 29.8269C25.7891 29.8269 27.1011 31.2669 27.1011 33.9389ZM23.2771 31.3789C22.3491 31.3789 21.8051 31.9549 21.6451 33.1229H24.8611C24.7171 31.9549 24.1891 31.3789 23.2771 31.3789ZM33.1236 29.8269C34.9636 29.8269 35.9876 30.8349 35.9876 32.6109V38.1309H33.7316V33.0909C33.7316 32.0989 33.2836 31.6029 32.3716 31.6029C31.3316 31.6029 30.6596 32.2589 30.6596 33.3949V38.1309H28.4036V30.0029H30.1796V30.6269L30.0196 31.3789H30.2116C30.6596 30.4829 31.6516 29.8269 33.1236 29.8269ZM41.7979 36.4509C42.0859 36.4509 42.4059 36.4029 42.7739 36.3229V38.0829C42.2139 38.2269 41.6379 38.2909 41.0459 38.2909C39.1739 38.2909 38.2459 37.4109 38.2459 35.6349V34.6749V31.5389H36.9339V30.0029H38.2459V27.8269H40.5179V30.0029H42.7419V31.5389H40.5179V34.5309V35.2509C40.5179 36.0509 40.9499 36.4509 41.7979 36.4509ZM48.3247 29.8269C48.7567 29.8269 49.1247 29.8909 49.4127 30.0189V32.1309C49.0447 32.0189 48.6767 31.9549 48.3407 31.9549C47.0607 31.9549 46.2927 32.8189 46.2927 34.2429V38.1309H44.0367V30.0029H45.8127V30.6109L45.6367 31.6029H45.8447C46.1647 30.5629 47.0447 29.8269 48.3247 29.8269ZM57.8517 33.9389V34.4349H52.3477C52.4117 35.9069 52.9877 36.6429 54.0757 36.6429C54.9397 36.6429 55.4677 36.2589 55.6597 35.4749H57.8197C57.5637 37.2029 56.2037 38.2909 53.9637 38.2909C51.4197 38.2909 50.0277 36.7869 50.0277 34.1149C50.0277 31.4269 51.5477 29.8269 54.0917 29.8269C56.5397 29.8269 57.8517 31.2669 57.8517 33.9389ZM54.0277 31.3789C53.0997 31.3789 52.5557 31.9549 52.3957 33.1229H55.6117C55.4677 31.9549 54.9397 31.3789 54.0277 31.3789ZM65.1062 30.6269V30.0029H66.9942V37.6029C66.9942 39.9229 65.6342 41.2349 62.8822 41.2349C60.4982 41.2349 59.1542 40.1789 59.0102 38.3229H61.2662C61.3782 39.1549 61.9382 39.6669 62.8982 39.6669C64.0022 39.6669 64.5782 39.0269 64.6262 37.7629L65.1062 36.9789L65.2822 36.2909H65.0902C64.6262 37.2029 63.6662 37.8749 62.2582 37.8749C60.1302 37.8749 58.9302 36.3709 58.9302 33.8269C58.9302 31.3309 60.1302 29.8269 62.2582 29.8269C63.6182 29.8269 64.5462 30.3389 65.0742 31.3629H65.2822L65.1062 30.6269ZM64.6582 33.8429C64.6582 32.3069 64.0502 31.4269 62.9622 31.4269C61.8582 31.4269 61.2502 32.3229 61.2502 33.8429C61.2502 35.3789 61.8742 36.2749 62.9622 36.2749C64.0502 36.2749 64.6582 35.4269 64.6582 33.8429ZM72.0626 29.8269C74.5426 29.8269 75.7746 30.8669 75.7746 32.9469V38.1309H74.0146V37.4909L74.1906 36.7229H73.9666C73.4066 37.7629 72.4146 38.2909 70.9586 38.2909C69.1666 38.2909 68.1586 37.4269 68.1586 36.0349C68.1586 34.6109 69.0546 33.7949 71.1826 33.5389L73.5186 33.2669V32.8509C73.5186 31.8749 73.0226 31.3789 72.0146 31.3789C71.0386 31.3789 70.5426 31.8429 70.5266 32.7709H68.3186C68.3346 30.8669 69.6946 29.8269 72.0626 29.8269ZM71.5666 36.7549C72.7026 36.7549 73.5186 36.0509 73.5186 35.0109V34.5789L71.6306 34.7869C70.8146 34.8989 70.3986 35.2349 70.3986 35.7949C70.3986 36.4349 70.7826 36.7549 71.5666 36.7549ZM82.7284 30.1149V26.6109H85.0004V38.1309H83.2244V37.4749L83.3844 36.7229H83.1764C82.7124 37.6349 81.7684 38.2909 80.3764 38.2909C78.2804 38.2909 77.0164 36.7389 77.0164 34.0669C77.0164 31.3949 78.2964 29.8269 80.3924 29.8269C81.7204 29.8269 82.6484 30.3549 83.1764 31.4109H83.3844L83.2244 30.7549L82.7284 30.1149ZM81.0644 36.5789C82.1524 36.5789 82.7604 35.6989 82.7604 34.0509C82.7604 32.3709 82.2004 31.5389 81.0644 31.5389C79.9284 31.5389 79.3364 32.4349 79.3364 34.0509C79.3364 35.6669 79.9284 36.5789 81.0644 36.5789ZM90.2642 38.2909C87.6882 38.2909 86.2002 36.7389 86.2002 34.0669C86.2002 31.3789 87.6882 29.8269 90.2642 29.8269C92.8402 29.8269 94.3122 31.3789 94.3122 34.0669C94.3122 36.7389 92.8722 38.2909 90.2642 38.2909ZM90.2642 36.5949C91.4482 36.5949 92.0402 35.7469 92.0402 34.0669C92.0402 32.3709 91.4482 31.5229 90.2642 31.5229C89.0962 31.5229 88.4562 32.4189 88.4562 34.0669C88.4562 35.6829 89.0962 36.5949 90.2642 36.5949ZM99.8803 29.8269C100.312 29.8269 100.68 29.8909 100.968 30.0189V32.1309C100.6 32.0189 100.232 31.9549 99.8963 31.9549C98.6163 31.9549 97.8483 32.8189 97.8483 34.2429V38.1309H95.5923V30.0029H97.3683V30.6109L97.1923 31.6029H97.4003C97.7203 30.5629 98.6003 29.8269 99.8803 29.8269ZM109.407 33.9389V34.4349H103.903C103.967 35.9069 104.543 36.6429 105.631 36.6429C106.495 36.6429 107.023 36.2589 107.215 35.4749H109.375C109.119 37.2029 107.759 38.2909 105.519 38.2909C102.975 38.2909 101.583 36.7869 101.583 34.1149C101.583 31.4269 103.103 29.8269 105.647 29.8269C108.095 29.8269 109.407 31.2669 109.407 33.9389ZM105.583 31.3789C104.655 31.3789 104.111 31.9549 103.951 33.1229H107.167C107.023 31.9549 106.495 31.3789 105.583 31.3789ZM114.086 38.2909C111.782 38.2909 110.55 37.4429 110.39 35.7309H112.518C112.678 36.4829 113.238 36.8669 114.182 36.8669C115.062 36.8669 115.622 36.5309 115.622 35.9069C115.622 35.4269 115.19 35.1069 114.326 34.9309L112.79 34.6589C111.302 34.3549 110.502 33.5389 110.502 32.4349C110.502 30.8509 111.862 29.8269 114.118 29.8269C116.31 29.8269 117.558 30.7389 117.67 32.3389H115.542C115.43 31.6189 114.918 31.2669 113.974 31.2669C113.126 31.2669 112.614 31.6029 112.614 32.1149C112.614 32.5469 113.046 32.8349 113.91 33.0109L115.398 33.2669C117.046 33.6029 117.878 34.3549 117.878 35.5549C117.878 37.2349 116.39 38.2909 114.086 38.2909ZM130.334 33.9389V34.4349H124.83C124.894 35.9069 125.47 36.6429 126.558 36.6429C127.422 36.6429 127.95 36.2589 128.142 35.4749H130.302C130.046 37.2029 128.686 38.2909 126.446 38.2909C123.902 38.2909 122.51 36.7869 122.51 34.1149C122.51 31.4269 124.03 29.8269 126.574 29.8269C129.022 29.8269 130.334 31.2669 130.334 33.9389ZM126.51 31.3789C125.582 31.3789 125.038 31.9549 124.878 33.1229H128.094C127.95 31.9549 127.422 31.3789 126.51 31.3789ZM138.873 29.8269C141.353 29.8269 142.585 30.8669 142.585 32.9469V38.1309H140.825V37.4909L141.001 36.7229H140.777C140.217 37.7629 139.225 38.2909 137.769 38.2909C135.977 38.2909 134.969 37.4269 134.969 36.0349C134.969 34.6109 135.865 33.7949 137.993 33.5389L140.329 33.2669V32.8509C140.329 31.8749 139.833 31.3789 138.825 31.3789C137.849 31.3789 137.353 31.8429 137.337 32.7709H135.129C135.145 30.8669 136.505 29.8269 138.873 29.8269ZM138.377 36.7549C139.513 36.7549 140.329 36.0509 140.329 35.0109V34.5789L138.441 34.7869C137.625 34.8989 137.209 35.2349 137.209 35.7949C137.209 36.4349 137.593 36.7549 138.377 36.7549ZM147.938 38.3069C145.314 38.3069 143.826 36.7549 143.826 34.0669C143.826 31.3789 145.33 29.8429 147.954 29.8429C150.242 29.8429 151.714 31.0109 151.858 33.0109H149.554C149.378 32.0029 148.834 31.4909 147.922 31.4909C146.722 31.4909 146.13 32.3549 146.13 34.0669C146.13 35.7309 146.754 36.6269 147.922 36.6269C148.818 36.6269 149.362 36.1309 149.554 35.1229H151.858C151.714 37.1069 150.258 38.3069 147.938 38.3069ZM156.855 38.2909C154.279 38.2909 152.791 36.7389 152.791 34.0669C152.791 31.3789 154.279 29.8269 156.855 29.8269C159.431 29.8269 160.903 31.3789 160.903 34.0669C160.903 36.7389 159.463 38.2909 156.855 38.2909ZM156.855 36.5949C158.039 36.5949 158.631 35.7469 158.631 34.0669C158.631 32.3709 158.039 31.5229 156.855 31.5229C155.687 31.5229 155.047 32.4189 155.047 34.0669C155.047 35.6829 155.687 36.5949 156.855 36.5949ZM171.432 29.8429C173.096 29.8429 174.056 30.8029 174.056 32.4509V38.1309H171.848V32.8669C171.848 31.9869 171.464 31.5549 170.696 31.5549C169.8 31.5549 169.224 32.1629 169.224 33.2029V38.1309H167.016V32.8669C167.016 31.9869 166.632 31.5549 165.848 31.5549C164.952 31.5549 164.392 32.1629 164.392 33.2029V38.1309H162.184V30.0029H163.864V30.6429L163.704 31.4269H163.896C164.296 30.5149 165.192 29.8429 166.52 29.8429C167.512 29.8429 168.216 30.1949 168.632 30.8829L168.488 31.5069H168.664C169.112 30.5309 170.024 29.8429 171.432 29.8429ZM180.148 29.8429C182.308 29.8429 183.492 31.3789 183.492 34.0669C183.492 36.7709 182.292 38.3069 180.132 38.3069C178.804 38.3069 177.876 37.7789 177.348 36.7229H177.14L177.3 37.3789L177.796 38.0189V41.0909H175.524V30.0029H177.3V30.6589L177.14 31.4109H177.348C177.812 30.4989 178.756 29.8429 180.148 29.8429ZM179.46 36.5949C180.596 36.5949 181.188 35.6989 181.188 34.0829C181.188 32.4829 180.564 31.5549 179.46 31.5549C178.372 31.5549 177.748 32.4349 177.748 34.0829C177.748 35.7309 178.356 36.5949 179.46 36.5949ZM188.369 29.8269C190.849 29.8269 192.081 30.8669 192.081 32.9469V38.1309H190.321V37.4909L190.497 36.7229H190.273C189.713 37.7629 188.721 38.2909 187.265 38.2909C185.473 38.2909 184.465 37.4269 184.465 36.0349C184.465 34.6109 185.361 33.7949 187.489 33.5389L189.825 33.2669V32.8509C189.825 31.8749 189.329 31.3789 188.321 31.3789C187.345 31.3789 186.849 31.8429 186.833 32.7709H184.625C184.641 30.8669 186.001 29.8269 188.369 29.8269ZM187.873 36.7549C189.009 36.7549 189.825 36.0509 189.825 35.0109V34.5789L187.937 34.7869C187.121 34.8989 186.705 35.2349 186.705 35.7949C186.705 36.4349 187.089 36.7549 187.873 36.7549ZM198.267 29.8269C200.107 29.8269 201.131 30.8349 201.131 32.6109V38.1309H198.875V33.0909C198.875 32.0989 198.427 31.6029 197.515 31.6029C196.475 31.6029 195.803 32.2589 195.803 33.3949V38.1309H193.547V30.0029H195.323V30.6269L195.163 31.3789H195.355C195.803 30.4829 196.795 29.8269 198.267 29.8269ZM207.358 29.8269C209.214 29.8269 210.238 30.8349 210.238 32.6109V38.1309H207.966V33.0909C207.966 32.0989 207.518 31.6029 206.606 31.6029C205.566 31.6029 204.894 32.2749 204.894 33.3789V38.1309H202.622V26.6109H204.894V30.0029L204.382 30.6749L204.222 31.3629H204.43C204.99 30.3389 205.966 29.8269 207.358 29.8269ZM219.312 33.9389V34.4349H213.808C213.872 35.9069 214.448 36.6429 215.536 36.6429C216.4 36.6429 216.928 36.2589 217.12 35.4749H219.28C219.024 37.2029 217.664 38.2909 215.424 38.2909C212.88 38.2909 211.488 36.7869 211.488 34.1149C211.488 31.4269 213.008 29.8269 215.552 29.8269C218 29.8269 219.312 31.2669 219.312 33.9389ZM215.488 31.3789C214.56 31.3789 214.016 31.9549 213.856 33.1229H217.072C216.928 31.9549 216.4 31.3789 215.488 31.3789ZM227.851 29.8269C230.331 29.8269 231.563 30.8669 231.563 32.9469V38.1309H229.803V37.4909L229.979 36.7229H229.755C229.195 37.7629 228.203 38.2909 226.747 38.2909C224.955 38.2909 223.947 37.4269 223.947 36.0349C223.947 34.6109 224.843 33.7949 226.971 33.5389L229.307 33.2669V32.8509C229.307 31.8749 228.811 31.3789 227.803 31.3789C226.827 31.3789 226.331 31.8429 226.315 32.7709H224.107C224.123 30.8669 225.483 29.8269 227.851 29.8269ZM227.355 36.7549C228.491 36.7549 229.307 36.0509 229.307 35.0109V34.5789L227.419 34.7869C226.603 34.8989 226.187 35.2349 226.187 35.7949C226.187 36.4349 226.571 36.7549 227.355 36.7549ZM236.405 38.2909C234.101 38.2909 232.869 37.4429 232.709 35.7309H234.837C234.997 36.4829 235.557 36.8669 236.501 36.8669C237.381 36.8669 237.941 36.5309 237.941 35.9069C237.941 35.4269 237.509 35.1069 236.645 34.9309L235.109 34.6589C233.621 34.3549 232.821 33.5389 232.821 32.4349C232.821 30.8509 234.181 29.8269 236.437 29.8269C238.629 29.8269 239.877 30.7389 239.989 32.3389H237.861C237.749 31.6189 237.237 31.2669 236.293 31.2669C235.445 31.2669 234.933 31.6029 234.933 32.1149C234.933 32.5469 235.365 32.8349 236.229 33.0109L237.717 33.2669C239.365 33.6029 240.197 34.3549 240.197 35.5549C240.197 37.2349 238.709 38.2909 236.405 38.2909ZM252.652 33.9389V34.4349H247.148C247.212 35.9069 247.788 36.6429 248.876 36.6429C249.74 36.6429 250.268 36.2589 250.46 35.4749H252.62C252.364 37.2029 251.004 38.2909 248.764 38.2909C246.22 38.2909 244.828 36.7869 244.828 34.1149C244.828 31.4269 246.348 29.8269 248.892 29.8269C251.34 29.8269 252.652 31.2669 252.652 33.9389ZM248.828 31.3789C247.9 31.3789 247.356 31.9549 247.196 33.1229H250.412C250.268 31.9549 249.74 31.3789 248.828 31.3789ZM258.675 29.8269C260.515 29.8269 261.539 30.8349 261.539 32.6109V38.1309H259.283V33.0909C259.283 32.0989 258.835 31.6029 257.923 31.6029C256.883 31.6029 256.211 32.2589 256.211 33.3949V38.1309H253.955V30.0029H255.731V30.6269L255.571 31.3789H255.763C256.211 30.4829 257.203 29.8269 258.675 29.8269ZM267.349 36.4509C267.637 36.4509 267.957 36.4029 268.325 36.3229V38.0829C267.765 38.2269 267.189 38.2909 266.597 38.2909C264.725 38.2909 263.797 37.4109 263.797 35.6349V34.6749V31.5389H262.485V30.0029H263.797V27.8269H266.069V30.0029H268.293V31.5389H266.069V34.5309V35.2509C266.069 36.0509 266.501 36.4509 267.349 36.4509ZM273.876 29.8269C274.308 29.8269 274.676 29.8909 274.964 30.0189V32.1309C274.596 32.0189 274.228 31.9549 273.892 31.9549C272.612 31.9549 271.844 32.8189 271.844 34.2429V38.1309H269.588V30.0029H271.364V30.6109L271.188 31.6029H271.396C271.716 30.5629 272.596 29.8269 273.876 29.8269ZM283.403 33.9389V34.4349H277.899C277.963 35.9069 278.539 36.6429 279.627 36.6429C280.491 36.6429 281.019 36.2589 281.211 35.4749H283.371C283.115 37.2029 281.755 38.2909 279.515 38.2909C276.971 38.2909 275.579 36.7869 275.579 34.1149C275.579 31.4269 277.099 29.8269 279.643 29.8269C282.091 29.8269 283.403 31.2669 283.403 33.9389ZM279.579 31.3789C278.651 31.3789 278.107 31.9549 277.947 33.1229H281.163C281.019 31.9549 280.491 31.3789 279.579 31.3789ZM290.657 30.6269V30.0029H292.545V37.6029C292.545 39.9229 291.185 41.2349 288.433 41.2349C286.049 41.2349 284.705 40.1789 284.561 38.3229H286.817C286.929 39.1549 287.489 39.6669 288.449 39.6669C289.553 39.6669 290.129 39.0269 290.177 37.7629L290.657 36.9789L290.833 36.2909H290.641C290.177 37.2029 289.217 37.8749 287.809 37.8749C285.681 37.8749 284.481 36.3709 284.481 33.8269C284.481 31.3309 285.681 29.8269 287.809 29.8269C289.169 29.8269 290.097 30.3389 290.625 31.3629H290.833L290.657 30.6269ZM290.209 33.8429C290.209 32.3069 289.601 31.4269 288.513 31.4269C287.409 31.4269 286.801 32.3229 286.801 33.8429C286.801 35.3789 287.425 36.2749 288.513 36.2749C289.601 36.2749 290.209 35.4269 290.209 33.8429ZM297.614 29.8269C300.094 29.8269 301.326 30.8669 301.326 32.9469V38.1309H299.566V37.4909L299.742 36.7229H299.518C298.958 37.7629 297.966 38.2909 296.51 38.2909C294.718 38.2909 293.71 37.4269 293.71 36.0349C293.71 34.6109 294.606 33.7949 296.734 33.5389L299.07 33.2669V32.8509C299.07 31.8749 298.574 31.3789 297.566 31.3789C296.59 31.3789 296.094 31.8429 296.078 32.7709H293.87C293.886 30.8669 295.246 29.8269 297.614 29.8269ZM297.118 36.7549C298.254 36.7549 299.07 36.0509 299.07 35.0109V34.5789L297.182 34.7869C296.366 34.8989 295.95 35.2349 295.95 35.7949C295.95 36.4349 296.334 36.7549 297.118 36.7549ZM306.168 38.2909C303.864 38.2909 302.632 37.4429 302.472 35.7309H304.6C304.76 36.4829 305.32 36.8669 306.264 36.8669C307.144 36.8669 307.704 36.5309 307.704 35.9069C307.704 35.4269 307.272 35.1069 306.408 34.9309L304.872 34.6589C303.384 34.3549 302.584 33.5389 302.584 32.4349C302.584 30.8509 303.944 29.8269 306.2 29.8269C308.392 29.8269 309.64 30.7389 309.752 32.3389H307.624C307.512 31.6189 307 31.2669 306.056 31.2669C305.208 31.2669 304.696 31.6029 304.696 32.1149C304.696 32.5469 305.128 32.8349 305.992 33.0109L307.48 33.2669C309.128 33.6029 309.96 34.3549 309.96 35.5549C309.96 37.2349 308.472 38.2909 306.168 38.2909ZM117.171 50.1949C116.451 50.1949 116.083 50.5469 116.083 51.2669V52.0029H117.939V53.5389H116.083V60.1309H113.795V53.5389H112.643V52.0029H113.795V51.0429C113.795 49.3149 114.627 48.4509 116.531 48.4349C117.155 48.4509 117.651 48.5149 118.035 48.6269V50.3389C117.747 50.2429 117.459 50.1949 117.171 50.1949ZM126.111 55.9389V56.4349H120.607C120.671 57.9069 121.247 58.6429 122.335 58.6429C123.199 58.6429 123.727 58.2589 123.919 57.4749H126.079C125.823 59.2029 124.463 60.2909 122.223 60.2909C119.679 60.2909 118.287 58.7869 118.287 56.1149C118.287 53.4269 119.807 51.8269 122.351 51.8269C124.799 51.8269 126.111 53.2669 126.111 55.9389ZM122.287 53.3789C121.359 53.3789 120.815 53.9549 120.655 55.1229H123.871C123.727 53.9549 123.199 53.3789 122.287 53.3789ZM129.829 50.7869H127.445V48.6109H129.829V50.7869ZM129.781 60.1309H127.509V52.0029H129.781V60.1309ZM135.683 58.4509C135.971 58.4509 136.291 58.4029 136.659 58.3229V60.0829C136.099 60.2269 135.523 60.2909 134.931 60.2909C133.059 60.2909 132.131 59.4109 132.131 57.6349V56.6749V53.5389H130.819V52.0029H132.131V49.8269H134.403V52.0029H136.627V53.5389H134.403V56.5309V57.2509C134.403 58.0509 134.835 58.4509 135.683 58.4509ZM141.552 51.8269C144.032 51.8269 145.264 52.8669 145.264 54.9469V60.1309H143.504V59.4909L143.68 58.7229H143.456C142.896 59.7629 141.904 60.2909 140.448 60.2909C138.656 60.2909 137.648 59.4269 137.648 58.0349C137.648 56.6109 138.544 55.7949 140.672 55.5389L143.008 55.2669V54.8509C143.008 53.8749 142.512 53.3789 141.504 53.3789C140.528 53.3789 140.032 53.8429 140.016 54.7709H137.808C137.824 52.8669 139.184 51.8269 141.552 51.8269ZM141.056 58.7549C142.192 58.7549 143.008 58.0509 143.008 57.0109V56.5789L141.12 56.7869C140.304 56.8989 139.888 57.2349 139.888 57.7949C139.888 58.4349 140.272 58.7549 141.056 58.7549ZM150.106 60.2909C147.802 60.2909 146.57 59.4429 146.41 57.7309H148.538C148.698 58.4829 149.258 58.8669 150.202 58.8669C151.082 58.8669 151.642 58.5309 151.642 57.9069C151.642 57.4269 151.21 57.1069 150.346 56.9309L148.81 56.6589C147.322 56.3549 146.522 55.5389 146.522 54.4349C146.522 52.8509 147.882 51.8269 150.138 51.8269C152.33 51.8269 153.578 52.7389 153.69 54.3389H151.562C151.45 53.6189 150.938 53.2669 149.994 53.2669C149.146 53.2669 148.634 53.6029 148.634 54.1149C148.634 54.5469 149.066 54.8349 149.93 55.0109L151.418 55.2669C153.066 55.6029 153.898 56.3549 153.898 57.5549C153.898 59.2349 152.41 60.2909 150.106 60.2909ZM163.378 51.8429C165.538 51.8429 166.722 53.3789 166.722 56.0669C166.722 58.7709 165.522 60.3069 163.362 60.3069C162.034 60.3069 161.106 59.7789 160.578 58.7229H160.37L160.53 59.3789L161.026 60.0189V63.0909H158.754V52.0029H160.53V52.6589L160.37 53.4109H160.578C161.042 52.4989 161.986 51.8429 163.378 51.8429ZM162.69 58.5949C163.826 58.5949 164.418 57.6989 164.418 56.0829C164.418 54.4829 163.794 53.5549 162.69 53.5549C161.602 53.5549 160.978 54.4349 160.978 56.0829C160.978 57.7309 161.586 58.5949 162.69 58.5949ZM171.856 60.2909C169.28 60.2909 167.792 58.7389 167.792 56.0669C167.792 53.3789 169.28 51.8269 171.856 51.8269C174.432 51.8269 175.904 53.3789 175.904 56.0669C175.904 58.7389 174.464 60.2909 171.856 60.2909ZM171.856 58.5949C173.04 58.5949 173.632 57.7469 173.632 56.0669C173.632 54.3709 173.04 53.5229 171.856 53.5229C170.688 53.5229 170.048 54.4189 170.048 56.0669C170.048 57.6829 170.688 58.5949 171.856 58.5949ZM181.472 51.8269C181.904 51.8269 182.272 51.8909 182.56 52.0189V54.1309C182.192 54.0189 181.824 53.9549 181.488 53.9549C180.208 53.9549 179.44 54.8189 179.44 56.2429V60.1309H177.184V52.0029H178.96V52.6109L178.784 53.6029H178.992C179.312 52.5629 180.192 51.8269 181.472 51.8269ZM194.776 55.9389V56.4349H189.272C189.336 57.9069 189.912 58.6429 191 58.6429C191.864 58.6429 192.392 58.2589 192.584 57.4749H194.744C194.488 59.2029 193.128 60.2909 190.888 60.2909C188.344 60.2909 186.952 58.7869 186.952 56.1149C186.952 53.4269 188.472 51.8269 191.016 51.8269C193.464 51.8269 194.776 53.2669 194.776 55.9389ZM190.952 53.3789C190.024 53.3789 189.48 53.9549 189.32 55.1229H192.536C192.392 53.9549 191.864 53.3789 190.952 53.3789ZM198.495 60.1309H196.223V48.6109H198.495V60.1309ZM207.691 55.9389V56.4349H202.187C202.251 57.9069 202.827 58.6429 203.915 58.6429C204.779 58.6429 205.307 58.2589 205.499 57.4749H207.659C207.403 59.2029 206.043 60.2909 203.803 60.2909C201.259 60.2909 199.867 58.7869 199.867 56.1149C199.867 53.4269 201.387 51.8269 203.931 51.8269C206.379 51.8269 207.691 53.2669 207.691 55.9389ZM203.867 53.3789C202.939 53.3789 202.395 53.9549 202.235 55.1229H205.451C205.307 53.9549 204.779 53.3789 203.867 53.3789ZM212.369 60.2909C210.065 60.2909 208.833 59.4429 208.673 57.7309H210.801C210.961 58.4829 211.521 58.8669 212.465 58.8669C213.345 58.8669 213.905 58.5309 213.905 57.9069C213.905 57.4269 213.473 57.1069 212.609 56.9309L211.073 56.6589C209.585 56.3549 208.785 55.5389 208.785 54.4349C208.785 52.8509 210.145 51.8269 212.401 51.8269C214.593 51.8269 215.841 52.7389 215.953 54.3389H213.825C213.713 53.6189 213.201 53.2669 212.257 53.2669C211.409 53.2669 210.897 53.6029 210.897 54.1149C210.897 54.5469 211.329 54.8349 212.193 55.0109L213.681 55.2669C215.329 55.6029 216.161 56.3549 216.161 57.5549C216.161 59.2349 214.673 60.2909 212.369 60.2909Z" fill="black"/>
<path d="M6.96409 74.8509H8.82409L11.5721 82.9389V83.1309H10.3121L9.74809 81.4509H6.01609L5.46409 83.1309H4.21609V82.9389L6.96409 74.8509ZM7.69609 76.3989L6.35209 80.4429H9.41209L8.05609 76.3989L7.97209 75.8589H7.78009L7.69609 76.3989ZM15.6531 76.9629C17.2731 76.9629 18.1611 78.1629 18.1611 80.0949C18.1611 82.0509 17.2491 83.2509 15.6531 83.2509C14.6091 83.2509 13.8771 82.7469 13.5291 82.0269H13.4211L13.4931 82.4469L13.7451 82.8549V85.3029H12.4971V77.0709H13.4931V77.6229L13.4211 78.1749H13.5411C13.8771 77.4669 14.6091 76.9629 15.6531 76.9629ZM15.3051 82.3029C16.3491 82.3029 16.9011 81.4869 16.9011 80.1069C16.9011 78.7269 16.3251 77.9109 15.3051 77.9109C14.2971 77.9109 13.7211 78.7149 13.7211 80.1069C13.7211 81.5349 14.2971 82.3029 15.3051 82.3029ZM22.1215 76.3269H21.2335V76.1709L22.6615 74.4909H23.8375V74.6469L22.1215 76.3269ZM22.0855 76.9509C23.9455 76.9509 24.9775 78.1269 24.9775 80.0949C24.9775 82.0629 23.9455 83.2389 22.0855 83.2389C20.2255 83.2389 19.1935 82.0629 19.1935 80.0949C19.1935 78.1269 20.2495 76.9509 22.0855 76.9509ZM22.0975 82.3029C23.1655 82.3029 23.7415 81.4869 23.7415 80.0949C23.7415 78.6909 23.1655 77.8869 22.0975 77.8869C21.0055 77.8869 20.4175 78.7029 20.4175 80.0949C20.4175 81.4869 21.0055 82.3029 22.0975 82.3029ZM28.5673 83.2389C26.9353 83.2389 26.0473 82.6149 25.9033 81.3669H27.0913C27.2233 82.0749 27.7273 82.4229 28.6033 82.4229C29.4313 82.4229 29.9833 82.0749 29.9833 81.4869C29.9833 81.0189 29.6233 80.7189 28.8913 80.5749L27.6553 80.3589C26.5873 80.1549 26.0113 79.5789 26.0113 78.7749C26.0113 77.6709 26.9713 76.9509 28.5553 76.9509C30.0553 76.9509 30.9793 77.5869 31.0873 78.7749H29.8993C29.8153 78.1029 29.3353 77.7669 28.4833 77.7669C27.6673 77.7669 27.1753 78.1149 27.1753 78.6069C27.1753 79.0149 27.5353 79.2909 28.2433 79.4349L29.4433 79.6509C30.6313 79.8789 31.2193 80.4429 31.2193 81.3189C31.2193 82.4829 30.1873 83.2389 28.5673 83.2389ZM37.8505 76.9509C39.7105 76.9509 40.7425 78.1269 40.7425 80.0949C40.7425 82.0629 39.7105 83.2389 37.8505 83.2389C35.9905 83.2389 34.9585 82.0629 34.9585 80.0949C34.9585 78.1269 36.0145 76.9509 37.8505 76.9509ZM37.8625 82.3029C38.9305 82.3029 39.5065 81.4869 39.5065 80.0949C39.5065 78.6909 38.9305 77.8869 37.8625 77.8869C36.7705 77.8869 36.1825 78.7029 36.1825 80.0949C36.1825 81.4869 36.7705 82.3029 37.8625 82.3029ZM44.3323 83.2389C42.7003 83.2389 41.8123 82.6149 41.6683 81.3669H42.8563C42.9883 82.0749 43.4923 82.4229 44.3683 82.4229C45.1963 82.4229 45.7483 82.0749 45.7483 81.4869C45.7483 81.0189 45.3883 80.7189 44.6563 80.5749L43.4203 80.3589C42.3523 80.1549 41.7763 79.5789 41.7763 78.7749C41.7763 77.6709 42.7363 76.9509 44.3203 76.9509C45.8203 76.9509 46.7443 77.5869 46.8523 78.7749H45.6643C45.5803 78.1029 45.1003 77.7669 44.2483 77.7669C43.4323 77.7669 42.9403 78.1149 42.9403 78.6069C42.9403 79.0149 43.3003 79.2909 44.0083 79.4349L45.2083 79.6509C46.3963 79.8789 46.9843 80.4429 46.9843 81.3189C46.9843 82.4829 45.9523 83.2389 44.3323 83.2389ZM56.3035 80.0109V80.2749H51.9715C52.0195 81.6309 52.5715 82.3149 53.6155 82.3149C54.4195 82.3149 54.9115 81.9429 55.0795 81.2109H56.2675C56.0755 82.4709 55.1035 83.2389 53.5555 83.2389C51.7195 83.2389 50.7115 82.0869 50.7115 80.1189C50.7115 78.1389 51.7795 76.9509 53.5915 76.9509C55.3555 76.9509 56.3035 78.0549 56.3035 80.0109ZM53.5555 77.8269C52.6435 77.8269 52.1275 78.3909 52.0075 79.5189H55.0795C54.9835 78.3909 54.4795 77.8269 53.5555 77.8269ZM60.6906 76.9509C62.0466 76.9509 62.8266 77.7069 62.8266 79.0869V83.1309H61.6026V79.3269C61.6026 78.4029 61.1706 77.9349 60.3066 77.9349C59.3346 77.9349 58.7106 78.5469 58.7106 79.6029V83.1309H57.4746V77.0709H58.4706V77.5869L58.3986 78.1389H58.4946C58.8306 77.4549 59.5746 76.9509 60.6906 76.9509ZM67.1024 82.2309C67.3424 82.2309 67.6184 82.1949 67.9184 82.1109V83.0829C67.5824 83.1909 67.1864 83.2389 66.7184 83.2389C65.4584 83.2389 64.8224 82.6269 64.8224 81.3909V80.7909V77.9349H63.7544V77.0709H64.8224V75.4269H66.0584V77.0709H67.8824V77.9349H66.0584V80.7189V81.1989C66.0584 81.8829 66.4064 82.2309 67.1024 82.2309ZM71.986 76.9509C72.31 76.9509 72.586 76.9989 72.814 77.0949V78.2469C72.514 78.1629 72.238 78.1149 71.974 78.1149C70.93 78.1149 70.33 78.8109 70.33 80.0109V83.1309H69.094V77.0709H70.102V77.5629L70.006 78.2229H70.114C70.39 77.4549 71.026 76.9509 71.986 76.9509ZM78.968 80.0109V80.2749H74.636C74.684 81.6309 75.236 82.3149 76.28 82.3149C77.084 82.3149 77.576 81.9429 77.744 81.2109H78.932C78.74 82.4709 77.768 83.2389 76.22 83.2389C74.384 83.2389 73.376 82.0869 73.376 80.1189C73.376 78.1389 74.444 76.9509 76.256 76.9509C78.02 76.9509 78.968 78.0549 78.968 80.0109ZM76.22 77.8269C75.308 77.8269 74.792 78.3909 74.672 79.5189H77.744C77.648 78.3909 77.144 77.8269 76.22 77.8269ZM84.6152 77.5989V77.0709H85.6712V82.7949C85.6712 84.4629 84.6992 85.4109 82.7672 85.4109C81.0872 85.4109 80.1272 84.6549 80.0192 83.3109H81.2552C81.3392 84.0909 81.8792 84.5349 82.7792 84.5349C83.8232 84.5349 84.3512 83.9829 84.3872 82.8789L84.6152 82.3029L84.6992 81.8229H84.5912C84.2432 82.5429 83.4992 83.0349 82.4552 83.0349C80.8712 83.0349 79.9712 81.8589 79.9712 79.9869C79.9712 78.1269 80.8712 76.9509 82.4552 76.9509C83.4992 76.9509 84.2432 77.4309 84.5792 78.1389H84.6992L84.6152 77.5989ZM82.8272 82.1469C83.8232 82.1469 84.3992 81.3669 84.3992 79.9869C84.3992 78.6309 83.8232 77.8389 82.8272 77.8389C81.7832 77.8389 81.2312 78.6549 81.2312 79.9869C81.2312 81.3429 81.8072 82.1469 82.8272 82.1469ZM89.5467 76.9509C91.2747 76.9509 92.1387 77.7069 92.1387 79.2069V83.1309H91.1427V82.5789L91.2387 82.0269H91.1067C90.6987 82.8309 89.9427 83.2389 88.8267 83.2389C87.5307 83.2389 86.7867 82.6149 86.7867 81.5949C86.7867 80.5989 87.4227 79.9989 88.9707 79.8069L90.9027 79.5789V79.1589C90.9027 78.2709 90.4347 77.8269 89.4987 77.8269C88.5987 77.8269 88.1427 78.2349 88.1187 79.0629H86.9067C86.9187 77.6829 87.9027 76.9509 89.5467 76.9509ZM89.1387 82.3749C90.1947 82.3749 90.9027 81.7269 90.9027 80.7309V80.3229L89.1867 80.5269C88.4067 80.6349 88.0107 80.9469 88.0107 81.4629C88.0107 82.0509 88.4307 82.3749 89.1387 82.3749ZM97.7409 77.3469V74.4909H98.9769V83.1309H97.9809V82.5789L98.0649 82.0269H97.9449C97.5969 82.7469 96.8649 83.2389 95.8209 83.2389C94.2489 83.2389 93.3249 82.0269 93.3249 80.1069C93.3249 78.1749 94.2609 76.9509 95.8329 76.9509C96.8769 76.9509 97.6089 77.4549 97.9449 78.1749H98.0649L97.9809 77.7549L97.7409 77.3469ZM96.1809 82.2909C97.1889 82.2909 97.7649 81.4869 97.7649 80.0949C97.7649 78.6669 97.1889 77.8989 96.1809 77.8989C95.1369 77.8989 94.5849 78.7149 94.5849 80.0949C94.5849 81.4749 95.1609 82.2909 96.1809 82.2909ZM102.999 76.9509C104.859 76.9509 105.891 78.1269 105.891 80.0949C105.891 82.0629 104.859 83.2389 102.999 83.2389C101.139 83.2389 100.107 82.0629 100.107 80.0949C100.107 78.1269 101.163 76.9509 102.999 76.9509ZM103.011 82.3029C104.079 82.3029 104.655 81.4869 104.655 80.0949C104.655 78.6909 104.079 77.8869 103.011 77.8869C101.919 77.8869 101.331 78.7029 101.331 80.0949C101.331 81.4869 101.919 82.3029 103.011 82.3029ZM109.973 76.9509C110.297 76.9509 110.573 76.9989 110.801 77.0949V78.2469C110.501 78.1629 110.225 78.1149 109.961 78.1149C108.917 78.1149 108.317 78.8109 108.317 80.0109V83.1309H107.081V77.0709H108.089V77.5629L107.993 78.2229H108.101C108.377 77.4549 109.013 76.9509 109.973 76.9509ZM116.955 80.0109V80.2749H112.623C112.671 81.6309 113.223 82.3149 114.267 82.3149C115.071 82.3149 115.563 81.9429 115.731 81.2109H116.919C116.727 82.4709 115.755 83.2389 114.207 83.2389C112.371 83.2389 111.363 82.0869 111.363 80.1189C111.363 78.1389 112.431 76.9509 114.243 76.9509C116.007 76.9509 116.955 78.0549 116.955 80.0109ZM114.207 77.8269C113.295 77.8269 112.779 78.3909 112.659 79.5189H115.731C115.635 78.3909 115.131 77.8269 114.207 77.8269ZM120.526 83.2389C118.894 83.2389 118.006 82.6149 117.862 81.3669H119.05C119.182 82.0749 119.686 82.4229 120.562 82.4229C121.39 82.4229 121.942 82.0749 121.942 81.4869C121.942 81.0189 121.582 80.7189 120.85 80.5749L119.614 80.3589C118.546 80.1549 117.97 79.5789 117.97 78.7749C117.97 77.6709 118.93 76.9509 120.514 76.9509C122.014 76.9509 122.938 77.5869 123.046 78.7749H121.858C121.774 78.1029 121.294 77.7669 120.442 77.7669C119.626 77.7669 119.134 78.1149 119.134 78.6069C119.134 79.0149 119.494 79.2909 120.202 79.4349L121.402 79.6509C122.59 79.8789 123.178 80.4429 123.178 81.3189C123.178 82.4829 122.146 83.2389 120.526 83.2389ZM129.593 76.9509C131.321 76.9509 132.185 77.7069 132.185 79.2069V83.1309H131.189V82.5789L131.285 82.0269H131.153C130.745 82.8309 129.989 83.2389 128.873 83.2389C127.577 83.2389 126.833 82.6149 126.833 81.5949C126.833 80.5989 127.469 79.9989 129.017 79.8069L130.949 79.5789V79.1589C130.949 78.2709 130.481 77.8269 129.545 77.8269C128.645 77.8269 128.189 78.2349 128.165 79.0629H126.953C126.965 77.6829 127.949 76.9509 129.593 76.9509ZM129.185 82.3749C130.241 82.3749 130.949 81.7269 130.949 80.7309V80.3229L129.233 80.5269C128.453 80.6349 128.057 80.9469 128.057 81.4629C128.057 82.0509 128.477 82.3749 129.185 82.3749ZM137.56 80.6109V77.0709H138.796V83.1309H137.8V82.6029L137.884 82.0629H137.776C137.44 82.7469 136.708 83.2389 135.64 83.2389C134.296 83.2389 133.54 82.4949 133.54 81.1149V77.0709H134.776V80.8869C134.776 81.8109 135.196 82.2669 136.024 82.2669C136.948 82.2669 137.56 81.6549 137.56 80.6109ZM143.05 82.2309C143.29 82.2309 143.566 82.1949 143.866 82.1109V83.0829C143.53 83.1909 143.134 83.2389 142.666 83.2389C141.406 83.2389 140.77 82.6269 140.77 81.3909V80.7909V77.9349H139.702V77.0709H140.77V75.4269H142.006V77.0709H143.83V77.9349H142.006V80.7189V81.1989C142.006 81.8829 142.354 82.2309 143.05 82.2309ZM150.29 80.0109V80.2749H145.958C146.006 81.6309 146.558 82.3149 147.602 82.3149C148.406 82.3149 148.898 81.9429 149.066 81.2109H150.254C150.062 82.4709 149.09 83.2389 147.542 83.2389C145.706 83.2389 144.698 82.0869 144.698 80.1189C144.698 78.1389 145.766 76.9509 147.578 76.9509C149.342 76.9509 150.29 78.0549 150.29 80.0109ZM147.542 77.8269C146.63 77.8269 146.114 78.3909 145.994 79.5189H149.066C148.97 78.3909 148.466 77.8269 147.542 77.8269ZM154.677 76.9509C156.033 76.9509 156.813 77.7069 156.813 79.0869V83.1309H155.589V79.3269C155.589 78.4029 155.157 77.9349 154.293 77.9349C153.321 77.9349 152.697 78.5469 152.697 79.6029V83.1309H151.461V77.0709H152.457V77.5869L152.385 78.1389H152.481C152.817 77.4549 153.561 76.9509 154.677 76.9509ZM161.089 82.2309C161.329 82.2309 161.605 82.1949 161.905 82.1109V83.0829C161.569 83.1909 161.173 83.2389 160.705 83.2389C159.445 83.2389 158.809 82.6269 158.809 81.3909V80.7909V77.9349H157.741V77.0709H158.809V75.4269H160.045V77.0709H161.869V77.9349H160.045V80.7189V81.1989C160.045 81.8829 160.393 82.2309 161.089 82.2309ZM164.472 76.0149H163.116V74.4909H164.484L164.472 76.0149ZM164.424 83.1309H163.188V77.0709H164.424V83.1309ZM168.65 83.2509C166.766 83.2509 165.722 82.0749 165.722 80.0949C165.722 78.1269 166.778 76.9629 168.662 76.9629C170.246 76.9629 171.278 77.7789 171.41 79.1709H170.15C169.982 78.3069 169.478 77.8749 168.65 77.8749C167.546 77.8749 166.97 78.6669 166.97 80.0949C166.97 81.5229 167.558 82.3149 168.65 82.3149C169.454 82.3149 169.994 81.8349 170.15 81.0069H171.41C171.278 82.4109 170.27 83.2509 168.65 83.2509ZM175.005 76.9509C176.733 76.9509 177.597 77.7069 177.597 79.2069V83.1309H176.601V82.5789L176.697 82.0269H176.565C176.157 82.8309 175.401 83.2389 174.285 83.2389C172.989 83.2389 172.245 82.6149 172.245 81.5949C172.245 80.5989 172.881 79.9989 174.429 79.8069L176.361 79.5789V79.1589C176.361 78.2709 175.893 77.8269 174.957 77.8269C174.057 77.8269 173.601 78.2349 173.577 79.0629H172.365C172.377 77.6829 173.361 76.9509 175.005 76.9509ZM174.597 82.3749C175.653 82.3749 176.361 81.7269 176.361 80.7309V80.3229L174.645 80.5269C173.865 80.6349 173.469 80.9469 173.469 81.4629C173.469 82.0509 173.889 82.3749 174.597 82.3749ZM181.843 76.9509C182.167 76.9509 182.443 76.9989 182.671 77.0949V78.2469C182.371 78.1629 182.095 78.1149 181.831 78.1149C180.787 78.1149 180.187 78.8109 180.187 80.0109V83.1309H178.951V77.0709H179.959V77.5629L179.863 78.2229H179.971C180.247 77.4549 180.883 76.9509 181.843 76.9509ZM188.825 80.0109V80.2749H184.493C184.541 81.6309 185.093 82.3149 186.137 82.3149C186.941 82.3149 187.433 81.9429 187.601 81.2109H188.789C188.597 82.4709 187.625 83.2389 186.077 83.2389C184.241 83.2389 183.233 82.0869 183.233 80.1189C183.233 78.1389 184.301 76.9509 186.113 76.9509C187.877 76.9509 188.825 78.0549 188.825 80.0109ZM186.077 77.8269C185.165 77.8269 184.649 78.3909 184.529 79.5189H187.601C187.505 78.3909 187.001 77.8269 186.077 77.8269ZM196.656 76.9629C197.868 76.9629 198.6 77.6589 198.6 78.9069V83.1189H197.388V79.1229C197.388 78.3189 197.028 77.9109 196.296 77.9109C195.432 77.9109 194.904 78.4749 194.904 79.4229V83.1309H193.692V79.1229C193.692 78.3189 193.32 77.9109 192.588 77.9109C191.736 77.9109 191.208 78.4749 191.208 79.4469V83.1309H189.996V77.0709H190.944V77.5989L190.872 78.1269H190.98C191.268 77.4429 191.952 76.9629 192.912 76.9629C193.74 76.9629 194.292 77.2749 194.568 77.9109L194.508 78.2349H194.604C194.904 77.4789 195.612 76.9629 196.656 76.9629ZM205.225 76.9509C206.953 76.9509 207.817 77.7069 207.817 79.2069V83.1309H206.821V82.5789L206.917 82.0269H206.785C206.377 82.8309 205.621 83.2389 204.505 83.2389C203.209 83.2389 202.465 82.6149 202.465 81.5949C202.465 80.5989 203.101 79.9989 204.649 79.8069L206.581 79.5789V79.1589C206.581 78.2709 206.113 77.8269 205.177 77.8269C204.277 77.8269 203.821 78.2349 203.797 79.0629H202.585C202.597 77.6829 203.581 76.9509 205.225 76.9509ZM204.817 82.3749C205.873 82.3749 206.581 81.7269 206.581 80.7309V80.3229L204.865 80.5269C204.085 80.6349 203.689 80.9469 203.689 81.4629C203.689 82.0509 204.109 82.3749 204.817 82.3749ZM214.826 76.9509C215.15 76.9509 215.426 76.9989 215.654 77.0949V78.2469C215.354 78.1629 215.078 78.1149 214.814 78.1149C213.77 78.1149 213.17 78.8109 213.17 80.0109V83.1309H211.934V77.0709H212.942V77.5629L212.846 78.2229H212.954C213.23 77.4549 213.866 76.9509 214.826 76.9509ZM221.808 80.0109V80.2749H217.476C217.524 81.6309 218.076 82.3149 219.12 82.3149C219.924 82.3149 220.416 81.9429 220.584 81.2109H221.772C221.58 82.4709 220.608 83.2389 219.06 83.2389C217.224 83.2389 216.216 82.0869 216.216 80.1189C216.216 78.1389 217.284 76.9509 219.096 76.9509C220.86 76.9509 221.808 78.0549 221.808 80.0109ZM219.06 77.8269C218.148 77.8269 217.632 78.3909 217.512 79.5189H220.584C220.488 78.3909 219.984 77.8269 219.06 77.8269ZM225.684 82.2309C225.924 82.2309 226.2 82.1949 226.5 82.1109V83.0829C226.164 83.1909 225.768 83.2389 225.3 83.2389C224.04 83.2389 223.404 82.6269 223.404 81.3909V80.7909V77.9349H222.336V77.0709H223.404V75.4269H224.64V77.0709H226.464V77.9349H224.64V80.7189V81.1989C224.64 81.8829 224.988 82.2309 225.684 82.2309ZM229.067 76.0149H227.711V74.4909H229.079L229.067 76.0149ZM229.019 83.1309H227.783V77.0709H229.019V83.1309ZM233.377 76.9509C233.701 76.9509 233.977 76.9989 234.205 77.0949V78.2469C233.905 78.1629 233.629 78.1149 233.365 78.1149C232.321 78.1149 231.721 78.8109 231.721 80.0109V83.1309H230.485V77.0709H231.493V77.5629L231.397 78.2229H231.505C231.781 77.4549 232.417 76.9509 233.377 76.9509ZM237.502 76.9509C239.23 76.9509 240.094 77.7069 240.094 79.2069V83.1309H239.098V82.5789L239.194 82.0269H239.062C238.654 82.8309 237.898 83.2389 236.782 83.2389C235.486 83.2389 234.742 82.6149 234.742 81.5949C234.742 80.5989 235.378 79.9989 236.926 79.8069L238.858 79.5789V79.1589C238.858 78.2709 238.39 77.8269 237.454 77.8269C236.554 77.8269 236.098 78.2349 236.074 79.0629H234.862C234.874 77.6829 235.858 76.9509 237.502 76.9509ZM237.094 82.3749C238.15 82.3749 238.858 81.7269 238.858 80.7309V80.3229L237.142 80.5269C236.362 80.6349 235.966 80.9469 235.966 81.4629C235.966 82.0509 236.386 82.3749 237.094 82.3749ZM245.696 77.3469V74.4909H246.932V83.1309H245.936V82.5789L246.02 82.0269H245.9C245.552 82.7469 244.82 83.2389 243.776 83.2389C242.204 83.2389 241.28 82.0269 241.28 80.1069C241.28 78.1749 242.216 76.9509 243.788 76.9509C244.832 76.9509 245.564 77.4549 245.9 78.1749H246.02L245.936 77.7549L245.696 77.3469ZM244.136 82.2909C245.144 82.2909 245.72 81.4869 245.72 80.0949C245.72 78.6669 245.144 77.8989 244.136 77.8989C243.092 77.8989 242.54 78.7149 242.54 80.0949C242.54 81.4749 243.116 82.2909 244.136 82.2909ZM250.809 76.9509C252.537 76.9509 253.401 77.7069 253.401 79.2069V83.1309H252.405V82.5789L252.501 82.0269H252.369C251.961 82.8309 251.205 83.2389 250.089 83.2389C248.793 83.2389 248.049 82.6149 248.049 81.5949C248.049 80.5989 248.685 79.9989 250.233 79.8069L252.165 79.5789V79.1589C252.165 78.2709 251.697 77.8269 250.761 77.8269C249.861 77.8269 249.405 78.2349 249.381 79.0629H248.169C248.181 77.6829 249.165 76.9509 250.809 76.9509ZM250.401 82.3749C251.457 82.3749 252.165 81.7269 252.165 80.7309V80.3229L250.449 80.5269C249.669 80.6349 249.273 80.9469 249.273 81.4629C249.273 82.0509 249.693 82.3749 250.401 82.3749ZM261.766 77.3469V74.4909H263.002V83.1309H262.006V82.5789L262.09 82.0269H261.97C261.622 82.7469 260.89 83.2389 259.846 83.2389C258.274 83.2389 257.35 82.0269 257.35 80.1069C257.35 78.1749 258.286 76.9509 259.858 76.9509C260.902 76.9509 261.634 77.4549 261.97 78.1749H262.09L262.006 77.7549L261.766 77.3469ZM260.206 82.2909C261.214 82.2909 261.79 81.4869 261.79 80.0949C261.79 78.6669 261.214 77.8989 260.206 77.8989C259.162 77.8989 258.61 78.7149 258.61 80.0949C258.61 81.4749 259.186 82.2909 260.206 82.2909ZM267.024 76.9509C268.884 76.9509 269.916 78.1269 269.916 80.0949C269.916 82.0629 268.884 83.2389 267.024 83.2389C265.164 83.2389 264.132 82.0629 264.132 80.0949C264.132 78.1269 265.188 76.9509 267.024 76.9509ZM267.036 82.3029C268.104 82.3029 268.68 81.4869 268.68 80.0949C268.68 78.6909 268.104 77.8869 267.036 77.8869C265.944 77.8869 265.356 78.7029 265.356 80.0949C265.356 81.4869 265.944 82.3029 267.036 82.3029ZM273.506 83.2389C271.874 83.2389 270.986 82.6149 270.842 81.3669H272.03C272.162 82.0749 272.666 82.4229 273.542 82.4229C274.37 82.4229 274.922 82.0749 274.922 81.4869C274.922 81.0189 274.562 80.7189 273.83 80.5749L272.594 80.3589C271.526 80.1549 270.95 79.5789 270.95 78.7749C270.95 77.6709 271.91 76.9509 273.494 76.9509C274.994 76.9509 275.918 77.5869 276.026 78.7749H274.838C274.754 78.1029 274.274 77.7669 273.422 77.7669C272.606 77.7669 272.114 78.1149 272.114 78.6069C272.114 79.0149 272.474 79.2909 273.182 79.4349L274.382 79.6509C275.57 79.8789 276.158 80.4429 276.158 81.3189C276.158 82.4829 275.126 83.2389 273.506 83.2389ZM283.221 76.9629C284.841 76.9629 285.729 78.1629 285.729 80.0949C285.729 82.0509 284.817 83.2509 283.221 83.2509C282.177 83.2509 281.445 82.7469 281.097 82.0269H280.989L281.061 82.4469L281.313 82.8549V85.3029H280.065V77.0709H281.061V77.6229L280.989 78.1749H281.109C281.445 77.4669 282.177 76.9629 283.221 76.9629ZM282.873 82.3029C283.917 82.3029 284.469 81.4869 284.469 80.1069C284.469 78.7269 283.893 77.9109 282.873 77.9109C281.865 77.9109 281.289 78.7149 281.289 80.1069C281.289 81.5349 281.865 82.3029 282.873 82.3029ZM292.342 80.0109V80.2749H288.01C288.058 81.6309 288.61 82.3149 289.654 82.3149C290.458 82.3149 290.95 81.9429 291.118 81.2109H292.306C292.114 82.4709 291.142 83.2389 289.594 83.2389C287.758 83.2389 286.75 82.0869 286.75 80.1189C286.75 78.1389 287.818 76.9509 289.63 76.9509C291.394 76.9509 292.342 78.0549 292.342 80.0109ZM289.594 77.8269C288.682 77.8269 288.166 78.3909 288.046 79.5189H291.118C291.022 78.3909 290.518 77.8269 289.594 77.8269ZM297.761 77.3469V74.4909H298.997V83.1309H298.001V82.5789L298.085 82.0269H297.965C297.617 82.7469 296.885 83.2389 295.841 83.2389C294.269 83.2389 293.345 82.0269 293.345 80.1069C293.345 78.1749 294.281 76.9509 295.853 76.9509C296.897 76.9509 297.629 77.4549 297.965 78.1749H298.085L298.001 77.7549L297.761 77.3469ZM296.201 82.2909C297.209 82.2909 297.785 81.4869 297.785 80.0949C297.785 78.6669 297.209 77.8989 296.201 77.8989C295.157 77.8989 294.605 78.7149 294.605 80.0949C294.605 81.4749 295.181 82.2909 296.201 82.2909ZM301.757 76.0149H300.401V74.4909H301.769L301.757 76.0149ZM301.709 83.1309H300.473V77.0709H301.709V83.1309ZM307.423 77.3469V74.4909H308.659V83.1309H307.663V82.5789L307.747 82.0269H307.627C307.279 82.7469 306.547 83.2389 305.503 83.2389C303.931 83.2389 303.007 82.0269 303.007 80.1069C303.007 78.1749 303.943 76.9509 305.515 76.9509C306.559 76.9509 307.291 77.4549 307.627 78.1749H307.747L307.663 77.7549L307.423 77.3469ZM305.863 82.2909C306.871 82.2909 307.447 81.4869 307.447 80.0949C307.447 78.6669 306.871 77.8989 305.863 77.8989C304.819 77.8989 304.267 78.7149 304.267 80.0949C304.267 81.4749 304.843 82.2909 305.863 82.2909ZM312.681 76.9509C314.541 76.9509 315.573 78.1269 315.573 80.0949C315.573 82.0629 314.541 83.2389 312.681 83.2389C310.821 83.2389 309.789 82.0629 309.789 80.0949C309.789 78.1269 310.845 76.9509 312.681 76.9509ZM312.693 82.3029C313.761 82.3029 314.337 81.4869 314.337 80.0949C314.337 78.6909 313.761 77.8869 312.693 77.8869C311.601 77.8869 311.013 78.7029 311.013 80.0949C311.013 81.4869 311.601 82.3029 312.693 82.3029ZM319.163 83.2389C317.531 83.2389 316.643 82.6149 316.499 81.3669H317.687C317.819 82.0749 318.323 82.4229 319.199 82.4229C320.027 82.4229 320.579 82.0749 320.579 81.4869C320.579 81.0189 320.219 80.7189 319.487 80.5749L318.251 80.3589C317.183 80.1549 316.607 79.5789 316.607 78.7749C316.607 77.6709 317.567 76.9509 319.151 76.9509C320.651 76.9509 321.575 77.5869 321.683 78.7749H320.495C320.411 78.1029 319.931 77.7669 319.079 77.7669C318.263 77.7669 317.771 78.1149 317.771 78.6069C317.771 79.0149 318.131 79.2909 318.839 79.4349L320.039 79.6509C321.227 79.8789 321.815 80.4429 321.815 81.3189C321.815 82.4829 320.783 83.2389 319.163 83.2389ZM323.044 83.1309V81.4269H324.376V82.7109C324.376 83.5869 324.028 84.2709 323.344 84.7629H322.636V84.5709C323.152 84.1749 323.464 83.6949 323.596 83.1309H323.044ZM22.3284 105.239C20.6964 105.239 19.8084 104.615 19.6644 103.367H20.8524C20.9844 104.075 21.4884 104.423 22.3644 104.423C23.1924 104.423 23.7444 104.075 23.7444 103.487C23.7444 103.019 23.3844 102.719 22.6524 102.575L21.4164 102.359C20.3484 102.155 19.7724 101.579 19.7724 100.775C19.7724 99.6709 20.7324 98.9509 22.3164 98.9509C23.8164 98.9509 24.7404 99.5869 24.8484 100.775H23.6604C23.5764 100.103 23.0964 99.7669 22.2444 99.7669C21.4284 99.7669 20.9364 100.115 20.9364 100.607C20.9364 101.015 21.2964 101.291 22.0044 101.435L23.2044 101.651C24.3924 101.879 24.9804 102.443 24.9804 103.319C24.9804 104.483 23.9484 105.239 22.3284 105.239ZM30.1449 102.611V99.0709H31.3809V105.131H30.3849V104.603L30.4689 104.063H30.3609C30.0249 104.747 29.2929 105.239 28.2249 105.239C26.8809 105.239 26.1249 104.495 26.1249 103.115V99.0709H27.3609V102.887C27.3609 103.811 27.7809 104.267 28.6089 104.267C29.5329 104.267 30.1449 103.655 30.1449 102.611ZM35.2394 98.9509C36.9674 98.9509 37.8314 99.7069 37.8314 101.207V105.131H36.8354V104.579L36.9314 104.027H36.7994C36.3914 104.831 35.6354 105.239 34.5194 105.239C33.2234 105.239 32.4794 104.615 32.4794 103.595C32.4794 102.599 33.1154 101.999 34.6634 101.807L36.5954 101.579V101.159C36.5954 100.271 36.1274 99.8269 35.1914 99.8269C34.2914 99.8269 33.8354 100.235 33.8114 101.063H32.5994C32.6114 99.6829 33.5954 98.9509 35.2394 98.9509ZM34.8314 104.375C35.8874 104.375 36.5954 103.727 36.5954 102.731V102.323L34.8794 102.527C34.0994 102.635 33.7034 102.947 33.7034 103.463C33.7034 104.051 34.1234 104.375 34.8314 104.375ZM44.7084 105.251C42.8244 105.251 41.7804 104.075 41.7804 102.095C41.7804 100.127 42.8364 98.9629 44.7204 98.9629C46.3044 98.9629 47.3364 99.7789 47.4684 101.171H46.2084C46.0404 100.307 45.5364 99.8749 44.7084 99.8749C43.6044 99.8749 43.0284 100.667 43.0284 102.095C43.0284 103.523 43.6164 104.315 44.7084 104.315C45.5124 104.315 46.0524 103.835 46.2084 103.007H47.4684C47.3364 104.411 46.3284 105.251 44.7084 105.251ZM51.279 98.9509C53.139 98.9509 54.171 100.127 54.171 102.095C54.171 104.063 53.139 105.239 51.279 105.239C49.419 105.239 48.387 104.063 48.387 102.095C48.387 100.127 49.443 98.9509 51.279 98.9509ZM51.291 104.303C52.359 104.303 52.935 103.487 52.935 102.095C52.935 100.691 52.359 99.8869 51.291 99.8869C50.199 99.8869 49.611 100.703 49.611 102.095C49.611 103.487 50.199 104.303 51.291 104.303ZM58.5768 98.9509C59.9328 98.9509 60.7128 99.7069 60.7128 101.087V105.131H59.4888V101.327C59.4888 100.403 59.0568 99.9349 58.1928 99.9349C57.2208 99.9349 56.5968 100.547 56.5968 101.603V105.131H55.3608V99.0709H56.3568V99.5869L56.2848 100.139H56.3808C56.7168 99.4549 57.4608 98.9509 58.5768 98.9509ZM64.7245 97.3549C64.1365 97.3549 63.8485 97.6549 63.8485 98.2549V99.0709H65.3485V99.9349H63.8485V105.131H62.6125L62.6005 99.9349H61.6765V99.0709H62.6005V98.1469C62.6005 96.9709 63.2005 96.3829 64.4125 96.3709C64.8325 96.3829 65.1685 96.4309 65.4325 96.5149V97.4749C65.2165 97.3909 64.9765 97.3549 64.7245 97.3549ZM67.669 98.0149H66.313V96.4909H67.681L67.669 98.0149ZM67.621 105.131H66.385V99.0709H67.621V105.131ZM71.9787 98.9509C72.3027 98.9509 72.5787 98.9989 72.8067 99.0949V100.247C72.5067 100.163 72.2307 100.115 71.9667 100.115C70.9227 100.115 70.3227 100.811 70.3227 102.011V105.131H69.0867V99.0709H70.0947V99.5629L69.9987 100.223H70.1067C70.3827 99.4549 71.0187 98.9509 71.9787 98.9509ZM80.326 98.9629C81.538 98.9629 82.27 99.6589 82.27 100.907V105.119H81.058V101.123C81.058 100.319 80.698 99.9109 79.966 99.9109C79.102 99.9109 78.574 100.475 78.574 101.423V105.131H77.362V101.123C77.362 100.319 76.99 99.9109 76.258 99.9109C75.406 99.9109 74.878 100.475 74.878 101.447V105.131H73.666V99.0709H74.614V99.5989L74.542 100.127H74.65C74.938 99.4429 75.622 98.9629 76.582 98.9629C77.41 98.9629 77.962 99.2749 78.238 99.9109L78.178 100.235H78.274C78.574 99.4789 79.282 98.9629 80.326 98.9629ZM86.1321 98.9509C87.8601 98.9509 88.7241 99.7069 88.7241 101.207V105.131H87.7281V104.579L87.8241 104.027H87.6921C87.2841 104.831 86.5281 105.239 85.4121 105.239C84.1161 105.239 83.3721 104.615 83.3721 103.595C83.3721 102.599 84.0081 101.999 85.5561 101.807L87.4881 101.579V101.159C87.4881 100.271 87.0201 99.8269 86.0841 99.8269C85.1841 99.8269 84.7281 100.235 84.7041 101.063H83.4921C83.5041 99.6829 84.4881 98.9509 86.1321 98.9509ZM85.7241 104.375C86.7801 104.375 87.4881 103.727 87.4881 102.731V102.323L85.7721 102.527C84.9921 102.635 84.5961 102.947 84.5961 103.463C84.5961 104.051 85.0161 104.375 85.7241 104.375ZM92.8383 104.315C93.6423 104.315 94.1823 103.835 94.3383 103.007H95.5983C95.4663 104.303 94.5903 105.131 93.1623 105.239L92.7423 105.851H92.9943C93.7983 105.851 94.2063 106.199 94.2063 106.775C94.2063 107.459 93.6183 107.843 92.6103 107.843C92.1783 107.843 91.8063 107.795 91.4943 107.711V107.123C91.8423 107.231 92.2143 107.291 92.5863 107.291C93.1623 107.291 93.4503 107.123 93.4503 106.787C93.4503 106.511 93.2223 106.379 92.7663 106.379H91.8063V106.247L92.4903 105.239C90.8223 105.095 89.9103 103.955 89.9103 102.095C89.9103 100.127 90.9663 98.9629 92.8503 98.9629C94.4343 98.9629 95.4663 99.7789 95.5983 101.171H94.3383C94.1703 100.307 93.6663 99.8749 92.8383 99.8749C91.7343 99.8749 91.1583 100.667 91.1583 102.095C91.1583 103.523 91.7463 104.315 92.8383 104.315ZM97.9329 98.2909H97.2969C97.2369 97.5589 97.6329 96.9349 98.4129 96.9349C98.6769 96.9349 98.9529 97.0429 99.2529 97.2589C99.5529 97.4629 99.7809 97.5709 99.9249 97.5709C100.225 97.5709 100.393 97.3189 100.357 96.9709H101.029C101.089 97.7389 100.729 98.3269 99.9729 98.3269C99.6849 98.3269 99.3849 98.2189 99.0729 98.0149C98.7609 97.7989 98.5329 97.6909 98.4009 97.6909C98.0649 97.6909 97.9209 97.9549 97.9329 98.2909ZM99.1929 98.9509C100.921 98.9509 101.785 99.7069 101.785 101.207V105.131H100.789V104.579L100.885 104.027H100.753C100.345 104.831 99.5889 105.239 98.4729 105.239C97.1769 105.239 96.4329 104.615 96.4329 103.595C96.4329 102.599 97.0689 101.999 98.6169 101.807L100.549 101.579V101.159C100.549 100.271 100.081 99.8269 99.1449 99.8269C98.2449 99.8269 97.7889 100.235 97.7649 101.063H96.5529C96.5649 99.6829 97.5489 98.9509 99.1929 98.9509ZM98.7849 104.375C99.8409 104.375 100.549 103.727 100.549 102.731V102.323L98.8329 102.527C98.0529 102.635 97.6569 102.947 97.6569 103.463C97.6569 104.051 98.0769 104.375 98.7849 104.375ZM105.863 98.9509C107.723 98.9509 108.755 100.127 108.755 102.095C108.755 104.063 107.723 105.239 105.863 105.239C104.003 105.239 102.971 104.063 102.971 102.095C102.971 100.127 104.027 98.9509 105.863 98.9509ZM105.875 104.303C106.943 104.303 107.519 103.487 107.519 102.095C107.519 100.691 106.943 99.8869 105.875 99.8869C104.783 99.8869 104.195 100.703 104.195 102.095C104.195 103.487 104.783 104.303 105.875 104.303ZM117.088 96.4909V96.6469L115.372 98.3269H114.484V98.1709L115.912 96.4909H117.088ZM118.12 102.011V102.275H113.788C113.836 103.631 114.388 104.315 115.432 104.315C116.236 104.315 116.728 103.943 116.896 103.211H118.084C117.892 104.471 116.92 105.239 115.372 105.239C113.536 105.239 112.528 104.087 112.528 102.119C112.528 100.139 113.596 98.9509 115.408 98.9509C117.172 98.9509 118.12 100.055 118.12 102.011ZM115.372 99.8269C114.46 99.8269 113.944 100.391 113.824 101.519H116.896C116.8 100.391 116.296 99.8269 115.372 99.8269ZM125.27 98.9509C126.626 98.9509 127.406 99.7069 127.406 101.087V105.131H126.182V101.327C126.182 100.403 125.75 99.9349 124.886 99.9349C123.914 99.9349 123.29 100.547 123.29 101.603V105.131H122.054V99.0709H123.05V99.5869L122.978 100.139H123.074C123.41 99.4549 124.154 98.9509 125.27 98.9509ZM134.189 102.011V102.275H129.857C129.905 103.631 130.457 104.315 131.501 104.315C132.305 104.315 132.797 103.943 132.965 103.211H134.153C133.961 104.471 132.989 105.239 131.441 105.239C129.605 105.239 128.597 104.087 128.597 102.119C128.597 100.139 129.665 98.9509 131.477 98.9509C133.241 98.9509 134.189 100.055 134.189 102.011ZM131.441 99.8269C130.529 99.8269 130.013 100.391 129.893 101.519H132.965C132.869 100.391 132.365 99.8269 131.441 99.8269ZM138.12 105.251C136.236 105.251 135.192 104.075 135.192 102.095C135.192 100.127 136.248 98.9629 138.132 98.9629C139.716 98.9629 140.748 99.7789 140.88 101.171H139.62C139.452 100.307 138.948 99.8749 138.12 99.8749C137.016 99.8749 136.44 100.667 136.44 102.095C136.44 103.523 137.028 104.315 138.12 104.315C138.924 104.315 139.464 103.835 139.62 103.007H140.88C140.748 104.411 139.74 105.251 138.12 105.251ZM147.379 102.011V102.275H143.047C143.095 103.631 143.647 104.315 144.691 104.315C145.495 104.315 145.987 103.943 146.155 103.211H147.343C147.151 104.471 146.179 105.239 144.631 105.239C142.795 105.239 141.787 104.087 141.787 102.119C141.787 100.139 142.855 98.9509 144.667 98.9509C146.431 98.9509 147.379 100.055 147.379 102.011ZM144.631 99.8269C143.719 99.8269 143.203 100.391 143.083 101.519H146.155C146.059 100.391 145.555 99.8269 144.631 99.8269ZM150.95 105.239C149.318 105.239 148.43 104.615 148.286 103.367H149.474C149.606 104.075 150.11 104.423 150.986 104.423C151.814 104.423 152.366 104.075 152.366 103.487C152.366 103.019 152.006 102.719 151.274 102.575L150.038 102.359C148.97 102.155 148.394 101.579 148.394 100.775C148.394 99.6709 149.354 98.9509 150.938 98.9509C152.438 98.9509 153.362 99.5869 153.47 100.775H152.282C152.198 100.103 151.718 99.7669 150.866 99.7669C150.05 99.7669 149.558 100.115 149.558 100.607C149.558 101.015 149.918 101.291 150.626 101.435L151.826 101.651C153.014 101.879 153.602 102.443 153.602 103.319C153.602 104.483 152.57 105.239 150.95 105.239ZM157.147 105.239C155.515 105.239 154.627 104.615 154.483 103.367H155.671C155.803 104.075 156.307 104.423 157.183 104.423C158.011 104.423 158.563 104.075 158.563 103.487C158.563 103.019 158.203 102.719 157.471 102.575L156.235 102.359C155.167 102.155 154.591 101.579 154.591 100.775C154.591 99.6709 155.551 98.9509 157.135 98.9509C158.635 98.9509 159.559 99.5869 159.667 100.775H158.479C158.395 100.103 157.915 99.7669 157.063 99.7669C156.247 99.7669 155.755 100.115 155.755 100.607C155.755 101.015 156.115 101.291 156.823 101.435L158.023 101.651C159.211 101.879 159.799 102.443 159.799 103.319C159.799 104.483 158.767 105.239 157.147 105.239ZM165.203 96.4909V96.6469L163.487 98.3269H162.599V98.1709L164.027 96.4909H165.203ZM163.451 98.9509C165.179 98.9509 166.043 99.7069 166.043 101.207V105.131H165.047V104.579L165.143 104.027H165.011C164.603 104.831 163.847 105.239 162.731 105.239C161.435 105.239 160.691 104.615 160.691 103.595C160.691 102.599 161.327 101.999 162.875 101.807L164.807 101.579V101.159C164.807 100.271 164.339 99.8269 163.403 99.8269C162.503 99.8269 162.047 100.235 162.023 101.063H160.811C160.823 99.6829 161.807 98.9509 163.451 98.9509ZM163.043 104.375C164.099 104.375 164.807 103.727 164.807 102.731V102.323L163.091 102.527C162.311 102.635 161.915 102.947 161.915 103.463C161.915 104.051 162.335 104.375 163.043 104.375ZM170.289 98.9509C170.613 98.9509 170.889 98.9989 171.117 99.0949V100.247C170.817 100.163 170.541 100.115 170.277 100.115C169.233 100.115 168.633 100.811 168.633 102.011V105.131H167.397V99.0709H168.405V99.5629L168.309 100.223H168.417C168.693 99.4549 169.329 98.9509 170.289 98.9509ZM173.368 98.0149H172.012V96.4909H173.38L173.368 98.0149ZM173.32 105.131H172.084V99.0709H173.32V105.131ZM177.294 98.9509C179.022 98.9509 179.886 99.7069 179.886 101.207V105.131H178.89V104.579L178.986 104.027H178.854C178.446 104.831 177.69 105.239 176.574 105.239C175.278 105.239 174.534 104.615 174.534 103.595C174.534 102.599 175.17 101.999 176.718 101.807L178.65 101.579V101.159C178.65 100.271 178.182 99.8269 177.246 99.8269C176.346 99.8269 175.89 100.235 175.866 101.063H174.654C174.666 99.6829 175.65 98.9509 177.294 98.9509ZM176.886 104.375C177.942 104.375 178.65 103.727 178.65 102.731V102.323L176.934 102.527C176.154 102.635 175.758 102.947 175.758 103.463C175.758 104.051 176.178 104.375 176.886 104.375ZM187.159 98.9629C188.779 98.9629 189.667 100.163 189.667 102.095C189.667 104.051 188.755 105.251 187.159 105.251C186.115 105.251 185.383 104.747 185.035 104.027H184.927L184.999 104.447L185.251 104.855V107.303H184.003V99.0709H184.999V99.6229L184.927 100.175H185.047C185.383 99.4669 186.115 98.9629 187.159 98.9629ZM186.811 104.303C187.855 104.303 188.407 103.487 188.407 102.107C188.407 100.727 187.831 99.9109 186.811 99.9109C185.803 99.9109 185.227 100.715 185.227 102.107C185.227 103.535 185.803 104.303 186.811 104.303ZM193.376 98.9509C195.104 98.9509 195.968 99.7069 195.968 101.207V105.131H194.972V104.579L195.068 104.027H194.936C194.528 104.831 193.772 105.239 192.656 105.239C191.36 105.239 190.616 104.615 190.616 103.595C190.616 102.599 191.252 101.999 192.8 101.807L194.732 101.579V101.159C194.732 100.271 194.264 99.8269 193.328 99.8269C192.428 99.8269 191.972 100.235 191.948 101.063H190.736C190.748 99.6829 191.732 98.9509 193.376 98.9509ZM192.968 104.375C194.024 104.375 194.732 103.727 194.732 102.731V102.323L193.016 102.527C192.236 102.635 191.84 102.947 191.84 103.463C191.84 104.051 192.26 104.375 192.968 104.375ZM200.214 98.9509C200.538 98.9509 200.814 98.9989 201.042 99.0949V100.247C200.742 100.163 200.466 100.115 200.202 100.115C199.158 100.115 198.558 100.811 198.558 102.011V105.131H197.322V99.0709H198.33V99.5629L198.234 100.223H198.342C198.618 99.4549 199.254 98.9509 200.214 98.9509ZM204.339 98.9509C206.067 98.9509 206.931 99.7069 206.931 101.207V105.131H205.935V104.579L206.031 104.027H205.899C205.491 104.831 204.735 105.239 203.619 105.239C202.323 105.239 201.579 104.615 201.579 103.595C201.579 102.599 202.215 101.999 203.763 101.807L205.695 101.579V101.159C205.695 100.271 205.227 99.8269 204.291 99.8269C203.391 99.8269 202.935 100.235 202.911 101.063H201.699C201.711 99.6829 202.695 98.9509 204.339 98.9509ZM203.931 104.375C204.987 104.375 205.695 103.727 205.695 102.731V102.323L203.979 102.527C203.199 102.635 202.803 102.947 202.803 103.463C202.803 104.051 203.223 104.375 203.931 104.375ZM215.536 99.6229V99.0709H216.556V107.327H215.284V104.867L215.536 104.459L215.608 104.027H215.5C215.164 104.747 214.432 105.239 213.388 105.239C211.816 105.239 210.868 104.027 210.868 102.095C210.868 100.175 211.804 98.9629 213.376 98.9629C214.432 98.9629 215.164 99.4549 215.5 100.175H215.608L215.536 99.6229ZM213.748 104.291C214.744 104.291 215.308 103.511 215.308 102.107C215.308 100.715 214.744 99.9229 213.748 99.9229C212.728 99.9229 212.164 100.751 212.164 102.107C212.164 103.487 212.704 104.291 213.748 104.291ZM221.932 102.611V99.0709H223.168V105.131H222.172V104.603L222.256 104.063H222.148C221.812 104.747 221.08 105.239 220.012 105.239C218.668 105.239 217.912 104.495 217.912 103.115V99.0709H219.148V102.887C219.148 103.811 219.568 104.267 220.396 104.267C221.32 104.267 221.932 103.655 221.932 102.611ZM229.931 102.011V102.275H225.599C225.647 103.631 226.199 104.315 227.243 104.315C228.047 104.315 228.539 103.943 228.707 103.211H229.895C229.703 104.471 228.731 105.239 227.183 105.239C225.347 105.239 224.339 104.087 224.339 102.119C224.339 100.139 225.407 98.9509 227.219 98.9509C228.983 98.9509 229.931 100.055 229.931 102.011ZM227.183 99.8269C226.271 99.8269 225.755 100.391 225.635 101.519H228.707C228.611 100.391 228.107 99.8269 227.183 99.8269ZM236.373 98.9509C238.101 98.9509 238.965 99.7069 238.965 101.207V105.131H237.969V104.579L238.065 104.027H237.933C237.525 104.831 236.769 105.239 235.653 105.239C234.357 105.239 233.613 104.615 233.613 103.595C233.613 102.599 234.249 101.999 235.797 101.807L237.729 101.579V101.159C237.729 100.271 237.261 99.8269 236.325 99.8269C235.425 99.8269 234.969 100.235 234.945 101.063H233.733C233.745 99.6829 234.729 98.9509 236.373 98.9509ZM235.965 104.375C237.021 104.375 237.729 103.727 237.729 102.731V102.323L236.013 102.527C235.233 102.635 234.837 102.947 234.837 103.463C234.837 104.051 235.257 104.375 235.965 104.375ZM248.494 102.011V102.275H244.162C244.21 103.631 244.762 104.315 245.806 104.315C246.61 104.315 247.102 103.943 247.27 103.211H248.458C248.266 104.471 247.294 105.239 245.746 105.239C243.91 105.239 242.902 104.087 242.902 102.119C242.902 100.139 243.97 98.9509 245.782 98.9509C247.546 98.9509 248.494 100.055 248.494 102.011ZM245.746 99.8269C244.834 99.8269 244.318 100.391 244.198 101.519H247.27C247.174 100.391 246.67 99.8269 245.746 99.8269ZM252.881 98.9509C254.237 98.9509 255.017 99.7069 255.017 101.087V105.131H253.793V101.327C253.793 100.403 253.361 99.9349 252.497 99.9349C251.525 99.9349 250.901 100.547 250.901 101.603V105.131H249.665V99.0709H250.661V99.5869L250.589 100.139H250.685C251.021 99.4549 251.765 98.9509 252.881 98.9509ZM259.292 104.231C259.532 104.231 259.808 104.195 260.108 104.111V105.083C259.772 105.191 259.376 105.239 258.908 105.239C257.648 105.239 257.012 104.627 257.012 103.391V102.791V99.9349H255.944V99.0709H257.012V97.4269H258.248V99.0709H260.072V99.9349H258.248V102.719V103.199C258.248 103.883 258.596 104.231 259.292 104.231ZM264.176 98.9509C264.5 98.9509 264.776 98.9989 265.004 99.0949V100.247C264.704 100.163 264.428 100.115 264.164 100.115C263.12 100.115 262.52 100.811 262.52 102.011V105.131H261.284V99.0709H262.292V99.5629L262.196 100.223H262.304C262.58 99.4549 263.216 98.9509 264.176 98.9509ZM271.158 102.011V102.275H266.826C266.874 103.631 267.426 104.315 268.47 104.315C269.274 104.315 269.766 103.943 269.934 103.211H271.122C270.93 104.471 269.958 105.239 268.41 105.239C266.574 105.239 265.566 104.087 265.566 102.119C265.566 100.139 266.634 98.9509 268.446 98.9509C270.21 98.9509 271.158 100.055 271.158 102.011ZM268.41 99.8269C267.498 99.8269 266.982 100.391 266.862 101.519H269.934C269.838 100.391 269.334 99.8269 268.41 99.8269ZM276.805 99.5989V99.0709H277.861V104.795C277.861 106.463 276.889 107.411 274.957 107.411C273.277 107.411 272.317 106.655 272.209 105.311H273.445C273.529 106.091 274.069 106.535 274.969 106.535C276.013 106.535 276.541 105.983 276.577 104.879L276.805 104.303L276.889 103.823H276.781C276.433 104.543 275.689 105.035 274.645 105.035C273.061 105.035 272.161 103.859 272.161 101.987C272.161 100.127 273.061 98.9509 274.645 98.9509C275.689 98.9509 276.433 99.4309 276.769 100.139H276.889L276.805 99.5989ZM275.017 104.147C276.013 104.147 276.589 103.367 276.589 101.987C276.589 100.631 276.013 99.8389 275.017 99.8389C273.973 99.8389 273.421 100.655 273.421 101.987C273.421 103.343 273.997 104.147 275.017 104.147ZM281.737 98.9509C283.465 98.9509 284.329 99.7069 284.329 101.207V105.131H283.333V104.579L283.429 104.027H283.297C282.889 104.831 282.133 105.239 281.017 105.239C279.721 105.239 278.977 104.615 278.977 103.595C278.977 102.599 279.613 101.999 281.161 101.807L283.093 101.579V101.159C283.093 100.271 282.625 99.8269 281.689 99.8269C280.789 99.8269 280.333 100.235 280.309 101.063H279.097C279.109 99.6829 280.093 98.9509 281.737 98.9509ZM281.329 104.375C282.385 104.375 283.093 103.727 283.093 102.731V102.323L281.377 102.527C280.597 102.635 280.201 102.947 280.201 103.463C280.201 104.051 280.621 104.375 281.329 104.375ZM290.846 105.239C289.214 105.239 288.326 104.615 288.182 103.367H289.37C289.502 104.075 290.006 104.423 290.882 104.423C291.71 104.423 292.262 104.075 292.262 103.487C292.262 103.019 291.902 102.719 291.17 102.575L289.934 102.359C288.866 102.155 288.29 101.579 288.29 100.775C288.29 99.6709 289.25 98.9509 290.834 98.9509C292.334 98.9509 293.258 99.5869 293.366 100.775H292.178C292.094 100.103 291.614 99.7669 290.762 99.7669C289.946 99.7669 289.454 100.115 289.454 100.607C289.454 101.015 289.814 101.291 290.522 101.435L291.722 101.651C292.91 101.879 293.498 102.443 293.498 103.319C293.498 104.483 292.466 105.239 290.846 105.239ZM300.054 102.011V102.275H295.722C295.77 103.631 296.322 104.315 297.366 104.315C298.17 104.315 298.662 103.943 298.83 103.211H300.018C299.826 104.471 298.854 105.239 297.306 105.239C295.47 105.239 294.462 104.087 294.462 102.119C294.462 100.139 295.53 98.9509 297.342 98.9509C299.106 98.9509 300.054 100.055 300.054 102.011ZM297.306 99.8269C296.394 99.8269 295.878 100.391 295.758 101.519H298.83C298.734 100.391 298.23 99.8269 297.306 99.8269ZM302.701 98.0149H301.333V96.4909H302.701V98.0149ZM300.949 107.339C300.745 107.339 300.481 107.303 300.181 107.243V106.271C300.349 106.331 300.517 106.355 300.673 106.355C301.189 106.355 301.405 106.103 301.405 105.515V99.0709H302.653V105.539C302.653 106.739 302.089 107.339 300.949 107.339ZM306.613 98.9509C308.341 98.9509 309.205 99.7069 309.205 101.207V105.131H308.209V104.579L308.305 104.027H308.173C307.765 104.831 307.009 105.239 305.893 105.239C304.597 105.239 303.853 104.615 303.853 103.595C303.853 102.599 304.489 101.999 306.037 101.807L307.969 101.579V101.159C307.969 100.271 307.501 99.8269 306.565 99.8269C305.665 99.8269 305.209 100.235 305.185 101.063H303.973C303.985 99.6829 304.969 98.9509 306.613 98.9509ZM306.205 104.375C307.261 104.375 307.969 103.727 307.969 102.731V102.323L306.253 102.527C305.473 102.635 305.077 102.947 305.077 103.463C305.077 104.051 305.497 104.375 306.205 104.375ZM143.702 120.951C144.026 120.951 144.302 120.999 144.53 121.095V122.247C144.23 122.163 143.954 122.115 143.69 122.115C142.646 122.115 142.046 122.811 142.046 124.011V127.131H140.81V121.071H141.818V121.563L141.722 122.223H141.83C142.106 121.455 142.742 120.951 143.702 120.951ZM150.684 124.011V124.275H146.352C146.4 125.631 146.952 126.315 147.996 126.315C148.8 126.315 149.292 125.943 149.46 125.211H150.648C150.456 126.471 149.484 127.239 147.936 127.239C146.1 127.239 145.092 126.087 145.092 124.119C145.092 122.139 146.16 120.951 147.972 120.951C149.736 120.951 150.684 122.055 150.684 124.011ZM147.936 121.827C147.024 121.827 146.508 122.391 146.388 123.519H149.46C149.364 122.391 148.86 121.827 147.936 121.827ZM154.363 120.951C156.091 120.951 156.955 121.707 156.955 123.207V127.131H155.959V126.579L156.055 126.027H155.923C155.515 126.831 154.759 127.239 153.643 127.239C152.347 127.239 151.603 126.615 151.603 125.595C151.603 124.599 152.239 123.999 153.787 123.807L155.719 123.579V123.159C155.719 122.271 155.251 121.827 154.315 121.827C153.415 121.827 152.959 122.235 152.935 123.063H151.723C151.735 121.683 152.719 120.951 154.363 120.951ZM153.955 126.375C155.011 126.375 155.719 125.727 155.719 124.731V124.323L154.003 124.527C153.223 124.635 152.827 124.947 152.827 125.463C152.827 126.051 153.247 126.375 153.955 126.375ZM159.701 127.131H158.465V118.491H159.701V127.131ZM162.616 120.015H161.26V118.491H162.628L162.616 120.015ZM162.568 127.131H161.332V121.071H162.568V127.131ZM168.594 127.131H163.854V126.279L166.746 122.283L167.07 122.103V121.971L166.662 122.007H163.902V121.071H168.57V121.923L165.678 125.907L165.366 126.099V126.231L165.762 126.195H168.594V127.131ZM172.305 120.951C174.033 120.951 174.897 121.707 174.897 123.207V127.131H173.901V126.579L173.997 126.027H173.865C173.457 126.831 172.701 127.239 171.585 127.239C170.289 127.239 169.545 126.615 169.545 125.595C169.545 124.599 170.181 123.999 171.729 123.807L173.661 123.579V123.159C173.661 122.271 173.193 121.827 172.257 121.827C171.357 121.827 170.901 122.235 170.877 123.063H169.665C169.677 121.683 170.661 120.951 172.305 120.951ZM171.897 126.375C172.953 126.375 173.661 125.727 173.661 124.731V124.323L171.945 124.527C171.165 124.635 170.769 124.947 170.769 125.463C170.769 126.051 171.189 126.375 171.897 126.375ZM180.499 121.347V118.491H181.735V127.131H180.739V126.579L180.823 126.027H180.703C180.355 126.747 179.623 127.239 178.579 127.239C177.007 127.239 176.083 126.027 176.083 124.107C176.083 122.175 177.019 120.951 178.591 120.951C179.635 120.951 180.367 121.455 180.703 122.175H180.823L180.739 121.755L180.499 121.347ZM178.939 126.291C179.947 126.291 180.523 125.487 180.523 124.095C180.523 122.667 179.947 121.899 178.939 121.899C177.895 121.899 177.343 122.715 177.343 124.095C177.343 125.475 177.919 126.291 178.939 126.291ZM185.612 120.951C187.34 120.951 188.204 121.707 188.204 123.207V127.131H187.208V126.579L187.304 126.027H187.172C186.764 126.831 186.008 127.239 184.892 127.239C183.596 127.239 182.852 126.615 182.852 125.595C182.852 124.599 183.488 123.999 185.036 123.807L186.968 123.579V123.159C186.968 122.271 186.5 121.827 185.564 121.827C184.664 121.827 184.208 122.235 184.184 123.063H182.972C182.984 121.683 183.968 120.951 185.612 120.951ZM185.204 126.375C186.26 126.375 186.968 125.727 186.968 124.731V124.323L185.252 124.527C184.472 124.635 184.076 124.947 184.076 125.463C184.076 126.051 184.496 126.375 185.204 126.375Z" fill="#3A3A3A"/>
</svg>
