<svg width="35" height="34" viewBox="0 0 35 34" fill="none" xmlns="http://www.w3.org/2000/svg">
<path d="M14.4413 19.7967H13.9413V20.2967V27.3801C13.9413 27.874 13.5244 28.2967 12.9969 28.2967H8.66355C8.13606 28.2967 7.71911 27.874 7.71911 27.3801V17.4634V16.9634H7.21911H4.76355C4.54584 16.9634 4.48538 16.7204 4.61407 16.609L4.61409 16.609L4.61792 16.6056L16.6922 5.93922C16.6925 5.93903 16.6927 5.93884 16.6929 5.93865C17.0529 5.62331 17.6076 5.62331 17.9676 5.93865C17.9678 5.93884 17.968 5.93903 17.9682 5.93922L30.0425 16.6056L30.0424 16.6057L30.0518 16.6136C30.0954 16.6503 30.1118 16.6854 30.1183 16.714C30.1257 16.7461 30.1237 16.785 30.1081 16.8251C30.0775 16.9035 30.0068 16.9634 29.8969 16.9634H27.4413H26.9413V17.4634V27.3801C26.9413 27.874 26.5244 28.2967 25.9969 28.2967H21.6636C21.1361 28.2967 20.7191 27.874 20.7191 27.3801V20.2967V19.7967H20.2191H14.4413Z" stroke="black"/>
</svg>
