<svg width="365" height="163" viewBox="0 0 365 163" fill="none" xmlns="http://www.w3.org/2000/svg">
<g filter="url(#filter0_d_696_2870)">
<g clip-path="url(#clip0_696_2870)">
<rect x="18" y="14" width="329" height="127" rx="20" fill="#F2F2F2"/>
<path d="M218.22 79.2C214.32 79.2 212.18 76.6 212.18 72.12C212.18 67.62 214.32 65 218.22 65C221.48 65 223.52 66.8 223.82 69.98H221.52C221.2 68 220.02 66.86 218.2 66.86C215.82 66.86 214.48 68.8 214.48 72.1C214.48 75.46 215.8 77.34 218.2 77.34C220.02 77.34 221.22 76.2 221.54 74.22H223.82C223.5 77.4 221.5 79.2 218.22 79.2ZM230.506 68.7C233.606 68.7 235.326 70.66 235.326 73.94C235.326 77.22 233.606 79.18 230.506 79.18C227.406 79.18 225.686 77.22 225.686 73.94C225.686 70.66 227.446 68.7 230.506 68.7ZM230.526 77.62C232.306 77.62 233.266 76.26 233.266 73.94C233.266 71.6 232.306 70.26 230.526 70.26C228.706 70.26 227.726 71.62 227.726 73.94C227.726 76.26 228.706 77.62 230.526 77.62ZM248.409 68.72C250.429 68.72 251.649 69.88 251.649 71.96V78.98H249.629V72.32C249.629 70.98 249.029 70.3 247.809 70.3C246.369 70.3 245.489 71.24 245.489 72.82V79H243.469V72.32C243.469 70.98 242.849 70.3 241.629 70.3C240.209 70.3 239.329 71.24 239.329 72.86V79H237.309V68.9H238.889V69.78L238.769 70.66H238.949C239.429 69.52 240.569 68.72 242.169 68.72C243.549 68.72 244.469 69.24 244.929 70.3L244.829 70.84H244.989C245.489 69.58 246.669 68.72 248.409 68.72ZM258.446 68.7C261.546 68.7 263.266 70.66 263.266 73.94C263.266 77.22 261.546 79.18 258.446 79.18C255.346 79.18 253.626 77.22 253.626 73.94C253.626 70.66 255.386 68.7 258.446 68.7ZM258.466 77.62C260.246 77.62 261.206 76.26 261.206 73.94C261.206 71.6 260.246 70.26 258.466 70.26C256.646 70.26 255.666 71.62 255.666 73.94C255.666 76.26 256.646 77.62 258.466 77.62ZM276.553 74.8V68.9H278.613V79H276.953V78.12L277.093 77.22H276.913C276.353 78.36 275.133 79.18 273.353 79.18C271.113 79.18 269.853 77.94 269.853 75.64V68.9H271.913V75.26C271.913 76.8 272.613 77.56 273.993 77.56C275.533 77.56 276.553 76.54 276.553 74.8ZM284.864 79.18C282.144 79.18 280.664 78.14 280.424 76.06H282.404C282.624 77.24 283.464 77.82 284.924 77.82C286.304 77.82 287.224 77.24 287.224 76.26C287.224 75.48 286.624 74.98 285.404 74.74L283.344 74.38C281.564 74.04 280.604 73.08 280.604 71.74C280.604 69.9 282.204 68.7 284.844 68.7C287.344 68.7 288.884 69.76 289.064 71.74H287.084C286.944 70.62 286.144 70.06 284.724 70.06C283.364 70.06 282.544 70.64 282.544 71.46C282.544 72.14 283.144 72.6 284.324 72.84L286.324 73.2C288.304 73.58 289.284 74.52 289.284 75.98C289.284 77.92 287.564 79.18 284.864 79.18ZM295.372 68.7C298.252 68.7 299.692 69.96 299.692 72.46V79H298.032V78.08L298.192 77.16H297.972C297.292 78.5 296.032 79.18 294.172 79.18C292.012 79.18 290.772 78.14 290.772 76.44C290.772 74.78 291.832 73.78 294.412 73.46L297.632 73.08V72.38C297.632 70.9 296.852 70.16 295.292 70.16C293.792 70.16 293.032 70.84 292.992 72.22H290.972C290.992 69.92 292.632 68.7 295.372 68.7ZM294.692 77.74C296.452 77.74 297.632 76.66 297.632 75V74.32L294.772 74.66C293.472 74.84 292.812 75.36 292.812 76.22C292.812 77.2 293.512 77.74 294.692 77.74ZM306.769 68.7C307.309 68.7 307.769 68.78 308.149 68.94V70.86C307.649 70.72 307.189 70.64 306.749 70.64C305.009 70.64 304.009 71.8 304.009 73.8V79H301.949V68.9H303.629V69.72L303.469 70.82H303.649C304.109 69.54 305.169 68.7 306.769 68.7ZM318.725 68.7C321.825 68.7 323.545 70.66 323.545 73.94C323.545 77.22 321.825 79.18 318.725 79.18C315.625 79.18 313.905 77.22 313.905 73.94C313.905 70.66 315.665 68.7 318.725 68.7ZM318.745 77.62C320.525 77.62 321.485 76.26 321.485 73.94C321.485 71.6 320.525 70.26 318.745 70.26C316.925 70.26 315.945 71.62 315.945 73.94C315.945 76.26 316.925 77.62 318.745 77.62ZM211.42 85.2H221.98V87.66H218.14V99H215.3V87.66H211.42V85.2ZM229.988 84.6V84.98L227.088 87.76H225.228V87.36L227.468 84.6H229.988ZM226.828 88.62C229.928 88.62 231.468 89.92 231.468 92.52V99H229.268V98.2L229.488 97.24H229.208C228.508 98.54 227.268 99.2 225.448 99.2C223.208 99.2 221.948 98.12 221.948 96.38C221.948 94.6 223.068 93.58 225.728 93.26L228.648 92.92V92.4C228.648 91.18 228.028 90.56 226.768 90.56C225.548 90.56 224.928 91.14 224.908 92.3H222.148C222.168 89.92 223.868 88.62 226.828 88.62ZM226.208 97.28C227.628 97.28 228.648 96.4 228.648 95.1V94.56L226.288 94.82C225.268 94.96 224.748 95.38 224.748 96.08C224.748 96.88 225.228 97.28 226.208 97.28ZM240.946 93.08V96.62H247.626V99H238.146V85.2H247.526V87.58H240.946V90.82H246.586V93.08H240.946ZM255.128 88.62C257.428 88.62 258.708 89.88 258.708 92.1V99H255.888V92.7C255.888 91.46 255.328 90.84 254.188 90.84C252.888 90.84 252.048 91.66 252.048 93.08V99H249.228V88.84H251.448V89.62L251.248 90.56H251.488C252.048 89.44 253.288 88.62 255.128 88.62ZM265.971 96.9C266.331 96.9 266.731 96.84 267.191 96.74V98.94C266.491 99.12 265.771 99.2 265.031 99.2C262.691 99.2 261.531 98.1 261.531 95.88V94.68V90.76H259.891V88.84H261.531V86.12H264.371V88.84H267.151V90.76H264.371V94.5V95.4C264.371 96.4 264.911 96.9 265.971 96.9ZM274.13 88.62C274.67 88.62 275.13 88.7 275.49 88.86V91.5C275.03 91.36 274.57 91.28 274.15 91.28C272.55 91.28 271.59 92.36 271.59 94.14V99H268.77V88.84H270.99V89.6L270.77 90.84H271.03C271.43 89.54 272.53 88.62 274.13 88.62ZM286.038 93.76V94.38H279.158C279.238 96.22 279.958 97.14 281.318 97.14C282.398 97.14 283.058 96.66 283.298 95.68H285.998C285.678 97.84 283.978 99.2 281.178 99.2C277.998 99.2 276.258 97.32 276.258 93.98C276.258 90.62 278.158 88.62 281.338 88.62C284.398 88.62 286.038 90.42 286.038 93.76ZM281.258 90.56C280.098 90.56 279.418 91.28 279.218 92.74H283.238C283.058 91.28 282.398 90.56 281.258 90.56ZM295.107 89.62V88.84H297.467V98.34C297.467 101.24 295.767 102.88 292.327 102.88C289.347 102.88 287.667 101.56 287.487 99.24H290.307C290.447 100.28 291.147 100.92 292.347 100.92C293.727 100.92 294.447 100.12 294.507 98.54L295.107 97.56L295.327 96.7H295.087C294.507 97.84 293.307 98.68 291.547 98.68C288.887 98.68 287.387 96.8 287.387 93.62C287.387 90.5 288.887 88.62 291.547 88.62C293.247 88.62 294.407 89.26 295.067 90.54H295.327L295.107 89.62ZM294.547 93.64C294.547 91.72 293.787 90.62 292.427 90.62C291.047 90.62 290.287 91.74 290.287 93.64C290.287 95.56 291.067 96.68 292.427 96.68C293.787 96.68 294.547 95.62 294.547 93.64ZM305.822 94.76V88.84H308.662V99H306.442V98.22L306.642 97.26H306.402C305.842 98.38 304.642 99.2 302.822 99.2C300.562 99.2 299.322 97.94 299.322 95.7V88.84H302.142V95.14C302.142 96.38 302.682 97 303.782 97C305.002 97 305.822 96.14 305.822 94.76ZM320.009 93.76V94.38H313.129C313.209 96.22 313.929 97.14 315.289 97.14C316.369 97.14 317.029 96.66 317.269 95.68H319.969C319.649 97.84 317.949 99.2 315.149 99.2C311.969 99.2 310.229 97.32 310.229 93.98C310.229 90.62 312.129 88.62 315.309 88.62C318.369 88.62 320.009 90.42 320.009 93.76ZM315.229 90.56C314.069 90.56 313.389 91.28 313.189 92.74H317.209C317.029 91.28 316.369 90.56 315.229 90.56Z" fill="#16488D"/>
<circle cx="54.9624" cy="108.629" r="78.1964" transform="rotate(-13.3958 54.9624 108.629)" fill="#16488D"/>
<path d="M171.3 110.72H177.432V111.812H174.996V119H173.748V111.812H171.3V110.72ZM181.989 110.36V110.516L180.273 112.196H179.385V112.04L180.813 110.36H181.989ZM180.237 112.82C181.965 112.82 182.829 113.576 182.829 115.076V119H181.833V118.448L181.929 117.896H181.797C181.389 118.7 180.633 119.108 179.517 119.108C178.221 119.108 177.477 118.484 177.477 117.464C177.477 116.468 178.113 115.868 179.661 115.676L181.593 115.448V115.028C181.593 114.14 181.125 113.696 180.189 113.696C179.289 113.696 178.833 114.104 178.809 114.932H177.597C177.609 113.552 178.593 112.82 180.237 112.82ZM179.829 118.244C180.885 118.244 181.593 117.596 181.593 116.6V116.192L179.877 116.396C179.097 116.504 178.701 116.816 178.701 117.332C178.701 117.92 179.121 118.244 179.829 118.244ZM189.707 119.12C187.823 119.12 186.779 117.944 186.779 115.964C186.779 113.996 187.835 112.832 189.719 112.832C191.303 112.832 192.335 113.648 192.467 115.04H191.207C191.039 114.176 190.535 113.744 189.707 113.744C188.603 113.744 188.027 114.536 188.027 115.964C188.027 117.392 188.615 118.184 189.707 118.184C190.511 118.184 191.051 117.704 191.207 116.876H192.467C192.335 118.28 191.327 119.12 189.707 119.12ZM196.277 112.82C198.137 112.82 199.169 113.996 199.169 115.964C199.169 117.932 198.137 119.108 196.277 119.108C194.417 119.108 193.385 117.932 193.385 115.964C193.385 113.996 194.441 112.82 196.277 112.82ZM196.289 118.172C197.357 118.172 197.933 117.356 197.933 115.964C197.933 114.56 197.357 113.756 196.289 113.756C195.197 113.756 194.609 114.572 194.609 115.964C194.609 117.356 195.197 118.172 196.289 118.172ZM207.019 112.832C208.231 112.832 208.963 113.528 208.963 114.776V118.988H207.751V114.992C207.751 114.188 207.391 113.78 206.659 113.78C205.795 113.78 205.267 114.344 205.267 115.292V119H204.055V114.992C204.055 114.188 203.683 113.78 202.951 113.78C202.099 113.78 201.571 114.344 201.571 115.316V119H200.359V112.94H201.307V113.468L201.235 113.996H201.343C201.631 113.312 202.315 112.832 203.275 112.832C204.103 112.832 204.655 113.144 204.931 113.78L204.871 114.104H204.967C205.267 113.348 205.975 112.832 207.019 112.832ZM217.328 113.216V110.36H218.564V119H217.568V118.448L217.652 117.896H217.532C217.184 118.616 216.452 119.108 215.408 119.108C213.836 119.108 212.912 117.896 212.912 115.976C212.912 114.044 213.848 112.82 215.42 112.82C216.464 112.82 217.196 113.324 217.532 114.044H217.652L217.568 113.624L217.328 113.216ZM215.768 118.16C216.776 118.16 217.352 117.356 217.352 115.964C217.352 114.536 216.776 113.768 215.768 113.768C214.724 113.768 214.172 114.584 214.172 115.964C214.172 117.344 214.748 118.16 215.768 118.16ZM224.288 110.36V110.516L222.584 112.196H221.696V112.04L223.124 110.36H224.288ZM223.952 116.48V112.94H225.188V119H224.192V118.484L224.276 117.92H224.168C223.844 118.604 223.112 119.108 222.02 119.108C220.688 119.108 219.932 118.364 219.932 116.984V112.94H221.168V116.756C221.168 117.68 221.588 118.136 222.416 118.136C223.34 118.136 223.952 117.524 223.952 116.48ZM229.815 119H228.303L226.095 113.108V112.94H227.343L228.927 117.344L228.987 117.764H229.143L229.203 117.344L230.787 112.94H232.011V113.096L229.815 119ZM234.327 111.884H232.971V110.36H234.339L234.327 111.884ZM234.279 119H233.043V112.94H234.279V119ZM239.992 113.216V110.36H241.228V119H240.232V118.448L240.316 117.896H240.196C239.848 118.616 239.116 119.108 238.072 119.108C236.5 119.108 235.576 117.896 235.576 115.976C235.576 114.044 236.512 112.82 238.084 112.82C239.128 112.82 239.86 113.324 240.196 114.044H240.316L240.232 113.624L239.992 113.216ZM238.432 118.16C239.44 118.16 240.016 117.356 240.016 115.964C240.016 114.536 239.44 113.768 238.432 113.768C237.388 113.768 236.836 114.584 236.836 115.964C236.836 117.344 237.412 118.16 238.432 118.16ZM245.105 112.82C246.833 112.82 247.697 113.576 247.697 115.076V119H246.701V118.448L246.797 117.896H246.665C246.257 118.7 245.501 119.108 244.385 119.108C243.089 119.108 242.345 118.484 242.345 117.464C242.345 116.468 242.981 115.868 244.529 115.676L246.461 115.448V115.028C246.461 114.14 245.993 113.696 245.057 113.696C244.157 113.696 243.701 114.104 243.677 114.932H242.465C242.477 113.552 243.461 112.82 245.105 112.82ZM244.697 118.244C245.753 118.244 246.461 117.596 246.461 116.6V116.192L244.745 116.396C243.965 116.504 243.569 116.816 243.569 117.332C243.569 117.92 243.989 118.244 244.697 118.244ZM252.239 116.36H251.099C251.099 115.892 251.159 115.52 251.291 115.244C251.423 114.968 251.675 114.704 252.035 114.452L252.515 114.116C253.055 113.72 253.331 113.3 253.331 112.856C253.331 112.076 252.731 111.584 251.723 111.584C250.703 111.584 250.115 112.064 249.959 113.012H248.615C248.855 111.464 249.959 110.612 251.783 110.612C253.547 110.612 254.675 111.428 254.675 112.736C254.675 113.504 254.303 114.044 253.487 114.584L252.971 114.944C252.395 115.376 252.239 115.688 252.239 116.36ZM252.323 119H251.003V117.296H252.335L252.323 119ZM260.924 110.72H262.784L265.532 118.808V119H264.272L263.708 117.32H259.976L259.424 119H258.176V118.808L260.924 110.72ZM261.656 112.268L260.312 116.312H263.372L262.016 112.268L261.932 111.728H261.74L261.656 112.268ZM273.696 113.468V112.94H274.752V118.664C274.752 120.332 273.78 121.28 271.848 121.28C270.168 121.28 269.208 120.524 269.1 119.18H270.336C270.42 119.96 270.96 120.404 271.86 120.404C272.904 120.404 273.432 119.852 273.468 118.748L273.696 118.172L273.78 117.692H273.672C273.324 118.412 272.58 118.904 271.536 118.904C269.952 118.904 269.052 117.728 269.052 115.856C269.052 113.996 269.952 112.82 271.536 112.82C272.58 112.82 273.324 113.3 273.66 114.008H273.78L273.696 113.468ZM271.908 118.016C272.904 118.016 273.48 117.236 273.48 115.856C273.48 114.5 272.904 113.708 271.908 113.708C270.864 113.708 270.312 114.524 270.312 115.856C270.312 117.212 270.888 118.016 271.908 118.016ZM281.531 115.88V116.144H277.199C277.247 117.5 277.799 118.184 278.843 118.184C279.647 118.184 280.139 117.812 280.307 117.08H281.495C281.303 118.34 280.331 119.108 278.783 119.108C276.947 119.108 275.939 117.956 275.939 115.988C275.939 114.008 277.007 112.82 278.819 112.82C280.583 112.82 281.531 113.924 281.531 115.88ZM278.783 113.696C277.871 113.696 277.355 114.26 277.235 115.388H280.307C280.211 114.26 279.707 113.696 278.783 113.696ZM285.918 112.82C287.274 112.82 288.054 113.576 288.054 114.956V119H286.83V115.196C286.83 114.272 286.398 113.804 285.534 113.804C284.562 113.804 283.938 114.416 283.938 115.472V119H282.702V112.94H283.698V113.456L283.626 114.008H283.722C284.058 113.324 284.802 112.82 285.918 112.82ZM292.33 118.1C292.57 118.1 292.846 118.064 293.146 117.98V118.952C292.81 119.06 292.414 119.108 291.946 119.108C290.686 119.108 290.05 118.496 290.05 117.26V116.66V113.804H288.982V112.94H290.05V111.296H291.286V112.94H293.11V113.804H291.286V116.588V117.068C291.286 117.752 291.634 118.1 292.33 118.1ZM299.57 115.88V116.144H295.238C295.286 117.5 295.838 118.184 296.882 118.184C297.686 118.184 298.178 117.812 298.346 117.08H299.534C299.342 118.34 298.37 119.108 296.822 119.108C294.986 119.108 293.978 117.956 293.978 115.988C293.978 114.008 295.046 112.82 296.858 112.82C298.622 112.82 299.57 113.924 299.57 115.88ZM296.822 113.696C295.91 113.696 295.394 114.26 295.274 115.388H298.346C298.25 114.26 297.746 113.696 296.822 113.696ZM306.408 118.1C306.648 118.1 306.924 118.064 307.224 117.98V118.952C306.888 119.06 306.492 119.108 306.024 119.108C304.764 119.108 304.128 118.496 304.128 117.26V116.66V113.804H303.06V112.94H304.128V111.296H305.364V112.94H307.188V113.804H305.364V116.588V117.068C305.364 117.752 305.712 118.1 306.408 118.1ZM309.791 111.884H308.435V110.36H309.803L309.791 111.884ZM309.743 119H308.507V112.94H309.743V119ZM314.101 112.82C314.425 112.82 314.701 112.868 314.929 112.964V114.116C314.629 114.032 314.353 113.984 314.089 113.984C313.045 113.984 312.445 114.68 312.445 115.88V119H311.209V112.94H312.217V113.432L312.121 114.092H312.229C312.505 113.324 313.141 112.82 314.101 112.82ZM318.226 112.82C319.954 112.82 320.818 113.576 320.818 115.076V119H319.822V118.448L319.918 117.896H319.786C319.378 118.7 318.622 119.108 317.506 119.108C316.21 119.108 315.466 118.484 315.466 117.464C315.466 116.468 316.102 115.868 317.65 115.676L319.582 115.448V115.028C319.582 114.14 319.114 113.696 318.178 113.696C317.278 113.696 316.822 114.104 316.798 114.932H315.586C315.598 113.552 316.582 112.82 318.226 112.82ZM317.818 118.244C318.874 118.244 319.582 117.596 319.582 116.6V116.192L317.866 116.396C317.086 116.504 316.69 116.816 316.69 117.332C316.69 117.92 317.11 118.244 317.818 118.244ZM323.36 116.384H322.544L322.352 114.2V110.684H323.552L323.564 114.2L323.36 116.384ZM323.6 119H322.28V117.296H323.6V119Z" fill="black"/>
<path d="M167.264 59.1045H159.73C158.791 59.1045 158.03 59.8654 158.03 60.8039V76.0384C158.03 76.977 158.791 77.7378 159.73 77.7378H167.264C168.203 77.7378 168.964 76.977 168.964 76.0384V60.8039C168.964 59.8654 168.203 59.1045 167.264 59.1045Z" fill="#16488D"/>
<path d="M167.611 80.6212L160.652 82.0439C159.716 80.7339 158.676 79.5016 157.542 78.3591C155.044 75.8111 152.366 73.942 150.504 73.2887L151.866 67.5406C152.013 66.9222 152.358 66.3688 152.849 65.9652C153.34 65.5617 153.95 65.3303 154.585 65.3065L158.033 65.181C158.033 65.5176 158.1 65.8508 158.231 66.161C158.362 66.4713 158.553 66.7524 158.793 66.988C159.034 67.2235 159.319 67.4087 159.632 67.5327C159.945 67.6568 160.279 67.7171 160.616 67.7103L166.487 67.5941C167.148 67.5807 167.778 67.3087 168.242 66.8363C168.705 66.3638 168.965 65.7287 168.965 65.067V64.043C169.38 64.0647 169.771 64.2403 170.063 64.5356C170.354 64.8308 170.525 65.2243 170.541 65.6389L170.962 75.9622C171.005 77.0018 170.699 78.0258 170.091 78.8704C169.484 79.7151 168.61 80.3315 167.611 80.6212Z" fill="#A74602"/>
<path d="M170.386 67.8848C170.473 70.0248 168.004 70.8628 165.59 71.1395" stroke="#592D29" stroke-width="0.581202" stroke-miterlimit="10" stroke-linecap="round"/>
<path d="M170.483 70.9824C170.57 73.1236 168.101 73.9605 165.687 74.2372" stroke="#592D29" stroke-width="0.581202" stroke-miterlimit="10" stroke-linecap="round"/>
<path d="M170.743 74.0049C170.83 76.1449 168.36 76.8679 165.945 77.1434" stroke="#592D29" stroke-width="0.581202" stroke-miterlimit="10" stroke-linecap="round"/>
<path d="M166.895 61.8709C167.246 61.8709 167.53 61.5868 167.53 61.2362C167.53 60.8857 167.246 60.6016 166.895 60.6016C166.545 60.6016 166.261 60.8857 166.261 61.2362C166.261 61.5868 166.545 61.8709 166.895 61.8709Z" stroke="#592D29" stroke-width="0.464961" stroke-miterlimit="10" stroke-linecap="round"/>
<path d="M66.0986 133.183L90.7439 139.776L66.1555 207.81H40.1328L66.0986 133.183Z" fill="#A74602"/>
<path d="M66.0993 133.183L90.7446 139.776L88.3663 146.356L63.8047 139.776L66.0993 133.183Z" fill="#592D29"/>
<path d="M120.528 207.811H95.4929L93.1064 139.776H116.143L120.528 207.811Z" fill="#A74602"/>
<path d="M116.256 141.513L93.3854 147.703H93.3843L93.1064 139.776H116.144L116.256 141.513Z" fill="#592D29"/>
<path d="M118.795 139.777H93.1057L92.8977 133.814L90.7426 139.777L66.0996 133.184L79.0209 96.0566C86.48 100.647 113.33 96.0566 113.33 96.0566H113.679L118.795 139.777Z" fill="#EEBDAF"/>
<path d="M115.169 108.848V139.773H114.478V102.944L115.169 108.848Z" fill="#EEBDAF"/>
<path d="M111.499 96.3457V139.772H110.808V96.448L111.499 96.3457Z" fill="#EEBDAF"/>
<path d="M107.83 96.8594V139.772H107.133V96.9477L107.83 96.8594Z" fill="#EEBDAF"/>
<path d="M104.159 97.2979V139.772H103.469V97.3699L104.159 97.2979Z" fill="#EEBDAF"/>
<path d="M100.489 97.6553V139.773H99.792V97.7192C100.028 97.6983 100.261 97.677 100.489 97.6553Z" fill="#EEBDAF"/>
<path d="M96.8195 97.9209V139.767H96.1221V97.9558C96.3569 97.9511 96.5882 97.9348 96.8195 97.9209Z" fill="#EEBDAF"/>
<path d="M93.1487 98.0732V133.119L92.457 135.032V98.0872L93.1487 98.0732Z" fill="#EEBDAF"/>
<path d="M89.4826 98.0758V139.44L88.7852 139.253V98.0537C89.0176 98.0677 89.2501 98.0677 89.4826 98.0758Z" fill="#EEBDAF"/>
<path d="M85.8078 97.8568V138.456L85.1162 138.271V97.7812C85.3433 97.8091 85.5738 97.8343 85.8078 97.8568Z" fill="#EEBDAF"/>
<path d="M82.1377 97.2618V137.473L81.4473 137.289V97.0781C81.6704 97.1374 81.9018 97.2037 82.1377 97.2618Z" fill="#EEBDAF"/>
<path d="M78.469 97.6289V136.494L77.7773 136.308V99.6178L78.469 97.6289Z" fill="#EEBDAF"/>
<path d="M74.7981 108.179V135.511L74.1064 135.325V110.168L74.7981 108.179Z" fill="#EEBDAF"/>
<path d="M71.1282 118.726V134.528L70.4365 134.344V120.714L71.1282 118.726Z" fill="#EEBDAF"/>
<path d="M113.785 97.0214C90.2476 103.348 76.751 102.735 76.751 102.735L79.0212 96.0566C86.4803 100.647 113.331 96.0566 113.331 96.0566H113.679L113.785 97.0214Z" fill="#592D29"/>
<path d="M93.4518 139.777L91.9836 112.813L86.9307 108.566" stroke="#592D29" stroke-width="0.697442" stroke-miterlimit="10"/>
<path d="M107.83 113.124L102.946 115.545L98.0625 113.124V104.664H107.83V113.124Z" fill="#EEBDAF" stroke="#592D29" stroke-width="0.697442" stroke-linejoin="round"/>
<path d="M82.9269 113.124L78.0424 115.545L73.1592 113.124L76.157 104.664H82.9269V113.124Z" fill="#EEBDAF" stroke="#592D29" stroke-width="0.697442" stroke-linejoin="round"/>
<path d="M162.216 86.9929C162.199 87.0138 162.18 87.0336 162.16 87.0533L146.525 104.127C144.311 106.544 141.464 108.29 138.306 109.168C135.149 110.046 131.808 110.019 128.665 109.091C125.521 108.163 122.702 106.371 120.527 103.919C118.353 101.468 116.91 98.4543 116.364 95.2227L113.324 77.2357V96.0573C113.324 96.0573 86.4729 100.648 79.0149 96.0573L68.3824 126.468C68.3829 126.471 68.3829 126.474 68.3824 126.476C67.8221 127.933 63.1632 127.698 57.9521 125.721C52.7411 123.743 48.8168 121.036 49.3504 119.574C49.3498 119.571 49.3498 119.568 49.3504 119.566C49.3509 119.562 49.3509 119.557 49.3504 119.553L70.2004 64.8224C71.3303 61.8572 73.3347 59.3055 75.9479 57.5054C78.561 55.7054 81.6596 54.7421 84.8327 54.7432H116.101C119.672 54.7432 123.135 55.9638 125.916 58.2027C128.698 60.4415 130.63 63.5639 131.393 67.0519L135.702 85.6085L148.403 73.316C149.541 72.1978 153.75 74.4912 157.541 78.3597C161.274 82.1619 163.232 85.8084 162.216 86.9929Z" fill="#EEBDAF" stroke="#592D29" stroke-width="0.581202" stroke-miterlimit="10"/>
<path d="M68.3824 126.468C68.3829 126.471 68.3829 126.474 68.3824 126.476C67.8221 127.933 63.1632 127.698 57.9521 125.721C52.7411 123.744 48.8168 121.036 49.3504 119.574C49.3498 119.571 49.3498 119.569 49.3504 119.566C49.3509 119.562 49.3509 119.557 49.3504 119.553C49.9316 118.108 54.7451 118.463 59.9468 120.435C65.1486 122.408 68.9194 125.007 68.3824 126.468Z" fill="#EEBDAF" stroke="#592D29" stroke-width="0.581202" stroke-miterlimit="10"/>
<path d="M31.8075 140.529L23.6116 164.104C22.1693 168.253 24.3633 172.785 28.5122 174.228L41.6315 178.789C45.7804 180.231 50.3129 178.037 51.7553 173.888L59.9511 150.313C61.3935 146.164 59.1994 141.632 55.0506 140.189L41.9312 135.628C37.7824 134.186 33.2498 136.38 31.8075 140.529Z" stroke="#592D29" stroke-width="0.581202" stroke-miterlimit="10" stroke-linecap="round"/>
<path d="M57.8258 156.427L51.7546 173.891C51.4117 174.877 50.8778 175.787 50.1834 176.567C49.4891 177.347 48.6478 177.983 47.7078 178.438C46.7677 178.893 45.7472 179.158 44.7046 179.218C43.662 179.279 42.6176 179.134 41.6312 178.79L28.5112 174.229C26.5191 173.536 24.8837 172.081 23.9647 170.182C23.0457 168.284 22.9183 166.098 23.6105 164.106L29.6817 146.642C30.5265 144.213 32.3014 142.219 34.6162 141.098C36.9309 139.978 39.596 139.822 42.0253 140.666L51.8523 144.083C53.055 144.502 54.1637 145.153 55.1149 145.999C56.0661 146.846 56.8411 147.872 57.3958 149.018C57.9506 150.164 58.274 151.408 58.3478 152.68C58.4216 153.951 58.2442 155.224 57.8258 156.427Z" stroke="#592D29" stroke-width="0.581202" stroke-miterlimit="10" stroke-linecap="round"/>
<path d="M60.0559 130.203L56.6768 140.82L43.1162 136.006L45.169 129.555L60.0559 130.203Z" stroke="#592D29" stroke-width="0.581202" stroke-miterlimit="10" stroke-linecap="round"/>
<path d="M66.1696 123.888L65.8988 124.629L64.891 127.388L62.7464 133.273C62.5205 133.913 62.1016 134.468 61.5474 134.86C60.9932 135.252 60.331 135.463 59.652 135.463H47.076C46.5498 135.463 46.0313 135.336 45.5643 135.093C45.0973 134.851 44.6955 134.5 44.3927 134.069C44.0899 133.639 43.8951 133.142 43.8245 132.62C43.754 132.099 43.8099 131.568 43.9875 131.073L45.5137 126.799C45.6809 126.332 45.9881 125.929 46.3932 125.644C46.7983 125.359 47.2816 125.206 47.7769 125.206H50.3691L51.3339 122.343L51.4664 121.949L52.4463 119.043C54.4073 119.159 57.125 119.753 59.8369 120.787C62.3558 121.74 64.6469 122.841 66.1696 123.888Z" fill="#A74602"/>
<path d="M49.4621 135.031C48.9588 135.031 48.4629 134.91 48.0162 134.678C47.5695 134.446 47.1851 134.11 46.8954 133.699C46.6057 133.287 46.4192 132.812 46.3516 132.313C46.2841 131.815 46.3375 131.307 46.5073 130.833L47.8568 127.075C48.0169 126.63 48.3107 126.244 48.6981 125.972C49.0855 125.699 49.5476 125.553 50.0212 125.554H59.2705C59.4494 125.554 59.6258 125.597 59.7847 125.679C59.9436 125.761 60.0804 125.88 60.1837 126.026C60.287 126.173 60.3538 126.341 60.3783 126.519C60.4028 126.696 60.3845 126.876 60.3248 127.045L59.1368 130.649L60.0563 130.617" stroke="#592D29" stroke-width="0.581202" stroke-miterlimit="10" stroke-linecap="round"/>
<path d="M53.6983 135.031C53.1951 135.031 52.6993 134.91 52.2527 134.678C51.8062 134.446 51.4219 134.11 51.1323 133.699C50.8428 133.287 50.6564 132.812 50.5889 132.314C50.5214 131.815 50.5748 131.307 50.7446 130.834L52.093 127.076C52.253 126.629 52.5472 126.243 52.9353 125.97C53.3234 125.697 53.7864 125.551 54.2609 125.552" stroke="#592D29" stroke-width="0.581202" stroke-miterlimit="10" stroke-linecap="round"/>
<path d="M58.4035 135.264C56.2309 135.264 54.2479 132.876 54.9802 130.831L56.3297 127.073C56.4897 126.628 56.7836 126.242 57.171 125.97C57.5584 125.697 58.0205 125.551 58.4941 125.552" stroke="#592D29" stroke-width="0.581202" stroke-miterlimit="10" stroke-linecap="round"/>
<path d="M51.4326 122.049L52.4509 118.923C54.4188 119.03 57.0738 119.62 59.8368 120.666C62.4115 121.643 64.6805 122.759 66.2021 123.821L65.9534 124.486L51.4326 122.049Z" fill="#592D29"/>
<path d="M108.875 48.8254V54.9722C108.875 54.9722 103.233 56.9611 99.3564 54.9722L103.732 47.0365L104.08 46.4053C104.128 46.4634 105.755 48.3709 108.875 48.8254Z" fill="#A74602"/>
<path d="M104.08 46.4033C104.08 46.4033 105.708 48.3643 108.875 48.8258V53.2429L103.725 47.0275L104.08 46.4033Z" fill="#592D29"/>
<path d="M79.0137 95.5956L42.7467 69.4322C42.7467 69.4322 42.2678 54.593 57.8185 52.4472C65.0102 51.4522 67.5303 55.0882 73.268 54.2466C79.0974 53.3922 76.6936 44.4452 85.2802 42.5063C91.0237 41.2067 92.6859 45.3309 96.838 43.3479C99.6685 41.9972 101.275 37 106.478 37C110.342 37 110.914 40.0222 110.914 40.0222C110.914 40.0222 109.257 42.039 104.081 42.2355V46.1737C104.081 46.1737 104.081 52.897 98.205 55.5496C93.9227 57.4815 96.0685 60.5712 97.4878 66.5251C99.3569 74.3666 92.2733 80.1043 85.3616 81.6363C78.5069 83.159 76.9516 89.93 79.0137 95.5956Z" fill="#EEBDAF"/>
<path d="M104.71 42.2027C109.32 41.8819 110.871 40.0767 110.918 40.0186L112.566 44.0149C112.604 44.1065 112.622 44.205 112.619 44.3041C112.616 44.4031 112.592 44.5005 112.55 44.5898C112.507 44.6791 112.446 44.7585 112.37 44.8226C112.295 44.8868 112.206 44.9344 112.111 44.9623L111.701 45.0785L111.933 46.5594C111.994 46.9484 111.924 47.3464 111.735 47.6916C111.546 48.0368 111.248 48.3097 110.887 48.4681C110.191 48.7846 109.421 48.9001 108.662 48.8017C105.496 48.3367 104.084 46.4036 104.084 46.4036H103.49C102.935 46.4036 102.403 46.1832 102.01 45.7908C101.618 45.3984 101.397 44.8662 101.397 44.3113C101.397 43.7564 101.618 43.2242 102.01 42.8318C102.403 42.4394 102.935 42.219 103.49 42.219L104.71 42.2027Z" fill="#A74602"/>
<path d="M103.222 43.375C103.573 43.375 103.911 43.5147 104.16 43.7635C104.408 44.0122 104.548 44.3495 104.548 44.7013" stroke="#592D29" stroke-width="0.581202" stroke-miterlimit="10" stroke-linecap="round"/>
<path d="M108.104 42.6885C108.104 42.6885 108.954 42.0573 109.91 42.041" stroke="#EEBDAF" stroke-width="0.464961" stroke-miterlimit="10" stroke-linecap="round"/>
<path d="M109.439 44.2449C109.619 44.2449 109.764 43.9868 109.764 43.6684C109.764 43.3499 109.619 43.0918 109.439 43.0918C109.259 43.0918 109.113 43.3499 109.113 43.6684C109.113 43.9868 109.259 44.2449 109.439 44.2449Z" fill="#592D29"/>
</g>
</g>
<defs>
<filter id="filter0_d_696_2870" x="0.5" y="0.5" width="364" height="162" filterUnits="userSpaceOnUse" color-interpolation-filters="sRGB">
<feFlood flood-opacity="0" result="BackgroundImageFix"/>
<feColorMatrix in="SourceAlpha" type="matrix" values="0 0 0 0 0 0 0 0 0 0 0 0 0 0 0 0 0 0 127 0" result="hardAlpha"/>
<feOffset dy="4"/>
<feGaussianBlur stdDeviation="8.75"/>
<feComposite in2="hardAlpha" operator="out"/>
<feColorMatrix type="matrix" values="0 0 0 0 0 0 0 0 0 0 0 0 0 0 0 0 0 0 0.1 0"/>
<feBlend mode="normal" in2="BackgroundImageFix" result="effect1_dropShadow_696_2870"/>
<feBlend mode="normal" in="SourceGraphic" in2="effect1_dropShadow_696_2870" result="shape"/>
</filter>
<clipPath id="clip0_696_2870">
<rect x="18" y="14" width="329" height="127" rx="20" fill="white"/>
</clipPath>
</defs>
</svg>
