<svg width="46" height="58" viewBox="0 0 46 58" fill="none" xmlns="http://www.w3.org/2000/svg">
<path d="M32.8144 18.5217C32.2522 15.6889 31.1902 14.5865 28.2464 13.2947C26.8848 12.538 26.2378 12.3922 25.4975 13.0708C24.1092 14.7512 24.4903 15.3514 25.8133 16.2321C28.8153 16.4209 30.087 17.1962 32.1002 19.003C32.4906 19.0222 32.6327 18.9164 32.8144 18.5217Z" fill="#141D38"/>
<path d="M8.72191 14.7728C8.72191 14.7728 7.46789 14.8393 7.1108 15.0799C6.7537 15.3206 5.83213 16.3966 5.2091 16.8805C4.52156 17.2116 4.32385 17.1016 3.95509 16.947C3.5305 16.2287 3.41396 15.8251 4.0048 15.0967C4.93508 14.0957 5.5677 13.6023 6.91965 12.8729C7.96811 12.5481 8.91737 12.6219 9.72667 12.798C10.536 12.9741 9.5675 14.4089 8.72191 14.7728Z" fill="#141D38"/>
<path fill-rule="evenodd" clip-rule="evenodd" d="M32.416 22.1642C31.4895 21.6932 26.7851 18.8618 24.3352 19.045C21.5409 17.1358 21.2362 13.7932 21.2943 13.4945C21.3524 13.1958 22.1803 10.8263 24.8828 9.85153C25.5159 9.69079 25.971 9.54008 27.0337 9.95926C31.463 11.6995 33.3873 13.1816 35.613 16.8953C35.99 18.0256 36.0394 18.6509 35.9869 19.7578C35.4693 21.0184 35.1561 21.6815 34.268 22.2139C34.268 22.2139 33.3424 22.6352 32.416 22.1642ZM28.2464 13.2947C31.1902 14.5865 32.2522 15.6889 32.8144 18.5217C32.6327 18.9164 32.4906 19.0222 32.1002 19.003C30.087 17.1962 28.8153 16.4209 25.8133 16.2321C24.4903 15.3514 24.1092 14.7512 25.4975 13.0708C26.2378 12.3922 26.8848 12.538 28.2464 13.2947Z" fill="white"/>
<path fill-rule="evenodd" clip-rule="evenodd" d="M2.15283 15.047C2.59757 14.8044 8.96524 9.48023 11.4456 10.3419C12.2801 11.4372 12.4163 12.2226 11.9054 14.0175C10.1565 15.8132 9.21593 16.563 7.65903 17.0463C4.4188 18.9291 3.39626 19.6292 2.89221 19.2205C1.78434 17.8271 1.7081 15.2896 2.15283 15.047ZM7.1108 15.0799C7.46789 14.8393 8.72191 14.7728 8.72191 14.7728C9.5675 14.4089 10.536 12.9741 9.72667 12.798C8.91737 12.6219 7.96811 12.5481 6.91965 12.8729C5.5677 13.6023 4.93508 14.0957 4.0048 15.0967C3.41396 15.8251 3.5305 16.2287 3.95509 16.947C4.32385 17.1016 4.52156 17.2116 5.2091 16.8805C5.83213 16.3966 6.7537 15.3206 7.1108 15.0799Z" fill="white"/>
<path fill-rule="evenodd" clip-rule="evenodd" d="M6.32308 35.0764C7.88292 35.0037 8.86641 35.0468 10.924 35.35C15.868 36.0376 16.2624 36.1675 18.2593 35.4352L17.0281 37.4654C17.2381 39.1532 17.798 39.797 18.8388 40.9169C19.713 39.5333 20.1032 38.7112 20.4912 37.208L18.2593 35.4352C18.9858 35.1688 19.9244 34.7882 21.3713 34.2789C21.8111 34.0129 22.2141 33.7854 22.6204 33.5916C21.7322 34.928 21.4012 35.7389 21.3881 37.3821C22.1742 38.5158 22.6251 38.9569 23.4313 39.6389C23.9107 38.6496 24.152 37.9691 24.4276 36.1125C24.0302 35.0572 23.5945 34.5147 22.6204 33.5916C23.8089 33.0246 25.0262 32.7457 27.276 32.6357C28.0763 32.7231 28.3013 33.0672 28.5965 33.8222L28.6714 36.6266C23.3231 41.9786 19.6175 43.1212 12.22 43.0415C9.23945 42.5447 7.6684 42.0474 5.33512 40.1544C5.97862 39.2563 6.31396 37.7946 5.73352 36.5119C5.51516 36.025 5.55775 35.7252 6.32308 35.0764ZM14.3457 38.4944C13.6331 37.4433 13.1758 36.964 12.3026 36.2377C11.4029 36.8705 11.04 37.2766 10.6999 38.0964C10.7218 39.6214 11.0651 40.3948 11.8545 41.7304C13.0932 40.5976 13.6239 39.8781 14.3457 38.4944ZM8.05882 35.7235C8.47329 36.5281 8.70484 36.9795 8.54894 37.9886C8.2599 39.332 7.95735 39.5738 7.30332 39.6067L6.8132 37.3416C7.04308 36.603 7.3731 36.2733 8.05882 35.7235ZM25.7398 35.7473L26.1634 36.7596L27.3012 37.2905L27.4671 34.8428L25.9057 33.2996L25.7398 35.7473Z" fill="white"/>
<path fill-rule="evenodd" clip-rule="evenodd" d="M6.01672 44.6266C4.24636 42.968 3.91147 41.9968 4.08143 40.2209C5.02564 37.4674 4.12061 37.1417 3.45828 35.45C3.70463 34.8312 3.90794 34.5163 4.64578 34.1306C2.13433 32.689 1.21064 31.8484 0.742278 30.2726C0.581124 28.0984 0.76681 26.5522 1.49503 25.459C2.14764 24.5446 3.31623 24.0468 4.57963 23.8411C5.16622 23.7455 5.77324 23.7129 6.35854 23.7307C7.76037 23.7734 9.03761 24.1055 9.61113 24.5553C11.7554 27.0193 12.6287 28.6469 14.6692 32.0474C17.117 32.1795 18.2946 32.0773 20.0424 31.5409C24.0088 28.4443 26.6112 27.8891 31.7935 28.5532C34.8842 29.4385 35.6457 30.9773 35.4148 35.4563C29.4192 42.3517 15.2353 48.2769 6.01672 44.6266ZM10.924 35.35C8.86641 35.0468 7.88292 35.0037 6.32308 35.0764C5.55775 35.7252 5.51516 36.025 5.73352 36.5119C6.31396 37.7946 5.97862 39.2563 5.33512 40.1544C7.6684 42.0474 9.23945 42.5447 12.22 43.0415C19.6175 43.1212 23.3231 41.9786 28.6714 36.6266L28.5965 33.8222C28.3013 33.0672 28.0763 32.7231 27.276 32.6357C25.0262 32.7457 23.8089 33.0246 22.6204 33.5916C22.2141 33.7854 21.8111 34.0129 21.3713 34.2789C19.9244 34.7882 18.9858 35.1688 18.2593 35.4352C16.2624 36.1675 15.868 36.0376 10.924 35.35Z" fill="#DB3319"/>
<path d="M18.2593 35.4352L20.4912 37.208C20.1032 38.7112 19.713 39.5333 18.8388 40.9169C17.798 39.797 17.2381 39.1532 17.0281 37.4654L18.2593 35.4352Z" fill="#141D38"/>
<path d="M24.4276 36.1125C24.152 37.9691 23.9107 38.6496 23.4313 39.6389C22.6251 38.9569 22.1742 38.5158 21.3881 37.3821C21.4012 35.7389 21.7322 34.928 22.6204 33.5916C23.5945 34.5147 24.0302 35.0572 24.4276 36.1125Z" fill="#141D38"/>
<path d="M26.1634 36.7596L25.7398 35.7473L25.9057 33.2996L27.4671 34.8428L27.3012 37.2905L26.1634 36.7596Z" fill="#141D38"/>
<path d="M12.3026 36.2377C13.1758 36.964 13.6331 37.4433 14.3457 38.4944C13.6239 39.8781 13.0932 40.5976 11.8545 41.7304C11.0651 40.3948 10.7218 39.6214 10.6999 38.0964C11.04 37.2766 11.4029 36.8705 12.3026 36.2377Z" fill="#141D38"/>
<path d="M8.54894 37.9886C8.70484 36.9795 8.47329 36.5281 8.05882 35.7235C7.3731 36.2733 7.04308 36.603 6.8132 37.3416L7.30332 39.6067C7.95735 39.5738 8.2599 39.332 8.54894 37.9886Z" fill="#141D38"/>
<path d="M18.3564 29.0436C17.8736 25.8712 17.3261 24.205 15.9891 22.074C15.2623 21.8888 15.1196 22.0637 14.9759 22.4972C16.3129 24.6282 16.8605 26.2944 17.3432 29.4668C17.9445 29.6461 18.1637 29.5415 18.3564 29.0436Z" fill="white"/>
<path d="M21.7445 25.9817C21.2618 22.8093 19.5184 20.9108 18.1813 18.7798C17.4546 18.5946 17.3118 18.7695 17.1682 19.2031C18.5052 21.3341 20.2486 23.2325 20.7314 26.4049C21.3327 26.5842 21.5518 26.4796 21.7445 25.9817Z" fill="white"/>
<path d="M14.261 11.8186C11.1414 17.7051 9.57856 19.5901 6.35854 23.7307C5.77324 23.7129 5.16622 23.7455 4.57963 23.8411C7.57714 20.0589 9.52042 17.7526 11.9054 14.0175C12.3711 13.2882 12.8536 12.5044 13.3641 11.6445C13.8557 11.3323 14.044 11.3826 14.261 11.8186Z" fill="white"/>
<path d="M3.50696 22.4398C4.29942 21.07 5.01758 20.3827 7.1276 18.1831C7.87407 17.7767 7.57728 18.4466 7.60932 18.8966C6.31261 20.4782 5.87619 21.0991 4.4039 22.614C3.55717 22.6989 3.42986 22.6394 3.50696 22.4398Z" fill="white"/>
<path d="M10.59 6.76582C8.15081 7.55072 7.19592 8.32722 5.64883 9.83613C5.70728 10.3683 5.86852 10.5463 6.42952 10.6077C8.04438 9.74934 9.07477 9.04363 11.0717 7.47936C11.1182 7.12397 11.0215 6.96474 10.59 6.76582Z" fill="white"/>
<path d="M36.1276 12.6553C33.8566 10.1175 32.4887 8.81097 29.8239 6.78123C29.0587 6.84635 28.9102 7.03157 29.0516 7.56122C31.7164 9.59097 33.0843 10.8974 35.3553 13.4353C35.8248 13.3552 36.0055 13.1961 36.1276 12.6553Z" fill="white"/>
<path d="M37.6144 11.3941C35.3434 8.85623 33.9755 7.54976 31.3107 5.52001C30.5455 5.58513 30.397 5.77035 30.5384 6.30001C33.2032 8.32975 34.5711 9.63623 36.8421 12.1741C37.3116 12.0939 37.4923 11.9349 37.6144 11.3941Z" fill="white"/>
<path d="M39.707 11.8005L41.26 11.7921L41.1269 9.28631C41.9746 9.20136 42.9501 9.50694 43.3941 8.79663L43.3276 7.54375C42.2307 6.33616 41.5742 5.57146 41.1598 4.33283C39.3158 5.69523 38.381 6.08721 37.7717 7.39474C37.8851 8.10372 38.0532 8.48642 38.6502 9.09339L39.632 8.996L39.707 11.8005Z" fill="white"/>
<path fill-rule="evenodd" clip-rule="evenodd" d="M38.1571 56.4483C24.8511 59.0607 17.8726 58.5883 6.48233 53.3968L6.01672 44.6266C15.2353 48.2769 29.4192 42.3517 35.4148 35.4563C35.6457 30.9773 34.8842 29.4385 31.7935 28.5532C26.6112 27.8891 24.0088 28.4443 20.0424 31.5409C18.2946 32.0773 17.117 32.1795 14.6692 32.0474C12.6287 28.6469 11.7554 27.0193 9.61113 24.5553C9.03761 24.1055 7.76037 23.7734 6.35854 23.7307C9.57856 19.5901 11.1414 17.7051 14.261 11.8186C14.044 11.3826 13.8557 11.3323 13.3641 11.6445C12.8536 12.5044 12.3711 13.2882 11.9054 14.0175C12.4163 12.2226 12.2801 11.4372 11.4456 10.3419C8.96524 9.48023 2.59757 14.8044 2.15283 15.047C1.7081 15.2896 1.78434 17.8271 2.89221 19.2205C3.39626 19.6292 4.4188 18.9291 7.65903 17.0463C9.21593 16.563 10.1565 15.8132 11.9054 14.0175C9.52042 17.7526 7.57714 20.0589 4.57963 23.8411C3.31623 24.0468 2.14764 24.5446 1.49503 25.459C0.131974 21.4704 0.208772 19.1442 1.5552 14.9309C4.82526 10.6287 6.22384 8.11726 8.1236 3.49685C10.5071 0.946444 12.9485 1.02393 15.9467 3.15618C21.6045 1.39215 25.2424 1.69951 31.4851 4.62382C35.8456 -1.30525 41.2512 -0.919319 44.9306 5.68504C46.0853 10.8284 46.087 13.8241 45.0644 19.3507C43.5342 34.2679 42.1481 42.4378 38.1571 56.4483ZM15.9891 22.074C17.3261 24.205 17.8736 25.8712 18.3564 29.0436C18.1637 29.5415 17.9445 29.6461 17.3432 29.4668C16.8605 26.2944 16.3129 24.6282 14.9759 22.4972C15.1196 22.0637 15.2623 21.8888 15.9891 22.074ZM18.1813 18.7798C19.5184 20.9108 21.2618 22.8093 21.7445 25.9817C21.5518 26.4796 21.3327 26.5842 20.7314 26.4049C20.2486 23.2325 18.5052 21.3341 17.1682 19.2031C17.3118 18.7695 17.4546 18.5946 18.1813 18.7798ZM24.3352 19.045C26.7851 18.8618 31.4895 21.6932 32.416 22.1642C33.3424 22.6352 34.268 22.2139 34.268 22.2139C35.1561 21.6815 35.4693 21.0184 35.9869 19.7578C36.0394 18.6509 35.99 18.0256 35.613 16.8953C33.3873 13.1816 31.463 11.6995 27.0337 9.95926C25.971 9.54008 25.5159 9.69079 24.8828 9.85153C22.1803 10.8263 21.3524 13.1958 21.2943 13.4945C21.2362 13.7932 21.5409 17.1358 24.3352 19.045ZM29.8239 6.78123C32.4887 8.81097 33.8566 10.1175 36.1276 12.6553C36.0055 13.1961 35.8248 13.3552 35.3553 13.4353C33.0843 10.8974 31.7164 9.59097 29.0516 7.56122C28.9102 7.03157 29.0587 6.84635 29.8239 6.78123ZM31.3107 5.52001C33.9755 7.54976 35.3434 8.85623 37.6144 11.3941C37.4923 11.9349 37.3116 12.0939 36.8421 12.1741C34.5711 9.63623 33.2032 8.32975 30.5384 6.30001C30.397 5.77035 30.5455 5.58513 31.3107 5.52001ZM7.1276 18.1831C5.01758 20.3827 4.29942 21.07 3.50696 22.4398C3.42986 22.6394 3.55717 22.6989 4.4039 22.614C5.87619 21.0991 6.31261 20.4782 7.60932 18.8966C7.57728 18.4466 7.87407 17.7767 7.1276 18.1831ZM5.64883 9.83613C7.19592 8.32722 8.15081 7.55072 10.59 6.76582C11.0215 6.96474 11.1182 7.12397 11.0717 7.47936C9.07477 9.04363 8.04438 9.74934 6.42952 10.6077C5.86852 10.5463 5.70728 10.3683 5.64883 9.83613ZM41.26 11.7921L39.707 11.8005L39.632 8.996L38.6502 9.09339C38.0532 8.48642 37.8851 8.10372 37.7717 7.39474C38.381 6.08721 39.3158 5.69523 41.1598 4.33283C41.5742 5.57146 42.2307 6.33616 43.3276 7.54375L43.3941 8.79663C42.9501 9.50694 41.9746 9.20136 41.1269 9.28631L41.26 11.7921Z" fill="#16488D"/>
</svg>
