<svg width="91.5" height="114.5" viewBox="0 0 183 229" fill="none" xmlns="http://www.w3.org/2000/svg">
<path d="M49.1228 40.8652C50.059 36.1443 51.8277 34.3072 56.7302 32.1544C58.9978 30.8933 60.0753 30.6504 61.3081 31.7813C63.6201 34.5816 62.9854 35.5818 60.7822 37.0495C55.7828 37.3641 53.6649 38.6561 50.3122 41.6672C49.662 41.6992 49.4253 41.5229 49.1228 40.8652Z" fill="#141D38"/>
<path d="M89.2456 34.6177C89.2456 34.6177 91.3341 34.7284 91.9287 35.1294C92.5234 35.5305 94.0582 37.3237 95.0958 38.1302C96.2408 38.6819 96.57 38.4986 97.1842 38.2409C97.8912 37.0438 98.0853 36.3713 97.1014 35.1574C95.5521 33.4892 94.4986 32.667 92.2471 31.4514C90.501 30.9101 88.9201 31.0332 87.5724 31.3266C86.2246 31.6201 87.8374 34.0111 89.2456 34.6177Z" fill="#141D38"/>
<path fill-rule="evenodd" clip-rule="evenodd" d="M49.7863 46.9354C51.3292 46.1505 59.1638 41.4319 63.2438 41.7372C67.8973 38.5556 68.4048 32.9852 68.308 32.4874C68.2113 31.9896 66.8324 28.0407 62.3319 26.4163C61.2775 26.1485 60.5196 25.8973 58.7498 26.5959C51.3734 29.496 48.1687 31.9658 44.4621 38.1547C43.8343 40.0384 43.752 41.0805 43.8394 42.9251C44.7014 45.0259 45.2231 46.1309 46.7021 47.0182C46.7021 47.0182 48.2434 47.7203 49.7863 46.9354ZM56.7302 32.1544C51.8277 34.3072 50.059 36.1443 49.1228 40.8652C49.4253 41.5229 49.662 41.6992 50.3122 41.6672C53.6649 38.6561 55.7828 37.3641 60.7822 37.0495C62.9854 35.5818 63.6201 34.5816 61.3081 31.7813C60.0753 30.6504 58.9978 30.8933 56.7302 32.1544Z" fill="white"/>
<path fill-rule="evenodd" clip-rule="evenodd" d="M100.186 35.0745C99.4449 34.6702 88.8404 25.7976 84.7097 27.2335C83.32 29.0588 83.0931 30.3678 83.944 33.359C86.8565 36.3515 88.4229 37.6009 91.0157 38.4065C96.4119 41.5441 98.1148 42.7108 98.9542 42.0297C100.799 39.7076 100.926 35.4788 100.186 35.0745ZM91.9287 35.1294C91.3341 34.7284 89.2456 34.6177 89.2456 34.6177C87.8374 34.0111 86.2246 31.6201 87.5724 31.3266C88.9201 31.0332 90.501 30.9101 92.2471 31.4514C94.4986 32.667 95.5521 33.4892 97.1014 35.1574C98.0853 36.3713 97.8912 37.0438 97.1842 38.2409C96.57 38.4986 96.2408 38.6819 95.0958 38.1302C94.0582 37.3237 92.5234 35.5305 91.9287 35.1294Z" fill="white"/>
<path fill-rule="evenodd" clip-rule="evenodd" d="M93.2406 68.4535C90.6429 68.3324 89.005 68.4042 85.5784 68.9094C77.3448 70.0553 76.6879 70.2718 73.3623 69.0515L75.4128 72.4347C75.0631 75.2475 74.1307 76.3204 72.3973 78.1867C70.9415 75.8809 70.2916 74.5109 69.6454 72.0057L73.3623 69.0515C72.1525 68.6075 70.5894 67.9733 68.1797 67.1244C67.4474 66.6812 66.7763 66.3021 66.0995 65.979C67.5787 68.2062 68.1299 69.5575 68.1517 72.296C66.8426 74.1853 66.0917 74.9203 64.7492 76.0568C63.9507 74.4082 63.5489 73.2741 63.0899 70.1801C63.7518 68.4215 64.4774 67.5174 66.0995 65.979C64.1203 65.0342 62.093 64.5694 58.3463 64.3861C57.0135 64.5318 56.6388 65.1051 56.1472 66.3633L56.0224 71.037C64.9294 79.9559 71.1004 81.8602 83.4201 81.7272C88.3838 80.8993 91.0001 80.0707 94.8859 76.916C93.8142 75.4193 93.2558 72.9834 94.2224 70.8457C94.5861 70.0343 94.5151 69.5347 93.2406 68.4535ZM79.8799 74.1496C81.0667 72.398 81.8283 71.5992 83.2825 70.3888C84.7808 71.4433 85.3851 72.1201 85.9516 73.4863C85.915 76.0276 85.3433 77.3165 84.0287 79.5424C81.9659 77.6546 81.0819 76.4554 79.8799 74.1496ZM90.3499 69.5319C89.6597 70.8727 89.2741 71.6249 89.5337 73.3067C90.0151 75.5455 90.5189 75.9484 91.6081 76.0032L92.4243 72.2284C92.0415 70.9976 91.4919 70.448 90.3499 69.5319ZM60.9047 69.5716L60.1992 71.2585L58.3044 72.1433L58.028 68.0642L60.6283 65.4925L60.9047 69.5716Z" fill="white"/>
<path fill-rule="evenodd" clip-rule="evenodd" d="M93.7508 84.3689C96.6991 81.6048 97.2568 79.9863 96.9737 77.0267C95.4013 72.4381 96.9085 71.8954 98.0115 69.0761C97.6013 68.0449 97.2627 67.5201 96.0339 66.8774C100.216 64.4749 101.755 63.0741 102.535 60.448C102.803 56.8247 102.494 54.2479 101.281 52.4261C100.194 50.9022 98.2481 50.0728 96.1441 49.7298C95.1672 49.5706 94.1563 49.5163 93.1815 49.546C90.847 49.6171 88.7199 50.1705 87.7648 50.9201C84.1938 55.0264 82.7394 57.7387 79.3412 63.4057C75.2647 63.6258 73.3036 63.4555 70.3929 62.5616C63.7874 57.4011 59.4534 56.4759 50.8229 57.5826C45.6759 59.0579 44.4076 61.6223 44.7921 69.0866C54.7771 80.5778 78.3985 90.4521 93.7508 84.3689ZM85.5784 68.9094C89.005 68.4042 90.6429 68.3324 93.2406 68.4535C94.5151 69.5347 94.5861 70.0343 94.2224 70.8457C93.2558 72.9834 93.8142 75.4193 94.8859 76.916C91.0001 80.0707 88.3838 80.8993 83.4201 81.7272C71.1004 81.8602 64.9294 79.9559 56.0224 71.037L56.1472 66.3633C56.6388 65.1051 57.0135 64.5318 58.3463 64.3861C62.093 64.5694 64.1203 65.0342 66.0995 65.979C66.7763 66.3021 67.4474 66.6812 68.1797 67.1244C70.5894 67.9733 72.1525 68.6075 73.3623 69.0515C76.6879 70.2718 77.3448 70.0553 85.5784 68.9094Z" fill="#DB3319"/>
<path d="M73.3623 69.0515L69.6454 72.0057C70.2916 74.5109 70.9415 75.8809 72.3973 78.1867C74.1307 76.3204 75.0631 75.2475 75.4128 72.4347L73.3623 69.0515Z" fill="#141D38"/>
<path d="M63.0899 70.1801C63.5489 73.2741 63.9507 74.4082 64.7492 76.0568C66.0917 74.9203 66.8426 74.1853 68.1517 72.296C68.1299 69.5575 67.5787 68.2062 66.0995 65.979C64.4774 67.5174 63.7518 68.4215 63.0899 70.1801Z" fill="#141D38"/>
<path d="M60.1992 71.2585L60.9047 69.5716L60.6283 65.4925L58.028 68.0642L58.3044 72.1433L60.1992 71.2585Z" fill="#141D38"/>
<path d="M83.2825 70.3888C81.8283 71.5992 81.0667 72.398 79.8799 74.1496C81.0819 76.4554 81.9659 77.6546 84.0287 79.5424C85.3433 77.3165 85.915 76.0276 85.9516 73.4863C85.3851 72.1201 84.7808 71.4433 83.2825 70.3888Z" fill="#141D38"/>
<path d="M89.5337 73.3067C89.2741 71.6249 89.6597 70.8727 90.3499 69.5319C91.4919 70.448 92.0415 70.9976 92.4243 72.2284L91.6081 76.0032C90.5189 75.9484 90.0151 75.5455 89.5337 73.3067Z" fill="#141D38"/>
<path d="M73.2007 58.3998C74.0047 53.113 74.9165 50.3363 77.1432 46.785C78.3535 46.4764 78.5912 46.7679 78.8304 47.4903C76.6038 51.0417 75.692 53.8184 74.888 59.1051C73.8866 59.4039 73.5217 59.2296 73.2007 58.3998Z" fill="white"/>
<path d="M67.5582 53.2971C68.3621 48.0104 71.2656 44.8467 73.4922 41.2953C74.7026 40.9867 74.9402 41.2781 75.1795 42.0006C72.9529 45.5519 70.0494 48.7157 69.2455 54.0024C68.2441 54.3012 67.8791 54.1269 67.5582 53.2971Z" fill="white"/>
<path d="M80.021 29.6945C85.2162 39.5043 87.819 42.6456 93.1815 49.546C94.1563 49.5163 95.1672 49.5706 96.1441 49.7298C91.1521 43.4268 87.9158 39.5835 83.944 33.359C83.1685 32.1435 82.3649 30.8373 81.5147 29.4042C80.6959 28.8841 80.3825 28.9679 80.021 29.6945Z" fill="white"/>
<path d="M97.9304 47.3947C96.6107 45.1119 95.4147 43.9664 91.9008 40.3009C90.6576 39.6236 91.1519 40.74 91.0985 41.49C93.258 44.1257 93.9848 45.1603 96.4367 47.685C97.8468 47.8264 98.0588 47.7273 97.9304 47.3947Z" fill="white"/>
<path d="M86.1346 21.274C90.1967 22.5821 91.787 23.8761 94.3635 26.3907C94.2661 27.2775 93.9976 27.5742 93.0633 27.6765C90.374 26.246 88.658 25.07 85.3323 22.4631C85.2549 21.8709 85.416 21.6055 86.1346 21.274Z" fill="white"/>
<path d="M43.605 31.0888C47.3872 26.8595 49.6653 24.6823 54.103 21.2997C55.3774 21.4082 55.6247 21.7169 55.3892 22.5996C50.9514 25.9821 48.6733 28.1594 44.8912 32.3887C44.1093 32.2551 43.8084 31.99 43.605 31.0888Z" fill="white"/>
<path d="M41.129 28.987C44.9111 24.7577 47.1892 22.5804 51.627 19.1979C52.9014 19.3064 53.1486 19.6151 52.9131 20.4977C48.4753 23.8803 46.1972 26.0575 42.4151 30.2869C41.6333 30.1533 41.3323 29.8882 41.129 28.987Z" fill="white"/>
<path d="M37.6442 29.6643L35.0578 29.6503L35.2794 25.4744C33.8676 25.3328 32.2431 25.8421 31.5037 24.6584L31.6145 22.5704C33.4411 20.558 34.5345 19.2836 35.2246 17.2195C38.2955 19.4899 39.8524 20.1431 40.8671 22.3221C40.6782 23.5036 40.3982 24.1414 39.4041 25.1529L37.7689 24.9906L37.6442 29.6643Z" fill="white"/>
<path fill-rule="evenodd" clip-rule="evenodd" d="M40.2253 104.07C62.3846 108.423 74.0063 107.636 92.9754 98.9844L93.7508 84.3689C78.3985 90.4521 54.7771 80.5778 44.7921 69.0866C44.4076 61.6223 45.6759 59.0579 50.8229 57.5826C59.4534 56.4759 63.7874 57.4011 70.3929 62.5616C73.3036 63.4555 75.2647 63.6258 79.3412 63.4057C82.7394 57.7387 84.1938 55.0264 87.7648 50.9201C88.7199 50.1705 90.847 49.6171 93.1815 49.546C87.819 42.6456 85.2162 39.5043 80.021 29.6945C80.3825 28.9679 80.6959 28.8841 81.5147 29.4042C82.3649 30.8373 83.1685 32.1435 83.944 33.359C83.0931 30.3678 83.32 29.0588 84.7097 27.2335C88.8404 25.7976 99.4449 34.6702 100.186 35.0745C100.926 35.4788 100.799 39.7076 98.9542 42.0297C98.1148 42.7108 96.4119 41.5441 91.0157 38.4065C88.4229 37.6009 86.8565 36.3515 83.944 33.359C87.9158 39.5835 91.1521 43.4268 96.1441 49.7298C98.2481 50.0728 100.194 50.9022 101.281 52.4261C103.551 45.7791 103.423 41.9025 101.181 34.8811C95.735 27.7116 93.4059 23.5262 90.2421 15.8263C86.2727 11.5761 82.2067 11.7052 77.2137 15.2586C67.7914 12.3188 61.733 12.831 51.3366 17.7044C44.0747 7.82361 35.0724 8.46677 28.9448 19.4729C27.0218 28.0443 27.0191 33.0367 28.7221 42.2467C31.2703 67.1061 33.5787 80.7212 40.2253 104.07ZM77.1432 46.785C74.9165 50.3363 74.0047 53.113 73.2007 58.3998C73.5217 59.2296 73.8866 59.4039 74.888 59.1051C75.692 53.8184 76.6038 51.0417 78.8304 47.4903C78.5912 46.7679 78.3535 46.4764 77.1432 46.785ZM73.4922 41.2953C71.2656 44.8467 68.3621 48.0104 67.5582 53.2971C67.8791 54.1269 68.2441 54.3012 69.2455 54.0024C70.0494 48.7157 72.9529 45.5519 75.1795 42.0006C74.9402 41.2781 74.7026 40.9867 73.4922 41.2953ZM63.2438 41.7372C59.1638 41.4319 51.3292 46.1505 49.7863 46.9354C48.2434 47.7203 46.7021 47.0182 46.7021 47.0182C45.2231 46.1309 44.7014 45.0259 43.8394 42.9251C43.752 41.0805 43.8343 40.0384 44.4621 38.1547C48.1687 31.9658 51.3734 29.496 58.7498 26.5959C60.5196 25.8973 61.2775 26.1485 62.3319 26.4163C66.8324 28.0407 68.2113 31.9896 68.308 32.4874C68.4048 32.9852 67.8973 38.5556 63.2438 41.7372ZM54.103 21.2997C49.6653 24.6823 47.3872 26.8595 43.605 31.0888C43.8084 31.99 44.1093 32.2551 44.8912 32.3887C48.6733 28.1594 50.9514 25.9821 55.3892 22.5996C55.6247 21.7169 55.3774 21.4082 54.103 21.2997ZM51.627 19.1979C47.1892 22.5804 44.9111 24.7577 41.129 28.987C41.3323 29.8882 41.6333 30.1533 42.4151 30.2869C46.1972 26.0575 48.4753 23.8803 52.9131 20.4977C53.1486 19.6151 52.9014 19.3064 51.627 19.1979ZM91.9008 40.3009C95.4147 43.9664 96.6107 45.1119 97.9304 47.3947C98.0588 47.7273 97.8468 47.8264 96.4367 47.685C93.9848 45.1603 93.258 44.1257 91.0985 41.49C91.1519 40.74 90.6576 39.6236 91.9008 40.3009ZM94.3635 26.3907C91.787 23.8761 90.1967 22.5821 86.1346 21.274C85.416 21.6055 85.2549 21.8709 85.3323 22.4631C88.658 25.07 90.374 26.246 93.0633 27.6765C93.9976 27.5742 94.2661 27.2775 94.3635 26.3907ZM35.0578 29.6503L37.6442 29.6643L37.7689 24.9906L39.4041 25.1529C40.3982 24.1414 40.6782 23.5036 40.8671 22.3221C39.8524 20.1431 38.2955 19.4899 35.2246 17.2195C34.5345 19.2836 33.4411 20.558 31.6145 22.5704L31.5037 24.6584C32.2431 25.8421 33.8676 25.3328 35.2794 25.4744L35.0578 29.6503Z" fill="#F2AF2A"/>
<path d="M107.412 128.561L126.858 201.134L53.8735 220.69C52.5005 221.058 51.0685 221.152 49.6593 220.966C48.2501 220.78 46.8913 220.319 45.6606 219.607C44.4299 218.896 43.3514 217.949 42.4867 216.821C41.6221 215.693 40.9883 214.405 40.6215 213.032L23.9778 150.917L107.412 128.561Z" fill="black"/>
<path d="M106.641 125.837L22.6289 148.348C22.5685 148.363 22.5106 148.386 22.457 148.418L0.0319824 136.377L84.2469 113.812L106.641 125.837Z" fill="black"/>
<path d="M155.362 94.7563L141.973 116.393C141.911 116.393 141.849 116.402 141.789 116.419L109.765 125L123.146 103.389L155.362 94.7563Z" fill="black"/>
<path d="M141.893 119.322L158.527 181.401C159.272 184.184 158.881 187.15 157.44 189.646C155.999 192.141 153.625 193.962 150.842 194.708L129.895 200.32L110.449 127.747L141.893 119.322Z" fill="black"/>
<path d="M109.875 126.592L129.321 199.165L56.3369 218.721C54.9639 219.089 53.5319 219.183 52.1227 218.997C50.7134 218.811 49.3546 218.35 48.1239 217.639C46.8932 216.927 45.8148 215.981 44.9501 214.852C44.0855 213.724 43.4517 212.437 43.0849 211.063L26.4412 148.948L109.875 126.592Z" fill="white"/>
<path d="M109.103 123.868L25.0913 146.379C25.0309 146.394 24.973 146.417 24.9194 146.449L2.49438 134.408L86.7093 111.843L109.103 123.868Z" fill="white"/>
<path d="M157.824 92.7886L144.434 114.426C144.372 114.425 144.31 114.434 144.251 114.451L112.226 123.032L125.607 101.421L157.824 92.7886Z" fill="white"/>
<path d="M144.356 117.353L160.99 179.432C161.735 182.216 161.344 185.181 159.903 187.677C158.462 190.172 156.089 191.993 153.305 192.739L132.358 198.352L112.912 125.778L144.356 117.353Z" fill="white"/>
<path d="M24.1632 101.448L31.8399 109.574H16.4864L24.1632 101.448Z" fill="#F2AF2A"/>
<path d="M24.0592 112.38L31.3598 111.851L23.8648 119.697L24.0592 112.38Z" fill="#F2AF2A"/>
<path d="M105.363 86.6163L105.707 99.6555L118.402 86.9609L105.363 86.6163Z" fill="#F2AF2A"/>
<path d="M114.561 95.5022L108.051 101.132L120.806 101.424L114.561 95.5022Z" fill="#F2AF2A"/>
</svg>
