<svg width="151" height="197" viewBox="0 0 151 197" fill="none" xmlns="http://www.w3.org/2000/svg">
<path d="M144.469 191.108C140.169 191.108 137.858 188.528 137.858 184.094C137.858 179.553 140.411 176.893 144.684 176.893C148.822 176.893 150.999 179.338 150.999 183.799V184.632H141.728C141.862 187.158 142.83 188.34 144.657 188.34C146.189 188.34 147.022 187.587 147.317 186.378H150.945C150.542 189.2 148.311 191.108 144.469 191.108ZM141.809 182.428H147.237C146.995 180.44 146.135 179.472 144.576 179.472C143.018 179.472 142.104 180.413 141.809 182.428Z" fill="#F2AF2A"/>
<path d="M127.639 191.108C124.576 191.108 122.936 189.388 122.936 186.405V177.188H126.725V185.653C126.725 187.265 127.478 188.152 128.929 188.152C130.541 188.152 131.67 187.05 131.67 185.142V177.188H135.485V190.839H132.503V189.791L132.771 188.501H132.449C131.777 189.845 130.245 191.108 127.639 191.108Z" fill="#F2AF2A"/>
<path d="M113.268 196.052C109.237 196.052 107.007 194.278 106.765 191.161H110.554C110.715 192.532 111.628 193.419 113.295 193.419C115.149 193.419 116.116 192.344 116.197 190.221L117.003 188.904L117.298 187.749H116.976C116.277 189.146 114.746 190.409 112.22 190.409C108.619 190.409 106.63 187.856 106.63 183.61C106.63 179.472 108.619 176.893 112.22 176.893C114.746 176.893 116.25 178.129 116.949 179.499H117.298L117.003 178.236V177.188H120.174V189.952C120.174 193.741 117.997 196.052 113.268 196.052ZM110.527 183.637C110.527 186.217 111.548 187.722 113.402 187.722C115.229 187.722 116.25 186.298 116.25 183.637C116.25 181.058 115.229 179.58 113.402 179.58C111.494 179.58 110.527 181.165 110.527 183.637Z" fill="#F2AF2A"/>
<path d="M98.0203 191.108C93.7209 191.108 91.4099 188.528 91.4099 184.094C91.4099 179.553 93.9627 176.893 98.2353 176.893C102.374 176.893 104.55 179.338 104.55 183.799V184.632H95.2794C95.4138 187.158 96.3811 188.34 98.2084 188.34C99.7401 188.34 100.573 187.587 100.869 186.378H104.496C104.093 189.2 101.863 191.108 98.0203 191.108ZM95.36 182.428H100.788C100.546 180.44 99.6863 179.472 98.1278 179.472C96.5692 179.472 95.6556 180.413 95.36 182.428Z" fill="#F2AF2A"/>
<path d="M81.08 190.839V177.188H84.0627V178.209L83.7671 179.875H84.1164C84.627 178.209 86.0243 176.893 88.2815 176.893C88.9533 176.893 89.6251 177 90.1088 177.215V180.762C89.5714 180.601 88.9533 180.466 88.3084 180.466C86.1855 180.466 84.8688 181.891 84.8688 184.309V190.839H81.08Z" fill="#F2AF2A"/>
<path d="M75.7612 191.109C72.6978 191.109 71.0855 189.577 71.0855 186.648V185.036V179.769H68.8821V177.19H71.0855V173.535H74.9013V177.19H78.6096V179.769H74.9013V184.794V186.004C74.9013 187.374 75.6 188.019 77.0242 188.019C77.6422 188.019 78.2065 187.911 78.6902 187.804V190.76C77.9378 190.948 76.9167 191.109 75.7612 191.109Z" fill="#F2AF2A"/>
<path d="M54.3137 190.839V177.188H57.2696V178.236L57.0009 179.526H57.3233C58.022 178.156 59.5537 176.893 62.2408 176.893C65.3579 176.893 67.0508 178.612 67.0508 181.568V190.839H63.2619V182.374C63.2619 180.735 62.4827 179.875 60.9779 179.875C59.2581 179.875 58.1026 180.977 58.1026 182.885V190.839H54.3137Z" fill="#F2AF2A"/>
<path d="M39.1545 190.84V172.299H51.7573V175.497H42.8897V179.85H50.4675V182.886H42.8897V187.669H51.8917V190.84H39.1545Z" fill="#F2AF2A"/>
<path d="M22.8758 175.872C24.8463 175.872 26.3511 176.302 27.3902 177.162C28.4471 178.004 28.9756 179.303 28.9756 181.058V190.839H26.181L25.4017 188.851H25.2942C24.6672 189.639 24.0044 190.212 23.3057 190.571C22.607 190.929 21.6486 191.108 20.4305 191.108C19.1227 191.108 18.0389 190.732 17.179 189.98C16.3191 189.227 15.8892 188.054 15.8892 186.459C15.8892 184.901 16.4355 183.754 17.5283 183.02C18.6211 182.285 20.2603 181.873 22.4458 181.784L24.9986 181.703V181.058C24.9986 180.288 24.7926 179.724 24.3806 179.365C23.9865 179.007 23.4311 178.828 22.7145 178.828C21.998 178.828 21.2993 178.935 20.6186 179.15C19.9378 179.347 19.2571 179.598 18.5763 179.903L17.2596 177.189C18.0299 176.795 18.8988 176.481 19.8661 176.248C20.8335 175.997 21.8367 175.872 22.8758 175.872ZM24.9986 184.041L23.4401 184.095C22.1502 184.131 21.2545 184.363 20.7529 184.793C20.2513 185.223 20.0005 185.788 20.0005 186.486C20.0005 187.095 20.1796 187.534 20.5379 187.803C20.8962 188.054 21.362 188.179 21.9353 188.179C22.7951 188.179 23.5207 187.928 24.1119 187.427C24.703 186.907 24.9986 186.182 24.9986 185.25V184.041ZM28.0351 170.256V170.525C27.7843 170.775 27.4529 171.08 27.0408 171.438C26.6288 171.796 26.181 172.173 25.6973 172.567C25.2315 172.961 24.7657 173.337 24.3 173.695C23.8521 174.036 23.458 174.322 23.1176 174.555H20.4573V174.206C20.744 173.866 21.0754 173.471 21.4516 173.024C21.8457 172.558 22.2219 172.083 22.5802 171.599C22.9564 171.098 23.2788 170.65 23.5476 170.256H28.0351Z" fill="black"/>
<path d="M5.21308 190.84V175.604H0L0 172.299H14.1882V175.604H9.00197V190.84H5.21308Z" fill="black"/>
<path d="M44.8279 29.4877C45.5034 26.0812 46.7796 24.7556 50.3171 23.2022C51.9534 22.2922 52.7309 22.1169 53.6205 22.933C55.2888 24.9536 54.8308 25.6753 53.241 26.7344C49.6336 26.9614 48.1053 27.8937 45.6861 30.0664C45.217 30.0895 45.0461 29.9623 44.8279 29.4877Z" fill="#141D38"/>
<path d="M73.7795 24.9796C73.7795 24.9796 75.2864 25.0595 75.7155 25.3489C76.1446 25.6383 77.2521 26.9322 78.0008 27.5142C78.827 27.9123 79.0646 27.78 79.5077 27.5941C80.0179 26.7303 80.158 26.245 79.448 25.3691C78.3301 24.1654 77.5699 23.5721 75.9452 22.6949C74.6853 22.3044 73.5446 22.3932 72.5721 22.6049C71.5996 22.8166 72.7633 24.542 73.7795 24.9796Z" fill="#141D38"/>
<path fill-rule="evenodd" clip-rule="evenodd" d="M45.3066 33.8678C46.4199 33.3014 52.0732 29.8966 55.0172 30.1169C58.3751 27.8211 58.7413 23.8017 58.6714 23.4425C58.6016 23.0833 57.6067 20.2339 54.3592 19.0618C53.5984 18.8685 53.0515 18.6872 51.7744 19.1913C46.4518 21.284 44.1394 23.0661 41.4648 27.5319C41.0118 28.8911 40.9524 29.643 41.0155 30.9741C41.6374 32.49 42.0139 33.2873 43.0811 33.9275C43.0811 33.9275 44.1933 34.4342 45.3066 33.8678ZM50.3171 23.2022C46.7796 24.7556 45.5034 26.0812 44.8279 29.4877C45.0461 29.9623 45.217 30.0895 45.6861 30.0664C48.1053 27.8937 49.6336 26.9614 53.241 26.7344C54.8308 25.6753 55.2888 24.9536 53.6205 22.933C52.7309 22.1169 51.9534 22.2922 50.3171 23.2022Z" fill="white"/>
<path fill-rule="evenodd" clip-rule="evenodd" d="M81.6735 25.3093C81.139 25.0176 73.4871 18.6153 70.5064 19.6514C69.5037 20.9685 69.34 21.913 69.954 24.0714C72.0555 26.2307 73.1858 27.1323 75.0567 27.7135C78.9505 29.9776 80.1792 30.8195 80.785 30.328C82.1163 28.6524 82.2079 25.601 81.6735 25.3093ZM75.7155 25.3489C75.2864 25.0595 73.7795 24.9796 73.7795 24.9796C72.7633 24.542 71.5996 22.8166 72.5721 22.6049C73.5446 22.3932 74.6853 22.3044 75.9452 22.6949C77.5699 23.5721 78.3301 24.1654 79.448 25.3691C80.158 26.245 80.0179 26.7303 79.5077 27.5941C79.0646 27.78 78.827 27.9123 78.0008 27.5142C77.2521 26.9322 76.1446 25.6383 75.7155 25.3489Z" fill="white"/>
<path fill-rule="evenodd" clip-rule="evenodd" d="M76.6621 49.3947C74.7877 49.3073 73.6058 49.3592 71.1333 49.7237C65.1922 50.5505 64.7181 50.7068 62.3185 49.8262L63.798 52.2675C63.5457 54.2971 62.8729 55.0713 61.6222 56.418C60.5717 54.7541 60.1028 53.7656 59.6365 51.9579L62.3185 49.8262C61.4455 49.5058 60.3176 49.0482 58.5788 48.4357C58.0504 48.1159 57.5661 47.8423 57.0778 47.6092C58.1452 49.2163 58.5429 50.1914 58.5586 52.1674C57.614 53.5306 57.0722 54.061 56.1034 54.8811C55.5273 53.6915 55.2374 52.8731 54.9061 50.6406C55.3837 49.3716 55.9073 48.7192 57.0778 47.6092C55.6497 46.9274 54.1868 46.592 51.4833 46.4598C50.5216 46.5649 50.2512 46.9786 49.8965 47.8865L49.8064 51.2589C56.2335 57.6946 60.6864 59.0686 69.5759 58.9727C73.1576 58.3753 75.0455 57.7774 77.8493 55.501C77.0761 54.421 76.6731 52.6634 77.3706 51.1209C77.633 50.5354 77.5818 50.1749 76.6621 49.3947ZM67.0214 53.5049C67.8778 52.241 68.4273 51.6646 69.4766 50.7911C70.5578 51.5521 70.9938 52.0404 71.4026 53.0262C71.3762 54.86 70.9637 55.79 70.0151 57.3962C68.5266 56.034 67.8888 55.1687 67.0214 53.5049ZM74.5763 50.1729C74.0783 51.1403 73.8 51.6831 73.9873 52.8967C74.3347 54.5121 74.6982 54.8028 75.4842 54.8424L76.0732 52.1186C75.7969 51.2305 75.4003 50.8339 74.5763 50.1729ZM53.3294 50.2015L52.8203 51.4187L51.453 52.0572L51.2536 49.1138L53.1299 47.2581L53.3294 50.2015Z" fill="white"/>
<path fill-rule="evenodd" clip-rule="evenodd" d="M77.0303 60.8789C79.1577 58.8843 79.5601 57.7165 79.3559 55.5809C78.2212 52.2699 79.3088 51.8783 80.1047 49.8439C79.8087 49.0999 79.5644 48.7212 78.6777 48.2574C81.6957 46.5238 82.8057 45.5131 83.3685 43.6182C83.5622 41.0037 83.339 39.1443 82.4639 37.8297C81.6797 36.7301 80.2754 36.1316 78.7572 35.8842C78.0523 35.7693 77.3229 35.7301 76.6195 35.7515C74.935 35.8029 73.4001 36.2021 72.7109 36.743C70.1342 39.706 69.0848 41.6632 66.6327 45.7523C63.6912 45.9112 62.2761 45.7883 60.1758 45.1433C55.4094 41.4196 52.2821 40.752 46.0546 41.5505C42.3406 42.6151 41.4255 44.4655 41.7029 49.8515C48.9078 58.1433 65.9525 65.2684 77.0303 60.8789ZM71.1333 49.7237C73.6058 49.3592 74.7877 49.3073 76.6621 49.3947C77.5818 50.1749 77.633 50.5354 77.3706 51.1209C76.6731 52.6634 77.0761 54.421 77.8493 55.501C75.0455 57.7774 73.1576 58.3753 69.5759 58.9727C60.6864 59.0686 56.2335 57.6946 49.8064 51.2589L49.8965 47.8865C50.2512 46.9786 50.5216 46.5649 51.4833 46.4598C54.1868 46.592 55.6497 46.9274 57.0778 47.6092C57.5661 47.8423 58.0504 48.1159 58.5788 48.4357C60.3176 49.0482 61.4455 49.5058 62.3185 49.8262C64.7181 50.7068 65.1922 50.5505 71.1333 49.7237Z" fill="#DB3319"/>
<path d="M62.3185 49.8262L59.6365 51.9579C60.1028 53.7656 60.5717 54.7541 61.6222 56.418C62.8729 55.0713 63.5457 54.2971 63.798 52.2675L62.3185 49.8262Z" fill="#141D38"/>
<path d="M54.9061 50.6406C55.2374 52.8731 55.5273 53.6915 56.1034 54.8811C57.0722 54.061 57.614 53.5306 58.5586 52.1674C58.5429 50.1914 58.1452 49.2163 57.0778 47.6092C55.9073 48.7192 55.3837 49.3716 54.9061 50.6406Z" fill="#141D38"/>
<path d="M52.8203 51.4187L53.3294 50.2015L53.1299 47.2581L51.2536 49.1138L51.453 52.0572L52.8203 51.4187Z" fill="#141D38"/>
<path d="M69.4766 50.7911C68.4273 51.6646 67.8778 52.241 67.0214 53.5049C67.8888 55.1687 68.5266 56.034 70.0151 57.3962C70.9637 55.79 71.3762 54.86 71.4026 53.0262C70.9938 52.0404 70.5578 51.5521 69.4766 50.7911Z" fill="#141D38"/>
<path d="M73.9873 52.8967C73.8 51.6831 74.0783 51.1403 74.5763 50.1729C75.4003 50.8339 75.7969 51.2305 76.0732 52.1186L75.4842 54.8424C74.6982 54.8028 74.3347 54.5121 73.9873 52.8967Z" fill="#141D38"/>
<path d="M62.2019 42.1402C62.782 38.3254 63.4399 36.3218 65.0466 33.7593C65.92 33.5366 66.0915 33.7469 66.2641 34.2682C64.6574 36.8308 63.9995 38.8344 63.4194 42.6491C62.6968 42.8647 62.4335 42.739 62.2019 42.1402Z" fill="white"/>
<path d="M58.1304 38.4583C58.7105 34.6435 60.8055 32.3606 62.4122 29.798C63.2856 29.5753 63.4571 29.7857 63.6297 30.307C62.023 32.8695 59.928 35.1524 59.3479 38.9672C58.6253 39.1828 58.3619 39.057 58.1304 38.4583Z" fill="white"/>
<path d="M67.1232 21.4272C70.872 28.5057 72.7501 30.7724 76.6195 35.7515C77.3229 35.7301 78.0523 35.7693 78.7572 35.8842C75.1551 31.3361 72.8199 28.5628 69.954 24.0714C69.3944 23.1944 68.8145 22.2518 68.201 21.2178C67.6102 20.8424 67.3841 20.9029 67.1232 21.4272Z" fill="white"/>
<path d="M80.0462 34.1992C79.0939 32.552 78.2309 31.7254 75.6953 29.0805C74.7983 28.5918 75.155 29.3973 75.1165 29.9385C76.6747 31.8404 77.1992 32.5869 78.9684 34.4087C79.9859 34.5107 80.1389 34.4392 80.0462 34.1992Z" fill="white"/>
<path d="M71.5346 15.3512C74.4658 16.295 75.6132 17.2288 77.4724 19.0432C77.4021 19.6832 77.2084 19.8973 76.5342 19.9711C74.5937 18.9389 73.3554 18.0903 70.9557 16.2092C70.8999 15.7819 71.0161 15.5904 71.5346 15.3512Z" fill="white"/>
<path d="M40.8464 22.4333C43.5755 19.3815 45.2193 17.8105 48.4215 15.3697C49.341 15.448 49.5194 15.6707 49.3495 16.3077C46.1473 18.7484 44.5035 20.3195 41.7744 23.3713C41.2103 23.2749 40.9931 23.0836 40.8464 22.4333Z" fill="white"/>
<path d="M39.0597 20.9167C41.7888 17.8649 43.4326 16.2939 46.6348 13.8531C47.5544 13.9314 47.7327 14.1541 47.5628 14.791C44.3607 17.2318 42.7168 18.8029 39.9878 21.8546C39.4236 21.7583 39.2064 21.567 39.0597 20.9167Z" fill="white"/>
<path d="M36.5451 21.4054L34.6789 21.3953L34.8388 18.3821C33.8201 18.2799 32.6479 18.6474 32.1143 17.7932L32.1943 16.2866C33.5123 14.8345 34.3013 13.915 34.7992 12.4255C37.0152 14.0638 38.1386 14.5352 38.8708 16.1075C38.7345 16.96 38.5324 17.4202 37.8151 18.1501L36.6352 18.033L36.5451 21.4054Z" fill="white"/>
<path fill-rule="evenodd" clip-rule="evenodd" d="M38.4076 75.0944C54.3972 78.2359 62.7832 77.6678 76.4708 71.425L77.0303 60.8789C65.9525 65.2684 48.9078 58.1433 41.7029 49.8515C41.4255 44.4655 42.3406 42.6151 46.0546 41.5505C52.2821 40.752 55.4094 41.4196 60.1758 45.1433C62.2761 45.7883 63.6912 45.9112 66.6327 45.7523C69.0848 41.6632 70.1342 39.706 72.7109 36.743C73.4001 36.2021 74.935 35.8029 76.6195 35.7515C72.7501 30.7724 70.872 28.5057 67.1232 21.4272C67.3841 20.9029 67.6102 20.8424 68.201 21.2178C68.8145 22.2518 69.3944 23.1944 69.954 24.0714C69.34 21.913 69.5037 20.9685 70.5064 19.6514C73.4871 18.6153 81.139 25.0176 81.6735 25.3093C82.2079 25.601 82.1163 28.6524 80.785 30.328C80.1792 30.8195 78.9505 29.9776 75.0567 27.7135C73.1858 27.1323 72.0555 26.2307 69.954 24.0714C72.8199 28.5628 75.1551 31.3361 78.7572 35.8842C80.2754 36.1316 81.6797 36.7301 82.4639 37.8297C84.1019 33.0334 84.0096 30.2362 82.3916 25.1697C78.462 19.9964 76.7814 16.9763 74.4985 11.4202C71.6343 8.35338 68.7004 8.44656 65.0975 11.0106C58.2986 8.88934 53.927 9.25894 46.4253 12.7754C41.1853 5.64571 34.6895 6.1098 30.2679 14.0515C28.8803 20.2364 28.8784 23.8388 30.1072 30.4845C31.946 48.4225 33.6116 58.2468 38.4076 75.0944ZM65.0466 33.7593C63.4399 36.3218 62.782 38.3254 62.2019 42.1402C62.4335 42.739 62.6968 42.8647 63.4194 42.6491C63.9995 38.8344 64.6574 36.8308 66.2641 34.2682C66.0915 33.7469 65.92 33.5366 65.0466 33.7593ZM62.4122 29.798C60.8055 32.3606 58.7105 34.6435 58.1304 38.4583C58.3619 39.057 58.6253 39.1828 59.3479 38.9672C59.928 35.1524 62.023 32.8695 63.6297 30.307C63.4571 29.7857 63.2856 29.5753 62.4122 29.798ZM55.0172 30.1169C52.0732 29.8966 46.4199 33.3014 45.3066 33.8678C44.1933 34.4342 43.0811 33.9275 43.0811 33.9275C42.0139 33.2873 41.6374 32.49 41.0155 30.9741C40.9524 29.643 41.0118 28.8911 41.4648 27.5319C44.1394 23.0661 46.4518 21.284 51.7744 19.1913C53.0515 18.6872 53.5984 18.8685 54.3592 19.0618C57.6067 20.2339 58.6016 23.0833 58.6714 23.4425C58.7413 23.8017 58.3751 27.8211 55.0172 30.1169ZM48.4215 15.3697C45.2193 17.8105 43.5755 19.3815 40.8464 22.4333C40.9931 23.0836 41.2103 23.2749 41.7744 23.3713C44.5035 20.3195 46.1473 18.7484 49.3495 16.3077C49.5194 15.6707 49.341 15.448 48.4215 15.3697ZM46.6348 13.8531C43.4326 16.2939 41.7888 17.8649 39.0597 20.9167C39.2064 21.567 39.4236 21.7583 39.9878 21.8546C42.7168 18.8029 44.3607 17.2318 47.5628 14.791C47.7327 14.1541 47.5544 13.9314 46.6348 13.8531ZM75.6953 29.0805C78.2309 31.7254 79.0939 32.552 80.0462 34.1992C80.1389 34.4392 79.9859 34.5107 78.9684 34.4087C77.1992 32.5869 76.6747 31.8404 75.1165 29.9385C75.155 29.3973 74.7983 28.5918 75.6953 29.0805ZM77.4724 19.0432C75.6132 17.2288 74.4658 16.295 71.5346 15.3512C71.0161 15.5904 70.8999 15.7819 70.9557 16.2092C73.3554 18.0903 74.5937 18.9389 76.5342 19.9711C77.2084 19.8973 77.4021 19.6832 77.4724 19.0432ZM34.6789 21.3953L36.5451 21.4054L36.6352 18.033L37.8151 18.1501C38.5324 17.4202 38.7345 16.96 38.8708 16.1075C38.1386 14.5352 37.0152 14.0638 34.7992 12.4255C34.3013 13.915 33.5123 14.8345 32.1943 16.2866L32.1143 17.7932C32.6479 18.6474 33.8201 18.2799 34.8388 18.3821L34.6789 21.3953Z" fill="#F2AF2A"/>
<path d="M86.8874 92.7639L100.919 145.131L48.2554 159.242C47.2646 159.508 46.2313 159.575 45.2145 159.441C44.1976 159.307 43.2171 158.974 42.3291 158.461C41.441 157.948 40.6628 157.264 40.039 156.45C39.4151 155.636 38.9577 154.707 38.693 153.716L26.6834 108.896L86.8874 92.7639Z" fill="black"/>
<path d="M86.3319 90.7987L25.7109 107.042C25.6673 107.053 25.6256 107.07 25.5869 107.092L9.40552 98.4043L70.1729 82.1217L86.3319 90.7987Z" fill="black"/>
<path d="M121.487 68.3722L111.826 83.9849C111.781 83.9847 111.736 83.9909 111.693 84.0032L88.5853 90.195L98.2409 74.6011L121.487 68.3722Z" fill="black"/>
<path d="M111.768 86.0982L123.771 130.893C124.309 132.902 124.026 135.041 122.987 136.842C121.947 138.643 120.234 139.957 118.226 140.495L103.111 144.545L89.0792 92.1777L111.768 86.0982Z" fill="black"/>
<path d="M88.6672 91.3449L102.699 143.712L50.0351 157.823C49.0444 158.089 48.0111 158.156 46.9943 158.022C45.9774 157.888 44.9969 157.555 44.1089 157.042C43.2208 156.529 42.4426 155.845 41.8187 155.031C41.1948 154.217 40.7375 153.288 40.4728 152.297L28.4631 107.477L88.6672 91.3449Z" fill="white"/>
<path d="M88.1097 89.3797L27.4887 105.623C27.4451 105.634 27.4034 105.651 27.3647 105.674L11.1833 96.9854L71.9507 80.7028L88.1097 89.3797Z" fill="white"/>
<path d="M123.265 66.9542L113.604 82.5669C113.559 82.5668 113.514 82.5729 113.471 82.5853L90.3631 88.777L100.019 73.1831L123.265 66.9542Z" fill="white"/>
<path d="M113.547 84.6783L125.55 129.473C126.087 131.482 125.805 133.622 124.765 135.422C123.725 137.223 122.013 138.537 120.004 139.075L104.89 143.125L90.858 90.7578L113.547 84.6783Z" fill="white"/>
<path d="M26.8165 73.2021L32.3558 79.0654H21.2771L26.8165 73.2021Z" fill="#F2AF2A"/>
<path d="M26.7411 81.0905L32.009 80.7085L26.6008 86.3704L26.7411 81.0905Z" fill="#F2AF2A"/>
<path d="M85.4093 62.4995L85.658 71.9083L94.818 62.7482L85.4093 62.4995Z" fill="#F2AF2A"/>
<path d="M92.0454 68.9124L87.3482 72.9746L96.5517 73.1855L92.0454 68.9124Z" fill="#F2AF2A"/>
</svg>
