<svg width="184" height="184" viewBox="0 0 184 216" fill="none" xmlns="http://www.w3.org/2000/svg">
<path d="M95.0448 50.9561H119.824V51.4148C119.824 52.3569 119.448 53.2605 118.777 53.9266C118.107 54.5928 117.198 54.967 116.25 54.967H91.9268V54.0545C91.9265 53.6475 92.007 53.2444 92.1636 52.8683C92.3202 52.4923 92.5499 52.1506 92.8395 51.8628C93.1291 51.575 93.4729 51.3468 93.8514 51.1912C94.2298 51.0356 94.6353 50.9557 95.0448 50.9561Z" fill="#DB3319"/>
<path d="M173.265 92.0002C178.669 92.0002 183.05 87.6458 183.05 82.2745C183.05 76.9032 178.669 72.5488 173.265 72.5488C167.861 72.5488 163.479 76.9032 163.479 82.2745C163.479 87.6458 167.861 92.0002 173.265 92.0002Z" fill="#DB3319"/>
<path d="M165.362 88.0115C163.936 86.0679 163.286 83.6681 163.536 81.2755C163.786 78.8829 164.919 76.6673 166.717 75.0567C168.515 73.4461 170.849 72.5547 173.269 72.5547C175.69 72.5547 178.024 73.446 179.822 75.0566L165.362 88.0115Z" fill="#59221D"/>
<path d="M173.265 85.0625C174.813 85.0625 176.067 83.8153 176.067 82.2768C176.067 80.7384 174.813 79.4912 173.265 79.4912C171.717 79.4912 170.462 80.7384 170.462 82.2768C170.462 83.8153 171.717 85.0625 173.265 85.0625Z" stroke="white" stroke-width="0.315974" stroke-miterlimit="10"/>
<path d="M83.923 92.0002C89.3273 92.0002 93.7084 87.6458 93.7084 82.2745C93.7084 76.9032 89.3273 72.5488 83.923 72.5488C78.5187 72.5488 74.1377 76.9032 74.1377 82.2745C74.1377 87.6458 78.5187 92.0002 83.923 92.0002Z" fill="#DB3319"/>
<path d="M74.6445 79.1757C75.3848 76.9893 76.8828 75.1356 78.8711 73.9454C80.8594 72.7552 83.2085 72.3061 85.4992 72.6782C87.7898 73.0502 89.8729 74.2193 91.3765 75.9767C92.8801 77.7341 93.7063 79.9653 93.7078 82.2722L74.6445 79.1757Z" fill="#59221D"/>
<path d="M83.9277 85.0625C85.4756 85.0625 86.7304 83.8153 86.7304 82.2768C86.7304 80.7384 85.4756 79.4912 83.9277 79.4912C82.3798 79.4912 81.125 80.7384 81.125 82.2768C81.125 83.8153 82.3798 85.0625 83.9277 85.0625Z" stroke="white" stroke-width="0.315974" stroke-miterlimit="10"/>
<path d="M159.313 35.6868C159.313 36.7885 158.919 37.8543 158.2 38.6934C157.482 39.5325 156.487 40.0902 155.392 40.2665C154.298 40.4429 153.177 40.2265 152.228 39.656C151.28 39.0855 150.567 38.1982 150.217 37.1529L158.094 32.5605C158.88 33.4143 159.315 34.5298 159.313 35.6868Z" fill="#F2AF2A"/>
<path d="M158.093 32.5603L150.216 37.1526C149.878 36.1438 149.898 35.0501 150.275 34.0547C150.651 33.0592 151.36 32.2225 152.283 31.6845C153.205 31.1465 154.286 30.9399 155.344 31.0993C156.402 31.2588 157.372 31.7745 158.093 32.5603Z" fill="white" stroke="#59221D" stroke-width="0.315974" stroke-miterlimit="10" stroke-linecap="round"/>
<path d="M111.968 81.3193V54.9671H93.6441C80.3522 54.9671 69.292 65.1232 68.2461 78.2929H91.1358C92.6756 78.293 94.1982 78.6152 95.6045 79.2385C97.0108 79.8618 98.2694 80.7723 99.2985 81.9108L102.628 85.5944C103.289 86.3256 104.097 86.9103 105 87.3106C105.903 87.7108 106.88 87.9176 107.869 87.9175H153.654C155.469 87.9174 157.251 87.4362 158.817 86.5234L183.564 72.0929C183.564 72.0929 180.878 63.4889 169.718 65.7936L150.591 34.6962C150.242 34.1289 149.752 33.6603 149.169 33.3351C148.585 33.0099 147.928 32.839 147.259 32.8389H143.704V34.5413H145.206C145.957 34.5411 146.693 34.7563 147.324 35.161C147.956 35.5657 148.456 36.1429 148.766 36.8233L160.445 62.4873C165.253 73.0503 157.481 85.0225 145.817 85.0225H115.692C115.203 85.0225 114.718 84.9267 114.266 84.7406C113.814 84.5545 113.404 84.2817 113.058 83.9378C112.712 83.5939 112.438 83.1856 112.251 82.7363C112.064 82.2871 111.968 81.8055 111.968 81.3193Z" fill="white" stroke="#59221D" stroke-width="0.315974" stroke-miterlimit="10" stroke-linecap="round"/>
<path d="M70.5176 78.231C71.5711 71.7851 77.2001 66.8604 83.985 66.8604C91.5208 66.8604 97.6298 72.9321 97.6298 80.4219" stroke="#59221D" stroke-width="0.315974" stroke-miterlimit="10"/>
<path d="M169.837 65.7334C167.111 66.5157 164.865 68.2839 163.601 70.5798" stroke="#59221D" stroke-width="0.315974" stroke-miterlimit="10"/>
<path d="M143.886 34.9227C144.963 34.9227 145.835 34.0555 145.835 32.9857C145.835 31.916 144.963 31.0488 143.886 31.0488C142.81 31.0488 141.938 31.916 141.938 32.9857C141.938 34.0555 142.81 34.9227 143.886 34.9227Z" fill="#59221D"/>
<path d="M145.758 19.8857C147.088 18.1007 147.613 16.2467 146.931 15.7447C146.249 15.2427 144.618 16.2828 143.288 18.0678C141.958 19.8528 141.433 21.7068 142.115 22.2088C142.797 22.7108 144.428 21.6707 145.758 19.8857Z" fill="#F2AF2A"/>
<path d="M145.277 19.478C146.649 17.636 147.191 15.7227 146.487 15.2045C145.783 14.6863 144.099 15.7594 142.727 17.6014C141.355 19.4433 140.813 21.3566 141.517 21.8748C142.221 22.393 143.904 21.3199 145.277 19.478Z" stroke="#59221D" stroke-width="0.315974" stroke-miterlimit="10" stroke-linecap="round"/>
<path d="M149.364 33.452V26.0013C149.363 24.986 148.985 24.0067 148.301 23.2524L144.072 18.5898" stroke="#59221D" stroke-width="0.315974" stroke-miterlimit="10" stroke-linecap="round"/>
<path d="M111.968 54.9668V59.2836L91.9277 55.03V55.0256C92.4949 54.9868 93.0671 54.9676 93.6445 54.9681L111.968 54.9668Z" fill="#59221D"/>
<path d="M144.701 80.2234C137.634 82.1964 130.458 80.8946 128.569 80.4857C128.576 80.4712 128.582 80.456 128.589 80.4408L144.257 48.3379V78.4527C144.258 79.07 144.41 79.6779 144.701 80.2234Z" fill="#59221D"/>
<path d="M147.593 84.4447V85.0204H131.411C129.059 85.0204 127.49 82.6146 128.438 80.4849C130.33 80.8938 137.502 82.1956 144.569 80.2227C144.829 80.7096 145.193 81.1343 145.635 81.467L146.387 82.0357C146.761 82.3174 147.065 82.6815 147.274 83.0995C147.484 83.5174 147.593 83.9779 147.593 84.4447Z" fill="#A74602" stroke="#59221D" stroke-width="0.315974" stroke-miterlimit="10"/>
<path d="M143.296 50.8598L129.579 79.0042C129.333 79.5093 129.288 80.0877 129.452 80.6245C129.452 80.6245 120.647 84.1634 112.459 83.1118C112.175 82.6113 112.011 82.052 111.982 81.4779C111.952 80.9039 112.058 80.3309 112.289 79.8042L123.719 53.5152C123.849 53.2159 123.902 52.8891 123.874 52.5642C123.845 52.2393 123.736 51.9266 123.556 51.654C123.376 51.3815 123.13 51.1578 122.842 51.0029C122.553 50.8481 122.23 50.767 121.902 50.7669H105.497C104.022 50.7668 102.563 50.453 101.22 49.8466C99.8764 49.2401 98.679 48.355 97.708 47.2507L119.865 37.3096H134.752C141.757 37.3089 146.35 44.5915 143.296 50.8598Z" fill="white" stroke="#59221D" stroke-width="0.315974" stroke-miterlimit="10" stroke-linecap="round"/>
<path d="M125.415 41.2422C132.421 41.2422 137.013 48.5254 133.959 54.7911L120.242 82.9355" stroke="#59221D" stroke-width="0.315974" stroke-miterlimit="10" stroke-linecap="round" stroke-dasharray="1.26 1.26"/>
<path d="M132.051 85.0217H115.739C115.07 85.0241 114.412 84.8479 113.835 84.5115C113.258 84.1752 112.782 83.6909 112.457 83.1094C120.645 84.1591 129.449 80.6221 129.449 80.6221C129.565 81.0047 129.782 81.3493 130.078 81.6199L130.875 82.353C131.246 82.6929 131.542 83.1055 131.744 83.5648C131.947 84.0242 132.051 84.5202 132.051 85.0217Z" fill="white" stroke="#59221D" stroke-width="0.315974" stroke-miterlimit="10"/>
<path d="M123.777 8.39169L121.832 11.135C120.64 10.3211 119.228 9.88645 117.782 9.88877H114.774C114.612 9.88877 114.451 9.8913 114.289 9.89636L118.533 6.05664L123.777 8.39169Z" fill="white" stroke="#59221D" stroke-width="0.315974" stroke-miterlimit="10" stroke-linecap="round"/>
<path d="M125.288 3.456L125.762 6.34968C125.78 6.50844 125.74 6.66855 125.649 6.80008C125.558 6.93162 125.421 7.02558 125.265 7.06442L125.225 7.0739C125.07 7.11163 124.929 7.19517 124.822 7.31358C124.715 7.43199 124.647 7.57973 124.626 7.73744L124.499 8.69926C124.472 8.89787 124.368 9.07794 124.208 9.20014C124.048 9.32234 123.846 9.37673 123.646 9.35143C122.555 9.20671 120.614 8.68663 120.077 6.81606C119.317 4.17073 122.147 3.4541 122.147 3.4541L125.288 3.456Z" fill="white" stroke="#59221D" stroke-width="0.315974" stroke-miterlimit="10" stroke-linecap="round"/>
<path d="M122.855 4.44787C122.855 4.44787 123.473 4.08956 124.018 4.08008" stroke="#59221D" stroke-width="0.315974" stroke-miterlimit="10" stroke-linecap="round"/>
<path d="M123.684 5.67854C123.793 5.67854 123.882 5.52293 123.882 5.33097C123.882 5.13901 123.793 4.9834 123.684 4.9834C123.576 4.9834 123.487 5.13901 123.487 5.33097C123.487 5.52293 123.576 5.67854 123.684 5.67854Z" fill="#59221D"/>
<path d="M124.606 7.77424C123.865 7.77424 123.708 7.05762 123.708 7.05762" stroke="#59221D" stroke-width="0.315974" stroke-miterlimit="10" stroke-linecap="round"/>
<path d="M118.158 5.72375L118.07 5.53417C117.65 4.62432 117.61 3.58586 117.96 2.64685C118.309 1.70783 119.019 0.945038 119.934 0.525985L120.422 0.302273C120.856 0.103008 121.329 -0.000123784 121.808 1.11497e-07C122.286 0.000124007 122.759 0.103501 123.194 0.302991C123.628 0.502481 124.014 0.793328 124.324 1.15544C124.634 1.51755 124.862 1.9423 124.991 2.40034L125.288 3.45569H122.891C122.582 3.45569 122.286 3.57766 122.068 3.79478C121.849 4.0119 121.726 4.30637 121.726 4.61342V4.99891C121.726 5.45931 121.542 5.90086 121.215 6.22642C120.887 6.55197 120.443 6.73487 119.98 6.73487H119.745C119.41 6.73493 119.083 6.6397 118.802 6.46047C118.521 6.28125 118.297 6.02555 118.158 5.72375Z" fill="#DB3319"/>
<path d="M122.913 9.90348C122.896 9.90337 122.879 9.90231 122.862 9.90032C122.473 9.85229 121.61 9.61657 120.842 9.03708C119.91 8.33309 119.451 7.37127 119.514 6.25651C119.52 6.14757 119.569 6.04552 119.651 5.97281C119.733 5.9001 119.84 5.86269 119.95 5.86881C120.06 5.87493 120.162 5.92407 120.235 6.00543C120.309 6.08679 120.346 6.1937 120.34 6.30264C120.227 8.31097 122.416 9.02001 122.965 9.08321C123.074 9.08983 123.177 9.13946 123.25 9.22117C123.322 9.30289 123.36 9.40999 123.353 9.51894C123.346 9.62788 123.296 9.72973 123.214 9.80208C123.132 9.87444 123.024 9.91136 122.915 9.90474L122.913 9.90348Z" fill="#DB3319"/>
<path d="M119.948 6.25701C120.515 6.25701 120.975 5.80008 120.975 5.23642C120.975 4.67276 120.515 4.21582 119.948 4.21582C119.381 4.21582 118.921 4.67276 118.921 5.23642C118.921 5.80008 119.381 6.25701 119.948 6.25701Z" stroke="white" stroke-width="0.315974" stroke-miterlimit="10"/>
<path d="M122.383 3.6262C121.889 3.71594 123.41 3.0783 124.482 2.50955C124.417 2.33323 124.383 2.1469 124.384 1.95912C124.384 1.03332 125.17 0.283203 126.14 0.283203C127.109 0.283203 127.897 1.03332 127.897 1.95912C127.897 2.88493 127.11 3.63442 126.14 3.63442L122.383 3.6262Z" fill="#F2AF2A"/>
<path d="M129 2.45702C129.341 2.45702 129.618 2.18201 129.618 1.84277C129.618 1.50352 129.341 1.22852 129 1.22852C128.659 1.22852 128.382 1.50352 128.382 1.84277C128.382 2.18201 128.659 2.45702 129 2.45702Z" fill="#F2AF2A"/>
<path d="M137.098 37.5931C137.098 37.5931 121.107 46.3525 112.512 40.6081C112.512 40.6081 104.315 46.1395 97.709 47.2499V31.8847C97.709 28.651 99.1631 23.828 100.761 19.5049C101.825 16.6285 103.751 14.146 106.28 12.3926C108.809 10.6392 111.818 9.69943 114.902 9.7002H117.912C119.812 9.7002 121.635 10.4506 122.979 11.7862C124.322 13.1218 125.077 14.9334 125.077 16.8222V24.9876C125.077 25.237 125.133 25.4832 125.239 25.7089C125.346 25.9345 125.502 26.1339 125.695 26.2929C125.888 26.4519 126.114 26.5665 126.357 26.6286C126.6 26.6907 126.854 26.6988 127.101 26.6522L136.66 24.8448C135.876 25.6031 135.296 28.325 135.296 31.2572C135.294 34.7158 136.102 37.5931 137.098 37.5931Z" fill="#F2AF2A"/>
<path d="M138.584 31.2567C138.584 34.7154 137.777 37.5926 136.78 37.5926C135.784 37.5926 134.977 34.7154 134.977 31.2567C134.977 27.7981 135.784 24.9512 136.78 24.9512C137.777 24.9512 138.584 27.7981 138.584 31.2567Z" fill="white" stroke="#F2AF2A" stroke-width="0.315974" stroke-miterlimit="10"/>
<path d="M147.837 27.8992V34.0961H146.955C146.659 34.0961 146.374 33.979 146.165 33.7707C145.955 33.5623 145.837 33.2797 145.837 32.9851C145.837 32.4714 145.632 31.9788 145.267 31.6155C144.901 31.2522 144.406 31.0479 143.889 31.0475C143.372 31.048 142.877 31.2524 142.511 31.6156C142.146 31.9789 141.941 32.4714 141.94 32.9851C141.94 33.5902 141.821 34.1894 141.588 34.7485C141.355 35.3076 141.013 35.8156 140.583 36.2435C140.152 36.6714 139.641 37.0107 139.079 37.2422C138.516 37.4737 137.913 37.5928 137.305 37.5926H137.102H137.054C136.08 37.5022 135.298 34.6629 135.298 31.2586C135.298 29.6996 135.463 28.2651 135.733 27.1598L138.118 26.0577L139.45 25.4422C140.136 25.1253 140.906 25.0386 141.646 25.1951L146.462 26.2125C146.851 26.295 147.199 26.5075 147.45 26.8144C147.7 27.1213 147.836 27.5042 147.837 27.8992Z" fill="white" stroke="#59221D" stroke-width="0.315974" stroke-miterlimit="10" stroke-linecap="round"/>
<path d="M143.317 28.0039L146.46 28.6675C146.849 28.7499 147.198 28.9627 147.448 29.2702C147.698 29.5776 147.835 29.9611 147.835 30.3567V34.034" stroke="#59221D" stroke-width="0.315974" stroke-miterlimit="10" stroke-linecap="round"/>
<path d="M138.902 31.2576C138.902 34.7169 138.094 37.5935 137.098 37.5935H137.05C136.076 37.5032 135.294 34.6638 135.294 31.2595C135.294 29.7005 135.459 28.266 135.729 27.1607L138.114 26.0586C138.59 27.1967 138.902 29.109 138.902 31.2576Z" fill="#59221D"/>
<path d="M113.561 41.3809C110.537 39.4219 107.643 36.2103 108.501 26.5156" stroke="white" stroke-width="0.315974" stroke-miterlimit="10" stroke-linecap="round"/>
<path d="M113.355 41.3463C108.108 47.1476 97.709 47.2487 97.709 47.2487V36.2061C98.1108 43.5701 109.268 39.7102 110.766 39.1623C111.525 40.0723 112.457 40.7586 113.355 41.3463Z" fill="#59221D"/>
<path d="M114.769 9.50293V9.69946C111.268 9.88164 107.923 11.1956 105.243 13.4413C102.564 15.6871 100.695 18.7416 99.9229 22.14L97.709 31.884V9.50293H114.769Z" fill="#59221D"/>
<path d="M97.7083 9.69922V47.2495H79.5873C76.9168 47.2495 74.6819 45.2494 74.1389 42.5801C74.0541 42.1658 74.0115 41.744 74.0117 41.3212V15.6269C74.0117 15.6136 74.0117 15.5997 74.0117 15.5858C74.0147 14.9388 74.1183 14.2961 74.3188 13.6805C75.0761 11.3625 77.1476 9.69922 79.5853 9.69922H97.7083Z" fill="white" stroke="#59221D" stroke-width="0.315974" stroke-miterlimit="10" stroke-linecap="round"/>
<path d="M97.7086 40.9814V42.8868H74.1399C74.0554 42.5002 74.0128 42.1057 74.0127 41.7101V40.9814H97.7086Z" fill="#DB3319"/>
<path d="M97.7084 13.6816V15.587H74.0176C74.0206 14.9399 74.1241 14.2972 74.3247 13.6816H97.7084Z" fill="#DB3319"/>
<path d="M97.5116 16.165H74.2061V16.481H97.5116V16.165Z" fill="#86C4CF"/>
<path d="M87.1426 33.7965V23.6013C87.1426 23.5048 87.1812 23.4122 87.2498 23.3439C87.3185 23.2757 87.4117 23.2373 87.5088 23.2373C87.6059 23.2373 87.6991 23.2757 87.7678 23.3439C87.8365 23.4122 87.875 23.5048 87.875 23.6013V27.8644" stroke="#86C4CF" stroke-width="0.315974" stroke-miterlimit="10"/>
<path d="M87.1426 33.7973V27.8633H88.7919V31.0009C88.792 31.5707 88.6392 32.1301 88.3493 32.6217C88.0594 33.1132 87.6428 33.519 87.1426 33.7973Z" stroke="#86C4CF" stroke-width="0.315974" stroke-miterlimit="10"/>
<path d="M85.208 23.2373L85.3785 25.2494C85.392 25.4096 85.372 25.5708 85.3196 25.7228C85.2673 25.8749 85.1837 26.0145 85.0743 26.1328C84.9649 26.2511 84.832 26.3456 84.6839 26.4102C84.5359 26.4748 84.3759 26.5082 84.2143 26.5083C84.0525 26.5083 83.8926 26.475 83.7445 26.4104C83.5964 26.3458 83.4634 26.2513 83.354 26.133C83.2445 26.0146 83.161 25.875 83.1087 25.7229C83.0564 25.5708 83.0364 25.4096 83.0501 25.2494L83.2198 23.2373" stroke="#F2AF2A" stroke-width="0.315974" stroke-miterlimit="10" stroke-linecap="round"/>
<path d="M84.2129 23.2373V28.2145" stroke="#F2AF2A" stroke-width="0.315974" stroke-miterlimit="10" stroke-linecap="round"/>
<path d="M84.3495 28.2949H84.0965C83.9413 28.2949 83.8154 28.42 83.8154 28.5742V33.5192C83.8154 33.6735 83.9413 33.7986 84.0965 33.7986H84.3495C84.5047 33.7986 84.6306 33.6735 84.6306 33.5192V28.5742C84.6306 28.42 84.5047 28.2949 84.3495 28.2949Z" stroke="#F2AF2A" stroke-width="0.315974" stroke-miterlimit="10" stroke-linecap="round"/>
<path d="M62.5863 91.8037H110.862V137.147H62.5863V91.8037Z" fill="#F2AF2A"/>
<path d="M83.3193 207.485L59.7515 207.83L60.1171 209.4C60.4139 210.673 61.1325 211.808 62.1561 212.62C63.1797 213.432 64.448 213.874 65.7546 213.873H88.8408L83.3193 207.485Z" fill="#59221D"/>
<path d="M61.0307 213.874L60.9357 215.504C60.9357 215.632 60.9866 215.755 61.0772 215.846C61.1678 215.936 61.2908 215.987 61.4189 215.987H63.0022C63.066 215.988 63.1293 215.976 63.1884 215.952C63.2476 215.928 63.3014 215.893 63.3469 215.849C63.3927 215.805 63.4291 215.753 63.4541 215.695C63.479 215.637 63.4919 215.575 63.4919 215.512C63.4919 215.384 63.5428 215.261 63.6334 215.17C63.724 215.08 63.847 215.029 63.9751 215.029H65.5391C65.6676 215.028 65.7912 215.078 65.8838 215.167C65.9293 215.211 65.9655 215.263 65.9902 215.321C66.0148 215.379 66.0274 215.441 66.0271 215.504C66.0271 215.632 66.0781 215.755 66.1687 215.846C66.2593 215.936 66.3822 215.987 66.5104 215.987H68.092C68.2211 215.988 68.3454 215.938 68.4384 215.849C68.4841 215.805 68.5205 215.753 68.5452 215.695C68.5698 215.637 68.5823 215.575 68.5817 215.512C68.5817 215.384 68.6326 215.261 68.7232 215.17C68.8138 215.08 68.9368 215.029 69.0649 215.029H70.6289C70.7571 215.029 70.8801 215.079 70.972 215.169C71.0178 215.212 71.0542 215.264 71.0791 215.322C71.104 215.38 71.1169 215.442 71.1169 215.505C71.1169 215.634 71.1679 215.757 71.2585 215.847C71.3491 215.938 71.472 215.989 71.6002 215.989H73.1835C73.3123 215.989 73.436 215.938 73.5282 215.849C73.5738 215.805 73.6102 215.754 73.6351 215.696C73.6601 215.638 73.673 215.576 73.6732 215.514C73.6753 215.387 73.7271 215.266 73.8175 215.177C73.9079 215.088 74.0296 215.038 74.1564 215.038H75.7187C75.8472 215.038 75.9708 215.088 76.0634 215.177C76.1539 215.266 76.2054 215.388 76.2068 215.515C76.2089 215.642 76.2608 215.763 76.3511 215.852C76.4415 215.94 76.5632 215.99 76.69 215.99H78.2717C78.4005 215.99 78.5241 215.94 78.6164 215.85C78.6619 215.807 78.6982 215.755 78.7231 215.697C78.748 215.64 78.761 215.578 78.7613 215.515C78.7639 215.389 78.8159 215.268 78.9062 215.18C78.9966 215.091 79.1181 215.042 79.2446 215.042H80.8086C80.9368 215.042 81.06 215.092 81.1516 215.182C81.1974 215.225 81.2338 215.277 81.2587 215.334C81.2836 215.392 81.2966 215.454 81.2966 215.517C81.2966 215.645 81.3475 215.768 81.4382 215.858C81.5288 215.949 81.6517 216 81.7798 216H83.3631C83.4922 216 83.6163 215.951 83.7095 215.861C83.7546 215.818 83.7905 215.765 83.8151 215.708C83.8397 215.65 83.8525 215.588 83.8528 215.525C83.8528 215.397 83.9037 215.274 83.9943 215.183C84.0849 215.092 84.2078 215.042 84.336 215.042H85.8984C86.0269 215.041 86.1506 215.091 86.2431 215.18C86.2886 215.223 86.3248 215.276 86.3495 215.334C86.3741 215.392 86.3867 215.454 86.3864 215.517C86.3864 215.645 86.4373 215.768 86.528 215.858C86.6186 215.949 86.7415 216 86.8696 216H88.4514C88.5795 216 88.7024 215.949 88.793 215.858C88.8837 215.768 88.9346 215.645 88.9346 215.517V213.842H67.1047L66.8663 212.935C66.3765 211.424 65.4158 210.111 64.1251 209.186C62.8343 208.262 61.2814 207.775 59.6939 207.797L60.9824 213.842L61.0307 213.874Z" fill="#F2AF2A"/>
<path d="M10.0674 206.52L7.99604 184.56L6.45942 185.043C5.21459 185.439 4.14049 186.245 3.41175 187.33C2.68301 188.414 2.34249 189.713 2.44556 191.015L4.27852 214.029L10.0674 206.52Z" fill="#59221D"/>
<path d="M0.00243282 186.875L0.124848 188.452C0.133495 188.579 0.191209 188.699 0.285918 188.785C0.332556 188.827 0.387352 188.859 0.44691 188.88C0.506468 188.9 0.569551 188.908 0.632243 188.903C0.759408 188.895 0.884568 188.937 0.980494 189.021C1.07642 189.105 1.13534 189.223 1.14444 189.35L1.26524 190.91C1.27463 191.038 1.2349 191.164 1.15411 191.264C1.11392 191.311 1.06469 191.349 1.00936 191.377C0.954023 191.405 0.89371 191.421 0.831969 191.425C0.704494 191.437 0.58691 191.499 0.50507 191.597C0.42323 191.696 0.38383 191.823 0.395474 191.95L0.517889 193.527C0.526536 193.655 0.58425 193.774 0.678959 193.86C0.725597 193.903 0.780354 193.935 0.839912 193.955C0.89947 193.975 0.962553 193.983 1.02525 193.978C1.15241 193.97 1.27757 194.013 1.3735 194.096C1.46942 194.18 1.52834 194.299 1.53744 194.426L1.65985 195.985C1.66946 196.113 1.62907 196.24 1.54711 196.339C1.50693 196.386 1.4577 196.425 1.40236 196.452C1.34703 196.48 1.28671 196.496 1.22497 196.5C1.09779 196.513 0.980634 196.575 0.899134 196.673C0.817633 196.771 0.778427 196.898 0.790089 197.025L0.910892 198.602C0.919538 198.73 0.977253 198.85 1.07196 198.936C1.11896 198.977 1.1738 199.009 1.23327 199.029C1.29273 199.05 1.3556 199.058 1.41825 199.053C1.54541 199.045 1.67057 199.088 1.7665 199.172C1.86243 199.256 1.92135 199.374 1.93044 199.501L2.05286 201.06C2.06275 201.188 2.02295 201.315 1.94173 201.415C1.90201 201.463 1.85308 201.503 1.79776 201.532C1.74244 201.561 1.68184 201.578 1.61959 201.584C1.4924 201.596 1.37525 201.658 1.29375 201.756C1.21225 201.855 1.17304 201.982 1.1847 202.109L1.30712 203.686C1.31584 203.813 1.37358 203.932 1.46819 204.017C1.56392 204.102 1.68894 204.144 1.81609 204.137C1.94271 204.13 2.06707 204.173 2.16229 204.256C2.25751 204.34 2.31599 204.458 2.32509 204.584L2.44751 206.144C2.45674 206.272 2.41698 206.398 2.33634 206.498C2.29604 206.545 2.24682 206.583 2.19151 206.611C2.1362 206.639 2.0759 206.655 2.0142 206.659C1.88672 206.671 1.76918 206.733 1.68734 206.831C1.6055 206.93 1.56606 207.057 1.57771 207.184L1.70012 208.761C1.70877 208.889 1.76648 209.008 1.86119 209.094C1.90819 209.136 1.96303 209.168 2.0225 209.188C2.08196 209.208 2.14487 209.216 2.20752 209.212C2.33468 209.204 2.45984 209.247 2.55577 209.33C2.65169 209.414 2.71061 209.533 2.71971 209.66L2.84051 211.219C2.84974 211.347 2.81002 211.474 2.72938 211.573C2.68908 211.62 2.63982 211.659 2.58451 211.686C2.5292 211.714 2.46894 211.73 2.40724 211.734C2.27977 211.746 2.16218 211.808 2.08034 211.907C1.9985 212.005 1.95906 212.132 1.97071 212.259L2.09312 213.836C2.1014 213.964 2.15998 214.083 2.256 214.168C2.35202 214.252 2.47767 214.295 2.60535 214.287L4.27563 214.155L2.54413 192.395L3.43969 192.111C4.90598 191.503 6.13887 190.441 6.95772 189.081C7.77656 187.721 8.13831 186.134 7.98993 184.554L2.06898 186.325V186.313L0.435742 186.348C0.308542 186.361 0.191504 186.423 0.110298 186.522C0.0290914 186.621 -0.00969696 186.747 0.00243282 186.875Z" fill="#F2AF2A"/>
<path d="M29.6517 89.4546V120.124H56.0979C60.5337 120.124 64.815 117.41 64.6346 112.232L81.0445 134.533C82.0109 135.801 86.0554 134.372 90.1015 131.338C94.1475 128.303 96.6586 124.805 95.7035 123.532L95.718 123.547L67.6611 85.4875C66.7959 84.3122 65.6621 83.3608 64.3545 82.7128C63.0469 82.0647 61.6032 81.7387 60.144 81.7619H37.3348C36.3251 81.7623 35.3255 81.9617 34.3929 82.3485C33.4603 82.7354 32.613 83.3022 31.8996 84.0166C31.1861 84.731 30.6204 85.5789 30.2347 86.512C29.849 87.445 29.6509 88.445 29.6517 89.4546Z" fill="white" stroke="#59221D" stroke-width="0.805352" stroke-miterlimit="10" stroke-linecap="round"/>
<path d="M83.3203 207.482L59.7509 207.828L49.8676 166.328C49.8676 182.445 41.579 197.149 23.8322 203.078L10.0671 206.517L7.48999 184.7C13.6666 183.025 19.12 179.363 23.0081 174.28C26.8962 169.197 29.0028 162.975 29.0026 156.575V116.706L40.8702 97.2887L33.8894 85.0473C33.376 84.2998 32.7469 83.6387 32.0259 83.0887C32.8749 82.3912 33.8635 81.8837 34.9251 81.6004C35.8715 81.9304 36.6843 82.5605 37.2397 83.3948L43.122 93.605L49.3763 83.3867C49.7937 82.757 50.3604 82.2403 51.0259 81.8829C51.6914 81.5254 52.435 81.3382 53.1905 81.3379H59.7541C58.3702 81.3387 57.0074 81.6764 55.7833 82.3218C54.5592 82.9673 53.5106 83.9011 52.7282 85.0425L45.0951 97.002L56.6777 117.105C57.5201 118.568 59.461 119.025 60.8252 118.03C62.3941 116.889 63.6456 114.441 64.1787 112.31C64.1943 112.246 64.2312 112.19 64.2834 112.15C64.3356 112.11 64.3999 112.09 64.4655 112.091C64.5311 112.093 64.5941 112.118 64.6439 112.16C64.6937 112.203 64.7274 112.262 64.7393 112.326L83.3203 207.482ZM35.2521 119.628H49.2652C49.707 119.627 50.1411 119.511 50.524 119.291C50.9069 119.07 51.2252 118.753 51.4471 118.371C51.669 117.989 51.7868 117.556 51.7886 117.114C51.7904 116.672 51.6762 116.237 51.4574 115.854L42.7757 100.623L33.1115 115.747C32.8673 116.13 32.7307 116.571 32.7161 117.024C32.7015 117.477 32.8094 117.926 33.0286 118.324C33.2477 118.721 33.5699 119.052 33.9612 119.281C34.3525 119.511 34.7985 119.63 35.2521 119.628Z" fill="#E47964"/>
<path d="M65.3115 113.138L56.3818 99.9121" stroke="#59221D" stroke-width="0.805352" stroke-miterlimit="10" stroke-linecap="round"/>
<path d="M50.2393 166.328L44.7387 135.861H40.4526" stroke="#59221D" stroke-width="0.805352" stroke-miterlimit="10" stroke-linecap="round"/>
<path d="M84.5174 134.519C86.2569 136.318 87.8612 138.045 88.2494 138.324C90.8506 140.194 95.1561 142.958 103.198 142.956C105.255 142.956 109.142 139.173 111.015 137.079C111.469 136.573 111.102 135.556 110.422 135.569C107.523 135.621 103.335 135.284 102.395 133.885C100.687 131.367 106.368 132.963 106.204 130.525C106.204 130.525 98.1504 128.217 95.148 126.235C94.1929 127.761 92.3953 129.618 90.1049 131.344C88.1221 132.834 86.1377 133.933 84.5174 134.519Z" fill="#A74602"/>
<path d="M84.5174 134.52C85.4596 135.486 86.36 136.452 87.0526 137.158L87.1412 137.124C93.0235 135.003 95.599 128.175 96.0693 126.775C95.7532 126.612 95.4457 126.432 95.148 126.237C94.1929 127.763 92.3953 129.62 90.1049 131.346C88.1221 132.835 86.1377 133.933 84.5174 134.52Z" fill="#59221D"/>
<path d="M98.8089 140.551C100.912 141.16 102.381 141.567 105.476 141.567" stroke="#59221D" stroke-width="0.644281" stroke-miterlimit="10" stroke-linecap="round"/>
<path d="M100.441 138.836C102.738 139.544 105.132 139.887 107.536 139.852" stroke="#59221D" stroke-width="0.644281" stroke-miterlimit="10" stroke-linecap="round"/>
<path d="M101.432 137.123C103.535 137.732 106.075 138.139 109.163 138.139" stroke="#59221D" stroke-width="0.644281" stroke-miterlimit="10" stroke-linecap="round"/>
<path d="M51.5752 81.3395V76.8682L44.9149 72.6787L39.8992 81.3395H51.5752Z" fill="#A74602"/>
<path d="M51.5752 81.3398V76.8685L44.9149 72.6807C44.6098 73.2075 44.5001 73.825 44.6049 74.4247C44.7098 75.0244 45.0226 75.568 45.4883 75.9601L51.5752 81.3398Z" fill="#59221D"/>
<path d="M44.5643 72.7341C44.5651 73.2848 44.7843 73.8126 45.1739 74.2018C45.5634 74.591 46.0914 74.8099 46.6421 74.8103H47.3379C47.414 75.4462 47.7206 76.0322 48.1997 76.4573C48.6788 76.8824 49.2971 77.117 49.9376 77.1168H51.5757C52.3126 77.1168 53.0193 76.8241 53.5403 76.303C54.0614 75.782 54.3541 75.0752 54.3541 74.3384V73.868H54.9372C55.0015 73.8682 55.0648 73.8527 55.1218 73.8228C55.1787 73.7929 55.2275 73.7496 55.2638 73.6966C55.3002 73.6435 55.3231 73.5824 55.3304 73.5186C55.3378 73.4547 55.3294 73.39 55.306 73.3301L54.3541 70.885C54.3541 68.7396 52.4003 67 50.2549 67H49.7169C48.9756 67.0035 48.2533 67.2351 47.6482 67.6633C47.0431 68.0915 46.5844 68.6956 46.3344 69.3935L45.8222 70.8222C45.4485 70.9829 45.1301 71.2497 44.9065 71.5895C44.6829 71.9294 44.5639 72.3273 44.5643 72.7341Z" fill="#A74602"/>
<path d="M47.4346 73.0106C47.4348 72.87 47.4073 72.7307 47.3536 72.6008C47.3 72.4708 47.2212 72.3527 47.1219 72.2533C47.0226 72.1538 46.9046 72.0749 46.7747 72.021C46.6449 71.9672 46.5057 71.9395 46.3651 71.9395" stroke="#59221D" stroke-width="0.483211" stroke-miterlimit="10" stroke-linecap="round"/>
<path d="M53.5635 70.1406C53.5635 70.1406 52.2846 70.1406 51.5759 70.4628" stroke="#59221D" stroke-width="0.483211" stroke-miterlimit="10" stroke-linecap="round"/>
<path d="M52.8895 72.5194C52.6742 72.5194 52.4997 72.2807 52.4997 71.9863C52.4997 71.6918 52.6742 71.4531 52.8895 71.4531C53.1048 71.4531 53.2793 71.6918 53.2793 71.9863C53.2793 72.2807 53.1048 72.5194 52.8895 72.5194Z" fill="#59221D"/>
<path d="M48.5566 71.8991C48.5566 71.5697 48.4258 71.2538 48.1929 71.021C47.96 70.7881 47.6441 70.6572 47.3148 70.6572H46.1631" stroke="#59221D" stroke-width="0.483211" stroke-miterlimit="10" stroke-linecap="round"/>
</svg>
