<svg width="64" height="64" viewBox="0 0 64 64" fill="none" xmlns="http://www.w3.org/2000/svg">
<rect width="64" height="64" rx="12" fill="#16488D"/>
<path d="M22.0389 14.022C22.2685 12.8643 22.7022 12.4137 23.9045 11.8858C24.4606 11.5765 24.7248 11.5169 25.0272 11.7943C25.5942 12.481 25.4385 12.7263 24.8982 13.0862C23.6722 13.1634 23.1528 13.4802 22.3306 14.2187C22.1711 14.2265 22.1131 14.1833 22.0389 14.022Z" fill="#141D38"/>
<path d="M31.8785 12.4899C31.8785 12.4899 32.3907 12.517 32.5365 12.6154C32.6824 12.7137 33.0588 13.1535 33.3132 13.3513C33.594 13.4866 33.6748 13.4416 33.8254 13.3784C33.9988 13.0848 34.0464 12.9199 33.8051 12.6222C33.4251 12.2131 33.1667 12.0115 32.6146 11.7134C32.1864 11.5806 31.7987 11.6108 31.4682 11.6828C31.1377 11.7547 31.5332 12.3411 31.8785 12.4899Z" fill="#141D38"/>
<path fill-rule="evenodd" clip-rule="evenodd" d="M22.2016 15.5106C22.58 15.3182 24.5013 14.161 25.5019 14.2358C26.6431 13.4556 26.7676 12.0895 26.7438 11.9674C26.7201 11.8454 26.382 10.8769 25.2783 10.4786C25.0197 10.4129 24.8338 10.3513 24.3998 10.5226C22.5908 11.2338 21.8049 11.8395 20.8959 13.3573C20.7419 13.8192 20.7218 14.0748 20.7432 14.5272C20.9546 15.0424 21.0825 15.3133 21.4452 15.5309C21.4452 15.5309 21.8232 15.7031 22.2016 15.5106ZM23.9045 11.8858C22.7022 12.4137 22.2685 12.8643 22.0389 14.022C22.1131 14.1833 22.1711 14.2265 22.3306 14.2187C23.1528 13.4802 23.6722 13.1634 24.8982 13.0862C25.4385 12.7263 25.5942 12.481 25.0272 11.7943C24.7248 11.5169 24.4606 11.5765 23.9045 11.8858Z" fill="white"/>
<path fill-rule="evenodd" clip-rule="evenodd" d="M34.5614 12.6019C34.3798 12.5028 31.7792 10.3268 30.7661 10.679C30.4253 11.1266 30.3697 11.4476 30.5784 12.1812C31.2926 12.9151 31.6768 13.2215 32.3126 13.419C33.636 14.1885 34.0536 14.4746 34.2595 14.3076C34.7119 13.7381 34.7431 12.7011 34.5614 12.6019ZM32.5365 12.6154C32.3907 12.517 31.8785 12.4899 31.8785 12.4899C31.5332 12.3411 31.1377 11.7547 31.4682 11.6828C31.7987 11.6108 32.1864 11.5806 32.6146 11.7134C33.1667 12.0115 33.4251 12.2131 33.8051 12.6222C34.0464 12.9199 33.9988 13.0848 33.8254 13.3784C33.6748 13.4416 33.594 13.4866 33.3132 13.3513C33.0588 13.1535 32.6824 12.7137 32.5365 12.6154Z" fill="white"/>
<path fill-rule="evenodd" clip-rule="evenodd" d="M32.8582 20.7877C32.2212 20.758 31.8195 20.7756 30.9792 20.8995C28.96 21.1805 28.7989 21.2336 27.9833 20.9343L28.4862 21.764C28.4004 22.4538 28.1718 22.717 27.7467 23.1747C27.3897 22.6092 27.2303 22.2732 27.0718 21.6588L27.9833 20.9343C27.6866 20.8255 27.3033 20.6699 26.7124 20.4618C26.5328 20.3531 26.3682 20.2601 26.2022 20.1809C26.565 20.7271 26.7002 21.0585 26.7055 21.73C26.3845 22.1934 26.2003 22.3736 25.8711 22.6523C25.6752 22.248 25.5767 21.9699 25.4641 21.2111C25.6265 20.7798 25.8044 20.5581 26.2022 20.1809C25.7168 19.9492 25.2197 19.8352 24.3008 19.7902C23.974 19.8259 23.8821 19.9666 23.7615 20.2751L23.7309 21.4213C25.9153 23.6085 27.4286 24.0755 30.4499 24.0429C31.6672 23.8399 32.3088 23.6367 33.2617 22.863C32.9989 22.496 32.862 21.8986 33.099 21.3744C33.1882 21.1754 33.1708 21.0529 32.8582 20.7877ZM29.5817 22.1846C29.8727 21.755 30.0595 21.5592 30.4161 21.2623C30.7836 21.5209 30.9318 21.6869 31.0707 22.0219C31.0617 22.6452 30.9215 22.9612 30.5991 23.5071C30.0933 23.0442 29.8765 22.7501 29.5817 22.1846ZM32.1493 21.0522C31.9801 21.381 31.8855 21.5655 31.9492 21.9779C32.0672 22.5269 32.1908 22.6257 32.4579 22.6392L32.6581 21.7134C32.5642 21.4116 32.4294 21.2768 32.1493 21.0522ZM24.9282 21.0619L24.7552 21.4756L24.2906 21.6926L24.2228 20.6922L24.8605 20.0615L24.9282 21.0619Z" fill="white"/>
<path fill-rule="evenodd" clip-rule="evenodd" d="M32.9834 24.6908C33.7064 24.0129 33.8432 23.616 33.7738 22.8902C33.3881 21.7649 33.7578 21.6318 34.0283 20.9404C33.9277 20.6875 33.8446 20.5588 33.5433 20.4012C34.569 19.812 34.9462 19.4685 35.1375 18.8245C35.2033 17.9359 35.1275 17.304 34.8301 16.8572C34.5635 16.4835 34.0863 16.28 33.5703 16.1959C33.3307 16.1569 33.0828 16.1436 32.8438 16.1509C32.2712 16.1683 31.7496 16.304 31.5154 16.4878C30.6396 17.4949 30.283 18.16 29.4496 19.5498C28.4499 19.6038 27.9689 19.562 27.2551 19.3428C25.6352 18.0772 24.5723 17.8503 22.4558 18.1217C21.1936 18.4836 20.8825 19.1124 20.9768 20.943C23.4255 23.761 29.2184 26.1826 32.9834 24.6908ZM30.9792 20.8995C31.8195 20.7756 32.2212 20.758 32.8582 20.7877C33.1708 21.0529 33.1882 21.1754 33.099 21.3744C32.862 21.8986 32.9989 22.496 33.2617 22.863C32.3088 23.6367 31.6672 23.8399 30.4499 24.0429C27.4286 24.0755 25.9153 23.6085 23.7309 21.4213L23.7615 20.2751C23.8821 19.9666 23.974 19.8259 24.3008 19.7902C25.2197 19.8352 25.7168 19.9492 26.2022 20.1809C26.3682 20.2601 26.5328 20.3531 26.7124 20.4618C27.3033 20.6699 27.6866 20.8255 27.9833 20.9343C28.7989 21.2336 28.96 21.1805 30.9792 20.8995Z" fill="#DB3319"/>
<path d="M27.9833 20.9343L27.0718 21.6588C27.2303 22.2732 27.3897 22.6092 27.7467 23.1747C28.1718 22.717 28.4004 22.4538 28.4862 21.764L27.9833 20.9343Z" fill="#141D38"/>
<path d="M25.4641 21.2111C25.5767 21.9699 25.6752 22.248 25.8711 22.6523C26.2003 22.3736 26.3845 22.1934 26.7055 21.73C26.7002 21.0585 26.565 20.7271 26.2022 20.1809C25.8044 20.5581 25.6265 20.7798 25.4641 21.2111Z" fill="#141D38"/>
<path d="M24.7552 21.4756L24.9282 21.0619L24.8605 20.0615L24.2228 20.6922L24.2906 21.6926L24.7552 21.4756Z" fill="#141D38"/>
<path d="M30.4161 21.2623C30.0595 21.5592 29.8727 21.755 29.5817 22.1846C29.8765 22.7501 30.0933 23.0442 30.5991 23.5071C30.9215 22.9612 31.0617 22.6452 31.0707 22.0219C30.9318 21.6869 30.7836 21.5209 30.4161 21.2623Z" fill="#141D38"/>
<path d="M31.9492 21.9779C31.8855 21.5655 31.9801 21.381 32.1493 21.0522C32.4294 21.2768 32.5642 21.4116 32.6581 21.7134L32.4579 22.6392C32.1908 22.6257 32.0672 22.5269 31.9492 21.9779Z" fill="#141D38"/>
<path d="M27.9437 18.3221C28.1409 17.0256 28.3645 16.3447 28.9105 15.4738C29.2074 15.3981 29.2657 15.4696 29.3243 15.6467C28.7783 16.5177 28.5547 17.1986 28.3575 18.4951C28.1119 18.5684 28.0224 18.5256 27.9437 18.3221Z" fill="white"/>
<path d="M26.5599 17.0708C26.7571 15.7743 27.4691 14.9984 28.0152 14.1275C28.312 14.0518 28.3703 14.1233 28.429 14.3004C27.8829 15.1714 27.1709 15.9472 26.9737 17.2437C26.7281 17.317 26.6386 17.2743 26.5599 17.0708Z" fill="white"/>
<path d="M29.6163 11.2825C30.8904 13.6882 31.5287 14.4586 32.8438 16.1509C33.0828 16.1436 33.3307 16.1569 33.5703 16.1959C32.3461 14.6502 31.5524 13.7077 30.5784 12.1812C30.3882 11.8831 30.1911 11.5628 29.9826 11.2113C29.7818 11.0838 29.7049 11.1043 29.6163 11.2825Z" fill="white"/>
<path d="M34.0084 15.6233C33.6847 15.0635 33.3914 14.7825 32.5297 13.8836C32.2248 13.7175 32.346 13.9913 32.3329 14.1752C32.8625 14.8216 33.0408 15.0753 33.6421 15.6945C33.9879 15.7291 34.0399 15.7049 34.0084 15.6233Z" fill="white"/>
<path d="M31.1156 9.21749C32.1118 9.53827 32.5018 9.85562 33.1336 10.4723C33.1097 10.6898 33.0439 10.7625 32.8148 10.7876C32.1552 10.4368 31.7344 10.1484 30.9188 9.50911C30.8998 9.36387 30.9394 9.29879 31.1156 9.21749Z" fill="white"/>
<path d="M20.6857 11.6245C21.6132 10.5873 22.1719 10.0533 23.2602 9.22379C23.5728 9.2504 23.6334 9.3261 23.5756 9.54256C22.4873 10.3721 21.9287 10.906 21.0011 11.9432C20.8094 11.9105 20.7356 11.8455 20.6857 11.6245Z" fill="white"/>
<path d="M20.0785 11.109C21.006 10.0718 21.5647 9.53788 22.653 8.70835C22.9655 8.73496 23.0262 8.81065 22.9684 9.02712C21.8801 9.85665 21.3214 10.3906 20.3939 11.4278C20.2022 11.395 20.1284 11.33 20.0785 11.109Z" fill="white"/>
<path d="M19.2239 11.2751L18.5896 11.2717L18.6439 10.2476C18.2977 10.2129 17.8993 10.3378 17.718 10.0475L17.7452 9.53542C18.1931 9.0419 18.4613 8.72937 18.6305 8.22316C19.3836 8.77995 19.7654 8.94015 20.0143 9.47452C19.968 9.76428 19.8993 9.92068 19.6555 10.1687L19.2545 10.1289L19.2239 11.2751Z" fill="white"/>
<path fill-rule="evenodd" clip-rule="evenodd" d="M19.8569 29.5221C25.2912 30.5898 28.1413 30.3967 32.7932 28.275L32.9834 24.6908C29.2184 26.1826 23.4255 23.761 20.9768 20.943C20.8825 19.1124 21.1936 18.4836 22.4558 18.1217C24.5723 17.8503 25.6352 18.0772 27.2551 19.3428C27.9689 19.562 28.4499 19.6038 29.4496 19.5498C30.283 18.16 30.6396 17.4949 31.5154 16.4878C31.7496 16.304 32.2712 16.1683 32.8438 16.1509C31.5287 14.4586 30.8904 13.6882 29.6163 11.2825C29.7049 11.1043 29.7818 11.0838 29.9826 11.2113C30.1911 11.5628 30.3882 11.8831 30.5784 12.1812C30.3697 11.4476 30.4253 11.1266 30.7661 10.679C31.7792 10.3268 34.3798 12.5028 34.5614 12.6019C34.7431 12.7011 34.7119 13.7381 34.2595 14.3076C34.0536 14.4746 33.636 14.1885 32.3126 13.419C31.6768 13.2215 31.2926 12.9151 30.5784 12.1812C31.5524 13.7077 32.3461 14.6502 33.5703 16.1959C34.0863 16.28 34.5635 16.4835 34.8301 16.8572C35.3868 15.2271 35.3554 14.2764 34.8055 12.5545C33.47 10.7962 32.8988 9.76981 32.1229 7.8815C31.1494 6.83918 30.1523 6.87085 28.9278 7.74227C26.6171 7.02133 25.1314 7.14695 22.5818 8.34208C20.8009 5.91894 18.5932 6.07666 17.0905 8.77579C16.6189 10.8778 16.6182 12.1021 17.0359 14.3608C17.6608 20.4573 18.2269 23.7962 19.8569 29.5221ZM28.9105 15.4738C28.3645 16.3447 28.1409 17.0256 27.9437 18.3221C28.0224 18.5256 28.1119 18.5684 28.3575 18.4951C28.5547 17.1986 28.7783 16.5177 29.3243 15.6467C29.2657 15.4696 29.2074 15.3981 28.9105 15.4738ZM28.0152 14.1275C27.4691 14.9984 26.7571 15.7743 26.5599 17.0708C26.6386 17.2743 26.7281 17.317 26.9737 17.2437C27.1709 15.9472 27.8829 15.1714 28.429 14.3004C28.3703 14.1233 28.312 14.0518 28.0152 14.1275ZM25.5019 14.2358C24.5013 14.161 22.58 15.3182 22.2016 15.5106C21.8232 15.7031 21.4452 15.5309 21.4452 15.5309C21.0825 15.3133 20.9546 15.0424 20.7432 14.5272C20.7218 14.0748 20.7419 13.8192 20.8959 13.3573C21.8049 11.8395 22.5908 11.2338 24.3998 10.5226C24.8338 10.3513 25.0197 10.4129 25.2783 10.4786C26.382 10.8769 26.7201 11.8454 26.7438 11.9674C26.7676 12.0895 26.6431 13.4556 25.5019 14.2358ZM23.2602 9.22379C22.1719 10.0533 21.6132 10.5873 20.6857 11.6245C20.7356 11.8455 20.8094 11.9105 21.0011 11.9432C21.9287 10.906 22.4873 10.3721 23.5756 9.54256C23.6334 9.3261 23.5728 9.2504 23.2602 9.22379ZM22.653 8.70835C21.5647 9.53788 21.006 10.0718 20.0785 11.109C20.1284 11.33 20.2022 11.395 20.3939 11.4278C21.3214 10.3906 21.8801 9.85665 22.9684 9.02712C23.0262 8.81065 22.9655 8.73496 22.653 8.70835ZM32.5297 13.8836C33.3914 14.7825 33.6847 15.0635 34.0084 15.6233C34.0399 15.7049 33.9879 15.7291 33.6421 15.6945C33.0408 15.0753 32.8625 14.8216 32.3329 14.1752C32.346 13.9913 32.2248 13.7175 32.5297 13.8836ZM33.1336 10.4723C32.5018 9.85562 32.1118 9.53827 31.1156 9.21749C30.9394 9.29879 30.8998 9.36387 30.9188 9.50911C31.7344 10.1484 32.1552 10.4368 32.8148 10.7876C33.0439 10.7625 33.1097 10.6898 33.1336 10.4723ZM18.5896 11.2717L19.2239 11.2751L19.2545 10.1289L19.6555 10.1687C19.8993 9.92068 19.968 9.76428 20.0143 9.47452C19.7654 8.94015 19.3836 8.77995 18.6305 8.22316C18.4613 8.72937 18.1931 9.0419 17.7452 9.53542L17.718 10.0475C17.8993 10.3378 18.2977 10.2129 18.6439 10.2476L18.5896 11.2717Z" fill="#F2AF2A"/>
<path d="M36.3333 35.5272L41.1022 53.3249L23.2036 58.1208C22.8669 58.211 22.5157 58.234 22.1702 58.1885C21.8246 58.1429 21.4913 58.0297 21.1895 57.8553C20.8877 57.6808 20.6232 57.4487 20.4112 57.172C20.1991 56.8953 20.0437 56.5796 19.9537 56.2428L15.8721 41.0098L36.3333 35.5272Z" fill="black"/>
<path d="M36.1446 34.8594L15.5416 40.38C15.5268 40.3837 15.5126 40.3894 15.4995 40.3971L10 37.4443L30.6527 31.9105L36.1446 34.8594Z" fill="black"/>
<path d="M48.093 27.2369L44.8095 32.5431C44.7943 32.5431 44.7791 32.5451 44.7644 32.5493L36.9108 34.6537L40.1924 29.3539L48.093 27.2369Z" fill="black"/>
<path d="M44.7893 33.2619L48.8686 48.4861C49.0514 49.1687 48.9555 49.896 48.602 50.508C48.2486 51.12 47.6666 51.5665 46.984 51.7494L41.847 53.1259L37.0781 35.3281L44.7893 33.2619Z" fill="black"/>
<path d="M36.9383 35.0448L41.7072 52.8425L23.8086 57.6384C23.4719 57.7286 23.1207 57.7516 22.7751 57.706C22.4295 57.6605 22.0963 57.5472 21.7945 57.3728C21.4927 57.1984 21.2282 56.9662 21.0162 56.6896C20.8041 56.4129 20.6487 56.0971 20.5587 55.7603L16.4771 40.5273L36.9383 35.0448Z" fill="#F2F2F2"/>
<path d="M36.7491 34.377L16.1461 39.8976C16.1313 39.9012 16.1171 39.907 16.104 39.9147L10.6045 36.9619L31.2572 31.428L36.7491 34.377Z" fill="#F2F2F2"/>
<path d="M48.6971 26.7555L45.4135 32.0617C45.3983 32.0616 45.3831 32.0637 45.3684 32.0679L37.5148 34.1723L40.7964 28.8724L48.6971 26.7555Z" fill="#F2F2F2"/>
<path d="M45.3943 32.7795L49.4736 48.0036C49.6563 48.6863 49.5604 49.4136 49.207 50.0256C48.8536 50.6375 48.2716 51.0841 47.5889 51.267L42.452 52.6434L37.6831 34.8457L45.3943 32.7795Z" fill="#F2F2F2"/>
<path d="M15.918 28.8789L17.8007 30.8716H14.0354L15.918 28.8789Z" fill="#F2AF2A"/>
<path d="M15.8923 31.5599L17.6826 31.4301L15.8446 33.3544L15.8923 31.5599Z" fill="#F2AF2A"/>
<path d="M35.831 25.2417L35.9155 28.4394L39.0287 25.3263L35.831 25.2417Z" fill="#F2AF2A"/>
<path d="M38.0871 27.4205L36.4907 28.8011L39.6187 28.8728L38.0871 27.4205Z" fill="#F2AF2A"/>
</svg>
