<svg width="31" height="29" viewBox="0 0 31 29" fill="none" xmlns="http://www.w3.org/2000/svg">
<path d="M8.81181 4.18465C4.28924 10.3178 2.64841 13.861 1.517 18.6192C1.16752 20.089 1.75279 21.6136 2.94607 22.5402L6.45498 25.2647C8.33547 26.7248 11.4392 26.2183 13.8197 26.2571C14.6648 26.2709 15.6843 26.3789 16.9326 26.5677C17.1803 26.6052 17.4243 26.668 17.6602 26.7527L20.4807 27.7649C20.9142 27.9205 21.3713 28 21.8319 28H22.9252C23.469 28 23.9987 27.8265 24.4371 27.5047C24.7841 27.2499 25.0611 26.9116 25.2424 26.5212L25.447 26.0808C25.4906 25.9868 25.5132 25.8845 25.5132 25.781C25.5132 25.4664 25.7197 25.1892 26.021 25.099L26.8264 24.8582L27.6258 24.4996C28.387 24.1581 29.0224 23.5872 29.443 22.8668L29.7754 22.2974C29.9225 22.0455 30 21.759 30 21.4673C30 21.1801 29.9249 20.898 29.7822 20.6489L26.6126 15.1152C26.2206 14.4308 26.3279 13.5698 26.8759 13.0025C27.1951 12.672 27.3736 12.2304 27.3736 11.7709V11.0935C27.3736 10.5888 27.2628 10.0903 27.0491 9.63311L26.2546 7.93322C26.0538 7.50359 25.7781 7.11309 25.4406 6.77997L24.1427 5.49914C23.8993 5.25888 23.7623 4.9311 23.7623 4.58906C23.7623 4.48762 23.7502 4.38654 23.7263 4.28796L23.5099 3.39489C23.3266 2.63818 22.7657 2.02964 22.0264 1.78528C21.4564 1.59686 20.8347 1.6436 20.2993 1.91513L19.7546 2.19134C19.0184 2.56467 18.179 2.6827 17.3684 2.52686L16.2317 2.30832C15.7918 2.22377 15.3904 2.00127 15.0856 1.67311C14.6869 1.24388 14.1275 1 13.5417 1H12.4963C12.202 1 11.9092 1.04028 11.6258 1.11971C10.7801 1.35685 10.0676 1.92878 9.65324 2.7033L9.12737 3.68623C9.03503 3.85881 8.92798 4.02711 8.81181 4.18465Z" fill="black" stroke="black" stroke-linecap="round"/>
<path d="M24.5186 13.9872L22.8407 15.5431H20.5526L16.129 16.6544L14.9087 15.5431L17.0442 12.8759L20.5526 11.209L22.8407 12.098L24.5186 13.9872Z" stroke="white" stroke-linecap="round"/>
<path d="M27.6684 21.2529L25.2588 22.8641C24.7188 23.2252 24.7968 24.0418 25.3953 24.2941L26.3203 24.5866C27.1456 24.8475 28.0452 24.7141 28.7593 24.2249C29.4562 23.7475 29.9018 22.9823 29.9731 22.1406L30 21.8235C30 21.3687 29.6313 21 29.1765 21H28.5014C28.2048 21 27.9149 21.088 27.6684 21.2529Z" fill="white" stroke="black" stroke-width="0.5" stroke-linecap="round"/>
<path d="M21.6715 19.7448C22.6317 18.7113 23.2854 18.3894 24.5863 18.1081" stroke="white" stroke-linecap="round"/>
<path d="M23.409 20.8463C24.6883 19.6378 25.5225 19.2922 27.1479 19.0537" stroke="white" stroke-linecap="round"/>
</svg>
