<svg width="186" height="93" viewBox="0 0 186 93" fill="none" xmlns="http://www.w3.org/2000/svg">
<path d="M92.3347 49.2168H116.123V49.6599C116.123 50.5699 115.761 51.4426 115.118 52.086C114.475 52.7295 113.602 53.091 112.692 53.091H89.3413V52.2096C89.3411 51.8164 89.4183 51.4271 89.5687 51.0639C89.719 50.7006 89.9395 50.3706 90.2175 50.0926C90.4956 49.8146 90.8257 49.5942 91.1889 49.4439C91.5522 49.2937 91.9415 49.2165 92.3347 49.2168Z" fill="#A74602"/>
<path d="M167.426 88.8621C172.614 88.8621 176.82 84.6563 176.82 79.4682C176.82 74.28 172.614 70.0742 167.426 70.0742C162.238 70.0742 158.032 74.28 158.032 79.4682C158.032 84.6563 162.238 88.8621 167.426 88.8621Z" fill="#A74602"/>
<path d="M159.839 85.0078C158.47 83.1305 157.845 80.8125 158.086 78.5015C158.326 76.1905 159.414 74.0505 161.14 72.4948C162.865 70.9391 165.106 70.0781 167.43 70.0781C169.753 70.0781 171.994 70.9391 173.72 72.4947L159.839 85.0078Z" fill="#59221D"/>
<path d="M167.426 82.1615C168.912 82.1615 170.117 80.9569 170.117 79.4709C170.117 77.9849 168.912 76.7803 167.426 76.7803C165.94 76.7803 164.736 77.9849 164.736 79.4709C164.736 80.9569 165.94 82.1615 167.426 82.1615Z" stroke="white" stroke-width="0.305197" stroke-miterlimit="10"/>
<path d="M81.6571 88.8621C86.8453 88.8621 91.0511 84.6563 91.0511 79.4682C91.0511 74.28 86.8453 70.0742 81.6571 70.0742C76.469 70.0742 72.2632 74.28 72.2632 79.4682C72.2632 84.6563 76.469 88.8621 81.6571 88.8621Z" fill="#A74602"/>
<path d="M72.7505 76.4732C73.4612 74.3614 74.8993 72.5708 76.808 71.4213C78.7168 70.2717 80.972 69.8379 83.171 70.1973C85.37 70.5566 87.3697 71.6859 88.8132 73.3833C90.2567 75.0807 91.0499 77.2359 91.0513 79.4641L72.7505 76.4732Z" fill="#59221D"/>
<path d="M81.6618 82.1615C83.1478 82.1615 84.3524 80.9569 84.3524 79.4709C84.3524 77.9849 83.1478 76.7803 81.6618 76.7803C80.1758 76.7803 78.9712 77.9849 78.9712 79.4709C78.9712 80.9569 80.1758 82.1615 81.6618 82.1615Z" stroke="white" stroke-width="0.305197" stroke-miterlimit="10"/>
<path d="M154.032 34.4688C154.032 35.533 153.654 36.5624 152.964 37.3729C152.274 38.1834 151.319 38.722 150.268 38.8924C149.218 39.0627 148.141 38.8537 147.231 38.3027C146.321 37.7516 145.636 36.8946 145.3 35.885L152.862 31.4492C153.616 32.2738 154.034 33.3513 154.032 34.4688Z" fill="#F2AF2A"/>
<path d="M152.862 31.4491L145.3 35.8848C144.975 34.9104 144.995 33.854 145.356 32.8925C145.718 31.931 146.398 31.1228 147.284 30.6032C148.17 30.0835 149.208 29.884 150.223 30.038C151.239 30.192 152.17 30.6901 152.862 31.4491Z" fill="white" stroke="#59221D" stroke-width="0.305197" stroke-miterlimit="10" stroke-linecap="round"/>
<path d="M108.581 78.5438V53.0904H90.9896C78.2293 53.0904 67.6115 62.9 66.6074 75.6206H88.5816C90.0598 75.6207 91.5215 75.9319 92.8716 76.5339C94.2217 77.136 95.43 78.0154 96.4178 79.1151L99.6145 82.6731C100.249 83.3793 101.024 83.9441 101.891 84.3307C102.758 84.7173 103.696 84.917 104.645 84.9169H148.599C150.342 84.9168 152.053 84.452 153.556 83.5704L177.313 69.632C177.313 69.632 174.734 61.3215 164.021 63.5476L145.659 33.5107C145.324 32.9629 144.854 32.5102 144.294 32.1961C143.733 31.882 143.102 31.7169 142.46 31.7168H139.048V33.3612H140.489C141.21 33.361 141.916 33.5688 142.523 33.9597C143.129 34.3507 143.61 34.9081 143.907 35.5653L155.119 60.354C159.735 70.5568 152.274 82.1207 141.075 82.1207H112.156C111.686 82.1207 111.221 82.0282 110.787 81.8484C110.353 81.6686 109.959 81.4051 109.627 81.0729C109.295 80.7408 109.032 80.3464 108.852 79.9125C108.673 79.4785 108.58 79.0134 108.581 78.5438Z" fill="white" stroke="#59221D" stroke-width="0.305197" stroke-miterlimit="10" stroke-linecap="round"/>
<path d="M68.7881 75.5609C69.7995 69.3349 75.2033 64.5781 81.7168 64.5781C88.9512 64.5781 94.8159 70.4428 94.8159 77.6772" stroke="#59221D" stroke-width="0.305197" stroke-miterlimit="10"/>
<path d="M164.135 63.4873C161.518 64.243 159.363 65.9509 158.148 68.1684" stroke="#59221D" stroke-width="0.305197" stroke-miterlimit="10"/>
<path d="M139.222 33.731C140.256 33.731 141.093 32.8934 141.093 31.8601C141.093 30.8269 140.256 29.9893 139.222 29.9893C138.189 29.9893 137.352 30.8269 137.352 31.8601C137.352 32.8934 138.189 33.731 139.222 33.731Z" fill="#59221D"/>
<path d="M141.019 19.2064C142.296 17.4823 142.8 15.6915 142.145 15.2066C141.491 14.7217 139.925 15.7263 138.648 17.4505C137.371 19.1746 136.867 20.9653 137.522 21.4502C138.177 21.9351 139.743 20.9305 141.019 19.2064Z" fill="#F2AF2A"/>
<path d="M140.557 18.8119C141.874 17.0328 142.394 15.1847 141.718 14.6842C141.042 14.1837 139.427 15.2202 138.109 16.9993C136.792 18.7784 136.272 20.6265 136.948 21.127C137.623 21.6275 139.239 20.591 140.557 18.8119Z" stroke="#59221D" stroke-width="0.305197" stroke-miterlimit="10" stroke-linecap="round"/>
<path d="M144.481 32.3103V25.1138C144.48 24.1331 144.117 23.1872 143.461 22.4586L139.401 17.9551" stroke="#59221D" stroke-width="0.305197" stroke-miterlimit="10" stroke-linecap="round"/>
<path d="M108.581 53.0908V57.2604L89.3418 53.1519V53.1476C89.8863 53.1102 90.4356 53.0916 90.9899 53.092L108.581 53.0908Z" fill="#59221D"/>
<path d="M81.6577 88.8604H186" stroke="#59221D" stroke-width="0.305197" stroke-miterlimit="10"/>
<path d="M117.325 92.1641H177.313" stroke="#59221D" stroke-width="0.305197" stroke-miterlimit="10"/>
<path d="M65.7033 79.4875C65.1542 77.0996 63.8116 74.9684 61.8946 73.4423C59.9777 71.9162 57.5998 71.0853 55.1496 71.0855C53.0761 71.0855 51.0433 70.5107 49.277 69.4248C47.5107 68.339 46.08 66.7846 45.144 64.9345L42.0987 58.9136C40.6465 56.0428 38.269 53.7453 35.3503 52.3919C32.4315 51.0386 29.1419 50.7084 26.0124 51.4548C22.883 52.2012 20.0964 53.9805 18.1027 56.5055C16.1089 59.0305 15.0243 62.1537 15.0241 65.371V67.6471C16.713 67.7623 18.3431 68.3135 19.7553 69.2469C21.1675 70.1804 22.3135 71.4641 23.0813 72.9728C22.1655 71.8228 21.002 70.8944 19.6774 70.2568C18.3528 69.6191 16.9013 69.2888 15.4312 69.2903C15.2951 69.2903 15.159 69.2934 15.0241 69.2989C12.5002 69.4025 10.1141 70.478 8.36501 72.3004C6.61588 74.1229 5.63916 76.5511 5.63916 79.0771C5.63916 81.6031 6.61588 84.0312 8.36501 85.8537C10.1141 87.6761 12.5002 88.7516 15.0241 88.8553L80.1678 88.8638C71.1577 88.862 66.9662 84.9744 65.7033 79.4875ZM13.7703 75.5304C13.5224 75.5304 13.28 75.4568 13.0738 75.3191C12.8676 75.1813 12.7069 74.9855 12.612 74.7564C12.5171 74.5273 12.4923 74.2752 12.5407 74.032C12.5891 73.7888 12.7085 73.5654 12.8838 73.3901C13.0591 73.2147 13.2825 73.0953 13.5257 73.047C13.7689 72.9986 14.021 73.0234 14.2501 73.1183C14.4792 73.2132 14.675 73.3739 14.8128 73.5801C14.9506 73.7863 15.0241 74.0286 15.0241 74.2766C15.0241 74.6091 14.892 74.928 14.6569 75.1631C14.4217 75.3983 14.1029 75.5304 13.7703 75.5304Z" fill="#86C4CF"/>
<path d="M2.22611 88.5948C3.45555 88.5948 4.45221 87.5981 4.45221 86.3687C4.45221 85.1392 3.45555 84.1426 2.22611 84.1426C0.996662 84.1426 0 85.1392 0 86.3687C0 87.5981 0.996662 88.5948 2.22611 88.5948Z" fill="#86C4CF"/>
<path d="M140.004 77.4865C133.22 79.3922 126.332 78.1348 124.518 77.7398C124.524 77.7258 124.53 77.7111 124.537 77.6965L139.578 46.6885V75.7762C139.579 76.3725 139.725 76.9596 140.004 77.4865Z" fill="#59221D"/>
<path d="M142.78 81.5644V82.1204H127.246C124.987 82.1204 123.481 79.7967 124.392 77.7397C126.207 78.1346 133.093 79.392 139.878 77.4863C140.127 77.9567 140.476 78.3668 140.901 78.6882L141.622 79.2376C141.982 79.5096 142.274 79.8613 142.475 80.265C142.675 80.6687 142.78 81.1135 142.78 81.5644Z" fill="#A74602" stroke="#59221D" stroke-width="0.305197" stroke-miterlimit="10"/>
<path d="M138.656 49.1242L125.487 76.3087C125.251 76.7966 125.208 77.3552 125.365 77.8738C125.365 77.8738 116.913 81.292 109.052 80.2763C108.779 79.7928 108.622 79.2525 108.594 78.6981C108.566 78.1436 108.667 77.5902 108.889 77.0815L119.862 51.6891C119.987 51.3999 120.038 51.0843 120.01 50.7705C119.983 50.4567 119.878 50.1546 119.705 49.8914C119.532 49.6281 119.297 49.412 119.019 49.2625C118.742 49.1129 118.432 49.0345 118.117 49.0345H102.369C100.952 49.0344 99.5523 48.7313 98.2626 48.1455C96.9728 47.5598 95.8233 46.7049 94.8911 45.6382L116.162 36.0361H130.453C137.179 36.0355 141.587 43.0697 138.656 49.1242Z" fill="white" stroke="#59221D" stroke-width="0.305197" stroke-miterlimit="10" stroke-linecap="round"/>
<path d="M121.491 39.834C128.216 39.834 132.625 46.8688 129.693 52.9208L116.524 80.1053" stroke="#59221D" stroke-width="0.305197" stroke-miterlimit="10" stroke-linecap="round" stroke-dasharray="1.22 1.22"/>
<path d="M127.861 82.1207H112.201C111.559 82.123 110.927 81.9528 110.373 81.6279C109.819 81.303 109.362 80.8353 109.05 80.2736C116.911 81.2875 125.363 77.8711 125.363 77.8711C125.474 78.2406 125.682 78.5735 125.966 78.8349L126.732 79.543C127.088 79.8713 127.372 80.2698 127.566 80.7135C127.761 81.1571 127.861 81.6363 127.861 82.1207Z" fill="white" stroke="#59221D" stroke-width="0.305197" stroke-miterlimit="10"/>
<path d="M119.918 8.10404L118.05 10.7538C116.906 9.96762 115.55 9.54783 114.161 9.55006H111.274C111.119 9.55006 110.964 9.55251 110.809 9.55739L114.883 5.84863L119.918 8.10404Z" fill="white" stroke="#59221D" stroke-width="0.305197" stroke-miterlimit="10" stroke-linecap="round"/>
<path d="M121.368 3.33679L121.823 6.13179C121.841 6.28513 121.803 6.43978 121.715 6.56682C121.627 6.69387 121.496 6.78463 121.346 6.82214L121.308 6.8313C121.159 6.86775 121.024 6.94844 120.921 7.06281C120.819 7.17718 120.753 7.31988 120.733 7.47221L120.611 8.40123C120.585 8.59307 120.485 8.76699 120.332 8.88502C120.178 9.00305 119.984 9.05559 119.792 9.03115C118.744 8.89137 116.881 8.38902 116.366 6.58226C115.636 4.02715 118.353 3.33496 118.353 3.33496L121.368 3.33679Z" fill="white" stroke="#59221D" stroke-width="0.305197" stroke-miterlimit="10" stroke-linecap="round"/>
<path d="M119.033 4.29568C119.033 4.29568 119.625 3.94959 120.149 3.94043" stroke="#59221D" stroke-width="0.305197" stroke-miterlimit="10" stroke-linecap="round"/>
<path d="M119.827 5.48296C119.931 5.48296 120.016 5.33265 120.016 5.14724C120.016 4.96183 119.931 4.81152 119.827 4.81152C119.722 4.81152 119.638 4.96183 119.638 5.14724C119.638 5.33265 119.722 5.48296 119.827 5.48296Z" fill="#59221D"/>
<path d="M120.713 7.50761C120.001 7.50761 119.851 6.81543 119.851 6.81543" stroke="#59221D" stroke-width="0.305197" stroke-miterlimit="10" stroke-linecap="round"/>
<path d="M114.523 5.52854L114.439 5.34542C114.035 4.4666 113.997 3.46356 114.333 2.55657C114.668 1.64958 115.35 0.912807 116.228 0.508046L116.696 0.291964C117.113 0.0994949 117.567 -0.000119562 118.027 1.07695e-07C118.486 0.000119778 118.94 0.0999706 119.357 0.292657C119.774 0.485343 120.144 0.766271 120.442 1.11603C120.74 1.4658 120.959 1.87606 121.082 2.31847L121.368 3.33783H119.067C118.77 3.33783 118.486 3.45564 118.276 3.66536C118.066 3.87507 117.949 4.1595 117.949 4.45607V4.82841C117.949 5.27311 117.772 5.6996 117.458 6.01406C117.143 6.32851 116.717 6.50517 116.272 6.50517H116.046C115.725 6.50523 115.411 6.41324 115.141 6.24013C114.871 6.06702 114.656 5.82005 114.523 5.52854Z" fill="#59221D"/>
<path d="M119.088 9.56566C119.071 9.56555 119.055 9.56453 119.038 9.5626C118.665 9.51621 117.836 9.28853 117.099 8.7288C116.204 8.04882 115.763 7.11981 115.824 6.04307C115.83 5.93785 115.877 5.83927 115.956 5.76905C116.034 5.69882 116.138 5.66269 116.243 5.66859C116.348 5.6745 116.447 5.72197 116.517 5.80055C116.587 5.87914 116.623 5.9824 116.617 6.08763C116.509 8.02746 118.61 8.71232 119.137 8.77336C119.242 8.77975 119.341 8.82769 119.411 8.90662C119.48 8.98555 119.516 9.089 119.51 9.19423C119.503 9.29945 119.455 9.39784 119.376 9.46772C119.298 9.5376 119.194 9.57327 119.089 9.56687L119.088 9.56566Z" fill="#59221D"/>
<path d="M116.242 6.04286C116.786 6.04286 117.227 5.60151 117.227 5.05708C117.227 4.51264 116.786 4.07129 116.242 4.07129C115.697 4.07129 115.256 4.51264 115.256 5.05708C115.256 5.60151 115.697 6.04286 116.242 6.04286Z" stroke="white" stroke-width="0.305197" stroke-miterlimit="10"/>
<path d="M118.58 3.50437C118.105 3.59105 119.566 2.97516 120.594 2.42581C120.532 2.2555 120.5 2.07552 120.5 1.89415C120.5 0.999926 121.255 0.275391 122.186 0.275391C123.117 0.275391 123.873 0.999926 123.873 1.89415C123.873 2.78838 123.118 3.51231 122.186 3.51231L118.58 3.50437Z" fill="#F2AF2A"/>
<path d="M124.932 2.37411C125.259 2.37411 125.525 2.10847 125.525 1.7808C125.525 1.45313 125.259 1.1875 124.932 1.1875C124.604 1.1875 124.338 1.45313 124.338 1.7808C124.338 2.10847 124.604 2.37411 124.932 2.37411Z" fill="#F2AF2A"/>
<path d="M132.706 36.3097C132.706 36.3097 117.354 44.7704 109.103 39.2219C109.103 39.2219 101.234 44.5647 94.8926 45.6372V30.796C94.8926 27.6727 96.2885 23.0141 97.8225 18.8384C98.8438 16.0602 100.693 13.6623 103.121 11.9687C105.549 10.2752 108.438 9.36743 111.398 9.36816H114.287C116.112 9.36816 117.861 10.0929 119.152 11.383C120.442 12.6731 121.166 14.4228 121.166 16.2473V24.1342C121.166 24.375 121.219 24.6129 121.322 24.8308C121.424 25.0488 121.574 25.2414 121.759 25.3949C121.945 25.5485 122.162 25.6592 122.395 25.7192C122.628 25.7792 122.872 25.787 123.109 25.742L132.286 23.9963C131.533 24.7287 130.976 27.3577 130.976 30.1899C130.975 33.5306 131.75 36.3097 132.706 36.3097Z" fill="#F2AF2A"/>
<path d="M134.133 30.1901C134.133 33.5308 133.358 36.3099 132.402 36.3099C131.445 36.3099 130.67 33.5308 130.67 30.1901C130.67 26.8494 131.445 24.0996 132.402 24.0996C133.358 24.0996 134.133 26.8494 134.133 30.1901Z" fill="white" stroke="#F2AF2A" stroke-width="0.305197" stroke-miterlimit="10"/>
<path d="M143.015 26.946V32.9315H142.168C141.884 32.9315 141.611 32.8184 141.41 32.6172C141.208 32.416 141.095 32.143 141.095 31.8584C141.095 31.3623 140.898 30.8865 140.548 30.5355C140.197 30.1846 139.721 29.9873 139.225 29.9869C138.729 29.9874 138.253 30.1848 137.903 30.5357C137.552 30.8865 137.355 31.3623 137.354 31.8584C137.354 32.4429 137.239 33.0217 137.016 33.5617C136.792 34.1017 136.464 34.5924 136.051 35.0057C135.638 35.419 135.147 35.7468 134.607 35.9704C134.067 36.194 133.488 36.309 132.904 36.3088H132.709H132.663C131.728 36.2215 130.978 33.479 130.978 30.1908C130.978 28.685 131.136 27.2994 131.396 26.2318L133.685 25.1673L134.963 24.5728C135.622 24.2667 136.362 24.183 137.072 24.3341L141.695 25.3168C142.069 25.3965 142.403 25.6017 142.643 25.8982C142.883 26.1946 143.015 26.5645 143.015 26.946Z" fill="white" stroke="#59221D" stroke-width="0.305197" stroke-miterlimit="10" stroke-linecap="round"/>
<path d="M138.676 27.0488L141.693 27.6897C142.066 27.7694 142.401 27.9749 142.642 28.2719C142.882 28.5689 143.013 28.9393 143.013 29.3213V32.8732" stroke="#59221D" stroke-width="0.305197" stroke-miterlimit="10" stroke-linecap="round"/>
<path d="M134.437 30.1907C134.437 33.532 133.662 36.3105 132.706 36.3105H132.66C131.725 36.2232 130.974 33.4807 130.974 30.1925C130.974 28.6866 131.132 27.301 131.392 26.2335L133.681 25.1689C134.138 26.2683 134.437 28.1153 134.437 30.1907Z" fill="#59221D"/>
<path d="M110.11 39.9686C107.207 38.0764 104.429 34.9744 105.252 25.6104" stroke="white" stroke-width="0.305197" stroke-miterlimit="10" stroke-linecap="round"/>
<path d="M109.913 39.9376C104.876 45.541 94.8926 45.6387 94.8926 45.6387V34.9727C95.2783 42.0856 105.99 38.3573 107.427 37.8281C108.156 38.707 109.051 39.3699 109.913 39.9376Z" fill="#59221D"/>
<path d="M111.27 9.17969V9.36952C107.91 9.54548 104.698 10.8146 102.126 12.9838C99.5529 15.1529 97.7594 18.1033 97.018 21.3857L94.8926 30.7974V9.17969H111.27Z" fill="#59221D"/>
<path d="M94.8923 9.36914V45.6388H77.4961C74.9324 45.6388 72.7869 43.7069 72.2656 41.1286C72.1842 40.7284 72.1433 40.321 72.1436 39.9126V15.0946C72.1436 15.0818 72.1436 15.0684 72.1436 15.055C72.1464 14.43 72.2459 13.8092 72.4384 13.2146C73.1654 10.9757 75.154 9.36914 77.4943 9.36914H94.8923Z" fill="white" stroke="#59221D" stroke-width="0.305197" stroke-miterlimit="10" stroke-linecap="round"/>
<path d="M94.8917 39.585V41.4253H72.2656C72.1846 41.0519 72.1437 40.6709 72.1436 40.2887V39.585H94.8917Z" fill="#59221D"/>
<path d="M94.8922 13.2158V15.0562H72.1489C72.1518 14.4312 72.2512 13.8104 72.4437 13.2158H94.8922Z" fill="#59221D"/>
<path d="M94.7025 15.6152H72.3291V15.9204H94.7025V15.6152Z" fill="#86C4CF"/>
<path d="M84.748 32.6444V22.7969C84.748 22.7037 84.7851 22.6142 84.851 22.5483C84.917 22.4824 85.0064 22.4453 85.0996 22.4453C85.1929 22.4453 85.2823 22.4824 85.3482 22.5483C85.4142 22.6142 85.4512 22.7037 85.4512 22.7969V26.9146" stroke="#86C4CF" stroke-width="0.305197" stroke-miterlimit="10"/>
<path d="M84.748 32.6437V26.9121H86.3314V29.9427C86.3315 30.493 86.1848 31.0334 85.9065 31.5082C85.6282 31.983 85.2283 32.3749 84.748 32.6437Z" stroke="#86C4CF" stroke-width="0.305197" stroke-miterlimit="10"/>
<path d="M82.8916 22.4453L83.0552 24.3888C83.0682 24.5435 83.049 24.6992 82.9987 24.846C82.9484 24.9929 82.8682 25.1277 82.7632 25.242C82.6582 25.3563 82.5305 25.4476 82.3884 25.51C82.2463 25.5724 82.0928 25.6047 81.9375 25.6047C81.7823 25.6048 81.6287 25.5726 81.4866 25.5102C81.3444 25.4478 81.2167 25.3565 81.1117 25.2422C81.0066 25.1279 80.9264 24.9931 80.8762 24.8461C80.826 24.6992 80.8068 24.5435 80.8199 24.3888L80.9829 22.4453" stroke="#F2AF2A" stroke-width="0.305197" stroke-miterlimit="10" stroke-linecap="round"/>
<path d="M81.9365 22.4453V27.2528" stroke="#F2AF2A" stroke-width="0.305197" stroke-miterlimit="10" stroke-linecap="round"/>
<path d="M82.0669 27.3301H81.824C81.675 27.3301 81.5542 27.4509 81.5542 27.5999V32.3762C81.5542 32.5252 81.675 32.646 81.824 32.646H82.0669C82.2159 32.646 82.3367 32.5252 82.3367 32.3762V27.5999C82.3367 27.4509 82.2159 27.3301 82.0669 27.3301Z" stroke="#F2AF2A" stroke-width="0.305197" stroke-miterlimit="10" stroke-linecap="round"/>
</svg>
