<svg width="291" height="299" viewBox="0 0 291 299" fill="none" xmlns="http://www.w3.org/2000/svg">
<circle cx="152.471" cy="137.528" r="137.528" fill="#DB3319"/>
<path d="M69.81 280.565C70.4011 280.565 70.8803 280.086 70.8803 279.495C70.8803 278.904 70.4011 278.425 69.81 278.425C69.2189 278.425 68.7397 278.904 68.7397 279.495C68.7397 280.086 69.2189 280.565 69.81 280.565Z" fill="#DB3319"/>
<path d="M76.5542 280.565C77.1453 280.565 77.6245 280.086 77.6245 279.495C77.6245 278.904 77.1453 278.425 76.5542 278.425C75.9631 278.425 75.4839 278.904 75.4839 279.495C75.4839 280.086 75.9631 280.565 76.5542 280.565Z" fill="#DB3319"/>
<path d="M83.2954 280.565C83.8865 280.565 84.3657 280.086 84.3657 279.495C84.3657 278.904 83.8865 278.425 83.2954 278.425C82.7043 278.425 82.2251 278.904 82.2251 279.495C82.2251 280.086 82.7043 280.565 83.2954 280.565Z" fill="#DB3319"/>
<path d="M90.0395 280.565C90.6306 280.565 91.1098 280.086 91.1098 279.495C91.1098 278.904 90.6306 278.425 90.0395 278.425C89.4484 278.425 88.9692 278.904 88.9692 279.495C88.9692 280.086 89.4484 280.565 90.0395 280.565Z" fill="#DB3319"/>
<path d="M96.7832 280.565C97.3743 280.565 97.8535 280.086 97.8535 279.495C97.8535 278.904 97.3743 278.425 96.7832 278.425C96.1921 278.425 95.7129 278.904 95.7129 279.495C95.7129 280.086 96.1921 280.565 96.7832 280.565Z" fill="#DB3319"/>
<path d="M103.527 280.565C104.118 280.565 104.598 280.086 104.598 279.495C104.598 278.904 104.118 278.425 103.527 278.425C102.936 278.425 102.457 278.904 102.457 279.495C102.457 280.086 102.936 280.565 103.527 280.565Z" fill="#DB3319"/>
<path d="M110.269 280.565C110.861 280.565 111.34 280.086 111.34 279.495C111.34 278.904 110.861 278.425 110.269 278.425C109.678 278.425 109.199 278.904 109.199 279.495C109.199 280.086 109.678 280.565 110.269 280.565Z" fill="#DB3319"/>
<path d="M29.3515 280.565C29.9426 280.565 30.4218 280.086 30.4218 279.495C30.4218 278.904 29.9426 278.425 29.3515 278.425C28.7604 278.425 28.2812 278.904 28.2812 279.495C28.2812 280.086 28.7604 280.565 29.3515 280.565Z" fill="#DB3319"/>
<path d="M36.0957 280.565C36.6868 280.565 37.166 280.086 37.166 279.495C37.166 278.904 36.6868 278.425 36.0957 278.425C35.5046 278.425 35.0254 278.904 35.0254 279.495C35.0254 280.086 35.5046 280.565 36.0957 280.565Z" fill="#DB3319"/>
<path d="M42.8369 280.565C43.428 280.565 43.9072 280.086 43.9072 279.495C43.9072 278.904 43.428 278.425 42.8369 278.425C42.2458 278.425 41.7666 278.904 41.7666 279.495C41.7666 280.086 42.2458 280.565 42.8369 280.565Z" fill="#DB3319"/>
<path d="M49.581 280.565C50.1721 280.565 50.6513 280.086 50.6513 279.495C50.6513 278.904 50.1721 278.425 49.581 278.425C48.9899 278.425 48.5107 278.904 48.5107 279.495C48.5107 280.086 48.9899 280.565 49.581 280.565Z" fill="#DB3319"/>
<path d="M56.3237 280.565C56.9148 280.565 57.394 280.086 57.394 279.495C57.394 278.904 56.9148 278.425 56.3237 278.425C55.7326 278.425 55.2534 278.904 55.2534 279.495C55.2534 280.086 55.7326 280.565 56.3237 280.565Z" fill="#DB3319"/>
<path d="M63.0664 280.565C63.6575 280.565 64.1367 280.086 64.1367 279.495C64.1367 278.904 63.6575 278.425 63.0664 278.425C62.4753 278.425 61.9961 278.904 61.9961 279.495C61.9961 280.086 62.4753 280.565 63.0664 280.565Z" fill="#DB3319"/>
<path d="M66.4375 284.078C67.0286 284.078 67.5078 283.599 67.5078 283.008C67.5078 282.417 67.0286 281.938 66.4375 281.938C65.8464 281.938 65.3672 282.417 65.3672 283.008C65.3672 283.599 65.8464 284.078 66.4375 284.078Z" fill="#DB3319"/>
<path d="M73.1826 284.078C73.7737 284.078 74.2529 283.599 74.2529 283.008C74.2529 282.417 73.7737 281.938 73.1826 281.938C72.5915 281.938 72.1123 282.417 72.1123 283.008C72.1123 283.599 72.5915 284.078 73.1826 284.078Z" fill="#DB3319"/>
<path d="M79.9262 284.078C80.5173 284.078 80.9965 283.599 80.9965 283.008C80.9965 282.417 80.5173 281.938 79.9262 281.938C79.3351 281.938 78.856 282.417 78.856 283.008C78.856 283.599 79.3351 284.078 79.9262 284.078Z" fill="#DB3319"/>
<path d="M86.6679 284.078C87.259 284.078 87.7383 283.599 87.7383 283.008C87.7383 282.417 87.259 281.938 86.6679 281.938C86.0768 281.938 85.5977 282.417 85.5977 283.008C85.5977 283.599 86.0768 284.078 86.6679 284.078Z" fill="#DB3319"/>
<path d="M93.4116 284.078C94.0027 284.078 94.4819 283.599 94.4819 283.008C94.4819 282.417 94.0027 281.938 93.4116 281.938C92.8205 281.938 92.3413 282.417 92.3413 283.008C92.3413 283.599 92.8205 284.078 93.4116 284.078Z" fill="#DB3319"/>
<path d="M100.155 284.078C100.746 284.078 101.225 283.599 101.225 283.008C101.225 282.417 100.746 281.938 100.155 281.938C99.5636 281.938 99.0845 282.417 99.0845 283.008C99.0845 283.599 99.5636 284.078 100.155 284.078Z" fill="#DB3319"/>
<path d="M106.897 284.078C107.488 284.078 107.967 283.599 107.967 283.008C107.967 282.417 107.488 281.938 106.897 281.938C106.306 281.938 105.827 282.417 105.827 283.008C105.827 283.599 106.306 284.078 106.897 284.078Z" fill="#DB3319"/>
<path d="M25.9795 284.078C26.5706 284.078 27.0498 283.599 27.0498 283.008C27.0498 282.417 26.5706 281.938 25.9795 281.938C25.3884 281.938 24.9092 282.417 24.9092 283.008C24.9092 283.599 25.3884 284.078 25.9795 284.078Z" fill="#DB3319"/>
<path d="M32.7231 284.078C33.3142 284.078 33.7934 283.599 33.7934 283.008C33.7934 282.417 33.3142 281.938 32.7231 281.938C32.132 281.938 31.6528 282.417 31.6528 283.008C31.6528 283.599 32.132 284.078 32.7231 284.078Z" fill="#DB3319"/>
<path d="M39.4643 284.078C40.0554 284.078 40.5346 283.599 40.5346 283.008C40.5346 282.417 40.0554 281.938 39.4643 281.938C38.8732 281.938 38.394 282.417 38.394 283.008C38.394 283.599 38.8732 284.078 39.4643 284.078Z" fill="#DB3319"/>
<path d="M46.2085 284.078C46.7996 284.078 47.2788 283.599 47.2788 283.008C47.2788 282.417 46.7996 281.938 46.2085 281.938C45.6174 281.938 45.1382 282.417 45.1382 283.008C45.1382 283.599 45.6174 284.078 46.2085 284.078Z" fill="#DB3319"/>
<path d="M52.9526 284.078C53.5437 284.078 54.0229 283.599 54.0229 283.008C54.0229 282.417 53.5437 281.938 52.9526 281.938C52.3615 281.938 51.8823 282.417 51.8823 283.008C51.8823 283.599 52.3615 284.078 52.9526 284.078Z" fill="#DB3319"/>
<path d="M59.6963 284.078C60.2874 284.078 60.7665 283.599 60.7665 283.008C60.7665 282.417 60.2874 281.938 59.6963 281.938C59.1052 281.938 58.626 282.417 58.626 283.008C58.626 283.599 59.1052 284.078 59.6963 284.078Z" fill="#DB3319"/>
<path d="M69.81 287.592C70.4011 287.592 70.8803 287.113 70.8803 286.521C70.8803 285.93 70.4011 285.451 69.81 285.451C69.2189 285.451 68.7397 285.93 68.7397 286.521C68.7397 287.113 69.2189 287.592 69.81 287.592Z" fill="#DB3319"/>
<path d="M76.5542 287.592C77.1453 287.592 77.6245 287.113 77.6245 286.521C77.6245 285.93 77.1453 285.451 76.5542 285.451C75.9631 285.451 75.4839 285.93 75.4839 286.521C75.4839 287.113 75.9631 287.592 76.5542 287.592Z" fill="#DB3319"/>
<path d="M83.2954 287.592C83.8865 287.592 84.3657 287.113 84.3657 286.521C84.3657 285.93 83.8865 285.451 83.2954 285.451C82.7043 285.451 82.2251 285.93 82.2251 286.521C82.2251 287.113 82.7043 287.592 83.2954 287.592Z" fill="#DB3319"/>
<path d="M90.0395 287.592C90.6306 287.592 91.1098 287.113 91.1098 286.521C91.1098 285.93 90.6306 285.451 90.0395 285.451C89.4484 285.451 88.9692 285.93 88.9692 286.521C88.9692 287.113 89.4484 287.592 90.0395 287.592Z" fill="#DB3319"/>
<path d="M96.7832 287.592C97.3743 287.592 97.8535 287.113 97.8535 286.521C97.8535 285.93 97.3743 285.451 96.7832 285.451C96.1921 285.451 95.7129 285.93 95.7129 286.521C95.7129 287.113 96.1921 287.592 96.7832 287.592Z" fill="#DB3319"/>
<path d="M103.527 287.592C104.118 287.592 104.598 287.113 104.598 286.521C104.598 285.93 104.118 285.451 103.527 285.451C102.936 285.451 102.457 285.93 102.457 286.521C102.457 287.113 102.936 287.592 103.527 287.592Z" fill="#DB3319"/>
<path d="M110.269 287.592C110.861 287.592 111.34 287.113 111.34 286.521C111.34 285.93 110.861 285.451 110.269 285.451C109.678 285.451 109.199 285.93 109.199 286.521C109.199 287.113 109.678 287.592 110.269 287.592Z" fill="#DB3319"/>
<path d="M22.6079 287.592C23.199 287.592 23.6782 287.113 23.6782 286.521C23.6782 285.93 23.199 285.451 22.6079 285.451C22.0168 285.451 21.5376 285.93 21.5376 286.521C21.5376 287.113 22.0168 287.592 22.6079 287.592Z" fill="#DB3319"/>
<path d="M29.3515 287.592C29.9426 287.592 30.4218 287.113 30.4218 286.521C30.4218 285.93 29.9426 285.451 29.3515 285.451C28.7604 285.451 28.2812 285.93 28.2812 286.521C28.2812 287.113 28.7604 287.592 29.3515 287.592Z" fill="#DB3319"/>
<path d="M36.0957 287.592C36.6868 287.592 37.166 287.113 37.166 286.521C37.166 285.93 36.6868 285.451 36.0957 285.451C35.5046 285.451 35.0254 285.93 35.0254 286.521C35.0254 287.113 35.5046 287.592 36.0957 287.592Z" fill="#DB3319"/>
<path d="M42.8369 287.592C43.428 287.592 43.9072 287.113 43.9072 286.521C43.9072 285.93 43.428 285.451 42.8369 285.451C42.2458 285.451 41.7666 285.93 41.7666 286.521C41.7666 287.113 42.2458 287.592 42.8369 287.592Z" fill="#DB3319"/>
<path d="M49.581 287.592C50.1721 287.592 50.6513 287.113 50.6513 286.521C50.6513 285.93 50.1721 285.451 49.581 285.451C48.9899 285.451 48.5107 285.93 48.5107 286.521C48.5107 287.113 48.9899 287.592 49.581 287.592Z" fill="#DB3319"/>
<path d="M56.3237 287.592C56.9148 287.592 57.394 287.113 57.394 286.521C57.394 285.93 56.9148 285.451 56.3237 285.451C55.7326 285.451 55.2534 285.93 55.2534 286.521C55.2534 287.113 55.7326 287.592 56.3237 287.592Z" fill="#DB3319"/>
<path d="M63.0664 287.592C63.6575 287.592 64.1367 287.113 64.1367 286.521C64.1367 285.93 63.6575 285.451 63.0664 285.451C62.4753 285.451 61.9961 285.93 61.9961 286.521C61.9961 287.113 62.4753 287.592 63.0664 287.592Z" fill="#DB3319"/>
<path d="M66.4375 291.105C67.0286 291.105 67.5078 290.626 67.5078 290.035C67.5078 289.444 67.0286 288.965 66.4375 288.965C65.8464 288.965 65.3672 289.444 65.3672 290.035C65.3672 290.626 65.8464 291.105 66.4375 291.105Z" fill="#DB3319"/>
<path d="M73.1826 291.105C73.7737 291.105 74.2529 290.626 74.2529 290.035C74.2529 289.444 73.7737 288.965 73.1826 288.965C72.5915 288.965 72.1123 289.444 72.1123 290.035C72.1123 290.626 72.5915 291.105 73.1826 291.105Z" fill="#DB3319"/>
<path d="M79.9262 291.105C80.5173 291.105 80.9965 290.626 80.9965 290.035C80.9965 289.444 80.5173 288.965 79.9262 288.965C79.3351 288.965 78.856 289.444 78.856 290.035C78.856 290.626 79.3351 291.105 79.9262 291.105Z" fill="#DB3319"/>
<path d="M86.6679 291.105C87.259 291.105 87.7383 290.626 87.7383 290.035C87.7383 289.444 87.259 288.965 86.6679 288.965C86.0768 288.965 85.5977 289.444 85.5977 290.035C85.5977 290.626 86.0768 291.105 86.6679 291.105Z" fill="#DB3319"/>
<path d="M93.4116 291.105C94.0027 291.105 94.4819 290.626 94.4819 290.035C94.4819 289.444 94.0027 288.965 93.4116 288.965C92.8205 288.965 92.3413 289.444 92.3413 290.035C92.3413 290.626 92.8205 291.105 93.4116 291.105Z" fill="#DB3319"/>
<path d="M100.155 291.105C100.746 291.105 101.225 290.626 101.225 290.035C101.225 289.444 100.746 288.965 100.155 288.965C99.5636 288.965 99.0845 289.444 99.0845 290.035C99.0845 290.626 99.5636 291.105 100.155 291.105Z" fill="#DB3319"/>
<path d="M106.897 291.105C107.488 291.105 107.967 290.626 107.967 290.035C107.967 289.444 107.488 288.965 106.897 288.965C106.306 288.965 105.827 289.444 105.827 290.035C105.827 290.626 106.306 291.105 106.897 291.105Z" fill="#DB3319"/>
<path d="M25.9795 291.105C26.5706 291.105 27.0498 290.626 27.0498 290.035C27.0498 289.444 26.5706 288.965 25.9795 288.965C25.3884 288.965 24.9092 289.444 24.9092 290.035C24.9092 290.626 25.3884 291.105 25.9795 291.105Z" fill="#DB3319"/>
<path d="M19.2353 291.105C19.8264 291.105 20.3056 290.626 20.3056 290.035C20.3056 289.444 19.8264 288.965 19.2353 288.965C18.6442 288.965 18.165 289.444 18.165 290.035C18.165 290.626 18.6442 291.105 19.2353 291.105Z" fill="#DB3319"/>
<path d="M32.7231 291.105C33.3142 291.105 33.7934 290.626 33.7934 290.035C33.7934 289.444 33.3142 288.965 32.7231 288.965C32.132 288.965 31.6528 289.444 31.6528 290.035C31.6528 290.626 32.132 291.105 32.7231 291.105Z" fill="#DB3319"/>
<path d="M39.4643 291.105C40.0554 291.105 40.5346 290.626 40.5346 290.035C40.5346 289.444 40.0554 288.965 39.4643 288.965C38.8732 288.965 38.394 289.444 38.394 290.035C38.394 290.626 38.8732 291.105 39.4643 291.105Z" fill="#DB3319"/>
<path d="M46.2085 291.105C46.7996 291.105 47.2788 290.626 47.2788 290.035C47.2788 289.444 46.7996 288.965 46.2085 288.965C45.6174 288.965 45.1382 289.444 45.1382 290.035C45.1382 290.626 45.6174 291.105 46.2085 291.105Z" fill="#DB3319"/>
<path d="M52.9526 291.105C53.5437 291.105 54.0229 290.626 54.0229 290.035C54.0229 289.444 53.5437 288.965 52.9526 288.965C52.3615 288.965 51.8823 289.444 51.8823 290.035C51.8823 290.626 52.3615 291.105 52.9526 291.105Z" fill="#DB3319"/>
<path d="M59.6963 291.105C60.2874 291.105 60.7665 290.626 60.7665 290.035C60.7665 289.444 60.2874 288.965 59.6963 288.965C59.1052 288.965 58.626 289.444 58.626 290.035C58.626 290.626 59.1052 291.105 59.6963 291.105Z" fill="#DB3319"/>
<path d="M69.81 294.618C70.4011 294.618 70.8803 294.139 70.8803 293.548C70.8803 292.957 70.4011 292.478 69.81 292.478C69.2189 292.478 68.7397 292.957 68.7397 293.548C68.7397 294.139 69.2189 294.618 69.81 294.618Z" fill="#DB3319"/>
<path d="M76.5542 294.618C77.1453 294.618 77.6245 294.139 77.6245 293.548C77.6245 292.957 77.1453 292.478 76.5542 292.478C75.9631 292.478 75.4839 292.957 75.4839 293.548C75.4839 294.139 75.9631 294.618 76.5542 294.618Z" fill="#DB3319"/>
<path d="M83.2954 294.618C83.8865 294.618 84.3657 294.139 84.3657 293.548C84.3657 292.957 83.8865 292.478 83.2954 292.478C82.7043 292.478 82.2251 292.957 82.2251 293.548C82.2251 294.139 82.7043 294.618 83.2954 294.618Z" fill="#DB3319"/>
<path d="M90.0395 294.618C90.6306 294.618 91.1098 294.139 91.1098 293.548C91.1098 292.957 90.6306 292.478 90.0395 292.478C89.4484 292.478 88.9692 292.957 88.9692 293.548C88.9692 294.139 89.4484 294.618 90.0395 294.618Z" fill="#DB3319"/>
<path d="M96.7832 294.618C97.3743 294.618 97.8535 294.139 97.8535 293.548C97.8535 292.957 97.3743 292.478 96.7832 292.478C96.1921 292.478 95.7129 292.957 95.7129 293.548C95.7129 294.139 96.1921 294.618 96.7832 294.618Z" fill="#DB3319"/>
<path d="M103.527 294.618C104.118 294.618 104.598 294.139 104.598 293.548C104.598 292.957 104.118 292.478 103.527 292.478C102.936 292.478 102.457 292.957 102.457 293.548C102.457 294.139 102.936 294.618 103.527 294.618Z" fill="#DB3319"/>
<path d="M110.269 294.618C110.861 294.618 111.34 294.139 111.34 293.548C111.34 292.957 110.861 292.478 110.269 292.478C109.678 292.478 109.199 292.957 109.199 293.548C109.199 294.139 109.678 294.618 110.269 294.618Z" fill="#DB3319"/>
<path d="M29.3515 294.618C29.9426 294.618 30.4218 294.139 30.4218 293.548C30.4218 292.957 29.9426 292.478 29.3515 292.478C28.7604 292.478 28.2812 292.957 28.2812 293.548C28.2812 294.139 28.7604 294.618 29.3515 294.618Z" fill="#DB3319"/>
<path d="M22.6079 294.618C23.199 294.618 23.6782 294.139 23.6782 293.548C23.6782 292.957 23.199 292.478 22.6079 292.478C22.0168 292.478 21.5376 292.957 21.5376 293.548C21.5376 294.139 22.0168 294.618 22.6079 294.618Z" fill="#DB3319"/>
<path d="M15.8657 294.618C16.4568 294.618 16.936 294.139 16.936 293.548C16.936 292.957 16.4568 292.478 15.8657 292.478C15.2746 292.478 14.7954 292.957 14.7954 293.548C14.7954 294.139 15.2746 294.618 15.8657 294.618Z" fill="#DB3319"/>
<path d="M36.0957 294.618C36.6868 294.618 37.166 294.139 37.166 293.548C37.166 292.957 36.6868 292.478 36.0957 292.478C35.5046 292.478 35.0254 292.957 35.0254 293.548C35.0254 294.139 35.5046 294.618 36.0957 294.618Z" fill="#DB3319"/>
<path d="M42.8369 294.618C43.428 294.618 43.9072 294.139 43.9072 293.548C43.9072 292.957 43.428 292.478 42.8369 292.478C42.2458 292.478 41.7666 292.957 41.7666 293.548C41.7666 294.139 42.2458 294.618 42.8369 294.618Z" fill="#DB3319"/>
<path d="M49.581 294.618C50.1721 294.618 50.6513 294.139 50.6513 293.548C50.6513 292.957 50.1721 292.478 49.581 292.478C48.9899 292.478 48.5107 292.957 48.5107 293.548C48.5107 294.139 48.9899 294.618 49.581 294.618Z" fill="#DB3319"/>
<path d="M56.3237 294.618C56.9148 294.618 57.394 294.139 57.394 293.548C57.394 292.957 56.9148 292.478 56.3237 292.478C55.7326 292.478 55.2534 292.957 55.2534 293.548C55.2534 294.139 55.7326 294.618 56.3237 294.618Z" fill="#DB3319"/>
<path d="M63.0664 294.618C63.6575 294.618 64.1367 294.139 64.1367 293.548C64.1367 292.957 63.6575 292.478 63.0664 292.478C62.4753 292.478 61.9961 292.957 61.9961 293.548C61.9961 294.139 62.4753 294.618 63.0664 294.618Z" fill="#DB3319"/>
<path d="M66.4375 298.132C67.0286 298.132 67.5078 297.653 67.5078 297.061C67.5078 296.47 67.0286 295.991 66.4375 295.991C65.8464 295.991 65.3672 296.47 65.3672 297.061C65.3672 297.653 65.8464 298.132 66.4375 298.132Z" fill="#DB3319"/>
<path d="M73.1826 298.132C73.7737 298.132 74.2529 297.653 74.2529 297.061C74.2529 296.47 73.7737 295.991 73.1826 295.991C72.5915 295.991 72.1123 296.47 72.1123 297.061C72.1123 297.653 72.5915 298.132 73.1826 298.132Z" fill="#DB3319"/>
<path d="M79.9262 298.132C80.5173 298.132 80.9965 297.653 80.9965 297.061C80.9965 296.47 80.5173 295.991 79.9262 295.991C79.3351 295.991 78.856 296.47 78.856 297.061C78.856 297.653 79.3351 298.132 79.9262 298.132Z" fill="#DB3319"/>
<path d="M86.6679 298.132C87.259 298.132 87.7383 297.653 87.7383 297.061C87.7383 296.47 87.259 295.991 86.6679 295.991C86.0768 295.991 85.5977 296.47 85.5977 297.061C85.5977 297.653 86.0768 298.132 86.6679 298.132Z" fill="#DB3319"/>
<path d="M93.4116 298.132C94.0027 298.132 94.4819 297.653 94.4819 297.061C94.4819 296.47 94.0027 295.991 93.4116 295.991C92.8205 295.991 92.3413 296.47 92.3413 297.061C92.3413 297.653 92.8205 298.132 93.4116 298.132Z" fill="#DB3319"/>
<path d="M100.155 298.132C100.746 298.132 101.225 297.653 101.225 297.061C101.225 296.47 100.746 295.991 100.155 295.991C99.5636 295.991 99.0845 296.47 99.0845 297.061C99.0845 297.653 99.5636 298.132 100.155 298.132Z" fill="#DB3319"/>
<path d="M106.897 298.132C107.488 298.132 107.967 297.653 107.967 297.061C107.967 296.47 107.488 295.991 106.897 295.991C106.306 295.991 105.827 296.47 105.827 297.061C105.827 297.653 106.306 298.132 106.897 298.132Z" fill="#DB3319"/>
<path d="M32.7231 298.132C33.3142 298.132 33.7934 297.653 33.7934 297.061C33.7934 296.47 33.3142 295.991 32.7231 295.991C32.132 295.991 31.6528 296.47 31.6528 297.061C31.6528 297.653 32.132 298.132 32.7231 298.132Z" fill="#DB3319"/>
<path d="M25.9795 298.132C26.5706 298.132 27.0498 297.653 27.0498 297.061C27.0498 296.47 26.5706 295.991 25.9795 295.991C25.3884 295.991 24.9092 296.47 24.9092 297.061C24.9092 297.653 25.3884 298.132 25.9795 298.132Z" fill="#DB3319"/>
<path d="M19.2353 298.132C19.8264 298.132 20.3056 297.653 20.3056 297.061C20.3056 296.47 19.8264 295.991 19.2353 295.991C18.6442 295.991 18.165 296.47 18.165 297.061C18.165 297.653 18.6442 298.132 19.2353 298.132Z" fill="#DB3319"/>
<path d="M12.4052 298.132C12.9963 298.132 13.4755 297.653 13.4755 297.061C13.4755 296.47 12.9963 295.991 12.4052 295.991C11.8141 295.991 11.335 296.47 11.335 297.061C11.335 297.653 11.8141 298.132 12.4052 298.132Z" fill="#DB3319"/>
<path d="M39.4643 298.132C40.0554 298.132 40.5346 297.653 40.5346 297.061C40.5346 296.47 40.0554 295.991 39.4643 295.991C38.8732 295.991 38.394 296.47 38.394 297.061C38.394 297.653 38.8732 298.132 39.4643 298.132Z" fill="#DB3319"/>
<path d="M46.2085 298.132C46.7996 298.132 47.2788 297.653 47.2788 297.061C47.2788 296.47 46.7996 295.991 46.2085 295.991C45.6174 295.991 45.1382 296.47 45.1382 297.061C45.1382 297.653 45.6174 298.132 46.2085 298.132Z" fill="#DB3319"/>
<path d="M52.9526 298.132C53.5437 298.132 54.0229 297.653 54.0229 297.061C54.0229 296.47 53.5437 295.991 52.9526 295.991C52.3615 295.991 51.8823 296.47 51.8823 297.061C51.8823 297.653 52.3615 298.132 52.9526 298.132Z" fill="#DB3319"/>
<path d="M59.6963 298.132C60.2874 298.132 60.7665 297.653 60.7665 297.061C60.7665 296.47 60.2874 295.991 59.6963 295.991C59.1052 295.991 58.626 296.47 58.626 297.061C58.626 297.653 59.1052 298.132 59.6963 298.132Z" fill="#DB3319"/>
<path d="M170.951 280.565C171.542 280.565 172.021 280.086 172.021 279.495C172.021 278.904 171.542 278.425 170.951 278.425C170.36 278.425 169.881 278.904 169.881 279.495C169.881 280.086 170.36 280.565 170.951 280.565Z" fill="#DB3319"/>
<path d="M177.695 280.565C178.286 280.565 178.766 280.086 178.766 279.495C178.766 278.904 178.286 278.425 177.695 278.425C177.104 278.425 176.625 278.904 176.625 279.495C176.625 280.086 177.104 280.565 177.695 280.565Z" fill="#DB3319"/>
<path d="M184.436 280.565C185.028 280.565 185.507 280.086 185.507 279.495C185.507 278.904 185.028 278.425 184.436 278.425C183.845 278.425 183.366 278.904 183.366 279.495C183.366 280.086 183.845 280.565 184.436 280.565Z" fill="#DB3319"/>
<path d="M191.181 280.565C191.772 280.565 192.251 280.086 192.251 279.495C192.251 278.904 191.772 278.425 191.181 278.425C190.59 278.425 190.11 278.904 190.11 279.495C190.11 280.086 190.59 280.565 191.181 280.565Z" fill="#DB3319"/>
<path d="M197.924 280.565C198.515 280.565 198.995 280.086 198.995 279.495C198.995 278.904 198.515 278.425 197.924 278.425C197.333 278.425 196.854 278.904 196.854 279.495C196.854 280.086 197.333 280.565 197.924 280.565Z" fill="#DB3319"/>
<path d="M204.666 280.565C205.258 280.565 205.737 280.086 205.737 279.495C205.737 278.904 205.258 278.425 204.666 278.425C204.075 278.425 203.596 278.904 203.596 279.495C203.596 280.086 204.075 280.565 204.666 280.565Z" fill="#DB3319"/>
<path d="M211.41 280.565C212.001 280.565 212.48 280.086 212.48 279.495C212.48 278.904 212.001 278.425 211.41 278.425C210.819 278.425 210.339 278.904 210.339 279.495C210.339 280.086 210.819 280.565 211.41 280.565Z" fill="#DB3319"/>
<path d="M123.749 280.565C124.34 280.565 124.819 280.086 124.819 279.495C124.819 278.904 124.34 278.425 123.749 278.425C123.158 278.425 122.679 278.904 122.679 279.495C122.679 280.086 123.158 280.565 123.749 280.565Z" fill="#DB3319"/>
<path d="M117.005 280.565C117.596 280.565 118.075 280.086 118.075 279.495C118.075 278.904 117.596 278.425 117.005 278.425C116.414 278.425 115.935 278.904 115.935 279.495C115.935 280.086 116.414 280.565 117.005 280.565Z" fill="#DB3319"/>
<path d="M130.493 280.565C131.084 280.565 131.563 280.086 131.563 279.495C131.563 278.904 131.084 278.425 130.493 278.425C129.902 278.425 129.422 278.904 129.422 279.495C129.422 280.086 129.902 280.565 130.493 280.565Z" fill="#DB3319"/>
<path d="M137.237 280.565C137.828 280.565 138.307 280.086 138.307 279.495C138.307 278.904 137.828 278.425 137.237 278.425C136.646 278.425 136.167 278.904 136.167 279.495C136.167 280.086 136.646 280.565 137.237 280.565Z" fill="#DB3319"/>
<path d="M143.978 280.565C144.569 280.565 145.048 280.086 145.048 279.495C145.048 278.904 144.569 278.425 143.978 278.425C143.387 278.425 142.908 278.904 142.908 279.495C142.908 280.086 143.387 280.565 143.978 280.565Z" fill="#DB3319"/>
<path d="M150.722 280.565C151.313 280.565 151.792 280.086 151.792 279.495C151.792 278.904 151.313 278.425 150.722 278.425C150.131 278.425 149.652 278.904 149.652 279.495C149.652 280.086 150.131 280.565 150.722 280.565Z" fill="#DB3319"/>
<path d="M157.465 280.565C158.056 280.565 158.536 280.086 158.536 279.495C158.536 278.904 158.056 278.425 157.465 278.425C156.874 278.425 156.395 278.904 156.395 279.495C156.395 280.086 156.874 280.565 157.465 280.565Z" fill="#DB3319"/>
<path d="M164.207 280.565C164.799 280.565 165.278 280.086 165.278 279.495C165.278 278.904 164.799 278.425 164.207 278.425C163.616 278.425 163.137 278.904 163.137 279.495C163.137 280.086 163.616 280.565 164.207 280.565Z" fill="#DB3319"/>
<path d="M167.58 284.078C168.171 284.078 168.65 283.599 168.65 283.008C168.65 282.417 168.171 281.938 167.58 281.938C166.988 281.938 166.509 282.417 166.509 283.008C166.509 283.599 166.988 284.078 167.58 284.078Z" fill="#DB3319"/>
<path d="M174.324 284.078C174.915 284.078 175.394 283.599 175.394 283.008C175.394 282.417 174.915 281.938 174.324 281.938C173.733 281.938 173.253 282.417 173.253 283.008C173.253 283.599 173.733 284.078 174.324 284.078Z" fill="#DB3319"/>
<path d="M181.065 284.078C181.656 284.078 182.135 283.599 182.135 283.008C182.135 282.417 181.656 281.938 181.065 281.938C180.474 281.938 179.995 282.417 179.995 283.008C179.995 283.599 180.474 284.078 181.065 284.078Z" fill="#DB3319"/>
<path d="M187.809 284.078C188.4 284.078 188.879 283.599 188.879 283.008C188.879 282.417 188.4 281.938 187.809 281.938C187.218 281.938 186.739 282.417 186.739 283.008C186.739 283.599 187.218 284.078 187.809 284.078Z" fill="#DB3319"/>
<path d="M194.553 284.078C195.144 284.078 195.623 283.599 195.623 283.008C195.623 282.417 195.144 281.938 194.553 281.938C193.962 281.938 193.482 282.417 193.482 283.008C193.482 283.599 193.962 284.078 194.553 284.078Z" fill="#DB3319"/>
<path d="M201.296 284.078C201.887 284.078 202.366 283.599 202.366 283.008C202.366 282.417 201.887 281.938 201.296 281.938C200.705 281.938 200.226 282.417 200.226 283.008C200.226 283.599 200.705 284.078 201.296 284.078Z" fill="#DB3319"/>
<path d="M208.038 284.078C208.629 284.078 209.108 283.599 209.108 283.008C209.108 282.417 208.629 281.938 208.038 281.938C207.447 281.938 206.968 282.417 206.968 283.008C206.968 283.599 207.447 284.078 208.038 284.078Z" fill="#DB3319"/>
<path d="M120.376 284.078C120.968 284.078 121.447 283.599 121.447 283.008C121.447 282.417 120.968 281.938 120.376 281.938C119.785 281.938 119.306 282.417 119.306 283.008C119.306 283.599 119.785 284.078 120.376 284.078Z" fill="#DB3319"/>
<path d="M113.634 284.078C114.225 284.078 114.705 283.599 114.705 283.008C114.705 282.417 114.225 281.938 113.634 281.938C113.043 281.938 112.564 282.417 112.564 283.008C112.564 283.599 113.043 284.078 113.634 284.078Z" fill="#DB3319"/>
<path d="M127.121 284.078C127.712 284.078 128.191 283.599 128.191 283.008C128.191 282.417 127.712 281.938 127.121 281.938C126.53 281.938 126.05 282.417 126.05 283.008C126.05 283.599 126.53 284.078 127.121 284.078Z" fill="#DB3319"/>
<path d="M133.864 284.078C134.455 284.078 134.935 283.599 134.935 283.008C134.935 282.417 134.455 281.938 133.864 281.938C133.273 281.938 132.794 282.417 132.794 283.008C132.794 283.599 133.273 284.078 133.864 284.078Z" fill="#DB3319"/>
<path d="M140.606 284.078C141.198 284.078 141.677 283.599 141.677 283.008C141.677 282.417 141.198 281.938 140.606 281.938C140.015 281.938 139.536 282.417 139.536 283.008C139.536 283.599 140.015 284.078 140.606 284.078Z" fill="#DB3319"/>
<path d="M147.35 284.078C147.941 284.078 148.42 283.599 148.42 283.008C148.42 282.417 147.941 281.938 147.35 281.938C146.758 281.938 146.279 282.417 146.279 283.008C146.279 283.599 146.758 284.078 147.35 284.078Z" fill="#DB3319"/>
<path d="M154.094 284.078C154.685 284.078 155.164 283.599 155.164 283.008C155.164 282.417 154.685 281.938 154.094 281.938C153.503 281.938 153.023 282.417 153.023 283.008C153.023 283.599 153.503 284.078 154.094 284.078Z" fill="#DB3319"/>
<path d="M160.836 284.078C161.427 284.078 161.906 283.599 161.906 283.008C161.906 282.417 161.427 281.938 160.836 281.938C160.245 281.938 159.766 282.417 159.766 283.008C159.766 283.599 160.245 284.078 160.836 284.078Z" fill="#DB3319"/>
<path d="M170.951 287.592C171.542 287.592 172.021 287.113 172.021 286.521C172.021 285.93 171.542 285.451 170.951 285.451C170.36 285.451 169.881 285.93 169.881 286.521C169.881 287.113 170.36 287.592 170.951 287.592Z" fill="#DB3319"/>
<path d="M177.695 287.592C178.286 287.592 178.766 287.113 178.766 286.521C178.766 285.93 178.286 285.451 177.695 285.451C177.104 285.451 176.625 285.93 176.625 286.521C176.625 287.113 177.104 287.592 177.695 287.592Z" fill="#DB3319"/>
<path d="M184.436 287.592C185.028 287.592 185.507 287.113 185.507 286.521C185.507 285.93 185.028 285.451 184.436 285.451C183.845 285.451 183.366 285.93 183.366 286.521C183.366 287.113 183.845 287.592 184.436 287.592Z" fill="#DB3319"/>
<path d="M191.181 287.592C191.772 287.592 192.251 287.113 192.251 286.521C192.251 285.93 191.772 285.451 191.181 285.451C190.59 285.451 190.11 285.93 190.11 286.521C190.11 287.113 190.59 287.592 191.181 287.592Z" fill="#DB3319"/>
<path d="M197.924 287.592C198.515 287.592 198.995 287.113 198.995 286.521C198.995 285.93 198.515 285.451 197.924 285.451C197.333 285.451 196.854 285.93 196.854 286.521C196.854 287.113 197.333 287.592 197.924 287.592Z" fill="#DB3319"/>
<path d="M204.666 287.592C205.258 287.592 205.737 287.113 205.737 286.521C205.737 285.93 205.258 285.451 204.666 285.451C204.075 285.451 203.596 285.93 203.596 286.521C203.596 287.113 204.075 287.592 204.666 287.592Z" fill="#DB3319"/>
<path d="M211.41 287.592C212.001 287.592 212.48 287.113 212.48 286.521C212.48 285.93 212.001 285.451 211.41 285.451C210.819 285.451 210.339 285.93 210.339 286.521C210.339 287.113 210.819 287.592 211.41 287.592Z" fill="#DB3319"/>
<path d="M123.749 287.592C124.34 287.592 124.819 287.113 124.819 286.521C124.819 285.93 124.34 285.451 123.749 285.451C123.158 285.451 122.679 285.93 122.679 286.521C122.679 287.113 123.158 287.592 123.749 287.592Z" fill="#DB3319"/>
<path d="M117.005 287.592C117.596 287.592 118.075 287.113 118.075 286.521C118.075 285.93 117.596 285.451 117.005 285.451C116.414 285.451 115.935 285.93 115.935 286.521C115.935 287.113 116.414 287.592 117.005 287.592Z" fill="#DB3319"/>
<path d="M130.493 287.592C131.084 287.592 131.563 287.113 131.563 286.521C131.563 285.93 131.084 285.451 130.493 285.451C129.902 285.451 129.422 285.93 129.422 286.521C129.422 287.113 129.902 287.592 130.493 287.592Z" fill="#DB3319"/>
<path d="M137.237 287.592C137.828 287.592 138.307 287.113 138.307 286.521C138.307 285.93 137.828 285.451 137.237 285.451C136.646 285.451 136.167 285.93 136.167 286.521C136.167 287.113 136.646 287.592 137.237 287.592Z" fill="#DB3319"/>
<path d="M143.978 287.592C144.569 287.592 145.048 287.113 145.048 286.521C145.048 285.93 144.569 285.451 143.978 285.451C143.387 285.451 142.908 285.93 142.908 286.521C142.908 287.113 143.387 287.592 143.978 287.592Z" fill="#DB3319"/>
<path d="M150.722 287.592C151.313 287.592 151.792 287.113 151.792 286.521C151.792 285.93 151.313 285.451 150.722 285.451C150.131 285.451 149.652 285.93 149.652 286.521C149.652 287.113 150.131 287.592 150.722 287.592Z" fill="#DB3319"/>
<path d="M157.465 287.592C158.056 287.592 158.536 287.113 158.536 286.521C158.536 285.93 158.056 285.451 157.465 285.451C156.874 285.451 156.395 285.93 156.395 286.521C156.395 287.113 156.874 287.592 157.465 287.592Z" fill="#DB3319"/>
<path d="M164.207 287.592C164.799 287.592 165.278 287.113 165.278 286.521C165.278 285.93 164.799 285.451 164.207 285.451C163.616 285.451 163.137 285.93 163.137 286.521C163.137 287.113 163.616 287.592 164.207 287.592Z" fill="#DB3319"/>
<path d="M167.58 291.105C168.171 291.105 168.65 290.626 168.65 290.035C168.65 289.444 168.171 288.965 167.58 288.965C166.988 288.965 166.509 289.444 166.509 290.035C166.509 290.626 166.988 291.105 167.58 291.105Z" fill="#DB3319"/>
<path d="M174.324 291.105C174.915 291.105 175.394 290.626 175.394 290.035C175.394 289.444 174.915 288.965 174.324 288.965C173.733 288.965 173.253 289.444 173.253 290.035C173.253 290.626 173.733 291.105 174.324 291.105Z" fill="#DB3319"/>
<path d="M181.065 291.105C181.656 291.105 182.135 290.626 182.135 290.035C182.135 289.444 181.656 288.965 181.065 288.965C180.474 288.965 179.995 289.444 179.995 290.035C179.995 290.626 180.474 291.105 181.065 291.105Z" fill="#DB3319"/>
<path d="M187.809 291.105C188.4 291.105 188.879 290.626 188.879 290.035C188.879 289.444 188.4 288.965 187.809 288.965C187.218 288.965 186.739 289.444 186.739 290.035C186.739 290.626 187.218 291.105 187.809 291.105Z" fill="#DB3319"/>
<path d="M194.553 291.105C195.144 291.105 195.623 290.626 195.623 290.035C195.623 289.444 195.144 288.965 194.553 288.965C193.962 288.965 193.482 289.444 193.482 290.035C193.482 290.626 193.962 291.105 194.553 291.105Z" fill="#DB3319"/>
<path d="M201.296 291.105C201.887 291.105 202.366 290.626 202.366 290.035C202.366 289.444 201.887 288.965 201.296 288.965C200.705 288.965 200.226 289.444 200.226 290.035C200.226 290.626 200.705 291.105 201.296 291.105Z" fill="#DB3319"/>
<path d="M208.038 291.105C208.629 291.105 209.108 290.626 209.108 290.035C209.108 289.444 208.629 288.965 208.038 288.965C207.447 288.965 206.968 289.444 206.968 290.035C206.968 290.626 207.447 291.105 208.038 291.105Z" fill="#DB3319"/>
<path d="M120.376 291.105C120.968 291.105 121.447 290.626 121.447 290.035C121.447 289.444 120.968 288.965 120.376 288.965C119.785 288.965 119.306 289.444 119.306 290.035C119.306 290.626 119.785 291.105 120.376 291.105Z" fill="#DB3319"/>
<path d="M113.634 291.105C114.225 291.105 114.705 290.626 114.705 290.035C114.705 289.444 114.225 288.965 113.634 288.965C113.043 288.965 112.564 289.444 112.564 290.035C112.564 290.626 113.043 291.105 113.634 291.105Z" fill="#DB3319"/>
<path d="M127.121 291.105C127.712 291.105 128.191 290.626 128.191 290.035C128.191 289.444 127.712 288.965 127.121 288.965C126.53 288.965 126.05 289.444 126.05 290.035C126.05 290.626 126.53 291.105 127.121 291.105Z" fill="#DB3319"/>
<path d="M133.864 291.105C134.455 291.105 134.935 290.626 134.935 290.035C134.935 289.444 134.455 288.965 133.864 288.965C133.273 288.965 132.794 289.444 132.794 290.035C132.794 290.626 133.273 291.105 133.864 291.105Z" fill="#DB3319"/>
<path d="M140.606 291.105C141.198 291.105 141.677 290.626 141.677 290.035C141.677 289.444 141.198 288.965 140.606 288.965C140.015 288.965 139.536 289.444 139.536 290.035C139.536 290.626 140.015 291.105 140.606 291.105Z" fill="#DB3319"/>
<path d="M147.35 291.105C147.941 291.105 148.42 290.626 148.42 290.035C148.42 289.444 147.941 288.965 147.35 288.965C146.758 288.965 146.279 289.444 146.279 290.035C146.279 290.626 146.758 291.105 147.35 291.105Z" fill="#DB3319"/>
<path d="M154.094 291.105C154.685 291.105 155.164 290.626 155.164 290.035C155.164 289.444 154.685 288.965 154.094 288.965C153.503 288.965 153.023 289.444 153.023 290.035C153.023 290.626 153.503 291.105 154.094 291.105Z" fill="#DB3319"/>
<path d="M160.836 291.105C161.427 291.105 161.906 290.626 161.906 290.035C161.906 289.444 161.427 288.965 160.836 288.965C160.245 288.965 159.766 289.444 159.766 290.035C159.766 290.626 160.245 291.105 160.836 291.105Z" fill="#DB3319"/>
<path d="M170.951 294.618C171.542 294.618 172.021 294.139 172.021 293.548C172.021 292.957 171.542 292.478 170.951 292.478C170.36 292.478 169.881 292.957 169.881 293.548C169.881 294.139 170.36 294.618 170.951 294.618Z" fill="#DB3319"/>
<path d="M177.695 294.618C178.286 294.618 178.766 294.139 178.766 293.548C178.766 292.957 178.286 292.478 177.695 292.478C177.104 292.478 176.625 292.957 176.625 293.548C176.625 294.139 177.104 294.618 177.695 294.618Z" fill="#DB3319"/>
<path d="M184.436 294.618C185.028 294.618 185.507 294.139 185.507 293.548C185.507 292.957 185.028 292.478 184.436 292.478C183.845 292.478 183.366 292.957 183.366 293.548C183.366 294.139 183.845 294.618 184.436 294.618Z" fill="#DB3319"/>
<path d="M191.181 294.618C191.772 294.618 192.251 294.139 192.251 293.548C192.251 292.957 191.772 292.478 191.181 292.478C190.59 292.478 190.11 292.957 190.11 293.548C190.11 294.139 190.59 294.618 191.181 294.618Z" fill="#DB3319"/>
<path d="M197.924 294.618C198.515 294.618 198.995 294.139 198.995 293.548C198.995 292.957 198.515 292.478 197.924 292.478C197.333 292.478 196.854 292.957 196.854 293.548C196.854 294.139 197.333 294.618 197.924 294.618Z" fill="#DB3319"/>
<path d="M204.666 294.618C205.258 294.618 205.737 294.139 205.737 293.548C205.737 292.957 205.258 292.478 204.666 292.478C204.075 292.478 203.596 292.957 203.596 293.548C203.596 294.139 204.075 294.618 204.666 294.618Z" fill="#DB3319"/>
<path d="M211.41 294.618C212.001 294.618 212.48 294.139 212.48 293.548C212.48 292.957 212.001 292.478 211.41 292.478C210.819 292.478 210.339 292.957 210.339 293.548C210.339 294.139 210.819 294.618 211.41 294.618Z" fill="#DB3319"/>
<path d="M123.749 294.618C124.34 294.618 124.819 294.139 124.819 293.548C124.819 292.957 124.34 292.478 123.749 292.478C123.158 292.478 122.679 292.957 122.679 293.548C122.679 294.139 123.158 294.618 123.749 294.618Z" fill="#DB3319"/>
<path d="M117.005 294.618C117.596 294.618 118.075 294.139 118.075 293.548C118.075 292.957 117.596 292.478 117.005 292.478C116.414 292.478 115.935 292.957 115.935 293.548C115.935 294.139 116.414 294.618 117.005 294.618Z" fill="#DB3319"/>
<path d="M130.493 294.618C131.084 294.618 131.563 294.139 131.563 293.548C131.563 292.957 131.084 292.478 130.493 292.478C129.902 292.478 129.422 292.957 129.422 293.548C129.422 294.139 129.902 294.618 130.493 294.618Z" fill="#DB3319"/>
<path d="M137.237 294.618C137.828 294.618 138.307 294.139 138.307 293.548C138.307 292.957 137.828 292.478 137.237 292.478C136.646 292.478 136.167 292.957 136.167 293.548C136.167 294.139 136.646 294.618 137.237 294.618Z" fill="#DB3319"/>
<path d="M143.978 294.618C144.569 294.618 145.048 294.139 145.048 293.548C145.048 292.957 144.569 292.478 143.978 292.478C143.387 292.478 142.908 292.957 142.908 293.548C142.908 294.139 143.387 294.618 143.978 294.618Z" fill="#DB3319"/>
<path d="M150.722 294.618C151.313 294.618 151.792 294.139 151.792 293.548C151.792 292.957 151.313 292.478 150.722 292.478C150.131 292.478 149.652 292.957 149.652 293.548C149.652 294.139 150.131 294.618 150.722 294.618Z" fill="#DB3319"/>
<path d="M157.465 294.618C158.056 294.618 158.536 294.139 158.536 293.548C158.536 292.957 158.056 292.478 157.465 292.478C156.874 292.478 156.395 292.957 156.395 293.548C156.395 294.139 156.874 294.618 157.465 294.618Z" fill="#DB3319"/>
<path d="M164.207 294.618C164.799 294.618 165.278 294.139 165.278 293.548C165.278 292.957 164.799 292.478 164.207 292.478C163.616 292.478 163.137 292.957 163.137 293.548C163.137 294.139 163.616 294.618 164.207 294.618Z" fill="#DB3319"/>
<path d="M167.58 298.132C168.171 298.132 168.65 297.653 168.65 297.061C168.65 296.47 168.171 295.991 167.58 295.991C166.988 295.991 166.509 296.47 166.509 297.061C166.509 297.653 166.988 298.132 167.58 298.132Z" fill="#DB3319"/>
<path d="M174.324 298.132C174.915 298.132 175.394 297.653 175.394 297.061C175.394 296.47 174.915 295.991 174.324 295.991C173.733 295.991 173.253 296.47 173.253 297.061C173.253 297.653 173.733 298.132 174.324 298.132Z" fill="#DB3319"/>
<path d="M181.065 298.132C181.656 298.132 182.135 297.653 182.135 297.061C182.135 296.47 181.656 295.991 181.065 295.991C180.474 295.991 179.995 296.47 179.995 297.061C179.995 297.653 180.474 298.132 181.065 298.132Z" fill="#DB3319"/>
<path d="M187.809 298.132C188.4 298.132 188.879 297.653 188.879 297.061C188.879 296.47 188.4 295.991 187.809 295.991C187.218 295.991 186.739 296.47 186.739 297.061C186.739 297.653 187.218 298.132 187.809 298.132Z" fill="#DB3319"/>
<path d="M194.553 298.132C195.144 298.132 195.623 297.653 195.623 297.061C195.623 296.47 195.144 295.991 194.553 295.991C193.962 295.991 193.482 296.47 193.482 297.061C193.482 297.653 193.962 298.132 194.553 298.132Z" fill="#DB3319"/>
<path d="M201.296 298.132C201.887 298.132 202.366 297.653 202.366 297.061C202.366 296.47 201.887 295.991 201.296 295.991C200.705 295.991 200.226 296.47 200.226 297.061C200.226 297.653 200.705 298.132 201.296 298.132Z" fill="#DB3319"/>
<path d="M208.038 298.132C208.629 298.132 209.108 297.653 209.108 297.061C209.108 296.47 208.629 295.991 208.038 295.991C207.447 295.991 206.968 296.47 206.968 297.061C206.968 297.653 207.447 298.132 208.038 298.132Z" fill="#DB3319"/>
<path d="M120.376 298.132C120.968 298.132 121.447 297.653 121.447 297.061C121.447 296.47 120.968 295.991 120.376 295.991C119.785 295.991 119.306 296.47 119.306 297.061C119.306 297.653 119.785 298.132 120.376 298.132Z" fill="#DB3319"/>
<path d="M113.634 298.132C114.225 298.132 114.705 297.653 114.705 297.061C114.705 296.47 114.225 295.991 113.634 295.991C113.043 295.991 112.564 296.47 112.564 297.061C112.564 297.653 113.043 298.132 113.634 298.132Z" fill="#DB3319"/>
<path d="M127.121 298.132C127.712 298.132 128.191 297.653 128.191 297.061C128.191 296.47 127.712 295.991 127.121 295.991C126.53 295.991 126.05 296.47 126.05 297.061C126.05 297.653 126.53 298.132 127.121 298.132Z" fill="#DB3319"/>
<path d="M133.864 298.132C134.455 298.132 134.935 297.653 134.935 297.061C134.935 296.47 134.455 295.991 133.864 295.991C133.273 295.991 132.794 296.47 132.794 297.061C132.794 297.653 133.273 298.132 133.864 298.132Z" fill="#DB3319"/>
<path d="M140.606 298.132C141.198 298.132 141.677 297.653 141.677 297.061C141.677 296.47 141.198 295.991 140.606 295.991C140.015 295.991 139.536 296.47 139.536 297.061C139.536 297.653 140.015 298.132 140.606 298.132Z" fill="#DB3319"/>
<path d="M147.35 298.132C147.941 298.132 148.42 297.653 148.42 297.061C148.42 296.47 147.941 295.991 147.35 295.991C146.758 295.991 146.279 296.47 146.279 297.061C146.279 297.653 146.758 298.132 147.35 298.132Z" fill="#DB3319"/>
<path d="M154.094 298.132C154.685 298.132 155.164 297.653 155.164 297.061C155.164 296.47 154.685 295.991 154.094 295.991C153.503 295.991 153.023 296.47 153.023 297.061C153.023 297.653 153.503 298.132 154.094 298.132Z" fill="#DB3319"/>
<path d="M160.836 298.132C161.427 298.132 161.906 297.653 161.906 297.061C161.906 296.47 161.427 295.991 160.836 295.991C160.245 295.991 159.766 296.47 159.766 297.061C159.766 297.653 160.245 298.132 160.836 298.132Z" fill="#DB3319"/>
<path d="M218.059 280.565C218.65 280.565 219.129 280.086 219.129 279.495C219.129 278.904 218.65 278.425 218.059 278.425C217.468 278.425 216.989 278.904 216.989 279.495C216.989 280.086 217.468 280.565 218.059 280.565Z" fill="#DB3319"/>
<path d="M224.801 280.565C225.392 280.565 225.872 280.086 225.872 279.495C225.872 278.904 225.392 278.425 224.801 278.425C224.21 278.425 223.731 278.904 223.731 279.495C223.731 280.086 224.21 280.565 224.801 280.565Z" fill="#DB3319"/>
<path d="M231.545 280.565C232.136 280.565 232.616 280.086 232.616 279.495C232.616 278.904 232.136 278.425 231.545 278.425C230.954 278.425 230.475 278.904 230.475 279.495C230.475 280.086 230.954 280.565 231.545 280.565Z" fill="#DB3319"/>
<path d="M238.289 280.565C238.88 280.565 239.359 280.086 239.359 279.495C239.359 278.904 238.88 278.425 238.289 278.425C237.698 278.425 237.219 278.904 237.219 279.495C237.219 280.086 237.698 280.565 238.289 280.565Z" fill="#DB3319"/>
<path d="M245.031 280.565C245.622 280.565 246.101 280.086 246.101 279.495C246.101 278.904 245.622 278.425 245.031 278.425C244.44 278.425 243.96 278.904 243.96 279.495C243.96 280.086 244.44 280.565 245.031 280.565Z" fill="#DB3319"/>
<path d="M251.774 280.565C252.366 280.565 252.845 280.086 252.845 279.495C252.845 278.904 252.366 278.425 251.774 278.425C251.183 278.425 250.704 278.904 250.704 279.495C250.704 280.086 251.183 280.565 251.774 280.565Z" fill="#DB3319"/>
<path d="M258.519 280.565C259.11 280.565 259.589 280.086 259.589 279.495C259.589 278.904 259.11 278.425 258.519 278.425C257.927 278.425 257.448 278.904 257.448 279.495C257.448 280.086 257.927 280.565 258.519 280.565Z" fill="#DB3319"/>
<path d="M261.89 284.078C262.481 284.078 262.96 283.599 262.96 283.008C262.96 282.417 262.481 281.938 261.89 281.938C261.299 281.938 260.82 282.417 260.82 283.008C260.82 283.599 261.299 284.078 261.89 284.078Z" fill="#DB3319"/>
<path d="M214.688 284.078C215.28 284.078 215.759 283.599 215.759 283.008C215.759 282.417 215.28 281.938 214.688 281.938C214.097 281.938 213.618 282.417 213.618 283.008C213.618 283.599 214.097 284.078 214.688 284.078Z" fill="#DB3319"/>
<path d="M221.432 284.078C222.023 284.078 222.502 283.599 222.502 283.008C222.502 282.417 222.023 281.938 221.432 281.938C220.841 281.938 220.361 282.417 220.361 283.008C220.361 283.599 220.841 284.078 221.432 284.078Z" fill="#DB3319"/>
<path d="M228.174 284.078C228.765 284.078 229.244 283.599 229.244 283.008C229.244 282.417 228.765 281.938 228.174 281.938C227.583 281.938 227.104 282.417 227.104 283.008C227.104 283.599 227.583 284.078 228.174 284.078Z" fill="#DB3319"/>
<path d="M234.917 284.078C235.509 284.078 235.988 283.599 235.988 283.008C235.988 282.417 235.509 281.938 234.917 281.938C234.326 281.938 233.847 282.417 233.847 283.008C233.847 283.599 234.326 284.078 234.917 284.078Z" fill="#DB3319"/>
<path d="M241.661 284.078C242.252 284.078 242.731 283.599 242.731 283.008C242.731 282.417 242.252 281.938 241.661 281.938C241.07 281.938 240.59 282.417 240.59 283.008C240.59 283.599 241.07 284.078 241.661 284.078Z" fill="#DB3319"/>
<path d="M248.403 284.078C248.994 284.078 249.473 283.599 249.473 283.008C249.473 282.417 248.994 281.938 248.403 281.938C247.812 281.938 247.333 282.417 247.333 283.008C247.333 283.599 247.812 284.078 248.403 284.078Z" fill="#DB3319"/>
<path d="M255.146 284.078C255.737 284.078 256.216 283.599 256.216 283.008C256.216 282.417 255.737 281.938 255.146 281.938C254.555 281.938 254.076 282.417 254.076 283.008C254.076 283.599 254.555 284.078 255.146 284.078Z" fill="#DB3319"/>
<path d="M265.262 287.592C265.853 287.592 266.332 287.113 266.332 286.521C266.332 285.93 265.853 285.451 265.262 285.451C264.671 285.451 264.192 285.93 264.192 286.521C264.192 287.113 264.671 287.592 265.262 287.592Z" fill="#DB3319"/>
<path d="M218.059 287.592C218.65 287.592 219.129 287.113 219.129 286.521C219.129 285.93 218.65 285.451 218.059 285.451C217.468 285.451 216.989 285.93 216.989 286.521C216.989 287.113 217.468 287.592 218.059 287.592Z" fill="#DB3319"/>
<path d="M224.801 287.592C225.392 287.592 225.872 287.113 225.872 286.521C225.872 285.93 225.392 285.451 224.801 285.451C224.21 285.451 223.731 285.93 223.731 286.521C223.731 287.113 224.21 287.592 224.801 287.592Z" fill="#DB3319"/>
<path d="M231.545 287.592C232.136 287.592 232.616 287.113 232.616 286.521C232.616 285.93 232.136 285.451 231.545 285.451C230.954 285.451 230.475 285.93 230.475 286.521C230.475 287.113 230.954 287.592 231.545 287.592Z" fill="#DB3319"/>
<path d="M238.289 287.592C238.88 287.592 239.359 287.113 239.359 286.521C239.359 285.93 238.88 285.451 238.289 285.451C237.698 285.451 237.219 285.93 237.219 286.521C237.219 287.113 237.698 287.592 238.289 287.592Z" fill="#DB3319"/>
<path d="M245.031 287.592C245.622 287.592 246.101 287.113 246.101 286.521C246.101 285.93 245.622 285.451 245.031 285.451C244.44 285.451 243.96 285.93 243.96 286.521C243.96 287.113 244.44 287.592 245.031 287.592Z" fill="#DB3319"/>
<path d="M251.774 287.592C252.366 287.592 252.845 287.113 252.845 286.521C252.845 285.93 252.366 285.451 251.774 285.451C251.183 285.451 250.704 285.93 250.704 286.521C250.704 287.113 251.183 287.592 251.774 287.592Z" fill="#DB3319"/>
<path d="M258.519 287.592C259.11 287.592 259.589 287.113 259.589 286.521C259.589 285.93 259.11 285.451 258.519 285.451C257.927 285.451 257.448 285.93 257.448 286.521C257.448 287.113 257.927 287.592 258.519 287.592Z" fill="#DB3319"/>
<path d="M261.89 291.105C262.481 291.105 262.96 290.626 262.96 290.035C262.96 289.444 262.481 288.965 261.89 288.965C261.299 288.965 260.82 289.444 260.82 290.035C260.82 290.626 261.299 291.105 261.89 291.105Z" fill="#DB3319"/>
<path d="M268.632 291.105C269.223 291.105 269.703 290.626 269.703 290.035C269.703 289.444 269.223 288.965 268.632 288.965C268.041 288.965 267.562 289.444 267.562 290.035C267.562 290.626 268.041 291.105 268.632 291.105Z" fill="#DB3319"/>
<path d="M214.688 291.105C215.28 291.105 215.759 290.626 215.759 290.035C215.759 289.444 215.28 288.965 214.688 288.965C214.097 288.965 213.618 289.444 213.618 290.035C213.618 290.626 214.097 291.105 214.688 291.105Z" fill="#DB3319"/>
<path d="M221.432 291.105C222.023 291.105 222.502 290.626 222.502 290.035C222.502 289.444 222.023 288.965 221.432 288.965C220.841 288.965 220.361 289.444 220.361 290.035C220.361 290.626 220.841 291.105 221.432 291.105Z" fill="#DB3319"/>
<path d="M228.174 291.105C228.765 291.105 229.244 290.626 229.244 290.035C229.244 289.444 228.765 288.965 228.174 288.965C227.583 288.965 227.104 289.444 227.104 290.035C227.104 290.626 227.583 291.105 228.174 291.105Z" fill="#DB3319"/>
<path d="M234.917 291.105C235.509 291.105 235.988 290.626 235.988 290.035C235.988 289.444 235.509 288.965 234.917 288.965C234.326 288.965 233.847 289.444 233.847 290.035C233.847 290.626 234.326 291.105 234.917 291.105Z" fill="#DB3319"/>
<path d="M241.661 291.105C242.252 291.105 242.731 290.626 242.731 290.035C242.731 289.444 242.252 288.965 241.661 288.965C241.07 288.965 240.59 289.444 240.59 290.035C240.59 290.626 241.07 291.105 241.661 291.105Z" fill="#DB3319"/>
<path d="M248.403 291.105C248.994 291.105 249.473 290.626 249.473 290.035C249.473 289.444 248.994 288.965 248.403 288.965C247.812 288.965 247.333 289.444 247.333 290.035C247.333 290.626 247.812 291.105 248.403 291.105Z" fill="#DB3319"/>
<path d="M255.146 291.105C255.737 291.105 256.216 290.626 256.216 290.035C256.216 289.444 255.737 288.965 255.146 288.965C254.555 288.965 254.076 289.444 254.076 290.035C254.076 290.626 254.555 291.105 255.146 291.105Z" fill="#DB3319"/>
<path d="M265.262 294.618C265.853 294.618 266.332 294.139 266.332 293.548C266.332 292.957 265.853 292.478 265.262 292.478C264.671 292.478 264.192 292.957 264.192 293.548C264.192 294.139 264.671 294.618 265.262 294.618Z" fill="#DB3319"/>
<path d="M272.004 294.618C272.595 294.618 273.075 294.139 273.075 293.548C273.075 292.957 272.595 292.478 272.004 292.478C271.413 292.478 270.934 292.957 270.934 293.548C270.934 294.139 271.413 294.618 272.004 294.618Z" fill="#DB3319"/>
<path d="M218.059 294.618C218.65 294.618 219.129 294.139 219.129 293.548C219.129 292.957 218.65 292.478 218.059 292.478C217.468 292.478 216.989 292.957 216.989 293.548C216.989 294.139 217.468 294.618 218.059 294.618Z" fill="#DB3319"/>
<path d="M224.801 294.618C225.392 294.618 225.872 294.139 225.872 293.548C225.872 292.957 225.392 292.478 224.801 292.478C224.21 292.478 223.731 292.957 223.731 293.548C223.731 294.139 224.21 294.618 224.801 294.618Z" fill="#DB3319"/>
<path d="M231.545 294.618C232.136 294.618 232.616 294.139 232.616 293.548C232.616 292.957 232.136 292.478 231.545 292.478C230.954 292.478 230.475 292.957 230.475 293.548C230.475 294.139 230.954 294.618 231.545 294.618Z" fill="#DB3319"/>
<path d="M238.289 294.618C238.88 294.618 239.359 294.139 239.359 293.548C239.359 292.957 238.88 292.478 238.289 292.478C237.698 292.478 237.219 292.957 237.219 293.548C237.219 294.139 237.698 294.618 238.289 294.618Z" fill="#DB3319"/>
<path d="M245.031 294.618C245.622 294.618 246.101 294.139 246.101 293.548C246.101 292.957 245.622 292.478 245.031 292.478C244.44 292.478 243.96 292.957 243.96 293.548C243.96 294.139 244.44 294.618 245.031 294.618Z" fill="#DB3319"/>
<path d="M251.774 294.618C252.366 294.618 252.845 294.139 252.845 293.548C252.845 292.957 252.366 292.478 251.774 292.478C251.183 292.478 250.704 292.957 250.704 293.548C250.704 294.139 251.183 294.618 251.774 294.618Z" fill="#DB3319"/>
<path d="M258.519 294.618C259.11 294.618 259.589 294.139 259.589 293.548C259.589 292.957 259.11 292.478 258.519 292.478C257.927 292.478 257.448 292.957 257.448 293.548C257.448 294.139 257.927 294.618 258.519 294.618Z" fill="#DB3319"/>
<path d="M261.89 298.132C262.481 298.132 262.96 297.653 262.96 297.061C262.96 296.47 262.481 295.991 261.89 295.991C261.299 295.991 260.82 296.47 260.82 297.061C260.82 297.653 261.299 298.132 261.89 298.132Z" fill="#DB3319"/>
<path d="M268.632 298.132C269.223 298.132 269.703 297.653 269.703 297.061C269.703 296.47 269.223 295.991 268.632 295.991C268.041 295.991 267.562 296.47 267.562 297.061C267.562 297.653 268.041 298.132 268.632 298.132Z" fill="#DB3319"/>
<path d="M275.376 298.132C275.967 298.132 276.446 297.653 276.446 297.061C276.446 296.47 275.967 295.991 275.376 295.991C274.785 295.991 274.306 296.47 274.306 297.061C274.306 297.653 274.785 298.132 275.376 298.132Z" fill="#DB3319"/>
<path d="M214.688 298.132C215.28 298.132 215.759 297.653 215.759 297.061C215.759 296.47 215.28 295.991 214.688 295.991C214.097 295.991 213.618 296.47 213.618 297.061C213.618 297.653 214.097 298.132 214.688 298.132Z" fill="#DB3319"/>
<path d="M221.432 298.132C222.023 298.132 222.502 297.653 222.502 297.061C222.502 296.47 222.023 295.991 221.432 295.991C220.841 295.991 220.361 296.47 220.361 297.061C220.361 297.653 220.841 298.132 221.432 298.132Z" fill="#DB3319"/>
<path d="M228.174 298.132C228.765 298.132 229.244 297.653 229.244 297.061C229.244 296.47 228.765 295.991 228.174 295.991C227.583 295.991 227.104 296.47 227.104 297.061C227.104 297.653 227.583 298.132 228.174 298.132Z" fill="#DB3319"/>
<path d="M234.917 298.132C235.509 298.132 235.988 297.653 235.988 297.061C235.988 296.47 235.509 295.991 234.917 295.991C234.326 295.991 233.847 296.47 233.847 297.061C233.847 297.653 234.326 298.132 234.917 298.132Z" fill="#DB3319"/>
<path d="M241.661 298.132C242.252 298.132 242.731 297.653 242.731 297.061C242.731 296.47 242.252 295.991 241.661 295.991C241.07 295.991 240.59 296.47 240.59 297.061C240.59 297.653 241.07 298.132 241.661 298.132Z" fill="#DB3319"/>
<path d="M248.403 298.132C248.994 298.132 249.473 297.653 249.473 297.061C249.473 296.47 248.994 295.991 248.403 295.991C247.812 295.991 247.333 296.47 247.333 297.061C247.333 297.653 247.812 298.132 248.403 298.132Z" fill="#DB3319"/>
<path d="M255.146 298.132C255.737 298.132 256.216 297.653 256.216 297.061C256.216 296.47 255.737 295.991 255.146 295.991C254.555 295.991 254.076 296.47 254.076 297.061C254.076 297.653 254.555 298.132 255.146 298.132Z" fill="#DB3319"/>
<path d="M265.331 280.565C265.922 280.565 266.401 280.086 266.401 279.495C266.401 278.904 265.922 278.425 265.331 278.425C264.74 278.425 264.261 278.904 264.261 279.495C264.261 280.086 264.74 280.565 265.331 280.565Z" fill="#DB3319"/>
<path d="M272.073 280.565C272.664 280.565 273.144 280.086 273.144 279.495C273.144 278.904 272.664 278.425 272.073 278.425C271.482 278.425 271.003 278.904 271.003 279.495C271.003 280.086 271.482 280.565 272.073 280.565Z" fill="#DB3319"/>
<path d="M275.445 284.078C276.036 284.078 276.515 283.599 276.515 283.008C276.515 282.417 276.036 281.938 275.445 281.938C274.854 281.938 274.375 282.417 274.375 283.008C274.375 283.599 274.854 284.078 275.445 284.078Z" fill="#DB3319"/>
<path d="M268.701 284.078C269.292 284.078 269.771 283.599 269.771 283.008C269.771 282.417 269.292 281.938 268.701 281.938C268.11 281.938 267.63 282.417 267.63 283.008C267.63 283.599 268.11 284.078 268.701 284.078Z" fill="#DB3319"/>
<path d="M278.817 287.592C279.408 287.592 279.887 287.113 279.887 286.521C279.887 285.93 279.408 285.451 278.817 285.451C278.226 285.451 277.747 285.93 277.747 286.521C277.747 287.113 278.226 287.592 278.817 287.592Z" fill="#DB3319"/>
<path d="M272.073 287.592C272.664 287.592 273.144 287.113 273.144 286.521C273.144 285.93 272.664 285.451 272.073 285.451C271.482 285.451 271.003 285.93 271.003 286.521C271.003 287.113 271.482 287.592 272.073 287.592Z" fill="#DB3319"/>
<path d="M275.445 291.105C276.036 291.105 276.515 290.626 276.515 290.035C276.515 289.444 276.036 288.965 275.445 288.965C274.854 288.965 274.375 289.444 274.375 290.035C274.375 290.626 274.854 291.105 275.445 291.105Z" fill="#DB3319"/>
<path d="M282.188 291.105C282.78 291.105 283.259 290.626 283.259 290.035C283.259 289.444 282.78 288.965 282.188 288.965C281.597 288.965 281.118 289.444 281.118 290.035C281.118 290.626 281.597 291.105 282.188 291.105Z" fill="#DB3319"/>
<path d="M278.817 294.618C279.408 294.618 279.887 294.139 279.887 293.548C279.887 292.957 279.408 292.478 278.817 292.478C278.226 292.478 277.747 292.957 277.747 293.548C277.747 294.139 278.226 294.618 278.817 294.618Z" fill="#DB3319"/>
<path d="M285.561 294.618C286.152 294.618 286.631 294.139 286.631 293.548C286.631 292.957 286.152 292.478 285.561 292.478C284.97 292.478 284.491 292.957 284.491 293.548C284.491 294.139 284.97 294.618 285.561 294.618Z" fill="#DB3319"/>
<path d="M282.188 298.132C282.78 298.132 283.259 297.653 283.259 297.061C283.259 296.47 282.78 295.991 282.188 295.991C281.597 295.991 281.118 296.47 281.118 297.061C281.118 297.653 281.597 298.132 282.188 298.132Z" fill="#DB3319"/>
<path d="M288.93 298.132C289.521 298.132 290 297.653 290 297.061C290 296.47 289.521 295.991 288.93 295.991C288.339 295.991 287.86 296.47 287.86 297.061C287.86 297.653 288.339 298.132 288.93 298.132Z" fill="#DB3319"/>
<path d="M141.151 208.521H182.772V209.296C182.772 210.888 182.14 212.415 181.014 213.541C179.888 214.667 178.361 215.299 176.769 215.299H135.914V213.757C135.913 213.069 136.048 212.388 136.311 211.752C136.574 211.117 136.96 210.539 137.447 210.053C137.933 209.567 138.511 209.181 139.146 208.918C139.782 208.655 140.463 208.52 141.151 208.521Z" fill="#A74602"/>
<path d="M272.534 277.886C281.612 277.886 288.971 270.527 288.971 261.45C288.971 252.372 281.612 245.014 272.534 245.014C263.457 245.014 256.098 252.372 256.098 261.45C256.098 270.527 263.457 277.886 272.534 277.886Z" fill="#A74602"/>
<path d="M259.26 271.142C256.864 267.858 255.771 263.802 256.192 259.759C256.612 255.715 258.516 251.971 261.535 249.249C264.555 246.527 268.476 245.021 272.541 245.021C276.606 245.02 280.527 246.527 283.547 249.249L259.26 271.142Z" fill="#59221D"/>
<path d="M272.535 266.161C275.135 266.161 277.242 264.054 277.242 261.454C277.242 258.854 275.135 256.746 272.535 256.746C269.935 256.746 267.827 258.854 267.827 261.454C267.827 264.054 269.935 266.161 272.535 266.161Z" stroke="white" stroke-width="0.533992" stroke-miterlimit="10"/>
<path d="M122.468 277.886C131.546 277.886 138.904 270.527 138.904 261.45C138.904 252.372 131.546 245.014 122.468 245.014C113.391 245.014 106.032 252.372 106.032 261.45C106.032 270.527 113.391 277.886 122.468 277.886Z" fill="#A74602"/>
<path d="M106.885 256.21C108.128 252.515 110.644 249.382 113.984 247.371C117.324 245.359 121.27 244.6 125.117 245.229C128.965 245.858 132.464 247.833 134.989 250.803C137.515 253.773 138.903 257.544 138.905 261.443L106.885 256.21Z" fill="#59221D"/>
<path d="M122.476 266.161C125.076 266.161 127.184 264.054 127.184 261.454C127.184 258.854 125.076 256.746 122.476 256.746C119.876 256.746 117.769 258.854 117.769 261.454C117.769 264.054 119.876 266.161 122.476 266.161Z" stroke="white" stroke-width="0.533992" stroke-miterlimit="10"/>
<path d="M249.099 182.716C249.099 184.578 248.437 186.379 247.23 187.797C246.024 189.215 244.352 190.158 242.514 190.456C240.676 190.754 238.792 190.388 237.199 189.424C235.606 188.46 234.409 186.96 233.82 185.194L247.052 177.433C248.371 178.875 249.102 180.761 249.099 182.716Z" fill="#F3B304"/>
<path d="M247.051 177.433L233.82 185.194C233.252 183.489 233.287 181.641 233.919 179.959C234.551 178.276 235.741 176.862 237.291 175.953C238.841 175.044 240.657 174.695 242.434 174.964C244.21 175.234 245.841 176.105 247.051 177.433Z" fill="white" stroke="#59221D" stroke-width="0.533992" stroke-miterlimit="10" stroke-linecap="round"/>
<path d="M169.575 259.834V215.299H138.797C116.471 215.299 97.8931 232.463 96.1362 254.72H134.584C137.17 254.72 139.728 255.264 142.09 256.318C144.452 257.371 146.566 258.91 148.294 260.834L153.888 267.059C154.997 268.295 156.354 269.283 157.871 269.959C159.387 270.636 161.029 270.985 162.69 270.985H239.594C242.643 270.985 245.637 270.172 248.266 268.629L289.833 244.242C289.833 244.242 285.322 229.701 266.577 233.596L234.45 181.042C233.864 180.083 233.041 179.291 232.061 178.741C231.081 178.192 229.976 177.903 228.853 177.903H222.883V180.78H225.404C226.666 180.78 227.902 181.143 228.962 181.827C230.023 182.511 230.864 183.487 231.385 184.636L251.001 228.008C259.078 245.86 246.024 266.093 226.43 266.093H175.83C175.009 266.093 174.195 265.931 173.436 265.616C172.677 265.302 171.987 264.841 171.406 264.26C170.825 263.678 170.365 262.988 170.05 262.229C169.736 261.47 169.575 260.656 169.575 259.834Z" fill="white" stroke="#59221D" stroke-width="0.533992" stroke-miterlimit="10" stroke-linecap="round"/>
<path d="M99.9507 254.616C101.72 243.722 111.175 235.399 122.572 235.399C135.229 235.399 145.491 245.661 145.491 258.318" stroke="#59221D" stroke-width="0.533992" stroke-miterlimit="10"/>
<path d="M266.777 233.492C262.198 234.814 258.426 237.803 256.302 241.683" stroke="#59221D" stroke-width="0.533992" stroke-miterlimit="10"/>
<path d="M223.188 181.424C224.996 181.424 226.461 179.959 226.461 178.151C226.461 176.343 224.996 174.877 223.188 174.877C221.38 174.877 219.915 176.343 219.915 178.151C219.915 179.959 221.38 181.424 223.188 181.424Z" fill="#59221D"/>
<path d="M226.332 156.013C228.566 152.996 229.448 149.863 228.302 149.014C227.156 148.166 224.417 149.924 222.183 152.94C219.949 155.957 219.067 159.09 220.213 159.938C221.358 160.787 224.098 159.029 226.332 156.013Z" fill="#F3B304"/>
<path d="M225.523 155.324C227.829 152.211 228.738 148.977 227.556 148.102C226.373 147.226 223.546 149.039 221.241 152.152C218.936 155.265 218.026 158.499 219.208 159.374C220.391 160.25 223.218 158.437 225.523 155.324Z" stroke="#59221D" stroke-width="0.533992" stroke-miterlimit="10" stroke-linecap="round"/>
<path d="M232.388 178.94V166.348C232.388 164.632 231.752 162.977 230.603 161.702L223.5 153.823" stroke="#59221D" stroke-width="0.533992" stroke-miterlimit="10" stroke-linecap="round"/>
<path d="M169.576 215.299V222.594L135.914 215.406V215.398C136.867 215.333 137.828 215.3 138.798 215.301L169.576 215.299Z" fill="#59221D"/>
<path d="M115.59 155.386V218.845H85.1528C80.6672 218.845 76.9133 215.465 76.0012 210.954C75.8587 210.254 75.7872 209.541 75.7876 208.827V165.403C75.7876 165.381 75.7876 165.358 75.7876 165.334C75.7926 164.241 75.9666 163.154 76.3034 162.114C77.5754 158.197 81.0549 155.386 85.1495 155.386H115.59Z" fill="white" stroke="#59221D" stroke-width="0.533992" stroke-miterlimit="10" stroke-linecap="round"/>
<path d="M115.59 208.251V211.471H76.0017C75.8599 210.818 75.7883 210.151 75.7881 209.482V208.251H115.59Z" fill="#59221D"/>
<path d="M115.589 162.113V165.333H75.7964C75.8014 164.239 75.9754 163.153 76.3122 162.113H115.589Z" fill="#59221D"/>
<path d="M115.259 166.312H76.1128V166.846H115.259V166.312Z" fill="#98C8DB"/>
<path d="M105.914 155.418V218.878H136.352C140.837 218.878 144.591 215.498 145.503 210.987C145.646 210.287 145.717 209.574 145.717 208.859V165.436C145.717 165.414 145.717 165.39 145.717 165.367C145.712 164.273 145.538 163.187 145.201 162.147C143.929 158.229 140.45 155.418 136.355 155.418H105.914Z" fill="white" stroke="#59221D" stroke-width="0.533992" stroke-miterlimit="10" stroke-linecap="round"/>
<path d="M105.913 208.284V211.504H145.501C145.643 210.851 145.715 210.184 145.715 209.516V208.284H105.913Z" fill="#59221D"/>
<path d="M105.913 162.147V165.367H145.707C145.702 164.273 145.528 163.187 145.191 162.147H105.913Z" fill="#59221D"/>
<path d="M106.245 166.347H145.391V166.881H106.245V166.347Z" fill="#98C8DB"/>
<path d="M101.963 166.847H114.031V208.284H101.963V166.847Z" fill="white"/>
<path d="M101.963 166.847H114.031V208.284H101.963V166.847Z" fill="white"/>
<path d="M98.0112 165.351H114.245V166.312H98.0112V165.351Z" fill="white"/>
<path d="M98.0112 165.351H114.245V166.312H98.0112V165.351Z" fill="white"/>
<path d="M97.7969 155.739H114.03V162.147H97.7969V155.739Z" fill="white"/>
<path d="M97.7969 155.739H114.03V162.147H97.7969V155.739Z" fill="white"/>
<rect x="97.7969" y="211.488" width="16.2334" height="7.0487" fill="white"/>
<path d="M113.008 196.01V178.781C113.008 178.618 113.073 178.461 113.188 178.346C113.304 178.23 113.46 178.166 113.623 178.166C113.787 178.166 113.943 178.23 114.058 178.346C114.174 178.461 114.239 178.618 114.239 178.781V185.985" stroke="#98C8DB" stroke-width="0.533992" stroke-miterlimit="10"/>
<path d="M113.008 196.01V185.982H115.779V191.284C115.779 192.247 115.522 193.193 115.035 194.024C114.548 194.854 113.849 195.54 113.008 196.01Z" stroke="#98C8DB" stroke-width="0.533992" stroke-miterlimit="10"/>
<path d="M109.759 178.166L110.045 181.566C110.068 181.837 110.034 182.109 109.947 182.366C109.859 182.623 109.718 182.859 109.535 183.059C109.351 183.259 109.127 183.418 108.879 183.528C108.63 183.637 108.362 183.693 108.09 183.693C107.818 183.693 107.55 183.637 107.301 183.528C107.052 183.419 106.829 183.259 106.645 183.059C106.461 182.859 106.321 182.623 106.233 182.366C106.145 182.109 106.112 181.837 106.134 181.566L106.42 178.166" stroke="#F3B304" stroke-width="0.533992" stroke-miterlimit="10" stroke-linecap="round"/>
<path d="M108.088 178.166V186.577" stroke="#F3B304" stroke-width="0.533992" stroke-miterlimit="10" stroke-linecap="round"/>
<path d="M108.316 186.711H107.891C107.63 186.711 107.419 186.923 107.419 187.183V195.54C107.419 195.801 107.63 196.013 107.891 196.013H108.316C108.577 196.013 108.788 195.801 108.788 195.54V187.183C108.788 186.923 108.577 186.711 108.316 186.711Z" stroke="#F3B304" stroke-width="0.533992" stroke-miterlimit="10" stroke-linecap="round"/>
<path d="M13.2194 262.365C13.2194 262.365 25.1429 274.399 38.7268 274.092L75.1909 163.009L40.1229 161.628L13.2194 262.365Z" fill="#59221D"/>
<path d="M19.2041 221.924L59.4992 261.654C60.7397 260.136 69.7402 248.696 69.6524 233.615L42.2537 205.274L56.8481 189.85C67.0002 179.012 71.7163 173.5 75.1909 163.009L37.6327 152.439L15.0785 191.98C12.369 196.727 11.3045 202.238 12.0506 207.653C12.7967 213.069 15.3117 218.086 19.2041 221.924Z" fill="#A74602"/>
<path d="M50.2328 157.189C50.4168 158.563 52.8453 174.796 65.3027 180.456C66.4825 179.036 67.5464 177.67 68.5161 176.309C55.6835 169.474 51.0124 156.4 51.0124 156.4C50.7595 156.672 50.4997 156.935 50.2328 157.189Z" fill="#59221D"/>
<path d="M42.7065 205.275L38.1984 200.871" stroke="#59221D" stroke-width="0.522499" stroke-linecap="round" stroke-linejoin="round"/>
<path d="M1.00051 277.828V278.098H37.0957L38.9443 272.514C22.5577 272.609 13.5509 262.185 13.5509 262.185L3.77914 271.425C2.04065 273.107 1.04118 275.41 1.00051 277.828Z" fill="white" stroke="#592D29" stroke-width="0.522499" stroke-linecap="round" stroke-linejoin="round"/>
<path d="M37.7466 276.136H1.22289" stroke="#592D29" stroke-width="0.522499" stroke-linecap="round" stroke-linejoin="round"/>
<path d="M8.8343 275.882C8.8422 274.661 8.57158 273.454 8.043 272.354C7.51443 271.253 6.74183 270.287 5.78396 269.53" stroke="#592D29" stroke-width="0.522499" stroke-linecap="round" stroke-linejoin="round"/>
<path d="M15.6699 267.472L11.607 263.606C11.4283 263.436 11.1901 263.342 10.9434 263.345C10.6966 263.348 10.4607 263.447 10.2861 263.621C10.1169 263.791 10.0182 264.018 10.0101 264.258C10.002 264.497 10.0849 264.73 10.2422 264.911" stroke="#592D29" stroke-width="0.522499" stroke-linecap="round" stroke-linejoin="round"/>
<path d="M13.9712 268.944L9.9093 265.077C9.73062 264.907 9.49246 264.814 9.24567 264.816C8.99887 264.819 8.763 264.919 8.58841 265.093C8.41805 265.262 8.31863 265.49 8.31048 265.729C8.30232 265.969 8.38604 266.203 8.54453 266.383" stroke="#592D29" stroke-width="0.522499" stroke-linecap="round" stroke-linejoin="round"/>
<path d="M73.1658 278.086L75.1994 278.099L75.2495 238.994L69.6483 233.873C69.9002 250.259 59.5662 261.612 59.5662 261.612L70.4164 276.92C70.7756 277.285 71.2032 277.576 71.675 277.776C72.1468 277.977 72.6533 278.082 73.1658 278.086Z" fill="white" stroke="#592D29" stroke-width="0.522499" stroke-linecap="round" stroke-linejoin="round"/>
<path d="M73.0752 268.547C71.8916 268.846 70.7919 269.412 69.8599 270.201C68.9278 270.989 68.188 271.98 67.6966 273.098" stroke="#592D29" stroke-width="0.522499" stroke-linecap="round" stroke-linejoin="round"/>
<path d="M73.1221 237.051V278.087" stroke="#592D29" stroke-width="0.522499" stroke-linecap="round" stroke-linejoin="round"/>
<path d="M65.1167 261.417L61.4519 265.666C61.2897 265.852 61.2073 266.095 61.2226 266.342C61.2378 266.588 61.3495 266.819 61.5334 266.984C61.711 267.144 61.943 267.232 62.1826 267.228C62.4221 267.224 62.6514 267.13 62.824 266.964" stroke="#592D29" stroke-width="0.522499" stroke-linecap="round" stroke-linejoin="round"/>
<path d="M66.6704 263.038L63.0056 267.287C62.8434 267.473 62.761 267.716 62.7763 267.963C62.7915 268.209 62.9032 268.44 63.0871 268.605C63.2647 268.766 63.4968 268.853 63.7363 268.849C63.9759 268.846 64.2051 268.751 64.3777 268.585" stroke="#592D29" stroke-width="0.522499" stroke-linecap="round" stroke-linejoin="round"/>
<path d="M17.3624 127.873L20.4733 136.016C23.5561 143.91 30.9379 149.106 39.4118 149.106L30.5941 164.781C30.5941 164.781 43.782 164.181 51.0123 156.396C51.0123 156.396 57.2823 173.941 75.2427 179.009L75.1915 163.004V116.479C75.1915 103.169 64.3977 92.3814 51.0876 92.3877H51.0343C46.8096 92.3877 42.7449 94.0032 39.673 96.9034C36.6011 99.8036 34.7546 103.769 34.5118 107.986L34.0813 115.463L33.9277 118.152C33.9277 118.152 33.6079 128.736 17.3624 127.873Z" fill="#CEE4ED"/>
<path d="M72.5982 105.598V178.144C72.7477 178.201 72.8981 178.256 73.0518 178.31V106.537C73.0225 106.475 72.9943 106.414 72.9661 106.352C72.895 106.201 72.8239 106.049 72.7487 105.9C72.7006 105.797 72.6505 105.698 72.5982 105.598Z" fill="#CEE4ED"/>
<path d="M69.8425 101.338V176.976C69.9919 177.047 70.1424 177.118 70.2949 177.185V101.919C70.1465 101.725 69.9908 101.531 69.8425 101.338Z" fill="#CEE4ED"/>
<path d="M67.0866 98.4575V175.503C67.2357 175.593 67.3865 175.681 67.5391 175.769V98.8692C67.3896 98.7261 67.2391 98.5923 67.0866 98.4575Z" fill="#CEE4ED"/>
<path d="M64.3298 96.3438V173.674C64.4792 173.778 64.6307 173.892 64.7822 174.001V96.6489C64.6317 96.5458 64.4809 96.4441 64.3298 96.3438Z" fill="#CEE4ED"/>
<path d="M61.5728 94.7783V171.44C61.7223 171.574 61.8728 171.708 62.0264 171.84V95.003C61.8937 94.9351 61.7599 94.8682 61.6261 94.8044C61.6089 94.7947 61.5911 94.786 61.5728 94.7783Z" fill="#CEE4ED"/>
<path d="M58.818 93.6514V168.715C58.965 168.878 59.1158 169.04 59.2705 169.2V93.8144C59.1232 93.7548 58.9696 93.7026 58.818 93.6514Z" fill="#CEE4ED"/>
<path d="M56.0617 92.8994V165.365C56.209 165.564 56.3605 165.765 56.5142 165.967V92.9987C56.3637 92.9642 56.2132 92.9308 56.0617 92.8994Z" fill="#CEE4ED"/>
<path d="M53.305 92.4863V161.143C53.3635 161.247 53.4252 161.352 53.4868 161.456C53.5746 161.603 53.6634 161.755 53.7554 161.909V92.5323C53.607 92.5156 53.4565 92.4999 53.305 92.4863Z" fill="#CEE4ED"/>
<path d="M50.549 92.394V156.879C50.7026 156.726 50.8541 156.565 51.0015 156.41V92.3877C50.8499 92.3877 50.6995 92.3898 50.549 92.394Z" fill="#CEE4ED"/>
<path d="M47.7927 92.7052V159.184L47.8616 159.136C47.9901 159.045 48.1176 158.952 48.2451 158.859V92.6216C48.0936 92.6477 47.941 92.6759 47.7927 92.7052Z" fill="#CEE4ED"/>
<path d="M45.0368 93.5081V160.855C45.1883 160.777 45.3388 160.695 45.4893 160.613V93.3398C45.3367 93.3952 45.1862 93.4496 45.0368 93.5081Z" fill="#CEE4ED"/>
<path d="M42.2804 94.8899V162.124C42.4309 162.063 42.5824 162.001 42.7329 161.938V94.6172C42.6284 94.6778 42.5239 94.7405 42.4194 94.8042C42.3724 94.8325 42.3254 94.8586 42.2804 94.8899Z" fill="#CEE4ED"/>
<path d="M39.5246 97.0473V163.097C39.675 163.05 39.8255 163.003 39.9771 162.953V96.623C39.8726 96.715 39.7743 96.808 39.673 96.9031C39.6239 96.9491 39.5737 96.9972 39.5246 97.0473Z" fill="#CEE4ED"/>
<path d="M36.7682 153.805V163.837C36.9177 163.802 37.0681 163.765 37.2207 163.732V153.001L37.1894 153.055L36.9354 153.508L36.7682 153.805Z" fill="#CEE4ED"/>
<path d="M36.7682 100.543V148.934C36.9187 148.954 37.0692 148.972 37.2207 148.988V99.8188C37.1051 99.993 36.9925 100.171 36.8832 100.352C36.8435 100.414 36.8048 100.478 36.7682 100.543Z" fill="#CEE4ED"/>
<path d="M34.0128 116.995V148.378C34.1623 148.42 34.3138 148.46 34.4653 148.498V116.995H34.0128Z" fill="#CEE4ED"/>
<path d="M34.0128 158.708V164.388C34.1602 164.365 34.3117 164.339 34.4653 164.312V157.904L34.0254 158.687L34.0128 158.708Z" fill="#CEE4ED"/>
<path d="M31.2551 123.872V147.395C31.3407 147.433 31.4275 147.471 31.5142 147.506L31.7075 147.587V123.369C31.5664 123.537 31.416 123.706 31.2551 123.872Z" fill="#CEE4ED"/>
<path d="M31.2551 163.605V164.736C31.3878 164.725 31.5393 164.711 31.7075 164.692V162.801L31.2551 163.605Z" fill="#CEE4ED"/>
<path d="M28.4996 125.948V145.908C28.649 146.006 28.7995 146.099 28.9531 146.192V125.686L28.8204 125.764C28.7138 125.829 28.6093 125.889 28.4996 125.948Z" fill="#CEE4ED"/>
<path d="M25.7438 127.074V143.773C25.8912 143.911 26.0437 144.046 26.1963 144.179V126.931C26.0479 126.981 25.8922 127.028 25.7438 127.074Z" fill="#CEE4ED"/>
<path d="M22.9874 127.672V140.658C23.1337 140.867 23.2853 141.066 23.4399 141.264V127.599C23.2916 127.623 23.1411 127.647 22.9874 127.672Z" fill="#CEE4ED"/>
<path d="M20.2311 127.906V135.385L20.4725 136.012C20.5248 136.145 20.577 136.277 20.6324 136.408C20.6491 136.449 20.6658 136.49 20.6836 136.53V127.881C20.5342 127.894 20.3837 127.9 20.2311 127.906Z" fill="#CEE4ED"/>
<path d="M17.4739 127.881V128.171L17.6181 128.545L17.9316 129.356V127.899C17.778 127.893 17.6275 127.886 17.4739 127.881Z" fill="#CEE4ED"/>
<path d="M36.9352 153.509H75.1904V153.056H37.1891L36.9352 153.509Z" fill="#CEE4ED"/>
<path d="M38.4954 150.734H75.1904V150.282H38.7503L38.4954 150.734Z" fill="#CEE4ED"/>
<path d="M31.5148 147.506L31.7081 147.587C32.0289 147.721 32.3549 147.845 32.6831 147.96H75.1904V147.506H31.5148Z" fill="#CEE4ED"/>
<path d="M26.8635 144.733C27.0565 144.889 27.2533 145.04 27.4539 145.186H75.1904V144.733H26.8635Z" fill="#CEE4ED"/>
<path d="M24.0046 141.959C24.1342 142.113 24.2659 142.265 24.3997 142.412H75.1865V141.959H24.0046Z" fill="#CEE4ED"/>
<path d="M22.0251 139.185C22.1161 139.337 22.2091 139.489 22.3042 139.637H75.1904V139.185H22.0251Z" fill="#CEE4ED"/>
<path d="M20.6322 136.413C20.6489 136.453 20.6656 136.494 20.6834 136.535C20.7283 136.646 20.7764 136.755 20.8265 136.865H75.1904V136.413H20.6322Z" fill="#CEE4ED"/>
<path d="M19.5631 133.638L19.7366 134.091H75.1904V133.638H19.5631Z" fill="#CEE4ED"/>
<path d="M18.5046 130.864L18.677 131.317H75.1904V130.864H18.5046Z" fill="#CEE4ED"/>
<path d="M17.4449 128.091L17.4742 128.169L17.6184 128.543H75.1904V128.091H17.4449Z" fill="#CEE4ED"/>
<path d="M28.8176 125.769H75.1904V125.316H29.5387C29.3516 125.444 29.1552 125.57 28.9524 125.691L28.8176 125.769Z" fill="#CEE4ED"/>
<path d="M32.007 122.995H75.1904V122.542H32.332C32.2295 122.693 32.123 122.843 32.007 122.995Z" fill="#CEE4ED"/>
<path d="M33.4856 120.222H75.1904V119.77H33.6246C33.588 119.915 33.54 120.065 33.4856 120.222Z" fill="#CEE4ED"/>
<path d="M33.9674 117.448H75.1904V116.995H33.9914L33.9674 117.448Z" fill="#CEE4ED"/>
<path d="M34.1252 114.674H75.1235C75.112 114.522 75.1005 114.372 75.087 114.221H34.1471L34.1252 114.674Z" fill="#CEE4ED"/>
<path d="M34.2867 111.9H74.7563C74.7271 111.749 74.6968 111.598 74.6654 111.448H34.3129L34.2867 111.9Z" fill="#CEE4ED"/>
<path d="M34.4464 109.126H74.0518C74.0037 108.974 73.9535 108.823 73.9013 108.673H34.461V108.79L34.4464 109.126Z" fill="#CEE4ED"/>
<path d="M34.6845 106.354H72.9648C72.8938 106.202 72.8227 106.051 72.7475 105.901H34.7629C34.7347 106.051 34.7085 106.201 34.6845 106.354Z" fill="#CEE4ED"/>
<path d="M35.3714 103.579H71.4541C71.358 103.428 71.2597 103.276 71.1594 103.127H35.5376C35.478 103.277 35.4236 103.428 35.3714 103.579Z" fill="#CEE4ED"/>
<path d="M36.6177 100.805H69.394C69.2645 100.652 69.1321 100.502 68.9969 100.353H36.8831C36.8434 100.415 36.8048 100.479 36.7682 100.544C36.717 100.629 36.6668 100.716 36.6177 100.805Z" fill="#CEE4ED"/>
<path d="M38.5854 98.0306H66.5913C66.4095 97.877 66.2235 97.7255 66.0364 97.5781H38.995C38.856 97.7255 38.7191 97.877 38.5854 98.0306Z" fill="#CEE4ED"/>
<path d="M41.7182 95.2572H62.5137C62.3538 95.1704 62.1918 95.0858 62.0299 95.0032C61.8971 94.9353 61.7634 94.8684 61.6296 94.8047H42.4215C42.3755 94.8329 42.3285 94.8611 42.2836 94.8904C42.0882 95.0074 41.9032 95.1297 41.7182 95.2572Z" fill="#CEE4ED"/>
<path d="M66.792 175.324L67.0867 175.5C67.2358 175.59 67.3867 175.679 67.5392 175.766V175.776H75.2314V175.324H66.792Z" fill="#CEE4ED"/>
<path d="M62.8755 172.552C63.0615 172.703 63.2507 172.855 63.443 173.004H75.2222V172.552H62.8755Z" fill="#CEE4ED"/>
<path d="M59.8287 169.778C59.9782 169.929 60.1286 170.081 60.2823 170.23H75.2163V169.778H59.8287Z" fill="#CEE4ED"/>
<path d="M57.3367 167.004C57.46 167.155 57.5864 167.306 57.7129 167.457H75.2051V167.004H57.3367Z" fill="#CEE4ED"/>
<path d="M55.2561 164.23C55.3606 164.38 55.4651 164.531 55.5696 164.683H75.1968V164.23H55.2561Z" fill="#CEE4ED"/>
<path d="M30.6496 164.683H31.7991C32.3718 164.621 33.1241 164.527 34.0082 164.383C34.1556 164.36 34.3071 164.334 34.4607 164.307C34.6143 164.28 34.7439 164.258 34.8892 164.23H30.9077L30.6496 164.683Z" fill="#CEE4ED"/>
<path d="M53.4869 161.457C53.5747 161.604 53.6635 161.755 53.7554 161.909H75.1904V161.457H53.4869Z" fill="#CEE4ED"/>
<path d="M32.2102 161.909H42.8023C43.1429 161.765 43.4833 161.614 43.8232 161.457H32.4651L32.2102 161.909Z" fill="#CEE4ED"/>
<path d="M52.0061 158.682C52.0761 158.827 52.1514 158.978 52.2287 159.136H75.1904V158.682H52.0061Z" fill="#CEE4ED"/>
<path d="M33.7707 159.136H47.8625C47.991 159.045 48.1185 158.952 48.246 158.859L48.479 158.682H34.0257L34.0131 158.704L33.7707 159.136Z" fill="#CEE4ED"/>
<path d="M35.3301 156.361H75.1904V155.908H35.585L35.3301 156.361Z" fill="#CEE4ED"/>
<path d="M59.9937 94.4085L56.3466 90.0696C56.1752 89.8655 55.958 89.7048 55.7126 89.6005C55.4673 89.4963 55.2008 89.4515 54.9348 89.4698L45.1202 90.1417C44.8356 90.1614 44.5606 90.2526 44.3206 90.4067C44.0806 90.5609 43.8833 90.7731 43.7471 91.0237L40.6121 96.8026C40.6121 96.8026 44.9593 92.889 52.1886 93.0312C56.8534 93.1221 59.9937 94.4085 59.9937 94.4085Z" fill="#CEE4ED"/>
<path d="M17.6244 128.139C35.9118 128.318 34.0476 117.241 34.0476 117.241L43.4985 126.931" stroke="#CEE4ED" stroke-width="0.522499" stroke-linecap="round" stroke-linejoin="round"/>
<path d="M61.3994 123.229C61.3994 123.229 56.0449 149.236 38.4701 149.421" stroke="#CEE4ED" stroke-width="0.522499" stroke-linecap="round" stroke-linejoin="round"/>
<path d="M17.0476 127.455C33.2931 128.318 33.7163 117.632 33.7163 117.632L19.5869 95.2907C19.0298 94.4029 18.2564 93.671 17.3393 93.1637C16.4222 92.6563 15.3912 92.39 14.3431 92.3898H12.507L12.8133 92.9561C12.9263 93.1656 12.983 93.4009 12.9779 93.6389C12.9728 93.8768 12.906 94.1094 12.784 94.3139C12.6621 94.5183 12.4891 94.6875 12.2821 94.8051C12.0751 94.9227 11.8412 94.9845 11.6031 94.9845H10.2885C10.0384 94.9847 9.79301 94.9167 9.57868 94.7878C9.36435 94.6589 9.18922 94.474 9.07215 94.253L5.75115 87.9443L4.63824 91.3866C4.27898 92.4962 4.30993 93.6953 4.726 94.7849L17.0476 127.455Z" fill="white"/>
<path d="M5.85459 88.1366L9.06691 94.2477C9.18371 94.469 9.35876 94.6541 9.57316 94.783C9.78755 94.9119 10.0331 94.9798 10.2833 94.9792H11.6418C11.8771 94.9789 12.1084 94.9182 12.3135 94.803C12.5186 94.6877 12.6908 94.5218 12.8135 94.321C12.9361 94.1202 13.0052 93.8913 13.0141 93.6562C13.0231 93.4211 12.9715 93.1876 12.8644 92.9781L10.3564 88.147C10.2107 87.8643 9.99002 87.627 9.71855 87.4611C9.44709 87.2953 9.13529 87.2072 8.81717 87.2065H6.41367C6.30458 87.2069 6.19742 87.2354 6.10255 87.2893C6.00768 87.3431 5.9283 87.4206 5.87209 87.5141C5.81588 87.6076 5.78474 87.714 5.78167 87.823C5.77861 87.9321 5.80373 88.0401 5.85459 88.1366Z" fill="#59221D"/>
<path d="M12.9807 116.786C12.9807 116.786 11.5114 127.863 17.8514 127.913C34.4334 128.029 33.9256 118.26 33.9256 118.26C33.9256 113.804 29.9828 111.631 29.9828 111.631C29.9828 111.631 29.7477 115.8 23.346 117.648C16.9444 119.497 12.9807 116.786 12.9807 116.786Z" fill="#CEE4ED"/>
<path d="M40.5329 87.8764L43.7306 92.4127C45.6893 91.0669 48.0108 90.3482 50.3873 90.352H55.3301C55.5962 90.352 55.862 90.3562 56.1274 90.3645L49.1521 84.0151L40.5329 87.8764Z" fill="white" stroke="#59221D" stroke-width="0.522499" stroke-miterlimit="10" stroke-linecap="round"/>
<path d="M38.0499 79.7151L37.2714 84.5001C37.2406 84.7626 37.3065 85.0274 37.4567 85.2449C37.6069 85.4624 37.8311 85.6178 38.0875 85.682L38.1534 85.6977C38.4089 85.7601 38.6396 85.8982 38.8153 86.094C38.9909 86.2898 39.1033 86.5341 39.1377 86.7949L39.3467 88.3854C39.3905 88.7138 39.5624 89.0116 39.825 89.2136C40.0875 89.4157 40.4194 89.5057 40.7481 89.4638C42.5423 89.2245 45.7317 88.3645 46.6147 85.2713C47.8635 80.8969 43.2122 79.7119 43.2122 79.7119L38.0499 79.7151Z" fill="white" stroke="#59221D" stroke-width="0.522499" stroke-miterlimit="10" stroke-linecap="round"/>
<path d="M42.0474 81.3557C42.0474 81.3557 41.0327 80.7632 40.1361 80.7476" stroke="#59221D" stroke-width="0.522499" stroke-miterlimit="10" stroke-linecap="round"/>
<path d="M40.6863 83.3907C40.5074 83.3907 40.3624 83.1334 40.3624 82.816C40.3624 82.4985 40.5074 82.2412 40.6863 82.2412C40.8652 82.2412 41.0103 82.4985 41.0103 82.816C41.0103 83.1334 40.8652 83.3907 40.6863 83.3907Z" fill="#59221D"/>
<path d="M39.1709 86.8535C40.3893 86.8535 40.6475 85.6685 40.6475 85.6685" stroke="#59221D" stroke-width="0.522499" stroke-miterlimit="10" stroke-linecap="round"/>
<path d="M49.7688 83.4649L49.912 83.1514C50.6028 81.6468 50.6683 79.9296 50.094 78.3769C49.5197 76.8241 48.3526 75.5627 46.8491 74.8698L46.0476 74.4998C45.3334 74.1703 44.5562 73.9998 43.7697 74C42.9831 74.0002 42.206 74.1712 41.492 74.501C40.778 74.8309 40.1441 75.3119 39.6341 75.9107C39.1241 76.5094 38.7502 77.2118 38.5382 77.9692L38.0492 79.7144H41.9888C42.4965 79.7144 42.9835 79.9161 43.3425 80.2751C43.7015 80.6341 43.9032 81.1211 43.9032 81.6288V82.2663C43.9032 83.0276 44.2057 83.7577 44.744 84.2961C45.2824 84.8344 46.0125 85.1369 46.7738 85.1369H47.1605C47.7097 85.137 48.2473 84.9795 48.7097 84.6831C49.172 84.3868 49.5396 83.9639 49.7688 83.4649Z" fill="#59221D"/>
<path d="M41.9543 90.3765C41.9826 90.3763 42.0109 90.3745 42.0389 90.3712C42.6785 90.2918 44.0965 89.902 45.3589 88.9438C46.8909 87.7796 47.6454 86.1892 47.5419 84.3458C47.5318 84.1656 47.4505 83.9969 47.316 83.8767C47.1814 83.7564 47.0047 83.6946 46.8245 83.7047C46.6444 83.7148 46.4756 83.7961 46.3554 83.9306C46.2351 84.0651 46.1733 84.2419 46.1834 84.4221C46.3694 87.7431 42.7715 88.9156 41.8696 89.0201C41.6895 89.031 41.5211 89.1131 41.4014 89.2482C41.2818 89.3833 41.2207 89.5604 41.2317 89.7406C41.2426 89.9207 41.3247 90.0892 41.4598 90.2088C41.5949 90.3284 41.7721 90.3895 41.9522 90.3786L41.9543 90.3765Z" fill="#59221D"/>
<path d="M46.8265 84.3456C45.8944 84.3456 45.1388 83.59 45.1388 82.6579C45.1388 81.7258 45.8944 80.9702 46.8265 80.9702C47.7586 80.9702 48.5142 81.7258 48.5142 82.6579C48.5142 83.59 47.7586 84.3456 46.8265 84.3456Z" stroke="white" stroke-width="0.522499" stroke-miterlimit="10"/>
<path d="M42.8224 79.9987C43.6354 80.1471 41.1347 79.0927 39.3739 78.1522C39.4807 77.8607 39.5351 77.5525 39.5348 77.242C39.5348 75.7111 38.2422 74.4707 36.6485 74.4707C35.0549 74.4707 33.7612 75.7111 33.7612 77.242C33.7612 78.773 35.0539 80.0123 36.6485 80.0123L42.8224 79.9987Z" fill="#F3B304"/>
<path d="M31.9486 78.0637C31.3876 78.0637 30.9329 77.6089 30.9329 77.048C30.9329 76.487 31.3876 76.0322 31.9486 76.0322C32.5096 76.0322 32.9644 76.487 32.9644 77.048C32.9644 77.6089 32.5096 78.0637 31.9486 78.0637Z" fill="#F3B304"/>
</svg>
