<svg width="134" height="83" viewBox="0 0 134 83" fill="none" xmlns="http://www.w3.org/2000/svg">
<path d="M176.83 81.4315V81.4315C185.456 73.8835 184.913 60.2994 175.711 53.4641L165.64 45.9828C160.149 41.9032 156.911 35.4654 156.911 28.6241V28.6241C156.911 16.6814 147.23 7 135.287 7H130.044C120.168 7 111.14 12.5796 106.723 21.4127V21.4127C100.707 33.4464 86.5212 38.9259 73.9771 34.0619L62.8608 29.7514C52.5437 25.7509 40.8551 30.1708 35.7366 39.9814V39.9814C33.4271 44.4078 32.7164 49.5074 33.7346 54.3951L34.0189 55.7597C35.9792 65.1689 30.9466 74.6372 22.051 78.2763V78.2763C17.1161 80.2951 13.1956 84.2067 11.1655 89.1369L7 99.2531" stroke="#DB3319" stroke-width="12.58" stroke-linecap="round"/>
</svg>
